<svg id="Layer_1" data-name="Layer 1" xmlns="http://www.w3.org/2000/svg" viewBox="0 0 1200 1000">
  <defs>
    <style>
      .cls-1 {
        fill: #f5ffe3;
      }

      .cls-2 {
        fill: #fff;
      }

      .cls-3 {
        fill: #10162f;
      }

      .cls-4 {
        fill: #008927;
      }
    </style>
  </defs>
  <g>
    <path class="cls-1" d="M79.5,520.5h500a0,0,0,0,1,0,0V920.21a.29.29,0,0,1-.29.29H79.79a.29.29,0,0,1-.29-.29V520.5A0,0,0,0,1,79.5,520.5Z"/>
    <path class="cls-2" d="M579.21,921H79.79a.8.8,0,0,1-.79-.79V520H580V920.21A.8.8,0,0,1,579.21,921ZM80,920H579V521H80Z"/>
  </g>
  <g>
    <path class="cls-1" d="M620.5,520.5h500a0,0,0,0,1,0,0V920.21a.29.29,0,0,1-.29.29H620.79a.29.29,0,0,1-.29-.29V520.5A0,0,0,0,1,620.5,520.5Z"/>
    <path class="cls-2" d="M1120.21,921H620.79a.8.8,0,0,1-.79-.79V520h501V920.21A.8.8,0,0,1,1120.21,921ZM621,920h499V521H621Z"/>
  </g>
  <g>
    <path class="cls-1" d="M79.5,80.5h500a0,0,0,0,1,0,0V480.21a.29.29,0,0,1-.29.29H79.79a.29.29,0,0,1-.29-.29V80.5A0,0,0,0,1,79.5,80.5Z"/>
    <path class="cls-2" d="M579.21,481H79.79a.8.8,0,0,1-.79-.79V80H580V480.21A.8.8,0,0,1,579.21,481ZM80,480H579V81H80Z"/>
  </g>
  <g>
    <path class="cls-1" d="M620.5,80.5h500a0,0,0,0,1,0,0V480.21a.29.29,0,0,1-.29.29H620.79a.29.29,0,0,1-.29-.29V80.5A0,0,0,0,1,620.5,80.5Z"/>
    <path class="cls-2" d="M1120.21,481H620.79a.8.8,0,0,1-.79-.79V80h501V480.21A.8.8,0,0,1,1120.21,481ZM621,480h499V81H621Z"/>
  </g>
  <g>
    <g>
      <path class="cls-3" d="M1081.48,343.86h-67.74a.38.38,0,0,1-.34-.41v-83a.38.38,0,0,1,.34-.41l62.11,10.24a.39.39,0,0,1,.34.41l5.63,72.74A.38.38,0,0,1,1081.48,343.86Z"/>
      <path class="cls-3" d="M1081.48,344.36h-67.74a.87.87,0,0,1-.84-.91v-83a.87.87,0,0,1,.84-.91l62.19,10.25h0a.86.86,0,0,1,.75.9l5.63,72.7A.89.89,0,0,1,1081.48,344.36Zm-67.58-1h67.42l-5.63-72.59-61.79-10.18Zm61.87-72.57h0Z"/>
    </g>
    <g>
      <path class="cls-1" d="M1084.23,340.62h-67.75a.39.39,0,0,1-.34-.42v-83a.39.39,0,0,1,.34-.42h57.73l10.36,15.67V340.2A.39.39,0,0,1,1084.23,340.62Z"/>
      <path class="cls-3" d="M1084.23,341.12h-67.75a.88.88,0,0,1-.84-.92v-83a.88.88,0,0,1,.84-.92h58l10.59,16V340.2A.88.88,0,0,1,1084.23,341.12Zm-67.59-1h67.43V272.64L1074,257.31h-57.31Z"/>
    </g>
  </g>
  <g>
    <path class="cls-3" d="M1031.12,313.91a8.8,8.8,0,0,1-3-5.85l5.63-1.19a5.39,5.39,0,0,0,1.36,2.95,3.45,3.45,0,0,0,2.51.92,3.85,3.85,0,0,0,3-1.18c.7-.8,1-2.16,1-4.1V284.87h5.72v20q0,6-2.51,8.58t-7.29,2.59A9.74,9.74,0,0,1,1031.12,313.91Z"/>
    <path class="cls-3" d="M1057.65,314.88a10.51,10.51,0,0,1-3.69-3.12,11,11,0,0,1-2-4.36l4.62-2.9a10.69,10.69,0,0,0,2.22,4.53,5,5,0,0,0,3.89,1.71,4.43,4.43,0,0,0,2.9-.9,3.33,3.33,0,0,0,1.1-2.75,3,3,0,0,0-.75-2,7.11,7.11,0,0,0-1.86-1.54c-.75-.44-1.81-1-3.19-1.67l-1.28-.62a12.35,12.35,0,0,1-4.22-3.32,8.05,8.05,0,0,1-1.58-5.13,8.36,8.36,0,0,1,1.08-4.22,7.66,7.66,0,0,1,3-3,9.06,9.06,0,0,1,4.46-1.08q6.38,0,8.71,5.59l-4.62,2.95q-1.14-3.26-4.09-3.26a3.23,3.23,0,0,0-2.2.81,2.6,2.6,0,0,0-.92,2,3,3,0,0,0,.82,2.09,7.61,7.61,0,0,0,2,1.54c.78.42,1.9,1,3.37,1.65a23.2,23.2,0,0,1,3.62,2.06,8.05,8.05,0,0,1,3.37,6.87,9.3,9.3,0,0,1-1.25,4.86,8.42,8.42,0,0,1-3.5,3.21,11.25,11.25,0,0,1-5.1,1.12A10.68,10.68,0,0,1,1057.65,314.88Z"/>
  </g>
  <g>
    <path class="cls-3" d="M732.54,300.54H689a.5.5,0,0,1-.5-.5.51.51,0,0,1,.5-.5h43.59a.5.5,0,0,1,.5.5A.5.5,0,0,1,732.54,300.54Z"/>
    <path class="cls-3" d="M722,311a.46.46,0,0,1-.35-.14.5.5,0,0,1,0-.71L731.83,300,721.69,289.9a.5.5,0,0,1,0-.71.5.5,0,0,1,.7,0l10.5,10.5a.5.5,0,0,1,0,.71l-10.5,10.5A.46.46,0,0,1,722,311Z"/>
  </g>
  <g>
    <g>
      <path class="cls-3" d="M313.43,328.87H245.69a.38.38,0,0,1-.35-.41v-83a.39.39,0,0,1,.35-.42l62.1,10.24a.39.39,0,0,1,.35.42l5.63,72.73A.38.38,0,0,1,313.43,328.87Z"/>
      <path class="cls-3" d="M313.43,329.37H245.69a.88.88,0,0,1-.85-.91v-83a.89.89,0,0,1,.85-.92l62.19,10.25c.39,0,.76.4.76.91l5.63,72.69A.89.89,0,0,1,313.43,329.37Zm-67.59-1h67.43l-5.63-72.58-61.8-10.19Zm61.88-72.57h0Z"/>
    </g>
    <g>
      <path class="cls-1" d="M316.17,325.63H248.43a.39.39,0,0,1-.34-.42v-83a.38.38,0,0,1,.34-.41h57.73l10.36,15.67v67.71A.39.39,0,0,1,316.17,325.63Z"/>
      <path class="cls-3" d="M316.17,326.13H248.43a.88.88,0,0,1-.84-.92v-83a.87.87,0,0,1,.84-.91h58l10.59,16v67.86A.89.89,0,0,1,316.17,326.13Zm-67.58-1H316V257.65l-10.13-15.32h-57.3Z"/>
    </g>
  </g>
  <g>
    <path class="cls-3" d="M263.3,276.89V273.2l15.52-8.28v3.74l-12,6.38,12,6.38v3.74Z"/>
    <path class="cls-3" d="M284.09,281.42l12-6.38-12-6.38v-3.74l15.48,8.28v3.69l-15.48,8.27Z"/>
  </g>
  <g>
    <path class="cls-3" d="M227.92,286.34H203.5a.5.5,0,0,1-.5-.5.5.5,0,0,1,.5-.5h24.42a.5.5,0,0,1,.5.5A.5.5,0,0,1,227.92,286.34Z"/>
    <path class="cls-3" d="M217.42,296.84a.47.47,0,0,1-.35-.15.5.5,0,0,1,0-.71l10.14-10.14-10.14-10.15a.5.5,0,0,1,0-.71.5.5,0,0,1,.7,0l10.5,10.5a.5.5,0,0,1,0,.71l-10.5,10.5A.47.47,0,0,1,217.42,296.84Z"/>
  </g>
  <g>
    <path class="cls-3" d="M358.92,286.34H334.5a.5.5,0,0,1-.5-.5.5.5,0,0,1,.5-.5h24.42a.5.5,0,0,1,.5.5A.5.5,0,0,1,358.92,286.34Z"/>
    <path class="cls-3" d="M348.42,296.84a.47.47,0,0,1-.35-.15.5.5,0,0,1,0-.71l10.14-10.14-10.14-10.15a.5.5,0,0,1,0-.71.5.5,0,0,1,.7,0l10.5,10.5a.5.5,0,0,1,0,.71l-10.5,10.5A.47.47,0,0,1,348.42,296.84Z"/>
  </g>
  <g>
    <path class="cls-3" d="M556.78,230.58H377.23v-.94a16,16,0,0,1,16-16H541.29a16.23,16.23,0,0,1,16.21,16.21A.72.72,0,0,1,556.78,230.58Zm-178.55-1H556.5a15.23,15.23,0,0,0-15.21-14.93H393.22A15,15,0,0,0,378.23,229.58Z"/>
    <path class="cls-3" d="M391.37,225.25a3.14,3.14,0,1,1,3.14-3.14A3.15,3.15,0,0,1,391.37,225.25Zm0-5.28a2.14,2.14,0,1,0,2.14,2.14A2.14,2.14,0,0,0,391.37,220Z"/>
    <path class="cls-3" d="M399.24,225.25a3.14,3.14,0,1,1,3.14-3.14A3.15,3.15,0,0,1,399.24,225.25Zm0-5.28a2.14,2.14,0,1,0,2.14,2.14A2.14,2.14,0,0,0,399.24,220Z"/>
    <path class="cls-3" d="M407.12,225.25a3.14,3.14,0,1,1,3.14-3.14A3.15,3.15,0,0,1,407.12,225.25Zm0-5.28a2.14,2.14,0,1,0,2.14,2.14A2.14,2.14,0,0,0,407.12,220Z"/>
    <g>
      <path class="cls-3" d="M375,233.41H554a.29.29,0,0,1,.29.29V345.47a.29.29,0,0,1-.29.29H375a0,0,0,0,1,0,0V233.41A0,0,0,0,1,375,233.41Z"/>
      <path class="cls-3" d="M554,346.27H374.49V232.91H554a.79.79,0,0,1,.8.79V345.47A.8.8,0,0,1,554,346.27Zm-178.47-1H553.76V233.91H375.49Z"/>
    </g>
    <g>
      <path class="cls-1" d="M377.73,230.08h179a.29.29,0,0,1,.29.29V342.15a.29.29,0,0,1-.29.29h-179a0,0,0,0,1,0,0V230.08A0,0,0,0,1,377.73,230.08Z"/>
      <path class="cls-3" d="M556.71,342.94H377.23V229.58H556.71a.8.8,0,0,1,.79.8V342.15A.79.79,0,0,1,556.71,342.94Zm-178.48-1H556.5V230.58H378.23Z"/>
    </g>
    <g>
      <rect class="cls-2" x="422.75" y="236.12" width="114.07" height="15.37" rx="7.69"/>
      <path class="cls-3" d="M529.14,252h-98.7a8.19,8.19,0,0,1,0-16.38h98.7a8.19,8.19,0,1,1,0,16.38Zm-98.7-15.38a7.19,7.19,0,0,0,0,14.38h98.7a7.19,7.19,0,1,0,0-14.38Z"/>
    </g>
    <path class="cls-3" d="M390.51,247.51a.5.5,0,0,1-.35-.15l-3.57-3.57a.5.5,0,0,1,0-.7l3.57-3.57a.5.5,0,0,1,.71.71l-3.22,3.21,3.22,3.21a.51.51,0,0,1,0,.71A.51.51,0,0,1,390.51,247.51Z"/>
    <path class="cls-3" d="M402.7,247.51a.51.51,0,0,1-.36-.15.51.51,0,0,1,0-.71l3.21-3.21-3.21-3.21a.5.5,0,0,1,.71-.71l3.57,3.57a.5.5,0,0,1,0,.7l-3.57,3.57A.5.5,0,0,1,402.7,247.51Z"/>
    <g>
      <path class="cls-3" d="M437.39,243.35l.59,2.14.4-2.94h.69l-.66,4h-.69l-.65-2.41-.65,2.41h-.69l-.67-4h.7l.4,2.94.59-2.14Z"/>
      <path class="cls-3" d="M442.16,243.35l.59,2.14.41-2.94h.69l-.67,4h-.68l-.66-2.41-.65,2.41h-.69l-.66-4h.69l.4,2.94.6-2.14Z"/>
      <path class="cls-3" d="M446.94,243.35l.59,2.14.41-2.94h.69l-.67,4h-.69l-.65-2.41-.65,2.41h-.69l-.66-4h.69l.4,2.94.59-2.14Z"/>
      <path class="cls-3" d="M451,246.53v-.85h.85v.85Z"/>
      <path class="cls-3" d="M457.85,243.87h-.68a1,1,0,0,0-.94-.83c-.6,0-1.08.51-1.08,1.51s.48,1.52,1.08,1.52a1,1,0,0,0,1-.82h.7a1.65,1.65,0,0,1-1.71,1.37c-1.1,0-1.76-.85-1.76-2.07a1.86,1.86,0,0,1,1.83-2.07A1.54,1.54,0,0,1,457.85,243.87Z"/>
      <path class="cls-3" d="M461,242.48a2.08,2.08,0,1,1-1.84,2.07A1.85,1.85,0,0,1,461,242.48Zm0,3.57c.61,0,1.12-.44,1.12-1.5s-.51-1.5-1.12-1.5-1.13.44-1.13,1.5S460.35,246.05,461,246.05Z"/>
      <path class="cls-3" d="M466.63,241.16h.68v5.37h-.67V246a1.27,1.27,0,0,1-1.17.65c-.92,0-1.61-.75-1.61-2.07s.69-2.07,1.61-2.07a1.25,1.25,0,0,1,1.17.67Zm-1,1.89c-.69,0-1,.55-1,1.5s.34,1.51,1,1.51,1.06-.46,1.06-1.51S466.17,243.05,465.6,243.05Z"/>
      <path class="cls-3" d="M468.73,244.55a1.85,1.85,0,0,1,1.81-2.08c1.16,0,1.82.85,1.77,2.27h-2.86c0,.8.44,1.33,1.07,1.33a1,1,0,0,0,1-.73h.7a1.63,1.63,0,0,1-1.71,1.28C469.33,246.62,468.73,245.73,468.73,244.55Zm.72-.37h2.14a1,1,0,0,0-1-1.14C469.89,243,469.48,243.41,469.45,244.18Z"/>
      <path class="cls-3" d="M477,243.87h-.69a.94.94,0,0,0-.94-.83c-.59,0-1.08.51-1.08,1.51s.49,1.52,1.08,1.52a1,1,0,0,0,1-.82H477a1.65,1.65,0,0,1-1.71,1.37c-1.11,0-1.76-.85-1.76-2.07a1.85,1.85,0,0,1,1.82-2.07A1.55,1.55,0,0,1,477,243.87Z"/>
      <path class="cls-3" d="M478.37,245.49c0-1,1-1.23,2.64-1.41v-.17a.79.79,0,0,0-.9-.9.83.83,0,0,0-.95.79h-.69a1.53,1.53,0,0,1,1.65-1.33c1.1,0,1.58.48,1.56,1.59v1c0,.66,0,1.23.05,1.5h-.65v-.59a1.46,1.46,0,0,1-1.4.68A1.16,1.16,0,0,1,478.37,245.49Zm2.69-.87c-1.21.12-2,.29-2,.86,0,.37.28.6.76.6s1.2-.29,1.2-1.35Z"/>
      <path class="cls-3" d="M485.74,241.16h.68v5.37h-.67V246a1.28,1.28,0,0,1-1.18.65c-.91,0-1.6-.75-1.6-2.07s.69-2.07,1.6-2.07a1.26,1.26,0,0,1,1.18.67Zm-1,1.89c-.68,0-1,.55-1,1.5s.35,1.51,1,1.51,1.07-.46,1.07-1.51S485.27,243.05,484.7,243.05Z"/>
      <path class="cls-3" d="M487.84,244.55a1.85,1.85,0,0,1,1.8-2.08c1.16,0,1.83.85,1.78,2.27h-2.86c0,.8.44,1.33,1.07,1.33a1,1,0,0,0,1-.73h.7a1.63,1.63,0,0,1-1.72,1.28C488.44,246.62,487.84,245.73,487.84,244.55Zm.72-.37h2.13a1,1,0,0,0-1.05-1.14C489,243,488.59,243.41,488.56,244.18Z"/>
      <path class="cls-3" d="M495.39,242.48c.41,0,.82.19.82,1.24v2.81h-.68v-2.46c0-.58,0-1-.34-1s-.44.4-.44,1.22v2.26h-.69v-2.46c0-.58,0-1-.33-1s-.45.41-.45,1.24v2.24h-.68v-4h.65V243a.79.79,0,0,1,.73-.49.64.64,0,0,1,.62.5A.87.87,0,0,1,495.39,242.48Z"/>
      <path class="cls-3" d="M497.35,247.82v-.58h.72c.42,0,.55-.05.76-.62l0-.09-1.49-4h.75l1.08,3.07,1.05-3.07H501l-1.47,4.15c-.29.78-.51,1.12-1.35,1.12Z"/>
      <path class="cls-3" d="M503.52,246.53v-.85h.85v.85Z"/>
      <path class="cls-3" d="M510.4,243.87h-.69a1,1,0,0,0-.94-.83c-.59,0-1.08.51-1.08,1.51s.49,1.52,1.08,1.52a1,1,0,0,0,1-.82h.71a1.67,1.67,0,0,1-1.71,1.37c-1.11,0-1.77-.85-1.77-2.07a1.86,1.86,0,0,1,1.83-2.07A1.55,1.55,0,0,1,510.4,243.87Z"/>
      <path class="cls-3" d="M513.5,242.48a2.08,2.08,0,1,1-1.84,2.07A1.85,1.85,0,0,1,513.5,242.48Zm0,3.57c.61,0,1.13-.44,1.13-1.5s-.52-1.5-1.13-1.5-1.12.44-1.12,1.5S512.9,246.05,513.5,246.05Z"/>
      <path class="cls-3" d="M519.27,242.48c.42,0,.83.19.83,1.24v2.81h-.69v-2.46c0-.58,0-1-.34-1s-.44.4-.44,1.22v2.26H518v-2.46c0-.58,0-1-.33-1s-.46.41-.46,1.24v2.24h-.68v-4h.65V243a.8.8,0,0,1,.73-.49.64.64,0,0,1,.62.5A.87.87,0,0,1,519.27,242.48Z"/>
    </g>
  </g>
  <g>
    <g>
      <g>
        <path class="cls-4" d="M142.79,319.5c-15.68,0-30.21-1.52-37-3.88C102,315,102,313.7,102,313.28v-.14a.76.76,0,0,1,.07-.38l0-.05v-.06l.26-.68-.37,0V295.59h81.55v16.46h-.34l.25.67a.86.86,0,0,1,.09.37v.12c0,.48,0,1.71-3.62,2.37C173.07,318,158.52,319.5,142.79,319.5Z"/>
        <path class="cls-3" d="M183.06,296.09v15.46h-.5l.41,1.27h0v.05l0,.05,0,.05a.44.44,0,0,1,0,.08h0l1,.11-1-.06v.21c0,.8-1.11,1.4-3.22,1.78h-.07l-.08,0c-6.73,2.35-21.22,3.87-36.9,3.87s-30.1-1.51-36.85-3.85l-.08,0h-.08c-2.14-.38-3.24-1-3.27-1.79a.28.28,0,0,0,0-.09v-.14a.27.27,0,0,1,0-.12l0,0,0-.05,0-.06h0l.42-1.26h-.51V296.09h80.55m1-1H101.51v17.46h.12a1.24,1.24,0,0,0-.12.53s0,.06,0,.1,0,.06,0,.09c0,1.49,1.47,2.35,4.1,2.81,6.68,2.31,20.81,3.91,37.18,3.91s30.58-1.6,37.23-3.93c2.59-.47,4-1.32,4-2.79,0,0,0-.06,0-.09s0-.07,0-.1a1.24,1.24,0,0,0-.12-.53h.12V295.09Z"/>
      </g>
      <g>
        <path class="cls-4" d="M142.79,301.47c-24,0-40.78-3.38-40.78-6.42s16.75-6.41,40.78-6.41,40.77,3.38,40.77,6.41S166.81,301.47,142.79,301.47Z"/>
        <path class="cls-3" d="M142.79,289.14a184.5,184.5,0,0,1,29,2c9.24,1.55,11.26,3.34,11.26,3.9s-2,2.36-11.26,3.91a185.72,185.72,0,0,1-29,2,185.76,185.76,0,0,1-29-2c-9.24-1.55-11.26-3.34-11.26-3.91s2-2.35,11.26-3.9a184.55,184.55,0,0,1,29-2m0-1c-22.8,0-41.28,3.1-41.28,6.91S120,302,142.79,302s41.27-3.1,41.27-6.92-18.48-6.91-41.27-6.91Z"/>
      </g>
    </g>
    <g>
      <g>
        <path class="cls-4" d="M142.79,301.49c-15.69,0-30.21-1.52-37-3.88-3.76-.67-3.76-1.92-3.76-2.33v-.15a.7.7,0,0,1,.07-.37l.3-.72H102V277.58h81.55V294h-.38l.3.7a.93.93,0,0,1,.08.34v.12c0,.48,0,1.72-3.62,2.37C173.07,300,158.52,301.49,142.79,301.49Z"/>
        <path class="cls-3" d="M183.06,278.08v15.46h-.5l.41,1.27h0v.05l0,0,0,0a.44.44,0,0,1,0,.08h0l1,.11-1,0v.21c0,.79-1.11,1.39-3.22,1.77h-.07l-.08,0c-6.73,2.35-21.22,3.87-36.9,3.87s-30.1-1.51-36.85-3.85l-.08,0h-.08c-2.14-.38-3.24-1-3.27-1.79a.28.28,0,0,0,0-.09v-.14a.35.35,0,0,1,0-.12l0,0,0-.05,0-.06h0l.42-1.26h-.51V278.08h80.55m1-1H101.51v17.46h.12a1.28,1.28,0,0,0-.12.53s0,.07,0,.1,0,.06,0,.1c0,1.49,1.47,2.34,4.1,2.8,6.68,2.32,20.81,3.91,37.18,3.91s30.58-1.6,37.23-3.93c2.59-.46,4-1.32,4-2.78,0,0,0-.07,0-.1s0-.07,0-.1a1.28,1.28,0,0,0-.12-.53h.12V277.08Z"/>
      </g>
      <g>
        <path class="cls-4" d="M142.79,283.46c-24,0-40.78-3.38-40.78-6.41s16.75-6.42,40.78-6.42,40.77,3.38,40.77,6.42S166.81,283.46,142.79,283.46Z"/>
        <path class="cls-3" d="M142.79,271.13a185.72,185.72,0,0,1,29,2c9.24,1.55,11.26,3.35,11.26,3.91s-2,2.35-11.26,3.9a184.5,184.5,0,0,1-29,2,184.55,184.55,0,0,1-29-2c-9.24-1.55-11.26-3.34-11.26-3.9s2-2.36,11.26-3.91a185.76,185.76,0,0,1,29-2m0-1c-22.8,0-41.28,3.1-41.28,6.92S120,284,142.79,284s41.27-3.09,41.27-6.91-18.48-6.92-41.27-6.92Z"/>
      </g>
    </g>
    <g>
      <g>
        <path class="cls-4" d="M142.79,283.48c-15.68,0-30.21-1.52-37-3.88-3.76-.66-3.76-1.92-3.76-2.33v-.15a.72.72,0,0,1,.07-.37l0-.05v-.06l.26-.68-.37,0V259.58h81.55V276h-.34l.25.68a1,1,0,0,1,.09.36v.13c0,.47,0,1.71-3.62,2.36C173.07,282,158.52,283.48,142.79,283.48Z"/>
        <path class="cls-3" d="M183.06,260.08v15.45h-.5l.41,1.27h0v.05l0,.05,0,0,0,.08h0l1,.11-1-.05v.21c0,.8-1.11,1.39-3.22,1.77l-.07,0-.08,0c-6.73,2.35-21.22,3.87-36.9,3.87s-30.1-1.51-36.85-3.85l-.08,0-.08,0c-2.14-.38-3.24-1-3.27-1.79a.25.25,0,0,0,0-.08v-.15a.35.35,0,0,1,0-.12l0,0,0-.05,0-.06h0l.42-1.27h-.51V260.08h80.55m1-1H101.51v17.45h.12v0a1.2,1.2,0,0,0-.12.52s0,.07,0,.1,0,.07,0,.1c0,1.49,1.47,2.34,4.1,2.81,6.68,2.31,20.81,3.9,37.18,3.9s30.58-1.6,37.23-3.92c2.59-.47,4-1.32,4-2.79,0,0,0-.07,0-.1s0-.07,0-.1a1.2,1.2,0,0,0-.12-.52v0h.12V259.08Z"/>
      </g>
      <g>
        <path class="cls-4" d="M142.79,265.45c-24,0-40.78-3.38-40.78-6.41s16.75-6.42,40.78-6.42S183.56,256,183.56,259,166.81,265.45,142.79,265.45Z"/>
        <path class="cls-3" d="M142.79,253.12a184.38,184.38,0,0,1,29,2c9.24,1.54,11.26,3.34,11.26,3.9s-2,2.36-11.26,3.9a184.5,184.5,0,0,1-29,2,184.55,184.55,0,0,1-29-2c-9.24-1.54-11.26-3.34-11.26-3.9s2-2.36,11.26-3.9a184.43,184.43,0,0,1,29-2m0-1c-22.8,0-41.28,3.1-41.28,6.92S120,266,142.79,266s41.27-3.09,41.27-6.91-18.48-6.92-41.27-6.92Z"/>
      </g>
    </g>
  </g>
  <g>
    <path class="cls-3" d="M456.24,652.61H199.41v-1.13a22.7,22.7,0,0,1,22.67-22.68h212a23,23,0,0,1,23,23A.82.82,0,0,1,456.24,652.61Zm-255.83-1H456.06a22,22,0,0,0-22-21.81h-212a21.7,21.7,0,0,0-21.67,21.68Z"/>
    <path class="cls-3" d="M219.44,645a4.28,4.28,0,1,1,4.28-4.28A4.28,4.28,0,0,1,219.44,645Zm0-7.56a3.28,3.28,0,1,0,3.28,3.28A3.28,3.28,0,0,0,219.44,637.43Z"/>
    <path class="cls-3" d="M230.71,645a4.28,4.28,0,1,1,4.28-4.28A4.28,4.28,0,0,1,230.71,645Zm0-7.56a3.28,3.28,0,1,0,3.28,3.28A3.28,3.28,0,0,0,230.71,637.43Z"/>
    <path class="cls-3" d="M242,645a4.28,4.28,0,1,1,4.28-4.28A4.28,4.28,0,0,1,242,645Zm0-7.56a3.28,3.28,0,1,0,3.28,3.28A3.28,3.28,0,0,0,242,637.43Z"/>
    <g>
      <path class="cls-3" d="M196,656.88H452.22a.42.42,0,0,1,.42.42v160a.42.42,0,0,1-.42.42H196a0,0,0,0,1,0,0V656.88A0,0,0,0,1,196,656.88Z"/>
      <path class="cls-3" d="M452.22,818.24H195.49V656.38H452.22a.92.92,0,0,1,.92.92v160A.93.93,0,0,1,452.22,818.24Zm-255.73-1H452.14V657.38H196.49Z"/>
    </g>
    <g>
      <path class="cls-1" d="M199.91,652.11H456.14a.42.42,0,0,1,.42.42v160a.42.42,0,0,1-.42.42H199.91a0,0,0,0,1,0,0V652.11A0,0,0,0,1,199.91,652.11Z"/>
      <path class="cls-3" d="M456.14,813.47H199.41V651.61H456.14a.93.93,0,0,1,.92.93v160A.92.92,0,0,1,456.14,813.47Zm-255.73-1H456.06V652.61H200.41Z"/>
    </g>
    <g>
      <rect class="cls-2" x="264.37" y="660.77" width="163.31" height="22.01" rx="11"/>
      <path class="cls-3" d="M416.68,683.27H275.37a11.5,11.5,0,0,1,0-23H416.68a11.5,11.5,0,1,1,0,23Zm-141.31-22a10.5,10.5,0,0,0,0,21H416.68a10.5,10.5,0,1,0,0-21Z"/>
    </g>
    <path class="cls-3" d="M218.22,676.85a.51.51,0,0,1-.36-.15l-5.1-5.11a.48.48,0,0,1,0-.7l5.1-5.11a.5.5,0,1,1,.71.71l-4.75,4.75,4.75,4.75a.5.5,0,0,1,0,.71A.5.5,0,0,1,218.22,676.85Z"/>
    <path class="cls-3" d="M235.66,676.85a.51.51,0,0,1-.36-.15.51.51,0,0,1,0-.71l4.75-4.75-4.75-4.75a.51.51,0,0,1,0-.71.5.5,0,0,1,.71,0l5.1,5.11a.48.48,0,0,1,0,.7L236,676.7A.5.5,0,0,1,235.66,676.85Z"/>
    <g>
      <path class="cls-3" d="M285.32,671.11l.85,3.07.58-4.22h1l-1,5.7h-1l-.93-3.44-.93,3.44h-1l-1-5.7h1l.57,4.22.85-3.07Z"/>
      <path class="cls-3" d="M292.16,671.11l.84,3.07.59-4.22h1l-.95,5.7h-1l-.93-3.44-.93,3.44h-1l-1-5.7h1l.57,4.22.85-3.07Z"/>
      <path class="cls-3" d="M299,671.11l.84,3.07.59-4.22h1l-1,5.7h-1l-.93-3.44-.93,3.44h-1l-.95-5.7h1l.57,4.22.84-3.07Z"/>
      <path class="cls-3" d="M304.78,675.66v-1.22H306v1.22Z"/>
      <path class="cls-3" d="M314.62,671.86h-1a1.37,1.37,0,0,0-1.35-1.19c-.85,0-1.54.73-1.54,2.16s.69,2.17,1.54,2.17a1.42,1.42,0,0,0,1.39-1.17h1a2.37,2.37,0,0,1-2.44,2c-1.58,0-2.52-1.23-2.52-3a2.66,2.66,0,0,1,2.61-3A2.21,2.21,0,0,1,314.62,671.86Z"/>
      <path class="cls-3" d="M319.07,669.87a3,3,0,1,1-2.64,3A2.65,2.65,0,0,1,319.07,669.87Zm0,5.11c.87,0,1.61-.63,1.61-2.15s-.74-2.15-1.61-2.15-1.61.64-1.61,2.15S318.2,675,319.07,675Z"/>
      <path class="cls-3" d="M327.19,668h1v7.68h-1v-.8a1.83,1.83,0,0,1-1.69.94c-1.31,0-2.29-1.08-2.29-3s1-3,2.29-3a1.81,1.81,0,0,1,1.69,1Zm-1.48,2.7c-1,0-1.48.8-1.48,2.15s.5,2.16,1.48,2.16c.81,0,1.52-.66,1.52-2.16S326.52,670.68,325.71,670.68Z"/>
      <path class="cls-3" d="M330.19,672.83c0-1.83,1.08-3,2.59-3,1.66,0,2.61,1.22,2.54,3.25h-4.1c0,1.14.64,1.89,1.53,1.89a1.38,1.38,0,0,0,1.48-1h1a2.33,2.33,0,0,1-2.45,1.84C331.05,675.8,330.19,674.52,330.19,672.83Zm1-.53h3a1.46,1.46,0,0,0-1.5-1.64C331.86,670.66,331.27,671.2,331.23,672.3Z"/>
      <path class="cls-3" d="M342,671.86h-1a1.35,1.35,0,0,0-1.34-1.19c-.85,0-1.55.73-1.55,2.16s.7,2.17,1.55,2.17a1.4,1.4,0,0,0,1.38-1.17h1a2.38,2.38,0,0,1-2.45,2c-1.57,0-2.52-1.23-2.52-3a2.66,2.66,0,0,1,2.62-3A2.23,2.23,0,0,1,342,671.86Z"/>
      <path class="cls-3" d="M344,674.18c0-1.36,1.44-1.77,3.77-2v-.25a1.12,1.12,0,0,0-1.28-1.28c-.88,0-1.3.43-1.36,1.13h-1a2.2,2.2,0,0,1,2.37-1.91c1.57,0,2.25.69,2.23,2.27v1.39c0,1,0,1.77.07,2.15h-.93v-.84a2.08,2.08,0,0,1-2,1A1.66,1.66,0,0,1,344,674.18Zm3.84-1.25c-1.74.17-2.8.41-2.8,1.23,0,.54.4.85,1.08.85.87,0,1.72-.41,1.72-1.92Z"/>
      <path class="cls-3" d="M354.54,668h1v7.68h-1v-.8a1.81,1.81,0,0,1-1.68.94c-1.32,0-2.3-1.08-2.3-3s1-3,2.3-3a1.8,1.8,0,0,1,1.68,1Zm-1.48,2.7c-1,0-1.47.8-1.47,2.15s.49,2.16,1.47,2.16c.81,0,1.52-.66,1.52-2.16S353.87,670.68,353.06,670.68Z"/>
      <path class="cls-3" d="M357.55,672.83c0-1.83,1.08-3,2.58-3,1.66,0,2.62,1.22,2.54,3.25h-4.1c0,1.14.64,1.89,1.54,1.89a1.37,1.37,0,0,0,1.47-1h1a2.35,2.35,0,0,1-2.46,1.84C358.41,675.8,357.55,674.52,357.55,672.83Zm1-.53h3.05a1.45,1.45,0,0,0-1.5-1.64C359.21,670.66,358.63,671.2,358.58,672.3Z"/>
      <path class="cls-3" d="M368.36,669.87c.59,0,1.17.27,1.17,1.78v4h-1v-3.52c0-.82,0-1.46-.49-1.46s-.63.57-.63,1.75v3.23h-1v-3.52c0-.82,0-1.46-.47-1.46s-.65.59-.65,1.77v3.21h-1V670h.93v.61a1.12,1.12,0,0,1,1-.7.9.9,0,0,1,.89.72A1.25,1.25,0,0,1,368.36,669.87Z"/>
      <path class="cls-3" d="M371.17,677.51v-.83h1c.59,0,.78-.08,1.08-.89l0-.13-2.13-5.7h1.07l1.55,4.4,1.51-4.4h1l-2.11,5.94c-.4,1.13-.72,1.61-1.93,1.61Z"/>
      <path class="cls-3" d="M380,675.66v-1.22h1.22v1.22Z"/>
      <path class="cls-3" d="M389.85,671.86h-1a1.35,1.35,0,0,0-1.34-1.19c-.85,0-1.55.73-1.55,2.16s.7,2.17,1.55,2.17a1.4,1.4,0,0,0,1.38-1.17h1a2.38,2.38,0,0,1-2.45,2c-1.57,0-2.52-1.23-2.52-3a2.66,2.66,0,0,1,2.62-3A2.23,2.23,0,0,1,389.85,671.86Z"/>
      <path class="cls-3" d="M394.29,669.87a3,3,0,1,1-2.63,3A2.65,2.65,0,0,1,394.29,669.87Zm0,5.11c.87,0,1.61-.63,1.61-2.15s-.74-2.15-1.61-2.15-1.61.64-1.61,2.15S393.42,675,394.29,675Z"/>
      <path class="cls-3" d="M402.55,669.87c.59,0,1.18.27,1.18,1.78v4h-1v-3.52c0-.82,0-1.46-.49-1.46s-.63.57-.63,1.75v3.23h-1v-3.52c0-.82,0-1.46-.48-1.46s-.65.59-.65,1.77v3.21h-1V670h.93v.61a1.13,1.13,0,0,1,1-.7.91.91,0,0,1,.89.72A1.23,1.23,0,0,1,402.55,669.87Z"/>
    </g>
  </g>
  <g>
    <path class="cls-3" d="M933.72,208.46H676.89v-1.14a22.7,22.7,0,0,1,22.68-22.67h212a23,23,0,0,1,23,23A.82.82,0,0,1,933.72,208.46Zm-255.83-1H933.54a22,22,0,0,0-22-21.81h-212a21.7,21.7,0,0,0-21.68,21.67Z"/>
    <path class="cls-3" d="M696.92,200.83a4.28,4.28,0,1,1,4.28-4.28A4.28,4.28,0,0,1,696.92,200.83Zm0-7.56a3.28,3.28,0,1,0,3.28,3.28A3.29,3.29,0,0,0,696.92,193.27Z"/>
    <path class="cls-3" d="M708.2,200.83a4.28,4.28,0,1,1,4.27-4.28A4.28,4.28,0,0,1,708.2,200.83Zm0-7.56a3.28,3.28,0,1,0,3.27,3.28A3.29,3.29,0,0,0,708.2,193.27Z"/>
    <path class="cls-3" d="M719.47,200.83a4.28,4.28,0,1,1,4.28-4.28A4.28,4.28,0,0,1,719.47,200.83Zm0-7.56a3.28,3.28,0,1,0,3.28,3.28A3.29,3.29,0,0,0,719.47,193.27Z"/>
    <g>
      <path class="cls-3" d="M673.47,212.72H929.7a.42.42,0,0,1,.42.42v160a.42.42,0,0,1-.42.42H673.47a0,0,0,0,1,0,0V212.72A0,0,0,0,1,673.47,212.72Z"/>
      <path class="cls-3" d="M929.7,374.08H673V212.22H929.7a.92.92,0,0,1,.92.92v160A.92.92,0,0,1,929.7,374.08Zm-255.73-1H929.62V213.22H674Z"/>
    </g>
    <g>
      <path class="cls-1" d="M677.39,208H933.62a.42.42,0,0,1,.42.42v160a.42.42,0,0,1-.42.42H677.39a0,0,0,0,1,0,0V208A0,0,0,0,1,677.39,208Z"/>
      <path class="cls-3" d="M933.62,369.32H676.89V207.46H933.62a.92.92,0,0,1,.92.92v160A.92.92,0,0,1,933.62,369.32Zm-255.73-1H933.54V208.46H677.89Z"/>
    </g>
    <g>
      <rect class="cls-2" x="741.85" y="216.61" width="163.31" height="22.01" rx="11"/>
      <path class="cls-3" d="M894.16,239.12H752.85a11.51,11.51,0,0,1,0-23H894.16a11.51,11.51,0,0,1,0,23Zm-141.31-22a10.51,10.51,0,0,0,0,21H894.16a10.51,10.51,0,0,0,0-21Z"/>
    </g>
    <path class="cls-3" d="M695.7,232.69a.51.51,0,0,1-.36-.15l-5.1-5.1a.49.49,0,0,1-.15-.36.49.49,0,0,1,.15-.35l5.1-5.1a.5.5,0,0,1,.71,0,.48.48,0,0,1,0,.7l-4.75,4.75,4.75,4.76a.5.5,0,0,1-.35.85Z"/>
    <path class="cls-3" d="M713.14,232.69a.51.51,0,0,1-.36-.15.5.5,0,0,1,0-.7l4.76-4.76-4.76-4.75a.5.5,0,0,1,0-.7.5.5,0,0,1,.71,0l5.11,5.1a.51.51,0,0,1,0,.71l-5.11,5.1A.5.5,0,0,1,713.14,232.69Z"/>
    <g>
      <path class="cls-3" d="M762.8,227l.85,3.07.58-4.21h1l-1,5.7h-1l-.94-3.45-.93,3.45h-1l-1-5.7h1L761,230l.85-3.07Z"/>
      <path class="cls-3" d="M769.64,227l.84,3.07.59-4.21h1l-.95,5.7h-1l-.93-3.45-.93,3.45h-1l-1-5.7h1l.57,4.21.85-3.07Z"/>
      <path class="cls-3" d="M776.48,227l.84,3.07.59-4.21h1l-.95,5.7h-1l-.93-3.45-.93,3.45h-1l-1-5.7h1l.57,4.21.85-3.07Z"/>
      <path class="cls-3" d="M782.26,231.51v-1.22h1.21v1.22Z"/>
      <path class="cls-3" d="M792.1,227.7h-1a1.36,1.36,0,0,0-1.35-1.18c-.85,0-1.54.73-1.54,2.16s.69,2.17,1.54,2.17a1.41,1.41,0,0,0,1.39-1.18h1a2.37,2.37,0,0,1-2.45,2c-1.58,0-2.52-1.23-2.52-3s1-3,2.61-3A2.22,2.22,0,0,1,792.1,227.7Z"/>
      <path class="cls-3" d="M796.55,225.71a3,3,0,1,1-2.64,3A2.65,2.65,0,0,1,796.55,225.71Zm0,5.12c.87,0,1.61-.64,1.61-2.15s-.74-2.15-1.61-2.15-1.61.63-1.61,2.15S795.68,230.83,796.55,230.83Z"/>
      <path class="cls-3" d="M804.67,223.83h1v7.68h-1v-.81a1.83,1.83,0,0,1-1.69.94c-1.31,0-2.29-1.08-2.29-3s1-3,2.29-3a1.82,1.82,0,0,1,1.69,1Zm-1.48,2.7c-1,0-1.48.79-1.48,2.15s.5,2.16,1.48,2.16c.81,0,1.52-.67,1.52-2.16S804,226.53,803.19,226.53Z"/>
      <path class="cls-3" d="M807.67,228.68c0-1.83,1.08-3,2.59-3s2.61,1.22,2.54,3.25h-4.1c0,1.15.64,1.9,1.54,1.9a1.37,1.37,0,0,0,1.47-1h1a2.33,2.33,0,0,1-2.45,1.84C808.53,231.64,807.67,230.36,807.67,228.68Zm1-.53h3a1.46,1.46,0,0,0-1.5-1.64C809.34,226.51,808.75,227.05,808.71,228.15Z"/>
      <path class="cls-3" d="M819.46,227.7h-1a1.34,1.34,0,0,0-1.34-1.18c-.85,0-1.55.73-1.55,2.16s.7,2.17,1.55,2.17a1.4,1.4,0,0,0,1.38-1.18h1a2.37,2.37,0,0,1-2.45,2c-1.57,0-2.52-1.23-2.52-3a2.67,2.67,0,0,1,2.62-3A2.24,2.24,0,0,1,819.46,227.7Z"/>
      <path class="cls-3" d="M821.48,230c0-1.35,1.44-1.77,3.77-2v-.24a1.12,1.12,0,0,0-1.28-1.28c-.88,0-1.3.43-1.36,1.13h-1a2.2,2.2,0,0,1,2.37-1.92c1.57,0,2.25.7,2.23,2.28v1.39c0,.95,0,1.76.07,2.15h-.93v-.84a2.09,2.09,0,0,1-2,1A1.66,1.66,0,0,1,821.48,230Zm3.84-1.25c-1.74.17-2.79.42-2.79,1.23,0,.54.39.86,1.08.86.86,0,1.71-.41,1.71-1.93Z"/>
      <path class="cls-3" d="M832,223.83h1v7.68h-1v-.81a1.81,1.81,0,0,1-1.68.94c-1.31,0-2.3-1.08-2.3-3s1-3,2.3-3a1.81,1.81,0,0,1,1.68,1Zm-1.48,2.7c-1,0-1.47.79-1.47,2.15s.5,2.16,1.47,2.16c.81,0,1.52-.67,1.52-2.16S831.35,226.53,830.54,226.53Z"/>
      <path class="cls-3" d="M835,228.68c0-1.83,1.08-3,2.58-3,1.66,0,2.62,1.22,2.54,3.25h-4.1c0,1.15.64,1.9,1.54,1.9a1.37,1.37,0,0,0,1.47-1h1a2.35,2.35,0,0,1-2.46,1.84C835.89,231.64,835,230.36,835,228.68Zm1-.53h3a1.46,1.46,0,0,0-1.51-1.64C836.69,226.51,836.11,227.05,836.07,228.15Z"/>
      <path class="cls-3" d="M845.84,225.71c.59,0,1.17.28,1.17,1.78v4h-1V228c0-.83,0-1.46-.49-1.46s-.63.57-.63,1.75v3.23h-1V228c0-.83,0-1.46-.47-1.46s-.65.58-.65,1.77v3.21h-1v-5.7h.93v.6a1.12,1.12,0,0,1,1-.7.9.9,0,0,1,.89.72A1.27,1.27,0,0,1,845.84,225.71Z"/>
      <path class="cls-3" d="M848.65,233.36v-.84h1c.59,0,.78-.07,1.08-.89l0-.12-2.13-5.7h1.07l1.55,4.39,1.51-4.39h1l-2.11,5.94c-.4,1.12-.72,1.61-1.93,1.61Z"/>
      <path class="cls-3" d="M857.48,231.51v-1.22h1.22v1.22Z"/>
      <path class="cls-3" d="M867.33,227.7h-1a1.34,1.34,0,0,0-1.34-1.18c-.85,0-1.55.73-1.55,2.16s.7,2.17,1.55,2.17a1.4,1.4,0,0,0,1.38-1.18h1a2.37,2.37,0,0,1-2.45,2c-1.57,0-2.52-1.23-2.52-3a2.67,2.67,0,0,1,2.62-3A2.24,2.24,0,0,1,867.33,227.7Z"/>
      <path class="cls-3" d="M871.77,225.71a3,3,0,1,1-2.63,3A2.65,2.65,0,0,1,871.77,225.71Zm0,5.12c.87,0,1.61-.64,1.61-2.15s-.74-2.15-1.61-2.15-1.61.63-1.61,2.15S870.9,230.83,871.77,230.83Z"/>
      <path class="cls-3" d="M880,225.71c.59,0,1.18.28,1.18,1.78v4h-1V228c0-.83,0-1.46-.48-1.46s-.64.57-.64,1.75v3.23h-1V228c0-.83,0-1.46-.48-1.46s-.65.58-.65,1.77v3.21h-1v-5.7H877v.6a1.13,1.13,0,0,1,1-.7.91.91,0,0,1,.89.72A1.25,1.25,0,0,1,880,225.71Z"/>
    </g>
  </g>
  <g>
    <path class="cls-3" d="M464.58,314a18.79,18.79,0,0,1-3-37.35.49.49,0,0,1,.57.41.5.5,0,0,1-.41.58,17.79,17.79,0,1,0,20.57,16.57.5.5,0,1,1,1-.06,18.79,18.79,0,0,1-17.71,19.82Z"/>
    <path class="cls-3" d="M459.13,282.49a.53.53,0,0,1-.24-.06.49.49,0,0,1-.2-.67l2.38-4.47-4.46-2.38a.5.5,0,1,1,.47-.88l4.9,2.62a.49.49,0,0,1,.21.67l-2.62,4.91A.49.49,0,0,1,459.13,282.49Z"/>
  </g>
  <g>
    <path class="cls-3" d="M812.25,325.83a26.69,26.69,0,0,1-4.2-53.05.5.5,0,0,1,.16,1,25.69,25.69,0,1,0,29.7,23.93.5.5,0,0,1,.47-.53.5.5,0,0,1,.53.47,26.69,26.69,0,0,1-25.15,28.14C813.25,325.81,812.75,325.83,812.25,325.83Z"/>
    <path class="cls-3" d="M804.45,280.78a.53.53,0,0,1-.24-.06A.52.52,0,0,1,804,280l3.52-6.58-6.58-3.52a.49.49,0,0,1-.21-.67.5.5,0,0,1,.68-.21l7,3.75a.53.53,0,0,1,.25.3.56.56,0,0,1,0,.38l-3.75,7A.51.51,0,0,1,804.45,280.78Z"/>
  </g>
  <g>
    <path class="cls-3" d="M258.56,298.68h2.6V304h5.6v-5.32h2.6v14h-2.6V306.4h-5.6v6.28h-2.6Z"/>
    <path class="cls-3" d="M274.93,301.08H271v-2.4h10.39v2.4h-3.9v11.6h-2.6Z"/>
    <path class="cls-3" d="M283.11,298.68H286l3.3,8.74,3.3-8.74h2.92v14h-2.6V304l-2.68,7.36h-1.88L285.71,304v8.64h-2.6Z"/>
    <path class="cls-3" d="M298.73,298.68h2.6v11.6h5.94v2.4h-8.54Z"/>
  </g>
  <g>
    <g>
      <path class="cls-3" d="M1047.43,278.87H979.69a.38.38,0,0,1-.35-.41v-83a.39.39,0,0,1,.35-.42l62.1,10.24a.39.39,0,0,1,.35.42l5.63,72.73A.38.38,0,0,1,1047.43,278.87Z"/>
      <path class="cls-3" d="M1047.43,279.37H979.69a.88.88,0,0,1-.85-.91v-83a.89.89,0,0,1,.85-.92l62.18,10.25h0a.88.88,0,0,1,.76.91l5.63,72.69A.89.89,0,0,1,1047.43,279.37Zm-67.59-1h67.43l-5.63-72.58-61.8-10.19Zm61.88-72.57h0Z"/>
    </g>
    <g>
      <path class="cls-1" d="M1050.17,275.63H982.43a.39.39,0,0,1-.34-.42v-83a.38.38,0,0,1,.34-.41h57.73l10.36,15.67v67.71A.39.39,0,0,1,1050.17,275.63Z"/>
      <path class="cls-3" d="M1050.17,276.13H982.43a.88.88,0,0,1-.84-.92v-83a.87.87,0,0,1,.84-.91h58l10.59,16v67.86A.89.89,0,0,1,1050.17,276.13Zm-67.58-1H1050V207.65l-10.13-15.32h-57.3Z"/>
    </g>
  </g>
  <g>
    <path class="cls-3" d="M1003.15,239.65a4.59,4.59,0,0,1-1.17-3.3v-7.79a4.13,4.13,0,0,0-.79-2.86,3.61,3.61,0,0,0-2.68-.83V221.7a3.57,3.57,0,0,0,2.68-.84A4.09,4.09,0,0,0,1002,218v-7.78a4.59,4.59,0,0,1,1.17-3.3,4,4,0,0,1,3.05-1.24h2.64v3.22h-1.27a2.19,2.19,0,0,0-1.59.48,2.27,2.27,0,0,0-.48,1.63v8a4.63,4.63,0,0,1-.75,2.94,4.07,4.07,0,0,1-2.2,1.32,4.2,4.2,0,0,1,2.2,1.32,4.68,4.68,0,0,1,.75,3v8a2.27,2.27,0,0,0,.48,1.63,2.19,2.19,0,0,0,1.59.48h1.27v3.21h-2.64A4,4,0,0,1,1003.15,239.65Z"/>
    <path class="cls-3" d="M1023.35,237.67a2.18,2.18,0,0,0,1.58-.48,2.27,2.27,0,0,0,.49-1.63v-8a4.69,4.69,0,0,1,.74-3,4.2,4.2,0,0,1,2.2-1.32,4.07,4.07,0,0,1-2.2-1.32,4.63,4.63,0,0,1-.74-2.94v-8a2.27,2.27,0,0,0-.49-1.63,2.18,2.18,0,0,0-1.58-.48h-1.28v-3.22h2.64a4,4,0,0,1,3.06,1.24,4.63,4.63,0,0,1,1.16,3.3V218a4.14,4.14,0,0,0,.79,2.86,3.6,3.6,0,0,0,2.69.84v3.17a3.64,3.64,0,0,0-2.69.83,4.18,4.18,0,0,0-.79,2.86v7.79a4.63,4.63,0,0,1-1.16,3.3,4,4,0,0,1-3.06,1.23h-2.64v-3.21Z"/>
  </g>
  <g>
    <path class="cls-3" d="M1003,262a6.05,6.05,0,0,1-2.41-2.45,8.81,8.81,0,0,1,0-7.76,6.11,6.11,0,0,1,2.41-2.45,6.74,6.74,0,0,1,3.3-.83,6.23,6.23,0,0,1,3.79,1.11,5.31,5.31,0,0,1,2,3.13l-2.34.6a4,4,0,0,0-1.26-1.8,3.51,3.51,0,0,0-2.2-.64,4,4,0,0,0-2,.53,3.71,3.71,0,0,0-1.42,1.6,6.79,6.79,0,0,0,0,5.26,3.6,3.6,0,0,0,1.42,1.6,3.86,3.86,0,0,0,2,.53,3.45,3.45,0,0,0,2.2-.64,3.91,3.91,0,0,0,1.26-1.8l2.34.6a5.28,5.28,0,0,1-2,3.13,6.23,6.23,0,0,1-3.79,1.11A6.63,6.63,0,0,1,1003,262Z"/>
    <path class="cls-3" d="M1016.14,262.32a4.63,4.63,0,0,1-1.68-1.42,4.79,4.79,0,0,1-.89-2l2.1-1.32a4.74,4.74,0,0,0,1,2.06,2.25,2.25,0,0,0,1.76.78,2,2,0,0,0,1.32-.41,1.5,1.5,0,0,0,.5-1.25,1.38,1.38,0,0,0-.34-.92,3.32,3.32,0,0,0-.85-.7c-.34-.2-.82-.45-1.45-.76l-.57-.28a5.54,5.54,0,0,1-1.92-1.51,3.62,3.62,0,0,1-.72-2.33,3.81,3.81,0,0,1,.49-1.92,3.45,3.45,0,0,1,1.38-1.35,4.16,4.16,0,0,1,2-.49,3.92,3.92,0,0,1,4,2.54l-2.1,1.34a1.89,1.89,0,0,0-1.86-1.48,1.46,1.46,0,0,0-1,.37,1.17,1.17,0,0,0-.42.91,1.35,1.35,0,0,0,.37,1,3,3,0,0,0,.9.7c.35.2.86.45,1.52.75a10.19,10.19,0,0,1,1.65.94,3.7,3.7,0,0,1,1.1,1.25,3.77,3.77,0,0,1,.43,1.87,4.2,4.2,0,0,1-.57,2.21,3.74,3.74,0,0,1-1.59,1.46,5.11,5.11,0,0,1-2.32.51A4.77,4.77,0,0,1,1016.14,262.32Z"/>
    <path class="cls-3" d="M1026.75,262.32a4.8,4.8,0,0,1-1.68-1.42,4.93,4.93,0,0,1-.89-2l2.1-1.32a4.74,4.74,0,0,0,1,2.06,2.26,2.26,0,0,0,1.77.78,2,2,0,0,0,1.32-.41,1.53,1.53,0,0,0,.5-1.25,1.43,1.43,0,0,0-.34-.92,3.5,3.5,0,0,0-.85-.7c-.34-.2-.83-.45-1.45-.76l-.58-.28a5.54,5.54,0,0,1-1.92-1.51,3.62,3.62,0,0,1-.72-2.33,3.81,3.81,0,0,1,.49-1.92,3.58,3.58,0,0,1,1.38-1.35,4.2,4.2,0,0,1,2-.49,3.91,3.91,0,0,1,3.95,2.54l-2.09,1.34a1.91,1.91,0,0,0-1.86-1.48,1.49,1.49,0,0,0-1,.37,1.17,1.17,0,0,0-.42.91,1.35,1.35,0,0,0,.37,1,3,3,0,0,0,.9.7q.52.3,1.53.75a11.13,11.13,0,0,1,1.65.94,3.68,3.68,0,0,1,1.52,3.12,4.2,4.2,0,0,1-.57,2.21,3.72,3.72,0,0,1-1.58,1.46,5.14,5.14,0,0,1-2.32.51A4.78,4.78,0,0,1,1026.75,262.32Z"/>
  </g>
  <g>
    <g>
      <path class="cls-3" d="M1002.72,652.61H745.88v-1.13a22.71,22.71,0,0,1,22.68-22.68h212a23,23,0,0,1,23,23A.82.82,0,0,1,1002.72,652.61Zm-255.84-1h255.66a22,22,0,0,0-22-21.81h-212a21.7,21.7,0,0,0-21.68,21.68Z"/>
      <path class="cls-3" d="M765.92,645a4.28,4.28,0,1,1,4.28-4.28A4.28,4.28,0,0,1,765.92,645Zm0-7.56a3.28,3.28,0,1,0,3.28,3.28A3.28,3.28,0,0,0,765.92,637.43Z"/>
      <path class="cls-3" d="M777.19,645a4.28,4.28,0,1,1,4.28-4.28A4.28,4.28,0,0,1,777.19,645Zm0-7.56a3.28,3.28,0,1,0,3.28,3.28A3.28,3.28,0,0,0,777.19,637.43Z"/>
      <path class="cls-3" d="M788.46,645a4.28,4.28,0,1,1,4.28-4.28A4.28,4.28,0,0,1,788.46,645Zm0-7.56a3.28,3.28,0,1,0,3.28,3.28A3.28,3.28,0,0,0,788.46,637.43Z"/>
      <g>
        <path class="cls-3" d="M742.46,656.88H998.69a.42.42,0,0,1,.42.42v160a.42.42,0,0,1-.42.42H742.46a0,0,0,0,1,0,0V656.88A0,0,0,0,1,742.46,656.88Z"/>
        <path class="cls-3" d="M998.69,818.24H742V656.38H998.69a.92.92,0,0,1,.92.92v160A.93.93,0,0,1,998.69,818.24Zm-255.73-1H998.61V657.38H743Z"/>
      </g>
      <g>
        <path class="cls-1" d="M746.39,652.11h256.23a.42.42,0,0,1,.42.42v160a.42.42,0,0,1-.42.42H746.39a0,0,0,0,1,0,0V652.11A0,0,0,0,1,746.39,652.11Z"/>
        <path class="cls-3" d="M1002.62,813.47H745.88V651.61h256.74a.93.93,0,0,1,.92.93v160A.92.92,0,0,1,1002.62,813.47Zm-255.74-1h255.66V652.61H746.88Z"/>
      </g>
      <g>
        <rect class="cls-2" x="810.85" y="660.77" width="163.31" height="22.01" rx="11"/>
        <path class="cls-3" d="M963.15,683.27H821.85a11.5,11.5,0,1,1,0-23h141.3a11.5,11.5,0,1,1,0,23Zm-141.3-22a10.5,10.5,0,1,0,0,21h141.3a10.5,10.5,0,1,0,0-21Z"/>
      </g>
      <path class="cls-3" d="M764.69,676.85a.49.49,0,0,1-.35-.15l-5.11-5.11a.51.51,0,0,1,0-.7l5.11-5.11a.5.5,0,0,1,.71,0,.51.51,0,0,1,0,.71l-4.76,4.75,4.76,4.75a.51.51,0,0,1,0,.71A.51.51,0,0,1,764.69,676.85Z"/>
      <path class="cls-3" d="M782.13,676.85a.49.49,0,0,1-.35-.15.5.5,0,0,1,0-.71l4.75-4.75-4.75-4.75a.5.5,0,0,1,0-.71.48.48,0,0,1,.7,0l5.11,5.11a.48.48,0,0,1,0,.7l-5.11,5.11A.47.47,0,0,1,782.13,676.85Z"/>
      <g>
        <path class="cls-3" d="M831.79,671.11l.85,3.07.58-4.22h1l-1,5.7h-1l-.93-3.44-.93,3.44h-1l-.95-5.7h1l.58,4.22.84-3.07Z"/>
        <path class="cls-3" d="M838.63,671.11l.85,3.07.58-4.22h1l-1,5.7h-1l-.93-3.44-.94,3.44h-1l-1-5.7h1l.58,4.22.84-3.07Z"/>
        <path class="cls-3" d="M845.47,671.11l.85,3.07.58-4.22h1l-1,5.7h-1l-.93-3.44-.94,3.44h-1l-1-5.7h1l.57,4.22.85-3.07Z"/>
        <path class="cls-3" d="M851.25,675.66v-1.22h1.22v1.22Z"/>
        <path class="cls-3" d="M861.1,671.86h-1a1.36,1.36,0,0,0-1.34-1.19c-.85,0-1.55.73-1.55,2.16s.7,2.17,1.55,2.17a1.4,1.4,0,0,0,1.38-1.17h1a2.38,2.38,0,0,1-2.45,2c-1.57,0-2.52-1.23-2.52-3a2.66,2.66,0,0,1,2.62-3A2.23,2.23,0,0,1,861.1,671.86Z"/>
        <path class="cls-3" d="M865.54,669.87a3,3,0,1,1-2.64,3A2.65,2.65,0,0,1,865.54,669.87Zm0,5.11c.87,0,1.61-.63,1.61-2.15s-.74-2.15-1.61-2.15-1.61.64-1.61,2.15S864.67,675,865.54,675Z"/>
        <path class="cls-3" d="M873.66,668h1v7.68h-1v-.8a1.81,1.81,0,0,1-1.68.94c-1.31,0-2.3-1.08-2.3-3s1-3,2.3-3a1.8,1.8,0,0,1,1.68,1Zm-1.48,2.7c-1,0-1.47.8-1.47,2.15s.5,2.16,1.47,2.16c.81,0,1.53-.66,1.53-2.16S873,670.68,872.18,670.68Z"/>
        <path class="cls-3" d="M876.67,672.83c0-1.83,1.08-3,2.58-3,1.66,0,2.62,1.22,2.54,3.25H877.7c0,1.14.63,1.89,1.53,1.89a1.37,1.37,0,0,0,1.47-1h1a2.35,2.35,0,0,1-2.46,1.84C877.53,675.8,876.67,674.52,876.67,672.83Zm1-.53h3a1.46,1.46,0,0,0-1.51-1.64C878.33,670.66,877.75,671.2,877.71,672.3Z"/>
        <path class="cls-3" d="M888.45,671.86h-1a1.37,1.37,0,0,0-1.35-1.19c-.84,0-1.54.73-1.54,2.16s.7,2.17,1.54,2.17a1.42,1.42,0,0,0,1.39-1.17h1a2.38,2.38,0,0,1-2.45,2c-1.58,0-2.52-1.23-2.52-3a2.66,2.66,0,0,1,2.61-3A2.21,2.21,0,0,1,888.45,671.86Z"/>
        <path class="cls-3" d="M890.47,674.18c0-1.36,1.44-1.77,3.77-2v-.25a1.12,1.12,0,0,0-1.28-1.28c-.88,0-1.29.43-1.35,1.13h-1a2.19,2.19,0,0,1,2.36-1.91c1.58,0,2.26.69,2.24,2.27v1.39c0,1,0,1.77.07,2.15h-.93v-.84a2.09,2.09,0,0,1-2,1A1.66,1.66,0,0,1,890.47,674.18Zm3.85-1.25c-1.74.17-2.8.41-2.8,1.23,0,.54.39.85,1.08.85.87,0,1.72-.41,1.72-1.92Z"/>
        <path class="cls-3" d="M901,668h1v7.68h-1v-.8a1.83,1.83,0,0,1-1.69.94c-1.31,0-2.29-1.08-2.29-3s1-3,2.29-3a1.81,1.81,0,0,1,1.69,1Zm-1.49,2.7c-1,0-1.47.8-1.47,2.15s.5,2.16,1.47,2.16,1.53-.66,1.53-2.16S900.35,670.68,899.53,670.68Z"/>
        <path class="cls-3" d="M904,672.83c0-1.83,1.08-3,2.59-3s2.61,1.22,2.54,3.25h-4.1c0,1.14.64,1.89,1.53,1.89a1.38,1.38,0,0,0,1.48-1h1a2.33,2.33,0,0,1-2.45,1.84C904.88,675.8,904,674.52,904,672.83Zm1-.53h3.05a1.46,1.46,0,0,0-1.5-1.64C905.69,670.66,905.1,671.2,905.06,672.3Z"/>
        <path class="cls-3" d="M914.83,669.87c.6,0,1.18.27,1.18,1.78v4h-1v-3.52c0-.82,0-1.46-.48-1.46s-.64.57-.64,1.75v3.23h-1v-3.52c0-.82,0-1.46-.48-1.46s-.65.59-.65,1.77v3.21h-1V670h.93v.61a1.13,1.13,0,0,1,1-.7.91.91,0,0,1,.89.72A1.23,1.23,0,0,1,914.83,669.87Z"/>
        <path class="cls-3" d="M917.65,677.51v-.83h1c.6,0,.79-.08,1.08-.89l0-.13-2.13-5.7h1.07l1.54,4.4,1.52-4.4h1l-2.1,5.94c-.41,1.13-.72,1.61-1.93,1.61Z"/>
        <path class="cls-3" d="M926.48,675.66v-1.22h1.22v1.22Z"/>
        <path class="cls-3" d="M936.32,671.86h-1a1.37,1.37,0,0,0-1.35-1.19c-.85,0-1.54.73-1.54,2.16S933.14,675,934,675a1.41,1.41,0,0,0,1.39-1.17h1a2.37,2.37,0,0,1-2.44,2c-1.58,0-2.52-1.23-2.52-3a2.66,2.66,0,0,1,2.62-3A2.21,2.21,0,0,1,936.32,671.86Z"/>
        <path class="cls-3" d="M940.77,669.87a3,3,0,1,1-2.64,3A2.65,2.65,0,0,1,940.77,669.87Zm0,5.11c.87,0,1.61-.63,1.61-2.15s-.74-2.15-1.61-2.15-1.61.64-1.61,2.15S939.9,675,940.77,675Z"/>
        <path class="cls-3" d="M949,669.87c.59,0,1.17.27,1.17,1.78v4h-1v-3.52c0-.82,0-1.46-.49-1.46s-.64.57-.64,1.75v3.23h-1v-3.52c0-.82,0-1.46-.48-1.46s-.64.59-.64,1.77v3.21h-1V670H946v.61a1.15,1.15,0,0,1,1-.7.9.9,0,0,1,.89.72A1.25,1.25,0,0,1,949,669.87Z"/>
      </g>
    </g>
    <g>
      <rect class="cls-4" x="773.96" y="701.24" width="73" height="83"/>
      <path class="cls-3" d="M846.46,701.74v82h-72v-82h72m1-1h-74v84h74v-84Z"/>
    </g>
    <g>
      <rect class="cls-4" x="874.96" y="711.74" width="94" height="15"/>
      <path class="cls-3" d="M968.46,712.24v14h-93v-14h93m1-1h-95v16h95v-16Z"/>
    </g>
    <g>
      <rect class="cls-4" x="874.96" y="737.24" width="94" height="7"/>
      <path class="cls-3" d="M968.46,737.74v6h-93v-6h93m1-1h-95v8h95v-8Z"/>
    </g>
    <g>
      <rect class="cls-4" x="874.96" y="753.24" width="94" height="7"/>
      <path class="cls-3" d="M968.46,753.74v6h-93v-6h93m1-1h-95v8h95v-8Z"/>
    </g>
    <g>
      <rect class="cls-4" x="874.96" y="769.24" width="42" height="7"/>
      <path class="cls-3" d="M916.46,769.74v6h-41v-6h41m1-1h-43v8h43v-8Z"/>
    </g>
  </g>
  <g>
    <path class="cls-2" d="M812.28,747.62c-.34.07-4.32-12.57-6.48-15.71-1.53-2.22-6.27-1-5,3.27,1,3.35,3.25,8,3.75,9.44,1.88,5.4,3.62,8.56,4.6,11.89.87,2.94-1.16,1.82-2.41.51a20,20,0,0,1-2.43-2.58c-1.92-2.52-3.3-3.52-4.42-3.76a2.7,2.7,0,0,0-3,3.54c.31,1.24,5.49,6.5,8.7,10.7,1.23,1.6,6.64,7,11.08,7.73a16.22,16.22,0,0,0,11-1.94,14.76,14.76,0,0,0,7.76-12c.14-2.58-2-7.88-3.82-11.73-.46-1-2.67-6.46-5-6.1-2.84.45-2.34,3.42-2,4.69a25.33,25.33,0,0,0-2-4.4,3.09,3.09,0,0,0-5.29.47c-.45,1,.59,3.39,1.48,5.52a42.46,42.46,0,0,0-3-6.18c-1.34-1.86-4.45-.47-4.89.94-.61,1.91,1.86,6.94,1.86,6.94Z"/>
    <path class="cls-3" d="M819.62,773.4a19,19,0,0,1-3-.25c-4.61-.76-10-6.15-11.4-7.92s-3.16-3.85-4.72-5.65c-2.47-2.82-3.87-4.46-4.07-5.23a3.18,3.18,0,0,1,.65-3.17,3.58,3.58,0,0,1,2.9-1c1.4.31,2.9,1.56,4.72,3.95a16.56,16.56,0,0,0,2.13,2.29,3.37,3.37,0,0,1,.26.25,3.58,3.58,0,0,0,1.76,1.19,3,3,0,0,0-.19-1.22,50.68,50.68,0,0,0-2-5.22c-.79-1.86-1.68-4-2.61-6.65-.17-.47-.55-1.35-1-2.37a68.91,68.91,0,0,1-2.77-7.08c-.74-2.49.37-4,1.66-4.66a3.37,3.37,0,0,1,4.22,1c1.2,1.75,2.9,6.22,4.3,10a3.83,3.83,0,0,1,2.94-2.07,2.79,2.79,0,0,1,2.82,1.06l.56,1a2.47,2.47,0,0,1,.1-.29,3.53,3.53,0,0,1,2.88-2,3.48,3.48,0,0,1,3.28,1.47,11,11,0,0,1,1,1.76,2.89,2.89,0,0,1,2.56-2.25c2.24-.35,4.14,3.3,5.37,6.08l.13.3c1.85,4,4,9.3,3.87,12a15.26,15.26,0,0,1-8,12.44A16.84,16.84,0,0,1,819.62,773.4Zm-20-22.25a2.66,2.66,0,0,0-1.78.73,2.24,2.24,0,0,0-.4,2.22c.15.59,2.11,2.84,3.85,4.83,1.57,1.8,3.36,3.85,4.77,5.69,1.11,1.45,6.41,6.82,10.76,7.54a15.82,15.82,0,0,0,10.68-1.88A14.26,14.26,0,0,0,835,758.66c.1-1.91-1.24-6-3.77-11.49l-.14-.32c-2.12-4.77-3.53-5.62-4.3-5.49a2,2,0,0,0-1.48.85c-.63,1-.28,2.56-.11,3.2a.53.53,0,0,1-.32.63c-.47.14-.62-.29-.7-.5a19.56,19.56,0,0,0-1.9-4.1,2.49,2.49,0,0,0-2.35-1.06,2.54,2.54,0,0,0-2.07,1.43c-.27.63.24,2.1.83,3.57.19.41.35.8.47,1.12l0,.1.15.34,0,0a.71.71,0,0,1,0,.43.49.49,0,0,1-.46.26.51.51,0,0,1-.44-.32l-.15-.35c-.17-.41-.35-.82-.51-1.22a28.69,28.69,0,0,0-2.3-4.51,1.79,1.79,0,0,0-1.84-.65,2.85,2.85,0,0,0-2.17,1.46c-.34,1.08.54,3.59,1.27,5.31a.08.08,0,0,1,0,0l.55,1.22a.48.48,0,0,1-.24.65.49.49,0,0,1-.66-.23c-.07-.14-.27-.55-.52-1.12a29.68,29.68,0,0,1-1.67-4.23c-1.39-3.83-3.49-9.6-4.81-11.51a2.39,2.39,0,0,0-3-.62c-1.18.57-1.61,1.86-1.13,3.46a68.59,68.59,0,0,0,2.73,7c.47,1.08.84,1.93,1,2.44.92,2.64,1.81,4.74,2.59,6.6a52.38,52.38,0,0,1,2,5.32c.24.81.47,1.94-.28,2.37-1,.59-2.66-1-3-1.37l-.22-.2a19,19,0,0,1-2.25-2.43c-1.64-2.15-3-3.32-4.13-3.57Z"/>
  </g>
  <rect class="cls-3" x="802.87" y="723.39" width="7.38" height="1" transform="translate(-110.44 1301.53) rotate(-74.12)"/>
  <rect class="cls-3" x="798.22" y="720.87" width="1" height="7.38" transform="translate(-236.39 422.09) rotate(-25.92)"/>
  <rect class="cls-3" x="792.76" y="725.54" width="1" height="7.78" transform="translate(-248.08 1006.84) rotate(-57.52)"/>
  <g>
    <path class="cls-3" d="M369.5,746c0-5.72-7.16-11.14-18.14-14.5,2.54-11.19,1.41-20.09-3.55-22.94a7.78,7.78,0,0,0-3.94-1v3.92a4.09,4.09,0,0,1,2,.46c2.39,1.37,3.43,6.59,2.62,13.31-.2,1.66-.51,3.4-.9,5.18a84,84,0,0,0-11.17-1.92,85.15,85.15,0,0,0-7.32-8.8c5.74-5.33,11.12-8.25,14.78-8.25v-3.92h0c-4.84,0-11.17,3.45-17.57,9.43-6.41-6-12.74-9.36-17.58-9.36v3.92c3.65,0,9.05,2.91,14.78,8.2a82.11,82.11,0,0,0-7.26,8.78,82.1,82.1,0,0,0-11.19,1.93,51,51,0,0,1-.92-5.1c-.82-6.72.2-11.94,2.57-13.33a3.87,3.87,0,0,1,2-.46v-3.92h0a7.92,7.92,0,0,0-4,1c-4.94,2.85-6,11.74-3.5,22.89-10.94,3.38-18.07,8.78-18.07,14.48s7.16,11.13,18.14,14.49c-2.53,11.19-1.41,20.09,3.55,22.94a7.73,7.73,0,0,0,4,1c4.84,0,11.17-3.45,17.57-9.43,6.4,5.95,12.74,9.36,17.57,9.36a7.83,7.83,0,0,0,4-1c4.94-2.85,6-11.74,3.5-22.89C362.38,757.07,369.5,751.65,369.5,746Zm-22.9-11.74c-.65,2.27-1.46,4.61-2.38,6.95-.72-1.41-1.47-2.81-2.3-4.22s-1.67-2.78-2.53-4.12C341.88,733.2,344.29,733.66,346.6,734.22ZM338.54,753c-1.37,2.37-2.78,4.62-4.24,6.72-2.62.22-5.27.35-7.95.35s-5.31-.13-7.91-.34c-1.46-2.09-2.89-4.32-4.26-6.68s-2.55-4.64-3.66-7c1.09-2.36,2.32-4.72,3.64-7s2.78-4.63,4.24-6.72c2.62-.23,5.28-.35,8-.35s5.31.12,7.92.33q2.19,3.15,4.25,6.69c1.34,2.3,2.55,4.64,3.66,7C341.07,748.29,339.86,750.65,338.54,753Zm5.68-2.29c.95,2.36,1.76,4.71,2.43,7-2.3.56-4.73,1-7.25,1.41.87-1.36,1.73-2.75,2.54-4.17S343.5,752.08,344.22,750.67Zm-17.83,18.77a71.92,71.92,0,0,1-4.89-5.63c1.58.07,3.2.12,4.83.12s3.29,0,4.89-.12A67.62,67.62,0,0,1,326.39,769.44ZM313.3,759.08c-2.5-.37-4.91-.83-7.21-1.39.65-2.27,1.46-4.61,2.37-7,.72,1.41,1.48,2.81,2.31,4.22S312.44,757.74,313.3,759.08Zm13-36.61a74.08,74.08,0,0,1,4.89,5.63c-1.58-.07-3.2-.12-4.84-.12s-3.29,0-4.89.12A67.67,67.67,0,0,1,326.3,722.47Zm-13,10.36c-.86,1.36-1.72,2.75-2.53,4.17s-1.57,2.82-2.29,4.22a71.89,71.89,0,0,1-2.42-7C308.34,733.68,310.77,733.2,313.28,732.83Zm-15.92,22c-6.22-2.66-10.25-6.14-10.25-8.9s4-6.27,10.25-8.91c1.52-.65,3.17-1.23,4.88-1.77A85,85,0,0,0,306.19,746a83.81,83.81,0,0,0-3.9,10.66C300.55,756.1,298.89,755.51,297.36,754.86ZM306.83,780c-2.4-1.37-3.43-6.59-2.62-13.31.19-1.66.51-3.4.89-5.18a84,84,0,0,0,11.17,1.92,86.44,86.44,0,0,0,7.32,8.8c-5.73,5.33-11.12,8.25-14.78,8.25A4.16,4.16,0,0,1,306.83,780Zm41.72-13.4c.83,6.72-.19,11.94-2.57,13.33a3.87,3.87,0,0,1-2,.46c-3.64,0-9-2.9-14.78-8.2a81.17,81.17,0,0,0,7.27-8.78,82.37,82.37,0,0,0,11.19-1.93A49.46,49.46,0,0,1,348.55,766.59Zm6.77-11.73c-1.51.65-3.16,1.23-4.87,1.77a83.53,83.53,0,0,0-4-10.71,83.92,83.92,0,0,0,3.91-10.66c1.74.55,3.39,1.14,4.94,1.79,6.23,2.66,10.26,6.14,10.26,8.91S361.55,752.22,355.32,754.86Z"/>
    <circle class="cls-3" cx="326.33" cy="745.96" r="8.04"/>
  </g>
  <g>
    <path class="cls-3" d="M1005.92,374.94a.5.5,0,0,1-.5-.5V350a.5.5,0,0,1,.5-.5.5.5,0,0,1,.5.5v24.42A.51.51,0,0,1,1005.92,374.94Z"/>
    <path class="cls-3" d="M1005.92,374.94a.51.51,0,0,1-.36-.15l-10.5-10.5a.5.5,0,0,1,.71-.71l10.15,10.15,10.14-10.15a.5.5,0,0,1,.71.71l-10.5,10.5A.5.5,0,0,1,1005.92,374.94Z"/>
  </g>
  <g>
    <path class="cls-3" d="M990.5,387a.5.5,0,0,1-.5-.5v-10a.5.5,0,0,1,1,0v10A.5.5,0,0,1,990.5,387Z"/>
    <path class="cls-3" d="M1021.5,387a.5.5,0,0,1-.5-.5v-10a.5.5,0,0,1,1,0v10A.5.5,0,0,1,1021.5,387Z"/>
    <path class="cls-3" d="M1021.5,387h-31a.5.5,0,0,1,0-1h31a.5.5,0,0,1,0,1Z"/>
  </g>
  <g>
    <path class="cls-3" d="M718,440.37a9.38,9.38,0,0,0,1.13-1.69,3.41,3.41,0,0,0,.29-1.43,2.38,2.38,0,0,0-.6-1.71,2.17,2.17,0,0,0-1.65-.63,2.09,2.09,0,0,0-1.61.69,3.29,3.29,0,0,0-.81,1.83l-1.53-.3a4,4,0,0,1,.61-1.92,3.73,3.73,0,0,1,1.41-1.32,4,4,0,0,1,2-.48,4,4,0,0,1,2.83,1,3.74,3.74,0,0,1,1.06,2.81,4.3,4.3,0,0,1-.38,1.79,9.09,9.09,0,0,1-1.15,1.83l-4,5.18h5.86v1.52H713v-.64Z"/>
    <path class="cls-3" d="M723.9,447.28a1.18,1.18,0,0,1-.35-.87,1.2,1.2,0,0,1,1.23-1.24,1.21,1.21,0,0,1,1.24,1.24,1.15,1.15,0,0,1-.36.87,1.17,1.17,0,0,1-.88.35A1.18,1.18,0,0,1,723.9,447.28Z"/>
    <path class="cls-3" d="M738.68,433.57a4.11,4.11,0,0,1,2.87.95,3.45,3.45,0,0,1,1.05,2.69,2.89,2.89,0,0,1-.46,1.68,2.63,2.63,0,0,1-1.17,1,3.71,3.71,0,0,1,1.72,1.3,3.8,3.8,0,0,1,.62,2.26,3.88,3.88,0,0,1-1.18,3,4.48,4.48,0,0,1-3.22,1.1H734v-14Zm2.2,3.7c0-1.38-.76-2.08-2.26-2.08h-2.91v4.14h2.92C740.13,439.33,740.88,438.65,740.88,437.27Zm0,8.08a2.87,2.87,0,0,0,0-3.8,3.28,3.28,0,0,0-2.15-.6h-3v5h3A3.28,3.28,0,0,0,740.83,445.35Z"/>
    <path class="cls-3" d="M747.57,437.49v1.74a3.73,3.73,0,0,1,1.24-1.41,3.18,3.18,0,0,1,1.73-.49,3.94,3.94,0,0,1,1.42.3l-.34,1.54a2.78,2.78,0,0,0-1.31-.34,2.28,2.28,0,0,0-2,1.26,7.18,7.18,0,0,0-.77,3.68v3.8h-1.66V437.49Z"/>
    <path class="cls-3" d="M754.93,447a4.72,4.72,0,0,1-1.71-1.91,5.94,5.94,0,0,1,0-5.16,4.78,4.78,0,0,1,1.71-1.91,4.68,4.68,0,0,1,2.57-.71,4.61,4.61,0,0,1,2.55.71,4.76,4.76,0,0,1,1.7,1.91,5.94,5.94,0,0,1,0,5.16,4.69,4.69,0,0,1-1.7,1.91,4.53,4.53,0,0,1-2.55.71A4.6,4.6,0,0,1,754.93,447Zm4.26-1.29a3.18,3.18,0,0,0,1.07-1.37,4.6,4.6,0,0,0,.36-1.83,4.67,4.67,0,0,0-.36-1.83,3.3,3.3,0,0,0-1.07-1.37,3,3,0,0,0-3.39,0,3.41,3.41,0,0,0-1.08,1.37,4.67,4.67,0,0,0-.36,1.83,4.6,4.6,0,0,0,.36,1.83,3.28,3.28,0,0,0,1.08,1.37,3,3,0,0,0,3.39,0Z"/>
    <path class="cls-3" d="M763.38,437.49h1.7l2.16,7.86,2-7.86h1.58l2,7.86,2.19-7.86h1.7l-3.1,10.08H772l-2-7.68-2,7.68h-1.58Z"/>
    <path class="cls-3" d="M778.91,446.93a3.82,3.82,0,0,1-1.26-1.94l1.39-.74a3.23,3.23,0,0,0,.86,1.48,2.17,2.17,0,0,0,1.51.52,1.61,1.61,0,0,0,1.17-.4,1.44,1.44,0,0,0,.44-1.12,1.25,1.25,0,0,0-.56-1,7.24,7.24,0,0,0-1.63-.8,5,5,0,0,1-1.85-1.1,2.4,2.4,0,0,1-.65-1.76,2.52,2.52,0,0,1,.83-1.95,3.05,3.05,0,0,1,2.12-.75,3.23,3.23,0,0,1,2.92,1.58l-1.08,1a2.14,2.14,0,0,0-1.86-1.06,1.41,1.41,0,0,0-1,.33,1.13,1.13,0,0,0-.37.89,1.1,1.1,0,0,0,.49.93,6.65,6.65,0,0,0,1.75.83c1.63.6,2.45,1.56,2.45,2.88a2.92,2.92,0,0,1-.87,2.24,3.3,3.3,0,0,1-2.35.82A3.75,3.75,0,0,1,778.91,446.93Z"/>
    <path class="cls-3" d="M795.28,442.79h-7.42a4,4,0,0,0,.84,2.5,2.56,2.56,0,0,0,2.11,1,2.9,2.9,0,0,0,1.71-.46,3.84,3.84,0,0,0,1.18-1.5l1.4.6a5.26,5.26,0,0,1-1.75,2.16,4.54,4.54,0,0,1-2.57.68,4.25,4.25,0,0,1-2.47-.71,4.56,4.56,0,0,1-1.59-1.9,6.16,6.16,0,0,1-.54-2.59,6.29,6.29,0,0,1,.54-2.61,4.59,4.59,0,0,1,1.59-1.89,4.39,4.39,0,0,1,2.47-.7,4.48,4.48,0,0,1,2.4.64,4.24,4.24,0,0,1,1.56,1.72,5.29,5.29,0,0,1,.54,2.4Zm-1.68-1.42a3.24,3.24,0,0,0-.9-1.87,2.91,2.91,0,0,0-3.73,0,3.36,3.36,0,0,0-1,1.9Z"/>
    <path class="cls-3" d="M799.38,437.49v1.74a3.65,3.65,0,0,1,1.24-1.41,3.14,3.14,0,0,1,1.72-.49,3.9,3.9,0,0,1,1.42.3l-.34,1.54a2.77,2.77,0,0,0-1.3-.34,2.28,2.28,0,0,0-2,1.26,7.19,7.19,0,0,0-.76,3.68v3.8h-1.67V437.49Z"/>
    <path class="cls-3" d="M810.57,433.41h1.66v14.16h-1.66Z"/>
    <path class="cls-3" d="M817,447a4.72,4.72,0,0,1-1.71-1.91,5.94,5.94,0,0,1,0-5.16A4.78,4.78,0,0,1,817,438a4.68,4.68,0,0,1,2.57-.71,4.61,4.61,0,0,1,2.55.71,4.76,4.76,0,0,1,1.7,1.91,5.94,5.94,0,0,1,0,5.16,4.69,4.69,0,0,1-1.7,1.91,4.53,4.53,0,0,1-2.55.71A4.6,4.6,0,0,1,817,447Zm4.26-1.29a3.18,3.18,0,0,0,1.07-1.37,4.59,4.59,0,0,0,.35-1.83,4.66,4.66,0,0,0-.35-1.83,3.3,3.3,0,0,0-1.07-1.37,3,3,0,0,0-3.39,0,3.41,3.41,0,0,0-1.08,1.37,4.67,4.67,0,0,0-.36,1.83,4.6,4.6,0,0,0,.36,1.83,3.28,3.28,0,0,0,1.08,1.37,3,3,0,0,0,3.39,0Z"/>
    <path class="cls-3" d="M827,447a2.88,2.88,0,0,1-.87-2.29,2.84,2.84,0,0,1,1.18-2.45,5.61,5.61,0,0,1,3.27-.85h1.76v-.44a2,2,0,0,0-.59-1.61,2.27,2.27,0,0,0-1.54-.51,2.16,2.16,0,0,0-2.21,1.64l-1.47-.34a3,3,0,0,1,1.22-2,4.09,4.09,0,0,1,2.46-.76,3.83,3.83,0,0,1,2.74,1,3.68,3.68,0,0,1,1,2.79v6.46h-1.3l-.29-1.46a3.5,3.5,0,0,1-3.15,1.62A3.26,3.26,0,0,1,827,447Zm3.87-1a2.62,2.62,0,0,0,1-1,3.32,3.32,0,0,0,.42-1.77v-.32h-1.7a3.69,3.69,0,0,0-2.09.48,1.57,1.57,0,0,0-.71,1.38,1.5,1.5,0,0,0,.46,1.18,1.73,1.73,0,0,0,1.25.42A2.87,2.87,0,0,0,830.86,445.92Z"/>
    <path class="cls-3" d="M838.21,447.06a4.14,4.14,0,0,1-1.51-1.85,7,7,0,0,1,0-5.36,4.25,4.25,0,0,1,1.51-1.85,4.32,4.32,0,0,1,2.42-.67,4,4,0,0,1,1.75.38,3.59,3.59,0,0,1,1.27,1v-5.34h1.64v14.16h-1.64v-1.32a3,3,0,0,1-1.22,1,3.72,3.72,0,0,1-1.8.44A4.24,4.24,0,0,1,838.21,447.06Zm4.8-1.83a5,5,0,0,0,0-5.39,2.58,2.58,0,0,0-2.16-1,2.61,2.61,0,0,0-2.17,1,5,5,0,0,0,0,5.38,2.8,2.8,0,0,0,4.33,0Z"/>
    <path class="cls-3" d="M848.69,446.93a3.7,3.7,0,0,1-1.26-1.94l1.38-.74a3.24,3.24,0,0,0,.87,1.48,2.15,2.15,0,0,0,1.51.52,1.61,1.61,0,0,0,1.17-.4,1.43,1.43,0,0,0,.43-1.12,1.24,1.24,0,0,0-.55-1,7.24,7.24,0,0,0-1.63-.8,5,5,0,0,1-1.85-1.1,2.4,2.4,0,0,1-.65-1.76,2.52,2.52,0,0,1,.83-1.95,3,3,0,0,1,2.11-.75,3.21,3.21,0,0,1,2.92,1.58l-1.08,1a2.11,2.11,0,0,0-1.85-1.06,1.41,1.41,0,0,0-.95.33,1.13,1.13,0,0,0-.38.89,1.11,1.11,0,0,0,.5.93,6.65,6.65,0,0,0,1.75.83c1.63.6,2.45,1.56,2.45,2.88a2.92,2.92,0,0,1-.87,2.24,3.3,3.3,0,0,1-2.35.82A3.75,3.75,0,0,1,848.69,446.93Z"/>
    <path class="cls-3" d="M862.1,446.72a4.21,4.21,0,0,1-1.25-2.59l1.76-.38a3.14,3.14,0,0,0,.74,1.75,2.08,2.08,0,0,0,1.58.61,2.31,2.31,0,0,0,1.73-.66,2.8,2.8,0,0,0,.65-2.06v-9.82H869v9.64a4.58,4.58,0,0,1-1.14,3.38,4,4,0,0,1-3,1.14A3.89,3.89,0,0,1,862.1,446.72Z"/>
    <path class="cls-3" d="M872.39,447a2.89,2.89,0,0,1-.88-2.29,2.85,2.85,0,0,1,1.19-2.45,5.61,5.61,0,0,1,3.27-.85h1.76v-.44a2,2,0,0,0-.59-1.61,2.28,2.28,0,0,0-1.55-.51,2.15,2.15,0,0,0-2.2,1.64l-1.48-.34a3.06,3.06,0,0,1,1.23-2,4.08,4.08,0,0,1,2.45-.76,3.79,3.79,0,0,1,2.74,1,3.64,3.64,0,0,1,1,2.79v6.46h-1.3l-.3-1.46a3.48,3.48,0,0,1-3.14,1.62A3.26,3.26,0,0,1,872.39,447Zm3.86-1a2.58,2.58,0,0,0,1.06-1,3.41,3.41,0,0,0,.42-1.77v-.32H876a3.75,3.75,0,0,0-2.1.48,1.59,1.59,0,0,0-.7,1.38,1.53,1.53,0,0,0,.45,1.18,1.77,1.77,0,0,0,1.25.42A2.81,2.81,0,0,0,876.25,445.92Z"/>
    <path class="cls-3" d="M880.67,437.49h1.7l2.54,8,2.52-8h1.7l-3.4,10.08h-1.66Z"/>
    <path class="cls-3" d="M891,447a2.89,2.89,0,0,1-.88-2.29,2.85,2.85,0,0,1,1.19-2.45,5.61,5.61,0,0,1,3.27-.85h1.76v-.44a2,2,0,0,0-.59-1.61,2.28,2.28,0,0,0-1.55-.51,2.15,2.15,0,0,0-2.2,1.64l-1.48-.34a3.06,3.06,0,0,1,1.23-2,4.08,4.08,0,0,1,2.45-.76,3.79,3.79,0,0,1,2.74,1,3.64,3.64,0,0,1,1,2.79v6.46h-1.3l-.3-1.46a3.48,3.48,0,0,1-3.14,1.62A3.26,3.26,0,0,1,891,447Zm3.86-1a2.58,2.58,0,0,0,1.06-1,3.41,3.41,0,0,0,.42-1.77v-.32h-1.7a3.75,3.75,0,0,0-2.1.48,1.59,1.59,0,0,0-.7,1.38,1.53,1.53,0,0,0,.45,1.18,1.77,1.77,0,0,0,1.25.42A2.81,2.81,0,0,0,894.85,445.92Z"/>
    <path class="cls-3" d="M902.42,447.22a4.53,4.53,0,0,1-1.59-1.39,4.65,4.65,0,0,1-.8-1.92l1.44-.9q.75,3.11,3.1,3.1a2.16,2.16,0,0,0,2.3-2.38,2.12,2.12,0,0,0-.4-1.3,3.33,3.33,0,0,0-1-.9c-.4-.24-1-.53-1.7-.88a6.81,6.81,0,0,1-2.15-1.55,3.32,3.32,0,0,1-.79-2.27,3.47,3.47,0,0,1,.46-1.76,3.35,3.35,0,0,1,1.26-1.22,3.75,3.75,0,0,1,1.8-.44,3.54,3.54,0,0,1,3.58,2.28l-1.42.9a2.2,2.2,0,0,0-2.16-1.56,1.82,1.82,0,0,0-1.32.5,1.67,1.67,0,0,0-.5,1.2,1.93,1.93,0,0,0,.38,1.2,3.2,3.2,0,0,0,1,.84,14.62,14.62,0,0,0,1.55.78,7.15,7.15,0,0,1,2.38,1.63,3.56,3.56,0,0,1,.84,2.47,4.12,4.12,0,0,1-.53,2.14,3.65,3.65,0,0,1-1.46,1.43,4.26,4.26,0,0,1-2.09.51A4.53,4.53,0,0,1,902.42,447.22Z"/>
    <path class="cls-3" d="M912.55,447a4.57,4.57,0,0,1-1.57-1.9,6.23,6.23,0,0,1-.53-2.58A6.3,6.3,0,0,1,911,440a4.63,4.63,0,0,1,1.57-1.9,4.35,4.35,0,0,1,2.52-.72,4.1,4.1,0,0,1,4.22,2.82l-1.48.58a2.77,2.77,0,0,0-2.74-1.92,2.5,2.5,0,0,0-2.16,1,5.2,5.2,0,0,0,0,5.35,2.48,2.48,0,0,0,2.16,1.05,2.74,2.74,0,0,0,1.66-.48,3.42,3.42,0,0,0,1.08-1.44l1.48.58a4.21,4.21,0,0,1-1.61,2.11,4.55,4.55,0,0,1-2.61.71A4.35,4.35,0,0,1,912.55,447Z"/>
    <path class="cls-3" d="M923.25,437.49v1.74a3.73,3.73,0,0,1,1.24-1.41,3.17,3.17,0,0,1,1.72-.49,3.86,3.86,0,0,1,1.42.3l-.34,1.54a2.71,2.71,0,0,0-1.3-.34,2.28,2.28,0,0,0-2,1.26,7.18,7.18,0,0,0-.77,3.68v3.8h-1.66V437.49Z"/>
    <path class="cls-3" d="M929.4,435.44a1.15,1.15,0,0,1-.35-.85,1.18,1.18,0,0,1,.35-.86,1.26,1.26,0,0,1,1.72,0,1.14,1.14,0,0,1,.35.86,1.11,1.11,0,0,1-.35.86,1.18,1.18,0,0,1-.87.34A1.15,1.15,0,0,1,929.4,435.44Zm0,2.05h1.66v10.08h-1.66Z"/>
    <path class="cls-3" d="M935.75,437.49v1.3a3.15,3.15,0,0,1,1.17-1,3.69,3.69,0,0,1,1.77-.44,4.43,4.43,0,0,1,2.46.67,4.18,4.18,0,0,1,1.54,1.85,7.17,7.17,0,0,1,0,5.36,4.07,4.07,0,0,1-1.54,1.85,4.35,4.35,0,0,1-2.46.67,3.89,3.89,0,0,1-1.68-.39,3,3,0,0,1-1.26-1v5.34h-1.66V437.49Zm5,7.73a5,5,0,0,0,0-5.38,2.79,2.79,0,0,0-4.33,0,5,5,0,0,0,0,5.38,2.78,2.78,0,0,0,4.32,0Z"/>
    <path class="cls-3" d="M946.75,446.92a3.38,3.38,0,0,1-.78-2.43V439h-1.7v-1.48H946v-3l1.66-1.06v4.08h2.7V439h-2.7v5.64c0,1.1.47,1.64,1.4,1.64a2.22,2.22,0,0,0,1.16-.28l.42,1.4a3.8,3.8,0,0,1-1.72.36A2.84,2.84,0,0,1,946.75,446.92Z"/>
    <path class="cls-3" d="M958,447a2.89,2.89,0,0,1-.88-2.29,2.85,2.85,0,0,1,1.19-2.45,5.61,5.61,0,0,1,3.27-.85h1.76v-.44a2,2,0,0,0-.59-1.61,2.28,2.28,0,0,0-1.55-.51,2.15,2.15,0,0,0-2.2,1.64l-1.48-.34a3.06,3.06,0,0,1,1.23-2,4.08,4.08,0,0,1,2.45-.76,3.79,3.79,0,0,1,2.74,1,3.64,3.64,0,0,1,1,2.79v6.46h-1.3l-.3-1.46a3.48,3.48,0,0,1-3.14,1.62A3.26,3.26,0,0,1,958,447Zm3.86-1a2.58,2.58,0,0,0,1.06-1,3.41,3.41,0,0,0,.42-1.77v-.32h-1.7a3.75,3.75,0,0,0-2.1.48,1.59,1.59,0,0,0-.7,1.38,1.53,1.53,0,0,0,.45,1.18,1.77,1.77,0,0,0,1.25.42A2.81,2.81,0,0,0,961.81,445.92Z"/>
    <path class="cls-3" d="M969.35,437.49v1.94a4.29,4.29,0,0,1,1.43-1.53,3.49,3.49,0,0,1,1.91-.57,3,3,0,0,1,2.26.84,3.23,3.23,0,0,1,.84,2.38v7h-1.64v-6.66a2.34,2.34,0,0,0-.47-1.57,1.77,1.77,0,0,0-1.39-.53,2.32,2.32,0,0,0-1.49.54,3.68,3.68,0,0,0-1.06,1.55,6.62,6.62,0,0,0-.39,2.37v4.3h-1.66V437.49Z"/>
    <path class="cls-3" d="M980.25,447.06a4.22,4.22,0,0,1-1.52-1.85,7.17,7.17,0,0,1,0-5.36,4.07,4.07,0,0,1,3.94-2.52,4,4,0,0,1,1.74.38,3.54,3.54,0,0,1,1.28,1v-5.34h1.64v14.16h-1.64v-1.32a3,3,0,0,1-1.22,1,3.75,3.75,0,0,1-1.8.44A4.24,4.24,0,0,1,980.25,447.06Zm4.8-1.83a5,5,0,0,0,0-5.39,2.58,2.58,0,0,0-2.16-1,2.61,2.61,0,0,0-2.17,1,5,5,0,0,0,0,5.38,2.8,2.8,0,0,0,4.33,0Z"/>
    <path class="cls-3" d="M998.05,446.92a6,6,0,0,1-2.32-2.43,9.17,9.17,0,0,1,0-7.84,6,6,0,0,1,2.32-2.43,6.26,6.26,0,0,1,3.12-.81,5.61,5.61,0,0,1,3.5,1.08,5.49,5.49,0,0,1,2,3l-1.64.44a4.2,4.2,0,0,0-1.37-2.14,3.83,3.83,0,0,0-2.45-.76,4.38,4.38,0,0,0-2.33.64,4.33,4.33,0,0,0-1.61,1.88,8.15,8.15,0,0,0,0,6,4.22,4.22,0,0,0,1.61,1.88,4.29,4.29,0,0,0,2.33.64,3.78,3.78,0,0,0,2.45-.76,4.15,4.15,0,0,0,1.37-2.14l1.64.44a5.49,5.49,0,0,1-2,3,5.61,5.61,0,0,1-3.5,1.08A6.26,6.26,0,0,1,998.05,446.92Z"/>
    <path class="cls-3" d="M1010.74,447.22a4.44,4.44,0,0,1-1.59-1.39,4.65,4.65,0,0,1-.8-1.92l1.44-.9q.75,3.11,3.1,3.1a2.16,2.16,0,0,0,2.3-2.38,2.12,2.12,0,0,0-.4-1.3,3.33,3.33,0,0,0-1-.9c-.4-.24-1-.53-1.7-.88a6.81,6.81,0,0,1-2.15-1.55,3.27,3.27,0,0,1-.79-2.27,3.31,3.31,0,0,1,1.72-3,3.72,3.72,0,0,1,1.8-.44,3.54,3.54,0,0,1,3.58,2.28l-1.42.9a2.21,2.21,0,0,0-2.16-1.56,1.8,1.8,0,0,0-1.32.5,1.67,1.67,0,0,0-.5,1.2,1.93,1.93,0,0,0,.38,1.2,3.08,3.08,0,0,0,.95.84,14.62,14.62,0,0,0,1.55.78,7.15,7.15,0,0,1,2.38,1.63,3.56,3.56,0,0,1,.84,2.47,4.12,4.12,0,0,1-.53,2.14,3.65,3.65,0,0,1-1.46,1.43,4.28,4.28,0,0,1-2.09.51A4.53,4.53,0,0,1,1010.74,447.22Z"/>
    <path class="cls-3" d="M1021,447.22a4.53,4.53,0,0,1-1.59-1.39,4.65,4.65,0,0,1-.8-1.92l1.44-.9c.49,2.07,1.53,3.1,3.1,3.1a2.16,2.16,0,0,0,2.3-2.38,2.12,2.12,0,0,0-.4-1.3,3.46,3.46,0,0,0-1-.9c-.4-.24-1-.53-1.7-.88a6.69,6.69,0,0,1-2.15-1.55,3.32,3.32,0,0,1-.79-2.27,3.47,3.47,0,0,1,.46-1.76,3.35,3.35,0,0,1,1.26-1.22,3.75,3.75,0,0,1,1.8-.44,3.54,3.54,0,0,1,3.58,2.28l-1.42.9A2.21,2.21,0,0,0,1023,435a1.79,1.79,0,0,0-1.32.5,1.67,1.67,0,0,0-.5,1.2,1.93,1.93,0,0,0,.38,1.2,3.2,3.2,0,0,0,1,.84,14.62,14.62,0,0,0,1.55.78,7.15,7.15,0,0,1,2.38,1.63,3.56,3.56,0,0,1,.84,2.47,4.22,4.22,0,0,1-.53,2.14,3.65,3.65,0,0,1-1.46,1.43,4.26,4.26,0,0,1-2.09.51A4.53,4.53,0,0,1,1021,447.22Z"/>
  </g>
  <g>
    <path class="cls-3" d="M174,436.05l-2.44,1.5v-1.8l3.52-2.18h.58v14H174Z"/>
    <path class="cls-3" d="M178.9,447.28a1.18,1.18,0,0,1-.34-.87,1.18,1.18,0,0,1,1.21-1.24,1.21,1.21,0,0,1,1.25,1.24,1.21,1.21,0,0,1-1.25,1.22A1.18,1.18,0,0,1,178.9,447.28Z"/>
    <path class="cls-3" d="M190.4,447.22a4.53,4.53,0,0,1-1.59-1.39,4.64,4.64,0,0,1-.79-1.92l1.43-.9c.5,2.07,1.53,3.1,3.11,3.1a2.15,2.15,0,0,0,2.29-2.38,2.12,2.12,0,0,0-.4-1.3,3.33,3.33,0,0,0-1-.9,19,19,0,0,0-1.7-.88,6.81,6.81,0,0,1-2.15-1.55,3.32,3.32,0,0,1-.79-2.27,3.47,3.47,0,0,1,.46-1.76,3.35,3.35,0,0,1,1.26-1.22,3.75,3.75,0,0,1,1.8-.44,3.9,3.9,0,0,1,2.24.59,3.8,3.8,0,0,1,1.34,1.69l-1.42.9a2.2,2.2,0,0,0-2.16-1.56,1.78,1.78,0,0,0-1.31.5,1.63,1.63,0,0,0-.5,1.2,1.87,1.87,0,0,0,.38,1.2,3.08,3.08,0,0,0,.95.84,13.7,13.7,0,0,0,1.55.78,7.1,7.1,0,0,1,2.37,1.63,3.56,3.56,0,0,1,.84,2.47,4.12,4.12,0,0,1-.53,2.14,3.65,3.65,0,0,1-1.46,1.43,4.26,4.26,0,0,1-2.09.51A4.53,4.53,0,0,1,190.4,447.22Z"/>
    <path class="cls-3" d="M207.53,442.79h-7.42a4.1,4.1,0,0,0,.85,2.5,2.57,2.57,0,0,0,2.11,1,2.85,2.85,0,0,0,1.7-.46,3.76,3.76,0,0,0,1.19-1.5l1.39.6a5.11,5.11,0,0,1-1.75,2.16,4.49,4.49,0,0,1-2.57.68,4.24,4.24,0,0,1-2.46-.71,4.56,4.56,0,0,1-1.59-1.9,6.16,6.16,0,0,1-.54-2.59,6.29,6.29,0,0,1,.54-2.61,4.59,4.59,0,0,1,1.59-1.89,4.38,4.38,0,0,1,2.46-.7,4.49,4.49,0,0,1,2.41.64,4.31,4.31,0,0,1,1.56,1.72,5.42,5.42,0,0,1,.53,2.4Zm-1.68-1.42a3.17,3.17,0,0,0-.89-1.87,2.91,2.91,0,0,0-3.73,0,3.36,3.36,0,0,0-1,1.9Z"/>
    <path class="cls-3" d="M211.64,437.49v1.74a3.65,3.65,0,0,1,1.24-1.41,3.14,3.14,0,0,1,1.72-.49,3.94,3.94,0,0,1,1.42.3l-.34,1.54a2.77,2.77,0,0,0-1.3-.34,2.28,2.28,0,0,0-2,1.26,7.19,7.19,0,0,0-.76,3.68v3.8H210V437.49Z"/>
    <path class="cls-3" d="M217,437.49h1.7l2.54,8,2.52-8h1.7L222,447.57h-1.66Z"/>
    <path class="cls-3" d="M235.51,442.79h-7.42a4,4,0,0,0,.85,2.5,2.56,2.56,0,0,0,2.11,1,2.87,2.87,0,0,0,1.7-.46,3.85,3.85,0,0,0,1.19-1.5l1.39.6a5.18,5.18,0,0,1-1.75,2.16,4.49,4.49,0,0,1-2.57.68,4.24,4.24,0,0,1-2.46-.71,4.56,4.56,0,0,1-1.59-1.9,6.17,6.17,0,0,1-.55-2.59,6.29,6.29,0,0,1,.55-2.61,4.59,4.59,0,0,1,1.59-1.89,4.38,4.38,0,0,1,2.46-.7,4.45,4.45,0,0,1,2.4.64,4.34,4.34,0,0,1,1.57,1.72,5.42,5.42,0,0,1,.53,2.4Zm-1.68-1.42a3.23,3.23,0,0,0-.89-1.87,2.7,2.7,0,0,0-1.93-.69,2.67,2.67,0,0,0-1.8.66,3.43,3.43,0,0,0-1,1.9Z"/>
    <path class="cls-3" d="M239.61,437.49v1.74a3.81,3.81,0,0,1,1.24-1.41,3.19,3.19,0,0,1,1.72-.49,3.86,3.86,0,0,1,1.42.3l-.34,1.54a2.71,2.71,0,0,0-1.3-.34,2.28,2.28,0,0,0-2,1.26,7.18,7.18,0,0,0-.77,3.68v3.8H238V437.49Z"/>
    <path class="cls-3" d="M251.41,446.93a3.7,3.7,0,0,1-1.26-1.94l1.38-.74a3.24,3.24,0,0,0,.87,1.48,2.15,2.15,0,0,0,1.51.52,1.61,1.61,0,0,0,1.17-.4,1.43,1.43,0,0,0,.43-1.12,1.24,1.24,0,0,0-.55-1,7.24,7.24,0,0,0-1.63-.8,5,5,0,0,1-1.85-1.1,2.4,2.4,0,0,1-.65-1.76,2.52,2.52,0,0,1,.83-1.95,3,3,0,0,1,2.11-.75,3.21,3.21,0,0,1,2.92,1.58l-1.08,1a2.11,2.11,0,0,0-1.86-1.06,1.4,1.4,0,0,0-.94.33,1.13,1.13,0,0,0-.38.89,1.12,1.12,0,0,0,.49.93,7,7,0,0,0,1.75.83q2.46.9,2.46,2.88a2.89,2.89,0,0,1-.88,2.24,3.26,3.26,0,0,1-2.34.82A3.75,3.75,0,0,1,251.41,446.93Z"/>
    <path class="cls-3" d="M267.77,442.79h-7.42a4.1,4.1,0,0,0,.84,2.5,2.59,2.59,0,0,0,2.12,1,2.87,2.87,0,0,0,1.7-.46,3.75,3.75,0,0,0,1.18-1.5l1.4.6a5.18,5.18,0,0,1-1.75,2.16,4.49,4.49,0,0,1-2.57.68,4.24,4.24,0,0,1-2.46-.71,4.56,4.56,0,0,1-1.59-1.9,6.17,6.17,0,0,1-.55-2.59,6.29,6.29,0,0,1,.55-2.61,4.59,4.59,0,0,1,1.59-1.89,4.38,4.38,0,0,1,2.46-.7,4.48,4.48,0,0,1,2.4.64,4.24,4.24,0,0,1,1.56,1.72,5.29,5.29,0,0,1,.54,2.4Zm-1.68-1.42a3.18,3.18,0,0,0-.9-1.87,2.9,2.9,0,0,0-3.72,0,3.43,3.43,0,0,0-1,1.9Z"/>
    <path class="cls-3" d="M271.87,437.49v1.94a4.29,4.29,0,0,1,1.43-1.53,3.49,3.49,0,0,1,1.91-.57,3,3,0,0,1,2.26.84,3.23,3.23,0,0,1,.84,2.38v7h-1.64v-6.66a2.28,2.28,0,0,0-.47-1.57,1.76,1.76,0,0,0-1.39-.53,2.34,2.34,0,0,0-1.49.54,3.68,3.68,0,0,0-1.06,1.55,6.62,6.62,0,0,0-.39,2.37v4.3h-1.66V437.49Z"/>
    <path class="cls-3" d="M282.77,447.06a4.22,4.22,0,0,1-1.52-1.85,7.17,7.17,0,0,1,0-5.36,4.07,4.07,0,0,1,3.94-2.52,4,4,0,0,1,1.74.38,3.54,3.54,0,0,1,1.28,1v-5.34h1.64v14.16h-1.64v-1.32a3,3,0,0,1-1.22,1,3.75,3.75,0,0,1-1.8.44A4.24,4.24,0,0,1,282.77,447.06Zm4.8-1.83a5,5,0,0,0,0-5.39,2.58,2.58,0,0,0-2.16-1,2.61,2.61,0,0,0-2.17,1,5,5,0,0,0,0,5.38,2.8,2.8,0,0,0,4.33,0Z"/>
    <path class="cls-3" d="M293.25,446.93A3.7,3.7,0,0,1,292,445l1.38-.74a3.24,3.24,0,0,0,.87,1.48,2.15,2.15,0,0,0,1.51.52,1.61,1.61,0,0,0,1.17-.4,1.43,1.43,0,0,0,.43-1.12,1.24,1.24,0,0,0-.55-1,7.24,7.24,0,0,0-1.63-.8,5,5,0,0,1-1.85-1.1,2.4,2.4,0,0,1-.65-1.76,2.52,2.52,0,0,1,.83-1.95,3,3,0,0,1,2.11-.75,3.21,3.21,0,0,1,2.92,1.58l-1.08,1a2.11,2.11,0,0,0-1.86-1.06,1.4,1.4,0,0,0-.94.33,1.13,1.13,0,0,0-.38.89,1.12,1.12,0,0,0,.49.93,7,7,0,0,0,1.75.83q2.46.9,2.46,2.88a2.89,2.89,0,0,1-.88,2.24,3.26,3.26,0,0,1-2.34.82A3.75,3.75,0,0,1,293.25,446.93Z"/>
    <path class="cls-3" d="M306.59,433.57h1.74v5.72H315v-5.72h1.74v14H315v-6.66h-6.62v6.66h-1.74Z"/>
    <path class="cls-3" d="M322.67,435.19h-4.1v-1.62h9.92v1.62h-4.1v12.38h-1.72Z"/>
    <path class="cls-3" d="M330.39,433.57h2.06l3.88,10,3.88-10h2v14h-1.72V437l-3.62,9.26h-1.18l-3.6-9.26v10.54h-1.74Z"/>
    <path class="cls-3" d="M345.73,433.57h1.74V446h6.34v1.62h-8.08Z"/>
    <path class="cls-3" d="M362.31,446.92a3.38,3.38,0,0,1-.78-2.43V439h-1.7v-1.48h1.7v-3l1.66-1.06v4.08h2.7V439h-2.7v5.64c0,1.1.47,1.64,1.4,1.64a2.22,2.22,0,0,0,1.16-.28l.42,1.4a3.8,3.8,0,0,1-1.72.36A2.84,2.84,0,0,1,362.31,446.92Z"/>
    <path class="cls-3" d="M369.38,447a4.69,4.69,0,0,1-1.7-1.91,5.94,5.94,0,0,1,0-5.16,4.76,4.76,0,0,1,1.7-1.91,4.7,4.7,0,0,1,2.57-.71A4.58,4.58,0,0,1,376.2,440a5.94,5.94,0,0,1,0,5.16,4.6,4.6,0,0,1-1.69,1.91,4.54,4.54,0,0,1-2.56.71A4.62,4.62,0,0,1,369.38,447Zm4.26-1.29a3.11,3.11,0,0,0,1.07-1.37,4.6,4.6,0,0,0,.36-1.83,4.67,4.67,0,0,0-.36-1.83,3.22,3.22,0,0,0-1.07-1.37,2.8,2.8,0,0,0-1.69-.52,2.85,2.85,0,0,0-1.69.52,3.41,3.41,0,0,0-1.08,1.37,4.67,4.67,0,0,0-.37,1.83,4.6,4.6,0,0,0,.37,1.83,3.28,3.28,0,0,0,1.08,1.37,2.78,2.78,0,0,0,1.69.52A2.74,2.74,0,0,0,373.64,445.73Z"/>
    <path class="cls-3" d="M385.43,446.92a3.38,3.38,0,0,1-.78-2.43V439H383v-1.48h1.7v-3l1.66-1.06v4.08H389V439h-2.7v5.64c0,1.1.47,1.64,1.4,1.64a2.22,2.22,0,0,0,1.16-.28l.42,1.4a3.8,3.8,0,0,1-1.72.36A2.84,2.84,0,0,1,385.43,446.92Z"/>
    <path class="cls-3" d="M392.71,433.41v6.1a3.81,3.81,0,0,1,3.46-2.18,3.13,3.13,0,0,1,2.31.83,3.22,3.22,0,0,1,.83,2.39v7h-1.64V441a2.36,2.36,0,0,0-.48-1.59,1.8,1.8,0,0,0-1.42-.55,2.51,2.51,0,0,0-1.52.53,3.71,3.71,0,0,0-1.12,1.55,6.28,6.28,0,0,0-.42,2.4v4.28h-1.66V433.41Z"/>
    <path class="cls-3" d="M410.83,442.79h-7.42a4.1,4.1,0,0,0,.84,2.5,2.59,2.59,0,0,0,2.12,1,2.87,2.87,0,0,0,1.7-.46,3.75,3.75,0,0,0,1.18-1.5l1.4.6a5.18,5.18,0,0,1-1.75,2.16,4.49,4.49,0,0,1-2.57.68,4.24,4.24,0,0,1-2.46-.71,4.56,4.56,0,0,1-1.59-1.9,6.17,6.17,0,0,1-.55-2.59,6.29,6.29,0,0,1,.55-2.61,4.59,4.59,0,0,1,1.59-1.89,4.38,4.38,0,0,1,2.46-.7,4.48,4.48,0,0,1,2.4.64,4.24,4.24,0,0,1,1.56,1.72,5.29,5.29,0,0,1,.54,2.4Zm-1.68-1.42a3.18,3.18,0,0,0-.9-1.87,2.9,2.9,0,0,0-3.72,0,3.43,3.43,0,0,0-1,1.9Z"/>
    <path class="cls-3" d="M421.14,447.31a3.06,3.06,0,0,1-1.19-1v1.22h-1.66V433.41H420v5.34a3.83,3.83,0,0,1,1.28-1,3.68,3.68,0,0,1,1.66-.39,4.43,4.43,0,0,1,2.46.67,4.18,4.18,0,0,1,1.54,1.85,7.17,7.17,0,0,1,0,5.36,4.07,4.07,0,0,1-1.54,1.85,4.35,4.35,0,0,1-2.46.67A3.86,3.86,0,0,1,421.14,447.31Zm3.76-2.09a5,5,0,0,0,0-5.38,2.78,2.78,0,0,0-4.32,0,5,5,0,0,0,0,5.38,2.79,2.79,0,0,0,4.33,0Z"/>
    <path class="cls-3" d="M431.49,437.49v1.74a3.73,3.73,0,0,1,1.24-1.41,3.17,3.17,0,0,1,1.72-.49,3.86,3.86,0,0,1,1.42.3l-.34,1.54a2.71,2.71,0,0,0-1.3-.34,2.28,2.28,0,0,0-2,1.26,7.18,7.18,0,0,0-.77,3.68v3.8h-1.66V437.49Z"/>
    <path class="cls-3" d="M438.84,447a4.69,4.69,0,0,1-1.7-1.91,5.94,5.94,0,0,1,0-5.16,4.76,4.76,0,0,1,1.7-1.91,4.7,4.7,0,0,1,2.57-.71,4.58,4.58,0,0,1,4.25,2.62,5.94,5.94,0,0,1,0,5.16A4.6,4.6,0,0,1,444,447a4.54,4.54,0,0,1-2.56.71A4.62,4.62,0,0,1,438.84,447Zm4.26-1.29a3.11,3.11,0,0,0,1.07-1.37,4.6,4.6,0,0,0,.36-1.83,4.67,4.67,0,0,0-.36-1.83,3.22,3.22,0,0,0-1.07-1.37,2.8,2.8,0,0,0-1.69-.52,2.85,2.85,0,0,0-1.69.52,3.41,3.41,0,0,0-1.08,1.37,4.67,4.67,0,0,0-.37,1.83,4.6,4.6,0,0,0,.37,1.83,3.28,3.28,0,0,0,1.08,1.37,2.78,2.78,0,0,0,1.69.52A2.74,2.74,0,0,0,443.1,445.73Z"/>
    <path class="cls-3" d="M447.29,437.49H449l2.16,7.86,2-7.86h1.58l2,7.86,2.18-7.86h1.7l-3.1,10.08h-1.56l-2-7.68-2,7.68h-1.58Z"/>
    <path class="cls-3" d="M462.83,446.93a3.7,3.7,0,0,1-1.26-1.94l1.38-.74a3.24,3.24,0,0,0,.87,1.48,2.15,2.15,0,0,0,1.51.52,1.61,1.61,0,0,0,1.17-.4,1.43,1.43,0,0,0,.43-1.12,1.24,1.24,0,0,0-.55-1,7.24,7.24,0,0,0-1.63-.8,5,5,0,0,1-1.85-1.1,2.4,2.4,0,0,1-.65-1.76,2.52,2.52,0,0,1,.83-1.95,3,3,0,0,1,2.11-.75,3.21,3.21,0,0,1,2.92,1.58l-1.08,1a2.11,2.11,0,0,0-1.86-1.06,1.4,1.4,0,0,0-.94.33,1.13,1.13,0,0,0-.38.89,1.12,1.12,0,0,0,.49.93,7,7,0,0,0,1.75.83q2.46.9,2.46,2.88a2.89,2.89,0,0,1-.88,2.24,3.26,3.26,0,0,1-2.34.82A3.75,3.75,0,0,1,462.83,446.93Z"/>
    <path class="cls-3" d="M479.19,442.79h-7.42a4.1,4.1,0,0,0,.84,2.5,2.59,2.59,0,0,0,2.12,1,2.87,2.87,0,0,0,1.7-.46,3.75,3.75,0,0,0,1.18-1.5l1.4.6a5.18,5.18,0,0,1-1.75,2.16,4.49,4.49,0,0,1-2.57.68,4.24,4.24,0,0,1-2.46-.71,4.56,4.56,0,0,1-1.59-1.9,6.17,6.17,0,0,1-.55-2.59,6.29,6.29,0,0,1,.55-2.61,4.59,4.59,0,0,1,1.59-1.89,4.38,4.38,0,0,1,2.46-.7,4.48,4.48,0,0,1,2.4.64,4.24,4.24,0,0,1,1.56,1.72,5.29,5.29,0,0,1,.54,2.4Zm-1.68-1.42a3.18,3.18,0,0,0-.9-1.87,2.9,2.9,0,0,0-3.72,0,3.43,3.43,0,0,0-1,1.9Z"/>
    <path class="cls-3" d="M483.29,437.49v1.74a3.73,3.73,0,0,1,1.24-1.41,3.17,3.17,0,0,1,1.72-.49,3.86,3.86,0,0,1,1.42.3l-.34,1.54a2.71,2.71,0,0,0-1.3-.34,2.28,2.28,0,0,0-2,1.26,7.18,7.18,0,0,0-.77,3.68v3.8h-1.66V437.49Z"/>
  </g>
  <g>
    <path class="cls-3" d="M702.39,883.55h-6.12v-.64l5.9-10.34H704v9.48h1.77v1.5H704v3h-1.65Zm0-1.5V875l-3.94,7.08Z"/>
    <path class="cls-3" d="M708,886.28a1.15,1.15,0,0,1-.35-.87,1.23,1.23,0,1,1,2.46,0,1.24,1.24,0,0,1-2.11.87Z"/>
    <path class="cls-3" d="M723,872.57a4.22,4.22,0,0,1,3.07,1.07,4.46,4.46,0,0,1,0,5.84,4.17,4.17,0,0,1-3.07,1.07h-3.18v6H718v-14Zm1.78,5.73a2.94,2.94,0,0,0,0-3.48,2.34,2.34,0,0,0-1.8-.63h-3.16v4.74h3.16A2.34,2.34,0,0,0,724.73,878.3Z"/>
    <path class="cls-3" d="M729.21,886a2.86,2.86,0,0,1-.88-2.29,2.82,2.82,0,0,1,1.19-2.45,5.57,5.57,0,0,1,3.27-.85h1.75v-.44a2,2,0,0,0-.58-1.61,2.32,2.32,0,0,0-1.55-.51,2.15,2.15,0,0,0-2.2,1.64l-1.48-.34a3,3,0,0,1,1.23-2,4,4,0,0,1,2.45-.76,3.83,3.83,0,0,1,2.74,1,3.68,3.68,0,0,1,1,2.79v6.46h-1.31l-.29-1.46a3.49,3.49,0,0,1-3.14,1.62A3.23,3.23,0,0,1,729.21,886Zm3.86-1a2.56,2.56,0,0,0,1-1,3.32,3.32,0,0,0,.42-1.77v-.32h-1.69a3.7,3.7,0,0,0-2.1.48,1.57,1.57,0,0,0-.71,1.38,1.54,1.54,0,0,0,.46,1.18,1.73,1.73,0,0,0,1.25.42A2.87,2.87,0,0,0,733.07,884.92Z"/>
    <path class="cls-3" d="M739.31,889.93a2.9,2.9,0,0,1-1.17-2.44,2.65,2.65,0,0,1,.27-1.2,2.7,2.7,0,0,1,.71-.88,1.82,1.82,0,0,1-.72-1.62,2,2,0,0,1,.34-1.13,2.5,2.5,0,0,1,.9-.77,3.55,3.55,0,0,1-.26-3.95,3.21,3.21,0,0,1,1.26-1.19,3.8,3.8,0,0,1,1.78-.42,3.84,3.84,0,0,1,1.79.46l1.82-1,.71,1.24-1.42.76a3.32,3.32,0,0,1,.6,1.94,3.38,3.38,0,0,1-.46,1.79,3,3,0,0,1-1.25,1.18,3.8,3.8,0,0,1-1.79.41,3.89,3.89,0,0,1-1.76-.4,1.09,1.09,0,0,0-.7,1,.75.75,0,0,0,.33.68,1.37,1.37,0,0,0,.82.22h2.42a3.65,3.65,0,0,1,2.33.69,2.46,2.46,0,0,1,.86,2.05,3,3,0,0,1-1.19,2.62,6,6,0,0,1-6.22,0Zm5.09-1.07a1.6,1.6,0,0,0,.71-1.37,1.32,1.32,0,0,0-.49-1.15,2.32,2.32,0,0,0-1.38-.35h-1.82a8.57,8.57,0,0,1-1-.06,1.74,1.74,0,0,0-.67,1.52,1.64,1.64,0,0,0,.7,1.41,3.47,3.47,0,0,0,2,.51A3.23,3.23,0,0,0,744.4,888.86Zm-.61-7.69a2.18,2.18,0,0,0,0-2.92,1.86,1.86,0,0,0-1.37-.54,1.89,1.89,0,0,0-1.37.54,2.21,2.21,0,0,0,0,2.92,1.89,1.89,0,0,0,1.37.54A1.86,1.86,0,0,0,743.79,881.17Z"/>
    <path class="cls-3" d="M757.06,881.79h-7.42a4.1,4.1,0,0,0,.85,2.5,2.58,2.58,0,0,0,2.12,1,2.84,2.84,0,0,0,1.69-.46,3.76,3.76,0,0,0,1.19-1.5l1.39.6a5.11,5.11,0,0,1-1.75,2.16,4.49,4.49,0,0,1-2.57.68,4.18,4.18,0,0,1-2.45-.71,4.42,4.42,0,0,1-1.59-1.9,6,6,0,0,1-.56-2.59,6.14,6.14,0,0,1,.56-2.61,4.45,4.45,0,0,1,1.59-1.89,4.33,4.33,0,0,1,2.45-.7,4.43,4.43,0,0,1,2.4.64,4.27,4.27,0,0,1,1.57,1.72,5.42,5.42,0,0,1,.53,2.4Zm-1.68-1.42a3.17,3.17,0,0,0-.89-1.87,2.67,2.67,0,0,0-1.93-.69,2.62,2.62,0,0,0-1.79.66,3.31,3.31,0,0,0-1,1.9Z"/>
    <path class="cls-3" d="M764.49,874.44a1.15,1.15,0,0,1-.35-.85,1.18,1.18,0,0,1,.35-.86,1.23,1.23,0,0,1,.86-.34,1.21,1.21,0,0,1,.86.34,1.14,1.14,0,0,1,.35.86,1.11,1.11,0,0,1-.35.86,1.17,1.17,0,0,1-.86.34A1.15,1.15,0,0,1,764.49,874.44Zm0,2h1.66v10.08h-1.66Z"/>
    <path class="cls-3" d="M769.52,885.93a3.7,3.7,0,0,1-1.26-1.94l1.38-.74a3.24,3.24,0,0,0,.87,1.48,2.15,2.15,0,0,0,1.51.52,1.61,1.61,0,0,0,1.17-.4,1.43,1.43,0,0,0,.43-1.12,1.24,1.24,0,0,0-.55-1,7.24,7.24,0,0,0-1.63-.8,5,5,0,0,1-1.85-1.1,2.4,2.4,0,0,1-.65-1.76,2.52,2.52,0,0,1,.83-1.95,3,3,0,0,1,2.11-.75,3.21,3.21,0,0,1,2.92,1.58l-1.08,1a2.11,2.11,0,0,0-1.85-1.06,1.41,1.41,0,0,0-1,.33,1.13,1.13,0,0,0-.38.89,1.11,1.11,0,0,0,.5.93,6.65,6.65,0,0,0,1.75.83c1.63.6,2.45,1.56,2.45,2.88a2.92,2.92,0,0,1-.87,2.24,3.3,3.3,0,0,1-2.35.82A3.75,3.75,0,0,1,769.52,885.93Z"/>
    <path class="cls-3" d="M781.42,876.49h1.7l2.54,8,2.52-8h1.7l-3.4,10.08h-1.66Z"/>
    <path class="cls-3" d="M791.65,874.44a1.15,1.15,0,0,1-.35-.85,1.18,1.18,0,0,1,.35-.86,1.22,1.22,0,0,1,.85-.34,1.26,1.26,0,0,1,.88.34,1.17,1.17,0,0,1,.34.86,1.14,1.14,0,0,1-.34.86,1.21,1.21,0,0,1-.88.34A1.15,1.15,0,0,1,791.65,874.44Zm0,2h1.66v10.08h-1.66Z"/>
    <path class="cls-3" d="M804.84,881.79h-7.42a4.1,4.1,0,0,0,.84,2.5,2.59,2.59,0,0,0,2.12,1,2.87,2.87,0,0,0,1.7-.46,3.75,3.75,0,0,0,1.18-1.5l1.4.6a5.18,5.18,0,0,1-1.75,2.16,4.49,4.49,0,0,1-2.57.68,4.24,4.24,0,0,1-2.46-.71,4.56,4.56,0,0,1-1.59-1.9,6.17,6.17,0,0,1-.55-2.59,6.29,6.29,0,0,1,.55-2.61,4.59,4.59,0,0,1,1.59-1.89,4.38,4.38,0,0,1,2.46-.7,4.48,4.48,0,0,1,2.4.64,4.24,4.24,0,0,1,1.56,1.72,5.29,5.29,0,0,1,.54,2.4Zm-1.68-1.42a3.18,3.18,0,0,0-.9-1.87,2.9,2.9,0,0,0-3.72,0,3.43,3.43,0,0,0-1,1.9Z"/>
    <path class="cls-3" d="M805.94,876.49h1.7l2.16,7.86,2-7.86h1.58l2,7.86,2.18-7.86h1.7l-3.1,10.08h-1.56l-2-7.68-2,7.68H809Z"/>
    <path class="cls-3" d="M821.12,886a2.89,2.89,0,0,1-.88-2.29,2.83,2.83,0,0,1,1.2-2.45,5.57,5.57,0,0,1,3.27-.85h1.75v-.44a2,2,0,0,0-.58-1.61,2.33,2.33,0,0,0-1.56-.51,2.15,2.15,0,0,0-2.2,1.64l-1.48-.34a3,3,0,0,1,1.24-2,4,4,0,0,1,2.44-.76,3.79,3.79,0,0,1,2.74,1,3.65,3.65,0,0,1,1.05,2.79v6.46H826.8l-.3-1.46a3.46,3.46,0,0,1-3.13,1.62A3.27,3.27,0,0,1,821.12,886Zm3.86-1a2.52,2.52,0,0,0,1.06-1,3.41,3.41,0,0,0,.42-1.77v-.32h-1.69a3.76,3.76,0,0,0-2.11.48,1.59,1.59,0,0,0-.7,1.38,1.57,1.57,0,0,0,.45,1.18,1.77,1.77,0,0,0,1.25.42A2.81,2.81,0,0,0,825,884.92Z"/>
    <path class="cls-3" d="M833.73,886.31a3.13,3.13,0,0,1-1.19-1v1.22h-1.66V872.41h1.66v5.34a3.83,3.83,0,0,1,1.28-1,3.68,3.68,0,0,1,1.66-.39,4.43,4.43,0,0,1,2.46.67,4.18,4.18,0,0,1,1.54,1.85,7.17,7.17,0,0,1,0,5.36,4.07,4.07,0,0,1-1.54,1.85,4.35,4.35,0,0,1-2.46.67A3.86,3.86,0,0,1,833.73,886.31Zm3.76-2.09a4.92,4.92,0,0,0,0-5.38,2.78,2.78,0,0,0-4.32,0,5,5,0,0,0,0,5.38,2.79,2.79,0,0,0,4.33,0Z"/>
    <path class="cls-3" d="M842.42,872.41h1.66v14.16h-1.66Z"/>
    <path class="cls-3" d="M855.6,881.79h-7.42a4.1,4.1,0,0,0,.84,2.5,2.59,2.59,0,0,0,2.12,1,2.87,2.87,0,0,0,1.7-.46,3.75,3.75,0,0,0,1.18-1.5l1.4.6a5.18,5.18,0,0,1-1.75,2.16,4.49,4.49,0,0,1-2.57.68,4.24,4.24,0,0,1-2.46-.71,4.56,4.56,0,0,1-1.59-1.9,6.17,6.17,0,0,1-.55-2.59,6.29,6.29,0,0,1,.55-2.61,4.59,4.59,0,0,1,1.59-1.89,4.38,4.38,0,0,1,2.46-.7,4.48,4.48,0,0,1,2.4.64,4.24,4.24,0,0,1,1.56,1.72,5.29,5.29,0,0,1,.54,2.4Zm-1.68-1.42a3.18,3.18,0,0,0-.9-1.87,2.9,2.9,0,0,0-3.72,0,3.43,3.43,0,0,0-1,1.9Z"/>
    <path class="cls-3" d="M863.4,886a2.89,2.89,0,0,1-.88-2.29,2.85,2.85,0,0,1,1.19-2.45,5.61,5.61,0,0,1,3.27-.85h1.76v-.44a2,2,0,0,0-.59-1.61,2.28,2.28,0,0,0-1.55-.51,2.15,2.15,0,0,0-2.2,1.64l-1.48-.34a3.06,3.06,0,0,1,1.23-2,4.08,4.08,0,0,1,2.45-.76,3.79,3.79,0,0,1,2.74,1,3.64,3.64,0,0,1,1,2.79v6.46h-1.3l-.3-1.46a3.48,3.48,0,0,1-3.14,1.62A3.26,3.26,0,0,1,863.4,886Zm3.86-1a2.58,2.58,0,0,0,1.06-1,3.41,3.41,0,0,0,.42-1.77v-.32H867a3.75,3.75,0,0,0-2.1.48,1.59,1.59,0,0,0-.7,1.38,1.53,1.53,0,0,0,.45,1.18,1.77,1.77,0,0,0,1.25.42A2.81,2.81,0,0,0,867.26,884.92Z"/>
    <path class="cls-3" d="M874.8,876.49v1.94a4.29,4.29,0,0,1,1.43-1.53,3.49,3.49,0,0,1,1.91-.57,3,3,0,0,1,2.26.84,3.23,3.23,0,0,1,.84,2.38v7H879.6v-6.66a2.28,2.28,0,0,0-.47-1.57,1.76,1.76,0,0,0-1.39-.53,2.34,2.34,0,0,0-1.49.54,3.68,3.68,0,0,0-1.06,1.55,6.62,6.62,0,0,0-.39,2.37v4.3h-1.66V876.49Z"/>
    <path class="cls-3" d="M885.7,886.06a4.22,4.22,0,0,1-1.52-1.85,7.17,7.17,0,0,1,0-5.36,4.07,4.07,0,0,1,3.94-2.52,4,4,0,0,1,1.74.38,3.54,3.54,0,0,1,1.28,1v-5.34h1.64v14.16h-1.64v-1.32a3,3,0,0,1-1.22,1,3.75,3.75,0,0,1-1.8.44A4.24,4.24,0,0,1,885.7,886.06Zm4.8-1.83a5,5,0,0,0,0-5.39,2.58,2.58,0,0,0-2.16-1,2.61,2.61,0,0,0-2.17,1,5,5,0,0,0,0,5.38,2.8,2.8,0,0,0,4.33,0Z"/>
    <path class="cls-3" d="M899.52,878v-1.48H901v-.6a3.64,3.64,0,0,1,.85-2.62,3.24,3.24,0,0,1,2.39-.86,3.13,3.13,0,0,1,1.42.3l-.36,1.42a2.51,2.51,0,0,0-1.08-.24,1.52,1.52,0,0,0-1.17.45,2,2,0,0,0-.41,1.35v.8H905V878h-2.34v8.6H901V878Z"/>
    <path class="cls-3" d="M907.62,885.89a3.21,3.21,0,0,1-.84-2.38v-7h1.66v6.66a2.3,2.3,0,0,0,.47,1.57,1.72,1.72,0,0,0,1.37.53,2.34,2.34,0,0,0,1.5-.54,3.5,3.5,0,0,0,1.07-1.56,6.63,6.63,0,0,0,.39-2.38v-4.28h1.64v10.08h-1.64v-1.94a4.21,4.21,0,0,1-1.43,1.53,3.49,3.49,0,0,1-1.93.57A3.06,3.06,0,0,1,907.62,885.89Z"/>
    <path class="cls-3" d="M917.88,872.41h1.66v14.16h-1.66Z"/>
    <path class="cls-3" d="M922.54,872.41h1.66v14.16h-1.66Z"/>
    <path class="cls-3" d="M933,876.49h1.68l-5.06,14.16H928l1.54-4.36-3.62-9.8h1.7l2.74,7.46Z"/>
    <path class="cls-3" d="M941.35,874.44a1.15,1.15,0,0,1-.35-.85,1.18,1.18,0,0,1,.35-.86,1.26,1.26,0,0,1,1.72,0,1.18,1.18,0,0,1,.35.86,1.15,1.15,0,0,1-.35.86,1.18,1.18,0,0,1-.87.34A1.15,1.15,0,0,1,941.35,874.44Zm0,2H943v10.08h-1.66Z"/>
    <path class="cls-3" d="M947.68,876.49v1.94a4.29,4.29,0,0,1,1.43-1.53,3.49,3.49,0,0,1,1.91-.57,3,3,0,0,1,2.26.84,3.23,3.23,0,0,1,.84,2.38v7h-1.64v-6.66a2.34,2.34,0,0,0-.47-1.57,1.77,1.77,0,0,0-1.39-.53,2.32,2.32,0,0,0-1.49.54,3.68,3.68,0,0,0-1.06,1.55,6.62,6.62,0,0,0-.39,2.37v4.3H946V876.49Z"/>
    <path class="cls-3" d="M958.16,885.92a3.38,3.38,0,0,1-.78-2.43V878h-1.7v-1.48h1.7v-3l1.66-1.06v4.08h2.7V878H959v5.64c0,1.1.47,1.64,1.4,1.64a2.24,2.24,0,0,0,1.16-.28l.42,1.4a3.8,3.8,0,0,1-1.72.36A2.83,2.83,0,0,1,958.16,885.92Z"/>
    <path class="cls-3" d="M972,881.79h-7.42a4.1,4.1,0,0,0,.84,2.5,2.59,2.59,0,0,0,2.12,1,2.87,2.87,0,0,0,1.7-.46,3.75,3.75,0,0,0,1.18-1.5l1.4.6a5.18,5.18,0,0,1-1.75,2.16,4.49,4.49,0,0,1-2.57.68,4.24,4.24,0,0,1-2.46-.71,4.56,4.56,0,0,1-1.59-1.9,6,6,0,0,1-.55-2.59,6.14,6.14,0,0,1,.55-2.61,4.59,4.59,0,0,1,1.59-1.89,4.38,4.38,0,0,1,2.46-.7,4.48,4.48,0,0,1,2.4.64,4.24,4.24,0,0,1,1.56,1.72,5.29,5.29,0,0,1,.54,2.4Zm-1.68-1.42a3.18,3.18,0,0,0-.9-1.87,2.9,2.9,0,0,0-3.72,0,3.31,3.31,0,0,0-1,1.9Z"/>
    <path class="cls-3" d="M976.14,876.49v1.74a3.73,3.73,0,0,1,1.24-1.41,3.17,3.17,0,0,1,1.72-.49,3.86,3.86,0,0,1,1.42.3l-.34,1.54a2.71,2.71,0,0,0-1.3-.34,2.28,2.28,0,0,0-2,1.26,7.18,7.18,0,0,0-.77,3.68v3.8h-1.66V876.49Z"/>
    <path class="cls-3" d="M982.12,886a2.89,2.89,0,0,1-.88-2.29,2.85,2.85,0,0,1,1.19-2.45,5.57,5.57,0,0,1,3.27-.85h1.76v-.44a2,2,0,0,0-.59-1.61,2.28,2.28,0,0,0-1.55-.51,2.15,2.15,0,0,0-2.2,1.64l-1.48-.34a3.06,3.06,0,0,1,1.23-2,4.08,4.08,0,0,1,2.45-.76,3.79,3.79,0,0,1,2.74,1,3.68,3.68,0,0,1,1,2.79v6.46h-1.3l-.3-1.46a3.48,3.48,0,0,1-3.14,1.62A3.26,3.26,0,0,1,982.12,886Zm3.86-1a2.58,2.58,0,0,0,1.06-1,3.41,3.41,0,0,0,.42-1.77v-.32h-1.7a3.75,3.75,0,0,0-2.1.48,1.59,1.59,0,0,0-.7,1.38,1.53,1.53,0,0,0,.45,1.18,1.77,1.77,0,0,0,1.25.42A2.84,2.84,0,0,0,986,884.92Z"/>
    <path class="cls-3" d="M993.4,886a4.49,4.49,0,0,1-1.57-1.9,6.23,6.23,0,0,1-.53-2.58,6.3,6.3,0,0,1,.53-2.58,4.55,4.55,0,0,1,1.57-1.9,4.3,4.3,0,0,1,2.52-.72,4.11,4.11,0,0,1,4.22,2.82l-1.48.58a2.77,2.77,0,0,0-2.74-1.92,2.48,2.48,0,0,0-2.16,1,5.2,5.2,0,0,0,0,5.35,2.47,2.47,0,0,0,2.16,1,2.74,2.74,0,0,0,1.66-.48,3.42,3.42,0,0,0,1.08-1.44l1.48.58a4.27,4.27,0,0,1-1.61,2.11,4.55,4.55,0,0,1-2.61.71A4.3,4.3,0,0,1,993.4,886Z"/>
    <path class="cls-3" d="M1003.64,885.92a3.38,3.38,0,0,1-.78-2.43V878h-1.7v-1.48h1.7v-3l1.66-1.06v4.08h2.7V878h-2.7v5.64c0,1.1.47,1.64,1.4,1.64a2.22,2.22,0,0,0,1.16-.28l.42,1.4a3.8,3.8,0,0,1-1.72.36A2.84,2.84,0,0,1,1003.64,885.92Z"/>
    <path class="cls-3" d="M1009.68,886a3.25,3.25,0,0,1,.31-4.74,5.61,5.61,0,0,1,3.27-.85H1015v-.44a2,2,0,0,0-.59-1.61,2.28,2.28,0,0,0-1.55-.51,2.15,2.15,0,0,0-2.2,1.64l-1.48-.34a3,3,0,0,1,1.23-2,4.06,4.06,0,0,1,2.45-.76,3.81,3.81,0,0,1,2.74,1,3.68,3.68,0,0,1,1,2.79v6.46h-1.3l-.3-1.46a3.48,3.48,0,0,1-3.14,1.62A3.25,3.25,0,0,1,1009.68,886Zm3.86-1a2.58,2.58,0,0,0,1.06-1,3.41,3.41,0,0,0,.42-1.77v-.32h-1.7a3.75,3.75,0,0,0-2.1.48,1.56,1.56,0,0,0-.7,1.38,1.53,1.53,0,0,0,.45,1.18,1.77,1.77,0,0,0,1.25.42A2.84,2.84,0,0,0,1013.54,884.92Z"/>
    <path class="cls-3" d="M1022.29,886.31a3.06,3.06,0,0,1-1.19-1v1.22h-1.66V872.41h1.66v5.34a3.83,3.83,0,0,1,1.28-1,3.68,3.68,0,0,1,1.66-.39,4.43,4.43,0,0,1,2.46.67,4.18,4.18,0,0,1,1.54,1.85,7.17,7.17,0,0,1,0,5.36,4.07,4.07,0,0,1-1.54,1.85,4.35,4.35,0,0,1-2.46.67A3.86,3.86,0,0,1,1022.29,886.31Zm3.76-2.09a5,5,0,0,0,0-5.38,2.78,2.78,0,0,0-4.32,0,5,5,0,0,0,0,5.38,2.79,2.79,0,0,0,4.33,0Z"/>
    <path class="cls-3" d="M1031,872.41h1.66v14.16H1031Z"/>
    <path class="cls-3" d="M1044.16,881.79h-7.42a4.1,4.1,0,0,0,.84,2.5,2.59,2.59,0,0,0,2.12,1,2.89,2.89,0,0,0,1.7-.46,3.84,3.84,0,0,0,1.18-1.5l1.4.6a5.18,5.18,0,0,1-1.75,2.16,4.52,4.52,0,0,1-2.57.68,4.19,4.19,0,0,1-2.46-.71,4.56,4.56,0,0,1-1.59-1.9,6,6,0,0,1-.55-2.59,6.14,6.14,0,0,1,.55-2.61,4.59,4.59,0,0,1,1.59-1.89,4.34,4.34,0,0,1,2.46-.7,4.48,4.48,0,0,1,2.4.64,4.24,4.24,0,0,1,1.56,1.72,5.29,5.29,0,0,1,.54,2.4Zm-1.68-1.42a3.18,3.18,0,0,0-.9-1.87,2.9,2.9,0,0,0-3.72,0,3.31,3.31,0,0,0-1,1.9Z"/>
  </g>
  <g>
    <path class="cls-3" d="M144.39,885.65a4.38,4.38,0,0,1-1.41-2.94l1.62-.22a3.42,3.42,0,0,0,.9,2,2.53,2.53,0,0,0,1.9.73,2.71,2.71,0,0,0,2.1-.8,3.11,3.11,0,0,0,.74-2.2,3.15,3.15,0,0,0-.75-2.25,2.74,2.74,0,0,0-2.07-.79,2.38,2.38,0,0,0-1.24.34l-.74-1,3.3-4.46h-5.08v-1.5h7.56v.52l-3.62,4.84a1.81,1.81,0,0,1,.52-.06,3.73,3.73,0,0,1,1.91.52,3.68,3.68,0,0,1,1.38,1.51,5,5,0,0,1,.51,2.31,4.84,4.84,0,0,1-.56,2.36,4,4,0,0,1-1.58,1.59,4.82,4.82,0,0,1-2.38.57A4.34,4.34,0,0,1,144.39,885.65Z"/>
    <path class="cls-3" d="M154.39,886.28a1.15,1.15,0,0,1-.35-.87,1.2,1.2,0,0,1,1.22-1.24,1.2,1.2,0,0,1,1.24,1.24,1.2,1.2,0,0,1-1.24,1.22A1.15,1.15,0,0,1,154.39,886.28Z"/>
    <path class="cls-3" d="M164.46,872.57h1.74v5.72h6.61v-5.72h1.75v14h-1.75v-6.66H166.2v6.66h-1.74Z"/>
    <path class="cls-3" d="M180.54,874.19h-4.1v-1.62h9.92v1.62h-4.1v12.38h-1.72Z"/>
    <path class="cls-3" d="M188.26,872.57h2.06l3.88,10,3.88-10h2v14H198.4V876l-3.62,9.26H193.6L190,876v10.54h-1.74Z"/>
    <path class="cls-3" d="M203.6,872.57h1.74V885h6.34v1.62H203.6Z"/>
    <path class="cls-3" d="M218.94,874.44a1.15,1.15,0,0,1-.34-.85,1.17,1.17,0,0,1,.34-.86,1.23,1.23,0,0,1,.86-.34,1.25,1.25,0,0,1,.87.34,1.18,1.18,0,0,1,.35.86,1.15,1.15,0,0,1-.35.86,1.21,1.21,0,0,1-.87.34A1.15,1.15,0,0,1,218.94,874.44Zm0,2h1.66v10.08H219Z"/>
    <path class="cls-3" d="M224,885.93a3.7,3.7,0,0,1-1.26-1.94l1.38-.74a3.24,3.24,0,0,0,.87,1.48,2.13,2.13,0,0,0,1.51.52,1.65,1.65,0,0,0,1.17-.4,1.47,1.47,0,0,0,.43-1.12,1.26,1.26,0,0,0-.55-1,7.46,7.46,0,0,0-1.63-.8,4.88,4.88,0,0,1-1.85-1.1,2.36,2.36,0,0,1-.65-1.76,2.48,2.48,0,0,1,.83-1.95,3,3,0,0,1,2.11-.75,3.23,3.23,0,0,1,2.92,1.58l-1.08,1a2.14,2.14,0,0,0-1.86-1.06,1.37,1.37,0,0,0-.94.33,1.17,1.17,0,0,0,.11,1.82,6.82,6.82,0,0,0,1.75.83q2.46.9,2.46,2.88a2.92,2.92,0,0,1-.88,2.24,3.29,3.29,0,0,1-2.34.82A3.73,3.73,0,0,1,224,885.93Z"/>
    <path class="cls-3" d="M237.48,889.93a2.87,2.87,0,0,1-1.17-2.44,2.65,2.65,0,0,1,.27-1.2,2.7,2.7,0,0,1,.71-.88,1.82,1.82,0,0,1-.72-1.62,2,2,0,0,1,.34-1.13,2.5,2.5,0,0,1,.9-.77,3.33,3.33,0,0,1-.74-2.18,3.39,3.39,0,0,1,.47-1.77,3.3,3.3,0,0,1,1.27-1.19,3.82,3.82,0,0,1,3.56,0l1.82-1,.72,1.24-1.42.76a3.26,3.26,0,0,1,.6,1.94,3.38,3.38,0,0,1-.46,1.79,2.93,2.93,0,0,1-1.26,1.18,3.74,3.74,0,0,1-1.78.41,3.86,3.86,0,0,1-1.76-.4,1.09,1.09,0,0,0-.7,1,.76.76,0,0,0,.32.68,1.41,1.41,0,0,0,.82.22h2.42a3.63,3.63,0,0,1,2.33.69,2.47,2.47,0,0,1,.88,2.05,3,3,0,0,1-1.21,2.62,6,6,0,0,1-6.21,0Zm5.09-1.07a1.59,1.59,0,0,0,.7-1.37,1.34,1.34,0,0,0-.48-1.15,2.3,2.3,0,0,0-1.38-.35h-1.82a8.17,8.17,0,0,1-1-.06,1.73,1.73,0,0,0-.69,1.52,1.65,1.65,0,0,0,.71,1.41,3.46,3.46,0,0,0,2,.51A3.27,3.27,0,0,0,242.57,888.86Zm-.61-7.69a2.18,2.18,0,0,0,0-2.92,2,2,0,0,0-2.73,0,2.18,2.18,0,0,0,0,2.92,2,2,0,0,0,2.73,0Z"/>
    <path class="cls-3" d="M255.23,881.79h-7.42a4.1,4.1,0,0,0,.85,2.5,2.57,2.57,0,0,0,2.11,1,2.9,2.9,0,0,0,1.71-.46,3.84,3.84,0,0,0,1.18-1.5l1.4.6a5.26,5.26,0,0,1-1.75,2.16,4.55,4.55,0,0,1-2.58.68,4.24,4.24,0,0,1-2.46-.71,4.47,4.47,0,0,1-1.58-1.9,6,6,0,0,1-.55-2.59,6.14,6.14,0,0,1,.55-2.61,4.5,4.5,0,0,1,1.58-1.89,4.38,4.38,0,0,1,2.46-.7,4.49,4.49,0,0,1,2.41.64,4.31,4.31,0,0,1,1.56,1.72,5.29,5.29,0,0,1,.53,2.4Zm-1.67-1.42a3.18,3.18,0,0,0-.9-1.87,2.67,2.67,0,0,0-1.93-.69,2.62,2.62,0,0,0-1.79.66,3.31,3.31,0,0,0-1,1.9Z"/>
    <path class="cls-3" d="M259.33,876.49v1.94a4.29,4.29,0,0,1,1.43-1.53,3.49,3.49,0,0,1,1.91-.57,3,3,0,0,1,2.26.84,3.23,3.23,0,0,1,.84,2.38v7h-1.64v-6.66a2.28,2.28,0,0,0-.47-1.57,1.76,1.76,0,0,0-1.39-.53,2.34,2.34,0,0,0-1.49.54,3.68,3.68,0,0,0-1.06,1.55,6.62,6.62,0,0,0-.39,2.37v4.3h-1.66V876.49Z"/>
    <path class="cls-3" d="M277.29,881.79h-7.42a4,4,0,0,0,.85,2.5,2.56,2.56,0,0,0,2.11,1,2.85,2.85,0,0,0,1.7-.46,3.76,3.76,0,0,0,1.19-1.5l1.39.6a5.11,5.11,0,0,1-1.75,2.16,4.49,4.49,0,0,1-2.57.68,4.24,4.24,0,0,1-2.46-.71,4.56,4.56,0,0,1-1.59-1.9,6.17,6.17,0,0,1-.55-2.59,6.29,6.29,0,0,1,.55-2.61,4.59,4.59,0,0,1,1.59-1.89,4.38,4.38,0,0,1,2.46-.7,4.43,4.43,0,0,1,2.4.64,4.27,4.27,0,0,1,1.57,1.72,5.42,5.42,0,0,1,.53,2.4Zm-1.68-1.42a3.23,3.23,0,0,0-.89-1.87,2.91,2.91,0,0,0-3.73,0,3.36,3.36,0,0,0-1,1.9Z"/>
    <path class="cls-3" d="M281.4,876.49v1.74a3.65,3.65,0,0,1,1.24-1.41,3.13,3.13,0,0,1,1.71-.49,3.86,3.86,0,0,1,1.42.3l-.33,1.54a2.77,2.77,0,0,0-1.3-.34,2.28,2.28,0,0,0-2,1.26,7.19,7.19,0,0,0-.76,3.68v3.8h-1.67V876.49Z"/>
    <path class="cls-3" d="M287.37,886a2.89,2.89,0,0,1-.88-2.29,2.83,2.83,0,0,1,1.2-2.45,5.56,5.56,0,0,1,3.26-.85h1.76v-.44a2,2,0,0,0-.59-1.61,2.28,2.28,0,0,0-1.55-.51,2.15,2.15,0,0,0-2.2,1.64l-1.47-.34a3,3,0,0,1,1.22-2,4.08,4.08,0,0,1,2.45-.76,3.79,3.79,0,0,1,2.74,1,3.64,3.64,0,0,1,1,2.79v6.46h-1.3l-.3-1.46a3.47,3.47,0,0,1-3.14,1.62A3.26,3.26,0,0,1,287.37,886Zm3.86-1a2.52,2.52,0,0,0,1.06-1,3.41,3.41,0,0,0,.42-1.77v-.32H291a3.76,3.76,0,0,0-2.11.48,1.59,1.59,0,0,0-.7,1.38,1.53,1.53,0,0,0,.45,1.18,1.77,1.77,0,0,0,1.25.42A2.81,2.81,0,0,0,291.23,884.92Z"/>
    <path class="cls-3" d="M298.33,885.92a3.38,3.38,0,0,1-.78-2.43V878h-1.7v-1.48h1.7v-3l1.66-1.06v4.08h2.7V878h-2.7v5.64c0,1.1.47,1.64,1.4,1.64a2.22,2.22,0,0,0,1.16-.28l.42,1.4a3.8,3.8,0,0,1-1.72.36A2.84,2.84,0,0,1,298.33,885.92Z"/>
    <path class="cls-3" d="M312.21,881.79h-7.42a4,4,0,0,0,.85,2.5,2.56,2.56,0,0,0,2.11,1,2.85,2.85,0,0,0,1.7-.46,3.76,3.76,0,0,0,1.19-1.5l1.39.6a5.11,5.11,0,0,1-1.75,2.16,4.49,4.49,0,0,1-2.57.68,4.24,4.24,0,0,1-2.46-.71,4.56,4.56,0,0,1-1.59-1.9,6.17,6.17,0,0,1-.55-2.59,6.29,6.29,0,0,1,.55-2.61,4.59,4.59,0,0,1,1.59-1.89,4.38,4.38,0,0,1,2.46-.7,4.43,4.43,0,0,1,2.4.64,4.34,4.34,0,0,1,1.57,1.72,5.42,5.42,0,0,1,.53,2.4Zm-1.68-1.42a3.23,3.23,0,0,0-.89-1.87,2.91,2.91,0,0,0-3.73,0,3.36,3.36,0,0,0-1,1.9Z"/>
    <path class="cls-3" d="M316.11,886.06a4.22,4.22,0,0,1-1.52-1.85,7.17,7.17,0,0,1,0-5.36,4.07,4.07,0,0,1,3.94-2.52,4,4,0,0,1,1.74.38,3.54,3.54,0,0,1,1.28,1v-5.34h1.64v14.16h-1.64v-1.32a3,3,0,0,1-1.22,1,3.75,3.75,0,0,1-1.8.44A4.24,4.24,0,0,1,316.11,886.06Zm4.8-1.83a5,5,0,0,0,0-5.39,2.58,2.58,0,0,0-2.16-1,2.61,2.61,0,0,0-2.17,1,5,5,0,0,0,0,5.38,2.8,2.8,0,0,0,4.33,0Z"/>
    <path class="cls-3" d="M329.93,878v-1.48h1.5v-.6a3.64,3.64,0,0,1,.85-2.62,3.24,3.24,0,0,1,2.39-.86,3.13,3.13,0,0,1,1.42.3l-.36,1.42a2.51,2.51,0,0,0-1.08-.24,1.52,1.52,0,0,0-1.17.45,2,2,0,0,0-.41,1.35v.8h2.34V878h-2.34v8.6h-1.64V878Z"/>
    <path class="cls-3" d="M338.73,876.49v1.74a3.73,3.73,0,0,1,1.24-1.41,3.17,3.17,0,0,1,1.72-.49,3.86,3.86,0,0,1,1.42.3l-.34,1.54a2.71,2.71,0,0,0-1.3-.34,2.28,2.28,0,0,0-2,1.26,7.18,7.18,0,0,0-.77,3.68v3.8h-1.66V876.49Z"/>
    <path class="cls-3" d="M346.08,886a4.69,4.69,0,0,1-1.7-1.91,5.94,5.94,0,0,1,0-5.16,4.76,4.76,0,0,1,1.7-1.91,4.7,4.7,0,0,1,2.57-.71A4.58,4.58,0,0,1,352.9,879a5.94,5.94,0,0,1,0,5.16,4.6,4.6,0,0,1-1.69,1.91,4.54,4.54,0,0,1-2.56.71A4.62,4.62,0,0,1,346.08,886Zm4.26-1.29a3.11,3.11,0,0,0,1.07-1.37,4.6,4.6,0,0,0,.36-1.83,4.67,4.67,0,0,0-.36-1.83,3.22,3.22,0,0,0-1.07-1.37,2.8,2.8,0,0,0-1.69-.52,2.85,2.85,0,0,0-1.69.52,3.41,3.41,0,0,0-1.08,1.37,4.67,4.67,0,0,0-.37,1.83,4.6,4.6,0,0,0,.37,1.83,3.28,3.28,0,0,0,1.08,1.37,2.78,2.78,0,0,0,1.69.52A2.74,2.74,0,0,0,350.34,884.73Z"/>
    <path class="cls-3" d="M357.57,876.49v1.94a4.5,4.5,0,0,1,1.3-1.54,3,3,0,0,1,1.8-.56,2.87,2.87,0,0,1,1.79.55,2.77,2.77,0,0,1,1,1.63,4.5,4.5,0,0,1,1.38-1.58,3.18,3.18,0,0,1,1.84-.6c1.94,0,2.9,1.08,2.9,3.24v7h-1.64v-6.74a2.46,2.46,0,0,0-.38-1.53,1.48,1.48,0,0,0-1.24-.49,2.08,2.08,0,0,0-1.38.54,3.75,3.75,0,0,0-1,1.56,7.2,7.2,0,0,0-.37,2.4v4.26h-1.64v-6.74a2.54,2.54,0,0,0-.37-1.53,1.47,1.47,0,0,0-1.25-.49,2.08,2.08,0,0,0-1.38.54,3.66,3.66,0,0,0-1,1.58,7.59,7.59,0,0,0-.36,2.46v4.18h-1.66V876.49Z"/>
    <path class="cls-3" d="M377.88,885.72a4.21,4.21,0,0,1-1.25-2.59l1.76-.38a3.14,3.14,0,0,0,.74,1.75,2.08,2.08,0,0,0,1.58.61,2.31,2.31,0,0,0,1.73-.66,2.8,2.8,0,0,0,.65-2.06v-9.82h1.72v9.64a4.58,4.58,0,0,1-1.14,3.38,4,4,0,0,1-3,1.14A3.89,3.89,0,0,1,377.88,885.72Z"/>
    <path class="cls-3" d="M388.17,886a2.89,2.89,0,0,1-.88-2.29,2.85,2.85,0,0,1,1.19-2.45,5.61,5.61,0,0,1,3.27-.85h1.76v-.44a2,2,0,0,0-.59-1.61,2.28,2.28,0,0,0-1.55-.51,2.15,2.15,0,0,0-2.2,1.64l-1.48-.34a3.06,3.06,0,0,1,1.23-2,4.08,4.08,0,0,1,2.45-.76,3.79,3.79,0,0,1,2.74,1,3.64,3.64,0,0,1,1,2.79v6.46h-1.3l-.3-1.46a3.48,3.48,0,0,1-3.14,1.62A3.26,3.26,0,0,1,388.17,886Zm3.86-1a2.58,2.58,0,0,0,1.06-1,3.41,3.41,0,0,0,.42-1.77v-.32h-1.7a3.75,3.75,0,0,0-2.1.48,1.59,1.59,0,0,0-.7,1.38,1.53,1.53,0,0,0,.45,1.18,1.77,1.77,0,0,0,1.25.42A2.81,2.81,0,0,0,392,884.92Z"/>
    <path class="cls-3" d="M396.45,876.49h1.7l2.54,8,2.52-8h1.7l-3.4,10.08h-1.66Z"/>
    <path class="cls-3" d="M406.77,886a2.89,2.89,0,0,1-.88-2.29,2.85,2.85,0,0,1,1.19-2.45,5.61,5.61,0,0,1,3.27-.85h1.76v-.44a2,2,0,0,0-.59-1.61,2.28,2.28,0,0,0-1.55-.51,2.15,2.15,0,0,0-2.2,1.64l-1.48-.34a3.06,3.06,0,0,1,1.23-2,4.08,4.08,0,0,1,2.45-.76,3.79,3.79,0,0,1,2.74,1,3.64,3.64,0,0,1,1,2.79v6.46h-1.3l-.3-1.46a3.48,3.48,0,0,1-3.14,1.62A3.26,3.26,0,0,1,406.77,886Zm3.86-1a2.58,2.58,0,0,0,1.06-1,3.41,3.41,0,0,0,.42-1.77v-.32h-1.7a3.75,3.75,0,0,0-2.1.48,1.59,1.59,0,0,0-.7,1.38,1.53,1.53,0,0,0,.45,1.18,1.77,1.77,0,0,0,1.25.42A2.81,2.81,0,0,0,410.63,884.92Z"/>
    <path class="cls-3" d="M418.2,886.22a4.53,4.53,0,0,1-1.59-1.39,4.65,4.65,0,0,1-.8-1.92l1.44-.9q.75,3.11,3.1,3.1a2.16,2.16,0,0,0,2.3-2.38,2.12,2.12,0,0,0-.4-1.3,3.33,3.33,0,0,0-1-.9c-.4-.24-1-.53-1.7-.88a6.81,6.81,0,0,1-2.15-1.55,3.32,3.32,0,0,1-.79-2.27,3.47,3.47,0,0,1,.46-1.76,3.35,3.35,0,0,1,1.26-1.22,3.75,3.75,0,0,1,1.8-.44,3.54,3.54,0,0,1,3.58,2.28l-1.42.9a2.2,2.2,0,0,0-2.16-1.56,1.82,1.82,0,0,0-1.32.5,1.67,1.67,0,0,0-.5,1.2,1.93,1.93,0,0,0,.38,1.2,3.2,3.2,0,0,0,.95.84,14.62,14.62,0,0,0,1.55.78,7.15,7.15,0,0,1,2.38,1.63,3.56,3.56,0,0,1,.84,2.47,4.12,4.12,0,0,1-.53,2.14,3.65,3.65,0,0,1-1.46,1.43,4.26,4.26,0,0,1-2.09.51A4.53,4.53,0,0,1,418.2,886.22Z"/>
    <path class="cls-3" d="M428.33,886a4.57,4.57,0,0,1-1.57-1.9,6.23,6.23,0,0,1-.53-2.58,6.3,6.3,0,0,1,.53-2.58,4.63,4.63,0,0,1,1.57-1.9,4.35,4.35,0,0,1,2.52-.72,4.1,4.1,0,0,1,4.22,2.82l-1.48.58a2.77,2.77,0,0,0-2.74-1.92,2.51,2.51,0,0,0-2.16,1,5.2,5.2,0,0,0,0,5.35,2.49,2.49,0,0,0,2.16,1,2.74,2.74,0,0,0,1.66-.48,3.42,3.42,0,0,0,1.08-1.44l1.48.58a4.21,4.21,0,0,1-1.61,2.11,4.55,4.55,0,0,1-2.61.71A4.35,4.35,0,0,1,428.33,886Z"/>
    <path class="cls-3" d="M439,876.49v1.74a3.73,3.73,0,0,1,1.24-1.41,3.17,3.17,0,0,1,1.72-.49,3.86,3.86,0,0,1,1.42.3l-.34,1.54a2.71,2.71,0,0,0-1.3-.34,2.28,2.28,0,0,0-2,1.26,7.18,7.18,0,0,0-.77,3.68v3.8h-1.66V876.49Z"/>
    <path class="cls-3" d="M445.18,874.44a1.15,1.15,0,0,1-.35-.85,1.18,1.18,0,0,1,.35-.86,1.26,1.26,0,0,1,1.72,0,1.14,1.14,0,0,1,.35.86,1.11,1.11,0,0,1-.35.86,1.18,1.18,0,0,1-.87.34A1.15,1.15,0,0,1,445.18,874.44Zm0,2h1.66v10.08h-1.66Z"/>
    <path class="cls-3" d="M451.53,876.49v1.3a3.15,3.15,0,0,1,1.17-1,3.69,3.69,0,0,1,1.77-.44,4.43,4.43,0,0,1,2.46.67,4.18,4.18,0,0,1,1.54,1.85,7.17,7.17,0,0,1,0,5.36,4.07,4.07,0,0,1-1.54,1.85,4.35,4.35,0,0,1-2.46.67,3.89,3.89,0,0,1-1.68-.39,3.16,3.16,0,0,1-1.26-1v5.34h-1.66V876.49Zm5,7.73a5,5,0,0,0,0-5.38,2.79,2.79,0,0,0-4.33,0,5,5,0,0,0,0,5.38,2.78,2.78,0,0,0,4.32,0Z"/>
    <path class="cls-3" d="M462.53,885.92a3.38,3.38,0,0,1-.78-2.43V878h-1.7v-1.48h1.7v-3l1.66-1.06v4.08h2.7V878h-2.7v5.64c0,1.1.47,1.64,1.4,1.64A2.22,2.22,0,0,0,466,885l.42,1.4a3.8,3.8,0,0,1-1.72.36A2.84,2.84,0,0,1,462.53,885.92Z"/>
    <path class="cls-3" d="M474.91,886a4.49,4.49,0,0,1-1.57-1.9,6.23,6.23,0,0,1-.53-2.58,6.3,6.3,0,0,1,.53-2.58,4.55,4.55,0,0,1,1.57-1.9,4.3,4.3,0,0,1,2.52-.72,4.11,4.11,0,0,1,4.22,2.82l-1.48.58a2.77,2.77,0,0,0-2.74-1.92,2.5,2.5,0,0,0-2.16,1,5.2,5.2,0,0,0,0,5.35,2.48,2.48,0,0,0,2.16,1,2.74,2.74,0,0,0,1.66-.48,3.42,3.42,0,0,0,1.08-1.44l1.48.58A4.21,4.21,0,0,1,480,886a4.55,4.55,0,0,1-2.61.71A4.3,4.3,0,0,1,474.91,886Z"/>
    <path class="cls-3" d="M485.62,886a4.62,4.62,0,0,1-1.7-1.91,5.94,5.94,0,0,1,0-5.16,4.85,4.85,0,0,1,6.83-1.91,4.73,4.73,0,0,1,1.69,1.91,5.94,5.94,0,0,1,0,5.16,4.67,4.67,0,0,1-1.69,1.91,4.56,4.56,0,0,1-2.56.71A4.62,4.62,0,0,1,485.62,886Zm4.26-1.29a3.18,3.18,0,0,0,1.07-1.37,4.6,4.6,0,0,0,.36-1.83,4.67,4.67,0,0,0-.36-1.83,3.3,3.3,0,0,0-1.07-1.37,2.8,2.8,0,0,0-1.69-.52,2.85,2.85,0,0,0-1.69.52,3.41,3.41,0,0,0-1.08,1.37,4.5,4.5,0,0,0-.37,1.83,4.44,4.44,0,0,0,.37,1.83,3.28,3.28,0,0,0,1.08,1.37,2.78,2.78,0,0,0,1.69.52A2.74,2.74,0,0,0,489.88,884.73Z"/>
    <path class="cls-3" d="M496.91,886.06a4.16,4.16,0,0,1-1.52-1.85,7.17,7.17,0,0,1,0-5.36,4.27,4.27,0,0,1,1.52-1.85,4.32,4.32,0,0,1,2.42-.67,4,4,0,0,1,1.74.38,3.54,3.54,0,0,1,1.28,1v-5.34H504v14.16h-1.64v-1.32a3,3,0,0,1-1.22,1,3.75,3.75,0,0,1-1.8.44A4.24,4.24,0,0,1,496.91,886.06Zm4.8-1.83a5,5,0,0,0,0-5.39,2.58,2.58,0,0,0-2.16-1,2.61,2.61,0,0,0-2.17,1,5,5,0,0,0,0,5.38,2.8,2.8,0,0,0,4.33,0Z"/>
    <path class="cls-3" d="M515.51,881.79h-7.42a4.1,4.1,0,0,0,.84,2.5,2.59,2.59,0,0,0,2.12,1,2.89,2.89,0,0,0,1.7-.46,3.84,3.84,0,0,0,1.18-1.5l1.4.6a5.18,5.18,0,0,1-1.75,2.16,4.49,4.49,0,0,1-2.57.68,4.19,4.19,0,0,1-2.46-.71,4.56,4.56,0,0,1-1.59-1.9,6.17,6.17,0,0,1-.55-2.59,6.29,6.29,0,0,1,.55-2.61,4.59,4.59,0,0,1,1.59-1.89,4.34,4.34,0,0,1,2.46-.7,4.48,4.48,0,0,1,2.4.64,4.24,4.24,0,0,1,1.56,1.72,5.29,5.29,0,0,1,.54,2.4Zm-1.68-1.42a3.18,3.18,0,0,0-.9-1.87,2.9,2.9,0,0,0-3.72,0,3.31,3.31,0,0,0-1,1.9Z"/>
  </g>
</svg>
