<svg id="Layer_1" data-name="Layer 1" xmlns="http://www.w3.org/2000/svg" viewBox="0 0 1200 1000">
  <defs>
    <style>
      .cls-1, .cls-9 {
        fill: #f5ffe3;
      }

      .cls-1, .cls-2 {
        stroke: #fff;
      }

      .cls-1, .cls-10, .cls-2, .cls-3, .cls-4, .cls-7, .cls-8, .cls-9 {
        stroke-miterlimit: 10;
      }

      .cls-2, .cls-4 {
        fill: #fff5ff;
      }

      .cls-3, .cls-5 {
        fill: #10162f;
      }

      .cls-10, .cls-12, .cls-13, .cls-3, .cls-4, .cls-6, .cls-7, .cls-8, .cls-9 {
        stroke: #10162f;
      }

      .cls-13, .cls-6, .cls-8 {
        fill: none;
      }

      .cls-12, .cls-6 {
        stroke-linecap: round;
      }

      .cls-12, .cls-13, .cls-6 {
        stroke-linejoin: round;
      }

      .cls-7 {
        fill: #f866ff;
      }

      .cls-10, .cls-12 {
        fill: #fff;
      }

      .cls-11 {
        fill: #008927;
      }
    </style>
  </defs>
  <rect class="cls-1" x="80" y="80" width="1040" height="400"/>
  <path class="cls-2" d="M80,520H1120a0,0,0,0,1,0,0V919.58a.42.42,0,0,1-.42.42H80.42a.42.42,0,0,1-.42-.42V520A0,0,0,0,1,80,520Z"/>
  <g>
    <path class="cls-3" d="M759.6,808.75H691.85a.39.39,0,0,1-.34-.42v-83a.38.38,0,0,1,.34-.41L754,735.19a.38.38,0,0,1,.34.41l5.64,72.73A.39.39,0,0,1,759.6,808.75Z"/>
    <path class="cls-4" d="M762.34,805.5H694.6a.38.38,0,0,1-.35-.41v-83a.39.39,0,0,1,.35-.42h57.73l10.35,15.67v67.72A.38.38,0,0,1,762.34,805.5Z"/>
  </g>
  <g>
    <path class="cls-5" d="M709.23,778.8a8.84,8.84,0,0,1-3-5.85l5.63-1.19a5.53,5.53,0,0,0,1.36,3,3.51,3.51,0,0,0,2.51.92,3.8,3.8,0,0,0,3-1.19c.71-.79,1.06-2.15,1.06-4.09V749.76h5.72v20q0,6-2.51,8.58t-7.3,2.59A9.74,9.74,0,0,1,709.23,778.8Z"/>
    <path class="cls-5" d="M735.77,779.77a10.84,10.84,0,0,1-5.65-7.48l4.61-2.91a10.57,10.57,0,0,0,2.23,4.54,5,5,0,0,0,3.89,1.71,4.45,4.45,0,0,0,2.9-.9,3.36,3.36,0,0,0,1.1-2.75,3,3,0,0,0-.75-2,7.17,7.17,0,0,0-1.87-1.54c-.75-.44-1.81-1-3.19-1.68l-1.27-.61a12.25,12.25,0,0,1-4.22-3.32,8,8,0,0,1-1.59-5.13,8.34,8.34,0,0,1,1.08-4.22,7.56,7.56,0,0,1,3-3,9.06,9.06,0,0,1,4.46-1.08q6.38,0,8.7,5.59l-4.61,2.94c-.76-2.17-2.13-3.25-4.09-3.25a3.23,3.23,0,0,0-2.2.81,2.54,2.54,0,0,0-.92,2,3,3,0,0,0,.81,2.09,7.11,7.11,0,0,0,2,1.54q1.17.64,3.36,1.65a23.66,23.66,0,0,1,3.63,2.07,8,8,0,0,1,3.36,6.86,9.27,9.27,0,0,1-1.25,4.87,8.36,8.36,0,0,1-3.5,3.21,11.19,11.19,0,0,1-5.1,1.12A10.66,10.66,0,0,1,735.77,779.77Z"/>
  </g>
  <g>
    <path class="cls-6" d="M632.48,339.27h43.58"/>
    <path class="cls-6" d="M665.56,349.77l10.5-10.5-10.5-10.5"/>
  </g>
  <g>
    <path class="cls-6" d="M722.12,331.92h43.59"/>
    <path class="cls-6" d="M755.21,342.42l10.5-10.5-10.5-10.5"/>
  </g>
  <g>
    <path class="cls-6" d="M955.57,862.21c-238.83,57.18-548.29,47.71-746.07-19.32"/>
    <path class="cls-6" d="M223.17,837.08l-13.67,5.81,5.81,13.67"/>
  </g>
  <g>
    <path class="cls-6" d="M265.13,781.62h43.58"/>
    <path class="cls-6" d="M298.21,792.12l10.5-10.5-10.5-10.5"/>
  </g>
  <g>
    <path class="cls-6" d="M776.5,763.71h43.59"/>
    <path class="cls-6" d="M809.59,774.21l10.5-10.5-10.5-10.5"/>
  </g>
  <g>
    <path class="cls-5" d="M245.51,732.45a3.24,3.24,0,0,1,2.25.72,2.59,2.59,0,0,1,.81,2,2.51,2.51,0,0,1-2.19,2.68l3.15,5.06h-1.46l-3.13-5h-1.65v5H242v-10.5Zm1.29,3.93a1.44,1.44,0,0,0,.45-1.17c0-1-.6-1.55-1.79-1.55h-2.17v3.09h2.17A2.06,2.06,0,0,0,246.8,736.38Z"/>
    <path class="cls-5" d="M257,739.36h-5.56a3.09,3.09,0,0,0,.63,1.88,1.94,1.94,0,0,0,1.59.72,2.19,2.19,0,0,0,1.27-.35,2.92,2.92,0,0,0,.89-1.12l1.05.45a4,4,0,0,1-1.32,1.62,3.4,3.4,0,0,1-1.93.51,3.23,3.23,0,0,1-1.84-.53,3.4,3.4,0,0,1-1.19-1.43,4.47,4.47,0,0,1-.41-1.94,4.56,4.56,0,0,1,.41-2,3.37,3.37,0,0,1,1.19-1.42,3.23,3.23,0,0,1,1.84-.52,3.33,3.33,0,0,1,1.81.48,3.17,3.17,0,0,1,1.17,1.29,4,4,0,0,1,.4,1.8Zm-1.26-1.06a2.34,2.34,0,0,0-.67-1.4,2.18,2.18,0,0,0-2.79,0,2.52,2.52,0,0,0-.77,1.43Z"/>
    <path class="cls-5" d="M259.14,742.47a2.79,2.79,0,0,1-.94-1.46l1-.55a2.5,2.5,0,0,0,.65,1.11A1.63,1.63,0,0,0,261,742a1.21,1.21,0,0,0,.87-.3,1.08,1.08,0,0,0,.33-.84.92.92,0,0,0-.42-.78,5.1,5.1,0,0,0-1.22-.6,3.77,3.77,0,0,1-1.39-.83,1.82,1.82,0,0,1-.48-1.32,1.86,1.86,0,0,1,.62-1.46,2.28,2.28,0,0,1,1.58-.56,2.41,2.41,0,0,1,2.19,1.18l-.81.72a1.57,1.57,0,0,0-1.39-.79,1,1,0,0,0-.71.25.81.81,0,0,0-.28.66.85.85,0,0,0,.36.7,5.57,5.57,0,0,0,1.31.62c1.24.45,1.85,1.17,1.85,2.16a2.18,2.18,0,0,1-.66,1.68,2.46,2.46,0,0,1-1.75.62A2.85,2.85,0,0,1,259.14,742.47Z"/>
    <path class="cls-5" d="M266.3,735.39v1a2.28,2.28,0,0,1,.87-.76,2.76,2.76,0,0,1,1.33-.33,3.34,3.34,0,0,1,1.85.5,3.15,3.15,0,0,1,1.15,1.39,5.37,5.37,0,0,1,0,4,3.15,3.15,0,0,1-1.15,1.39,3.34,3.34,0,0,1-1.85.5,3,3,0,0,1-1.26-.29,2.36,2.36,0,0,1-.94-.78v4h-1.25V735.39Zm3.71,5.8a3.75,3.75,0,0,0,0-4,2,2,0,0,0-1.63-.77,1.93,1.93,0,0,0-1.62.77,3.27,3.27,0,0,0-.58,2,3.21,3.21,0,0,0,.59,2,1.92,1.92,0,0,0,1.61.77A2,2,0,0,0,270,741.19Z"/>
    <path class="cls-5" d="M275,742.54a3.56,3.56,0,0,1-1.28-1.44,4.47,4.47,0,0,1,0-3.87,3.47,3.47,0,0,1,3.2-2,3.44,3.44,0,0,1,3.19,2,4.47,4.47,0,0,1,0,3.87,3.54,3.54,0,0,1-1.27,1.44,3.74,3.74,0,0,1-3.84,0Zm3.19-1a2.44,2.44,0,0,0,.81-1,3.74,3.74,0,0,0,0-2.74,2.44,2.44,0,0,0-.81-1,2.25,2.25,0,0,0-2.53,0,2.37,2.37,0,0,0-.81,1,3.49,3.49,0,0,0,0,2.74,2.37,2.37,0,0,0,.81,1,2.25,2.25,0,0,0,2.53,0Z"/>
    <path class="cls-5" d="M283.61,735.39v1.45a3,3,0,0,1,1.07-1.14,2.55,2.55,0,0,1,1.43-.43,2.3,2.3,0,0,1,1.7.63,2.4,2.4,0,0,1,.63,1.78V743h-1.23v-5a1.67,1.67,0,0,0-.36-1.17,1.29,1.29,0,0,0-1-.4,1.75,1.75,0,0,0-1.12.4,2.69,2.69,0,0,0-.79,1.17,4.76,4.76,0,0,0-.29,1.77V743h-1.25v-7.56Z"/>
    <path class="cls-5" d="M291.78,742.57a3.19,3.19,0,0,1-1.14-1.39,5.37,5.37,0,0,1,0-4,3.19,3.19,0,0,1,1.14-1.39,3.24,3.24,0,0,1,1.82-.5,2.92,2.92,0,0,1,1.3.28,2.63,2.63,0,0,1,1,.78v-4h1.23V743h-1.23v-1a2.3,2.3,0,0,1-.91.78,2.87,2.87,0,0,1-1.35.33A3.24,3.24,0,0,1,291.78,742.57Zm3.6-1.38a3.23,3.23,0,0,0,.59-2,3.27,3.27,0,0,0-.59-2,1.93,1.93,0,0,0-1.62-.77,2,2,0,0,0-1.63.77,3.75,3.75,0,0,0,0,4,2,2,0,0,0,1.63.77A1.93,1.93,0,0,0,295.38,741.19Z"/>
    <path class="cls-5" d="M302.18,735.39h1.27l1.62,5.89,1.5-5.89h1.19l1.48,5.89,1.63-5.89h1.28L309.83,743h-1.17l-1.5-5.76L305.67,743h-1.18Z"/>
    <path class="cls-5" d="M313.45,733.85a.85.85,0,0,1-.27-.64.84.84,0,0,1,.27-.64.86.86,0,0,1,.63-.26.93.93,0,0,1,.66.26.87.87,0,0,1,.26.64.89.89,0,0,1-.26.65.92.92,0,0,1-.66.25A.82.82,0,0,1,313.45,733.85Zm0,1.54h1.24V743h-1.24Z"/>
    <path class="cls-5" d="M317.87,742.46a2.48,2.48,0,0,1-.59-1.82V736.5H316v-1.11h1.28v-2.27l1.24-.79v3.06h2v1.11h-2v4.23c0,.82.35,1.23,1.06,1.23a1.72,1.72,0,0,0,.87-.21l.31,1a2.86,2.86,0,0,1-1.29.27A2.08,2.08,0,0,1,317.87,742.46Z"/>
    <path class="cls-5" d="M323.33,732.33v4.57a2.68,2.68,0,0,1,1.08-1.2,2.79,2.79,0,0,1,1.51-.43,2.35,2.35,0,0,1,1.73.62,2.41,2.41,0,0,1,.63,1.79V743H327v-5a1.82,1.82,0,0,0-.35-1.19,1.36,1.36,0,0,0-1.07-.41,1.82,1.82,0,0,0-1.14.4,2.67,2.67,0,0,0-.84,1.16,4.71,4.71,0,0,0-.31,1.8V743h-1.25V732.33Z"/>
    <path class="cls-5" d="M263.5,760.53a3.37,3.37,0,0,1-1.18-1.43,4.88,4.88,0,0,1,0-3.87,3.34,3.34,0,0,1,1.18-1.42,3.24,3.24,0,0,1,1.89-.54,3.07,3.07,0,0,1,3.16,2.11l-1.11.44a2.07,2.07,0,0,0-2.05-1.44,1.86,1.86,0,0,0-1.62.78,3.87,3.87,0,0,0,0,4,1.85,1.85,0,0,0,1.62.79,2,2,0,0,0,1.24-.36,2.57,2.57,0,0,0,.81-1.08l1.11.43a3.24,3.24,0,0,1-1.21,1.59,3.46,3.46,0,0,1-1.95.53A3.24,3.24,0,0,1,263.5,760.53Z"/>
    <path class="cls-5" d="M271.53,760.54a3.56,3.56,0,0,1-1.28-1.44,4.47,4.47,0,0,1,0-3.87,3.65,3.65,0,0,1,5.13-1.43,3.49,3.49,0,0,1,1.26,1.43,4.39,4.39,0,0,1,0,3.87,3.62,3.62,0,0,1-5.11,1.44Zm3.19-1a2.37,2.37,0,0,0,.81-1,3.61,3.61,0,0,0,0-2.74,2.37,2.37,0,0,0-.81-1,2.05,2.05,0,0,0-1.26-.39,2.08,2.08,0,0,0-1.27.39,2.37,2.37,0,0,0-.81,1,3.49,3.49,0,0,0,0,2.74,2.37,2.37,0,0,0,.81,1,2.08,2.08,0,0,0,1.27.39A2.05,2.05,0,0,0,274.72,759.57Z"/>
    <path class="cls-5" d="M280.15,753.39v1.45a3.09,3.09,0,0,1,1.07-1.14,2.55,2.55,0,0,1,1.43-.43,2.3,2.3,0,0,1,1.7.63,2.4,2.4,0,0,1,.63,1.78V761h-1.23v-5a1.67,1.67,0,0,0-.36-1.17,1.29,1.29,0,0,0-1-.4,1.75,1.75,0,0,0-1.12.4,2.69,2.69,0,0,0-.79,1.17,5,5,0,0,0-.29,1.77V761H278.9v-7.56Z"/>
    <path class="cls-5" d="M288,760.46a2.52,2.52,0,0,1-.59-1.82V754.5h-1.27v-1.11h1.27v-2.27l1.25-.79v3.06h2v1.11h-2v4.23q0,1.23,1.05,1.23a1.7,1.7,0,0,0,.87-.21l.31,1a2.86,2.86,0,0,1-1.29.27A2.1,2.1,0,0,1,288,760.46Z"/>
    <path class="cls-5" d="M298.42,757.36h-5.57a3.09,3.09,0,0,0,.63,1.88,1.94,1.94,0,0,0,1.59.72,2.2,2.2,0,0,0,1.28-.35,2.9,2.9,0,0,0,.88-1.12l1,.45a4,4,0,0,1-1.31,1.62,3.42,3.42,0,0,1-1.93.51,3.21,3.21,0,0,1-1.84-.53,3.5,3.5,0,0,1-1.2-1.43,4.62,4.62,0,0,1-.41-1.94,4.71,4.71,0,0,1,.41-2,3.47,3.47,0,0,1,1.2-1.42,3.21,3.21,0,0,1,1.84-.52,3.32,3.32,0,0,1,1.8.48A3.17,3.17,0,0,1,298,755a4,4,0,0,1,.41,1.8Zm-1.26-1.06a2.35,2.35,0,0,0-.68-1.4,2.18,2.18,0,0,0-2.79,0,2.51,2.51,0,0,0-.76,1.43Z"/>
    <path class="cls-5" d="M301.49,753.39v1.45a3.17,3.17,0,0,1,1.07-1.14,2.61,2.61,0,0,1,1.44-.43,2.28,2.28,0,0,1,1.69.63,2.4,2.4,0,0,1,.63,1.78V761h-1.23v-5a1.72,1.72,0,0,0-.35-1.17,1.31,1.31,0,0,0-1-.4,1.73,1.73,0,0,0-1.12.4,2.7,2.7,0,0,0-.8,1.17,5,5,0,0,0-.29,1.77V761h-1.24v-7.56Z"/>
    <path class="cls-5" d="M309.35,760.46a2.52,2.52,0,0,1-.58-1.82V754.5h-1.28v-1.11h1.28v-2.27l1.24-.79v3.06h2v1.11h-2v4.23q0,1.23,1.05,1.23a1.7,1.7,0,0,0,.87-.21l.32,1a2.86,2.86,0,0,1-1.29.27A2.12,2.12,0,0,1,309.35,760.46Z"/>
  </g>
  <g>
    <path class="cls-5" d="M150.6,849.35a3.41,3.41,0,0,1-1.19-1,3.51,3.51,0,0,1-.6-1.44l1.08-.68c.37,1.55,1.15,2.33,2.33,2.33a1.74,1.74,0,0,0,1.24-.46,1.76,1.76,0,0,0,.48-1.33,1.63,1.63,0,0,0-.3-1,2.69,2.69,0,0,0-.75-.67c-.3-.18-.73-.4-1.27-.66a5.27,5.27,0,0,1-1.62-1.16,2.49,2.49,0,0,1-.59-1.7,2.53,2.53,0,0,1,.35-1.32,2.44,2.44,0,0,1,.94-.92,2.75,2.75,0,0,1,1.35-.33,2.66,2.66,0,0,1,2.69,1.71l-1.07.68a1.66,1.66,0,0,0-1.62-1.17,1.34,1.34,0,0,0-1,.37,1.22,1.22,0,0,0-.37.9,1.44,1.44,0,0,0,.28.9,2.53,2.53,0,0,0,.71.63,12.45,12.45,0,0,0,1.17.59,5.25,5.25,0,0,1,1.78,1.22,2.64,2.64,0,0,1,.63,1.85,3.13,3.13,0,0,1-.4,1.61,2.8,2.8,0,0,1-1.09,1.07,3.28,3.28,0,0,1-1.57.38A3.46,3.46,0,0,1,150.6,849.35Z"/>
    <path class="cls-5" d="M163.45,846h-5.56a3.06,3.06,0,0,0,.63,1.87,1.94,1.94,0,0,0,1.59.72,2.19,2.19,0,0,0,1.27-.34,3,3,0,0,0,.89-1.13l1,.45a3.91,3.91,0,0,1-1.32,1.62,3.39,3.39,0,0,1-1.92.51,3.24,3.24,0,0,1-1.85-.53,3.4,3.4,0,0,1-1.19-1.43,4.47,4.47,0,0,1-.41-1.94,4.56,4.56,0,0,1,.41-2,3.35,3.35,0,0,1,1.19-1.41,3.24,3.24,0,0,1,1.85-.53,3.32,3.32,0,0,1,1.8.48,3.17,3.17,0,0,1,1.17,1.29,4,4,0,0,1,.4,1.8ZM162.19,845a2.34,2.34,0,0,0-.67-1.4,2,2,0,0,0-1.44-.52,2,2,0,0,0-1.35.5A2.49,2.49,0,0,0,158,845Z"/>
    <path class="cls-5" d="M166.53,842.05v1.31a2.69,2.69,0,0,1,.93-1.06,2.27,2.27,0,0,1,1.29-.37,2.71,2.71,0,0,1,1.06.23l-.25,1.15a2,2,0,0,0-1-.25,1.7,1.7,0,0,0-1.48.94,5.41,5.41,0,0,0-.57,2.76v2.85h-1.25v-7.56Z"/>
    <path class="cls-5" d="M170.53,842.05h1.27l1.91,6,1.89-6h1.27l-2.55,7.56h-1.24Z"/>
    <path class="cls-5" d="M184.43,846h-5.56a3.06,3.06,0,0,0,.63,1.87,1.94,1.94,0,0,0,1.59.72,2.2,2.2,0,0,0,1.28-.34,3,3,0,0,0,.88-1.13l1.05.45a4,4,0,0,1-1.31,1.62,3.45,3.45,0,0,1-1.93.51,3.24,3.24,0,0,1-1.85-.53,3.55,3.55,0,0,1-1.19-1.43,4.62,4.62,0,0,1-.41-1.94,4.71,4.71,0,0,1,.41-2,3.49,3.49,0,0,1,1.19-1.41,3.24,3.24,0,0,1,1.85-.53,3.32,3.32,0,0,1,1.8.48A3.17,3.17,0,0,1,184,843.7a4,4,0,0,1,.4,1.8ZM183.17,845a2.34,2.34,0,0,0-.67-1.4,2,2,0,0,0-1.44-.52,2,2,0,0,0-1.35.5A2.48,2.48,0,0,0,179,845Z"/>
    <path class="cls-5" d="M187.51,842.05v1.31a2.69,2.69,0,0,1,.93-1.06,2.29,2.29,0,0,1,1.29-.37,2.71,2.71,0,0,1,1.06.23l-.25,1.15a2,2,0,0,0-1-.25,1.68,1.68,0,0,0-1.47.94,5.3,5.3,0,0,0-.58,2.76v2.85h-1.25v-7.56Z"/>
  </g>
  <g>
    <path class="cls-5" d="M150.6,402.43a3.31,3.31,0,0,1-1.19-1,3.51,3.51,0,0,1-.6-1.44l1.08-.68c.37,1.55,1.15,2.33,2.33,2.33a1.7,1.7,0,0,0,1.24-.46,1.75,1.75,0,0,0,.48-1.33,1.58,1.58,0,0,0-.3-1,2.58,2.58,0,0,0-.75-.68c-.3-.18-.73-.4-1.27-.66a5.11,5.11,0,0,1-1.62-1.16,2.48,2.48,0,0,1-.59-1.7,2.55,2.55,0,0,1,.35-1.32,2.44,2.44,0,0,1,.94-.92,2.75,2.75,0,0,1,1.35-.33,2.69,2.69,0,0,1,2.69,1.71l-1.07.68a1.66,1.66,0,0,0-1.62-1.17,1.34,1.34,0,0,0-1,.37,1.22,1.22,0,0,0-.37.9,1.44,1.44,0,0,0,.28.9,2.53,2.53,0,0,0,.71.63,12.45,12.45,0,0,0,1.17.59,5.4,5.4,0,0,1,1.78,1.22,2.66,2.66,0,0,1,.63,1.85,3.13,3.13,0,0,1-.4,1.61,2.74,2.74,0,0,1-1.09,1.07,3.17,3.17,0,0,1-1.57.38A3.34,3.34,0,0,1,150.6,402.43Z"/>
    <path class="cls-5" d="M163.45,399.11h-5.56a3.06,3.06,0,0,0,.63,1.87,1.94,1.94,0,0,0,1.59.72,2.19,2.19,0,0,0,1.27-.34,3,3,0,0,0,.89-1.13l1,.45A3.91,3.91,0,0,1,162,402.3a3.39,3.39,0,0,1-1.92.51,3.17,3.17,0,0,1-1.85-.53,3.37,3.37,0,0,1-1.19-1.42,4.55,4.55,0,0,1-.41-1.95,4.48,4.48,0,0,1,.41-2,3.31,3.31,0,0,1,1.19-1.42,3.24,3.24,0,0,1,1.85-.53,3.32,3.32,0,0,1,1.8.48,3.17,3.17,0,0,1,1.17,1.29,4,4,0,0,1,.4,1.8ZM162.19,398a2.37,2.37,0,0,0-.67-1.4,2,2,0,0,0-1.44-.52,2,2,0,0,0-1.35.5A2.49,2.49,0,0,0,158,398Z"/>
    <path class="cls-5" d="M166.53,395.13v1.31a2.76,2.76,0,0,1,.93-1.06,2.35,2.35,0,0,1,1.29-.37,2.9,2.9,0,0,1,1.06.23l-.25,1.15a2,2,0,0,0-1-.25,1.7,1.7,0,0,0-1.48.94,5.41,5.41,0,0,0-.57,2.76v2.85h-1.25v-7.56Z"/>
    <path class="cls-5" d="M170.53,395.13h1.27l1.91,6,1.89-6h1.27l-2.55,7.56h-1.24Z"/>
    <path class="cls-5" d="M184.43,399.11h-5.56a3.06,3.06,0,0,0,.63,1.87,1.94,1.94,0,0,0,1.59.72,2.2,2.2,0,0,0,1.28-.34,3,3,0,0,0,.88-1.13l1.05.45A4,4,0,0,1,183,402.3a3.45,3.45,0,0,1-1.93.51,3.17,3.17,0,0,1-1.85-.53,3.52,3.52,0,0,1-1.19-1.42,4.7,4.7,0,0,1-.41-1.95,4.63,4.63,0,0,1,.41-2,3.46,3.46,0,0,1,1.19-1.42,3.24,3.24,0,0,1,1.85-.53,3.32,3.32,0,0,1,1.8.48,3.17,3.17,0,0,1,1.17,1.29,4,4,0,0,1,.4,1.8ZM183.17,398a2.37,2.37,0,0,0-.67-1.4,2,2,0,0,0-1.44-.52,2,2,0,0,0-1.35.5A2.48,2.48,0,0,0,179,398Z"/>
    <path class="cls-5" d="M187.51,395.13v1.31a2.76,2.76,0,0,1,.93-1.06,2.37,2.37,0,0,1,1.29-.37,2.9,2.9,0,0,1,1.06.23l-.25,1.15a2,2,0,0,0-1-.25,1.68,1.68,0,0,0-1.47.94,5.3,5.3,0,0,0-.58,2.76v2.85h-1.25v-7.56Z"/>
  </g>
  <g>
    <path class="cls-5" d="M1013.44,310.57a3.11,3.11,0,0,1-1.14-1.38,5.37,5.37,0,0,1,0-4,3,3,0,0,1,3-1.89,3,3,0,0,1,1.31.28,2.63,2.63,0,0,1,1,.78v-4h1.23V311h-1.23v-1a2.34,2.34,0,0,1-.92.78,2.87,2.87,0,0,1-1.35.33A3.13,3.13,0,0,1,1013.44,310.57Zm3.6-1.37a3.81,3.81,0,0,0,0-4,1.9,1.9,0,0,0-1.62-.77,1.93,1.93,0,0,0-1.63.77,3.74,3.74,0,0,0,0,4,2.09,2.09,0,0,0,3.25,0Z"/>
    <path class="cls-5" d="M1025.33,303.4h1.26L1022.8,314h-1.22l1.16-3.27L1020,303.4h1.28l2.05,5.59Z"/>
    <path class="cls-5" d="M1029,303.4v1.45a3.2,3.2,0,0,1,1.07-1.15,2.65,2.65,0,0,1,1.43-.42,2.3,2.3,0,0,1,1.7.63,2.4,2.4,0,0,1,.63,1.78V311h-1.23v-5a1.77,1.77,0,0,0-.35-1.18,1.36,1.36,0,0,0-1-.39,1.75,1.75,0,0,0-1.12.4,2.81,2.81,0,0,0-.79,1.16,5.07,5.07,0,0,0-.29,1.78V311h-1.25V303.4Z"/>
    <path class="cls-5" d="M1036.15,310.5a2.17,2.17,0,0,1-.66-1.72,2.14,2.14,0,0,1,.89-1.84,4.17,4.17,0,0,1,2.45-.63h1.32V306a1.53,1.53,0,0,0-.44-1.21,1.69,1.69,0,0,0-1.16-.38,1.61,1.61,0,0,0-1.65,1.23l-1.11-.26a2.26,2.26,0,0,1,.92-1.51,3,3,0,0,1,1.84-.57,2.82,2.82,0,0,1,2,.74,2.74,2.74,0,0,1,.78,2.09V311h-1l-.23-1.1a2.61,2.61,0,0,1-2.35,1.22A2.48,2.48,0,0,1,1036.15,310.5Zm2.89-.78a2.06,2.06,0,0,0,.8-.78,2.59,2.59,0,0,0,.31-1.33v-.24h-1.27a2.82,2.82,0,0,0-1.58.36,1.18,1.18,0,0,0-.52,1,1.12,1.12,0,0,0,.34.88,1.3,1.3,0,0,0,.93.32A2.2,2.2,0,0,0,1039,309.72Z"/>
    <path class="cls-5" d="M1044.7,303.4v1.45a3.25,3.25,0,0,1,1-1.15,2.26,2.26,0,0,1,1.35-.42,2,2,0,0,1,2.07,1.63,3.3,3.3,0,0,1,1-1.18,2.37,2.37,0,0,1,1.38-.45c1.45,0,2.17.81,2.17,2.43V311h-1.23V305.9a1.89,1.89,0,0,0-.28-1.15,1.12,1.12,0,0,0-.93-.36,1.54,1.54,0,0,0-1,.4,2.71,2.71,0,0,0-.74,1.17,5.16,5.16,0,0,0-.28,1.8V311H1048V305.9a1.89,1.89,0,0,0-.28-1.15,1.09,1.09,0,0,0-.93-.36,1.54,1.54,0,0,0-1,.4A2.72,2.72,0,0,0,1045,306a5.62,5.62,0,0,0-.27,1.84V311h-1.25V303.4Z"/>
    <path class="cls-5" d="M1055.9,301.86a.87.87,0,0,1-.27-.64.84.84,0,0,1,.27-.64.86.86,0,0,1,.63-.26.93.93,0,0,1,.66.26.87.87,0,0,1,.26.64.89.89,0,0,1-.26.65.92.92,0,0,1-.66.25A.86.86,0,0,1,1055.9,301.86Zm0,1.54h1.24V311h-1.24Z"/>
    <path class="cls-5" d="M1060.54,310.54a3.37,3.37,0,0,1-1.18-1.43,4.88,4.88,0,0,1,0-3.87,3.34,3.34,0,0,1,1.18-1.42,3.24,3.24,0,0,1,1.89-.54,3.07,3.07,0,0,1,3.16,2.11l-1.11.44a2.07,2.07,0,0,0-2-1.44,1.86,1.86,0,0,0-1.62.78,3.87,3.87,0,0,0,0,4,1.87,1.87,0,0,0,1.62.79,2,2,0,0,0,1.24-.36,2.57,2.57,0,0,0,.81-1.08l1.11.43a3.17,3.17,0,0,1-1.21,1.58,3.39,3.39,0,0,1-2,.54A3.24,3.24,0,0,1,1060.54,310.54Z"/>
    <path class="cls-5" d="M1004.75,331.48a2.15,2.15,0,0,1-.88-1.83,2,2,0,0,1,.2-.9,1.93,1.93,0,0,1,.53-.66,1.38,1.38,0,0,1-.54-1.22,1.47,1.47,0,0,1,.26-.85,1.78,1.78,0,0,1,.67-.57,2.5,2.5,0,0,1-.55-1.64,2.56,2.56,0,0,1,.35-1.33,2.46,2.46,0,0,1,1-.89,2.84,2.84,0,0,1,1.34-.31,2.77,2.77,0,0,1,1.33.34l1.37-.76.54.93-1.07.57a2.47,2.47,0,0,1,.45,1.45,2.54,2.54,0,0,1-.34,1.34,2.33,2.33,0,0,1-1,.89,3,3,0,0,1-2.65,0,.81.81,0,0,0-.53.75.58.58,0,0,0,.24.51,1.08,1.08,0,0,0,.62.16h1.81a2.7,2.7,0,0,1,1.75.52,1.83,1.83,0,0,1,.65,1.54,2.25,2.25,0,0,1-.9,2,3.87,3.87,0,0,1-2.31.65A3.78,3.78,0,0,1,1004.75,331.48Zm3.81-.81a1.19,1.19,0,0,0,.53-1,1,1,0,0,0-.36-.87,1.79,1.79,0,0,0-1-.26h-1.36a6.35,6.35,0,0,1-.78,0,1.3,1.3,0,0,0-.51,1.14,1.22,1.22,0,0,0,.53,1.05,2.55,2.55,0,0,0,1.52.39A2.42,2.42,0,0,0,1008.56,330.67Zm-.45-5.76a1.49,1.49,0,0,0,.41-1.1,1.47,1.47,0,0,0-.41-1.09,1.5,1.5,0,0,0-2.06,0,1.47,1.47,0,0,0-.41,1.09,1.49,1.49,0,0,0,.41,1.1,1.53,1.53,0,0,0,2.06,0Z"/>
    <path class="cls-5" d="M1018.06,325.37h-5.57a3.09,3.09,0,0,0,.63,1.88,1.94,1.94,0,0,0,1.59.72,2.2,2.2,0,0,0,1.28-.35,2.9,2.9,0,0,0,.88-1.12l1,.45a4,4,0,0,1-1.31,1.62,3.42,3.42,0,0,1-1.93.51,3.14,3.14,0,0,1-1.84-.54,3.37,3.37,0,0,1-1.19-1.42,4.74,4.74,0,0,1,0-3.9,3.31,3.31,0,0,1,1.19-1.42,3.21,3.21,0,0,1,1.84-.52,3.32,3.32,0,0,1,1.8.48,3.17,3.17,0,0,1,1.17,1.29,4,4,0,0,1,.41,1.8Zm-1.26-1.06a2.41,2.41,0,0,0-.68-1.41,2,2,0,0,0-1.44-.51,2,2,0,0,0-1.35.49,2.51,2.51,0,0,0-.76,1.43Z"/>
    <path class="cls-5" d="M1021.13,321.4v1.45a3.22,3.22,0,0,1,1.08-1.15,2.62,2.62,0,0,1,1.43-.42,2.28,2.28,0,0,1,1.69.63,2.4,2.4,0,0,1,.63,1.78V329h-1.23v-5a1.72,1.72,0,0,0-.35-1.18,1.32,1.32,0,0,0-1-.39,1.75,1.75,0,0,0-1.12.4,2.71,2.71,0,0,0-.79,1.16,4.84,4.84,0,0,0-.3,1.78V329h-1.24V321.4Z"/>
    <path class="cls-5" d="M1034.6,325.37H1029a3.09,3.09,0,0,0,.63,1.88,1.94,1.94,0,0,0,1.59.72,2.17,2.17,0,0,0,1.27-.35,2.92,2.92,0,0,0,.89-1.12l1,.45a4,4,0,0,1-1.31,1.62,3.45,3.45,0,0,1-1.93.51,3.18,3.18,0,0,1-1.85-.54,3.37,3.37,0,0,1-1.19-1.42,4.84,4.84,0,0,1,0-3.9,3.31,3.31,0,0,1,1.19-1.42,3.24,3.24,0,0,1,1.85-.52,3.32,3.32,0,0,1,1.8.48,3.17,3.17,0,0,1,1.17,1.29,4,4,0,0,1,.4,1.8Zm-1.26-1.06a2.4,2.4,0,0,0-.67-1.41,2,2,0,0,0-1.44-.51,2,2,0,0,0-1.35.49,2.52,2.52,0,0,0-.77,1.43Z"/>
    <path class="cls-5" d="M1037.68,321.4v1.3a2.76,2.76,0,0,1,.93-1.06,2.36,2.36,0,0,1,1.29-.36,2.87,2.87,0,0,1,1.06.22l-.25,1.16a2,2,0,0,0-1-.26,1.72,1.72,0,0,0-1.48,1,5.41,5.41,0,0,0-.57,2.76V329h-1.25V321.4Z"/>
    <path class="cls-5" d="M1042.16,328.5a2.17,2.17,0,0,1-.66-1.72,2.12,2.12,0,0,1,.9-1.84,4.17,4.17,0,0,1,2.45-.63h1.32V324a1.53,1.53,0,0,0-.44-1.21,1.72,1.72,0,0,0-1.17-.38,1.61,1.61,0,0,0-1.65,1.23l-1.11-.26a2.24,2.24,0,0,1,.93-1.51,3,3,0,0,1,1.83-.57,2.85,2.85,0,0,1,2.06.74,2.74,2.74,0,0,1,.78,2.09V329h-1l-.22-1.1a2.62,2.62,0,0,1-2.36,1.22A2.48,2.48,0,0,1,1042.16,328.5Zm2.9-.78a2,2,0,0,0,.79-.78,2.59,2.59,0,0,0,.32-1.33v-.24h-1.28a2.78,2.78,0,0,0-1.57.36,1.19,1.19,0,0,0-.53,1,1.16,1.16,0,0,0,.34.88,1.34,1.34,0,0,0,.94.32A2.2,2.2,0,0,0,1045.06,327.72Z"/>
    <path class="cls-5" d="M1050.38,328.47a2.53,2.53,0,0,1-.58-1.82v-4.14h-1.28V321.4h1.28v-2.27l1.24-.79v3.06h2v1.11h-2v4.23q0,1.23,1,1.23a1.7,1.7,0,0,0,.87-.21l.32,1.05a2.86,2.86,0,0,1-1.29.27A2.16,2.16,0,0,1,1050.38,328.47Z"/>
    <path class="cls-5" d="M1054.74,319.86a.9.9,0,0,1-.26-.64.87.87,0,0,1,.26-.64.93.93,0,0,1,1.29,0,.83.83,0,0,1,.26.64.85.85,0,0,1-.26.65.94.94,0,0,1-1.29,0Zm0,1.54H1056V329h-1.25Z"/>
    <path class="cls-5" d="M1059.52,328.54a3.45,3.45,0,0,1-1.27-1.43,4.47,4.47,0,0,1,0-3.87,3.64,3.64,0,0,1,5.12-1.43,3.52,3.52,0,0,1,1.27,1.43,4.47,4.47,0,0,1,0,3.87,3.52,3.52,0,0,1-1.27,1.43,3.43,3.43,0,0,1-1.92.54A3.48,3.48,0,0,1,1059.52,328.54Zm3.2-1a2.48,2.48,0,0,0,.8-1,3.49,3.49,0,0,0,.27-1.37,3.54,3.54,0,0,0-.27-1.38,2.45,2.45,0,0,0-.8-1,2.26,2.26,0,0,0-2.54,0,2.56,2.56,0,0,0-.81,1,3.54,3.54,0,0,0-.27,1.38,3.49,3.49,0,0,0,.27,1.37,2.59,2.59,0,0,0,.81,1,2.26,2.26,0,0,0,2.54,0Z"/>
    <path class="cls-5" d="M1068.14,321.4v1.45a3.29,3.29,0,0,1,1.07-1.15,2.68,2.68,0,0,1,1.44-.42,2.28,2.28,0,0,1,1.69.63,2.4,2.4,0,0,1,.63,1.78V329h-1.23v-5a1.77,1.77,0,0,0-.35-1.18,1.32,1.32,0,0,0-1-.39,1.73,1.73,0,0,0-1.12.4,2.73,2.73,0,0,0-.8,1.16,5.07,5.07,0,0,0-.29,1.78V329h-1.24V321.4Z"/>
  </g>
  <g>
    <path class="cls-5" d="M587.47,879a3.26,3.26,0,0,1,2.26.72,2.58,2.58,0,0,1,.8,2,2.69,2.69,0,0,1-.57,1.79,2.76,2.76,0,0,1-1.62.9l3.15,5H590l-3.14-5h-1.65v5H584V879Zm1.29,3.93a1.44,1.44,0,0,0,.45-1.17c0-1-.59-1.54-1.78-1.54h-2.18v3.08h2.18A2,2,0,0,0,588.76,882.92Z"/>
    <path class="cls-5" d="M599,885.91h-5.57a3.06,3.06,0,0,0,.63,1.87,1.94,1.94,0,0,0,1.59.72,2.2,2.2,0,0,0,1.28-.34,3,3,0,0,0,.88-1.13l1,.45a3.9,3.9,0,0,1-1.31,1.62,3.42,3.42,0,0,1-1.93.51,3.21,3.21,0,0,1-1.84-.53,3.4,3.4,0,0,1-1.19-1.43,4.48,4.48,0,0,1-.42-1.94,4.57,4.57,0,0,1,.42-2,3.44,3.44,0,0,1,1.19-1.42,3.56,3.56,0,0,1,3.64,0,3.17,3.17,0,0,1,1.17,1.29,4,4,0,0,1,.41,1.8Zm-1.26-1.07a2.35,2.35,0,0,0-.68-1.4,2,2,0,0,0-1.44-.52,2,2,0,0,0-1.35.5,2.48,2.48,0,0,0-.76,1.42Z"/>
    <path class="cls-5" d="M606,888.54a2.42,2.42,0,0,1-.94.79,3,3,0,0,1-1.26.28,3.34,3.34,0,0,1-1.85-.5,3.12,3.12,0,0,1-1.17-1.39,5.37,5.37,0,0,1,0-4,3.12,3.12,0,0,1,1.17-1.39,3.34,3.34,0,0,1,1.85-.5,3,3,0,0,1,1.31.31,2.24,2.24,0,0,1,.89.73v-.92h1.23v10.62H606v-4Zm-.48-.81a3.27,3.27,0,0,0,.59-2,3.23,3.23,0,0,0-.59-2,1.9,1.9,0,0,0-1.62-.77,1.93,1.93,0,0,0-1.62.77,3.7,3.7,0,0,0,0,4,2.09,2.09,0,0,0,3.24,0Z"/>
    <path class="cls-5" d="M610.12,889a2.4,2.4,0,0,1-.63-1.78v-5.27h1.25v5a1.73,1.73,0,0,0,.35,1.18,1.3,1.3,0,0,0,1,.4,1.75,1.75,0,0,0,1.12-.4,2.69,2.69,0,0,0,.81-1.18,5,5,0,0,0,.29-1.78v-3.21h1.23v7.56h-1.23V888a3.17,3.17,0,0,1-1.07,1.14,2.61,2.61,0,0,1-1.45.43A2.3,2.3,0,0,1,610.12,889Z"/>
    <path class="cls-5" d="M624.21,885.91h-5.57a3.06,3.06,0,0,0,.63,1.87,1.94,1.94,0,0,0,1.59.72,2.2,2.2,0,0,0,1.28-.34A3,3,0,0,0,623,887l1.05.45a3.9,3.9,0,0,1-1.31,1.62,3.42,3.42,0,0,1-1.93.51,3.21,3.21,0,0,1-1.84-.53,3.4,3.4,0,0,1-1.19-1.43,4.48,4.48,0,0,1-.42-1.94,4.57,4.57,0,0,1,.42-2,3.44,3.44,0,0,1,1.19-1.42,3.56,3.56,0,0,1,3.64,0,3.17,3.17,0,0,1,1.17,1.29,4,4,0,0,1,.41,1.8ZM623,884.84a2.35,2.35,0,0,0-.68-1.4,2,2,0,0,0-1.44-.52,2,2,0,0,0-1.35.5,2.48,2.48,0,0,0-.76,1.42Z"/>
    <path class="cls-5" d="M626.31,889a2.82,2.82,0,0,1-.95-1.45l1-.56a2.5,2.5,0,0,0,.65,1.11,1.62,1.62,0,0,0,1.13.39,1.24,1.24,0,0,0,.88-.3,1.07,1.07,0,0,0,.32-.84.91.91,0,0,0-.41-.78,5.1,5.1,0,0,0-1.22-.6,3.76,3.76,0,0,1-1.39-.82,1.83,1.83,0,0,1-.49-1.33,1.89,1.89,0,0,1,.63-1.46,2.28,2.28,0,0,1,1.58-.56,2.42,2.42,0,0,1,2.19,1.19l-.81.71a1.6,1.6,0,0,0-1.4-.79,1,1,0,0,0-.7.25.87.87,0,0,0,.08,1.36,5.31,5.31,0,0,0,1.31.63c1.23.45,1.85,1.17,1.85,2.16a2.2,2.2,0,0,1-.66,1.68,2.48,2.48,0,0,1-1.76.61A2.82,2.82,0,0,1,626.31,889Z"/>
    <path class="cls-5" d="M633.15,889a2.52,2.52,0,0,1-.59-1.82V883h-1.27v-1.11h1.27v-2.26l1.25-.8v3.06h2V883h-2v4.23q0,1.23,1.05,1.23a1.7,1.7,0,0,0,.87-.21l.31,1.05a2.86,2.86,0,0,1-1.29.27A2.1,2.1,0,0,1,633.15,889Z"/>
    <path class="cls-5" d="M643.32,889a4.44,4.44,0,0,1-1.74-1.82,6.88,6.88,0,0,1,0-5.88,4.44,4.44,0,0,1,1.74-1.82,4.64,4.64,0,0,1,2.34-.61,4.19,4.19,0,0,1,2.62.81,4.13,4.13,0,0,1,1.47,2.25l-1.23.33a3.18,3.18,0,0,0-1-1.6,2.87,2.87,0,0,0-1.84-.58,3.17,3.17,0,0,0-3,1.9,6.15,6.15,0,0,0,0,4.52,3.13,3.13,0,0,0,3,1.9,2.87,2.87,0,0,0,1.84-.57,3.21,3.21,0,0,0,1-1.61l1.23.33a4.13,4.13,0,0,1-1.47,2.25,4.19,4.19,0,0,1-2.62.81A4.64,4.64,0,0,1,643.32,889Z"/>
    <path class="cls-5" d="M652.87,889.08a3.54,3.54,0,0,1-1.28-1.43,4.45,4.45,0,0,1-.44-1.94,4.37,4.37,0,0,1,.44-1.93,3.55,3.55,0,0,1,6.39,0,4.24,4.24,0,0,1,.44,1.93,4.31,4.31,0,0,1-.44,1.94,3.63,3.63,0,0,1-5.11,1.43Zm3.19-1a2.42,2.42,0,0,0,.8-1,3.61,3.61,0,0,0,0-2.74,2.42,2.42,0,0,0-.8-1,2.08,2.08,0,0,0-1.27-.39,2.05,2.05,0,0,0-1.26.39,2.37,2.37,0,0,0-.81,1,3.49,3.49,0,0,0,0,2.74,2.37,2.37,0,0,0,.81,1,2.05,2.05,0,0,0,1.26.39A2.08,2.08,0,0,0,656.06,888.11Z"/>
    <path class="cls-5" d="M661.48,881.93v1.45a3.26,3.26,0,0,1,1.07-1.14,2.61,2.61,0,0,1,1.44-.43,2.28,2.28,0,0,1,1.69.63,2.43,2.43,0,0,1,.63,1.79v5.26h-1.23v-5a1.75,1.75,0,0,0-.35-1.18,1.29,1.29,0,0,0-1-.4,1.74,1.74,0,0,0-1.12.41,2.67,2.67,0,0,0-.8,1.16,5,5,0,0,0-.29,1.78v3.22h-1.24v-7.56Z"/>
    <path class="cls-5" d="M669.34,889a2.52,2.52,0,0,1-.58-1.82V883h-1.28v-1.11h1.28v-2.26l1.24-.8v3.06h2V883h-2v4.23q0,1.23,1,1.23a1.7,1.7,0,0,0,.87-.21l.32,1.05a2.86,2.86,0,0,1-1.29.27A2.12,2.12,0,0,1,669.34,889Z"/>
    <path class="cls-5" d="M679.75,885.91h-5.56a3.06,3.06,0,0,0,.63,1.87,1.94,1.94,0,0,0,1.59.72,2.16,2.16,0,0,0,1.27-.34,3,3,0,0,0,.89-1.13l1,.45a3.91,3.91,0,0,1-1.32,1.62,3.39,3.39,0,0,1-1.92.51,3.24,3.24,0,0,1-1.85-.53,3.4,3.4,0,0,1-1.19-1.43,4.47,4.47,0,0,1-.41-1.94,4.56,4.56,0,0,1,.41-2,3.44,3.44,0,0,1,1.19-1.42,3.58,3.58,0,0,1,3.65,0,3.17,3.17,0,0,1,1.17,1.29,4,4,0,0,1,.4,1.8Zm-1.26-1.07a2.34,2.34,0,0,0-.67-1.4,2,2,0,0,0-1.44-.52,2,2,0,0,0-1.35.5,2.49,2.49,0,0,0-.77,1.42Z"/>
    <path class="cls-5" d="M682.83,881.93v1.45a3.17,3.17,0,0,1,1.07-1.14,2.55,2.55,0,0,1,1.43-.43,2.3,2.3,0,0,1,1.7.63,2.43,2.43,0,0,1,.63,1.79v5.26h-1.23v-5a1.7,1.7,0,0,0-.36-1.18,1.29,1.29,0,0,0-1-.4,1.76,1.76,0,0,0-1.12.41,2.65,2.65,0,0,0-.79,1.16,4.78,4.78,0,0,0-.29,1.78v3.22h-1.25v-7.56Z"/>
    <path class="cls-5" d="M690.69,889a2.52,2.52,0,0,1-.59-1.82V883h-1.27v-1.11h1.27v-2.26l1.25-.8v3.06h2V883h-2v4.23q0,1.23,1,1.23a1.7,1.7,0,0,0,.87-.21l.31,1.05a2.86,2.86,0,0,1-1.29.27A2.1,2.1,0,0,1,690.69,889Z"/>
  </g>
  <g>
    <g>
      <path class="cls-7" d="M225.57,816.51V792.85H113.68v23.66h.16v0a1.63,1.63,0,0,0-.16.71s0,.09,0,.14,0,.08,0,.13c0,2,2,3.18,5.55,3.8,9,3.14,28.21,5.3,50.39,5.3s41.46-2.17,50.47-5.32c3.51-.64,5.48-1.79,5.48-3.78,0,0,0-.09,0-.13s0-.09,0-.14a1.79,1.79,0,0,0-.16-.71v0Z"/>
      <ellipse class="cls-7" cx="169.62" cy="792.8" rx="55.94" ry="9.37"/>
    </g>
    <g>
      <path class="cls-7" d="M225.57,792.1V768.44H113.68V792.1h.16v0a1.63,1.63,0,0,0-.16.71s0,.09,0,.14,0,.08,0,.13c0,2,2,3.18,5.55,3.81,9,3.13,28.21,5.29,50.39,5.29s41.46-2.17,50.47-5.32c3.51-.64,5.48-1.79,5.48-3.78,0-.05,0-.09,0-.13s0-.09,0-.14a1.79,1.79,0,0,0-.16-.71v0Z"/>
      <ellipse class="cls-7" cx="169.62" cy="768.39" rx="55.94" ry="9.37"/>
    </g>
    <g>
      <path class="cls-7" d="M225.57,767.7V744H113.68V767.7h.16a1.66,1.66,0,0,0-.16.71c0,.05,0,.1,0,.14s0,.09,0,.13c0,2,2,3.18,5.55,3.81,9,3.13,28.21,5.29,50.39,5.29s41.46-2.17,50.47-5.32c3.51-.63,5.48-1.79,5.48-3.78,0,0,0-.09,0-.13s0-.09,0-.14a1.83,1.83,0,0,0-.16-.71h.16Z"/>
      <ellipse class="cls-7" cx="169.62" cy="743.98" rx="55.94" ry="9.37"/>
    </g>
  </g>
  <g>
    <path class="cls-8" d="M373.25,217h212a22.49,22.49,0,0,1,22.49,22.49v0a.32.32,0,0,1-.32.32H351.08a0,0,0,0,1,0,0v-.64A22.18,22.18,0,0,1,373.25,217Z"/>
    <circle class="cls-8" cx="370.61" cy="228.43" r="3.78"/>
    <circle class="cls-8" cx="381.88" cy="228.43" r="3.78"/>
    <circle class="cls-8" cx="393.15" cy="228.43" r="3.78"/>
    <path class="cls-3" d="M347.15,244.6H603.38a.42.42,0,0,1,.42.42V405a.42.42,0,0,1-.42.42H347.15a0,0,0,0,1,0,0V244.6A0,0,0,0,1,347.15,244.6Z"/>
    <path class="cls-9" d="M351.08,239.83H607.31a.42.42,0,0,1,.42.42v160a.42.42,0,0,1-.42.42H351.08a0,0,0,0,1,0,0V239.83A0,0,0,0,1,351.08,239.83Z"/>
    <rect class="cls-10" x="415.54" y="248.49" width="163.31" height="22.01" rx="11"/>
    <path class="cls-6" d="M369.38,253.85l-5.1,5.11,5.1,5.11"/>
    <path class="cls-6" d="M386.82,264.07l5.11-5.11-5.11-5.11"/>
    <g>
      <path class="cls-5" d="M436.49,258.83l.84,3.07.58-4.22h1l-.95,5.7h-1l-.93-3.44-.93,3.44h-1l-.95-5.7h1l.57,4.22.84-3.07Z"/>
      <path class="cls-5" d="M443.32,258.83l.85,3.07.58-4.22h1l-.95,5.7h-1l-.93-3.44-.93,3.44h-1l-.95-5.7h1l.58,4.22.84-3.07Z"/>
      <path class="cls-5" d="M450.16,258.83l.85,3.07.58-4.22h1l-1,5.7h-1l-.93-3.44-.93,3.44h-1l-1-5.7h1l.58,4.22.84-3.07Z"/>
      <path class="cls-5" d="M455.94,263.38v-1.22h1.22v1.22Z"/>
      <path class="cls-5" d="M465.79,259.58h-1a1.35,1.35,0,0,0-1.34-1.19c-.85,0-1.55.73-1.55,2.16s.7,2.17,1.55,2.17a1.42,1.42,0,0,0,1.39-1.17h1a2.37,2.37,0,0,1-2.44,2c-1.58,0-2.52-1.23-2.52-3a2.66,2.66,0,0,1,2.61-3A2.23,2.23,0,0,1,465.79,259.58Z"/>
      <path class="cls-5" d="M470.23,257.59a3,3,0,1,1-2.63,3A2.65,2.65,0,0,1,470.23,257.59Zm0,5.11c.87,0,1.61-.63,1.61-2.15s-.74-2.15-1.61-2.15-1.61.64-1.61,2.15S469.37,262.7,470.23,262.7Z"/>
      <path class="cls-5" d="M478.35,255.7h1v7.68h-1v-.8a1.8,1.8,0,0,1-1.68.94c-1.31,0-2.3-1.08-2.3-3s1-3,2.3-3a1.79,1.79,0,0,1,1.68,1Zm-1.48,2.7c-1,0-1.47.8-1.47,2.15s.5,2.16,1.47,2.16c.82,0,1.53-.66,1.53-2.16S477.69,258.4,476.87,258.4Z"/>
      <path class="cls-5" d="M481.36,260.55c0-1.83,1.08-3,2.58-3,1.67,0,2.62,1.22,2.55,3.25h-4.1c0,1.14.63,1.89,1.53,1.89a1.37,1.37,0,0,0,1.47-1h1a2.34,2.34,0,0,1-2.46,1.84C482.22,263.52,481.36,262.24,481.36,260.55Zm1-.53h3.05a1.46,1.46,0,0,0-1.51-1.64C483,258.38,482.44,258.92,482.4,260Z"/>
      <path class="cls-5" d="M493.14,259.58h-1a1.37,1.37,0,0,0-1.35-1.19c-.84,0-1.54.73-1.54,2.16s.7,2.17,1.54,2.17a1.41,1.41,0,0,0,1.39-1.17h1a2.38,2.38,0,0,1-2.45,2c-1.58,0-2.52-1.23-2.52-3a2.66,2.66,0,0,1,2.62-3A2.21,2.21,0,0,1,493.14,259.58Z"/>
      <path class="cls-5" d="M495.16,261.9c0-1.36,1.44-1.77,3.77-2v-.25a1.12,1.12,0,0,0-1.28-1.28c-.88,0-1.29.43-1.35,1.13h-1a2.19,2.19,0,0,1,2.36-1.91c1.58,0,2.26.7,2.24,2.27v1.39c0,.95,0,1.77.07,2.15H499v-.84a2.08,2.08,0,0,1-2,1A1.67,1.67,0,0,1,495.16,261.9Zm3.85-1.25c-1.74.17-2.8.41-2.8,1.23,0,.54.39.85,1.08.85.87,0,1.72-.41,1.72-1.92Z"/>
      <path class="cls-5" d="M505.71,255.7h1v7.68h-1v-.8a1.83,1.83,0,0,1-1.69.94c-1.31,0-2.29-1.08-2.29-3s1-3,2.29-3a1.81,1.81,0,0,1,1.69,1Zm-1.48,2.7c-1,0-1.48.8-1.48,2.15s.5,2.16,1.48,2.16c.81,0,1.52-.66,1.52-2.16S505,258.4,504.23,258.4Z"/>
      <path class="cls-5" d="M508.71,260.55c0-1.83,1.08-3,2.59-3,1.66,0,2.61,1.22,2.54,3.25h-4.1c0,1.14.64,1.89,1.54,1.89a1.38,1.38,0,0,0,1.47-1h1a2.33,2.33,0,0,1-2.45,1.84C509.57,263.52,508.71,262.24,508.71,260.55Zm1-.53h3a1.46,1.46,0,0,0-1.5-1.64C510.38,258.38,509.79,258.92,509.75,260Z"/>
      <path class="cls-5" d="M519.52,257.59c.6,0,1.18.27,1.18,1.78v4h-1v-3.52c0-.82,0-1.46-.49-1.46s-.64.58-.64,1.75v3.23h-1v-3.52c0-.82,0-1.46-.48-1.46s-.64.59-.64,1.77v3.21h-1v-5.7h.93v.61a1.13,1.13,0,0,1,1-.7.91.91,0,0,1,.89.72A1.23,1.23,0,0,1,519.52,257.59Z"/>
      <path class="cls-5" d="M522.34,265.23v-.83h1c.59,0,.78-.08,1.08-.89l0-.13-2.13-5.7h1.07l1.55,4.4,1.51-4.4h1l-2.11,5.94c-.4,1.13-.72,1.61-1.93,1.61Z"/>
      <path class="cls-5" d="M531.17,263.38v-1.22h1.22v1.22Z"/>
      <path class="cls-5" d="M541,259.58h-1a1.37,1.37,0,0,0-1.35-1.19c-.84,0-1.54.73-1.54,2.16s.7,2.17,1.54,2.17a1.41,1.41,0,0,0,1.39-1.17h1a2.38,2.38,0,0,1-2.45,2c-1.58,0-2.52-1.23-2.52-3a2.66,2.66,0,0,1,2.62-3A2.21,2.21,0,0,1,541,259.58Z"/>
      <path class="cls-5" d="M545.46,257.59a3,3,0,1,1-2.64,3A2.65,2.65,0,0,1,545.46,257.59Zm0,5.11c.87,0,1.61-.63,1.61-2.15s-.74-2.15-1.61-2.15-1.61.64-1.61,2.15S544.59,262.7,545.46,262.7Z"/>
      <path class="cls-5" d="M553.72,257.59c.59,0,1.17.27,1.17,1.78v4h-1v-3.52c0-.82,0-1.46-.49-1.46s-.63.58-.63,1.75v3.23h-1v-3.52c0-.82,0-1.46-.47-1.46s-.65.59-.65,1.77v3.21h-1v-5.7h.93v.61a1.12,1.12,0,0,1,1-.7.9.9,0,0,1,.89.72A1.25,1.25,0,0,1,553.72,257.59Z"/>
    </g>
  </g>
  <g>
    <path class="cls-6" d="M265.13,337.47h43.58"/>
    <path class="cls-6" d="M298.21,348l10.5-10.5L298.21,327"/>
  </g>
  <g>
    <g>
      <g>
        <path class="cls-11" d="M169.62,382.5c-21.27,0-41-2.07-50.22-5.27-3.54-.63-5.22-1.71-5.22-3.33v-.17a1.37,1.37,0,0,1,.1-.61l0-.05V373l.24-.68-.39,0V349.74H225.07V372.4h-.38l.24.67a1.31,1.31,0,0,1,.14.56v.27c0,1.59-1.66,2.67-5.07,3.28C210.72,380.42,191,382.5,169.62,382.5Z"/>
        <path class="cls-5" d="M224.57,350.24V371.9H224l.43,1.27h0l0,.06v0l0,.05a.55.55,0,0,1,.07.3v.05h0v.12a.62.62,0,0,0,0,.13c0,.51-.1,1.94-4.66,2.76l-.07,0-.08,0c-9.16,3.2-28.84,5.27-50.14,5.27s-40.87-2.06-50.06-5.24l-.08,0h-.07c-4.63-.82-4.73-2.27-4.73-2.79,0,0,0-.08,0-.12v-.18h0a.66.66,0,0,1,.07-.3l0-.05v0l0-.06h0l.43-1.27h-.56V350.24H224.57m1-1H113.68V372.9h.16v0a1.63,1.63,0,0,0-.16.71s0,.09,0,.14,0,.08,0,.13c0,2,2,3.18,5.55,3.8,9,3.14,28.21,5.3,50.39,5.3s41.46-2.17,50.47-5.32c3.51-.64,5.48-1.79,5.48-3.78,0,0,0-.09,0-.13s0-.1,0-.14a1.79,1.79,0,0,0-.16-.71v0h.17V349.24Z"/>
      </g>
      <g>
        <path class="cls-11" d="M169.62,358.06c-33.16,0-55.44-4.59-55.44-8.87s22.28-8.87,55.44-8.87,55.45,4.58,55.45,8.87S202.79,358.06,169.62,358.06Z"/>
        <path class="cls-5" d="M169.62,340.82c36.59,0,54.95,5.36,54.95,8.37s-18.36,8.37-54.95,8.37-54.94-5.37-54.94-8.37,18.36-8.37,54.94-8.37m0-1c-30.89,0-55.94,4.19-55.94,9.37s25,9.37,55.94,9.37,55.95-4.2,55.95-9.37-25-9.37-55.95-9.37Z"/>
      </g>
    </g>
    <g>
      <g>
        <path class="cls-11" d="M169.62,358.09c-21.27,0-41-2.07-50.22-5.27-3.54-.63-5.22-1.71-5.22-3.33v-.17a1.39,1.39,0,0,1,.1-.61l0,0v-.06l.24-.68-.39,0V325.33H225.07V348h-.38l.24.67a1.35,1.35,0,0,1,.14.56v.28c0,1.58-1.66,2.66-5.07,3.28C210.72,356,191,358.09,169.62,358.09Z"/>
        <path class="cls-5" d="M224.57,325.83v21.66H224l.43,1.27h0l0,.06v0l0,.05a.57.57,0,0,1,.07.3v0h0v.11a.62.62,0,0,0,0,.13c0,.51-.1,1.94-4.66,2.76l-.07,0-.08,0c-9.16,3.2-28.84,5.27-50.14,5.27s-40.87-2.06-50.06-5.24l-.08,0h-.07c-4.63-.81-4.73-2.27-4.73-2.79,0,0,0-.08,0-.12v-.17h0a.69.69,0,0,1,.07-.3l0,0v-.05l0-.06h0l.43-1.27h-.56V325.83H224.57m1-1H113.68v23.66h.16v0a1.63,1.63,0,0,0-.16.71s0,.09,0,.14,0,.08,0,.13c0,2,2,3.18,5.55,3.81,9,3.13,28.21,5.29,50.39,5.29s41.46-2.17,50.47-5.32c3.51-.64,5.48-1.79,5.48-3.78,0-.05,0-.09,0-.13s0-.09,0-.14a1.79,1.79,0,0,0-.16-.71v0h.17V324.83Z"/>
      </g>
      <g>
        <path class="cls-11" d="M169.62,333.65c-33.16,0-55.44-4.59-55.44-8.87s22.28-8.87,55.44-8.87,55.45,4.59,55.45,8.87S202.79,333.65,169.62,333.65Z"/>
        <path class="cls-5" d="M169.62,316.41c36.59,0,54.95,5.37,54.95,8.37s-18.36,8.37-54.95,8.37-54.94-5.37-54.94-8.37,18.36-8.37,54.94-8.37m0-1c-30.89,0-55.94,4.19-55.94,9.37s25,9.37,55.94,9.37,55.95-4.19,55.95-9.37-25-9.37-55.95-9.37Z"/>
      </g>
    </g>
    <g>
      <g>
        <path class="cls-11" d="M169.62,333.68c-21.27,0-41-2.06-50.22-5.27-3.54-.62-5.22-1.71-5.22-3.33v-.17a1.39,1.39,0,0,1,.1-.61l0-.05v-.06l.24-.67-.39,0V300.92H225.07v22.67h-.38l.24.67a1.31,1.31,0,0,1,.14.55v.28c0,1.59-1.66,2.66-5.07,3.28C210.72,331.6,191,333.68,169.62,333.68Z"/>
        <path class="cls-5" d="M224.57,301.42v21.67H224l.43,1.26h0l0,.06v0l0,.05a.59.59,0,0,1,.07.3v.05h0V325a.57.57,0,0,0,0,.12c0,.51-.1,1.94-4.66,2.77h-.07l-.08,0c-9.16,3.2-28.84,5.26-50.14,5.26s-40.87-2.05-50.06-5.24l-.08,0-.07,0c-4.63-.81-4.73-2.27-4.73-2.79,0,0,0-.08,0-.12v-.17h0a.72.72,0,0,1,.07-.3l0,0v-.05l0-.06h0l.43-1.27h-.56V301.42H224.57m1-1H113.68v23.67h.16a1.66,1.66,0,0,0-.16.71c0,.05,0,.09,0,.14s0,.09,0,.13c0,2,2,3.18,5.55,3.81,9,3.13,28.21,5.29,50.39,5.29s41.46-2.17,50.47-5.32c3.51-.63,5.48-1.79,5.48-3.78,0,0,0-.09,0-.13s0-.09,0-.14a1.83,1.83,0,0,0-.16-.71h.16V300.42Z"/>
      </g>
      <g>
        <path class="cls-11" d="M169.62,309.24c-33.16,0-55.44-4.58-55.44-8.87s22.28-8.87,55.44-8.87,55.45,4.59,55.45,8.87S202.79,309.24,169.62,309.24Z"/>
        <path class="cls-5" d="M169.62,292c36.59,0,54.95,5.37,54.95,8.37s-18.36,8.37-54.95,8.37-54.94-5.36-54.94-8.37S133,292,169.62,292m0-1c-30.89,0-55.94,4.2-55.94,9.37s25,9.37,55.94,9.37,55.95-4.19,55.95-9.37-25-9.37-55.95-9.37Z"/>
      </g>
    </g>
  </g>
  <g>
    <path class="cls-5" d="M382.38,602.88a10.55,10.55,0,0,1-3.7-3.12,11,11,0,0,1-2-4.36l4.62-2.9a10.47,10.47,0,0,0,2.23,4.53,4.93,4.93,0,0,0,3.89,1.72,4.43,4.43,0,0,0,2.9-.9,3.33,3.33,0,0,0,1.1-2.75,3.08,3.08,0,0,0-.74-2,7.55,7.55,0,0,0-1.87-1.54c-.75-.44-1.82-1-3.19-1.67l-1.28-.61a12.16,12.16,0,0,1-4.22-3.33,8,8,0,0,1-1.59-5.12,8.37,8.37,0,0,1,1.08-4.23,7.69,7.69,0,0,1,3-3,9.06,9.06,0,0,1,4.46-1.08q6.38,0,8.71,5.59l-4.62,2.95q-1.14-3.25-4.09-3.26a3.24,3.24,0,0,0-2.2.82,2.54,2.54,0,0,0-.92,2,3,3,0,0,0,.81,2.09,7.3,7.3,0,0,0,2,1.54c.78.43,1.9,1,3.37,1.65a23.8,23.8,0,0,1,3.63,2.07,8,8,0,0,1,3.36,6.86,9.21,9.21,0,0,1-1.25,4.86,8.32,8.32,0,0,1-3.5,3.22,11.35,11.35,0,0,1-5.1,1.12A10.56,10.56,0,0,1,382.38,602.88Z"/>
    <path class="cls-5" d="M421.51,594.35H406.2a6.12,6.12,0,0,0,1.74,3.74,5,5,0,0,0,3.54,1.28,5.44,5.44,0,0,0,3.1-.84,7.47,7.47,0,0,0,2.27-2.6l4.4,1.63a11,11,0,0,1-3.81,4.8,10.87,10.87,0,0,1-6.27,1.67,10.15,10.15,0,0,1-6-1.7,10,10,0,0,1-3.52-4.31,13.75,13.75,0,0,1,0-10.87,9.8,9.8,0,0,1,9.52-6,9.6,9.6,0,0,1,9.24,5.81,12.54,12.54,0,0,1,1.1,5.14ZM415.93,590a6,6,0,0,0-1.57-3,4.26,4.26,0,0,0-3.19-1.19,4.54,4.54,0,0,0-3,1.08,6,6,0,0,0-1.81,3.15Z"/>
    <path class="cls-5" d="M431.9,581.5v3.61a8.83,8.83,0,0,1,2.9-2.93,7,7,0,0,1,3.65-1,9.42,9.42,0,0,1,2.69.44l-1,5.06a4.34,4.34,0,0,0-2.29-.62,5,5,0,0,0-4.27,2.36q-1.67,2.36-1.67,7.41v7.88h-5.46V581.5Z"/>
    <path class="cls-5" d="M443.07,581.5h5.5l4.49,15.44,4.49-15.44h5.5l-7.52,22.18H450.6Z"/>
    <path class="cls-5" d="M485.93,594.35H470.62a6,6,0,0,0,1.74,3.74,5,5,0,0,0,3.54,1.28,5.46,5.46,0,0,0,3.1-.84,7.57,7.57,0,0,0,2.27-2.6l4.4,1.63A10,10,0,0,1,475.59,604a10.16,10.16,0,0,1-6-1.7,10,10,0,0,1-3.52-4.31,13.75,13.75,0,0,1,0-10.87,9.8,9.8,0,0,1,9.53-6,9.82,9.82,0,0,1,5.81,1.65,9.92,9.92,0,0,1,3.43,4.16,12.71,12.71,0,0,1,1.1,5.14ZM480.34,590a5.94,5.94,0,0,0-1.56-3,4.28,4.28,0,0,0-3.19-1.19,4.56,4.56,0,0,0-3,1.08,5.88,5.88,0,0,0-1.8,3.15Z"/>
    <path class="cls-5" d="M496.31,581.5v3.61a8.86,8.86,0,0,1,2.91-2.93,6.93,6.93,0,0,1,3.65-1,9.41,9.41,0,0,1,2.68.44l-1,5.06a4.32,4.32,0,0,0-2.29-.62,5,5,0,0,0-4.26,2.36q-1.68,2.36-1.68,7.41v7.88h-5.45V581.5Z"/>
    <path class="cls-5" d="M509,587.35H525.4v4.75H509Z"/>
    <path class="cls-5" d="M532.81,602.27a8.29,8.29,0,0,1-3.06-4.23l4.36-2.33a6.23,6.23,0,0,0,1.74,2.69,3.94,3.94,0,0,0,2.66,1,2.94,2.94,0,0,0,1.8-.56,1.85,1.85,0,0,0,.75-1.6,2.07,2.07,0,0,0-1.14-1.74,20.48,20.48,0,0,0-3.44-1.6,10.34,10.34,0,0,1-3.89-2.56,5.69,5.69,0,0,1-1.38-4,5.6,5.6,0,0,1,.9-3.12,6.51,6.51,0,0,1,2.48-2.25,7.72,7.72,0,0,1,3.61-.83,8.83,8.83,0,0,1,4.09.94,6.9,6.9,0,0,1,2.86,2.67l-3.25,3a4.12,4.12,0,0,0-3.57-1.94,2.6,2.6,0,0,0-1.52.46,1.45,1.45,0,0,0-.63,1.21,1.88,1.88,0,0,0,.92,1.48,16.5,16.5,0,0,0,3.61,1.65,9.89,9.89,0,0,1,4,2.42,5.36,5.36,0,0,1,1.41,3.83,6.75,6.75,0,0,1-2.11,5.21,7.7,7.7,0,0,1-5.46,2A9.21,9.21,0,0,1,532.81,602.27Z"/>
    <path class="cls-5" d="M551,577.63a3.62,3.62,0,1,1,2.51,1A3.43,3.43,0,0,1,551,577.63Zm-.22,3.87h5.46v22.18h-5.46Z"/>
    <path class="cls-5" d="M563.61,600.93a15,15,0,0,1,0-16.68,8.7,8.7,0,0,1,7.15-3.1,8.6,8.6,0,0,1,3.45.68,6.06,6.06,0,0,1,2.36,1.69v-11H582v31.16h-5.45v-2.29a4.69,4.69,0,0,1-2.09,1.82,7.86,7.86,0,0,1-3.72.82A8.7,8.7,0,0,1,563.61,600.93Zm12-3.35a9.44,9.44,0,0,0,0-10,4.52,4.52,0,0,0-3.67-1.78,4.59,4.59,0,0,0-3.7,1.78,9.29,9.29,0,0,0,0,10,4.56,4.56,0,0,0,3.7,1.81A4.5,4.5,0,0,0,575.62,597.58Z"/>
    <path class="cls-5" d="M607.94,594.35H592.63a6,6,0,0,0,1.74,3.74,5,5,0,0,0,3.54,1.28,5.46,5.46,0,0,0,3.1-.84,7.57,7.57,0,0,0,2.27-2.6l4.4,1.63A10,10,0,0,1,597.6,604a10.16,10.16,0,0,1-6-1.7,10,10,0,0,1-3.52-4.31,13.75,13.75,0,0,1,0-10.87,9.8,9.8,0,0,1,9.53-6,9.82,9.82,0,0,1,5.81,1.65,9.92,9.92,0,0,1,3.43,4.16,12.71,12.71,0,0,1,1.1,5.14ZM602.35,590a5.94,5.94,0,0,0-1.56-3,4.28,4.28,0,0,0-3.19-1.19,4.56,4.56,0,0,0-3,1.08,5.88,5.88,0,0,0-1.8,3.15Z"/>
    <path class="cls-5" d="M635.44,572.88a9.51,9.51,0,0,1,6.93,2.39,8.51,8.51,0,0,1,2.44,6.36,9,9,0,0,1-1.5,5.26,7.63,7.63,0,0,1-4.26,3l8.53,13.78H641.2l-8.27-13.29h-3v13.29h-5.72v-30.8Zm2.68,11.39a4.08,4.08,0,0,0,0-5.28,3.92,3.92,0,0,0-2.64-.83h-5.54v7h5.54A3.87,3.87,0,0,0,638.12,584.27Z"/>
    <path class="cls-5" d="M670.07,594.35H654.75a6.12,6.12,0,0,0,1.74,3.74,5,5,0,0,0,3.54,1.28,5.47,5.47,0,0,0,3.11-.84,7.55,7.55,0,0,0,2.26-2.6l4.4,1.63a11,11,0,0,1-3.8,4.8,10.91,10.91,0,0,1-6.27,1.67,10.16,10.16,0,0,1-6-1.7A10,10,0,0,1,650.2,598a13.75,13.75,0,0,1,0-10.87,9.8,9.8,0,0,1,9.53-6,9.79,9.79,0,0,1,5.8,1.65A10,10,0,0,1,669,587a12.71,12.71,0,0,1,1.1,5.14ZM664.48,590a6.1,6.1,0,0,0-1.56-3,4.28,4.28,0,0,0-3.19-1.19,4.54,4.54,0,0,0-3,1.08,5.88,5.88,0,0,0-1.8,3.15Z"/>
    <path class="cls-5" d="M680.45,581.5v3.56a9.91,9.91,0,0,1,3-2.85,7.22,7.22,0,0,1,3.82-1.06,7,7,0,0,1,5,1.72,6.39,6.39,0,0,1,1.87,5v15.84h-5.45V589.46a3.86,3.86,0,0,0-.86-2.77,3.1,3.1,0,0,0-2.31-.88,3.65,3.65,0,0,0-2.51,1.06,7.45,7.45,0,0,0-1.85,3.1,15,15,0,0,0-.7,4.86v8.85H675V581.5Z"/>
    <path class="cls-5" d="M701.59,600.93a15,15,0,0,1,0-16.68,9.59,9.59,0,0,1,10.61-2.42,6,6,0,0,1,2.35,1.69v-11H720v31.16h-5.46v-2.29a4.69,4.69,0,0,1-2.09,1.82,7.86,7.86,0,0,1-3.72.82A8.7,8.7,0,0,1,701.59,600.93Zm12-3.35a9.44,9.44,0,0,0,0-10,4.5,4.5,0,0,0-3.67-1.78,4.59,4.59,0,0,0-3.7,1.78,9.29,9.29,0,0,0,0,10,4.56,4.56,0,0,0,3.7,1.81A4.49,4.49,0,0,0,713.6,597.58Z"/>
    <path class="cls-5" d="M745.92,594.35H730.61a6,6,0,0,0,1.74,3.74,5,5,0,0,0,3.54,1.28,5.44,5.44,0,0,0,3.1-.84,7.57,7.57,0,0,0,2.27-2.6l4.4,1.63A10,10,0,0,1,735.58,604a10.13,10.13,0,0,1-6-1.7,9.89,9.89,0,0,1-3.52-4.31,13.64,13.64,0,0,1,0-10.87,10,10,0,0,1,3.52-4.31,10.12,10.12,0,0,1,6-1.69,9.82,9.82,0,0,1,5.81,1.65,9.92,9.92,0,0,1,3.43,4.16,12.71,12.71,0,0,1,1.1,5.14ZM740.33,590a5.94,5.94,0,0,0-1.56-3,4.28,4.28,0,0,0-3.19-1.19,4.54,4.54,0,0,0-3,1.08,5.83,5.83,0,0,0-1.81,3.15Z"/>
    <path class="cls-5" d="M756.31,581.5v3.61a8.83,8.83,0,0,1,2.9-2.93,6.93,6.93,0,0,1,3.65-1,9.48,9.48,0,0,1,2.69.44l-1,5.06a4.28,4.28,0,0,0-2.28-.62,5,5,0,0,0-4.27,2.36c-1.12,1.57-1.67,4-1.67,7.41v7.88h-5.46V581.5Z"/>
    <path class="cls-5" d="M769.42,577.63a3.61,3.61,0,1,1,2.5,1A3.39,3.39,0,0,1,769.42,577.63Zm-.22,3.87h5.45v22.18H769.2Z"/>
    <path class="cls-5" d="M786.09,581.5v3.56a10,10,0,0,1,3-2.85,7.25,7.25,0,0,1,3.83-1.06,7,7,0,0,1,4.95,1.72,6.42,6.42,0,0,1,1.87,5v15.84h-5.46V589.46a3.86,3.86,0,0,0-.86-2.77,3.1,3.1,0,0,0-2.31-.88,3.66,3.66,0,0,0-2.51,1.06,7.44,7.44,0,0,0-1.84,3.1,15,15,0,0,0-.71,4.86v8.85h-5.45V581.5Z"/>
    <path class="cls-5" d="M806.44,611.11a6.14,6.14,0,0,1-2.79-5.41,5.73,5.73,0,0,1,1.8-4.4,5.16,5.16,0,0,1-1.14-3.43,5.07,5.07,0,0,1,.73-2.73,5.53,5.53,0,0,1,2-1.93,7,7,0,0,1-1.54-4.58,7.07,7.07,0,0,1,4-6.56,9.26,9.26,0,0,1,4.12-.92,9,9,0,0,1,4.09,1l4.18-2.2,2.16,3.6-3.17,1.59a7,7,0,0,1,.88,3.52,7.19,7.19,0,0,1-1.08,3.94,6.9,6.9,0,0,1-3,2.57,9.5,9.5,0,0,1-4.11.88,10.77,10.77,0,0,1-3.22-.48,1.86,1.86,0,0,0-1,1.67,1.43,1.43,0,0,0,.53,1.21,2.42,2.42,0,0,0,1.54.42H816a8.84,8.84,0,0,1,5.68,1.69,5.85,5.85,0,0,1,2.11,4.82,6.51,6.51,0,0,1-1.43,4.31,8.47,8.47,0,0,1-3.72,2.53,14.69,14.69,0,0,1-4.93.81A12.7,12.7,0,0,1,806.44,611.11Zm10.61-3.34a2.19,2.19,0,0,0,1.25-2.07,1.86,1.86,0,0,0-.92-1.78,5.57,5.57,0,0,0-2.64-.51h-3a16.92,16.92,0,0,1-2.56-.17,3.7,3.7,0,0,0-.48,2,2.6,2.6,0,0,0,1.36,2.36,7,7,0,0,0,3.61.81A7.29,7.29,0,0,0,817.05,607.77Zm-1.23-17a2.89,2.89,0,0,0,.85-2.16,3,3,0,0,0-.85-2.22,3.19,3.19,0,0,0-4.36,0,3,3,0,0,0-.86,2.22,2.9,2.9,0,0,0,.86,2.16,3.28,3.28,0,0,0,4.36,0Z"/>
  </g>
  <g>
    <path class="cls-5" d="M384.62,161.2a13.36,13.36,0,0,1-5.3-5.39,19.39,19.39,0,0,1,0-17.07,13.48,13.48,0,0,1,5.3-5.39,14.85,14.85,0,0,1,7.28-1.83,13.68,13.68,0,0,1,8.34,2.45,11.63,11.63,0,0,1,4.42,6.88l-5.14,1.32a8.87,8.87,0,0,0-2.78-4,7.63,7.63,0,0,0-4.84-1.41,8.56,8.56,0,0,0-4.44,1.17,8.17,8.17,0,0,0-3.15,3.52,15,15,0,0,0,0,11.57,8.11,8.11,0,0,0,3.15,3.52,8.56,8.56,0,0,0,4.44,1.17,7.63,7.63,0,0,0,4.84-1.41,8.87,8.87,0,0,0,2.78-4l5.14,1.32a11.69,11.69,0,0,1-4.42,6.89A13.74,13.74,0,0,1,391.9,163,14.85,14.85,0,0,1,384.62,161.2Z"/>
    <path class="cls-5" d="M409.59,131.52h5.46v31.16h-5.46Z"/>
    <path class="cls-5" d="M421.43,136.63a3.61,3.61,0,1,1,2.5,1A3.4,3.4,0,0,1,421.43,136.63Zm-.22,3.87h5.45v22.18h-5.45Z"/>
    <path class="cls-5" d="M452.49,153.35H437.18a6,6,0,0,0,1.74,3.74,5,5,0,0,0,3.54,1.28,5.44,5.44,0,0,0,3.1-.84,7.57,7.57,0,0,0,2.27-2.6l4.4,1.63A10,10,0,0,1,442.15,163a10.13,10.13,0,0,1-6-1.7,10,10,0,0,1-3.53-4.31,13.75,13.75,0,0,1,0-10.87,9.83,9.83,0,0,1,9.53-6A9.82,9.82,0,0,1,448,141.8a9.92,9.92,0,0,1,3.43,4.16,12.71,12.71,0,0,1,1.1,5.14ZM446.9,149a5.94,5.94,0,0,0-1.56-3,4.28,4.28,0,0,0-3.19-1.19,4.54,4.54,0,0,0-3,1.08,5.83,5.83,0,0,0-1.81,3.15Z"/>
    <path class="cls-5" d="M462.87,140.5v3.56a10,10,0,0,1,3-2.85,7.25,7.25,0,0,1,3.83-1.06,7,7,0,0,1,4.95,1.72,6.42,6.42,0,0,1,1.87,5v15.84H471.1V148.46a3.82,3.82,0,0,0-.86-2.77,3.1,3.1,0,0,0-2.31-.88,3.62,3.62,0,0,0-2.5,1.06,7.35,7.35,0,0,0-1.85,3.1,15,15,0,0,0-.71,4.86v8.85h-5.45V140.5Z"/>
    <path class="cls-5" d="M485.23,161q-2.16-2.07-2.16-6.12v-9.67h-3.43V140.5h3.43V135l5.46-3.44v9h5.85v4.67h-5.85v9.59a4.21,4.21,0,0,0,.72,2.79,2.79,2.79,0,0,0,2.18.82,4.52,4.52,0,0,0,2.11-.53l1.28,4.4a8.66,8.66,0,0,1-3.61.79A8.27,8.27,0,0,1,485.23,161Z"/>
    <path class="cls-5" d="M497.86,146.35h16.41v4.75H497.86Z"/>
    <path class="cls-5" d="M521.68,161.27a8.29,8.29,0,0,1-3.06-4.23l4.36-2.33a6.23,6.23,0,0,0,1.74,2.69,3.94,3.94,0,0,0,2.66,1,2.94,2.94,0,0,0,1.8-.56,1.85,1.85,0,0,0,.75-1.6,2.07,2.07,0,0,0-1.14-1.74,20.48,20.48,0,0,0-3.44-1.6,10.34,10.34,0,0,1-3.89-2.56,5.69,5.69,0,0,1-1.39-4,5.61,5.61,0,0,1,.91-3.12,6.51,6.51,0,0,1,2.48-2.25,7.72,7.72,0,0,1,3.61-.83,8.83,8.83,0,0,1,4.09.94,6.9,6.9,0,0,1,2.86,2.67l-3.25,3a4.12,4.12,0,0,0-3.57-1.94,2.6,2.6,0,0,0-1.52.46,1.45,1.45,0,0,0-.63,1.21A1.88,1.88,0,0,0,526,148a16.5,16.5,0,0,0,3.61,1.65,9.89,9.89,0,0,1,4,2.42,5.36,5.36,0,0,1,1.41,3.83,6.75,6.75,0,0,1-2.11,5.21,7.7,7.7,0,0,1-5.46,2A9.21,9.21,0,0,1,521.68,161.27Z"/>
    <path class="cls-5" d="M539.87,136.63a3.62,3.62,0,1,1,2.51,1A3.43,3.43,0,0,1,539.87,136.63Zm-.22,3.87h5.46v22.18h-5.46Z"/>
    <path class="cls-5" d="M552.48,159.93a15,15,0,0,1,0-16.68,8.7,8.7,0,0,1,7.15-3.1,8.6,8.6,0,0,1,3.45.68,6.06,6.06,0,0,1,2.36,1.69v-11h5.45v31.16h-5.45v-2.29a4.69,4.69,0,0,1-2.09,1.82,7.86,7.86,0,0,1-3.72.82A8.7,8.7,0,0,1,552.48,159.93Zm12-3.35a9.44,9.44,0,0,0,0-10,4.52,4.52,0,0,0-3.67-1.78,4.59,4.59,0,0,0-3.7,1.78,9.29,9.29,0,0,0,0,10,4.56,4.56,0,0,0,3.7,1.81A4.5,4.5,0,0,0,564.49,156.58Z"/>
    <path class="cls-5" d="M596.81,153.35H581.5a6,6,0,0,0,1.74,3.74,5,5,0,0,0,3.54,1.28,5.46,5.46,0,0,0,3.1-.84,7.57,7.57,0,0,0,2.27-2.6l4.4,1.63A10,10,0,0,1,586.47,163a10.16,10.16,0,0,1-6-1.7,10,10,0,0,1-3.52-4.31,13.75,13.75,0,0,1,0-10.87,9.8,9.8,0,0,1,9.53-6,9.82,9.82,0,0,1,5.81,1.65,9.92,9.92,0,0,1,3.43,4.16,12.71,12.71,0,0,1,1.1,5.14ZM591.22,149a5.94,5.94,0,0,0-1.56-3,4.28,4.28,0,0,0-3.19-1.19,4.56,4.56,0,0,0-3,1.08,5.88,5.88,0,0,0-1.8,3.15Z"/>
    <path class="cls-5" d="M624.31,131.88a9.51,9.51,0,0,1,6.93,2.39,8.51,8.51,0,0,1,2.44,6.36,9,9,0,0,1-1.5,5.26,7.63,7.63,0,0,1-4.26,3l8.53,13.78h-6.38l-8.27-13.29h-3v13.29h-5.72v-30.8ZM627,143.27a4.08,4.08,0,0,0,0-5.28,3.92,3.92,0,0,0-2.64-.83h-5.54v7h5.54A3.87,3.87,0,0,0,627,143.27Z"/>
    <path class="cls-5" d="M658.94,153.35H643.62a6.12,6.12,0,0,0,1.74,3.74,5,5,0,0,0,3.54,1.28,5.47,5.47,0,0,0,3.11-.84,7.55,7.55,0,0,0,2.26-2.6l4.4,1.63a11,11,0,0,1-3.8,4.8A10.91,10.91,0,0,1,648.6,163a10.16,10.16,0,0,1-6-1.7,10,10,0,0,1-3.52-4.31,13.75,13.75,0,0,1,0-10.87,9.8,9.8,0,0,1,9.53-6,9.79,9.79,0,0,1,5.8,1.65,10,10,0,0,1,3.44,4.16,12.71,12.71,0,0,1,1.1,5.14ZM653.35,149a6.1,6.1,0,0,0-1.56-3,4.28,4.28,0,0,0-3.19-1.19,4.54,4.54,0,0,0-3,1.08,5.88,5.88,0,0,0-1.8,3.15Z"/>
    <path class="cls-5" d="M669.32,140.5v3.56a9.91,9.91,0,0,1,3-2.85,7.22,7.22,0,0,1,3.82-1.06,7,7,0,0,1,5,1.72,6.39,6.39,0,0,1,1.87,5v15.84h-5.45V148.46a3.86,3.86,0,0,0-.86-2.77,3.1,3.1,0,0,0-2.31-.88,3.65,3.65,0,0,0-2.51,1.06A7.45,7.45,0,0,0,670,149a15,15,0,0,0-.7,4.86v8.85h-5.46V140.5Z"/>
    <path class="cls-5" d="M690.46,159.93a15,15,0,0,1,0-16.68,9.59,9.59,0,0,1,10.61-2.42,6,6,0,0,1,2.35,1.69v-11h5.46v31.16h-5.46v-2.29a4.69,4.69,0,0,1-2.09,1.82,7.86,7.86,0,0,1-3.72.82A8.7,8.7,0,0,1,690.46,159.93Zm12-3.35a9.44,9.44,0,0,0,0-10,4.5,4.5,0,0,0-3.67-1.78,4.59,4.59,0,0,0-3.7,1.78,9.29,9.29,0,0,0,0,10,4.56,4.56,0,0,0,3.7,1.81A4.49,4.49,0,0,0,702.47,156.58Z"/>
    <path class="cls-5" d="M734.79,153.35H719.48a6,6,0,0,0,1.74,3.74,5,5,0,0,0,3.54,1.28,5.44,5.44,0,0,0,3.1-.84,7.57,7.57,0,0,0,2.27-2.6l4.4,1.63A10,10,0,0,1,724.45,163a10.13,10.13,0,0,1-6-1.7,10,10,0,0,1-3.53-4.31,13.75,13.75,0,0,1,0-10.87,9.83,9.83,0,0,1,9.53-6,9.82,9.82,0,0,1,5.81,1.65,9.92,9.92,0,0,1,3.43,4.16,12.71,12.71,0,0,1,1.1,5.14ZM729.2,149a5.94,5.94,0,0,0-1.56-3,4.28,4.28,0,0,0-3.19-1.19,4.58,4.58,0,0,0-3,1.08,5.88,5.88,0,0,0-1.8,3.15Z"/>
    <path class="cls-5" d="M745.17,140.5v3.61a8.86,8.86,0,0,1,2.91-2.93,6.93,6.93,0,0,1,3.65-1,9.36,9.36,0,0,1,2.68.44l-1,5.06a4.32,4.32,0,0,0-2.29-.62,5,5,0,0,0-4.26,2.36q-1.68,2.36-1.68,7.41v7.88h-5.45V140.5Z"/>
    <path class="cls-5" d="M758.29,136.63a3.61,3.61,0,1,1,2.5,1A3.4,3.4,0,0,1,758.29,136.63Zm-.22,3.87h5.45v22.18h-5.45Z"/>
    <path class="cls-5" d="M775,140.5v3.56a10,10,0,0,1,3-2.85,7.25,7.25,0,0,1,3.83-1.06,7,7,0,0,1,4.95,1.72,6.42,6.42,0,0,1,1.87,5v15.84h-5.46V148.46a3.86,3.86,0,0,0-.86-2.77,3.1,3.1,0,0,0-2.31-.88,3.66,3.66,0,0,0-2.51,1.06,7.44,7.44,0,0,0-1.84,3.1,15,15,0,0,0-.71,4.86v8.85h-5.45V140.5Z"/>
    <path class="cls-5" d="M795.31,170.11a6.14,6.14,0,0,1-2.79-5.41,5.73,5.73,0,0,1,1.8-4.4,5.16,5.16,0,0,1-1.14-3.43,5.07,5.07,0,0,1,.73-2.73,5.53,5.53,0,0,1,2-1.93,7,7,0,0,1-1.54-4.58,7.07,7.07,0,0,1,4-6.56,9.26,9.26,0,0,1,4.12-.92,9,9,0,0,1,4.09,1l4.18-2.2,2.16,3.6-3.17,1.59a7,7,0,0,1,.88,3.52,7.19,7.19,0,0,1-1.08,3.94,6.9,6.9,0,0,1-3,2.57,9.5,9.5,0,0,1-4.11.88,10.77,10.77,0,0,1-3.22-.48,1.86,1.86,0,0,0-1,1.67,1.43,1.43,0,0,0,.53,1.21,2.42,2.42,0,0,0,1.54.42h4.53a8.84,8.84,0,0,1,5.68,1.69,5.85,5.85,0,0,1,2.11,4.82,6.51,6.51,0,0,1-1.43,4.31,8.47,8.47,0,0,1-3.72,2.53,14.69,14.69,0,0,1-4.93.81A12.7,12.7,0,0,1,795.31,170.11Zm10.61-3.34a2.19,2.19,0,0,0,1.25-2.07,1.86,1.86,0,0,0-.92-1.78,5.57,5.57,0,0,0-2.64-.51h-3a16.92,16.92,0,0,1-2.56-.17,3.7,3.7,0,0,0-.48,2,2.6,2.6,0,0,0,1.36,2.36,7,7,0,0,0,3.61.81A7.29,7.29,0,0,0,805.92,166.77Zm-1.23-17a2.89,2.89,0,0,0,.85-2.16,3,3,0,0,0-.85-2.22,3.19,3.19,0,0,0-4.36,0,3,3,0,0,0-.86,2.22,2.9,2.9,0,0,0,.86,2.16,3.28,3.28,0,0,0,4.36,0Z"/>
  </g>
  <g>
    <g>
      <path class="cls-8" d="M373.25,661.18h212a22.49,22.49,0,0,1,22.49,22.49v0a.32.32,0,0,1-.32.32H351.08a0,0,0,0,1,0,0v-.64A22.18,22.18,0,0,1,373.25,661.18Z"/>
      <circle class="cls-8" cx="370.61" cy="672.58" r="3.78"/>
      <circle class="cls-8" cx="381.88" cy="672.58" r="3.78"/>
      <circle class="cls-8" cx="393.15" cy="672.58" r="3.78"/>
      <path class="cls-3" d="M347.15,688.75H603.38a.42.42,0,0,1,.42.42v160a.42.42,0,0,1-.42.42H347.15a0,0,0,0,1,0,0V688.75A0,0,0,0,1,347.15,688.75Z"/>
      <path class="cls-4" d="M351.08,684H607.31a.42.42,0,0,1,.42.42v160a.42.42,0,0,1-.42.42H351.08a0,0,0,0,1,0,0V684A0,0,0,0,1,351.08,684Z"/>
      <rect class="cls-10" x="415.54" y="692.64" width="163.31" height="22.01" rx="11"/>
      <path class="cls-6" d="M369.38,698l-5.1,5.1,5.1,5.11"/>
      <path class="cls-6" d="M386.82,708.22l5.11-5.11-5.11-5.1"/>
      <g>
        <path class="cls-5" d="M436.49,703l.84,3.07.58-4.21h1l-.95,5.7h-1l-.93-3.45-.93,3.45h-1l-.95-5.7h1l.57,4.21.84-3.07Z"/>
        <path class="cls-5" d="M443.32,703l.85,3.07.58-4.21h1l-.95,5.7h-1l-.93-3.45-.93,3.45h-1l-.95-5.7h1l.58,4.21.84-3.07Z"/>
        <path class="cls-5" d="M450.16,703l.85,3.07.58-4.21h1l-1,5.7h-1l-.93-3.45-.93,3.45h-1l-1-5.7h1l.58,4.21.84-3.07Z"/>
        <path class="cls-5" d="M455.94,707.54v-1.22h1.22v1.22Z"/>
        <path class="cls-5" d="M465.79,703.73h-1a1.34,1.34,0,0,0-1.34-1.18c-.85,0-1.55.73-1.55,2.16s.7,2.17,1.55,2.17a1.41,1.41,0,0,0,1.39-1.18h1a2.36,2.36,0,0,1-2.44,2c-1.58,0-2.52-1.23-2.52-3s1-3,2.61-3A2.24,2.24,0,0,1,465.79,703.73Z"/>
        <path class="cls-5" d="M470.23,701.74a3,3,0,1,1-2.63,3A2.65,2.65,0,0,1,470.23,701.74Zm0,5.12c.87,0,1.61-.64,1.61-2.15s-.74-2.15-1.61-2.15-1.61.63-1.61,2.15S469.37,706.86,470.23,706.86Z"/>
        <path class="cls-5" d="M478.35,699.86h1v7.68h-1v-.81a1.8,1.8,0,0,1-1.68.94c-1.31,0-2.3-1.08-2.3-3s1-3,2.3-3a1.79,1.79,0,0,1,1.68,1Zm-1.48,2.7c-1,0-1.47.79-1.47,2.15s.5,2.16,1.47,2.16c.82,0,1.53-.67,1.53-2.16S477.69,702.56,476.87,702.56Z"/>
        <path class="cls-5" d="M481.36,704.71c0-1.83,1.08-3,2.58-3,1.67,0,2.62,1.22,2.55,3.25h-4.1c0,1.15.63,1.9,1.53,1.9a1.37,1.37,0,0,0,1.47-1h1a2.34,2.34,0,0,1-2.46,1.84C482.22,707.67,481.36,706.39,481.36,704.71Zm1-.53h3.05a1.46,1.46,0,0,0-1.51-1.64C483,702.54,482.44,703.08,482.4,704.18Z"/>
        <path class="cls-5" d="M493.14,703.73h-1a1.36,1.36,0,0,0-1.35-1.18c-.84,0-1.54.73-1.54,2.16s.7,2.17,1.54,2.17a1.41,1.41,0,0,0,1.39-1.18h1a2.37,2.37,0,0,1-2.45,2c-1.58,0-2.52-1.23-2.52-3a2.67,2.67,0,0,1,2.62-3A2.22,2.22,0,0,1,493.14,703.73Z"/>
        <path class="cls-5" d="M495.16,706.05c0-1.35,1.44-1.77,3.77-2v-.24a1.13,1.13,0,0,0-1.28-1.29,1.17,1.17,0,0,0-1.35,1.14h-1a2.19,2.19,0,0,1,2.36-1.92c1.58,0,2.26.7,2.24,2.28v1.39c0,1,0,1.76.07,2.15H499v-.84a2.09,2.09,0,0,1-2,1A1.67,1.67,0,0,1,495.16,706.05ZM499,704.8c-1.74.17-2.8.42-2.8,1.23,0,.54.39.86,1.08.86.87,0,1.72-.41,1.72-1.93Z"/>
        <path class="cls-5" d="M505.71,699.86h1v7.68h-1v-.81a1.83,1.83,0,0,1-1.69.94c-1.31,0-2.29-1.08-2.29-3s1-3,2.29-3a1.82,1.82,0,0,1,1.69,1Zm-1.48,2.7c-1,0-1.48.79-1.48,2.15s.5,2.16,1.48,2.16c.81,0,1.52-.67,1.52-2.16S505,702.56,504.23,702.56Z"/>
        <path class="cls-5" d="M508.71,704.71c0-1.83,1.08-3,2.59-3,1.66,0,2.61,1.22,2.54,3.25h-4.1c0,1.15.64,1.9,1.54,1.9a1.37,1.37,0,0,0,1.47-1h1a2.33,2.33,0,0,1-2.45,1.84C509.57,707.67,508.71,706.39,508.71,704.71Zm1-.53h3a1.46,1.46,0,0,0-1.5-1.64C510.38,702.54,509.79,703.08,509.75,704.18Z"/>
        <path class="cls-5" d="M519.52,701.74c.6,0,1.18.28,1.18,1.78v4h-1V704c0-.83,0-1.46-.49-1.46s-.64.57-.64,1.75v3.23h-1V704c0-.83,0-1.46-.48-1.46s-.64.58-.64,1.77v3.21h-1v-5.7h.93v.6a1.13,1.13,0,0,1,1-.7.91.91,0,0,1,.89.72A1.25,1.25,0,0,1,519.52,701.74Z"/>
        <path class="cls-5" d="M522.34,709.39v-.84h1c.59,0,.78-.07,1.08-.89l0-.12-2.13-5.7h1.07l1.55,4.39,1.51-4.39h1l-2.11,5.94c-.4,1.12-.72,1.61-1.93,1.61Z"/>
        <path class="cls-5" d="M531.17,707.54v-1.22h1.22v1.22Z"/>
        <path class="cls-5" d="M541,703.73h-1a1.36,1.36,0,0,0-1.35-1.18c-.84,0-1.54.73-1.54,2.16s.7,2.17,1.54,2.17a1.41,1.41,0,0,0,1.39-1.18h1a2.37,2.37,0,0,1-2.45,2c-1.58,0-2.52-1.23-2.52-3a2.67,2.67,0,0,1,2.62-3A2.22,2.22,0,0,1,541,703.73Z"/>
        <path class="cls-5" d="M545.46,701.74a3,3,0,1,1-2.64,3A2.66,2.66,0,0,1,545.46,701.74Zm0,5.12c.87,0,1.61-.64,1.61-2.15s-.74-2.15-1.61-2.15-1.61.63-1.61,2.15S544.59,706.86,545.46,706.86Z"/>
        <path class="cls-5" d="M553.72,701.74c.59,0,1.17.28,1.17,1.78v4h-1V704c0-.83,0-1.46-.49-1.46s-.63.57-.63,1.75v3.23h-1V704c0-.83,0-1.46-.47-1.46s-.65.58-.65,1.77v3.21h-1v-5.7h.93v.6a1.12,1.12,0,0,1,1-.7.9.9,0,0,1,.89.72A1.27,1.27,0,0,1,553.72,701.74Z"/>
      </g>
    </g>
    <g>
      <path class="cls-6" d="M627.23,763.71h43.58"/>
      <path class="cls-6" d="M660.31,774.21l10.5-10.5-10.5-10.5"/>
    </g>
    <rect class="cls-7" x="378.15" y="732.61" width="74" height="84"/>
    <rect class="cls-7" x="479.15" y="743.11" width="95" height="16"/>
    <rect class="cls-7" x="479.15" y="768.61" width="95" height="8"/>
    <rect class="cls-7" x="479.15" y="784.61" width="95" height="8"/>
    <rect class="cls-7" x="479.15" y="800.61" width="43" height="8"/>
  </g>
  <g>
    <path class="cls-8" d="M732.73,217h212a22.49,22.49,0,0,1,22.49,22.49v0a.32.32,0,0,1-.32.32H710.56a0,0,0,0,1,0,0v-.64A22.18,22.18,0,0,1,732.73,217Z"/>
    <circle class="cls-8" cx="730.09" cy="228.43" r="3.78"/>
    <circle class="cls-8" cx="741.36" cy="228.43" r="3.78"/>
    <circle class="cls-8" cx="752.63" cy="228.43" r="3.78"/>
    <path class="cls-3" d="M706.63,244.6H962.86a.42.42,0,0,1,.42.42V405a.42.42,0,0,1-.42.42H706.63a0,0,0,0,1,0,0V244.6A0,0,0,0,1,706.63,244.6Z"/>
    <path class="cls-9" d="M710.56,239.83H966.79a.42.42,0,0,1,.42.42v160a.42.42,0,0,1-.42.42H710.56a0,0,0,0,1,0,0V239.83A0,0,0,0,1,710.56,239.83Z"/>
    <rect class="cls-10" x="775.02" y="248.49" width="163.31" height="22.01" rx="11"/>
    <path class="cls-6" d="M728.86,253.85l-5.1,5.11,5.1,5.11"/>
    <path class="cls-6" d="M746.3,264.07l5.11-5.11-5.11-5.11"/>
    <g>
      <path class="cls-5" d="M796,258.83l.84,3.07.59-4.22h1l-1,5.7h-1l-.93-3.44-.93,3.44h-1l-1-5.7h1l.57,4.22.84-3.07Z"/>
      <path class="cls-5" d="M802.8,258.83l.85,3.07.58-4.22h1l-1,5.7h-1l-.93-3.44-.93,3.44h-1l-.95-5.7h1l.58,4.22.84-3.07Z"/>
      <path class="cls-5" d="M809.64,258.83l.85,3.07.58-4.22h1l-1,5.7h-1l-.93-3.44-.93,3.44h-1l-.95-5.7h1l.58,4.22.84-3.07Z"/>
      <path class="cls-5" d="M815.42,263.38v-1.22h1.22v1.22Z"/>
      <path class="cls-5" d="M825.27,259.58h-1a1.35,1.35,0,0,0-1.34-1.19c-.85,0-1.55.73-1.55,2.16s.7,2.17,1.55,2.17a1.42,1.42,0,0,0,1.39-1.17h1a2.37,2.37,0,0,1-2.44,2c-1.58,0-2.52-1.23-2.52-3a2.66,2.66,0,0,1,2.61-3A2.23,2.23,0,0,1,825.27,259.58Z"/>
      <path class="cls-5" d="M829.71,257.59a3,3,0,1,1-2.63,3A2.65,2.65,0,0,1,829.71,257.59Zm0,5.11c.87,0,1.61-.63,1.61-2.15s-.74-2.15-1.61-2.15-1.61.64-1.61,2.15S828.85,262.7,829.71,262.7Z"/>
      <path class="cls-5" d="M837.83,255.7h1v7.68h-1v-.8a1.8,1.8,0,0,1-1.68.94c-1.31,0-2.3-1.08-2.3-3s1-3,2.3-3a1.79,1.79,0,0,1,1.68,1Zm-1.48,2.7c-1,0-1.47.8-1.47,2.15s.5,2.16,1.47,2.16c.82,0,1.53-.66,1.53-2.16S837.17,258.4,836.35,258.4Z"/>
      <path class="cls-5" d="M840.84,260.55c0-1.83,1.08-3,2.58-3,1.67,0,2.62,1.22,2.55,3.25h-4.1c0,1.14.63,1.89,1.53,1.89a1.37,1.37,0,0,0,1.47-1h1a2.34,2.34,0,0,1-2.46,1.84C841.7,263.52,840.84,262.24,840.84,260.55Zm1-.53h3a1.46,1.46,0,0,0-1.51-1.64C842.5,258.38,841.92,258.92,841.88,260Z"/>
      <path class="cls-5" d="M852.62,259.58h-1a1.37,1.37,0,0,0-1.35-1.19c-.84,0-1.54.73-1.54,2.16s.7,2.17,1.54,2.17a1.41,1.41,0,0,0,1.39-1.17h1a2.38,2.38,0,0,1-2.45,2c-1.58,0-2.52-1.23-2.52-3a2.66,2.66,0,0,1,2.62-3A2.21,2.21,0,0,1,852.62,259.58Z"/>
      <path class="cls-5" d="M854.64,261.9c0-1.36,1.44-1.77,3.77-2v-.25a1.12,1.12,0,0,0-1.28-1.28c-.88,0-1.29.43-1.35,1.13h-1a2.19,2.19,0,0,1,2.36-1.91c1.58,0,2.26.7,2.24,2.27v1.39c0,.95,0,1.77.07,2.15h-.93v-.84a2.08,2.08,0,0,1-2,1A1.67,1.67,0,0,1,854.64,261.9Zm3.85-1.25c-1.74.17-2.8.41-2.8,1.23,0,.54.39.85,1.08.85.87,0,1.72-.41,1.72-1.92Z"/>
      <path class="cls-5" d="M865.19,255.7h1v7.68h-1v-.8a1.83,1.83,0,0,1-1.69.94c-1.31,0-2.29-1.08-2.29-3s1-3,2.29-3a1.81,1.81,0,0,1,1.69,1Zm-1.48,2.7c-1,0-1.48.8-1.48,2.15s.5,2.16,1.48,2.16c.81,0,1.52-.66,1.52-2.16S864.52,258.4,863.71,258.4Z"/>
      <path class="cls-5" d="M868.19,260.55c0-1.83,1.08-3,2.59-3,1.66,0,2.61,1.22,2.54,3.25h-4.1c0,1.14.64,1.89,1.54,1.89a1.38,1.38,0,0,0,1.47-1h1a2.35,2.35,0,0,1-2.46,1.84C869.05,263.52,868.19,262.24,868.19,260.55Zm1-.53h3a1.46,1.46,0,0,0-1.5-1.64C869.86,258.38,869.27,258.92,869.23,260Z"/>
      <path class="cls-5" d="M879,257.59c.6,0,1.18.27,1.18,1.78v4h-1v-3.52c0-.82,0-1.46-.49-1.46s-.64.58-.64,1.75v3.23h-1v-3.52c0-.82,0-1.46-.48-1.46s-.64.59-.64,1.77v3.21h-1v-5.7h.93v.61a1.13,1.13,0,0,1,1-.7.91.91,0,0,1,.89.72A1.25,1.25,0,0,1,879,257.59Z"/>
      <path class="cls-5" d="M881.82,265.23v-.83h1c.59,0,.78-.08,1.08-.89l0-.13-2.13-5.7h1.07l1.55,4.4,1.51-4.4h1l-2.11,5.94c-.4,1.13-.72,1.61-1.93,1.61Z"/>
      <path class="cls-5" d="M890.65,263.38v-1.22h1.22v1.22Z"/>
      <path class="cls-5" d="M900.49,259.58h-1a1.37,1.37,0,0,0-1.35-1.19c-.84,0-1.54.73-1.54,2.16s.7,2.17,1.54,2.17a1.41,1.41,0,0,0,1.39-1.17h1a2.38,2.38,0,0,1-2.45,2c-1.58,0-2.52-1.23-2.52-3a2.66,2.66,0,0,1,2.62-3A2.21,2.21,0,0,1,900.49,259.58Z"/>
      <path class="cls-5" d="M904.94,257.59a3,3,0,1,1-2.64,3A2.65,2.65,0,0,1,904.94,257.59Zm0,5.11c.87,0,1.61-.63,1.61-2.15s-.74-2.15-1.61-2.15-1.61.64-1.61,2.15S904.07,262.7,904.94,262.7Z"/>
      <path class="cls-5" d="M913.2,257.59c.59,0,1.17.27,1.17,1.78v4h-1v-3.52c0-.82,0-1.46-.49-1.46s-.63.58-.63,1.75v3.23h-1v-3.52c0-.82,0-1.46-.47-1.46s-.65.59-.65,1.77v3.21h-1v-5.7h.93v.61a1.12,1.12,0,0,1,1-.7.9.9,0,0,1,.89.72A1.25,1.25,0,0,1,913.2,257.59Z"/>
    </g>
  </g>
  <g>
    <rect class="cls-11" x="741.13" y="288.96" width="73" height="83"/>
    <path class="cls-5" d="M813.63,289.46v82h-72v-82h72m1-1h-74v84h74v-84Z"/>
  </g>
  <g>
    <rect class="cls-11" x="842.13" y="299.46" width="94" height="15"/>
    <path class="cls-5" d="M935.63,300v14h-93V300h93m1-1h-95v16h95V299Z"/>
  </g>
  <g>
    <rect class="cls-11" x="842.13" y="324.96" width="94" height="7"/>
    <path class="cls-5" d="M935.63,325.46v6h-93v-6h93m1-1h-95v8h95v-8Z"/>
  </g>
  <g>
    <rect class="cls-11" x="842.13" y="340.96" width="94" height="7"/>
    <path class="cls-5" d="M935.63,341.46v6h-93v-6h93m1-1h-95v8h95v-8Z"/>
  </g>
  <g>
    <rect class="cls-11" x="842.13" y="356.96" width="42" height="7"/>
    <path class="cls-5" d="M883.63,357.46v6h-41v-6h41m1-1h-43v8h43v-8Z"/>
  </g>
  <g>
    <path class="cls-6" d="M501.58,318.55a26.19,26.19,0,1,1-30.28-24.4"/>
    <path class="cls-6" d="M467.61,301.15l3.75-7-7-3.75"/>
  </g>
  <g>
    <path class="cls-5" d="M448.22,363.44h1.3v10.5h-1.3Z"/>
    <path class="cls-5" d="M453.15,366.38v1.46a3.2,3.2,0,0,1,1.07-1.15,2.69,2.69,0,0,1,1.44-.43,2.28,2.28,0,0,1,1.69.63,2.43,2.43,0,0,1,.63,1.79v5.26h-1.23v-5a1.77,1.77,0,0,0-.35-1.18,1.31,1.31,0,0,0-1-.4,1.74,1.74,0,0,0-1.12.41,2.67,2.67,0,0,0-.8,1.16,5.07,5.07,0,0,0-.29,1.78v3.22h-1.24v-7.56Z"/>
    <path class="cls-5" d="M460.19,364.84a.86.86,0,0,1-.26-.63.92.92,0,0,1,1.55-.65.86.86,0,0,1,.27.65.84.84,0,0,1-.27.64.89.89,0,0,1-.65.26A.87.87,0,0,1,460.19,364.84Zm0,1.54h1.24v7.56h-1.24Z"/>
    <path class="cls-5" d="M464.61,373.46a2.56,2.56,0,0,1-.58-1.83v-4.14h-1.28v-1.11H464v-2.26l1.24-.8v3.06h2v1.11h-2v4.23q0,1.23,1.05,1.23a1.7,1.7,0,0,0,.87-.21l.32,1.05a2.86,2.86,0,0,1-1.29.27A2.15,2.15,0,0,1,464.61,373.46Z"/>
    <path class="cls-5" d="M469,364.84a.82.82,0,0,1-.26-.63.85.85,0,0,1,.26-.65.87.87,0,0,1,.64-.25.87.87,0,0,1,.91.9.87.87,0,0,1-.26.64.91.91,0,0,1-.65.26A.85.85,0,0,1,469,364.84Zm0,1.54h1.25v7.56H469Z"/>
    <path class="cls-5" d="M472.65,373.49a2.17,2.17,0,0,1-.66-1.72,2.14,2.14,0,0,1,.89-1.84,4.15,4.15,0,0,1,2.46-.64h1.32V369a1.51,1.51,0,0,0-.45-1.21,1.72,1.72,0,0,0-1.16-.38,1.61,1.61,0,0,0-1.65,1.23l-1.11-.25a2.28,2.28,0,0,1,.92-1.52,3,3,0,0,1,1.84-.57,2.89,2.89,0,0,1,2.06.74,2.78,2.78,0,0,1,.78,2.1v4.84h-1l-.22-1.09a2.61,2.61,0,0,1-2.36,1.21A2.48,2.48,0,0,1,472.65,373.49Zm2.9-.78a2,2,0,0,0,.79-.79,2.53,2.53,0,0,0,.32-1.32v-.24h-1.28a2.78,2.78,0,0,0-1.57.36,1.17,1.17,0,0,0-.53,1,1.15,1.15,0,0,0,.34.89,1.32,1.32,0,0,0,.94.31A2.19,2.19,0,0,0,475.55,372.71Z"/>
    <path class="cls-5" d="M480,363.32h1.25v10.62H480Z"/>
    <path class="cls-5" d="M487.23,363.32h1.25v10.62h-1.25Z"/>
    <path class="cls-5" d="M492,373.53a3.54,3.54,0,0,1-1.28-1.43,4.47,4.47,0,0,1,0-3.87,3.46,3.46,0,0,1,3.21-2,3.4,3.4,0,0,1,3.18,2,4.39,4.39,0,0,1,0,3.87,3.49,3.49,0,0,1-1.26,1.43,3.76,3.76,0,0,1-3.85,0Zm3.19-1a2.4,2.4,0,0,0,.81-1,3.54,3.54,0,0,0,.27-1.38,3.45,3.45,0,0,0-.27-1.37,2.43,2.43,0,0,0-.81-1,2.05,2.05,0,0,0-1.26-.39,2.08,2.08,0,0,0-1.27.39,2.43,2.43,0,0,0-.81,1,3.29,3.29,0,0,0-.28,1.37,3.37,3.37,0,0,0,.28,1.38,2.4,2.4,0,0,0,.81,1,2.08,2.08,0,0,0,1.27.39A2.05,2.05,0,0,0,495.2,372.56Z"/>
    <path class="cls-5" d="M499.55,373.49a2.17,2.17,0,0,1-.66-1.72,2.12,2.12,0,0,1,.89-1.84,4.1,4.1,0,0,1,2.45-.64h1.32V369a1.54,1.54,0,0,0-.44-1.21,1.74,1.74,0,0,0-1.16-.38,1.61,1.61,0,0,0-1.65,1.23l-1.11-.25a2.24,2.24,0,0,1,.92-1.52,3,3,0,0,1,1.84-.57A2.86,2.86,0,0,1,504,367a2.78,2.78,0,0,1,.78,2.1v4.84h-1l-.23-1.09a2.6,2.6,0,0,1-2.35,1.21A2.48,2.48,0,0,1,499.55,373.49Zm2.89-.78a2,2,0,0,0,.8-.79,2.53,2.53,0,0,0,.31-1.32v-.24h-1.27a2.82,2.82,0,0,0-1.58.36,1.32,1.32,0,0,0-.19,1.92,1.33,1.33,0,0,0,.94.31A2.19,2.19,0,0,0,502.44,372.71Z"/>
    <path class="cls-5" d="M508,373.56a3.19,3.19,0,0,1-1.14-1.39,5.37,5.37,0,0,1,0-4,3.19,3.19,0,0,1,1.14-1.39,3.24,3.24,0,0,1,1.82-.5,3,3,0,0,1,1.3.29,2.63,2.63,0,0,1,1,.78v-4h1.23v10.62H512v-1a2.34,2.34,0,0,1-.92.78,2.83,2.83,0,0,1-1.34.33A3.16,3.16,0,0,1,508,373.56Zm3.6-1.37a3.77,3.77,0,0,0,0-4.05,1.93,1.93,0,0,0-1.62-.77,2,2,0,0,0-1.63.77,3.75,3.75,0,0,0,0,4,2.11,2.11,0,0,0,3.25,0Z"/>
  </g>
  <g>
    <path class="cls-6" d="M1029.54,257a56.29,56.29,0,0,1,1,112.57h-4.86"/>
    <path class="cls-6" d="M1035.82,358.89l-10.5,10.5,10.5,10.5"/>
  </g>
  <g>
    <g>
      <path class="cls-8" d="M863.73,661.18h212a22.49,22.49,0,0,1,22.49,22.49v0a.32.32,0,0,1-.32.32H841.55a0,0,0,0,1,0,0v-.64A22.18,22.18,0,0,1,863.73,661.18Z"/>
      <circle class="cls-8" cx="861.08" cy="672.58" r="3.78"/>
      <circle class="cls-8" cx="872.36" cy="672.58" r="3.78"/>
      <circle class="cls-8" cx="883.63" cy="672.58" r="3.78"/>
      <path class="cls-3" d="M837.63,688.75h256.23a.42.42,0,0,1,.42.42v160a.42.42,0,0,1-.42.42H837.63a0,0,0,0,1,0,0V688.75A0,0,0,0,1,837.63,688.75Z"/>
      <path class="cls-4" d="M841.55,684h256.23a.42.42,0,0,1,.42.42v160a.42.42,0,0,1-.42.42H841.55a0,0,0,0,1,0,0V684A0,0,0,0,1,841.55,684Z"/>
      <rect class="cls-10" x="906.01" y="692.64" width="163.31" height="22.01" rx="11"/>
      <path class="cls-6" d="M859.86,698l-5.11,5.1,5.11,5.11"/>
      <path class="cls-6" d="M877.3,708.22l5.1-5.11-5.1-5.1"/>
      <g>
        <path class="cls-5" d="M927,703l.85,3.07.58-4.21h1l-1,5.7h-1l-.94-3.45-.93,3.45h-1l-1-5.7h1l.57,4.21.85-3.07Z"/>
        <path class="cls-5" d="M933.8,703l.85,3.07.58-4.21h1l-1,5.7h-1l-.94-3.45-.93,3.45h-1l-1-5.7h1l.57,4.21.85-3.07Z"/>
        <path class="cls-5" d="M940.64,703l.84,3.07.59-4.21h1l-.95,5.7h-1l-.93-3.45-.93,3.45h-1l-1-5.7h1l.57,4.21.85-3.07Z"/>
        <path class="cls-5" d="M946.42,707.54v-1.22h1.21v1.22Z"/>
        <path class="cls-5" d="M956.26,703.73h-1a1.36,1.36,0,0,0-1.35-1.18c-.84,0-1.54.73-1.54,2.16s.7,2.17,1.54,2.17a1.41,1.41,0,0,0,1.39-1.18h1a2.37,2.37,0,0,1-2.45,2c-1.58,0-2.52-1.23-2.52-3s1-3,2.62-3A2.22,2.22,0,0,1,956.26,703.73Z"/>
        <path class="cls-5" d="M960.71,701.74a3,3,0,1,1-2.64,3A2.66,2.66,0,0,1,960.71,701.74Zm0,5.12c.87,0,1.61-.64,1.61-2.15s-.74-2.15-1.61-2.15-1.61.63-1.61,2.15S959.84,706.86,960.71,706.86Z"/>
        <path class="cls-5" d="M968.83,699.86h1v7.68h-1v-.81a1.83,1.83,0,0,1-1.69.94c-1.31,0-2.29-1.08-2.29-3s1-3,2.29-3a1.82,1.82,0,0,1,1.69,1Zm-1.48,2.7c-1,0-1.48.79-1.48,2.15s.5,2.16,1.48,2.16c.81,0,1.52-.67,1.52-2.16S968.16,702.56,967.35,702.56Z"/>
        <path class="cls-5" d="M971.83,704.71c0-1.83,1.08-3,2.59-3,1.66,0,2.61,1.22,2.54,3.25h-4.1c0,1.15.64,1.9,1.54,1.9a1.37,1.37,0,0,0,1.47-1h1a2.33,2.33,0,0,1-2.45,1.84C972.69,707.67,971.83,706.39,971.83,704.71Zm1-.53h3a1.46,1.46,0,0,0-1.5-1.64C973.5,702.54,972.91,703.08,972.87,704.18Z"/>
        <path class="cls-5" d="M983.62,703.73h-1a1.34,1.34,0,0,0-1.34-1.18c-.85,0-1.55.73-1.55,2.16s.7,2.17,1.55,2.17a1.41,1.41,0,0,0,1.39-1.18h1a2.36,2.36,0,0,1-2.44,2c-1.58,0-2.52-1.23-2.52-3s1-3,2.61-3A2.24,2.24,0,0,1,983.62,703.73Z"/>
        <path class="cls-5" d="M985.64,706.05c0-1.35,1.44-1.77,3.77-2v-.24a1.13,1.13,0,0,0-1.28-1.29,1.18,1.18,0,0,0-1.36,1.14h-1a2.18,2.18,0,0,1,2.36-1.92c1.57,0,2.25.7,2.23,2.28v1.39a21,21,0,0,0,.08,2.15h-.94v-.84a2.09,2.09,0,0,1-2,1A1.66,1.66,0,0,1,985.64,706.05Zm3.84-1.25c-1.73.17-2.79.42-2.79,1.23,0,.54.39.86,1.08.86.86,0,1.71-.41,1.71-1.93Z"/>
        <path class="cls-5" d="M996.18,699.86h1v7.68h-1v-.81a1.8,1.8,0,0,1-1.68.94c-1.31,0-2.3-1.08-2.3-3s1-3,2.3-3a1.79,1.79,0,0,1,1.68,1Zm-1.48,2.7c-1,0-1.47.79-1.47,2.15s.5,2.16,1.47,2.16c.82,0,1.53-.67,1.53-2.16S995.52,702.56,994.7,702.56Z"/>
        <path class="cls-5" d="M999.19,704.71c0-1.83,1.08-3,2.58-3,1.67,0,2.62,1.22,2.54,3.25h-4.09c0,1.15.63,1.9,1.53,1.9a1.37,1.37,0,0,0,1.47-1h1a2.34,2.34,0,0,1-2.46,1.84C1000.05,707.67,999.19,706.39,999.19,704.71Zm1-.53h3a1.46,1.46,0,0,0-1.51-1.64C1000.85,702.54,1000.27,703.08,1000.23,704.18Z"/>
        <path class="cls-5" d="M1010,701.74c.59,0,1.17.28,1.17,1.78v4h-1V704c0-.83,0-1.46-.49-1.46s-.63.57-.63,1.75v3.23h-1V704c0-.83,0-1.46-.47-1.46s-.65.58-.65,1.77v3.21h-1v-5.7h.93v.6a1.13,1.13,0,0,1,1-.7.91.91,0,0,1,.89.72A1.25,1.25,0,0,1,1010,701.74Z"/>
        <path class="cls-5" d="M1012.81,709.39v-.84h1c.59,0,.78-.07,1.08-.89l0-.12-2.13-5.7h1.07l1.55,4.39,1.51-4.39h1l-2.11,5.94c-.4,1.12-.72,1.61-1.92,1.61Z"/>
        <path class="cls-5" d="M1021.64,707.54v-1.22h1.22v1.22Z"/>
        <path class="cls-5" d="M1031.49,703.73h-1a1.34,1.34,0,0,0-1.34-1.18c-.85,0-1.55.73-1.55,2.16s.7,2.17,1.55,2.17a1.41,1.41,0,0,0,1.39-1.18h1a2.36,2.36,0,0,1-2.44,2c-1.58,0-2.52-1.23-2.52-3s1-3,2.61-3A2.24,2.24,0,0,1,1031.49,703.73Z"/>
        <path class="cls-5" d="M1035.93,701.74a3,3,0,1,1-2.63,3A2.65,2.65,0,0,1,1035.93,701.74Zm0,5.12c.87,0,1.61-.64,1.61-2.15s-.74-2.15-1.61-2.15-1.61.63-1.61,2.15S1035.07,706.86,1035.93,706.86Z"/>
        <path class="cls-5" d="M1044.19,701.74c.6,0,1.18.28,1.18,1.78v4h-1V704c0-.83,0-1.46-.48-1.46s-.64.57-.64,1.75v3.23h-1V704c0-.83,0-1.46-.48-1.46s-.65.58-.65,1.77v3.21h-1v-5.7h.93v.6a1.13,1.13,0,0,1,1-.7.91.91,0,0,1,.89.72A1.25,1.25,0,0,1,1044.19,701.74Z"/>
      </g>
    </g>
    <rect class="cls-7" x="868.63" y="732.61" width="74" height="84"/>
    <rect class="cls-7" x="969.63" y="743.11" width="95" height="16"/>
    <rect class="cls-7" x="969.63" y="768.61" width="95" height="8"/>
    <rect class="cls-7" x="969.63" y="784.61" width="95" height="8"/>
    <rect class="cls-7" x="969.63" y="800.61" width="43" height="8"/>
  </g>
  <path class="cls-12" d="M907.44,779.5c-.33.06-4.32-12.57-6.48-15.71-1.52-2.22-6.26-1-5,3.27,1,3.34,3.25,8,3.75,9.43,1.88,5.4,3.61,8.56,4.6,11.89.86,2.94-1.17,1.83-2.42.52a21,21,0,0,1-2.42-2.58c-1.92-2.53-3.3-3.52-4.43-3.77a2.71,2.71,0,0,0-3,3.55c.31,1.24,5.5,6.5,8.71,10.7,1.22,1.6,6.63,7,11.07,7.73a16.33,16.33,0,0,0,11-1.94,14.75,14.75,0,0,0,7.77-12c.13-2.57-2-7.88-3.82-11.72-.46-1-2.68-6.46-5-6.1-2.84.45-2.34,3.41-2,4.68a26.56,26.56,0,0,0-2-4.4,3.11,3.11,0,0,0-5.3.47c-.45,1,.59,3.4,1.49,5.52a43,43,0,0,0-3-6.18c-1.34-1.86-4.45-.46-4.9.95-.6,1.9,1.86,6.94,1.86,6.94Z"/>
  <line class="cls-13" x1="900.72" y1="759.31" x2="902.73" y2="752.21"/>
  <line class="cls-13" x1="895.5" y1="759.75" x2="892.28" y2="753.12"/>
  <line class="cls-13" x1="891.7" y1="763.4" x2="885.14" y2="759.22"/>
</svg>
