<svg id="Layer_1" data-name="Layer 1" xmlns="http://www.w3.org/2000/svg" viewBox="0 0 1200 1000">
  <defs>
    <style>
      .cls-1 {
        fill: #fff5ff;
      }

      .cls-2 {
        fill: #fff;
      }

      .cls-3 {
        fill: #10162f;
      }

      .cls-4 {
        fill: #f866ff;
      }
    </style>
  </defs>
  <g>
    <path class="cls-1" d="M79.5,520.5h500a0,0,0,0,1,0,0V920.21a.29.29,0,0,1-.29.29H79.79a.29.29,0,0,1-.29-.29V520.5A0,0,0,0,1,79.5,520.5Z"/>
    <path class="cls-2" d="M579.21,921H79.79a.8.8,0,0,1-.79-.79V520H580V920.21A.8.8,0,0,1,579.21,921ZM80,920H579V521H80Z"/>
  </g>
  <g>
    <path class="cls-1" d="M620.5,520.5h500a0,0,0,0,1,0,0V920.21a.29.29,0,0,1-.29.29H620.79a.29.29,0,0,1-.29-.29V520.5A0,0,0,0,1,620.5,520.5Z"/>
    <path class="cls-2" d="M1120.21,921H620.79a.8.8,0,0,1-.79-.79V520h501V920.21A.8.8,0,0,1,1120.21,921ZM621,920h499V521H621Z"/>
  </g>
  <g>
    <path class="cls-1" d="M79.5,80.5h500a0,0,0,0,1,0,0V480.21a.29.29,0,0,1-.29.29H79.79a.29.29,0,0,1-.29-.29V80.5A0,0,0,0,1,79.5,80.5Z"/>
    <path class="cls-2" d="M579.21,481H79.79a.8.8,0,0,1-.79-.79V80H580V480.21A.8.8,0,0,1,579.21,481ZM80,480H579V81H80Z"/>
  </g>
  <g>
    <path class="cls-1" d="M620.5,80.5h500a0,0,0,0,1,0,0V480.21a.29.29,0,0,1-.29.29H620.79a.29.29,0,0,1-.29-.29V80.5A0,0,0,0,1,620.5,80.5Z"/>
    <path class="cls-2" d="M1120.21,481H620.79a.8.8,0,0,1-.79-.79V80h501V480.21A.8.8,0,0,1,1120.21,481ZM621,480h499V81H621Z"/>
  </g>
  <g>
    <g>
      <g>
        <path class="cls-3" d="M526.43,751.87H458.69a.38.38,0,0,1-.35-.41v-83a.39.39,0,0,1,.35-.42l62.1,10.24a.39.39,0,0,1,.35.42l5.63,72.73A.38.38,0,0,1,526.43,751.87Z"/>
        <path class="cls-3" d="M526.43,752.37H458.69a.88.88,0,0,1-.85-.91v-83a.89.89,0,0,1,.85-.92l62.18,10.25c.34,0,.77.4.77.91l5.63,72.69A.89.89,0,0,1,526.43,752.37Zm-67.59-1h67.43l-5.63-72.58-61.8-10.19Zm61.88-72.57h0Z"/>
      </g>
      <g>
        <path class="cls-1" d="M529.17,748.63H461.43a.39.39,0,0,1-.34-.42v-83a.38.38,0,0,1,.34-.41h57.73l10.36,15.67v67.71A.39.39,0,0,1,529.17,748.63Z"/>
        <path class="cls-3" d="M529.17,749.13H461.43a.88.88,0,0,1-.84-.92v-83a.87.87,0,0,1,.84-.91h58l10.59,16v67.86A.89.89,0,0,1,529.17,749.13Zm-67.58-1H529V680.65l-10.13-15.32h-57.3Z"/>
      </g>
    </g>
    <g>
      <path class="cls-3" d="M476.07,721.92a8.76,8.76,0,0,1-3-5.85l5.63-1.19a5.35,5.35,0,0,0,1.36,3,3.45,3.45,0,0,0,2.5.93,3.87,3.87,0,0,0,3-1.19c.7-.79,1.05-2.16,1.05-4.09v-20.6h5.72v20q0,6-2.51,8.58t-7.3,2.6A9.74,9.74,0,0,1,476.07,721.92Z"/>
      <path class="cls-3" d="M502.6,722.89a10.51,10.51,0,0,1-3.69-3.12,10.69,10.69,0,0,1-2-4.36l4.62-2.9a10.58,10.58,0,0,0,2.22,4.53,5,5,0,0,0,3.89,1.72,4.38,4.38,0,0,0,2.9-.91,3.35,3.35,0,0,0,1.1-2.75,3,3,0,0,0-.75-2,7.17,7.17,0,0,0-1.87-1.54c-.74-.44-1.81-1-3.18-1.67l-1.28-.62a12.23,12.23,0,0,1-4.22-3.32,8,8,0,0,1-1.58-5.13,8.36,8.36,0,0,1,1.08-4.22,7.6,7.6,0,0,1,3-3,9.06,9.06,0,0,1,4.46-1.08q6.38,0,8.71,5.59l-4.62,3c-.76-2.17-2.13-3.26-4.09-3.26a3.2,3.2,0,0,0-2.2.82,2.58,2.58,0,0,0-.92,2,3,3,0,0,0,.81,2.09,7.66,7.66,0,0,0,2,1.54c.78.42,1.9,1,3.37,1.65A22.41,22.41,0,0,1,514,708a8.05,8.05,0,0,1,3.37,6.86,9.21,9.21,0,0,1-1.26,4.86,8.21,8.21,0,0,1-3.49,3.21,11.25,11.25,0,0,1-5.1,1.13A10.56,10.56,0,0,1,502.6,722.89Z"/>
    </g>
  </g>
  <g>
    <path class="cls-3" d="M801.54,305.54H758a.5.5,0,0,1-.5-.5.51.51,0,0,1,.5-.5h43.59a.5.5,0,0,1,.5.5A.5.5,0,0,1,801.54,305.54Z"/>
    <path class="cls-3" d="M791,316a.46.46,0,0,1-.35-.14.5.5,0,0,1,0-.71L800.83,305,790.69,294.9a.5.5,0,0,1,0-.71.5.5,0,0,1,.7,0l10.5,10.5a.5.5,0,0,1,0,.71l-10.5,10.5A.46.46,0,0,1,791,316Z"/>
  </g>
  <g>
    <path class="cls-3" d="M794.86,440.37a9.21,9.21,0,0,0,1.12-1.69,3.27,3.27,0,0,0,.3-1.43,2.42,2.42,0,0,0-.6-1.71,2.16,2.16,0,0,0-1.64-.63,2.13,2.13,0,0,0-1.63.69,3.28,3.28,0,0,0-.79,1.83l-1.55-.3a4.12,4.12,0,0,1,.62-1.92,3.73,3.73,0,0,1,1.41-1.32,4,4,0,0,1,1.95-.48,3.92,3.92,0,0,1,2.83,1,3.71,3.71,0,0,1,1.08,2.81,4.32,4.32,0,0,1-.4,1.79,8.66,8.66,0,0,1-1.15,1.83l-4,5.18h5.87v1.52h-8.49v-.64Z"/>
    <path class="cls-3" d="M800.72,447.28a1.18,1.18,0,0,1-.34-.87,1.18,1.18,0,0,1,1.21-1.24,1.2,1.2,0,0,1,1.24,1.24,1.15,1.15,0,0,1-.35.87,1.16,1.16,0,0,1-.89.35A1.18,1.18,0,0,1,800.72,447.28Z"/>
    <path class="cls-3" d="M815.71,433.57a4.23,4.23,0,0,1,3.08,1.07,4.46,4.46,0,0,1,0,5.84,4.18,4.18,0,0,1-3.08,1.07h-3.17v6h-1.75v-14Zm1.78,5.73a2.9,2.9,0,0,0,0-3.48,2.32,2.32,0,0,0-1.8-.63h-3.15v4.74h3.15A2.32,2.32,0,0,0,817.49,439.3Z"/>
    <path class="cls-3" d="M822,447a2.89,2.89,0,0,1-.88-2.29,2.83,2.83,0,0,1,1.2-2.45,5.56,5.56,0,0,1,3.26-.85h1.76v-.44a2,2,0,0,0-.59-1.61,2.28,2.28,0,0,0-1.55-.51,2.15,2.15,0,0,0-2.2,1.64l-1.48-.34a3.06,3.06,0,0,1,1.23-2,4.08,4.08,0,0,1,2.45-.76,3.79,3.79,0,0,1,2.74,1,3.65,3.65,0,0,1,1.05,2.79v6.46h-1.31l-.3-1.46a3.47,3.47,0,0,1-3.14,1.62A3.26,3.26,0,0,1,822,447Zm3.86-1a2.52,2.52,0,0,0,1.06-1,3.41,3.41,0,0,0,.42-1.77v-.32h-1.69a3.76,3.76,0,0,0-2.11.48,1.59,1.59,0,0,0-.7,1.38,1.53,1.53,0,0,0,.45,1.18,1.77,1.77,0,0,0,1.25.42A2.81,2.81,0,0,0,825.83,445.92Z"/>
    <path class="cls-3" d="M832.08,450.93a2.87,2.87,0,0,1-1.17-2.44,2.65,2.65,0,0,1,.27-1.2,2.7,2.7,0,0,1,.71-.88,1.82,1.82,0,0,1-.72-1.62,2,2,0,0,1,.34-1.13,2.5,2.5,0,0,1,.9-.77,3.33,3.33,0,0,1-.74-2.18,3.39,3.39,0,0,1,.47-1.77,3.3,3.3,0,0,1,1.27-1.19,3.82,3.82,0,0,1,3.56,0l1.82-1,.72,1.24-1.42.76a3.32,3.32,0,0,1,.6,1.94,3.38,3.38,0,0,1-.46,1.79,2.93,2.93,0,0,1-1.26,1.18,3.74,3.74,0,0,1-1.78.41,3.86,3.86,0,0,1-1.76-.4,1.09,1.09,0,0,0-.7,1,.76.76,0,0,0,.32.68,1.43,1.43,0,0,0,.83.22h2.41a3.63,3.63,0,0,1,2.33.69,2.44,2.44,0,0,1,.87,2.05,3,3,0,0,1-1.2,2.62,6,6,0,0,1-6.21,0Zm5.09-1.07a1.6,1.6,0,0,0,.71-1.37,1.34,1.34,0,0,0-.49-1.15A2.32,2.32,0,0,0,836,447h-1.82a8.45,8.45,0,0,1-1-.06,1.74,1.74,0,0,0-.68,1.52,1.65,1.65,0,0,0,.71,1.41,3.46,3.46,0,0,0,2,.51A3.27,3.27,0,0,0,837.17,449.86Zm-.61-7.69a2.18,2.18,0,0,0,0-2.92,1.86,1.86,0,0,0-1.37-.54,1.89,1.89,0,0,0-1.37.54,2.21,2.21,0,0,0,0,2.92,1.89,1.89,0,0,0,1.37.54A1.86,1.86,0,0,0,836.56,442.17Z"/>
    <path class="cls-3" d="M849.83,442.79h-7.42a4.1,4.1,0,0,0,.84,2.5,2.59,2.59,0,0,0,2.12,1,2.87,2.87,0,0,0,1.7-.46,3.75,3.75,0,0,0,1.18-1.5l1.4.6a5.18,5.18,0,0,1-1.75,2.16,4.49,4.49,0,0,1-2.57.68,4.24,4.24,0,0,1-2.46-.71,4.56,4.56,0,0,1-1.59-1.9,6.17,6.17,0,0,1-.55-2.59,6.29,6.29,0,0,1,.55-2.61,4.59,4.59,0,0,1,1.59-1.89,4.38,4.38,0,0,1,2.46-.7,4.48,4.48,0,0,1,2.4.64,4.24,4.24,0,0,1,1.56,1.72,5.29,5.29,0,0,1,.54,2.4Zm-1.68-1.42a3.18,3.18,0,0,0-.9-1.87,2.9,2.9,0,0,0-3.72,0,3.43,3.43,0,0,0-1,1.9Z"/>
    <path class="cls-3" d="M857.26,435.44a1.15,1.15,0,0,1-.35-.85,1.18,1.18,0,0,1,.35-.86,1.26,1.26,0,0,1,1.72,0,1.14,1.14,0,0,1,.35.86,1.11,1.11,0,0,1-.35.86,1.18,1.18,0,0,1-.87.34A1.15,1.15,0,0,1,857.26,435.44Zm0,2.05H859v10.08h-1.66Z"/>
    <path class="cls-3" d="M862.29,446.93A3.7,3.7,0,0,1,861,445l1.38-.74a3.24,3.24,0,0,0,.87,1.48,2.15,2.15,0,0,0,1.51.52,1.61,1.61,0,0,0,1.17-.4,1.43,1.43,0,0,0,.43-1.12,1.24,1.24,0,0,0-.55-1,7.24,7.24,0,0,0-1.63-.8,5,5,0,0,1-1.85-1.1,2.4,2.4,0,0,1-.65-1.76,2.52,2.52,0,0,1,.83-1.95,3,3,0,0,1,2.11-.75,3.21,3.21,0,0,1,2.92,1.58l-1.08,1a2.11,2.11,0,0,0-1.86-1.06,1.4,1.4,0,0,0-.94.33,1.13,1.13,0,0,0-.38.89,1.12,1.12,0,0,0,.49.93,7,7,0,0,0,1.75.83q2.46.9,2.46,2.88a2.89,2.89,0,0,1-.88,2.24,3.26,3.26,0,0,1-2.34.82A3.75,3.75,0,0,1,862.29,446.93Z"/>
    <path class="cls-3" d="M874.19,437.49h1.7l2.54,8,2.52-8h1.7l-3.4,10.08h-1.66Z"/>
    <path class="cls-3" d="M884.42,435.44a1.15,1.15,0,0,1-.35-.85,1.18,1.18,0,0,1,.35-.86,1.26,1.26,0,0,1,1.72,0,1.14,1.14,0,0,1,.35.86,1.11,1.11,0,0,1-.35.86,1.18,1.18,0,0,1-.87.34A1.15,1.15,0,0,1,884.42,435.44Zm0,2.05h1.66v10.08h-1.66Z"/>
    <path class="cls-3" d="M897.61,442.79h-7.42a4.1,4.1,0,0,0,.84,2.5,2.59,2.59,0,0,0,2.12,1,2.87,2.87,0,0,0,1.7-.46,3.75,3.75,0,0,0,1.18-1.5l1.4.6a5.18,5.18,0,0,1-1.75,2.16,4.49,4.49,0,0,1-2.57.68,4.24,4.24,0,0,1-2.46-.71,4.56,4.56,0,0,1-1.59-1.9,6.17,6.17,0,0,1-.55-2.59,6.29,6.29,0,0,1,.55-2.61,4.59,4.59,0,0,1,1.59-1.89,4.38,4.38,0,0,1,2.46-.7,4.48,4.48,0,0,1,2.4.64,4.24,4.24,0,0,1,1.56,1.72,5.29,5.29,0,0,1,.54,2.4Zm-1.68-1.42a3.18,3.18,0,0,0-.9-1.87,2.9,2.9,0,0,0-3.72,0,3.43,3.43,0,0,0-1,1.9Z"/>
    <path class="cls-3" d="M898.71,437.49h1.7l2.16,7.86,2-7.86h1.58l2,7.86,2.18-7.86H912l-3.1,10.08h-1.56l-2-7.68-2,7.68h-1.58Z"/>
    <path class="cls-3" d="M913.89,447a2.89,2.89,0,0,1-.88-2.29,2.85,2.85,0,0,1,1.19-2.45,5.61,5.61,0,0,1,3.27-.85h1.76v-.44a2,2,0,0,0-.59-1.61,2.28,2.28,0,0,0-1.55-.51,2.15,2.15,0,0,0-2.2,1.64l-1.48-.34a3.06,3.06,0,0,1,1.23-2,4.08,4.08,0,0,1,2.45-.76,3.79,3.79,0,0,1,2.74,1,3.64,3.64,0,0,1,1,2.79v6.46h-1.3l-.3-1.46a3.48,3.48,0,0,1-3.14,1.62A3.26,3.26,0,0,1,913.89,447Zm3.86-1a2.58,2.58,0,0,0,1.06-1,3.41,3.41,0,0,0,.42-1.77v-.32h-1.7a3.75,3.75,0,0,0-2.1.48,1.59,1.59,0,0,0-.7,1.38,1.53,1.53,0,0,0,.45,1.18,1.77,1.77,0,0,0,1.25.42A2.81,2.81,0,0,0,917.75,445.92Z"/>
    <path class="cls-3" d="M926.5,447.31a3.06,3.06,0,0,1-1.19-1v1.22h-1.66V433.41h1.66v5.34a3.83,3.83,0,0,1,1.28-1,3.68,3.68,0,0,1,1.66-.39,4.43,4.43,0,0,1,2.46.67,4.18,4.18,0,0,1,1.54,1.85,7.17,7.17,0,0,1,0,5.36,4.07,4.07,0,0,1-1.54,1.85,4.35,4.35,0,0,1-2.46.67A3.86,3.86,0,0,1,926.5,447.31Zm3.76-2.09a5,5,0,0,0,0-5.38,2.78,2.78,0,0,0-4.32,0,5,5,0,0,0,0,5.38,2.79,2.79,0,0,0,4.33,0Z"/>
    <path class="cls-3" d="M935.19,433.41h1.66v14.16h-1.66Z"/>
    <path class="cls-3" d="M948.37,442.79H941a4.1,4.1,0,0,0,.84,2.5,2.59,2.59,0,0,0,2.12,1,2.87,2.87,0,0,0,1.7-.46,3.75,3.75,0,0,0,1.18-1.5l1.4.6a5.18,5.18,0,0,1-1.75,2.16,4.49,4.49,0,0,1-2.57.68,4.24,4.24,0,0,1-2.46-.71,4.56,4.56,0,0,1-1.59-1.9,6.17,6.17,0,0,1-.55-2.59,6.29,6.29,0,0,1,.55-2.61,4.59,4.59,0,0,1,1.59-1.89,4.38,4.38,0,0,1,2.46-.7,4.48,4.48,0,0,1,2.4.64,4.24,4.24,0,0,1,1.56,1.72,5.29,5.29,0,0,1,.54,2.4Zm-1.68-1.42a3.18,3.18,0,0,0-.9-1.87,2.9,2.9,0,0,0-3.72,0,3.43,3.43,0,0,0-1,1.9Z"/>
  </g>
  <g>
    <path class="cls-3" d="M114.59,436.05l-2.44,1.5v-1.8l3.52-2.18h.58v14h-1.66Z"/>
    <path class="cls-3" d="M119.52,447.28a1.15,1.15,0,0,1-.35-.87,1.19,1.19,0,0,1,.35-.89,1.18,1.18,0,0,1,.86-.35,1.24,1.24,0,0,1,.9.35,1.22,1.22,0,0,1,.34.89,1.18,1.18,0,0,1-.34.87,1.2,1.2,0,0,1-.9.35A1.14,1.14,0,0,1,119.52,447.28Z"/>
    <path class="cls-3" d="M131,447.22a4.36,4.36,0,0,1-1.59-1.39,4.67,4.67,0,0,1-.81-1.92l1.44-.9c.5,2.07,1.53,3.1,3.11,3.1a2.3,2.3,0,0,0,1.66-.61,2.33,2.33,0,0,0,.63-1.77,2.12,2.12,0,0,0-.4-1.3,3.33,3.33,0,0,0-1-.9c-.39-.24-1-.53-1.69-.88a6.74,6.74,0,0,1-2.16-1.55,3.31,3.31,0,0,1-.78-2.27,3.47,3.47,0,0,1,.45-1.76,3.35,3.35,0,0,1,1.26-1.22,3.76,3.76,0,0,1,1.81-.44,3.54,3.54,0,0,1,3.58,2.28l-1.42.9A2.22,2.22,0,0,0,133,435a1.83,1.83,0,0,0-1.33.5,1.67,1.67,0,0,0-.5,1.2,1.88,1.88,0,0,0,.39,1.2,3.08,3.08,0,0,0,1,.84,13.7,13.7,0,0,0,1.55.78,7.1,7.1,0,0,1,2.37,1.63,3.51,3.51,0,0,1,.84,2.47,4.21,4.21,0,0,1-.52,2.14,3.68,3.68,0,0,1-1.47,1.43,4.23,4.23,0,0,1-2.09.51A4.46,4.46,0,0,1,131,447.22Z"/>
    <path class="cls-3" d="M148.14,442.79h-7.42a4.1,4.1,0,0,0,.85,2.5,2.58,2.58,0,0,0,2.12,1,2.84,2.84,0,0,0,1.69-.46,3.76,3.76,0,0,0,1.19-1.5l1.39.6a5.11,5.11,0,0,1-1.75,2.16,4.49,4.49,0,0,1-2.57.68,4.18,4.18,0,0,1-2.45-.71,4.42,4.42,0,0,1-1.59-1.9,6,6,0,0,1-.56-2.59,6.14,6.14,0,0,1,.56-2.61,4.45,4.45,0,0,1,1.59-1.89,4.33,4.33,0,0,1,2.45-.7,4.43,4.43,0,0,1,2.4.64,4.27,4.27,0,0,1,1.57,1.72,5.42,5.42,0,0,1,.53,2.4Zm-1.68-1.42a3.17,3.17,0,0,0-.89-1.87,2.67,2.67,0,0,0-1.93-.69,2.62,2.62,0,0,0-1.79.66,3.31,3.31,0,0,0-1,1.9Z"/>
    <path class="cls-3" d="M152.25,437.49v1.74a3.65,3.65,0,0,1,1.24-1.41,3.14,3.14,0,0,1,1.72-.49,3.85,3.85,0,0,1,1.41.3l-.33,1.54a2.77,2.77,0,0,0-1.3-.34,2.26,2.26,0,0,0-2,1.26,7.08,7.08,0,0,0-.77,3.68v3.8h-1.66V437.49Z"/>
    <path class="cls-3" d="M157.58,437.49h1.71l2.53,8,2.52-8H166l-3.4,10.08H161Z"/>
    <path class="cls-3" d="M176.12,442.79h-7.41a4.09,4.09,0,0,0,.83,2.5,2.59,2.59,0,0,0,2.12,1,2.9,2.9,0,0,0,1.71-.46,3.83,3.83,0,0,0,1.17-1.5l1.41.6a5.34,5.34,0,0,1-1.75,2.16,4.55,4.55,0,0,1-2.58.68,4.24,4.24,0,0,1-2.46-.71,4.56,4.56,0,0,1-1.59-1.9,6.16,6.16,0,0,1-.54-2.59,6.29,6.29,0,0,1,.54-2.61,4.59,4.59,0,0,1,1.59-1.89,4.38,4.38,0,0,1,2.46-.7A4.51,4.51,0,0,1,174,438a4.31,4.31,0,0,1,1.56,1.72,5.29,5.29,0,0,1,.53,2.4Zm-1.67-1.42a3.19,3.19,0,0,0-.91-1.87,2.9,2.9,0,0,0-3.72,0,3.43,3.43,0,0,0-1,1.9Z"/>
    <path class="cls-3" d="M180.22,437.49v1.74a3.73,3.73,0,0,1,1.24-1.41,3.18,3.18,0,0,1,1.73-.49,3.94,3.94,0,0,1,1.42.3l-.34,1.54a2.78,2.78,0,0,0-1.31-.34,2.28,2.28,0,0,0-2,1.26,7.18,7.18,0,0,0-.77,3.68v3.8h-1.66V437.49Z"/>
    <path class="cls-3" d="M191.83,450.93a2.87,2.87,0,0,1-1.17-2.44,2.65,2.65,0,0,1,.27-1.2,2.7,2.7,0,0,1,.71-.88,1.82,1.82,0,0,1-.72-1.62,2,2,0,0,1,.34-1.13,2.5,2.5,0,0,1,.9-.77,3.33,3.33,0,0,1-.74-2.18,3.39,3.39,0,0,1,.47-1.77,3.3,3.3,0,0,1,1.27-1.19,3.82,3.82,0,0,1,3.56,0l1.82-1,.72,1.24-1.42.76a3.32,3.32,0,0,1,.6,1.94,3.38,3.38,0,0,1-.46,1.79,2.93,2.93,0,0,1-1.26,1.18,3.74,3.74,0,0,1-1.78.41,3.86,3.86,0,0,1-1.76-.4,1.09,1.09,0,0,0-.7,1,.76.76,0,0,0,.32.68,1.41,1.41,0,0,0,.82.22H196a3.68,3.68,0,0,1,2.34.69,2.46,2.46,0,0,1,.86,2.05A3,3,0,0,1,198,451a6,6,0,0,1-6.21,0Zm5.09-1.07a1.59,1.59,0,0,0,.7-1.37,1.34,1.34,0,0,0-.48-1.15,2.32,2.32,0,0,0-1.38-.35h-1.82a8.45,8.45,0,0,1-1-.06,1.74,1.74,0,0,0-.68,1.52,1.65,1.65,0,0,0,.71,1.41,3.46,3.46,0,0,0,2,.51A3.27,3.27,0,0,0,196.92,449.86Zm-.61-7.69a2.18,2.18,0,0,0,0-2.92,1.86,1.86,0,0,0-1.37-.54,1.89,1.89,0,0,0-1.37.54,2.21,2.21,0,0,0,0,2.92,1.89,1.89,0,0,0,1.37.54A1.86,1.86,0,0,0,196.31,442.17Z"/>
    <path class="cls-3" d="M209.58,442.79h-7.42a4.1,4.1,0,0,0,.84,2.5,2.59,2.59,0,0,0,2.12,1,2.87,2.87,0,0,0,1.7-.46,3.75,3.75,0,0,0,1.18-1.5l1.4.6a5.18,5.18,0,0,1-1.75,2.16,4.49,4.49,0,0,1-2.57.68,4.24,4.24,0,0,1-2.46-.71,4.56,4.56,0,0,1-1.59-1.9,6.17,6.17,0,0,1-.55-2.59,6.29,6.29,0,0,1,.55-2.61,4.59,4.59,0,0,1,1.59-1.89,4.38,4.38,0,0,1,2.46-.7,4.48,4.48,0,0,1,2.4.64,4.24,4.24,0,0,1,1.56,1.72,5.29,5.29,0,0,1,.54,2.4Zm-1.68-1.42a3.18,3.18,0,0,0-.9-1.87,2.9,2.9,0,0,0-3.72,0,3.43,3.43,0,0,0-1,1.9Z"/>
    <path class="cls-3" d="M213.68,437.49v1.94a4.29,4.29,0,0,1,1.43-1.53,3.49,3.49,0,0,1,1.91-.57,3,3,0,0,1,2.26.84,3.23,3.23,0,0,1,.84,2.38v7h-1.64v-6.66a2.28,2.28,0,0,0-.47-1.57,1.76,1.76,0,0,0-1.39-.53,2.34,2.34,0,0,0-1.49.54,3.68,3.68,0,0,0-1.06,1.55,6.62,6.62,0,0,0-.39,2.37v4.3H212V437.49Z"/>
    <path class="cls-3" d="M231.64,442.79h-7.42a4.1,4.1,0,0,0,.84,2.5,2.59,2.59,0,0,0,2.12,1,2.87,2.87,0,0,0,1.7-.46,3.75,3.75,0,0,0,1.18-1.5l1.4.6a5.18,5.18,0,0,1-1.75,2.16,4.49,4.49,0,0,1-2.57.68,4.24,4.24,0,0,1-2.46-.71,4.56,4.56,0,0,1-1.59-1.9,6.17,6.17,0,0,1-.55-2.59,6.29,6.29,0,0,1,.55-2.61,4.59,4.59,0,0,1,1.59-1.89,4.38,4.38,0,0,1,2.46-.7,4.48,4.48,0,0,1,2.4.64,4.24,4.24,0,0,1,1.56,1.72,5.29,5.29,0,0,1,.54,2.4ZM230,441.37a3.18,3.18,0,0,0-.9-1.87,2.9,2.9,0,0,0-3.72,0,3.43,3.43,0,0,0-1,1.9Z"/>
    <path class="cls-3" d="M235.74,437.49v1.74a3.73,3.73,0,0,1,1.24-1.41,3.17,3.17,0,0,1,1.72-.49,3.86,3.86,0,0,1,1.42.3l-.34,1.54a2.71,2.71,0,0,0-1.3-.34,2.28,2.28,0,0,0-2,1.26,7.18,7.18,0,0,0-.77,3.68v3.8h-1.66V437.49Z"/>
    <path class="cls-3" d="M241.72,447a2.89,2.89,0,0,1-.88-2.29,2.85,2.85,0,0,1,1.19-2.45,5.61,5.61,0,0,1,3.27-.85h1.76v-.44a2,2,0,0,0-.59-1.61,2.28,2.28,0,0,0-1.55-.51,2.15,2.15,0,0,0-2.2,1.64l-1.48-.34a3.06,3.06,0,0,1,1.23-2,4.08,4.08,0,0,1,2.45-.76,3.79,3.79,0,0,1,2.74,1,3.64,3.64,0,0,1,1,2.79v6.46h-1.3l-.3-1.46a3.48,3.48,0,0,1-3.14,1.62A3.26,3.26,0,0,1,241.72,447Zm3.86-1a2.58,2.58,0,0,0,1.06-1,3.41,3.41,0,0,0,.42-1.77v-.32h-1.7a3.75,3.75,0,0,0-2.1.48,1.59,1.59,0,0,0-.7,1.38,1.53,1.53,0,0,0,.45,1.18,1.77,1.77,0,0,0,1.25.42A2.81,2.81,0,0,0,245.58,445.92Z"/>
    <path class="cls-3" d="M252.68,446.92a3.38,3.38,0,0,1-.78-2.43V439h-1.7v-1.48h1.7v-3l1.66-1.06v4.08h2.7V439h-2.7v5.64c0,1.1.47,1.64,1.4,1.64a2.22,2.22,0,0,0,1.16-.28l.42,1.4a3.8,3.8,0,0,1-1.72.36A2.84,2.84,0,0,1,252.68,446.92Z"/>
    <path class="cls-3" d="M266.56,442.79h-7.42a4.1,4.1,0,0,0,.84,2.5,2.59,2.59,0,0,0,2.12,1,2.87,2.87,0,0,0,1.7-.46,3.75,3.75,0,0,0,1.18-1.5l1.4.6a5.18,5.18,0,0,1-1.75,2.16,4.49,4.49,0,0,1-2.57.68,4.24,4.24,0,0,1-2.46-.71,4.56,4.56,0,0,1-1.59-1.9,6.17,6.17,0,0,1-.55-2.59,6.29,6.29,0,0,1,.55-2.61A4.59,4.59,0,0,1,259.6,438a4.38,4.38,0,0,1,2.46-.7,4.48,4.48,0,0,1,2.4.64,4.24,4.24,0,0,1,1.56,1.72,5.29,5.29,0,0,1,.54,2.4Zm-1.68-1.42a3.18,3.18,0,0,0-.9-1.87,2.9,2.9,0,0,0-3.72,0,3.43,3.43,0,0,0-1,1.9Z"/>
    <path class="cls-3" d="M269.36,446.93A3.7,3.7,0,0,1,268.1,445l1.38-.74a3.24,3.24,0,0,0,.87,1.48,2.15,2.15,0,0,0,1.51.52,1.61,1.61,0,0,0,1.17-.4,1.43,1.43,0,0,0,.43-1.12,1.24,1.24,0,0,0-.55-1,7.24,7.24,0,0,0-1.63-.8,5,5,0,0,1-1.85-1.1,2.4,2.4,0,0,1-.65-1.76,2.52,2.52,0,0,1,.83-1.95,3,3,0,0,1,2.11-.75,3.21,3.21,0,0,1,2.92,1.58l-1.08,1a2.11,2.11,0,0,0-1.86-1.06,1.4,1.4,0,0,0-.94.33,1.13,1.13,0,0,0-.38.89,1.12,1.12,0,0,0,.49.93,7,7,0,0,0,1.75.83q2.46.9,2.46,2.88a2.89,2.89,0,0,1-.88,2.24,3.26,3.26,0,0,1-2.34.82A3.75,3.75,0,0,1,269.36,446.93Z"/>
    <path class="cls-3" d="M282.7,433.57h1.74v5.72h6.62v-5.72h1.74v14h-1.74v-6.66h-6.62v6.66H282.7Z"/>
    <path class="cls-3" d="M298.78,435.19h-4.1v-1.62h9.92v1.62h-4.1v12.38h-1.72Z"/>
    <path class="cls-3" d="M306.5,433.57h2.06l3.88,10,3.88-10h2v14h-1.72V437L313,446.29h-1.18l-3.6-9.26v10.54H306.5Z"/>
    <path class="cls-3" d="M321.84,433.57h1.74V446h6.34v1.62h-8.08Z"/>
    <path class="cls-3" d="M337.56,447a2.89,2.89,0,0,1-.88-2.29,2.85,2.85,0,0,1,1.19-2.45,5.61,5.61,0,0,1,3.27-.85h1.76v-.44a2,2,0,0,0-.59-1.61,2.28,2.28,0,0,0-1.55-.51,2.15,2.15,0,0,0-2.2,1.64l-1.48-.34a3.06,3.06,0,0,1,1.23-2,4.08,4.08,0,0,1,2.45-.76,3.79,3.79,0,0,1,2.74,1,3.64,3.64,0,0,1,1,2.79v6.46h-1.3l-.3-1.46a3.48,3.48,0,0,1-3.14,1.62A3.26,3.26,0,0,1,337.56,447Zm3.86-1a2.58,2.58,0,0,0,1.06-1,3.41,3.41,0,0,0,.42-1.77v-.32h-1.7a3.75,3.75,0,0,0-2.1.48,1.59,1.59,0,0,0-.7,1.38,1.53,1.53,0,0,0,.45,1.18,1.77,1.77,0,0,0,1.25.42A2.81,2.81,0,0,0,341.42,445.92Z"/>
    <path class="cls-3" d="M349,437.49v1.94a4.29,4.29,0,0,1,1.43-1.53,3.49,3.49,0,0,1,1.91-.57,3,3,0,0,1,2.26.84,3.23,3.23,0,0,1,.84,2.38v7h-1.64v-6.66a2.28,2.28,0,0,0-.47-1.57,1.76,1.76,0,0,0-1.39-.53,2.34,2.34,0,0,0-1.49.54,3.68,3.68,0,0,0-1.06,1.55,6.62,6.62,0,0,0-.39,2.37v4.3H347.3V437.49Z"/>
    <path class="cls-3" d="M359.86,447.06a4.22,4.22,0,0,1-1.52-1.85,7.17,7.17,0,0,1,0-5.36,4.07,4.07,0,0,1,3.94-2.52,4,4,0,0,1,1.74.38,3.54,3.54,0,0,1,1.28,1v-5.34h1.64v14.16H365.3v-1.32a3,3,0,0,1-1.22,1,3.75,3.75,0,0,1-1.8.44A4.24,4.24,0,0,1,359.86,447.06Zm4.8-1.83a5,5,0,0,0,0-5.39,2.58,2.58,0,0,0-2.16-1,2.61,2.61,0,0,0-2.17,1,5,5,0,0,0,0,5.38,2.8,2.8,0,0,0,4.33,0Z"/>
    <path class="cls-3" d="M375.56,446.93A3.7,3.7,0,0,1,374.3,445l1.38-.74a3.24,3.24,0,0,0,.87,1.48,2.15,2.15,0,0,0,1.51.52,1.63,1.63,0,0,0,1.17-.4,1.43,1.43,0,0,0,.43-1.12,1.24,1.24,0,0,0-.55-1,7.24,7.24,0,0,0-1.63-.8,5,5,0,0,1-1.85-1.1A2.4,2.4,0,0,1,375,440a2.52,2.52,0,0,1,.83-1.95,3,3,0,0,1,2.11-.75,3.22,3.22,0,0,1,2.92,1.58l-1.08,1a2.11,2.11,0,0,0-1.86-1.06,1.38,1.38,0,0,0-.94.33,1.13,1.13,0,0,0-.38.89,1.12,1.12,0,0,0,.49.93,7,7,0,0,0,1.75.83q2.46.9,2.46,2.88a2.89,2.89,0,0,1-.88,2.24,3.26,3.26,0,0,1-2.34.82A3.75,3.75,0,0,1,375.56,446.93Z"/>
    <path class="cls-3" d="M391.92,442.79H384.5a4.1,4.1,0,0,0,.84,2.5,2.59,2.59,0,0,0,2.12,1,2.87,2.87,0,0,0,1.7-.46,3.75,3.75,0,0,0,1.18-1.5l1.4.6a5.18,5.18,0,0,1-1.75,2.16,4.49,4.49,0,0,1-2.57.68A4.24,4.24,0,0,1,385,447a4.56,4.56,0,0,1-1.59-1.9,6.17,6.17,0,0,1-.55-2.59,6.29,6.29,0,0,1,.55-2.61A4.59,4.59,0,0,1,385,438a4.38,4.38,0,0,1,2.46-.7,4.48,4.48,0,0,1,2.4.64,4.24,4.24,0,0,1,1.56,1.72,5.29,5.29,0,0,1,.54,2.4Zm-1.68-1.42a3.18,3.18,0,0,0-.9-1.87,2.9,2.9,0,0,0-3.72,0,3.43,3.43,0,0,0-1,1.9Z"/>
    <path class="cls-3" d="M396,437.49v1.94a4.29,4.29,0,0,1,1.43-1.53,3.47,3.47,0,0,1,1.91-.57,3,3,0,0,1,2.26.84,3.23,3.23,0,0,1,.84,2.38v7h-1.64v-6.66a2.34,2.34,0,0,0-.47-1.57,1.77,1.77,0,0,0-1.39-.53,2.32,2.32,0,0,0-1.49.54,3.68,3.68,0,0,0-1.06,1.55,6.62,6.62,0,0,0-.39,2.37v4.3h-1.66V437.49Z"/>
    <path class="cls-3" d="M406.92,447.06a4.22,4.22,0,0,1-1.52-1.85,7.17,7.17,0,0,1,0-5.36,4.07,4.07,0,0,1,3.94-2.52,4,4,0,0,1,1.74.38,3.54,3.54,0,0,1,1.28,1v-5.34H414v14.16h-1.64v-1.32a3,3,0,0,1-1.22,1,3.75,3.75,0,0,1-1.8.44A4.24,4.24,0,0,1,406.92,447.06Zm4.8-1.83a5,5,0,0,0,0-5.39,2.58,2.58,0,0,0-2.16-1,2.61,2.61,0,0,0-2.17,1,5,5,0,0,0,0,5.38,2.8,2.8,0,0,0,4.33,0Z"/>
    <path class="cls-3" d="M417.4,446.93a3.7,3.7,0,0,1-1.26-1.94l1.38-.74a3.24,3.24,0,0,0,.87,1.48,2.15,2.15,0,0,0,1.51.52,1.63,1.63,0,0,0,1.17-.4,1.43,1.43,0,0,0,.43-1.12,1.24,1.24,0,0,0-.55-1,7.24,7.24,0,0,0-1.63-.8,5,5,0,0,1-1.85-1.1,2.4,2.4,0,0,1-.65-1.76,2.52,2.52,0,0,1,.83-1.95,3,3,0,0,1,2.11-.75,3.22,3.22,0,0,1,2.92,1.58l-1.08,1a2.11,2.11,0,0,0-1.86-1.06,1.38,1.38,0,0,0-.94.33,1.13,1.13,0,0,0-.38.89,1.12,1.12,0,0,0,.49.93,7,7,0,0,0,1.75.83q2.46.9,2.46,2.88a2.89,2.89,0,0,1-.88,2.24,3.26,3.26,0,0,1-2.34.82A3.75,3.75,0,0,1,417.4,446.93Z"/>
    <path class="cls-3" d="M431.7,446.92a3.38,3.38,0,0,1-.78-2.43V439h-1.7v-1.48h1.7v-3l1.66-1.06v4.08h2.7V439h-2.7v5.64c0,1.1.47,1.64,1.4,1.64a2.22,2.22,0,0,0,1.16-.28l.42,1.4a3.8,3.8,0,0,1-1.72.36A2.84,2.84,0,0,1,431.7,446.92Z"/>
    <path class="cls-3" d="M438.77,447a4.62,4.62,0,0,1-1.7-1.91,5.94,5.94,0,0,1,0-5.16A4.85,4.85,0,0,1,443.9,438a4.73,4.73,0,0,1,1.69,1.91,5.94,5.94,0,0,1,0,5.16A4.67,4.67,0,0,1,443.9,447a4.56,4.56,0,0,1-2.56.71A4.62,4.62,0,0,1,438.77,447Zm4.26-1.29a3.11,3.11,0,0,0,1.07-1.37,4.6,4.6,0,0,0,.36-1.83,4.67,4.67,0,0,0-.36-1.83,3.22,3.22,0,0,0-1.07-1.37,3,3,0,0,0-3.38,0,3.41,3.41,0,0,0-1.08,1.37,4.5,4.5,0,0,0-.37,1.83,4.44,4.44,0,0,0,.37,1.83,3.28,3.28,0,0,0,1.08,1.37,3,3,0,0,0,3.38,0Z"/>
    <path class="cls-3" d="M454.82,446.92a3.38,3.38,0,0,1-.78-2.43V439h-1.7v-1.48H454v-3l1.66-1.06v4.08h2.7V439h-2.7v5.64c0,1.1.47,1.64,1.4,1.64a2.24,2.24,0,0,0,1.16-.28l.42,1.4a3.8,3.8,0,0,1-1.72.36A2.83,2.83,0,0,1,454.82,446.92Z"/>
    <path class="cls-3" d="M462.1,433.41v6.1a3.76,3.76,0,0,1,1.44-1.61,3.84,3.84,0,0,1,2-.57,3.13,3.13,0,0,1,2.31.83,3.22,3.22,0,0,1,.83,2.39v7h-1.64V441a2.36,2.36,0,0,0-.48-1.59,1.8,1.8,0,0,0-1.42-.55,2.51,2.51,0,0,0-1.52.53,3.71,3.71,0,0,0-1.12,1.55,6.28,6.28,0,0,0-.42,2.4v4.28h-1.66V433.41Z"/>
    <path class="cls-3" d="M480.22,442.79H472.8a4.1,4.1,0,0,0,.84,2.5,2.59,2.59,0,0,0,2.12,1,2.87,2.87,0,0,0,1.7-.46,3.84,3.84,0,0,0,1.18-1.5l1.4.6a5.18,5.18,0,0,1-1.75,2.16,4.49,4.49,0,0,1-2.57.68,4.24,4.24,0,0,1-2.46-.71,4.56,4.56,0,0,1-1.59-1.9,6,6,0,0,1-.55-2.59,6.14,6.14,0,0,1,.55-2.61,4.59,4.59,0,0,1,1.59-1.89,4.38,4.38,0,0,1,2.46-.7,4.48,4.48,0,0,1,2.4.64,4.24,4.24,0,0,1,1.56,1.72,5.29,5.29,0,0,1,.54,2.4Zm-1.68-1.42a3.18,3.18,0,0,0-.9-1.87,2.9,2.9,0,0,0-3.72,0,3.31,3.31,0,0,0-1,1.9Z"/>
    <path class="cls-3" d="M490.53,447.31a3.06,3.06,0,0,1-1.19-1v1.22h-1.66V433.41h1.66v5.34a3.74,3.74,0,0,1,1.28-1,3.65,3.65,0,0,1,1.66-.39,4.43,4.43,0,0,1,2.46.67,4.24,4.24,0,0,1,1.54,1.85,7.17,7.17,0,0,1,0,5.36,4.13,4.13,0,0,1-1.54,1.85,4.35,4.35,0,0,1-2.46.67A3.83,3.83,0,0,1,490.53,447.31Zm3.76-2.09a5,5,0,0,0,0-5.38,2.78,2.78,0,0,0-4.32,0,5,5,0,0,0,0,5.38,2.55,2.55,0,0,0,2.16,1A2.58,2.58,0,0,0,494.29,445.22Z"/>
    <path class="cls-3" d="M500.88,437.49v1.74a3.73,3.73,0,0,1,1.24-1.41,3.17,3.17,0,0,1,1.72-.49,3.9,3.9,0,0,1,1.42.3l-.34,1.54a2.74,2.74,0,0,0-1.3-.34,2.26,2.26,0,0,0-2,1.26,7.18,7.18,0,0,0-.77,3.68v3.8h-1.66V437.49Z"/>
    <path class="cls-3" d="M508.23,447a4.62,4.62,0,0,1-1.7-1.91,5.94,5.94,0,0,1,0-5.16,4.85,4.85,0,0,1,6.83-1.91,4.73,4.73,0,0,1,1.69,1.91,5.94,5.94,0,0,1,0,5.16,4.67,4.67,0,0,1-1.69,1.91,4.56,4.56,0,0,1-2.56.71A4.62,4.62,0,0,1,508.23,447Zm4.26-1.29a3.18,3.18,0,0,0,1.07-1.37,4.6,4.6,0,0,0,.36-1.83,4.67,4.67,0,0,0-.36-1.83,3.3,3.3,0,0,0-1.07-1.37,3,3,0,0,0-3.38,0A3.41,3.41,0,0,0,508,440.7a4.5,4.5,0,0,0-.37,1.83,4.44,4.44,0,0,0,.37,1.83,3.28,3.28,0,0,0,1.08,1.37,3,3,0,0,0,3.38,0Z"/>
    <path class="cls-3" d="M516.68,437.49h1.7l2.16,7.86,2-7.86h1.58l2,7.86,2.18-7.86H530l-3.1,10.08h-1.56l-2-7.68-2,7.68h-1.58Z"/>
    <path class="cls-3" d="M532.22,446.93A3.7,3.7,0,0,1,531,445l1.38-.74a3.24,3.24,0,0,0,.87,1.48,2.13,2.13,0,0,0,1.51.52,1.63,1.63,0,0,0,1.17-.4,1.43,1.43,0,0,0,.43-1.12,1.24,1.24,0,0,0-.55-1,7.46,7.46,0,0,0-1.63-.8,4.88,4.88,0,0,1-1.85-1.1,2.4,2.4,0,0,1-.65-1.76,2.52,2.52,0,0,1,.83-1.95,3,3,0,0,1,2.11-.75,3.21,3.21,0,0,1,2.92,1.58l-1.08,1a2.11,2.11,0,0,0-1.86-1.06,1.4,1.4,0,0,0-.94.33,1.13,1.13,0,0,0-.38.89,1.1,1.1,0,0,0,.49.93,7,7,0,0,0,1.75.83q2.46.9,2.46,2.88a2.89,2.89,0,0,1-.88,2.24,3.27,3.27,0,0,1-2.34.82A3.75,3.75,0,0,1,532.22,446.93Z"/>
    <path class="cls-3" d="M548.58,442.79h-7.42a4.1,4.1,0,0,0,.84,2.5,2.59,2.59,0,0,0,2.12,1,2.89,2.89,0,0,0,1.7-.46,3.84,3.84,0,0,0,1.18-1.5l1.4.6a5.18,5.18,0,0,1-1.75,2.16,4.52,4.52,0,0,1-2.57.68,4.19,4.19,0,0,1-2.46-.71,4.56,4.56,0,0,1-1.59-1.9,6,6,0,0,1-.55-2.59,6.14,6.14,0,0,1,.55-2.61,4.59,4.59,0,0,1,1.59-1.89,4.34,4.34,0,0,1,2.46-.7,4.48,4.48,0,0,1,2.4.64,4.24,4.24,0,0,1,1.56,1.72,5.29,5.29,0,0,1,.54,2.4Zm-1.68-1.42a3.18,3.18,0,0,0-.9-1.87,2.9,2.9,0,0,0-3.72,0,3.31,3.31,0,0,0-1,1.9Z"/>
    <path class="cls-3" d="M552.68,437.49v1.74a3.65,3.65,0,0,1,1.24-1.41,3.17,3.17,0,0,1,1.72-.49,3.9,3.9,0,0,1,1.42.3l-.34,1.54a2.71,2.71,0,0,0-1.3-.34,2.26,2.26,0,0,0-2,1.26,7.18,7.18,0,0,0-.77,3.68v3.8H551V437.49Z"/>
  </g>
  <g>
    <path class="cls-3" d="M707.39,883.55h-6.12v-.64l5.9-10.34H709v9.48h1.77v1.5H709v3h-1.65Zm0-1.5V875l-3.94,7.08Z"/>
    <path class="cls-3" d="M713,886.28a1.15,1.15,0,0,1-.35-.87,1.23,1.23,0,1,1,2.46,0,1.24,1.24,0,0,1-2.11.87Z"/>
    <path class="cls-3" d="M728,872.57a4.22,4.22,0,0,1,3.07,1.07,4.46,4.46,0,0,1,0,5.84,4.17,4.17,0,0,1-3.07,1.07h-3.18v6H723v-14Zm1.78,5.73a2.94,2.94,0,0,0,0-3.48,2.34,2.34,0,0,0-1.8-.63h-3.16v4.74h3.16A2.34,2.34,0,0,0,729.73,878.3Z"/>
    <path class="cls-3" d="M734.21,886a2.86,2.86,0,0,1-.88-2.29,2.82,2.82,0,0,1,1.19-2.45,5.57,5.57,0,0,1,3.27-.85h1.75v-.44a2,2,0,0,0-.58-1.61,2.32,2.32,0,0,0-1.55-.51,2.15,2.15,0,0,0-2.2,1.64l-1.48-.34a3,3,0,0,1,1.23-2,4,4,0,0,1,2.45-.76,3.83,3.83,0,0,1,2.74,1,3.68,3.68,0,0,1,1,2.79v6.46h-1.31l-.29-1.46a3.49,3.49,0,0,1-3.14,1.62A3.23,3.23,0,0,1,734.21,886Zm3.86-1a2.56,2.56,0,0,0,1-1,3.32,3.32,0,0,0,.42-1.77v-.32h-1.69a3.7,3.7,0,0,0-2.1.48,1.57,1.57,0,0,0-.71,1.38,1.54,1.54,0,0,0,.46,1.18,1.73,1.73,0,0,0,1.25.42A2.87,2.87,0,0,0,738.07,884.92Z"/>
    <path class="cls-3" d="M744.31,889.93a2.9,2.9,0,0,1-1.17-2.44,2.65,2.65,0,0,1,.27-1.2,2.7,2.7,0,0,1,.71-.88,1.82,1.82,0,0,1-.72-1.62,2,2,0,0,1,.34-1.13,2.5,2.5,0,0,1,.9-.77,3.55,3.55,0,0,1-.26-3.95,3.21,3.21,0,0,1,1.26-1.19,3.8,3.8,0,0,1,1.78-.42,3.84,3.84,0,0,1,1.79.46l1.82-1,.71,1.24-1.42.76a3.32,3.32,0,0,1,.6,1.94,3.38,3.38,0,0,1-.46,1.79,3,3,0,0,1-1.25,1.18,3.8,3.8,0,0,1-1.79.41,3.89,3.89,0,0,1-1.76-.4,1.09,1.09,0,0,0-.7,1,.75.75,0,0,0,.33.68,1.37,1.37,0,0,0,.82.22h2.42a3.65,3.65,0,0,1,2.33.69,2.46,2.46,0,0,1,.86,2.05,3,3,0,0,1-1.19,2.62,6,6,0,0,1-6.22,0Zm5.09-1.07a1.6,1.6,0,0,0,.71-1.37,1.32,1.32,0,0,0-.49-1.15,2.32,2.32,0,0,0-1.38-.35h-1.82a8.57,8.57,0,0,1-1-.06,1.74,1.74,0,0,0-.67,1.52,1.64,1.64,0,0,0,.7,1.41,3.47,3.47,0,0,0,2,.51A3.23,3.23,0,0,0,749.4,888.86Zm-.61-7.69a2.18,2.18,0,0,0,0-2.92,1.86,1.86,0,0,0-1.37-.54,1.89,1.89,0,0,0-1.37.54,2.21,2.21,0,0,0,0,2.92,1.89,1.89,0,0,0,1.37.54A1.86,1.86,0,0,0,748.79,881.17Z"/>
    <path class="cls-3" d="M762.06,881.79h-7.42a4.1,4.1,0,0,0,.85,2.5,2.58,2.58,0,0,0,2.12,1,2.84,2.84,0,0,0,1.69-.46,3.76,3.76,0,0,0,1.19-1.5l1.39.6a5.11,5.11,0,0,1-1.75,2.16,4.49,4.49,0,0,1-2.57.68,4.18,4.18,0,0,1-2.45-.71,4.42,4.42,0,0,1-1.59-1.9,6,6,0,0,1-.56-2.59,6.14,6.14,0,0,1,.56-2.61,4.45,4.45,0,0,1,1.59-1.89,4.33,4.33,0,0,1,2.45-.7,4.43,4.43,0,0,1,2.4.64,4.27,4.27,0,0,1,1.57,1.72,5.42,5.42,0,0,1,.53,2.4Zm-1.68-1.42a3.17,3.17,0,0,0-.89-1.87,2.67,2.67,0,0,0-1.93-.69,2.62,2.62,0,0,0-1.79.66,3.31,3.31,0,0,0-1,1.9Z"/>
    <path class="cls-3" d="M769.49,874.44a1.15,1.15,0,0,1-.35-.85,1.18,1.18,0,0,1,.35-.86,1.23,1.23,0,0,1,.86-.34,1.21,1.21,0,0,1,.86.34,1.14,1.14,0,0,1,.35.86,1.11,1.11,0,0,1-.35.86,1.17,1.17,0,0,1-.86.34A1.15,1.15,0,0,1,769.49,874.44Zm0,2h1.66v10.08h-1.66Z"/>
    <path class="cls-3" d="M774.52,885.93a3.7,3.7,0,0,1-1.26-1.94l1.38-.74a3.24,3.24,0,0,0,.87,1.48,2.15,2.15,0,0,0,1.51.52,1.61,1.61,0,0,0,1.17-.4,1.43,1.43,0,0,0,.43-1.12,1.24,1.24,0,0,0-.55-1,7.24,7.24,0,0,0-1.63-.8,5,5,0,0,1-1.85-1.1,2.4,2.4,0,0,1-.65-1.76,2.52,2.52,0,0,1,.83-1.95,3,3,0,0,1,2.11-.75,3.21,3.21,0,0,1,2.92,1.58l-1.08,1a2.11,2.11,0,0,0-1.85-1.06,1.41,1.41,0,0,0-1,.33,1.13,1.13,0,0,0-.38.89,1.11,1.11,0,0,0,.5.93,6.65,6.65,0,0,0,1.75.83c1.63.6,2.45,1.56,2.45,2.88a2.92,2.92,0,0,1-.87,2.24,3.3,3.3,0,0,1-2.35.82A3.75,3.75,0,0,1,774.52,885.93Z"/>
    <path class="cls-3" d="M786.42,876.49h1.7l2.54,8,2.52-8h1.7l-3.4,10.08h-1.66Z"/>
    <path class="cls-3" d="M796.65,874.44a1.15,1.15,0,0,1-.35-.85,1.18,1.18,0,0,1,.35-.86,1.22,1.22,0,0,1,.85-.34,1.26,1.26,0,0,1,.88.34,1.17,1.17,0,0,1,.34.86,1.14,1.14,0,0,1-.34.86,1.21,1.21,0,0,1-.88.34A1.15,1.15,0,0,1,796.65,874.44Zm0,2h1.66v10.08h-1.66Z"/>
    <path class="cls-3" d="M809.84,881.79h-7.42a4.1,4.1,0,0,0,.84,2.5,2.59,2.59,0,0,0,2.12,1,2.87,2.87,0,0,0,1.7-.46,3.75,3.75,0,0,0,1.18-1.5l1.4.6a5.18,5.18,0,0,1-1.75,2.16,4.49,4.49,0,0,1-2.57.68,4.24,4.24,0,0,1-2.46-.71,4.56,4.56,0,0,1-1.59-1.9,6.17,6.17,0,0,1-.55-2.59,6.29,6.29,0,0,1,.55-2.61,4.59,4.59,0,0,1,1.59-1.89,4.38,4.38,0,0,1,2.46-.7,4.48,4.48,0,0,1,2.4.64,4.24,4.24,0,0,1,1.56,1.72,5.29,5.29,0,0,1,.54,2.4Zm-1.68-1.42a3.18,3.18,0,0,0-.9-1.87,2.9,2.9,0,0,0-3.72,0,3.43,3.43,0,0,0-1,1.9Z"/>
    <path class="cls-3" d="M810.94,876.49h1.7l2.16,7.86,2-7.86h1.58l2,7.86,2.18-7.86h1.7l-3.1,10.08h-1.56l-2-7.68-2,7.68H814Z"/>
    <path class="cls-3" d="M826.12,886a2.89,2.89,0,0,1-.88-2.29,2.83,2.83,0,0,1,1.2-2.45,5.57,5.57,0,0,1,3.27-.85h1.75v-.44a2,2,0,0,0-.58-1.61,2.33,2.33,0,0,0-1.56-.51,2.15,2.15,0,0,0-2.2,1.64l-1.48-.34a3,3,0,0,1,1.24-2,4,4,0,0,1,2.44-.76,3.79,3.79,0,0,1,2.74,1,3.65,3.65,0,0,1,1.05,2.79v6.46H831.8l-.3-1.46a3.46,3.46,0,0,1-3.13,1.62A3.27,3.27,0,0,1,826.12,886Zm3.86-1a2.52,2.52,0,0,0,1.06-1,3.41,3.41,0,0,0,.42-1.77v-.32h-1.69a3.76,3.76,0,0,0-2.11.48,1.59,1.59,0,0,0-.7,1.38,1.57,1.57,0,0,0,.45,1.18,1.77,1.77,0,0,0,1.25.42A2.81,2.81,0,0,0,830,884.92Z"/>
    <path class="cls-3" d="M838.73,886.31a3.13,3.13,0,0,1-1.19-1v1.22h-1.66V872.41h1.66v5.34a3.83,3.83,0,0,1,1.28-1,3.68,3.68,0,0,1,1.66-.39,4.43,4.43,0,0,1,2.46.67,4.18,4.18,0,0,1,1.54,1.85,7.17,7.17,0,0,1,0,5.36,4.07,4.07,0,0,1-1.54,1.85,4.35,4.35,0,0,1-2.46.67A3.86,3.86,0,0,1,838.73,886.31Zm3.76-2.09a4.92,4.92,0,0,0,0-5.38,2.78,2.78,0,0,0-4.32,0,5,5,0,0,0,0,5.38,2.79,2.79,0,0,0,4.33,0Z"/>
    <path class="cls-3" d="M847.42,872.41h1.66v14.16h-1.66Z"/>
    <path class="cls-3" d="M860.6,881.79h-7.42a4.1,4.1,0,0,0,.84,2.5,2.59,2.59,0,0,0,2.12,1,2.87,2.87,0,0,0,1.7-.46,3.75,3.75,0,0,0,1.18-1.5l1.4.6a5.18,5.18,0,0,1-1.75,2.16,4.49,4.49,0,0,1-2.57.68,4.24,4.24,0,0,1-2.46-.71,4.56,4.56,0,0,1-1.59-1.9,6.17,6.17,0,0,1-.55-2.59,6.29,6.29,0,0,1,.55-2.61,4.59,4.59,0,0,1,1.59-1.89,4.38,4.38,0,0,1,2.46-.7,4.48,4.48,0,0,1,2.4.64,4.24,4.24,0,0,1,1.56,1.72,5.29,5.29,0,0,1,.54,2.4Zm-1.68-1.42a3.18,3.18,0,0,0-.9-1.87,2.9,2.9,0,0,0-3.72,0,3.43,3.43,0,0,0-1,1.9Z"/>
    <path class="cls-3" d="M868.4,886a2.89,2.89,0,0,1-.88-2.29,2.85,2.85,0,0,1,1.19-2.45,5.61,5.61,0,0,1,3.27-.85h1.76v-.44a2,2,0,0,0-.59-1.61,2.28,2.28,0,0,0-1.55-.51,2.15,2.15,0,0,0-2.2,1.64l-1.48-.34a3.06,3.06,0,0,1,1.23-2,4.08,4.08,0,0,1,2.45-.76,3.79,3.79,0,0,1,2.74,1,3.64,3.64,0,0,1,1,2.79v6.46h-1.3l-.3-1.46a3.48,3.48,0,0,1-3.14,1.62A3.26,3.26,0,0,1,868.4,886Zm3.86-1a2.58,2.58,0,0,0,1.06-1,3.41,3.41,0,0,0,.42-1.77v-.32H872a3.75,3.75,0,0,0-2.1.48,1.59,1.59,0,0,0-.7,1.38,1.53,1.53,0,0,0,.45,1.18,1.77,1.77,0,0,0,1.25.42A2.81,2.81,0,0,0,872.26,884.92Z"/>
    <path class="cls-3" d="M879.8,876.49v1.94a4.29,4.29,0,0,1,1.43-1.53,3.49,3.49,0,0,1,1.91-.57,3,3,0,0,1,2.26.84,3.23,3.23,0,0,1,.84,2.38v7H884.6v-6.66a2.28,2.28,0,0,0-.47-1.57,1.76,1.76,0,0,0-1.39-.53,2.34,2.34,0,0,0-1.49.54,3.68,3.68,0,0,0-1.06,1.55,6.62,6.62,0,0,0-.39,2.37v4.3h-1.66V876.49Z"/>
    <path class="cls-3" d="M890.7,886.06a4.22,4.22,0,0,1-1.52-1.85,7.17,7.17,0,0,1,0-5.36,4.07,4.07,0,0,1,3.94-2.52,4,4,0,0,1,1.74.38,3.54,3.54,0,0,1,1.28,1v-5.34h1.64v14.16h-1.64v-1.32a3,3,0,0,1-1.22,1,3.75,3.75,0,0,1-1.8.44A4.24,4.24,0,0,1,890.7,886.06Zm4.8-1.83a5,5,0,0,0,0-5.39,2.58,2.58,0,0,0-2.16-1,2.61,2.61,0,0,0-2.17,1,5,5,0,0,0,0,5.38,2.8,2.8,0,0,0,4.33,0Z"/>
    <path class="cls-3" d="M904.52,878v-1.48H906v-.6a3.64,3.64,0,0,1,.85-2.62,3.24,3.24,0,0,1,2.39-.86,3.13,3.13,0,0,1,1.42.3l-.36,1.42a2.51,2.51,0,0,0-1.08-.24,1.52,1.52,0,0,0-1.17.45,2,2,0,0,0-.41,1.35v.8H910V878h-2.34v8.6H906V878Z"/>
    <path class="cls-3" d="M912.62,885.89a3.21,3.21,0,0,1-.84-2.38v-7h1.66v6.66a2.3,2.3,0,0,0,.47,1.57,1.72,1.72,0,0,0,1.37.53,2.34,2.34,0,0,0,1.5-.54,3.5,3.5,0,0,0,1.07-1.56,6.63,6.63,0,0,0,.39-2.38v-4.28h1.64v10.08h-1.64v-1.94a4.21,4.21,0,0,1-1.43,1.53,3.49,3.49,0,0,1-1.93.57A3.06,3.06,0,0,1,912.62,885.89Z"/>
    <path class="cls-3" d="M922.88,872.41h1.66v14.16h-1.66Z"/>
    <path class="cls-3" d="M927.54,872.41h1.66v14.16h-1.66Z"/>
    <path class="cls-3" d="M938,876.49h1.68l-5.06,14.16H933l1.54-4.36-3.62-9.8h1.7l2.74,7.46Z"/>
    <path class="cls-3" d="M946.35,874.44a1.15,1.15,0,0,1-.35-.85,1.18,1.18,0,0,1,.35-.86,1.26,1.26,0,0,1,1.72,0,1.18,1.18,0,0,1,.35.86,1.15,1.15,0,0,1-.35.86,1.18,1.18,0,0,1-.87.34A1.15,1.15,0,0,1,946.35,874.44Zm0,2H948v10.08h-1.66Z"/>
    <path class="cls-3" d="M952.68,876.49v1.94a4.29,4.29,0,0,1,1.43-1.53,3.49,3.49,0,0,1,1.91-.57,3,3,0,0,1,2.26.84,3.23,3.23,0,0,1,.84,2.38v7h-1.64v-6.66a2.34,2.34,0,0,0-.47-1.57,1.77,1.77,0,0,0-1.39-.53,2.32,2.32,0,0,0-1.49.54,3.68,3.68,0,0,0-1.06,1.55,6.62,6.62,0,0,0-.39,2.37v4.3H951V876.49Z"/>
    <path class="cls-3" d="M963.16,885.92a3.38,3.38,0,0,1-.78-2.43V878h-1.7v-1.48h1.7v-3l1.66-1.06v4.08h2.7V878H964v5.64c0,1.1.47,1.64,1.4,1.64a2.24,2.24,0,0,0,1.16-.28l.42,1.4a3.8,3.8,0,0,1-1.72.36A2.83,2.83,0,0,1,963.16,885.92Z"/>
    <path class="cls-3" d="M977,881.79h-7.42a4.1,4.1,0,0,0,.84,2.5,2.59,2.59,0,0,0,2.12,1,2.87,2.87,0,0,0,1.7-.46,3.75,3.75,0,0,0,1.18-1.5l1.4.6a5.18,5.18,0,0,1-1.75,2.16,4.49,4.49,0,0,1-2.57.68,4.24,4.24,0,0,1-2.46-.71,4.56,4.56,0,0,1-1.59-1.9,6,6,0,0,1-.55-2.59,6.14,6.14,0,0,1,.55-2.61,4.59,4.59,0,0,1,1.59-1.89,4.38,4.38,0,0,1,2.46-.7,4.48,4.48,0,0,1,2.4.64,4.24,4.24,0,0,1,1.56,1.72,5.29,5.29,0,0,1,.54,2.4Zm-1.68-1.42a3.18,3.18,0,0,0-.9-1.87,2.9,2.9,0,0,0-3.72,0,3.31,3.31,0,0,0-1,1.9Z"/>
    <path class="cls-3" d="M981.14,876.49v1.74a3.73,3.73,0,0,1,1.24-1.41,3.17,3.17,0,0,1,1.72-.49,3.86,3.86,0,0,1,1.42.3l-.34,1.54a2.71,2.71,0,0,0-1.3-.34,2.28,2.28,0,0,0-2,1.26,7.18,7.18,0,0,0-.77,3.68v3.8h-1.66V876.49Z"/>
    <path class="cls-3" d="M987.12,886a2.89,2.89,0,0,1-.88-2.29,2.85,2.85,0,0,1,1.19-2.45,5.57,5.57,0,0,1,3.27-.85h1.76v-.44a2,2,0,0,0-.59-1.61,2.28,2.28,0,0,0-1.55-.51,2.15,2.15,0,0,0-2.2,1.64l-1.48-.34a3.06,3.06,0,0,1,1.23-2,4.08,4.08,0,0,1,2.45-.76,3.79,3.79,0,0,1,2.74,1,3.68,3.68,0,0,1,1,2.79v6.46h-1.3l-.3-1.46a3.48,3.48,0,0,1-3.14,1.62A3.26,3.26,0,0,1,987.12,886Zm3.86-1a2.58,2.58,0,0,0,1.06-1,3.41,3.41,0,0,0,.42-1.77v-.32h-1.7a3.75,3.75,0,0,0-2.1.48,1.59,1.59,0,0,0-.7,1.38,1.53,1.53,0,0,0,.45,1.18,1.77,1.77,0,0,0,1.25.42A2.84,2.84,0,0,0,991,884.92Z"/>
    <path class="cls-3" d="M998.4,886a4.49,4.49,0,0,1-1.57-1.9,6.23,6.23,0,0,1-.53-2.58,6.3,6.3,0,0,1,.53-2.58,4.55,4.55,0,0,1,1.57-1.9,4.3,4.3,0,0,1,2.52-.72,4.11,4.11,0,0,1,4.22,2.82l-1.48.58a2.77,2.77,0,0,0-2.74-1.92,2.48,2.48,0,0,0-2.16,1,5.2,5.2,0,0,0,0,5.35,2.47,2.47,0,0,0,2.16,1,2.74,2.74,0,0,0,1.66-.48,3.42,3.42,0,0,0,1.08-1.44l1.48.58a4.27,4.27,0,0,1-1.61,2.11,4.55,4.55,0,0,1-2.61.71A4.3,4.3,0,0,1,998.4,886Z"/>
    <path class="cls-3" d="M1008.64,885.92a3.38,3.38,0,0,1-.78-2.43V878h-1.7v-1.48h1.7v-3l1.66-1.06v4.08h2.7V878h-2.7v5.64c0,1.1.47,1.64,1.4,1.64a2.22,2.22,0,0,0,1.16-.28l.42,1.4a3.8,3.8,0,0,1-1.72.36A2.84,2.84,0,0,1,1008.64,885.92Z"/>
    <path class="cls-3" d="M1014.68,886a3.25,3.25,0,0,1,.31-4.74,5.61,5.61,0,0,1,3.27-.85H1020v-.44a2,2,0,0,0-.59-1.61,2.28,2.28,0,0,0-1.55-.51,2.15,2.15,0,0,0-2.2,1.64l-1.48-.34a3,3,0,0,1,1.23-2,4.06,4.06,0,0,1,2.45-.76,3.81,3.81,0,0,1,2.74,1,3.68,3.68,0,0,1,1,2.79v6.46h-1.3l-.3-1.46a3.48,3.48,0,0,1-3.14,1.62A3.25,3.25,0,0,1,1014.68,886Zm3.86-1a2.58,2.58,0,0,0,1.06-1,3.41,3.41,0,0,0,.42-1.77v-.32h-1.7a3.75,3.75,0,0,0-2.1.48,1.56,1.56,0,0,0-.7,1.38,1.53,1.53,0,0,0,.45,1.18,1.77,1.77,0,0,0,1.25.42A2.84,2.84,0,0,0,1018.54,884.92Z"/>
    <path class="cls-3" d="M1027.29,886.31a3.06,3.06,0,0,1-1.19-1v1.22h-1.66V872.41h1.66v5.34a3.83,3.83,0,0,1,1.28-1,3.68,3.68,0,0,1,1.66-.39,4.43,4.43,0,0,1,2.46.67,4.18,4.18,0,0,1,1.54,1.85,7.17,7.17,0,0,1,0,5.36,4.07,4.07,0,0,1-1.54,1.85,4.35,4.35,0,0,1-2.46.67A3.86,3.86,0,0,1,1027.29,886.31Zm3.76-2.09a5,5,0,0,0,0-5.38,2.78,2.78,0,0,0-4.32,0,5,5,0,0,0,0,5.38,2.79,2.79,0,0,0,4.33,0Z"/>
    <path class="cls-3" d="M1036,872.41h1.66v14.16H1036Z"/>
    <path class="cls-3" d="M1049.16,881.79h-7.42a4.1,4.1,0,0,0,.84,2.5,2.59,2.59,0,0,0,2.12,1,2.89,2.89,0,0,0,1.7-.46,3.84,3.84,0,0,0,1.18-1.5l1.4.6a5.18,5.18,0,0,1-1.75,2.16,4.52,4.52,0,0,1-2.57.68,4.19,4.19,0,0,1-2.46-.71,4.56,4.56,0,0,1-1.59-1.9,6,6,0,0,1-.55-2.59,6.14,6.14,0,0,1,.55-2.61,4.59,4.59,0,0,1,1.59-1.89,4.34,4.34,0,0,1,2.46-.7,4.48,4.48,0,0,1,2.4.64,4.24,4.24,0,0,1,1.56,1.72,5.29,5.29,0,0,1,.54,2.4Zm-1.68-1.42a3.18,3.18,0,0,0-.9-1.87,2.9,2.9,0,0,0-3.72,0,3.31,3.31,0,0,0-1,1.9Z"/>
  </g>
  <g>
    <path class="cls-3" d="M173.38,885.65a4.43,4.43,0,0,1-1.42-2.94l1.63-.22a3.42,3.42,0,0,0,.9,2,2.51,2.51,0,0,0,1.89.73,2.72,2.72,0,0,0,2.11-.8,3.11,3.11,0,0,0,.73-2.2,3.15,3.15,0,0,0-.75-2.25,2.72,2.72,0,0,0-2.06-.79,2.38,2.38,0,0,0-1.24.34l-.74-1,3.29-4.46h-5.08v-1.5h7.57v.52l-3.62,4.84a1.81,1.81,0,0,1,.52-.06,3.73,3.73,0,0,1,1.91.52,3.66,3.66,0,0,1,1.37,1.51,5.32,5.32,0,0,1,0,4.67,4,4,0,0,1-1.58,1.59,4.83,4.83,0,0,1-2.39.57A4.33,4.33,0,0,1,173.38,885.65Z"/>
    <path class="cls-3" d="M183.38,886.28a1.15,1.15,0,0,1-.35-.87,1.19,1.19,0,0,1,.35-.89,1.18,1.18,0,0,1,.86-.35,1.2,1.2,0,0,1,1.24,1.24,1.15,1.15,0,0,1-.35.87,1.16,1.16,0,0,1-.89.35A1.14,1.14,0,0,1,183.38,886.28Z"/>
    <path class="cls-3" d="M193.51,885.72a4.21,4.21,0,0,1-1.25-2.59l1.77-.38a3.07,3.07,0,0,0,.73,1.75,2.08,2.08,0,0,0,1.58.61,2.31,2.31,0,0,0,1.73-.66,2.8,2.8,0,0,0,.65-2.06v-9.82h1.73v9.64a4.58,4.58,0,0,1-1.15,3.38,4,4,0,0,1-3,1.14A3.89,3.89,0,0,1,193.51,885.72Z"/>
    <path class="cls-3" d="M203.8,886a2.89,2.89,0,0,1-.88-2.29,2.83,2.83,0,0,1,1.2-2.45,5.56,5.56,0,0,1,3.26-.85h1.76v-.44a2,2,0,0,0-.59-1.61,2.28,2.28,0,0,0-1.55-.51,2.15,2.15,0,0,0-2.2,1.64l-1.48-.34a3.06,3.06,0,0,1,1.23-2,4.08,4.08,0,0,1,2.45-.76,3.79,3.79,0,0,1,2.74,1,3.65,3.65,0,0,1,1,2.79v6.46h-1.31l-.3-1.46a3.47,3.47,0,0,1-3.14,1.62A3.26,3.26,0,0,1,203.8,886Zm3.86-1a2.52,2.52,0,0,0,1.06-1,3.41,3.41,0,0,0,.42-1.77v-.32h-1.69a3.76,3.76,0,0,0-2.11.48,1.59,1.59,0,0,0-.7,1.38,1.53,1.53,0,0,0,.45,1.18,1.77,1.77,0,0,0,1.25.42A2.81,2.81,0,0,0,207.66,884.92Z"/>
    <path class="cls-3" d="M212.08,876.49h1.71l2.53,8,2.52-8h1.7l-3.4,10.08h-1.66Z"/>
    <path class="cls-3" d="M222.4,886a2.88,2.88,0,0,1-.87-2.29,2.84,2.84,0,0,1,1.18-2.45,5.61,5.61,0,0,1,3.27-.85h1.76v-.44a2,2,0,0,0-.59-1.61,2.27,2.27,0,0,0-1.54-.51,2.16,2.16,0,0,0-2.21,1.64l-1.47-.34a3,3,0,0,1,1.22-2,4.09,4.09,0,0,1,2.46-.76,3.83,3.83,0,0,1,2.74,1,3.68,3.68,0,0,1,1,2.79v6.46h-1.3l-.29-1.46a3.5,3.5,0,0,1-3.15,1.62A3.26,3.26,0,0,1,222.4,886Zm3.87-1a2.62,2.62,0,0,0,1-1,3.32,3.32,0,0,0,.42-1.77v-.32H226a3.69,3.69,0,0,0-2.09.48,1.57,1.57,0,0,0-.71,1.38,1.5,1.5,0,0,0,.46,1.18,1.73,1.73,0,0,0,1.25.42A2.87,2.87,0,0,0,226.27,884.92Z"/>
    <path class="cls-3" d="M233.83,886.22a4.57,4.57,0,0,1-2.38-3.31l1.43-.9q.75,3.11,3.1,3.1a2.18,2.18,0,0,0,2.31-2.38,2.12,2.12,0,0,0-.41-1.3,3.22,3.22,0,0,0-1-.9c-.4-.24-1-.53-1.7-.88A6.64,6.64,0,0,1,233,878.1a3.28,3.28,0,0,1-.8-2.27,3.38,3.38,0,0,1,.47-1.76,3.26,3.26,0,0,1,1.25-1.22,3.75,3.75,0,0,1,1.8-.44A3.9,3.9,0,0,1,238,873a3.8,3.8,0,0,1,1.34,1.69l-1.42.9a2.2,2.2,0,0,0-2.16-1.56,1.78,1.78,0,0,0-1.31.5,1.63,1.63,0,0,0-.5,1.2,1.93,1.93,0,0,0,.37,1.2,3.12,3.12,0,0,0,1,.84,13.43,13.43,0,0,0,1.54.78,7.31,7.31,0,0,1,2.39,1.63,3.6,3.6,0,0,1,.83,2.47,4.12,4.12,0,0,1-.53,2.14,3.65,3.65,0,0,1-1.46,1.43,4.26,4.26,0,0,1-2.09.51A4.53,4.53,0,0,1,233.83,886.22Z"/>
    <path class="cls-3" d="M244,886a4.57,4.57,0,0,1-1.57-1.9,6.23,6.23,0,0,1-.53-2.58,6.3,6.3,0,0,1,.53-2.58,4.63,4.63,0,0,1,1.57-1.9,4.35,4.35,0,0,1,2.52-.72,4.1,4.1,0,0,1,4.22,2.82l-1.48.58a2.77,2.77,0,0,0-2.74-1.92,2.51,2.51,0,0,0-2.16,1,5.2,5.2,0,0,0,0,5.35,2.49,2.49,0,0,0,2.16,1,2.74,2.74,0,0,0,1.66-.48,3.42,3.42,0,0,0,1.08-1.44l1.48.58a4.21,4.21,0,0,1-1.61,2.11,4.55,4.55,0,0,1-2.61.71A4.35,4.35,0,0,1,244,886Z"/>
    <path class="cls-3" d="M254.66,876.49v1.74a3.73,3.73,0,0,1,1.24-1.41,3.17,3.17,0,0,1,1.72-.49,3.86,3.86,0,0,1,1.42.3l-.33,1.54a2.78,2.78,0,0,0-1.31-.34,2.28,2.28,0,0,0-2,1.26,7.18,7.18,0,0,0-.77,3.68v3.8H253V876.49Z"/>
    <path class="cls-3" d="M260.81,874.44a1.15,1.15,0,0,1-.35-.85,1.18,1.18,0,0,1,.35-.86,1.22,1.22,0,0,1,.85-.34,1.26,1.26,0,0,1,.88.34,1.17,1.17,0,0,1,.34.86,1.14,1.14,0,0,1-.34.86,1.21,1.21,0,0,1-.88.34A1.15,1.15,0,0,1,260.81,874.44Zm0,2h1.66v10.08h-1.66Z"/>
    <path class="cls-3" d="M267.16,876.49v1.3a3.15,3.15,0,0,1,1.17-1,3.69,3.69,0,0,1,1.77-.44,4.43,4.43,0,0,1,2.46.67,4.18,4.18,0,0,1,1.54,1.85,7.17,7.17,0,0,1,0,5.36,4.07,4.07,0,0,1-1.54,1.85,4.35,4.35,0,0,1-2.46.67,3.89,3.89,0,0,1-1.68-.39,3.16,3.16,0,0,1-1.26-1v5.34H265.5V876.49Zm4.95,7.73a5,5,0,0,0,0-5.38,2.79,2.79,0,0,0-4.33,0,5,5,0,0,0,0,5.38,2.78,2.78,0,0,0,4.32,0Z"/>
    <path class="cls-3" d="M278.16,885.92a3.38,3.38,0,0,1-.78-2.43V878h-1.7v-1.48h1.7v-3l1.66-1.06v4.08h2.7V878H279v5.64c0,1.1.47,1.64,1.4,1.64a2.22,2.22,0,0,0,1.16-.28l.42,1.4a3.8,3.8,0,0,1-1.72.36A2.84,2.84,0,0,1,278.16,885.92Z"/>
    <path class="cls-3" d="M289,872.41h1.66v14.16H289Z"/>
    <path class="cls-3" d="M295.39,886a4.69,4.69,0,0,1-1.7-1.91,5.94,5.94,0,0,1,0-5.16,4.76,4.76,0,0,1,1.7-1.91,4.7,4.7,0,0,1,2.57-.71,4.58,4.58,0,0,1,4.25,2.62,5.94,5.94,0,0,1,0,5.16,4.6,4.6,0,0,1-1.69,1.91,4.54,4.54,0,0,1-2.56.71A4.62,4.62,0,0,1,295.39,886Zm4.26-1.29a3.11,3.11,0,0,0,1.07-1.37,4.6,4.6,0,0,0,.36-1.83,4.67,4.67,0,0,0-.36-1.83,3.22,3.22,0,0,0-1.07-1.37,2.8,2.8,0,0,0-1.69-.52,2.85,2.85,0,0,0-1.69.52,3.41,3.41,0,0,0-1.08,1.37,4.67,4.67,0,0,0-.37,1.83,4.6,4.6,0,0,0,.37,1.83,3.28,3.28,0,0,0,1.08,1.37,2.78,2.78,0,0,0,1.69.52A2.74,2.74,0,0,0,299.65,884.73Z"/>
    <path class="cls-3" d="M305.44,886a2.89,2.89,0,0,1-.88-2.29,2.85,2.85,0,0,1,1.19-2.45,5.61,5.61,0,0,1,3.27-.85h1.76v-.44a2,2,0,0,0-.59-1.61,2.28,2.28,0,0,0-1.55-.51,2.15,2.15,0,0,0-2.2,1.64l-1.48-.34a3.06,3.06,0,0,1,1.23-2,4.08,4.08,0,0,1,2.45-.76,3.79,3.79,0,0,1,2.74,1,3.64,3.64,0,0,1,1,2.79v6.46h-1.3l-.3-1.46a3.48,3.48,0,0,1-3.14,1.62A3.26,3.26,0,0,1,305.44,886Zm3.86-1a2.58,2.58,0,0,0,1.06-1,3.41,3.41,0,0,0,.42-1.77v-.32h-1.7a3.75,3.75,0,0,0-2.1.48,1.59,1.59,0,0,0-.7,1.38,1.53,1.53,0,0,0,.45,1.18,1.77,1.77,0,0,0,1.25.42A2.81,2.81,0,0,0,309.3,884.92Z"/>
    <path class="cls-3" d="M316.66,886.06a4.22,4.22,0,0,1-1.52-1.85,7.17,7.17,0,0,1,0-5.36,4.07,4.07,0,0,1,3.94-2.52,4,4,0,0,1,1.74.38,3.54,3.54,0,0,1,1.28,1v-5.34h1.64v14.16H322.1v-1.32a3,3,0,0,1-1.22,1,3.75,3.75,0,0,1-1.8.44A4.24,4.24,0,0,1,316.66,886.06Zm4.8-1.83a5,5,0,0,0,0-5.39,2.58,2.58,0,0,0-2.16-1,2.61,2.61,0,0,0-2.17,1,5,5,0,0,0,0,5.38,2.8,2.8,0,0,0,4.33,0Z"/>
    <path class="cls-3" d="M327.14,885.93a3.7,3.7,0,0,1-1.26-1.94l1.38-.74a3.24,3.24,0,0,0,.87,1.48,2.15,2.15,0,0,0,1.51.52,1.63,1.63,0,0,0,1.17-.4,1.43,1.43,0,0,0,.43-1.12,1.24,1.24,0,0,0-.55-1,7.24,7.24,0,0,0-1.63-.8,5,5,0,0,1-1.85-1.1,2.4,2.4,0,0,1-.65-1.76,2.52,2.52,0,0,1,.83-1.95,3,3,0,0,1,2.11-.75,3.22,3.22,0,0,1,2.92,1.58l-1.08,1a2.11,2.11,0,0,0-1.86-1.06,1.38,1.38,0,0,0-.94.33,1.13,1.13,0,0,0-.38.89,1.12,1.12,0,0,0,.49.93,7,7,0,0,0,1.75.83q2.46.9,2.46,2.88a2.89,2.89,0,0,1-.88,2.24,3.26,3.26,0,0,1-2.34.82A3.75,3.75,0,0,1,327.14,885.93Z"/>
    <path class="cls-3" d="M340.21,874.44a1.15,1.15,0,0,1-.35-.85,1.18,1.18,0,0,1,.35-.86,1.26,1.26,0,0,1,1.72,0,1.14,1.14,0,0,1,.35.86,1.11,1.11,0,0,1-.35.86,1.18,1.18,0,0,1-.87.34A1.15,1.15,0,0,1,340.21,874.44Zm0,2h1.66v10.08h-1.66Z"/>
    <path class="cls-3" d="M346.54,876.49v1.94A4.29,4.29,0,0,1,348,876.9a3.49,3.49,0,0,1,1.91-.57,3,3,0,0,1,2.26.84,3.23,3.23,0,0,1,.84,2.38v7h-1.64v-6.66a2.28,2.28,0,0,0-.47-1.57,1.76,1.76,0,0,0-1.39-.53,2.34,2.34,0,0,0-1.49.54,3.59,3.59,0,0,0-1.06,1.55,6.62,6.62,0,0,0-.39,2.37v4.3h-1.66V876.49Z"/>
    <path class="cls-3" d="M362.2,885.92a3.38,3.38,0,0,1-.78-2.43V878h-1.7v-1.48h1.7v-3l1.66-1.06v4.08h2.7V878h-2.7v5.64c0,1.1.47,1.64,1.4,1.64a2.22,2.22,0,0,0,1.16-.28l.42,1.4a3.8,3.8,0,0,1-1.72.36A2.84,2.84,0,0,1,362.2,885.92Z"/>
    <path class="cls-3" d="M369.48,872.41v6.1a3.69,3.69,0,0,1,1.44-1.61,3.84,3.84,0,0,1,2-.57,3.13,3.13,0,0,1,2.31.83,3.26,3.26,0,0,1,.83,2.39v7h-1.64V880a2.36,2.36,0,0,0-.48-1.59,1.8,1.8,0,0,0-1.42-.55,2.49,2.49,0,0,0-1.52.53,3.62,3.62,0,0,0-1.12,1.55,6.28,6.28,0,0,0-.42,2.4v4.28h-1.66V872.41Z"/>
    <path class="cls-3" d="M387.6,881.79h-7.42a4.1,4.1,0,0,0,.84,2.5,2.59,2.59,0,0,0,2.12,1,2.89,2.89,0,0,0,1.7-.46,3.84,3.84,0,0,0,1.18-1.5l1.4.6a5.18,5.18,0,0,1-1.75,2.16,4.52,4.52,0,0,1-2.57.68,4.19,4.19,0,0,1-2.46-.71,4.56,4.56,0,0,1-1.59-1.9,6.17,6.17,0,0,1-.55-2.59,6.29,6.29,0,0,1,.55-2.61,4.59,4.59,0,0,1,1.59-1.89,4.34,4.34,0,0,1,2.46-.7,4.48,4.48,0,0,1,2.4.64,4.24,4.24,0,0,1,1.56,1.72,5.29,5.29,0,0,1,.54,2.4Zm-1.68-1.42a3.18,3.18,0,0,0-.9-1.87,2.9,2.9,0,0,0-3.72,0,3.37,3.37,0,0,0-1,1.9Z"/>
    <path class="cls-3" d="M397.91,886.31a3.06,3.06,0,0,1-1.19-1v1.22h-1.66V872.41h1.66v5.34a3.74,3.74,0,0,1,1.28-1,3.65,3.65,0,0,1,1.66-.39,4.43,4.43,0,0,1,2.46.67,4.24,4.24,0,0,1,1.54,1.85,7.17,7.17,0,0,1,0,5.36,4.13,4.13,0,0,1-1.54,1.85,4.35,4.35,0,0,1-2.46.67A3.83,3.83,0,0,1,397.91,886.31Zm3.76-2.09a5,5,0,0,0,0-5.38,2.78,2.78,0,0,0-4.32,0,5,5,0,0,0,0,5.38,2.55,2.55,0,0,0,2.16,1A2.58,2.58,0,0,0,401.67,884.22Z"/>
    <path class="cls-3" d="M406.82,886a3.25,3.25,0,0,1,.31-4.74,5.61,5.61,0,0,1,3.27-.85h1.76v-.44a2,2,0,0,0-.59-1.61,2.28,2.28,0,0,0-1.55-.51,2.15,2.15,0,0,0-2.2,1.64l-1.48-.34a3,3,0,0,1,1.23-2,4.06,4.06,0,0,1,2.45-.76,3.81,3.81,0,0,1,2.74,1,3.64,3.64,0,0,1,1,2.79v6.46h-1.3l-.3-1.46a3.48,3.48,0,0,1-3.14,1.62A3.25,3.25,0,0,1,406.82,886Zm3.86-1a2.58,2.58,0,0,0,1.06-1,3.41,3.41,0,0,0,.42-1.77v-.32h-1.7a3.75,3.75,0,0,0-2.1.48,1.56,1.56,0,0,0-.7,1.38,1.53,1.53,0,0,0,.45,1.18,1.77,1.77,0,0,0,1.25.42A2.84,2.84,0,0,0,410.68,884.92Z"/>
    <path class="cls-3" d="M418.1,886a4.49,4.49,0,0,1-1.57-1.9,6.23,6.23,0,0,1-.53-2.58,6.3,6.3,0,0,1,.53-2.58,4.55,4.55,0,0,1,1.57-1.9,4.3,4.3,0,0,1,2.52-.72,4.11,4.11,0,0,1,4.22,2.82l-1.48.58a2.77,2.77,0,0,0-2.74-1.92,2.5,2.5,0,0,0-2.16,1,5.2,5.2,0,0,0,0,5.35,2.48,2.48,0,0,0,2.16,1,2.74,2.74,0,0,0,1.66-.48,3.42,3.42,0,0,0,1.08-1.44l1.48.58a4.21,4.21,0,0,1-1.61,2.11,4.55,4.55,0,0,1-2.61.71A4.3,4.3,0,0,1,418.1,886Z"/>
    <path class="cls-3" d="M427.1,872.41h1.66v8.38l3.9-4.3h2.06l-4.26,4.62,4.58,5.46H433l-4.22-5.12v5.12H427.1Z"/>
    <path class="cls-3" d="M437.15,889.93a2.87,2.87,0,0,1-1.17-2.44,2.65,2.65,0,0,1,.27-1.2,2.58,2.58,0,0,1,.71-.88,1.82,1.82,0,0,1-.72-1.62,2,2,0,0,1,.34-1.13,2.5,2.5,0,0,1,.9-.77,3.33,3.33,0,0,1-.74-2.18,3.39,3.39,0,0,1,.47-1.77,3.3,3.3,0,0,1,1.27-1.19,3.82,3.82,0,0,1,3.56,0l1.82-1,.72,1.24-1.42.76a3.32,3.32,0,0,1,.6,1.94,3.38,3.38,0,0,1-.46,1.79,3,3,0,0,1-1.26,1.18,3.76,3.76,0,0,1-1.78.41,3.86,3.86,0,0,1-1.76-.4,1.09,1.09,0,0,0-.7,1,.76.76,0,0,0,.32.68,1.39,1.39,0,0,0,.82.22h2.42a3.65,3.65,0,0,1,2.33.69,2.47,2.47,0,0,1,.87,2.05,3,3,0,0,1-1.2,2.62,6,6,0,0,1-6.21,0Zm5.09-1.07a1.59,1.59,0,0,0,.7-1.37,1.34,1.34,0,0,0-.48-1.15,2.34,2.34,0,0,0-1.38-.35h-1.82a8.45,8.45,0,0,1-1-.06,1.74,1.74,0,0,0-.68,1.52,1.65,1.65,0,0,0,.71,1.41,3.44,3.44,0,0,0,2,.51A3.27,3.27,0,0,0,442.24,888.86Zm-.61-7.69a2.21,2.21,0,0,0,0-2.92,2,2,0,0,0-2.74,0,2.21,2.21,0,0,0,0,2.92,2,2,0,0,0,2.74,0Z"/>
    <path class="cls-3" d="M448,876.49v1.74a3.73,3.73,0,0,1,1.24-1.41,3.17,3.17,0,0,1,1.72-.49,3.9,3.9,0,0,1,1.42.3l-.34,1.54a2.74,2.74,0,0,0-1.3-.34,2.26,2.26,0,0,0-2,1.26,7.18,7.18,0,0,0-.77,3.68v3.8h-1.66V876.49Z"/>
    <path class="cls-3" d="M455.39,886a4.62,4.62,0,0,1-1.7-1.91,5.94,5.94,0,0,1,0-5.16,4.85,4.85,0,0,1,6.83-1.91,4.73,4.73,0,0,1,1.69,1.91,5.94,5.94,0,0,1,0,5.16,4.67,4.67,0,0,1-1.69,1.91,4.56,4.56,0,0,1-2.56.71A4.62,4.62,0,0,1,455.39,886Zm4.26-1.29a3.18,3.18,0,0,0,1.07-1.37,4.6,4.6,0,0,0,.36-1.83,4.67,4.67,0,0,0-.36-1.83,3.3,3.3,0,0,0-1.07-1.37,3,3,0,0,0-3.38,0,3.41,3.41,0,0,0-1.08,1.37,4.5,4.5,0,0,0-.37,1.83,4.44,4.44,0,0,0,.37,1.83,3.28,3.28,0,0,0,1.08,1.37,3,3,0,0,0,3.38,0Z"/>
    <path class="cls-3" d="M466.06,885.89a3.21,3.21,0,0,1-.84-2.38v-7h1.66v6.66a2.3,2.3,0,0,0,.47,1.57,1.71,1.71,0,0,0,1.37.53,2.34,2.34,0,0,0,1.5-.54,3.58,3.58,0,0,0,1.07-1.56,6.63,6.63,0,0,0,.39-2.38v-4.28h1.64v10.08h-1.64v-1.94a4.29,4.29,0,0,1-1.43,1.53,3.51,3.51,0,0,1-1.93.57A3.06,3.06,0,0,1,466.06,885.89Z"/>
    <path class="cls-3" d="M478,876.49v1.94a4.29,4.29,0,0,1,1.43-1.53,3.47,3.47,0,0,1,1.91-.57,3,3,0,0,1,2.26.84,3.23,3.23,0,0,1,.84,2.38v7h-1.64v-6.66a2.34,2.34,0,0,0-.47-1.57,1.77,1.77,0,0,0-1.39-.53,2.32,2.32,0,0,0-1.49.54,3.59,3.59,0,0,0-1.06,1.55,6.62,6.62,0,0,0-.39,2.37v4.3h-1.66V876.49Z"/>
    <path class="cls-3" d="M488.88,886.06a4.16,4.16,0,0,1-1.52-1.85,7.17,7.17,0,0,1,0-5.36,4.07,4.07,0,0,1,3.94-2.52,4,4,0,0,1,1.74.38,3.54,3.54,0,0,1,1.28,1v-5.34H496v14.16h-1.64v-1.32a3,3,0,0,1-1.22,1,3.75,3.75,0,0,1-1.8.44A4.22,4.22,0,0,1,488.88,886.06Zm4.8-1.83a5,5,0,0,0,0-5.39,2.58,2.58,0,0,0-2.16-1,2.61,2.61,0,0,0-2.17,1,5,5,0,0,0,0,5.38,2.8,2.8,0,0,0,4.33,0Z"/>
  </g>
  <g>
    <g>
      <g>
        <path class="cls-4" d="M316.4,321.63V298H204.51v23.67h.16a1.83,1.83,0,0,0-.16.71s0,.1,0,.14,0,.09,0,.13c0,2,2,3.18,5.55,3.81,9.05,3.13,28.22,5.3,50.4,5.3s41.45-2.18,50.47-5.33c3.5-.63,5.47-1.79,5.47-3.78,0,0,0-.08,0-.13s0-.09,0-.14a1.83,1.83,0,0,0-.16-.71h.16Z"/>
        <path class="cls-3" d="M260.46,332.23c-21.71,0-41.08-2-50.56-5.33-3.94-.69-5.89-2.09-5.89-4.28v-.13s0-.09,0-.14,0-.15,0-.22h0V297.46H316.9v24.67c0,.07,0,.15,0,.22s0,.1,0,.15,0,.08,0,.12c0,2.16-1.93,3.56-5.89,4.27C301.64,330.17,282.24,332.23,260.46,332.23ZM205,321.13h.26l-.14.7a1.34,1.34,0,0,0-.12.52v.28c0,1.61,1.68,2.7,5.14,3.31,9.32,3.22,29,5.29,50.31,5.29s41.09-2.08,50.3-5.3c3.48-.64,5.14-1.71,5.14-3.31v-.27a1.18,1.18,0,0,0-.12-.5l0-.12-.25-.67.4,0V298.46H205Z"/>
      </g>
      <g>
        <ellipse class="cls-4" cx="260.46" cy="297.91" rx="55.94" ry="9.37"/>
        <path class="cls-3" d="M260.46,307.79c-27.75,0-56.45-3.7-56.45-9.88s28.7-9.87,56.45-9.87,56.44,3.69,56.44,9.87S288.2,307.79,260.46,307.79Zm0-18.75c-33.17,0-55.45,4.59-55.45,8.87s22.28,8.88,55.45,8.88,55.44-4.59,55.44-8.88S293.62,289,260.46,289Z"/>
      </g>
    </g>
    <g>
      <g>
        <path class="cls-4" d="M316.4,297.22V273.56H204.51v23.66h.16a1.87,1.87,0,0,0-.16.72s0,.09,0,.13,0,.09,0,.13c0,2,2,3.18,5.55,3.81,9.05,3.13,28.22,5.3,50.4,5.3s41.45-2.18,50.47-5.33c3.5-.63,5.47-1.79,5.47-3.78,0,0,0-.08,0-.13s0-.09,0-.13a1.87,1.87,0,0,0-.16-.72h.16Z"/>
        <path class="cls-3" d="M260.46,307.82c-21.71,0-41.08-2-50.56-5.33-3.94-.68-5.89-2.09-5.89-4.28v-.13s0-.09,0-.13,0-.16,0-.23h0V273.06H316.9v24.66c0,.07,0,.15,0,.23s0,.1,0,.15,0,.07,0,.11c0,2.16-1.93,3.56-5.89,4.27C301.64,305.77,282.24,307.82,260.46,307.82ZM205,296.72h.26l-.13.69a1.29,1.29,0,0,0-.13.54v.27c0,1.61,1.68,2.7,5.14,3.31,9.32,3.22,29,5.29,50.31,5.29s41.09-2.08,50.3-5.3c3.48-.63,5.14-1.71,5.14-3.31V298a1.19,1.19,0,0,0-.12-.51l0-.11-.25-.67.4,0V274.06H205Z"/>
      </g>
      <g>
        <ellipse class="cls-4" cx="260.46" cy="273.51" rx="55.94" ry="9.37"/>
        <path class="cls-3" d="M260.46,283.38c-27.75,0-56.45-3.7-56.45-9.88s28.7-9.87,56.45-9.87,56.44,3.7,56.44,9.87S288.2,283.38,260.46,283.38Zm0-18.75c-33.17,0-55.45,4.59-55.45,8.87s22.28,8.88,55.45,8.88,55.44-4.59,55.44-8.88S293.62,264.63,260.46,264.63Z"/>
      </g>
    </g>
    <g>
      <g>
        <path class="cls-4" d="M316.4,272.81V249.15H204.51v23.66h.17v0a1.79,1.79,0,0,0-.16.71s0,.09,0,.14,0,.08,0,.12c0,2,2,3.19,5.55,3.81,9.05,3.14,28.22,5.3,50.4,5.3s41.45-2.18,50.47-5.33c3.5-.63,5.47-1.78,5.47-3.78,0,0,0-.08,0-.12s0-.1,0-.14a1.79,1.79,0,0,0-.16-.71v0Z"/>
        <path class="cls-3" d="M260.46,283.41c-21.71,0-41.08-2-50.56-5.33C206,277.4,204,276,204,273.8v-.13s0-.08,0-.13,0-.15,0-.23h0V248.65H316.9v24.66c0,.08,0,.15,0,.23s0,.1,0,.15,0,.07,0,.11c0,2.16-1.93,3.56-5.89,4.28C301.64,281.36,282.24,283.41,260.46,283.41ZM205,272.31h.26l-.13.69a1.29,1.29,0,0,0-.13.54v.27c0,1.62,1.68,2.7,5.14,3.31,9.32,3.22,29,5.29,50.31,5.29s41.09-2.08,50.3-5.3c3.48-.63,5.14-1.71,5.14-3.31v-.26a1.19,1.19,0,0,0-.12-.51l0-.11-.25-.67.4,0V249.65H205Z"/>
      </g>
      <g>
        <ellipse class="cls-4" cx="260.46" cy="249.1" rx="55.94" ry="9.37"/>
        <path class="cls-3" d="M260.46,259c-27.75,0-56.45-3.69-56.45-9.87s28.7-9.87,56.45-9.87,56.44,3.69,56.44,9.87S288.2,259,260.46,259Zm0-18.74c-33.17,0-55.45,4.58-55.45,8.87S227.29,258,260.46,258s55.44-4.59,55.44-8.87S293.62,240.23,260.46,240.23Z"/>
      </g>
    </g>
  </g>
  <g>
    <g>
      <path class="cls-3" d="M410.24,652.61H153.41v-1.13a22.7,22.7,0,0,1,22.67-22.68h212a23,23,0,0,1,23,23A.81.81,0,0,1,410.24,652.61Zm-255.83-1H410.06a22,22,0,0,0-22-21.81h-212a21.7,21.7,0,0,0-21.67,21.68Z"/>
      <path class="cls-3" d="M173.44,645a4.28,4.28,0,1,1,4.28-4.28A4.28,4.28,0,0,1,173.44,645Zm0-7.56a3.28,3.28,0,1,0,3.28,3.28A3.28,3.28,0,0,0,173.44,637.43Z"/>
      <path class="cls-3" d="M184.71,645a4.28,4.28,0,1,1,4.28-4.28A4.28,4.28,0,0,1,184.71,645Zm0-7.56a3.28,3.28,0,1,0,3.28,3.28A3.28,3.28,0,0,0,184.71,637.43Z"/>
      <path class="cls-3" d="M196,645a4.28,4.28,0,1,1,4.27-4.28A4.28,4.28,0,0,1,196,645Zm0-7.56a3.28,3.28,0,1,0,3.27,3.28A3.28,3.28,0,0,0,196,637.43Z"/>
      <g>
        <path class="cls-3" d="M150,656.88H406.22a.42.42,0,0,1,.42.42v160a.42.42,0,0,1-.42.42H150a0,0,0,0,1,0,0V656.88A0,0,0,0,1,150,656.88Z"/>
        <path class="cls-3" d="M406.22,818.24H149.49V656.38H406.22a.92.92,0,0,1,.92.92v160A.93.93,0,0,1,406.22,818.24Zm-255.73-1H406.14V657.38H150.49Z"/>
      </g>
      <g>
        <path class="cls-1" d="M153.91,652.11H410.14a.42.42,0,0,1,.42.42v160a.42.42,0,0,1-.42.42H153.91a0,0,0,0,1,0,0V652.11A0,0,0,0,1,153.91,652.11Z"/>
        <path class="cls-3" d="M410.14,813.47H153.41V651.61H410.14a.93.93,0,0,1,.92.93v160A.92.92,0,0,1,410.14,813.47Zm-255.73-1H410.06V652.61H154.41Z"/>
      </g>
      <g>
        <rect class="cls-2" x="218.37" y="660.77" width="163.31" height="22.01" rx="11"/>
        <path class="cls-3" d="M370.68,683.27H229.37a11.5,11.5,0,0,1,0-23H370.68a11.5,11.5,0,1,1,0,23Zm-141.31-22a10.5,10.5,0,0,0,0,21H370.68a10.5,10.5,0,1,0,0-21Z"/>
      </g>
      <path class="cls-3" d="M172.22,676.85a.51.51,0,0,1-.36-.15l-5.1-5.11a.48.48,0,0,1,0-.7l5.1-5.11a.5.5,0,1,1,.71.71l-4.75,4.75,4.75,4.75a.5.5,0,0,1,0,.71A.5.5,0,0,1,172.22,676.85Z"/>
      <path class="cls-3" d="M189.66,676.85a.51.51,0,0,1-.36-.15.51.51,0,0,1,0-.71l4.75-4.75-4.75-4.75a.51.51,0,0,1,0-.71.5.5,0,0,1,.71,0l5.11,5.11a.5.5,0,0,1,0,.7L190,676.7A.5.5,0,0,1,189.66,676.85Z"/>
      <g>
        <path class="cls-3" d="M239.32,671.11l.85,3.07.58-4.22h1l-.95,5.7h-1l-.93-3.44-.93,3.44h-1l-1-5.7h1l.57,4.22.85-3.07Z"/>
        <path class="cls-3" d="M246.16,671.11l.84,3.07.59-4.22h1l-.95,5.7h-1l-.93-3.44-.93,3.44h-1l-1-5.7h1l.57,4.22.85-3.07Z"/>
        <path class="cls-3" d="M253,671.11l.84,3.07.59-4.22h1l-.95,5.7h-1l-.93-3.44-.93,3.44h-1l-1-5.7h1l.57,4.22.84-3.07Z"/>
        <path class="cls-3" d="M258.78,675.66v-1.22H260v1.22Z"/>
        <path class="cls-3" d="M268.62,671.86h-1a1.37,1.37,0,0,0-1.35-1.19c-.85,0-1.54.73-1.54,2.16s.69,2.17,1.54,2.17a1.42,1.42,0,0,0,1.39-1.17h1a2.37,2.37,0,0,1-2.44,2c-1.58,0-2.52-1.23-2.52-3a2.66,2.66,0,0,1,2.61-3A2.21,2.21,0,0,1,268.62,671.86Z"/>
        <path class="cls-3" d="M273.07,669.87a3,3,0,1,1-2.64,3A2.65,2.65,0,0,1,273.07,669.87Zm0,5.11c.87,0,1.61-.63,1.61-2.15s-.74-2.15-1.61-2.15-1.61.64-1.61,2.15S272.2,675,273.07,675Z"/>
        <path class="cls-3" d="M281.19,668h1v7.68h-1v-.8a1.83,1.83,0,0,1-1.69.94c-1.31,0-2.29-1.08-2.29-3s1-3,2.29-3a1.81,1.81,0,0,1,1.69,1Zm-1.48,2.7c-1,0-1.48.8-1.48,2.15s.5,2.16,1.48,2.16c.81,0,1.52-.66,1.52-2.16S280.52,670.68,279.71,670.68Z"/>
        <path class="cls-3" d="M284.19,672.83c0-1.83,1.08-3,2.59-3,1.66,0,2.61,1.22,2.54,3.25h-4.1c0,1.14.64,1.89,1.53,1.89a1.38,1.38,0,0,0,1.48-1h1a2.33,2.33,0,0,1-2.45,1.84C285.05,675.8,284.19,674.52,284.19,672.83Zm1-.53h3a1.46,1.46,0,0,0-1.5-1.64C285.86,670.66,285.27,671.2,285.23,672.3Z"/>
        <path class="cls-3" d="M296,671.86h-1a1.35,1.35,0,0,0-1.34-1.19c-.85,0-1.55.73-1.55,2.16s.7,2.17,1.55,2.17a1.4,1.4,0,0,0,1.38-1.17h1a2.38,2.38,0,0,1-2.45,2c-1.57,0-2.52-1.23-2.52-3a2.66,2.66,0,0,1,2.62-3A2.23,2.23,0,0,1,296,671.86Z"/>
        <path class="cls-3" d="M298,674.18c0-1.36,1.44-1.77,3.77-2v-.25a1.12,1.12,0,0,0-1.28-1.28c-.88,0-1.3.43-1.36,1.13h-1a2.2,2.2,0,0,1,2.37-1.91c1.57,0,2.25.69,2.23,2.27v1.39c0,1,0,1.77.07,2.15h-.93v-.84a2.08,2.08,0,0,1-2,1A1.66,1.66,0,0,1,298,674.18Zm3.84-1.25c-1.74.17-2.8.41-2.8,1.23,0,.54.4.85,1.08.85.87,0,1.72-.41,1.72-1.92Z"/>
        <path class="cls-3" d="M308.54,668h1v7.68h-1v-.8a1.81,1.81,0,0,1-1.68.94c-1.32,0-2.3-1.08-2.3-3s1-3,2.3-3a1.8,1.8,0,0,1,1.68,1Zm-1.48,2.7c-1,0-1.47.8-1.47,2.15s.49,2.16,1.47,2.16c.81,0,1.52-.66,1.52-2.16S307.87,670.68,307.06,670.68Z"/>
        <path class="cls-3" d="M311.55,672.83c0-1.83,1.08-3,2.58-3,1.66,0,2.62,1.22,2.54,3.25h-4.1c0,1.14.64,1.89,1.54,1.89a1.37,1.37,0,0,0,1.47-1h1a2.35,2.35,0,0,1-2.46,1.84C312.41,675.8,311.55,674.52,311.55,672.83Zm1-.53h3.05a1.45,1.45,0,0,0-1.5-1.64C313.21,670.66,312.63,671.2,312.58,672.3Z"/>
        <path class="cls-3" d="M322.36,669.87c.59,0,1.17.27,1.17,1.78v4h-1v-3.52c0-.82,0-1.46-.49-1.46s-.63.57-.63,1.75v3.23h-1v-3.52c0-.82,0-1.46-.47-1.46s-.65.59-.65,1.77v3.21h-1V670h.93v.61a1.12,1.12,0,0,1,1-.7.9.9,0,0,1,.89.72A1.25,1.25,0,0,1,322.36,669.87Z"/>
        <path class="cls-3" d="M325.17,677.51v-.83h1c.59,0,.78-.08,1.08-.89l0-.13-2.13-5.7h1.07l1.55,4.4,1.51-4.4h1l-2.11,5.94c-.4,1.13-.72,1.61-1.93,1.61Z"/>
        <path class="cls-3" d="M334,675.66v-1.22h1.22v1.22Z"/>
        <path class="cls-3" d="M343.85,671.86h-1a1.35,1.35,0,0,0-1.34-1.19c-.85,0-1.55.73-1.55,2.16s.7,2.17,1.55,2.17a1.4,1.4,0,0,0,1.38-1.17h1a2.38,2.38,0,0,1-2.45,2c-1.57,0-2.52-1.23-2.52-3a2.66,2.66,0,0,1,2.62-3A2.23,2.23,0,0,1,343.85,671.86Z"/>
        <path class="cls-3" d="M348.29,669.87a3,3,0,1,1-2.63,3A2.65,2.65,0,0,1,348.29,669.87Zm0,5.11c.87,0,1.61-.63,1.61-2.15s-.74-2.15-1.61-2.15-1.61.64-1.61,2.15S347.42,675,348.29,675Z"/>
        <path class="cls-3" d="M356.55,669.87c.59,0,1.18.27,1.18,1.78v4h-1v-3.52c0-.82,0-1.46-.49-1.46s-.63.57-.63,1.75v3.23h-1v-3.52c0-.82,0-1.46-.48-1.46s-.65.59-.65,1.77v3.21h-1V670h.93v.61a1.13,1.13,0,0,1,1-.7.91.91,0,0,1,.89.72A1.23,1.23,0,0,1,356.55,669.87Z"/>
      </g>
    </g>
    <g>
      <rect class="cls-4" x="180.99" y="700.74" width="74" height="84"/>
      <path class="cls-3" d="M255.49,785.24h-75v-85h75Zm-74-1h73v-83h-73Z"/>
    </g>
    <g>
      <rect class="cls-4" x="281.99" y="711.24" width="95" height="16"/>
      <path class="cls-3" d="M377.49,727.74h-96v-17h96Zm-95-1h94v-15h-94Z"/>
    </g>
    <g>
      <rect class="cls-4" x="281.99" y="736.74" width="95" height="8"/>
      <path class="cls-3" d="M377.49,745.24h-96v-9h96Zm-95-1h94v-7h-94Z"/>
    </g>
    <g>
      <rect class="cls-4" x="281.99" y="752.74" width="95" height="8"/>
      <path class="cls-3" d="M377.49,761.24h-96v-9h96Zm-95-1h94v-7h-94Z"/>
    </g>
    <g>
      <rect class="cls-4" x="281.99" y="768.74" width="43" height="8"/>
      <path class="cls-3" d="M325.49,777.24h-44v-9h44Zm-43-1h42v-7h-42Z"/>
    </g>
  </g>
  <g>
    <path class="cls-3" d="M1002.72,213.46H745.89v-1.14a22.7,22.7,0,0,1,22.68-22.67h212a23,23,0,0,1,23,23A.82.82,0,0,1,1002.72,213.46Zm-255.83-1h255.65a22,22,0,0,0-22-21.81h-212a21.7,21.7,0,0,0-21.68,21.67Z"/>
    <path class="cls-3" d="M765.92,205.83a4.28,4.28,0,1,1,4.28-4.28A4.28,4.28,0,0,1,765.92,205.83Zm0-7.56a3.28,3.28,0,1,0,3.28,3.28A3.29,3.29,0,0,0,765.92,198.27Z"/>
    <path class="cls-3" d="M777.2,205.83a4.28,4.28,0,1,1,4.27-4.28A4.28,4.28,0,0,1,777.2,205.83Zm0-7.56a3.28,3.28,0,1,0,3.27,3.28A3.29,3.29,0,0,0,777.2,198.27Z"/>
    <path class="cls-3" d="M788.47,205.83a4.28,4.28,0,1,1,4.28-4.28A4.28,4.28,0,0,1,788.47,205.83Zm0-7.56a3.28,3.28,0,1,0,3.28,3.28A3.29,3.29,0,0,0,788.47,198.27Z"/>
    <g>
      <path class="cls-3" d="M742.47,217.72H998.7a.42.42,0,0,1,.42.42v160a.42.42,0,0,1-.42.42H742.47a0,0,0,0,1,0,0V217.72A0,0,0,0,1,742.47,217.72Z"/>
      <path class="cls-3" d="M998.7,379.08H742V217.22H998.7a.92.92,0,0,1,.92.92v160A.92.92,0,0,1,998.7,379.08Zm-255.73-1H998.62V218.22H743Z"/>
    </g>
    <g>
      <path class="cls-1" d="M746.39,213h256.23a.42.42,0,0,1,.42.42v160a.42.42,0,0,1-.42.42H746.39a0,0,0,0,1,0,0V213A0,0,0,0,1,746.39,213Z"/>
      <path class="cls-3" d="M1002.62,374.32H745.89V212.46h256.73a.92.92,0,0,1,.92.92v160A.92.92,0,0,1,1002.62,374.32Zm-255.73-1h255.65V213.46H746.89Z"/>
    </g>
    <g>
      <rect class="cls-2" x="810.85" y="221.61" width="163.31" height="22.01" rx="11"/>
      <path class="cls-3" d="M963.16,244.12H821.85a11.51,11.51,0,0,1,0-23H963.16a11.51,11.51,0,0,1,0,23Zm-141.31-22a10.51,10.51,0,0,0,0,21H963.16a10.51,10.51,0,0,0,0-21Z"/>
    </g>
    <path class="cls-3" d="M764.7,237.69a.51.51,0,0,1-.36-.15l-5.1-5.1a.49.49,0,0,1-.15-.36.49.49,0,0,1,.15-.35l5.1-5.1a.5.5,0,0,1,.71,0,.48.48,0,0,1,0,.7l-4.75,4.75,4.75,4.76a.5.5,0,0,1-.35.85Z"/>
    <path class="cls-3" d="M782.14,237.69a.51.51,0,0,1-.36-.15.5.5,0,0,1,0-.7l4.76-4.76-4.76-4.75a.5.5,0,0,1,0-.7.5.5,0,0,1,.71,0l5.11,5.1a.51.51,0,0,1,0,.71l-5.11,5.1A.5.5,0,0,1,782.14,237.69Z"/>
    <g>
      <path class="cls-3" d="M831.8,232l.85,3.07.58-4.21h1l-1,5.7h-1l-.94-3.45-.93,3.45h-1l-1-5.7h1L830,235l.85-3.07Z"/>
      <path class="cls-3" d="M838.64,232l.84,3.07.59-4.21h1l-.95,5.7h-1l-.93-3.45-.93,3.45h-1l-1-5.7h1l.57,4.21.85-3.07Z"/>
      <path class="cls-3" d="M845.48,232l.84,3.07.59-4.21h1l-.95,5.7h-1l-.93-3.45-.93,3.45h-1l-1-5.7h1l.57,4.21.85-3.07Z"/>
      <path class="cls-3" d="M851.26,236.51v-1.22h1.21v1.22Z"/>
      <path class="cls-3" d="M861.1,232.7h-1a1.36,1.36,0,0,0-1.35-1.18c-.85,0-1.54.73-1.54,2.16s.69,2.17,1.54,2.17a1.41,1.41,0,0,0,1.39-1.18h1a2.37,2.37,0,0,1-2.45,2c-1.58,0-2.52-1.23-2.52-3s1-3,2.61-3A2.22,2.22,0,0,1,861.1,232.7Z"/>
      <path class="cls-3" d="M865.55,230.71a3,3,0,1,1-2.64,3A2.65,2.65,0,0,1,865.55,230.71Zm0,5.12c.87,0,1.61-.64,1.61-2.15s-.74-2.15-1.61-2.15-1.61.63-1.61,2.15S864.68,235.83,865.55,235.83Z"/>
      <path class="cls-3" d="M873.67,228.83h1v7.68h-1v-.81a1.83,1.83,0,0,1-1.69.94c-1.31,0-2.29-1.08-2.29-3s1-3,2.29-3a1.82,1.82,0,0,1,1.69,1Zm-1.48,2.7c-1,0-1.48.79-1.48,2.15s.5,2.16,1.48,2.16c.81,0,1.52-.67,1.52-2.16S873,231.53,872.19,231.53Z"/>
      <path class="cls-3" d="M876.67,233.68c0-1.83,1.08-3,2.59-3s2.61,1.22,2.54,3.25h-4.1c0,1.15.64,1.9,1.54,1.9a1.37,1.37,0,0,0,1.47-1h1a2.33,2.33,0,0,1-2.45,1.84C877.53,236.64,876.67,235.36,876.67,233.68Zm1-.53h3a1.46,1.46,0,0,0-1.5-1.64C878.34,231.51,877.75,232.05,877.71,233.15Z"/>
      <path class="cls-3" d="M888.46,232.7h-1a1.34,1.34,0,0,0-1.34-1.18c-.85,0-1.55.73-1.55,2.16s.7,2.17,1.55,2.17a1.4,1.4,0,0,0,1.38-1.18h1a2.37,2.37,0,0,1-2.45,2c-1.57,0-2.52-1.23-2.52-3a2.67,2.67,0,0,1,2.62-3A2.24,2.24,0,0,1,888.46,232.7Z"/>
      <path class="cls-3" d="M890.48,235c0-1.35,1.44-1.77,3.77-2v-.24a1.12,1.12,0,0,0-1.28-1.28c-.88,0-1.3.43-1.36,1.13h-1a2.2,2.2,0,0,1,2.37-1.92c1.57,0,2.25.7,2.23,2.28v1.39c0,.95,0,1.76.07,2.15h-.93v-.84a2.09,2.09,0,0,1-2,1A1.66,1.66,0,0,1,890.48,235Zm3.84-1.25c-1.74.17-2.79.42-2.79,1.23,0,.54.39.86,1.08.86.86,0,1.71-.41,1.71-1.93Z"/>
      <path class="cls-3" d="M901,228.83h1v7.68h-1v-.81a1.81,1.81,0,0,1-1.68.94c-1.31,0-2.3-1.08-2.3-3s1-3,2.3-3a1.81,1.81,0,0,1,1.68,1Zm-1.48,2.7c-1,0-1.47.79-1.47,2.15s.5,2.16,1.47,2.16c.81,0,1.52-.67,1.52-2.16S900.35,231.53,899.54,231.53Z"/>
      <path class="cls-3" d="M904,233.68c0-1.83,1.08-3,2.58-3,1.66,0,2.62,1.22,2.54,3.25h-4.1c0,1.15.64,1.9,1.54,1.9a1.37,1.37,0,0,0,1.47-1h1a2.35,2.35,0,0,1-2.46,1.84C904.89,236.64,904,235.36,904,233.68Zm1-.53h3a1.46,1.46,0,0,0-1.51-1.64C905.69,231.51,905.11,232.05,905.07,233.15Z"/>
      <path class="cls-3" d="M914.84,230.71c.59,0,1.17.28,1.17,1.78v4h-1V233c0-.83,0-1.46-.49-1.46s-.63.57-.63,1.75v3.23h-1V233c0-.83,0-1.46-.47-1.46s-.65.58-.65,1.77v3.21h-1v-5.7h.93v.6a1.12,1.12,0,0,1,1-.7.9.9,0,0,1,.89.72A1.27,1.27,0,0,1,914.84,230.71Z"/>
      <path class="cls-3" d="M917.65,238.36v-.84h1c.59,0,.78-.07,1.08-.89l0-.12-2.13-5.7h1.07l1.55,4.39,1.51-4.39h1l-2.11,5.94c-.4,1.12-.72,1.61-1.93,1.61Z"/>
      <path class="cls-3" d="M926.48,236.51v-1.22h1.22v1.22Z"/>
      <path class="cls-3" d="M936.33,232.7h-1a1.34,1.34,0,0,0-1.34-1.18c-.85,0-1.55.73-1.55,2.16s.7,2.17,1.55,2.17a1.4,1.4,0,0,0,1.38-1.18h1a2.37,2.37,0,0,1-2.45,2c-1.57,0-2.52-1.23-2.52-3a2.67,2.67,0,0,1,2.62-3A2.24,2.24,0,0,1,936.33,232.7Z"/>
      <path class="cls-3" d="M940.77,230.71a3,3,0,1,1-2.63,3A2.65,2.65,0,0,1,940.77,230.71Zm0,5.12c.87,0,1.61-.64,1.61-2.15s-.74-2.15-1.61-2.15-1.61.63-1.61,2.15S939.9,235.83,940.77,235.83Z"/>
      <path class="cls-3" d="M949,230.71c.59,0,1.18.28,1.18,1.78v4h-1V233c0-.83,0-1.46-.48-1.46s-.64.57-.64,1.75v3.23h-1V233c0-.83,0-1.46-.48-1.46s-.65.58-.65,1.77v3.21h-1v-5.7H946v.6a1.13,1.13,0,0,1,1-.7.91.91,0,0,1,.89.72A1.25,1.25,0,0,1,949,230.71Z"/>
    </g>
  </g>
  <g>
    <rect class="cls-4" x="776.47" y="261.58" width="74" height="84"/>
    <path class="cls-3" d="M851,346.08H776v-85h75Zm-74-1h73v-83H777Z"/>
  </g>
  <g>
    <rect class="cls-4" x="877.47" y="272.08" width="95" height="16"/>
    <path class="cls-3" d="M973,288.58H877v-17h96Zm-95-1h94v-15H878Z"/>
  </g>
  <g>
    <rect class="cls-4" x="877.47" y="297.58" width="95" height="8"/>
    <path class="cls-3" d="M973,306.08H877v-9h96Zm-95-1h94v-7H878Z"/>
  </g>
  <g>
    <rect class="cls-4" x="877.47" y="313.58" width="95" height="8"/>
    <path class="cls-3" d="M973,322.08H877v-9h96Zm-95-1h94v-7H878Z"/>
  </g>
  <g>
    <rect class="cls-4" x="877.47" y="329.58" width="43" height="8"/>
    <path class="cls-3" d="M921,338.08H877v-9h44Zm-43-1h42v-7H878Z"/>
  </g>
  <g>
    <g>
      <path class="cls-3" d="M1002.72,652.61H745.88v-1.13a22.71,22.71,0,0,1,22.68-22.68h212a23,23,0,0,1,23,23A.82.82,0,0,1,1002.72,652.61Zm-255.84-1h255.66a22,22,0,0,0-22-21.81h-212a21.7,21.7,0,0,0-21.68,21.68Z"/>
      <path class="cls-3" d="M765.92,645a4.28,4.28,0,1,1,4.28-4.28A4.28,4.28,0,0,1,765.92,645Zm0-7.56a3.28,3.28,0,1,0,3.28,3.28A3.28,3.28,0,0,0,765.92,637.43Z"/>
      <path class="cls-3" d="M777.19,645a4.28,4.28,0,1,1,4.28-4.28A4.28,4.28,0,0,1,777.19,645Zm0-7.56a3.28,3.28,0,1,0,3.28,3.28A3.28,3.28,0,0,0,777.19,637.43Z"/>
      <path class="cls-3" d="M788.46,645a4.28,4.28,0,1,1,4.28-4.28A4.28,4.28,0,0,1,788.46,645Zm0-7.56a3.28,3.28,0,1,0,3.28,3.28A3.28,3.28,0,0,0,788.46,637.43Z"/>
      <g>
        <path class="cls-3" d="M742.46,656.88H998.69a.42.42,0,0,1,.42.42v160a.42.42,0,0,1-.42.42H742.46a0,0,0,0,1,0,0V656.88A0,0,0,0,1,742.46,656.88Z"/>
        <path class="cls-3" d="M998.69,818.24H742V656.38H998.69a.92.92,0,0,1,.92.92v160A.93.93,0,0,1,998.69,818.24Zm-255.73-1H998.61V657.38H743Z"/>
      </g>
      <g>
        <path class="cls-1" d="M746.39,652.11h256.23a.42.42,0,0,1,.42.42v160a.42.42,0,0,1-.42.42H746.39a0,0,0,0,1,0,0V652.11A0,0,0,0,1,746.39,652.11Z"/>
        <path class="cls-3" d="M1002.62,813.47H745.88V651.61h256.74a.93.93,0,0,1,.92.93v160A.92.92,0,0,1,1002.62,813.47Zm-255.74-1h255.66V652.61H746.88Z"/>
      </g>
      <g>
        <rect class="cls-2" x="810.85" y="660.77" width="163.31" height="22.01" rx="11"/>
        <path class="cls-3" d="M963.15,683.27H821.85a11.5,11.5,0,1,1,0-23h141.3a11.5,11.5,0,1,1,0,23Zm-141.3-22a10.5,10.5,0,1,0,0,21h141.3a10.5,10.5,0,1,0,0-21Z"/>
      </g>
      <path class="cls-3" d="M764.69,676.85a.49.49,0,0,1-.35-.15l-5.11-5.11a.51.51,0,0,1,0-.7l5.11-5.11a.5.5,0,0,1,.71,0,.51.51,0,0,1,0,.71l-4.76,4.75,4.76,4.75a.51.51,0,0,1,0,.71A.51.51,0,0,1,764.69,676.85Z"/>
      <path class="cls-3" d="M782.13,676.85a.49.49,0,0,1-.35-.15.5.5,0,0,1,0-.71l4.75-4.75-4.75-4.75a.5.5,0,0,1,0-.71.48.48,0,0,1,.7,0l5.11,5.11a.48.48,0,0,1,0,.7l-5.11,5.11A.47.47,0,0,1,782.13,676.85Z"/>
      <g>
        <path class="cls-3" d="M831.79,671.11l.85,3.07.58-4.22h1l-1,5.7h-1l-.93-3.44-.93,3.44h-1l-.95-5.7h1l.58,4.22.84-3.07Z"/>
        <path class="cls-3" d="M838.63,671.11l.85,3.07.58-4.22h1l-1,5.7h-1l-.93-3.44-.94,3.44h-1l-1-5.7h1l.58,4.22.84-3.07Z"/>
        <path class="cls-3" d="M845.47,671.11l.85,3.07.58-4.22h1l-1,5.7h-1l-.93-3.44-.94,3.44h-1l-1-5.7h1l.57,4.22.85-3.07Z"/>
        <path class="cls-3" d="M851.25,675.66v-1.22h1.22v1.22Z"/>
        <path class="cls-3" d="M861.1,671.86h-1a1.36,1.36,0,0,0-1.34-1.19c-.85,0-1.55.73-1.55,2.16s.7,2.17,1.55,2.17a1.4,1.4,0,0,0,1.38-1.17h1a2.38,2.38,0,0,1-2.45,2c-1.57,0-2.52-1.23-2.52-3a2.66,2.66,0,0,1,2.62-3A2.23,2.23,0,0,1,861.1,671.86Z"/>
        <path class="cls-3" d="M865.54,669.87a3,3,0,1,1-2.64,3A2.65,2.65,0,0,1,865.54,669.87Zm0,5.11c.87,0,1.61-.63,1.61-2.15s-.74-2.15-1.61-2.15-1.61.64-1.61,2.15S864.67,675,865.54,675Z"/>
        <path class="cls-3" d="M873.66,668h1v7.68h-1v-.8a1.81,1.81,0,0,1-1.68.94c-1.31,0-2.3-1.08-2.3-3s1-3,2.3-3a1.8,1.8,0,0,1,1.68,1Zm-1.48,2.7c-1,0-1.47.8-1.47,2.15s.5,2.16,1.47,2.16c.81,0,1.53-.66,1.53-2.16S873,670.68,872.18,670.68Z"/>
        <path class="cls-3" d="M876.67,672.83c0-1.83,1.08-3,2.58-3,1.66,0,2.62,1.22,2.54,3.25H877.7c0,1.14.63,1.89,1.53,1.89a1.37,1.37,0,0,0,1.47-1h1a2.35,2.35,0,0,1-2.46,1.84C877.53,675.8,876.67,674.52,876.67,672.83Zm1-.53h3a1.46,1.46,0,0,0-1.51-1.64C878.33,670.66,877.75,671.2,877.71,672.3Z"/>
        <path class="cls-3" d="M888.45,671.86h-1a1.37,1.37,0,0,0-1.35-1.19c-.84,0-1.54.73-1.54,2.16s.7,2.17,1.54,2.17a1.42,1.42,0,0,0,1.39-1.17h1a2.38,2.38,0,0,1-2.45,2c-1.58,0-2.52-1.23-2.52-3a2.66,2.66,0,0,1,2.61-3A2.21,2.21,0,0,1,888.45,671.86Z"/>
        <path class="cls-3" d="M890.47,674.18c0-1.36,1.44-1.77,3.77-2v-.25a1.12,1.12,0,0,0-1.28-1.28c-.88,0-1.29.43-1.35,1.13h-1a2.19,2.19,0,0,1,2.36-1.91c1.58,0,2.26.69,2.24,2.27v1.39c0,1,0,1.77.07,2.15h-.93v-.84a2.09,2.09,0,0,1-2,1A1.66,1.66,0,0,1,890.47,674.18Zm3.85-1.25c-1.74.17-2.8.41-2.8,1.23,0,.54.39.85,1.08.85.87,0,1.72-.41,1.72-1.92Z"/>
        <path class="cls-3" d="M901,668h1v7.68h-1v-.8a1.83,1.83,0,0,1-1.69.94c-1.31,0-2.29-1.08-2.29-3s1-3,2.29-3a1.81,1.81,0,0,1,1.69,1Zm-1.49,2.7c-1,0-1.47.8-1.47,2.15s.5,2.16,1.47,2.16,1.53-.66,1.53-2.16S900.35,670.68,899.53,670.68Z"/>
        <path class="cls-3" d="M904,672.83c0-1.83,1.08-3,2.59-3s2.61,1.22,2.54,3.25h-4.1c0,1.14.64,1.89,1.53,1.89a1.38,1.38,0,0,0,1.48-1h1a2.33,2.33,0,0,1-2.45,1.84C904.88,675.8,904,674.52,904,672.83Zm1-.53h3.05a1.46,1.46,0,0,0-1.5-1.64C905.69,670.66,905.1,671.2,905.06,672.3Z"/>
        <path class="cls-3" d="M914.83,669.87c.6,0,1.18.27,1.18,1.78v4h-1v-3.52c0-.82,0-1.46-.48-1.46s-.64.57-.64,1.75v3.23h-1v-3.52c0-.82,0-1.46-.48-1.46s-.65.59-.65,1.77v3.21h-1V670h.93v.61a1.13,1.13,0,0,1,1-.7.91.91,0,0,1,.89.72A1.23,1.23,0,0,1,914.83,669.87Z"/>
        <path class="cls-3" d="M917.65,677.51v-.83h1c.6,0,.79-.08,1.08-.89l0-.13-2.13-5.7h1.07l1.54,4.4,1.52-4.4h1l-2.1,5.94c-.41,1.13-.72,1.61-1.93,1.61Z"/>
        <path class="cls-3" d="M926.48,675.66v-1.22h1.22v1.22Z"/>
        <path class="cls-3" d="M936.32,671.86h-1a1.37,1.37,0,0,0-1.35-1.19c-.85,0-1.54.73-1.54,2.16S933.14,675,934,675a1.41,1.41,0,0,0,1.39-1.17h1a2.37,2.37,0,0,1-2.44,2c-1.58,0-2.52-1.23-2.52-3a2.66,2.66,0,0,1,2.62-3A2.21,2.21,0,0,1,936.32,671.86Z"/>
        <path class="cls-3" d="M940.77,669.87a3,3,0,1,1-2.64,3A2.65,2.65,0,0,1,940.77,669.87Zm0,5.11c.87,0,1.61-.63,1.61-2.15s-.74-2.15-1.61-2.15-1.61.64-1.61,2.15S939.9,675,940.77,675Z"/>
        <path class="cls-3" d="M949,669.87c.59,0,1.17.27,1.17,1.78v4h-1v-3.52c0-.82,0-1.46-.49-1.46s-.64.57-.64,1.75v3.23h-1v-3.52c0-.82,0-1.46-.48-1.46s-.64.59-.64,1.77v3.21h-1V670H946v.61a1.15,1.15,0,0,1,1-.7.9.9,0,0,1,.89.72A1.25,1.25,0,0,1,949,669.87Z"/>
      </g>
    </g>
    <g>
      <rect class="cls-4" x="773.46" y="700.74" width="74" height="84"/>
      <path class="cls-3" d="M848,785.24H773v-85h75Zm-74-1h73v-83H774Z"/>
    </g>
    <g>
      <rect class="cls-4" x="874.46" y="711.24" width="95" height="16"/>
      <path class="cls-3" d="M970,727.74H874v-17h96Zm-95-1h94v-15H875Z"/>
    </g>
    <g>
      <rect class="cls-4" x="874.46" y="736.74" width="95" height="8"/>
      <path class="cls-3" d="M970,745.24H874v-9h96Zm-95-1h94v-7H875Z"/>
    </g>
    <g>
      <rect class="cls-4" x="874.46" y="752.74" width="95" height="8"/>
      <path class="cls-3" d="M970,761.24H874v-9h96Zm-95-1h94v-7H875Z"/>
    </g>
    <g>
      <rect class="cls-4" x="874.46" y="768.74" width="43" height="8"/>
      <path class="cls-3" d="M918,777.24H874v-9h44Zm-43-1h42v-7H875Z"/>
    </g>
  </g>
  <g>
    <path class="cls-2" d="M812.28,747.62c-.34.07-4.32-12.57-6.48-15.71-1.53-2.22-6.27-1-5,3.27,1,3.35,3.25,8,3.75,9.44,1.88,5.4,3.62,8.56,4.6,11.89.87,2.94-1.16,1.82-2.41.51a20,20,0,0,1-2.43-2.58c-1.92-2.52-3.3-3.52-4.42-3.76a2.7,2.7,0,0,0-3,3.54c.31,1.24,5.49,6.5,8.7,10.7,1.23,1.6,6.64,7,11.08,7.73a16.22,16.22,0,0,0,11-1.94,14.76,14.76,0,0,0,7.76-12c.14-2.58-2-7.88-3.82-11.73-.46-1-2.67-6.46-5-6.1-2.84.45-2.34,3.42-2,4.69a25.33,25.33,0,0,0-2-4.4,3.09,3.09,0,0,0-5.29.47c-.45,1,.59,3.39,1.48,5.52a42.46,42.46,0,0,0-3-6.18c-1.34-1.86-4.45-.47-4.89.94-.61,1.91,1.86,6.94,1.86,6.94Z"/>
    <path class="cls-3" d="M819.62,773.4a19,19,0,0,1-3-.25c-4.61-.76-10-6.15-11.4-7.92s-3.16-3.85-4.72-5.65c-2.47-2.82-3.87-4.46-4.07-5.23a3.18,3.18,0,0,1,.65-3.17,3.58,3.58,0,0,1,2.9-1c1.4.31,2.9,1.56,4.72,3.95a16.56,16.56,0,0,0,2.13,2.29,3.37,3.37,0,0,1,.26.25,3.58,3.58,0,0,0,1.76,1.19,3,3,0,0,0-.19-1.22,50.68,50.68,0,0,0-2-5.22c-.79-1.86-1.68-4-2.61-6.65-.17-.47-.55-1.35-1-2.37a68.91,68.91,0,0,1-2.77-7.08c-.74-2.49.37-4,1.66-4.66a3.37,3.37,0,0,1,4.22,1c1.2,1.75,2.9,6.22,4.3,10a3.83,3.83,0,0,1,2.94-2.07,2.79,2.79,0,0,1,2.82,1.06l.56,1a2.47,2.47,0,0,1,.1-.29,3.53,3.53,0,0,1,2.88-2,3.48,3.48,0,0,1,3.28,1.47,11,11,0,0,1,1,1.76,2.89,2.89,0,0,1,2.56-2.25c2.23-.35,4.14,3.3,5.37,6.08l.13.3c1.85,4,4,9.3,3.87,12a15.26,15.26,0,0,1-8,12.44A16.84,16.84,0,0,1,819.62,773.4Zm-20-22.25a2.66,2.66,0,0,0-1.78.73,2.24,2.24,0,0,0-.4,2.22c.15.59,2.11,2.84,3.85,4.83,1.57,1.8,3.36,3.85,4.77,5.69,1.11,1.45,6.41,6.82,10.76,7.54a15.81,15.81,0,0,0,10.68-1.88A14.26,14.26,0,0,0,835,758.66c.1-1.91-1.24-6-3.77-11.49l-.14-.32c-2.12-4.77-3.52-5.62-4.3-5.49a2,2,0,0,0-1.48.85c-.63,1-.28,2.56-.11,3.2a.53.53,0,0,1-.32.63c-.47.14-.62-.29-.7-.5a19.56,19.56,0,0,0-1.9-4.1,2.49,2.49,0,0,0-2.35-1.06,2.54,2.54,0,0,0-2.07,1.43c-.27.63.24,2.1.83,3.57.19.41.35.8.47,1.12l0,.1.15.34,0,0a.71.71,0,0,1,0,.43.49.49,0,0,1-.46.26.51.51,0,0,1-.44-.32l-.15-.35c-.17-.41-.35-.82-.51-1.22a28.69,28.69,0,0,0-2.3-4.51,1.79,1.79,0,0,0-1.84-.65,2.85,2.85,0,0,0-2.17,1.46c-.34,1.08.54,3.59,1.27,5.31a.08.08,0,0,1,0,0l.55,1.22a.48.48,0,0,1-.24.65.49.49,0,0,1-.66-.23c-.07-.14-.27-.55-.52-1.12a29.68,29.68,0,0,1-1.67-4.23c-1.39-3.83-3.49-9.6-4.81-11.51a2.39,2.39,0,0,0-3-.62c-1.18.57-1.61,1.86-1.13,3.46a68.59,68.59,0,0,0,2.73,7c.47,1.08.84,1.93,1,2.44.92,2.64,1.81,4.74,2.59,6.6a52.38,52.38,0,0,1,2,5.32c.24.81.47,1.94-.28,2.37-1,.59-2.66-1-3-1.37l-.22-.2a19,19,0,0,1-2.25-2.43c-1.64-2.15-3-3.32-4.13-3.57Z"/>
  </g>
  <rect class="cls-3" x="802.87" y="723.39" width="7.38" height="1" transform="translate(-110.44 1301.53) rotate(-74.12)"/>
  <rect class="cls-3" x="798.22" y="720.87" width="1" height="7.38" transform="translate(-236.39 422.09) rotate(-25.92)"/>
  <rect class="cls-3" x="792.76" y="725.54" width="1" height="7.78" transform="translate(-248.08 1006.84) rotate(-57.52)"/>
  <g>
    <g>
      <path class="cls-3" d="M447.43,332.47H379.69a.38.38,0,0,1-.35-.41v-83a.39.39,0,0,1,.35-.42l62.1,10.24a.39.39,0,0,1,.35.42l5.63,72.73A.38.38,0,0,1,447.43,332.47Z"/>
      <path class="cls-3" d="M447.43,333H379.69a.88.88,0,0,1-.85-.91v-83a.89.89,0,0,1,.85-.92l62.18,10.25a.89.89,0,0,1,.77.91L448.27,332A.89.89,0,0,1,447.43,333Zm-67.59-1h67.43l-5.63-72.58-61.8-10.19Zm61.88-72.57h0Z"/>
    </g>
    <g>
      <path class="cls-1" d="M450.17,329.23H382.43a.39.39,0,0,1-.34-.42v-83a.38.38,0,0,1,.34-.41h57.73l10.36,15.67v67.71A.39.39,0,0,1,450.17,329.23Z"/>
      <path class="cls-3" d="M450.17,329.73H382.43a.88.88,0,0,1-.84-.92v-83a.87.87,0,0,1,.84-.91h58L451,261v67.86A.89.89,0,0,1,450.17,329.73Zm-67.58-1H450V261.25l-10.13-15.32h-57.3Z"/>
    </g>
  </g>
  <g>
    <path class="cls-3" d="M397.3,280.49V276.8l15.52-8.28v3.74l-12,6.38,12,6.38v3.74Z"/>
    <path class="cls-3" d="M418.09,285l12-6.38-12-6.38v-3.74l15.48,8.28v3.69l-15.48,8.27Z"/>
  </g>
  <g>
    <path class="cls-3" d="M393.56,302.28h2.6v5.32h5.6v-5.32h2.6v14h-2.6V310h-5.6v6.28h-2.6Z"/>
    <path class="cls-3" d="M409.93,304.68H406v-2.4h10.39v2.4h-3.9v11.6h-2.6Z"/>
    <path class="cls-3" d="M418.11,302.28H421l3.3,8.74,3.3-8.74h2.92v14h-2.6v-8.64L425.26,315h-1.88l-2.67-7.36v8.64h-2.6Z"/>
    <path class="cls-3" d="M433.73,302.28h2.6v11.6h5.94v2.4h-8.54Z"/>
  </g>
  <g>
    <path class="cls-3" d="M359.13,289.33H334.71a.5.5,0,0,1-.5-.5.5.5,0,0,1,.5-.5h24.42a.5.5,0,0,1,.5.5A.51.51,0,0,1,359.13,289.33Z"/>
    <path class="cls-3" d="M348.63,299.83a.51.51,0,0,1-.36-.15.51.51,0,0,1,0-.71l10.15-10.14-10.15-10.15A.5.5,0,0,1,349,278l10.5,10.5a.51.51,0,0,1,0,.71L349,299.68A.5.5,0,0,1,348.63,299.83Z"/>
  </g>
  <g>
    <path class="cls-3" d="M494.92,791.94a.5.5,0,0,1-.5-.5V767a.5.5,0,0,1,.5-.5.5.5,0,0,1,.5.5v24.42A.51.51,0,0,1,494.92,791.94Z"/>
    <path class="cls-3" d="M494.92,791.94a.51.51,0,0,1-.36-.15l-10.5-10.5a.5.5,0,1,1,.71-.71l10.15,10.15,10.14-10.15a.5.5,0,1,1,.71.71l-10.5,10.5A.5.5,0,0,1,494.92,791.94Z"/>
  </g>
  <g>
    <path class="cls-3" d="M479.5,804a.5.5,0,0,1-.5-.5v-10a.5.5,0,0,1,1,0v10A.5.5,0,0,1,479.5,804Z"/>
    <path class="cls-3" d="M510.5,804a.5.5,0,0,1-.5-.5v-10a.5.5,0,0,1,1,0v10A.5.5,0,0,1,510.5,804Z"/>
    <path class="cls-3" d="M510.5,804h-31a.5.5,0,0,1,0-1h31a.5.5,0,0,1,0,1Z"/>
  </g>
</svg>
