<svg id="Layer_1" data-name="Layer 1" xmlns="http://www.w3.org/2000/svg" viewBox="0 0 1200 800">
  <defs>
    <style>
      .cls-1 {
        fill: #66c4ff;
      }

      .cls-2 {
        fill: #10162f;
      }

      .cls-3 {
        fill: #fff;
      }

      .cls-4 {
        fill: #fff5ff;
      }

      .cls-5 {
        fill: #ffd300;
      }

      .cls-6 {
        fill: #003;
      }
    </style>
  </defs>
  <g>
    <g>
      <path class="cls-1" d="M83.5,344.32h398.7a.42.42,0,0,1,.42.42V610.15a.42.42,0,0,1-.42.42H83.5a0,0,0,0,1,0,0V344.32A0,0,0,0,1,83.5,344.32Z"/>
      <path class="cls-2" d="M482.19,611.07H83V343.82H482.19a.92.92,0,0,1,.92.92V610.15A.92.92,0,0,1,482.19,611.07ZM84,610.07H482.11V344.82H84Z"/>
    </g>
    <g>
      <rect class="cls-3" x="179.06" y="358.64" width="270.32" height="36.43" rx="11"/>
      <path class="cls-2" d="M438.37,395.56H190.06a11.51,11.51,0,0,1-11.5-11.5V369.64a11.51,11.51,0,0,1,11.5-11.5H438.37a11.51,11.51,0,0,1,11.5,11.5v14.42A11.51,11.51,0,0,1,438.37,395.56ZM190.06,359.14a10.51,10.51,0,0,0-10.5,10.5v14.42a10.51,10.51,0,0,0,10.5,10.5H438.37a10.51,10.51,0,0,0,10.5-10.5V369.64a10.51,10.51,0,0,0-10.5-10.5Z"/>
    </g>
    <path class="cls-2" d="M113.8,384.92a.5.5,0,0,1-.36-.14L105,376.33a.51.51,0,0,1,0-.71l8.45-8.45a.5.5,0,1,1,.71.71l-8.1,8.09,8.1,8.1a.5.5,0,0,1,0,.71A.47.47,0,0,1,113.8,384.92Z"/>
    <path class="cls-2" d="M142.66,384.92a.5.5,0,0,1-.35-.85l8.1-8.1-8.1-8.09a.5.5,0,1,1,.71-.71l8.45,8.45a.5.5,0,0,1,.14.35.52.52,0,0,1-.14.36L143,384.78A.5.5,0,0,1,142.66,384.92Z"/>
    <g>
      <path class="cls-2" d="M212.71,375.67l1.42,5.14,1-7.05h1.65l-1.6,9.53h-1.64L212,377.53l-1.56,5.76h-1.65l-1.59-9.53h1.66l1,7.05,1.42-5.14Z"/>
      <path class="cls-2" d="M224.15,375.67l1.42,5.14,1-7.05h1.65l-1.6,9.53H225l-1.56-5.76-1.56,5.76h-1.65l-1.59-9.53h1.66l1,7.05,1.42-5.14Z"/>
      <path class="cls-2" d="M235.59,375.67l1.42,5.14,1-7.05h1.65L238,383.29h-1.65l-1.56-5.76-1.56,5.76h-1.65L230,373.76h1.66l1,7.05,1.42-5.14Z"/>
      <path class="cls-2" d="M245.26,383.29v-2h2v2Z"/>
      <path class="cls-2" d="M261.73,376.93h-1.65a2.26,2.26,0,0,0-2.25-2c-1.41,0-2.58,1.22-2.58,3.61s1.17,3.63,2.58,3.63a2.37,2.37,0,0,0,2.33-2h1.68a4,4,0,0,1-4.09,3.29c-2.64,0-4.22-2-4.22-5s1.65-5,4.38-5A3.71,3.71,0,0,1,261.73,376.93Z"/>
      <path class="cls-2" d="M269.17,373.6c2.18,0,4.41,1.51,4.41,5s-2.23,5-4.41,5-4.41-1.5-4.41-5S267,373.6,269.17,373.6Zm0,8.56c1.45,0,2.69-1.06,2.69-3.6s-1.24-3.59-2.69-3.59-2.69,1.06-2.69,3.59S267.72,382.16,269.17,382.16Z"/>
      <path class="cls-2" d="M282.75,370.45h1.63v12.84h-1.61l0-1.34a3,3,0,0,1-2.81,1.57c-2.2,0-3.85-1.8-3.85-5s1.65-5,3.85-5a3,3,0,0,1,2.81,1.6ZM280.27,375c-1.63,0-2.46,1.32-2.46,3.59s.83,3.62,2.46,3.62c1.37,0,2.55-1.12,2.55-3.62S281.64,375,280.27,375Z"/>
      <path class="cls-2" d="M287.78,378.56c0-3.06,1.81-5,4.32-5,2.78,0,4.38,2,4.25,5.44H289.5c0,1.92,1.06,3.17,2.57,3.17a2.3,2.3,0,0,0,2.46-1.75h1.68a3.92,3.92,0,0,1-4.11,3.08C289.21,383.52,287.78,381.38,287.78,378.56Zm1.74-.88h5.1a2.45,2.45,0,0,0-2.52-2.75C290.56,374.93,289.59,375.83,289.52,377.68Z"/>
      <path class="cls-2" d="M307.49,376.93h-1.64a2.27,2.27,0,0,0-2.25-2c-1.42,0-2.59,1.22-2.59,3.61s1.17,3.63,2.59,3.63a2.37,2.37,0,0,0,2.32-2h1.68a4,4,0,0,1-4.09,3.29c-2.64,0-4.22-2-4.22-5s1.65-5,4.38-5A3.71,3.71,0,0,1,307.49,376.93Z"/>
      <path class="cls-2" d="M310.87,380.81c0-2.27,2.41-3,6.31-3.38V377a1.87,1.87,0,0,0-2.14-2.14,2,2,0,0,0-2.27,1.89H311.1c.16-2,2-3.2,3.95-3.2,2.64,0,3.78,1.17,3.74,3.81l0,2.32c0,1.59.08,2.95.13,3.59h-1.56l0-1.4a3.49,3.49,0,0,1-3.35,1.63C312.25,383.52,310.87,382.53,310.87,380.81Zm6.43-2.09c-2.9.28-4.67.69-4.67,2.06,0,.9.65,1.43,1.8,1.43,1.46,0,2.87-.69,2.87-3.22Z"/>
      <path class="cls-2" d="M328.51,370.45h1.63v12.84h-1.61l0-1.34a3,3,0,0,1-2.81,1.57c-2.2,0-3.85-1.8-3.85-5s1.65-5,3.85-5a3,3,0,0,1,2.81,1.6ZM326,375c-1.63,0-2.46,1.32-2.46,3.59s.83,3.62,2.46,3.62c1.37,0,2.55-1.12,2.55-3.62S327.4,375,326,375Z"/>
      <path class="cls-2" d="M333.54,378.56c0-3.06,1.81-5,4.32-5,2.79,0,4.38,2,4.26,5.44h-6.86c0,1.92,1.06,3.17,2.57,3.17a2.29,2.29,0,0,0,2.46-1.75H342a3.91,3.91,0,0,1-4.11,3.08C335,383.52,333.54,381.38,333.54,378.56Zm1.74-.88h5.1a2.45,2.45,0,0,0-2.52-2.75C336.32,374.93,335.35,375.83,335.28,377.68Z"/>
      <path class="cls-2" d="M351.62,373.6c1,0,2,.46,2,3v6.71H352v-5.88c0-1.38,0-2.44-.81-2.44s-1.07.95-1.07,2.92v5.4h-1.63v-5.88c0-1.38,0-2.44-.79-2.44s-1.08,1-1.08,2.95v5.37H345v-9.53h1.56v1a1.88,1.88,0,0,1,1.73-1.17,1.51,1.51,0,0,1,1.49,1.21A2.08,2.08,0,0,1,351.62,373.6Z"/>
      <path class="cls-2" d="M356.33,386.39V385h1.72c1,0,1.31-.12,1.81-1.49l.07-.21-3.56-9.53h1.79l2.59,7.35,2.53-7.35H365l-3.52,9.94c-.68,1.88-1.21,2.69-3.23,2.69Z"/>
      <path class="cls-2" d="M371.11,383.29v-2h2v2Z"/>
      <path class="cls-2" d="M387.58,376.93h-1.65a2.26,2.26,0,0,0-2.25-2c-1.42,0-2.59,1.22-2.59,3.61s1.17,3.63,2.59,3.63a2.36,2.36,0,0,0,2.32-2h1.68a4,4,0,0,1-4.09,3.29c-2.64,0-4.21-2-4.21-5s1.64-5,4.37-5A3.72,3.72,0,0,1,387.58,376.93Z"/>
      <path class="cls-2" d="M395,373.6c2.18,0,4.41,1.51,4.41,5s-2.23,5-4.41,5-4.41-1.5-4.41-5S392.83,373.6,395,373.6Zm0,8.56c1.46,0,2.7-1.06,2.7-3.6S396.47,375,395,375s-2.69,1.06-2.69,3.59S393.56,382.16,395,382.16Z"/>
      <path class="cls-2" d="M408.83,373.6c1,0,2,.46,2,3v6.71h-1.62v-5.88c0-1.38,0-2.44-.82-2.44s-1.06.95-1.06,2.92v5.4h-1.63v-5.88c0-1.38,0-2.44-.8-2.44s-1.08,1-1.08,2.95v5.37h-1.63v-9.53h1.56v1a1.89,1.89,0,0,1,1.73-1.17,1.51,1.51,0,0,1,1.49,1.21A2.09,2.09,0,0,1,408.83,373.6Z"/>
    </g>
    <g>
      <path class="cls-4" d="M105.67,306.56H460.12a22.49,22.49,0,0,1,22.49,22.49V344a.32.32,0,0,1-.32.32H83.5a0,0,0,0,1,0,0V328.73A22.18,22.18,0,0,1,105.67,306.56Z"/>
      <path class="cls-2" d="M482.29,344.82H83V328.73a22.7,22.7,0,0,1,22.67-22.67H460.12a23,23,0,0,1,23,23V344A.82.82,0,0,1,482.29,344.82ZM84,343.82H482.11V329.05a22,22,0,0,0-22-22H105.67A21.69,21.69,0,0,0,84,328.73Z"/>
    </g>
    <path class="cls-2" d="M115.83,332.19a6.76,6.76,0,1,1,6.75-6.75A6.76,6.76,0,0,1,115.83,332.19Zm0-12.51a5.76,5.76,0,1,0,5.75,5.76A5.76,5.76,0,0,0,115.83,319.68Z"/>
    <path class="cls-2" d="M134.48,332.19a6.76,6.76,0,1,1,6.76-6.75A6.76,6.76,0,0,1,134.48,332.19Zm0-12.51a5.76,5.76,0,1,0,5.76,5.76A5.76,5.76,0,0,0,134.48,319.68Z"/>
    <path class="cls-2" d="M153.14,332.19a6.76,6.76,0,1,1,6.76-6.75A6.76,6.76,0,0,1,153.14,332.19Zm0-12.51a5.76,5.76,0,1,0,5.76,5.76A5.76,5.76,0,0,0,153.14,319.68Z"/>
  </g>
  <g>
    <path class="cls-3" d="M617.07,398.36H528.13a.5.5,0,0,1-.5-.5.5.5,0,0,1,.5-.5h88.94a.5.5,0,0,1,.5.5A.5.5,0,0,1,617.07,398.36Z"/>
    <path class="cls-3" d="M595.64,419.78a.54.54,0,0,1-.35-.14.51.51,0,0,1,0-.71l21.07-21.07-21.07-21.08a.5.5,0,0,1,0-.7.5.5,0,0,1,.71,0l21.42,21.42a.5.5,0,0,1,0,.71L596,419.64A.54.54,0,0,1,595.64,419.78Z"/>
  </g>
  <g>
    <path class="cls-3" d="M617.07,564.17H528.13a.5.5,0,0,1-.5-.5.5.5,0,0,1,.5-.5h88.94a.5.5,0,0,1,.5.5A.5.5,0,0,1,617.07,564.17Z"/>
    <path class="cls-3" d="M549.55,585.59a.49.49,0,0,1-.35-.14L527.77,564a.51.51,0,0,1,0-.71l21.43-21.42a.5.5,0,0,1,.71,0,.5.5,0,0,1,0,.7l-21.08,21.08,21.08,21.07a.51.51,0,0,1,0,.71A.5.5,0,0,1,549.55,585.59Z"/>
  </g>
  <g>
    <path class="cls-2" d="M124.42,464c0,2.86.87,4.62,2.8,4.62,1.4,0,2.71-.6,2.71-3v-.36h-2.67v-1.44h4.06v6h-1.15l-.07-1.45a3,3,0,0,1-2.94,1.66c-3,0-4.31-2.51-4.31-6s1.51-6,4.45-6c2.16,0,3.62,1.44,4,3.79h-1.57a2.37,2.37,0,0,0-2.5-2.38C125.38,459.44,124.42,461.06,124.42,464Z"/>
    <path class="cls-2" d="M134.15,458.24h6.91v1.44h-5.39v3.46h5.08v1.44h-5.08v3.82h5.39v1.44h-6.91Z"/>
    <path class="cls-2" d="M147.09,459.68h-3.48v-1.44h8.5v1.44h-3.49v10.16h-1.53Z"/>
    <path class="cls-2" d="M165.53,469.84l4.56-11.6h1.45L167,469.84Z"/>
    <path class="cls-2" d="M182.23,464.37v5.47h-1.47v-5c0-1.39-.1-2.56-1.7-2.56-1.33,0-2.06,1-2.06,2.85v4.67h-1.47v-11.6H177v4.21a2.75,2.75,0,0,1,2.54-1.36C181.62,461.09,182.23,462.46,182.23,464.37Z"/>
    <path class="cls-2" d="M189.21,461.09c2,0,4,1.36,4,4.48s-2,4.48-4,4.48-4-1.36-4-4.48S187.24,461.09,189.21,461.09Zm0,7.73c1.31,0,2.43-1,2.43-3.25s-1.12-3.25-2.43-3.25-2.44,1-2.44,3.25S187.89,468.82,189.21,468.82Z"/>
    <path class="cls-2" d="M201.69,461.09c.89,0,1.77.41,1.77,2.69v6.06H202v-5.31c0-1.25,0-2.21-.73-2.21s-1,.86-1,2.64v4.88h-1.48v-5.31c0-1.25,0-2.21-.72-2.21s-1,.88-1,2.67v4.85h-1.48v-8.61h1.41v.91a1.7,1.7,0,0,1,1.57-1.05,1.37,1.37,0,0,1,1.35,1.09A1.85,1.85,0,0,1,201.69,461.09Z"/>
    <path class="cls-2" d="M206,465.57c0-2.77,1.63-4.5,3.91-4.5,2.51,0,3.95,1.84,3.84,4.92h-6.2c0,1.72,1,2.86,2.33,2.86a2.07,2.07,0,0,0,2.22-1.58h1.52a3.54,3.54,0,0,1-3.71,2.78C207.32,470.05,206,468.12,206,465.57Zm1.57-.8h4.61a2.21,2.21,0,0,0-2.27-2.48C208.53,462.29,207.65,463.1,207.59,464.77Z"/>
    <path class="cls-2" d="M234.31,458.22v11.62h-1.52v-5.26h-4.48v5.26h-1.52V458.22h1.52v4.92h4.48v-4.92Z"/>
    <path class="cls-2" d="M240.12,459.68h-3.49v-1.44h8.5v1.44h-3.49v10.16h-1.52Z"/>
    <path class="cls-2" d="M250.45,459.68H247v-1.44h8.5v1.44H252v10.16h-1.53Z"/>
    <path class="cls-2" d="M261.17,458.24c2.55,0,4.5.69,4.5,3.57s-1.95,3.57-4.5,3.57h-1.32v4.46h-1.52v-11.6Zm-1.32,1.44v4.26h1.52c1.55,0,2.73-.24,2.73-2.13s-1.18-2.13-2.73-2.13Z"/>
    <path class="cls-2" d="M268.89,469.84l4.56-11.6h1.45l-4.56,11.6Z"/>
    <path class="cls-2" d="M283.25,458.24v10.34h2.44v1.26h-6.87v-1.26h3v-7.81h-3v-1c1.94-.05,2.88-.26,3.47-1.52Z"/>
    <path class="cls-2" d="M291.64,469.84V468h1.84v1.84Z"/>
    <path class="cls-2" d="M303.93,458.24v10.34h2.43v1.26h-6.87v-1.26h3v-7.81h-3v-1c1.94-.05,2.88-.26,3.48-1.52Z"/>
    <path class="cls-2" d="M131,494.22v11.62h-1.52v-5.26H125v5.26h-1.52V494.22H125v4.92h4.48v-4.92Z"/>
    <path class="cls-2" d="M137.53,497.09c2,0,4,1.36,4,4.48s-2,4.48-4,4.48-4-1.36-4-4.48S135.56,497.09,137.53,497.09Zm0,7.73c1.31,0,2.43-1,2.43-3.25s-1.12-3.25-2.43-3.25-2.44,1-2.44,3.25S136.21,504.82,137.53,504.82Z"/>
    <path class="cls-2" d="M149.64,499.58c-.19-1-.94-1.28-1.92-1.28s-1.73.34-1.73,1.11.45,1,1.3,1.15l1,.19c1.49.29,3.09.85,3.09,2.58s-1.57,2.72-3.44,2.72a3.25,3.25,0,0,1-3.53-2.78h1.56a1.79,1.79,0,0,0,2,1.56c.91,0,1.92-.32,1.92-1.32,0-.8-.72-1.2-1.81-1.4l-1.07-.2c-1.36-.28-2.44-1-2.44-2.44,0-1.66,1.81-2.38,3.25-2.38a3.18,3.18,0,0,1,3.4,2.49Z"/>
    <path class="cls-2" d="M156.18,495.07h1.48v2.16h3.52v1.27h-3.52v5c0,.88,0,1.11.86,1.11h2.66v1.26h-3c-1.57,0-2-.36-2-2.16V498.5h-2.45v-1.27h2.45Z"/>
    <path class="cls-2" d="M167.61,499.07v-1.84h1.84v1.84Zm0,6.77V504h1.84v1.84Z"/>
    <path class="cls-2" d="M189.88,499l1.28,4.64.88-6.37h1.49l-1.44,8.61H190.6l-1.41-5.2-1.41,5.2h-1.49l-1.44-8.61h1.51l.86,6.37L188.5,499Z"/>
    <path class="cls-2" d="M200.22,499l1.28,4.64.88-6.37h1.49l-1.45,8.61h-1.48l-1.41-5.2-1.41,5.2h-1.49l-1.44-8.61h1.5l.87,6.37,1.28-4.64Z"/>
    <path class="cls-2" d="M210.55,499l1.28,4.64.88-6.37h1.49l-1.44,8.61h-1.49l-1.41-5.2-1.41,5.2H207l-1.44-8.61H207l.86,6.37,1.28-4.64Z"/>
    <path class="cls-2" d="M219.29,505.84V504h1.84v1.84Z"/>
    <path class="cls-2" d="M234.17,500.1h-1.49a2.05,2.05,0,0,0-2-1.8c-1.28,0-2.34,1.11-2.34,3.27s1.06,3.28,2.34,3.28a2.12,2.12,0,0,0,2.09-1.78h1.52a3.58,3.58,0,0,1-3.69,3c-2.39,0-3.81-1.85-3.81-4.48s1.49-4.48,4-4.48A3.36,3.36,0,0,1,234.17,500.1Z"/>
    <path class="cls-2" d="M240.89,497.09c2,0,4,1.36,4,4.48s-2,4.48-4,4.48-4-1.36-4-4.48S238.92,497.09,240.89,497.09Zm0,7.73c1.31,0,2.43-1,2.43-3.25s-1.12-3.25-2.43-3.25-2.44,1-2.44,3.25S239.57,504.82,240.89,504.82Z"/>
    <path class="cls-2" d="M253.16,494.24h1.47v11.6h-1.45l0-1.21a2.76,2.76,0,0,1-2.55,1.42c-2,0-3.47-1.63-3.47-4.48s1.49-4.48,3.47-4.48a2.74,2.74,0,0,1,2.55,1.44Zm-2.24,4.08c-1.47,0-2.23,1.2-2.23,3.25s.76,3.26,2.23,3.26c1.23,0,2.3-1,2.3-3.26S252.15,498.32,250.92,498.32Z"/>
    <path class="cls-2" d="M257.7,501.57c0-2.77,1.63-4.5,3.91-4.5,2.51,0,3.95,1.84,3.84,4.92h-6.2c0,1.72,1,2.86,2.33,2.86a2.07,2.07,0,0,0,2.22-1.58h1.52a3.54,3.54,0,0,1-3.71,2.78C259,506.05,257.7,504.12,257.7,501.57Zm1.57-.8h4.61a2.21,2.21,0,0,0-2.27-2.48C260.21,498.29,259.33,499.1,259.27,500.77Z"/>
    <path class="cls-2" d="M275.51,500.1H274a2,2,0,0,0-2-1.8c-1.28,0-2.34,1.11-2.34,3.27s1.06,3.28,2.34,3.28a2.13,2.13,0,0,0,2.1-1.78h1.52a3.59,3.59,0,0,1-3.7,3c-2.38,0-3.81-1.85-3.81-4.48s1.49-4.48,3.95-4.48A3.35,3.35,0,0,1,275.51,500.1Z"/>
    <path class="cls-2" d="M278.57,503.6c0-2.05,2.17-2.67,5.69-3.06v-.36a1.69,1.69,0,0,0-1.93-1.94,1.78,1.78,0,0,0-2.05,1.71h-1.51a3.31,3.31,0,0,1,3.57-2.89c2.39,0,3.41,1.05,3.38,3.44l0,2.09c0,1.45.07,2.68.12,3.25h-1.41l0-1.26a3.14,3.14,0,0,1-3,1.47A2.51,2.51,0,0,1,278.57,503.6Zm5.81-1.89c-2.63.26-4.23.63-4.23,1.86,0,.82.59,1.3,1.63,1.3,1.31,0,2.6-.63,2.6-2.92Z"/>
    <path class="cls-2" d="M294.5,494.24H296v11.6h-1.46l0-1.21a2.75,2.75,0,0,1-2.54,1.42c-2,0-3.47-1.63-3.47-4.48s1.48-4.48,3.47-4.48a2.73,2.73,0,0,1,2.54,1.44Zm-2.24,4.08c-1.47,0-2.22,1.2-2.22,3.25s.75,3.26,2.22,3.26c1.24,0,2.31-1,2.31-3.26S293.5,498.32,292.26,498.32Z"/>
    <path class="cls-2" d="M299,501.57c0-2.77,1.64-4.5,3.91-4.5,2.51,0,3.95,1.84,3.84,4.92H300.6c0,1.72,1,2.86,2.32,2.86a2.07,2.07,0,0,0,2.22-1.58h1.52a3.53,3.53,0,0,1-3.71,2.78C300.34,506.05,299,504.12,299,501.57Zm1.57-.8h4.61a2.2,2.2,0,0,0-2.27-2.48C301.56,498.29,300.68,499.1,300.61,500.77Z"/>
    <path class="cls-2" d="M315.38,497.09c.9,0,1.78.41,1.78,2.69v6.06h-1.47v-5.31c0-1.25,0-2.21-.74-2.21s-1,.86-1,2.64v4.88h-1.47v-5.31c0-1.25,0-2.21-.72-2.21s-1,.88-1,2.67v4.85h-1.47v-8.61h1.41v.91a1.7,1.7,0,0,1,1.57-1.05,1.36,1.36,0,0,1,1.34,1.09A1.88,1.88,0,0,1,315.38,497.09Z"/>
    <path class="cls-2" d="M319.64,508.64v-1.26h1.55c.9,0,1.18-.11,1.63-1.34l.07-.2-3.22-8.61h1.62l2.33,6.65,2.29-6.65h1.52l-3.18,9c-.61,1.7-1.09,2.43-2.92,2.43Z"/>
    <path class="cls-2" d="M333,505.84V504h1.84v1.84Z"/>
    <path class="cls-2" d="M347.86,500.1h-1.48a2.06,2.06,0,0,0-2-1.8c-1.28,0-2.34,1.11-2.34,3.27s1.06,3.28,2.34,3.28a2.13,2.13,0,0,0,2.1-1.78H348a3.59,3.59,0,0,1-3.7,3c-2.38,0-3.81-1.85-3.81-4.48s1.49-4.48,4-4.48A3.34,3.34,0,0,1,347.86,500.1Z"/>
    <path class="cls-2" d="M354.58,497.09c2,0,4,1.36,4,4.48s-2,4.48-4,4.48-4-1.36-4-4.48S352.61,497.09,354.58,497.09Zm0,7.73c1.31,0,2.44-1,2.44-3.25s-1.13-3.25-2.44-3.25-2.43,1-2.43,3.25S353.27,504.82,354.58,504.82Z"/>
    <path class="cls-2" d="M367.06,497.09c.9,0,1.78.41,1.78,2.69v6.06h-1.47v-5.31c0-1.25,0-2.21-.74-2.21s-1,.86-1,2.64v4.88H364.2v-5.31c0-1.25,0-2.21-.72-2.21s-1,.88-1,2.67v4.85H361v-8.61h1.41v.91a1.7,1.7,0,0,1,1.57-1.05,1.36,1.36,0,0,1,1.34,1.09A1.88,1.88,0,0,1,367.06,497.09Z"/>
    <path class="cls-2" d="M123.33,515.22c0-2,1.73-3.19,3.81-3.19A3.6,3.6,0,0,1,131,515.3h-1.5a2.21,2.21,0,0,0-2.44-1.86c-1,0-2.16.53-2.16,1.73,0,1,.76,1.52,1.68,1.73l1.16.25c1.87.42,3.5,1.24,3.5,3.44s-1.68,3.46-3.92,3.46a4,4,0,0,1-4.19-3.82h1.5a2.56,2.56,0,0,0,2.74,2.41c1.15,0,2.34-.6,2.34-1.93s-.92-1.75-2.18-2l-1.27-.3C124.74,518,123.33,517.06,123.33,515.22Z"/>
    <path class="cls-2" d="M141.14,518.1h-1.48a2.06,2.06,0,0,0-2-1.8c-1.28,0-2.33,1.11-2.33,3.27s1.05,3.28,2.33,3.28a2.13,2.13,0,0,0,2.1-1.78h1.52a3.59,3.59,0,0,1-3.7,3c-2.38,0-3.81-1.85-3.81-4.48s1.49-4.48,4-4.48A3.34,3.34,0,0,1,141.14,518.1Z"/>
    <path class="cls-2" d="M151.22,518.37v5.47h-1.47v-5c0-1.39-.09-2.56-1.69-2.56-1.33,0-2.07,1-2.07,2.85v4.67h-1.47v-11.6H146v4.21a2.76,2.76,0,0,1,2.55-1.36C150.62,515.09,151.22,516.46,151.22,518.37Z"/>
    <path class="cls-2" d="M154.34,519.57c0-2.77,1.63-4.5,3.91-4.5,2.51,0,3.95,1.84,3.84,4.92h-6.2c0,1.72,1,2.86,2.33,2.86a2.07,2.07,0,0,0,2.22-1.58H162a3.54,3.54,0,0,1-3.71,2.78C155.64,524.05,154.34,522.12,154.34,519.57Zm1.57-.8h4.61a2.21,2.21,0,0,0-2.27-2.48C156.85,516.29,156,517.1,155.91,518.77Z"/>
    <path class="cls-2" d="M170.68,515.09c.9,0,1.78.41,1.78,2.69v6.06H171v-5.31c0-1.25,0-2.21-.73-2.21s-1,.86-1,2.64v4.88h-1.47v-5.31c0-1.25,0-2.21-.73-2.21s-1,.88-1,2.67v4.85h-1.47v-8.61h1.4v.91a1.71,1.71,0,0,1,1.57-1,1.37,1.37,0,0,1,1.35,1.09A1.88,1.88,0,0,1,170.68,515.09Z"/>
    <path class="cls-2" d="M175,519.57c0-2.77,1.64-4.5,3.91-4.5,2.51,0,4,1.84,3.84,4.92h-6.19c0,1.72,1,2.86,2.32,2.86a2.07,2.07,0,0,0,2.22-1.58h1.52a3.53,3.53,0,0,1-3.71,2.78C176.31,524.05,175,522.12,175,519.57Zm1.57-.8h4.61a2.21,2.21,0,0,0-2.27-2.48C177.53,516.29,176.65,517.1,176.58,518.77Z"/>
    <path class="cls-2" d="M188.28,517.07v-1.84h1.84v1.84Zm0,6.77V522h1.84v1.84Z"/>
    <path class="cls-2" d="M213.24,518.37v5.47h-1.47v-5c0-1.39-.1-2.56-1.7-2.56-1.33,0-2.06,1-2.06,2.85v4.67h-1.48v-11.6H208v4.21a2.73,2.73,0,0,1,2.54-1.36C212.63,515.09,213.24,516.46,213.24,518.37Z"/>
    <path class="cls-2" d="M218.2,513.07h1.47v2.16h3.52v1.27h-3.52v5c0,.88.05,1.11.87,1.11h2.65v1.26h-3c-1.56,0-2-.36-2-2.16V516.5h-2.45v-1.27h2.45Z"/>
    <path class="cls-2" d="M228.53,513.07H230v2.16h3.52v1.27H230v5c0,.88,0,1.11.86,1.11h2.66v1.26h-3c-1.57,0-2-.36-2-2.16V516.5h-2.45v-1.27h2.45Z"/>
    <path class="cls-2" d="M239,516.53a2.75,2.75,0,0,1,2.55-1.44c2,0,3.47,1.65,3.47,4.48s-1.49,4.48-3.47,4.48a2.77,2.77,0,0,1-2.55-1.42v4h-1.47V515.23H239Zm2.24,6.3c1.47,0,2.23-1.21,2.23-3.26s-.76-3.25-2.23-3.25c-1.23,0-2.3,1-2.3,3.25S240,522.83,241.19,522.83Z"/>
    <path class="cls-2" d="M253,517.58c-.19-1-.95-1.28-1.92-1.28s-1.73.34-1.73,1.11.45,1,1.3,1.15l1,.19c1.49.29,3.09.85,3.09,2.58s-1.57,2.72-3.45,2.72a3.24,3.24,0,0,1-3.52-2.78h1.56a1.79,1.79,0,0,0,2,1.56c.91,0,1.92-.32,1.92-1.32,0-.8-.72-1.2-1.81-1.4l-1.07-.2c-1.36-.28-2.44-.95-2.44-2.44,0-1.66,1.81-2.38,3.25-2.38a3.18,3.18,0,0,1,3.4,2.49Z"/>
    <path class="cls-2" d="M131.82,541.84h-1.64l-.78-2.48H125l-.77,2.48h-1.63l3.81-11.6H128Zm-6.4-3.9H129l-1.76-5.67Z"/>
    <path class="cls-2" d="M141.14,536.1h-1.48a2.06,2.06,0,0,0-2-1.8c-1.28,0-2.33,1.11-2.33,3.27s1.05,3.28,2.33,3.28a2.13,2.13,0,0,0,2.1-1.78h1.52a3.59,3.59,0,0,1-3.7,3c-2.38,0-3.81-1.85-3.81-4.48s1.49-4.48,4-4.48A3.34,3.34,0,0,1,141.14,536.1Z"/>
    <path class="cls-2" d="M151.48,536.1H150a2,2,0,0,0-2-1.8c-1.28,0-2.34,1.11-2.34,3.27s1.06,3.28,2.34,3.28a2.14,2.14,0,0,0,2.1-1.78h1.52a3.59,3.59,0,0,1-3.7,3c-2.39,0-3.81-1.85-3.81-4.48s1.49-4.48,4-4.48A3.36,3.36,0,0,1,151.48,536.1Z"/>
    <path class="cls-2" d="M154.34,537.57c0-2.77,1.63-4.5,3.91-4.5,2.51,0,3.95,1.84,3.84,4.92h-6.2c0,1.72,1,2.86,2.33,2.86a2.07,2.07,0,0,0,2.22-1.58H162a3.54,3.54,0,0,1-3.71,2.78C155.64,542.05,154.34,540.12,154.34,537.57Zm1.57-.8h4.61a2.21,2.21,0,0,0-2.27-2.48C156.85,534.29,156,535.11,155.91,536.77Z"/>
    <path class="cls-2" d="M166.6,534.53a2.74,2.74,0,0,1,2.54-1.44c2,0,3.48,1.65,3.48,4.48s-1.49,4.48-3.48,4.48a2.76,2.76,0,0,1-2.54-1.42v4h-1.47V533.23h1.47Zm2.24,6.3c1.47,0,2.22-1.21,2.22-3.26s-.75-3.25-2.22-3.25c-1.23,0-2.31,1-2.31,3.25S167.61,540.83,168.84,540.83Z"/>
    <path class="cls-2" d="M176.85,531.07h1.48v2.16h3.52v1.27h-3.52v5c0,.89,0,1.11.86,1.11h2.66v1.26h-3c-1.57,0-2-.36-2-2.16V534.5h-2.44v-1.27h2.44Z"/>
    <path class="cls-2" d="M188.28,535.07v-1.84h1.84v1.84Zm0,6.77V540h1.84v1.84Z"/>
    <path class="cls-2" d="M206.21,539.6c0-2.05,2.18-2.67,5.7-3.05v-.37a1.69,1.69,0,0,0-1.93-1.94,1.78,1.78,0,0,0-2,1.71h-1.51a3.31,3.31,0,0,1,3.57-2.89c2.39,0,3.41,1.05,3.38,3.44l0,2.09c0,1.45.07,2.68.11,3.25h-1.4l0-1.26a3.15,3.15,0,0,1-3,1.47A2.51,2.51,0,0,1,206.21,539.6Zm5.81-1.89c-2.62.26-4.22.63-4.22,1.86,0,.82.59,1.3,1.63,1.3,1.31,0,2.59-.63,2.59-2.92Z"/>
    <path class="cls-2" d="M218.28,534.53a2.74,2.74,0,0,1,2.54-1.44c2,0,3.48,1.65,3.48,4.48s-1.49,4.48-3.48,4.48a2.76,2.76,0,0,1-2.54-1.42v4h-1.47V533.23h1.47Zm2.24,6.3c1.47,0,2.22-1.21,2.22-3.26s-.75-3.25-2.22-3.25c-1.23,0-2.31,1-2.31,3.25S219.29,540.83,220.52,540.83Z"/>
    <path class="cls-2" d="M228.61,534.53a2.76,2.76,0,0,1,2.55-1.44c2,0,3.47,1.65,3.47,4.48s-1.49,4.48-3.47,4.48a2.78,2.78,0,0,1-2.55-1.42v4h-1.47V533.23h1.47Zm2.25,6.3c1.47,0,2.22-1.21,2.22-3.26s-.75-3.25-2.22-3.25c-1.24,0-2.31,1-2.31,3.25S229.62,540.83,230.86,540.83Z"/>
    <path class="cls-2" d="M241.67,530.24v10.34h2.45v1.26h-6.35v-1.26h2.43v-9.09h-2.43v-1.25Z"/>
    <path class="cls-2" d="M252.1,533.23v7.35h2.45v1.26H248.2v-1.26h2.43V534.5H248.2v-1.27Zm0-3V532h-1.47v-1.74Z"/>
    <path class="cls-2" d="M265.18,536.1h-1.49a2.05,2.05,0,0,0-2-1.8c-1.29,0-2.34,1.11-2.34,3.27s1.05,3.28,2.34,3.28a2.13,2.13,0,0,0,2.09-1.78h1.52a3.58,3.58,0,0,1-3.69,3c-2.39,0-3.81-1.85-3.81-4.48s1.48-4.48,4-4.48A3.36,3.36,0,0,1,265.18,536.1Z"/>
    <path class="cls-2" d="M268.23,539.6c0-2.05,2.18-2.67,5.7-3.05v-.37a1.7,1.7,0,0,0-1.94-1.94,1.78,1.78,0,0,0-2.05,1.71h-1.5a3.3,3.3,0,0,1,3.57-2.89c2.38,0,3.41,1.05,3.37,3.44v2.09c0,1.45.06,2.68.11,3.25h-1.41v-1.26a3.16,3.16,0,0,1-3,1.47A2.51,2.51,0,0,1,268.23,539.6Zm5.81-1.89c-2.63.26-4.23.63-4.23,1.86,0,.82.6,1.3,1.64,1.3,1.31,0,2.59-.63,2.59-2.92Z"/>
    <path class="cls-2" d="M280.21,531.07h1.48v2.16h3.52v1.27h-3.52v5c0,.89,0,1.11.86,1.11h2.66v1.26h-3c-1.57,0-2-.36-2-2.16V534.5h-2.45v-1.27h2.45Z"/>
    <path class="cls-2" d="M293.45,533.23v7.35h2.45v1.26h-6.36v-1.26H292V534.5h-2.43v-1.27Zm0-3V532H292v-1.74Z"/>
    <path class="cls-2" d="M302.9,533.09c2,0,4,1.36,4,4.48s-2,4.48-4,4.48-4-1.36-4-4.48S300.93,533.09,302.9,533.09Zm0,7.73c1.31,0,2.44-1,2.44-3.25s-1.13-3.25-2.44-3.25-2.43,1-2.43,3.25S301.59,540.82,302.9,540.82Z"/>
    <path class="cls-2" d="M311.37,534.45a2.67,2.67,0,0,1,2.52-1.36c2.09,0,2.71,1.37,2.71,3.28v5.47h-1.47v-5c0-1.39-.11-2.54-1.72-2.54-1.32,0-2,1-2,2.83v4.67h-1.48v-8.61h1.48Z"/>
    <path class="cls-2" d="M320.57,541.84l4.56-11.6h1.45L322,541.84Z"/>
    <path class="cls-2" d="M335.3,533.23v9c0,1.79-.46,2.36-2.05,2.36H331v-1.26h2c.72,0,.88-.18.88-1.07V534.5h-2.16v-1.27Zm0-3V532h-1.47v-1.74Z"/>
    <path class="cls-2" d="M346,535.58c-.19-1-.94-1.28-1.92-1.28s-1.73.34-1.73,1.11.45,1,1.3,1.15l1,.19c1.49.29,3.09.85,3.09,2.58s-1.57,2.72-3.44,2.72a3.24,3.24,0,0,1-3.52-2.78h1.55a1.79,1.79,0,0,0,2,1.56c.91,0,1.92-.31,1.92-1.32,0-.8-.72-1.2-1.81-1.4l-1.07-.2c-1.36-.28-2.43-.95-2.43-2.44,0-1.66,1.81-2.38,3.25-2.38a3.17,3.17,0,0,1,3.39,2.49Z"/>
    <path class="cls-2" d="M354.58,533.09c2,0,4,1.36,4,4.48s-2,4.48-4,4.48-4-1.36-4-4.48S352.61,533.09,354.58,533.09Zm0,7.73c1.31,0,2.44-1,2.44-3.25s-1.13-3.25-2.44-3.25-2.43,1-2.43,3.25S353.27,540.82,354.58,540.82Z"/>
    <path class="cls-2" d="M363,534.45a2.7,2.7,0,0,1,2.53-1.36c2.09,0,2.71,1.37,2.71,3.28v5.47h-1.47v-5c0-1.39-.11-2.54-1.72-2.54-1.32,0-2,1-2,2.83v4.67h-1.47v-8.61H363Z"/>
    <path class="cls-2" d="M131.27,556.24c-.4,2.48-1.93,3.81-4,3.81-2.83,0-4.16-2.51-4.16-6s1.5-6,4.27-6c2,0,3.51,1.56,3.89,3.91h-1.55c-.19-1.33-.91-2.48-2.39-2.48-1.68,0-2.65,1.62-2.65,4.58s.91,4.62,2.69,4.62c1.47,0,2.2-1,2.41-2.4Z"/>
    <path class="cls-2" d="M137.53,551.09c2,0,4,1.36,4,4.48s-2,4.48-4,4.48-4-1.36-4-4.48S135.56,551.09,137.53,551.09Zm0,7.73c1.31,0,2.43-1,2.43-3.25s-1.12-3.25-2.43-3.25-2.44,1-2.44,3.25S136.21,558.82,137.53,558.82Z"/>
    <path class="cls-2" d="M146,552.45a2.69,2.69,0,0,1,2.53-1.36c2.08,0,2.7,1.37,2.7,3.28v5.47h-1.47v-5c0-1.39-.11-2.54-1.71-2.54-1.33,0-2,1-2,2.83v4.67h-1.47v-8.61H146Z"/>
    <path class="cls-2" d="M156.18,549.07h1.48v2.16h3.52v1.27h-3.52v5c0,.89,0,1.11.86,1.11h2.66v1.26h-3c-1.57,0-2-.36-2-2.16V552.5h-2.45v-1.27h2.45Z"/>
    <path class="cls-2" d="M164.68,555.57c0-2.77,1.63-4.5,3.9-4.5,2.52,0,4,1.84,3.84,4.92h-6.19c0,1.72,1,2.86,2.32,2.86a2.09,2.09,0,0,0,2.23-1.58h1.52a3.55,3.55,0,0,1-3.72,2.78C166,560.05,164.68,558.12,164.68,555.57Zm1.57-.8h4.61a2.21,2.21,0,0,0-2.28-2.48C167.19,552.29,166.31,553.11,166.25,554.77Z"/>
    <path class="cls-2" d="M177,552.45a2.69,2.69,0,0,1,2.53-1.36c2.08,0,2.7,1.37,2.7,3.28v5.47h-1.47v-5c0-1.39-.11-2.54-1.71-2.54-1.33,0-2.05,1-2.05,2.83v4.67h-1.47v-8.61H177Z"/>
    <path class="cls-2" d="M187.19,549.07h1.47v2.16h3.52v1.27h-3.52v5c0,.89.05,1.11.87,1.11h2.65v1.26h-3c-1.57,0-2-.36-2-2.16V552.5h-2.45v-1.27h2.45Z"/>
    <path class="cls-2" d="M197,556.15v-1.38h5.09v1.38Z"/>
    <path class="cls-2" d="M207.86,549.07h1.47v2.16h3.53v1.27h-3.53v5c0,.89,0,1.11.87,1.11h2.66v1.26h-3c-1.57,0-2-.36-2-2.16V552.5h-2.45v-1.27h2.45Z"/>
    <path class="cls-2" d="M216.28,562.64v-1.26h1.55c.9,0,1.18-.11,1.63-1.34l.07-.2-3.22-8.61h1.62l2.33,6.65,2.29-6.65h1.52l-3.18,9c-.61,1.7-1.09,2.43-2.92,2.43Z"/>
    <path class="cls-2" d="M228.61,552.53a2.76,2.76,0,0,1,2.55-1.44c2,0,3.47,1.65,3.47,4.48s-1.49,4.48-3.47,4.48a2.78,2.78,0,0,1-2.55-1.42v4h-1.47V551.23h1.47Zm2.25,6.3c1.47,0,2.22-1.21,2.22-3.26s-.75-3.25-2.22-3.25c-1.24,0-2.31,1-2.31,3.25S229.62,558.83,230.86,558.83Z"/>
    <path class="cls-2" d="M237,555.57c0-2.77,1.63-4.5,3.9-4.5,2.52,0,4,1.84,3.85,4.92h-6.2c0,1.72,1,2.86,2.32,2.86a2.09,2.09,0,0,0,2.23-1.58h1.52a3.54,3.54,0,0,1-3.72,2.78C238.33,560.05,237,558.12,237,555.57Zm1.57-.8h4.61a2.21,2.21,0,0,0-2.28-2.48C239.54,552.29,238.66,553.11,238.6,554.77Z"/>
    <path class="cls-2" d="M250.29,553.07v-1.84h1.84v1.84Zm0,6.77V558h1.84v1.84Z"/>
    <path class="cls-2" d="M268.23,557.6c0-2.05,2.18-2.67,5.7-3.05v-.37a1.7,1.7,0,0,0-1.94-1.94,1.78,1.78,0,0,0-2.05,1.71h-1.5a3.3,3.3,0,0,1,3.57-2.89c2.38,0,3.41,1.05,3.37,3.44v2.09c0,1.45.06,2.68.11,3.25h-1.41v-1.26a3.16,3.16,0,0,1-3,1.47A2.51,2.51,0,0,1,268.23,557.6Zm5.81-1.89c-2.63.26-4.23.63-4.23,1.86,0,.82.6,1.3,1.64,1.3,1.31,0,2.59-.63,2.59-2.92Z"/>
    <path class="cls-2" d="M280.29,552.53a2.76,2.76,0,0,1,2.55-1.44c2,0,3.47,1.65,3.47,4.48s-1.49,4.48-3.47,4.48a2.78,2.78,0,0,1-2.55-1.42v4h-1.47V551.23h1.47Zm2.25,6.3c1.47,0,2.22-1.21,2.22-3.26s-.75-3.25-2.22-3.25c-1.24,0-2.31,1-2.31,3.25S281.3,558.83,282.54,558.83Z"/>
    <path class="cls-2" d="M290.63,552.53a2.74,2.74,0,0,1,2.54-1.44c2,0,3.48,1.65,3.48,4.48s-1.49,4.48-3.48,4.48a2.76,2.76,0,0,1-2.54-1.42v4h-1.47V551.23h1.47Zm2.24,6.3c1.47,0,2.23-1.21,2.23-3.26s-.76-3.25-2.23-3.25c-1.23,0-2.3,1-2.3,3.25S291.64,558.83,292.87,558.83Z"/>
    <path class="cls-2" d="M303.69,548.24v10.34h2.45v1.26h-6.36v-1.26h2.43v-9.09h-2.43v-1.25Z"/>
    <path class="cls-2" d="M314.12,551.23v7.35h2.45v1.26h-6.36v-1.26h2.44V552.5h-2.44v-1.27Zm0-3V550h-1.47v-1.74Z"/>
    <path class="cls-2" d="M327.19,554.1H325.7a2,2,0,0,0-2-1.8c-1.28,0-2.34,1.11-2.34,3.27s1.06,3.28,2.34,3.28a2.13,2.13,0,0,0,2.1-1.78h1.52a3.59,3.59,0,0,1-3.7,3c-2.38,0-3.81-1.85-3.81-4.48s1.49-4.48,4-4.48A3.35,3.35,0,0,1,327.19,554.1Z"/>
    <path class="cls-2" d="M330.25,557.6c0-2.05,2.17-2.67,5.69-3.05v-.37a1.69,1.69,0,0,0-1.93-1.94A1.78,1.78,0,0,0,332,554h-1.51a3.31,3.31,0,0,1,3.57-2.89c2.39,0,3.41,1.05,3.38,3.44l0,2.09c0,1.45.07,2.68.12,3.25h-1.41l0-1.26a3.14,3.14,0,0,1-3,1.47A2.51,2.51,0,0,1,330.25,557.6Zm5.81-1.89c-2.63.26-4.23.63-4.23,1.86,0,.82.59,1.3,1.63,1.3,1.31,0,2.6-.63,2.6-2.92Z"/>
    <path class="cls-2" d="M342.23,549.07h1.47v2.16h3.52v1.27H343.7v5c0,.89.05,1.11.87,1.11h2.65v1.26h-3c-1.57,0-2-.36-2-2.16V552.5h-2.45v-1.27h2.45Z"/>
    <path class="cls-2" d="M355.46,551.23v7.35h2.45v1.26h-6.35v-1.26H354V552.5h-2.43v-1.27Zm0-3V550H354v-1.74Z"/>
    <path class="cls-2" d="M364.92,551.09c2,0,4,1.36,4,4.48s-2,4.48-4,4.48-4-1.36-4-4.48S363,551.09,364.92,551.09Zm0,7.73c1.31,0,2.43-1,2.43-3.25s-1.12-3.25-2.43-3.25-2.43,1-2.43,3.25S363.61,558.82,364.92,558.82Z"/>
    <path class="cls-2" d="M373.38,552.45a2.69,2.69,0,0,1,2.53-1.36c2.08,0,2.71,1.37,2.71,3.28v5.47h-1.48v-5c0-1.39-.11-2.54-1.71-2.54-1.33,0-2.05,1-2.05,2.83v4.67h-1.47v-8.61h1.47Z"/>
    <path class="cls-2" d="M382.58,559.84l4.56-11.6h1.46L384,559.84Z"/>
    <path class="cls-2" d="M397.32,551.23v9c0,1.79-.47,2.36-2.05,2.36H393v-1.26h2c.72,0,.88-.18.88-1.07V552.5h-2.17v-1.27Zm0-3V550h-1.47v-1.74Z"/>
    <path class="cls-2" d="M408,553.58c-.19-1-1-1.28-1.92-1.28s-1.73.34-1.73,1.11.45,1,1.3,1.15l1,.19c1.48.29,3.09.85,3.09,2.58s-1.57,2.72-3.45,2.72a3.24,3.24,0,0,1-3.52-2.78h1.56a1.78,1.78,0,0,0,2,1.56c.91,0,1.92-.31,1.92-1.32,0-.8-.72-1.2-1.81-1.4l-1.07-.2c-1.37-.28-2.44-.95-2.44-2.44,0-1.66,1.81-2.38,3.25-2.38a3.18,3.18,0,0,1,3.4,2.49Z"/>
    <path class="cls-2" d="M416.6,551.09c2,0,4,1.36,4,4.48s-2,4.48-4,4.48-4-1.36-4-4.48S414.63,551.09,416.6,551.09Zm0,7.73c1.31,0,2.43-1,2.43-3.25s-1.12-3.25-2.43-3.25-2.43,1-2.43,3.25S415.29,558.82,416.6,558.82Z"/>
    <path class="cls-2" d="M425.06,552.45a2.69,2.69,0,0,1,2.53-1.36c2.08,0,2.7,1.37,2.7,3.28v5.47h-1.47v-5c0-1.39-.11-2.54-1.71-2.54-1.33,0-2.05,1-2.05,2.83v4.67h-1.47v-8.61h1.47Z"/>
  </g>
  <g>
    <path class="cls-3" d="M534.57,349.4a4.57,4.57,0,0,1,3.18,1,3.66,3.66,0,0,1,1.13,2.87,3.87,3.87,0,0,1-.8,2.53,3.82,3.82,0,0,1-2.28,1.25l4.43,7.12h-2.05l-4.41-7h-2.32v7h-1.84V349.4Zm1.82,5.54a2,2,0,0,0,.63-1.65c0-1.45-.83-2.17-2.51-2.17h-3.06v4.35h3.06A2.89,2.89,0,0,0,536.39,354.94Z"/>
    <path class="cls-3" d="M550.82,359.14H543a4.29,4.29,0,0,0,.89,2.64,2.72,2.72,0,0,0,2.24,1,3.08,3.08,0,0,0,1.79-.49,4.09,4.09,0,0,0,1.25-1.58l1.48.63a5.63,5.63,0,0,1-1.85,2.28,4.83,4.83,0,0,1-2.72.72,4.52,4.52,0,0,1-2.6-.75,4.77,4.77,0,0,1-1.67-2,6.37,6.37,0,0,1-.58-2.73,6.47,6.47,0,0,1,.58-2.76,4.65,4.65,0,0,1,1.67-2,4.51,4.51,0,0,1,2.6-.74,4.67,4.67,0,0,1,2.54.67,4.46,4.46,0,0,1,1.65,1.82,5.57,5.57,0,0,1,.57,2.53Zm-1.78-1.5a3.25,3.25,0,0,0-.95-2,3.06,3.06,0,0,0-3.93,0,3.56,3.56,0,0,0-1.08,2Z"/>
    <path class="cls-3" d="M560.68,362.86a3.59,3.59,0,0,1-1.33,1.1,4,4,0,0,1-1.77.4,4.67,4.67,0,0,1-2.61-.71,4.36,4.36,0,0,1-1.64-1.95,7.56,7.56,0,0,1,0-5.66,4.44,4.44,0,0,1,1.64-2,4.67,4.67,0,0,1,2.61-.7,4,4,0,0,1,1.84.44,3.18,3.18,0,0,1,1.26,1v-1.29h1.73v15h-1.73v-5.64Zm-.68-1.15a4.58,4.58,0,0,0,.83-2.84A4.53,4.53,0,0,0,560,356a2.95,2.95,0,0,0-4.57,0,5.27,5.27,0,0,0,0,5.68,2.75,2.75,0,0,0,2.29,1.09A2.7,2.7,0,0,0,560,361.71Z"/>
    <path class="cls-3" d="M566.47,363.47a3.4,3.4,0,0,1-.89-2.51v-7.42h1.75v7a2.46,2.46,0,0,0,.5,1.66,1.84,1.84,0,0,0,1.45.56,2.5,2.5,0,0,0,1.58-.57,3.7,3.7,0,0,0,1.13-1.65,6.94,6.94,0,0,0,.41-2.52v-4.52h1.73v10.65H572.4v-2.05a4.44,4.44,0,0,1-1.51,1.62,3.69,3.69,0,0,1-2,.6A3.21,3.21,0,0,1,566.47,363.47Z"/>
    <path class="cls-3" d="M586.3,359.14h-7.84a4.35,4.35,0,0,0,.89,2.64,2.73,2.73,0,0,0,2.24,1,3.13,3.13,0,0,0,1.8-.49,4.08,4.08,0,0,0,1.24-1.58l1.48.63a5.56,5.56,0,0,1-1.85,2.28,4.8,4.8,0,0,1-2.71.72,4.5,4.5,0,0,1-2.6-.75,4.87,4.87,0,0,1-1.68-2,6.37,6.37,0,0,1-.58-2.73,6.47,6.47,0,0,1,.58-2.76,4.75,4.75,0,0,1,1.68-2,4.49,4.49,0,0,1,2.6-.74,4.64,4.64,0,0,1,2.53.67,4.46,4.46,0,0,1,1.65,1.82,5.57,5.57,0,0,1,.57,2.53Zm-1.77-1.5a3.37,3.37,0,0,0-.95-2,2.81,2.81,0,0,0-2-.73,2.77,2.77,0,0,0-1.9.7,3.45,3.45,0,0,0-1.08,2Z"/>
    <path class="cls-3" d="M589.26,363.51a3.86,3.86,0,0,1-1.33-2l1.45-.79a3.58,3.58,0,0,0,.92,1.57,2.34,2.34,0,0,0,1.6.55,1.69,1.69,0,0,0,1.23-.43,1.5,1.5,0,0,0,.46-1.18,1.32,1.32,0,0,0-.58-1.1,7.43,7.43,0,0,0-1.72-.84,5.3,5.3,0,0,1-2-1.16,2.54,2.54,0,0,1-.68-1.86,2.65,2.65,0,0,1,.87-2.06,3.2,3.2,0,0,1,2.23-.79,3.38,3.38,0,0,1,3.08,1.66l-1.14,1a2.21,2.21,0,0,0-2-1.12,1.44,1.44,0,0,0-1,.35,1.17,1.17,0,0,0-.41.94,1.2,1.2,0,0,0,.52,1,8,8,0,0,0,1.85.88c1.73.63,2.6,1.64,2.6,3a3.05,3.05,0,0,1-.93,2.36,3.46,3.46,0,0,1-2.47.87A3.93,3.93,0,0,1,589.26,363.51Z"/>
    <path class="cls-3" d="M598.89,363.5a3.55,3.55,0,0,1-.82-2.56v-5.83h-1.8v-1.57h1.8v-3.18l1.75-1.12v4.3h2.85v1.57h-2.85v5.95c0,1.16.49,1.74,1.48,1.74a2.35,2.35,0,0,0,1.22-.3L603,364a4.11,4.11,0,0,1-1.82.38A3,3,0,0,1,598.89,363.5Z"/>
  </g>
  <g>
    <path class="cls-3" d="M534.57,501.49a4.57,4.57,0,0,1,3.18,1,3.67,3.67,0,0,1,1.13,2.87,3.53,3.53,0,0,1-3.08,3.78l4.43,7.12h-2.05l-4.41-7h-2.32v7h-1.84V501.49Zm1.82,5.53a2,2,0,0,0,.63-1.65c0-1.45-.83-2.17-2.51-2.17h-3.06v4.35h3.06A2.89,2.89,0,0,0,536.39,507Z"/>
    <path class="cls-3" d="M550.82,511.22H543a4.29,4.29,0,0,0,.89,2.64,2.72,2.72,0,0,0,2.24,1,3,3,0,0,0,1.79-.49,4.09,4.09,0,0,0,1.25-1.58l1.48.63a5.57,5.57,0,0,1-1.85,2.28,4.83,4.83,0,0,1-2.72.72,4.52,4.52,0,0,1-2.6-.75,4.77,4.77,0,0,1-1.67-2,6.34,6.34,0,0,1-.58-2.73,6.47,6.47,0,0,1,.58-2.76,4.71,4.71,0,0,1,1.67-2,4.51,4.51,0,0,1,2.6-.74,4.67,4.67,0,0,1,2.54.67,4.46,4.46,0,0,1,1.65,1.82,5.61,5.61,0,0,1,.57,2.54Zm-1.78-1.5a3.28,3.28,0,0,0-.95-2,3.06,3.06,0,0,0-3.93,0,3.56,3.56,0,0,0-1.08,2Z"/>
    <path class="cls-3" d="M553.77,515.6a4,4,0,0,1-1.33-2.05l1.46-.78a3.5,3.5,0,0,0,.92,1.56,2.25,2.25,0,0,0,1.59.55,1.76,1.76,0,0,0,1.24-.42,1.57,1.57,0,0,0,.45-1.19,1.31,1.31,0,0,0-.58-1.1,7.23,7.23,0,0,0-1.72-.84,5.25,5.25,0,0,1-1.95-1.16,2.54,2.54,0,0,1-.69-1.86,2.63,2.63,0,0,1,.88-2.06,3.17,3.17,0,0,1,2.23-.79,3.38,3.38,0,0,1,3.08,1.67l-1.14,1a2.21,2.21,0,0,0-2-1.12,1.49,1.49,0,0,0-1,.35,1.24,1.24,0,0,0,.12,1.92,7.82,7.82,0,0,0,1.85.88c1.73.63,2.59,1.65,2.59,3a3.09,3.09,0,0,1-.93,2.37,3.49,3.49,0,0,1-2.47.86A4,4,0,0,1,553.77,515.6Z"/>
    <path class="cls-3" d="M563.85,505.63V507a3.15,3.15,0,0,1,1.23-1.08,3.87,3.87,0,0,1,1.87-.46,4.56,4.56,0,0,1,2.6.71,4.4,4.4,0,0,1,1.63,1.95,7.56,7.56,0,0,1,0,5.66,4.4,4.4,0,0,1-1.63,2,4.56,4.56,0,0,1-2.6.71,4.16,4.16,0,0,1-1.77-.41,3.31,3.31,0,0,1-1.33-1.09v5.64h-1.76v-15Zm5.23,8.16a5.27,5.27,0,0,0,0-5.68,2.73,2.73,0,0,0-2.3-1.09,2.69,2.69,0,0,0-2.28,1.09,5.3,5.3,0,0,0,0,5.68,2.94,2.94,0,0,0,4.57,0Z"/>
    <path class="cls-3" d="M576.09,515.69a5,5,0,0,1-1.8-2,6.13,6.13,0,0,1-.62-2.72,6.21,6.21,0,0,1,.62-2.73,5,5,0,0,1,1.8-2,5,5,0,0,1,7.2,2,6.07,6.07,0,0,1,.62,2.73,6,6,0,0,1-.62,2.72,5.1,5.1,0,0,1-7.2,2Zm4.5-1.36a3.47,3.47,0,0,0,1.13-1.45,5.09,5.09,0,0,0,0-3.86,3.47,3.47,0,0,0-1.13-1.45,2.93,2.93,0,0,0-1.79-.55,2.9,2.9,0,0,0-1.78.55,3.49,3.49,0,0,0-1.14,1.45,5,5,0,0,0,0,3.86,3.49,3.49,0,0,0,1.14,1.45,2.9,2.9,0,0,0,1.78.55A2.93,2.93,0,0,0,580.59,514.33Z"/>
    <path class="cls-3" d="M588.22,505.63v2.05a4.53,4.53,0,0,1,1.51-1.62,3.69,3.69,0,0,1,2-.6,3.23,3.23,0,0,1,2.39.88,3.42,3.42,0,0,1,.88,2.52v7.41h-1.73v-7a2.44,2.44,0,0,0-.49-1.66,1.88,1.88,0,0,0-1.47-.56,2.48,2.48,0,0,0-1.58.57,3.88,3.88,0,0,0-1.12,1.64,7,7,0,0,0-.41,2.5v4.54h-1.75V505.63Z"/>
    <path class="cls-3" d="M598.68,515.6a3.93,3.93,0,0,1-1.33-2.05l1.46-.78a3.49,3.49,0,0,0,.91,1.56,2.29,2.29,0,0,0,1.6.55,1.73,1.73,0,0,0,1.23-.42,1.54,1.54,0,0,0,.46-1.19,1.31,1.31,0,0,0-.58-1.1,7.43,7.43,0,0,0-1.72-.84,5.3,5.3,0,0,1-2-1.16,2.54,2.54,0,0,1-.68-1.86,2.65,2.65,0,0,1,.87-2.06,3.2,3.2,0,0,1,2.23-.79,3.36,3.36,0,0,1,3.08,1.67l-1.14,1a2.2,2.2,0,0,0-2-1.12,1.46,1.46,0,0,0-1,.35,1.18,1.18,0,0,0-.4.94,1.19,1.19,0,0,0,.51,1,8,8,0,0,0,1.85.88c1.73.63,2.6,1.65,2.6,3a3.09,3.09,0,0,1-.93,2.37,3.5,3.5,0,0,1-2.47.86A4,4,0,0,1,598.68,515.6Z"/>
    <path class="cls-3" d="M616,511.22h-7.84a4.29,4.29,0,0,0,.89,2.64,2.72,2.72,0,0,0,2.24,1,3,3,0,0,0,1.79-.49,4.09,4.09,0,0,0,1.25-1.58l1.48.63a5.57,5.57,0,0,1-1.85,2.28,4.82,4.82,0,0,1-2.71.72,4.5,4.5,0,0,1-2.6-.75,4.72,4.72,0,0,1-1.68-2,6.34,6.34,0,0,1-.58-2.73,6.47,6.47,0,0,1,.58-2.76,4.67,4.67,0,0,1,1.68-2,4.49,4.49,0,0,1,2.6-.74,4.66,4.66,0,0,1,2.53.67,4.46,4.46,0,0,1,1.65,1.82,5.61,5.61,0,0,1,.57,2.54Zm-1.78-1.5a3.28,3.28,0,0,0-.95-2,2.77,2.77,0,0,0-2-.73,2.8,2.8,0,0,0-1.91.7,3.5,3.5,0,0,0-1.07,2Z"/>
  </g>
  <g>
    <path class="cls-3" d="M222.94,220.1a14.29,14.29,0,0,1-5.65-5.75,20.61,20.61,0,0,1,0-18.21,14.23,14.23,0,0,1,5.65-5.75,15.8,15.8,0,0,1,7.76-1.95,14.56,14.56,0,0,1,8.88,2.61,12.41,12.41,0,0,1,4.72,7.34l-5.49,1.41a9.52,9.52,0,0,0-2.95-4.23,8.18,8.18,0,0,0-5.16-1.5,9.17,9.17,0,0,0-4.74,1.25,8.67,8.67,0,0,0-3.35,3.75,16,16,0,0,0,0,12.34,8.64,8.64,0,0,0,3.35,3.76,9.16,9.16,0,0,0,4.74,1.24,8.18,8.18,0,0,0,5.16-1.5,9.48,9.48,0,0,0,2.95-4.22l5.49,1.4a12.47,12.47,0,0,1-4.72,7.35,14.56,14.56,0,0,1-8.88,2.6A15.9,15.9,0,0,1,222.94,220.1Z"/>
    <path class="cls-3" d="M249.55,188.44h5.82v33.23h-5.82Z"/>
    <path class="cls-3" d="M262.17,193.88a3.61,3.61,0,0,1-1.08-2.67,3.75,3.75,0,1,1,7.5,0,3.78,3.78,0,0,1-6.42,2.67Zm-.24,4.13h5.82v23.66h-5.82Z"/>
    <path class="cls-3" d="M295.27,211.72H279a6.46,6.46,0,0,0,1.86,4,5.32,5.32,0,0,0,3.77,1.36,5.88,5.88,0,0,0,3.31-.89,8.15,8.15,0,0,0,2.41-2.77l4.69,1.73a10.67,10.67,0,0,1-10.74,6.9,10.43,10.43,0,0,1-10.15-6.4,14.59,14.59,0,0,1,0-11.59,10.68,10.68,0,0,1,3.75-4.6,10.8,10.8,0,0,1,6.4-1.81,10.25,10.25,0,0,1,9.85,6.19,13.63,13.63,0,0,1,1.17,5.5Zm-5.95-4.6a6.46,6.46,0,0,0-1.67-3.24,4.56,4.56,0,0,0-3.4-1.27,4.86,4.86,0,0,0-3.23,1.15,6.32,6.32,0,0,0-1.93,3.36Z"/>
    <path class="cls-3" d="M306.34,198v3.81a10.65,10.65,0,0,1,3.24-3,7.7,7.7,0,0,1,4.08-1.13,7.48,7.48,0,0,1,5.27,1.83,6.84,6.84,0,0,1,2,5.3v16.9h-5.82V206.51a4.11,4.11,0,0,0-.91-3,3.3,3.3,0,0,0-2.46-.94,3.9,3.9,0,0,0-2.68,1.13,7.92,7.92,0,0,0-2,3.31,16,16,0,0,0-.75,5.18v9.44h-5.81V198Z"/>
    <path class="cls-3" d="M330.17,219.84c-1.54-1.47-2.3-3.65-2.3-6.53V203h-3.66v-5h3.66V192.1l5.81-3.66V198h6.24v5h-6.24v10.23a4.46,4.46,0,0,0,.78,3,2.94,2.94,0,0,0,2.32.87,4.87,4.87,0,0,0,2.25-.56l1.36,4.69a9.11,9.11,0,0,1-3.85.84A8.81,8.81,0,0,1,330.17,219.84Z"/>
  </g>
  <g>
    <path class="cls-3" d="M813.72,220.82a11.15,11.15,0,0,1-3.94-3.33,11.51,11.51,0,0,1-2.09-4.65l4.92-3.09a11.28,11.28,0,0,0,2.37,4.83,5.29,5.29,0,0,0,4.15,1.83,4.75,4.75,0,0,0,3.1-1,3.57,3.57,0,0,0,1.17-2.93,3.23,3.23,0,0,0-.8-2.16,7.59,7.59,0,0,0-2-1.65c-.8-.46-1.93-1.06-3.4-1.78l-1.36-.66a12.81,12.81,0,0,1-4.5-3.54,8.51,8.51,0,0,1-1.69-5.47,8.89,8.89,0,0,1,1.15-4.5,8.14,8.14,0,0,1,3.23-3.17,9.66,9.66,0,0,1,4.76-1.15q6.81,0,9.29,6l-4.92,3.15c-.82-2.32-2.27-3.48-4.37-3.48a3.43,3.43,0,0,0-2.34.87,2.73,2.73,0,0,0-1,2.14,3.25,3.25,0,0,0,.87,2.23,8.11,8.11,0,0,0,2.11,1.64c.83.45,2,1,3.59,1.76a25,25,0,0,1,3.87,2.2,8.77,8.77,0,0,1,2.58,2.94,8.86,8.86,0,0,1,1,4.38,9.88,9.88,0,0,1-1.34,5.19,8.84,8.84,0,0,1-3.73,3.43A12.09,12.09,0,0,1,819,222,11.21,11.21,0,0,1,813.72,220.82Z"/>
    <path class="cls-3" d="M855.43,211.72H839.11a6.5,6.5,0,0,0,1.85,4,5.37,5.37,0,0,0,3.78,1.36,5.85,5.85,0,0,0,3.3-.89,8.07,8.07,0,0,0,2.42-2.77l4.69,1.73a10.69,10.69,0,0,1-10.74,6.9,10.84,10.84,0,0,1-6.4-1.8,10.66,10.66,0,0,1-3.75-4.6,14.59,14.59,0,0,1,0-11.59,10.54,10.54,0,0,1,3.75-4.6,10.78,10.78,0,0,1,6.4-1.81,10.25,10.25,0,0,1,9.85,6.19,13.63,13.63,0,0,1,1.17,5.5Zm-6-4.6a6.44,6.44,0,0,0-1.66-3.24,4.56,4.56,0,0,0-3.4-1.27,4.9,4.9,0,0,0-3.24,1.15,6.37,6.37,0,0,0-1.92,3.36Z"/>
    <path class="cls-3" d="M866.5,198v3.85a9.41,9.41,0,0,1,3.09-3.12,7.48,7.48,0,0,1,3.9-1.1,10.08,10.08,0,0,1,2.86.47l-1.08,5.4a4.58,4.58,0,0,0-2.44-.66,5.38,5.38,0,0,0-4.55,2.51q-1.78,2.5-1.78,7.91v8.4h-5.82V198Z"/>
    <path class="cls-3" d="M878.41,198h5.86l4.78,16.48L893.84,198h5.86l-8,23.66h-5.25Z"/>
    <path class="cls-3" d="M924.09,211.72H907.77a6.45,6.45,0,0,0,1.85,4,5.32,5.32,0,0,0,3.77,1.36,5.86,5.86,0,0,0,3.31-.89,8.17,8.17,0,0,0,2.42-2.77l4.69,1.73a10.69,10.69,0,0,1-10.74,6.9,10.43,10.43,0,0,1-10.16-6.4,14.71,14.71,0,0,1,0-11.59,10.68,10.68,0,0,1,3.75-4.6,10.81,10.81,0,0,1,6.41-1.81,10.23,10.23,0,0,1,9.84,6.19,13.48,13.48,0,0,1,1.18,5.5Zm-6-4.6a6.52,6.52,0,0,0-1.66-3.24,4.58,4.58,0,0,0-3.4-1.27,4.9,4.9,0,0,0-3.24,1.15,6.24,6.24,0,0,0-1.92,3.36Z"/>
    <path class="cls-3" d="M935.15,198v3.85a9.53,9.53,0,0,1,3.1-3.12,7.47,7.47,0,0,1,3.89-1.1,10,10,0,0,1,2.86.47l-1.08,5.4a4.58,4.58,0,0,0-2.44-.66,5.37,5.37,0,0,0-4.54,2.51q-1.79,2.5-1.79,7.91v8.4h-5.81V198Z"/>
  </g>
  <g>
    <path class="cls-5" d="M661,326.09v254a9.05,9.05,0,0,0,.19,1.78,5.79,5.79,0,0,0-.19,1.43c0,20.07,101,36.33,225.48,36.33S1112,603.37,1112,583.3a6.33,6.33,0,0,0-.17-1.36,11.16,11.16,0,0,0,.17-1.85c0-.17,0-.34,0-.51s0-.37,0-.56V326.09Z"/>
    <path class="cls-2" d="M886.52,620.13c-60.26,0-116.91-3.78-159.52-10.65-42.86-6.9-66.46-16.2-66.46-26.18a6.39,6.39,0,0,1,.17-1.44,9.21,9.21,0,0,1-.17-1.77V325.59h452V579a3.4,3.4,0,0,1,0,.45v.15l0,.13c0,.11,0,.22,0,.34a11.36,11.36,0,0,1-.16,1.84,6.42,6.42,0,0,1,.16,1.37c0,10-23.6,19.28-66.46,26.18C1003.42,616.35,946.77,620.13,886.52,620.13Zm-225-293.54v253.5a7.82,7.82,0,0,0,.18,1.68l0,.11,0,.11a5.48,5.48,0,0,0-.17,1.31c0,9.29,23.91,18.48,65.62,25.2,42.56,6.85,99.16,10.63,159.36,10.63s116.8-3.78,159.36-10.63c41.7-6.72,65.62-15.91,65.62-25.2a5.55,5.55,0,0,0-.16-1.25l0-.1v-.1a9.65,9.65,0,0,0,.17-1.76,1.79,1.79,0,0,0,0-.23,2.11,2.11,0,0,1,0-.26l0-.23c0-.12,0-.23,0-.35V326.59Z"/>
  </g>
  <g>
    <path class="cls-6" d="M706.38,383.52v11.62h-1.52v-5.27h-4.49v5.27h-1.52V383.52h1.52v4.91h4.49v-4.91Z"/>
    <path class="cls-6" d="M712.18,385h-3.49v-1.45h8.5V385H713.7v10.16h-1.52Z"/>
    <path class="cls-6" d="M722.52,385H719v-1.45h8.5V385H724v10.16h-1.52Z"/>
    <path class="cls-6" d="M733.24,383.53c2.54,0,4.5.69,4.5,3.57s-2,3.57-4.5,3.57h-1.33v4.47h-1.52V383.53ZM731.91,385v4.25h1.52c1.55,0,2.74-.24,2.74-2.13S735,385,733.43,385Z"/>
    <path class="cls-6" d="M741,395.14l4.56-11.61H747l-4.56,11.61Z"/>
    <path class="cls-6" d="M755.32,383.53v10.34h2.43v1.27h-6.86v-1.27h3v-7.81h-3v-1c1.93-.05,2.88-.26,3.47-1.53Z"/>
    <path class="cls-6" d="M763.7,395.14V393.3h1.84v1.84Z"/>
    <path class="cls-6" d="M776,383.53v10.34h2.43v1.27h-6.86v-1.27h3v-7.81h-3v-1c1.93-.05,2.88-.26,3.47-1.53Z"/>
    <path class="cls-6" d="M799.37,386.45c0,2.69-2.59,5.06-5.56,7.42h5.77v1.27h-7.83v-1.27c3.89-3,6-5.2,6-7.23a1.89,1.89,0,0,0-2-2.07c-1.2,0-2.31.74-2.34,2.65H792a3.68,3.68,0,0,1,3.85-3.89C797.85,383.33,799.37,384.48,799.37,386.45Z"/>
    <path class="cls-6" d="M801.91,389.28c0-3.6,1.12-5.95,4.05-5.95s4.06,2.35,4.06,5.95-1.13,6.07-4.06,6.07S801.91,392.88,801.91,389.28Zm1.5.59,5-2.29c-.25-2-1.07-3-2.46-3-1.75,0-2.56,1.54-2.56,4.71C803.4,389.49,803.4,389.68,803.41,389.87Zm5.13-.59a4.26,4.26,0,0,0,0-.51l-5,2.32c.27,2,1.07,3,2.45,3C807.7,394.08,808.54,392.45,808.54,389.28Z"/>
    <path class="cls-6" d="M812.25,389.28c0-3.6,1.12-5.95,4-5.95s4.07,2.35,4.07,5.95-1.14,6.07-4.07,6.07S812.25,392.88,812.25,389.28Zm1.5.59,5-2.29c-.26-2-1.07-3-2.47-3-1.74,0-2.56,1.54-2.56,4.71A5.62,5.62,0,0,0,813.75,389.87Zm5.12-.59c0-.18,0-.34,0-.51l-5,2.32c.27,2,1.07,3,2.44,3C818,394.08,818.87,392.45,818.87,389.28Z"/>
    <path class="cls-6" d="M841.32,389.33c0,3.49-1.44,6-4.34,6s-4.34-2.53-4.34-6,1.44-6,4.34-6S841.32,385.82,841.32,389.33Zm-7.11,0c0,2.93.87,4.61,2.77,4.61s2.77-1.68,2.77-4.61-.85-4.6-2.77-4.6S834.21,386.4,834.21,389.33Z"/>
    <path class="cls-6" d="M845.4,389.09l4.14-5.56h1.8l-3.51,4.53,3.95,7.08H850l-3.2-5.79-1.44,1.85v3.94h-1.52V383.53h1.52Z"/>
    <path class="cls-6" d="M700.93,419.53c3.3,0,6,1.37,6,5.8s-2.66,5.81-6,5.81h-2V419.53Zm0,1.45h-.42v8.72h.42c2.16,0,4.45-.43,4.45-4.37S703.05,421,700.89,421Z"/>
    <path class="cls-6" d="M709.29,428.9c0-2,2.17-2.67,5.69-3.06v-.37a1.69,1.69,0,0,0-1.93-1.93c-1.33,0-2,.65-2,1.71h-1.51a3.31,3.31,0,0,1,3.57-2.9c2.39,0,3.41,1.06,3.38,3.44l0,2.1c0,1.44.07,2.67.12,3.25h-1.41l0-1.27a3.15,3.15,0,0,1-3,1.48A2.51,2.51,0,0,1,709.29,428.9ZM715.1,427c-2.63.26-4.23.62-4.23,1.86,0,.81.59,1.29,1.63,1.29,1.32,0,2.6-.62,2.6-2.91Z"/>
    <path class="cls-6" d="M721.27,420.37h1.47v2.16h3.52v1.26h-3.52v5c0,.88,0,1.1.87,1.1h2.65v1.27h-3c-1.57,0-2-.37-2-2.16v-5.19h-2.45v-1.26h2.45Z"/>
    <path class="cls-6" d="M729.77,426.87c0-2.77,1.63-4.5,3.9-4.5,2.51,0,4,1.84,3.84,4.91h-6.19c0,1.73,1,2.87,2.32,2.87a2.07,2.07,0,0,0,2.22-1.59h1.52a3.54,3.54,0,0,1-3.71,2.79C731.06,431.35,729.77,429.41,729.77,426.87Zm1.56-.81h4.61a2.21,2.21,0,0,0-2.27-2.48C732.28,423.58,731.4,424.4,731.33,426.06Z"/>
    <path class="cls-6" d="M743,424.37v-1.84h1.84v1.84Zm0,6.77V429.3h1.84v1.84Z"/>
    <path class="cls-6" d="M763.86,421h-3.49v-1.45h8.5V421h-3.49v10.16h-1.52Z"/>
    <path class="cls-6" d="M776.82,430a2.68,2.68,0,0,1-2.53,1.32c-2.08,0-2.67-1.38-2.67-3.28v-5.54h1.47v5c0,1.4.08,2.53,1.68,2.53,1.33,0,2.05-1,2.05-2.81v-4.74h1.48v8.61h-1.48Z"/>
    <path class="cls-6" d="M781.45,426.87c0-2.77,1.63-4.5,3.9-4.5,2.51,0,3.95,1.84,3.84,4.91H783c0,1.73,1,2.87,2.32,2.87a2.07,2.07,0,0,0,2.22-1.59h1.52a3.54,3.54,0,0,1-3.71,2.79C782.74,431.35,781.45,429.41,781.45,426.87Zm1.56-.81h4.61a2.21,2.21,0,0,0-2.27-2.48C784,423.58,783.08,424.4,783,426.06Z"/>
    <path class="cls-6" d="M797.42,424.88c-.2-1-.95-1.28-1.92-1.28s-1.73.34-1.73,1.1.44,1,1.29,1.16l1,.19c1.49.29,3.09.85,3.09,2.58s-1.57,2.72-3.44,2.72a3.24,3.24,0,0,1-3.52-2.79h1.55a1.8,1.8,0,0,0,2,1.57c.92,0,1.92-.32,1.92-1.33,0-.8-.72-1.2-1.81-1.39l-1.07-.21c-1.36-.27-2.43-.94-2.43-2.43,0-1.67,1.81-2.39,3.25-2.39a3.17,3.17,0,0,1,3.39,2.5Z"/>
    <path class="cls-6" d="M805.05,429.3h1.84v2l-1,2.09H805l.85-2.22h-.78Z"/>
    <path class="cls-6" d="M827.67,419.53v10.34h2.43v1.27h-6.86v-1.27h3v-7.81h-3v-1c1.93-.05,2.88-.26,3.47-1.53Z"/>
    <path class="cls-6" d="M840.71,422.45c0,2.69-2.59,5.06-5.55,7.42h5.76v1.27h-7.83v-1.27c3.89-3,6-5.2,6-7.23a1.88,1.88,0,0,0-2-2.07c-1.2,0-2.3.74-2.33,2.65H833.3a3.69,3.69,0,0,1,3.86-3.89C839.19,419.33,840.71,420.48,840.71,422.45Z"/>
    <path class="cls-6" d="M862,425.33c0,3.49-1.44,6-4.34,6s-4.33-2.53-4.33-6,1.44-6,4.33-6S862,421.82,862,425.33Zm-7.1,0c0,2.93.86,4.61,2.76,4.61s2.77-1.68,2.77-4.61-.84-4.6-2.77-4.6S854.89,422.4,854.89,425.33Z"/>
    <path class="cls-6" d="M871.61,425.39h-1.49a2.05,2.05,0,0,0-2-1.79c-1.28,0-2.34,1.1-2.34,3.27s1.06,3.28,2.34,3.28a2.13,2.13,0,0,0,2.09-1.78h1.52a3.59,3.59,0,0,1-3.69,3c-2.39,0-3.81-1.86-3.81-4.48s1.49-4.49,3.95-4.49A3.37,3.37,0,0,1,871.61,425.39Z"/>
    <path class="cls-6" d="M876.31,420.37h1.47v2.16h3.52v1.26h-3.52v5c0,.88.05,1.1.87,1.1h2.65v1.27h-3c-1.57,0-2-.37-2-2.16v-5.19h-2.45v-1.26h2.45Z"/>
    <path class="cls-6" d="M902.73,422.45c0,2.69-2.6,5.06-5.56,7.42h5.77v1.27h-7.83v-1.27c3.89-3,6-5.2,6-7.23a1.89,1.89,0,0,0-2-2.07c-1.2,0-2.31.74-2.34,2.65h-1.5a3.68,3.68,0,0,1,3.85-3.89C901.21,419.33,902.73,420.48,902.73,422.45Z"/>
    <path class="cls-6" d="M905.27,425.28c0-3.6,1.12-5.95,4.05-5.95s4.06,2.35,4.06,5.95-1.13,6.07-4.06,6.07S905.27,428.88,905.27,425.28Zm1.5.59,5-2.29c-.25-2-1.07-3-2.46-3-1.75,0-2.56,1.54-2.56,4.71C906.76,425.49,906.76,425.68,906.77,425.87Zm5.13-.59a4.26,4.26,0,0,0,0-.51l-5,2.32c.27,2,1.07,3,2.45,3C911.06,430.08,911.9,428.45,911.9,425.28Z"/>
    <path class="cls-6" d="M923.4,422.45c0,2.69-2.59,5.06-5.55,7.42h5.76v1.27h-7.83v-1.27c3.89-3,6.05-5.2,6.05-7.23a1.89,1.89,0,0,0-2-2.07c-1.2,0-2.3.74-2.34,2.65H916a3.69,3.69,0,0,1,3.86-3.89C921.88,419.33,923.4,420.48,923.4,422.45Z"/>
    <path class="cls-6" d="M931,419.53v10.34h2.43v1.27H926.6v-1.27h3v-7.81h-3v-1c1.93-.05,2.88-.26,3.47-1.53Z"/>
    <path class="cls-6" d="M951.7,419.53v10.34h2.44v1.27h-6.87v-1.27h3v-7.81h-3v-1c1.94-.05,2.88-.26,3.47-1.53Z"/>
    <path class="cls-6" d="M962,419.53v10.34h2.43v1.27H957.6v-1.27h3v-7.81h-3v-1c1.94-.05,2.89-.26,3.48-1.53Z"/>
    <path class="cls-6" d="M970.42,424.37v-1.84h1.84v1.84Zm0,6.77V429.3h1.84v1.84Z"/>
    <path class="cls-6" d="M984.12,427.89c0-1.63-1.39-2.23-3.17-2.23h-.22v-1.29h.17c1.91,0,2.93-.63,2.93-2a1.9,1.9,0,0,0-2.14-1.83,2.26,2.26,0,0,0-2.39,2.25h-1.5a3.69,3.69,0,0,1,3.93-3.49c1.88,0,3.67.81,3.67,2.93a2.82,2.82,0,0,1-1.81,2.68,2.87,2.87,0,0,1,2.1,2.93c0,2.31-2,3.48-4.07,3.48a3.77,3.77,0,0,1-4-3.67h1.48a2.41,2.41,0,0,0,2.52,2.4A2.19,2.19,0,0,0,984.12,427.89Z"/>
    <path class="cls-6" d="M989.51,425a3.12,3.12,0,0,1,2.91-1.59,3.7,3.7,0,0,1,3.64,3.94,3.91,3.91,0,0,1-4,4c-2.76,0-4.1-2-4.1-5.56,0-3.26,1.2-6.46,4.38-6.46a3.32,3.32,0,0,1,3.49,2.86h-1.58a1.88,1.88,0,0,0-2-1.62C990.52,420.57,989.57,422.37,989.51,425Zm2.56,5.07a2.44,2.44,0,0,0,2.42-2.65,2.42,2.42,0,1,0-4.82,0A2.39,2.39,0,0,0,992.07,430.08Z"/>
    <path class="cls-6" d="M1001.43,424.37v-1.84h1.84v1.84Zm0,6.77V429.3h1.84v1.84Z"/>
    <path class="cls-6" d="M1016.42,422.45c0,2.69-2.59,5.06-5.55,7.42h5.76v1.27h-7.83v-1.27c3.89-3,6.05-5.2,6.05-7.23a1.88,1.88,0,0,0-2-2.07c-1.2,0-2.3.74-2.33,2.65H1009a3.69,3.69,0,0,1,3.86-3.89C1014.9,419.33,1016.42,420.48,1016.42,422.45Z"/>
    <path class="cls-6" d="M1024.05,419.53v10.34h2.44v1.27h-6.87v-1.27h3v-7.81h-3v-1c1.94-.05,2.88-.26,3.47-1.53Z"/>
    <path class="cls-6" d="M1040.93,425.31c0,2.87.87,4.63,2.8,4.63,1.4,0,2.71-.61,2.71-3v-.37h-2.67v-1.44h4.06v6h-1.15l-.07-1.46a3,3,0,0,1-2.94,1.67c-3,0-4.31-2.52-4.31-6s1.51-6,4.45-6c2.16,0,3.62,1.44,4,3.79h-1.57c-.19-1.35-.83-2.39-2.5-2.39C1041.89,420.73,1040.93,422.35,1040.93,425.31Z"/>
    <path class="cls-6" d="M1053.27,427.14l-1.7-6.12v10.12h-1.52V419.53h2.39l1.6,5.94,1.6-5.94H1058v11.61h-1.52V421l-1.69,6.12Z"/>
    <path class="cls-6" d="M1063.6,421h-3.48v-1.45h8.5V421h-3.49v10.16h-1.53Z"/>
    <path class="cls-6" d="M706.7,445.54c-.4,2.48-1.94,3.81-4,3.81-2.83,0-4.16-2.52-4.16-6s1.51-6,4.28-6c2,0,3.5,1.55,3.89,3.91h-1.56c-.19-1.33-.91-2.49-2.38-2.49-1.68,0-2.66,1.62-2.66,4.58s.91,4.63,2.69,4.63c1.47,0,2.21-1,2.42-2.4Z"/>
    <path class="cls-6" d="M713,440.38c2,0,4,1.36,4,4.49s-2,4.48-4,4.48-4-1.36-4-4.48S711,440.38,713,440.38Zm0,7.74c1.31,0,2.43-1,2.43-3.25s-1.12-3.25-2.43-3.25-2.43,1-2.43,3.25S711.64,448.12,713,448.12Z"/>
    <path class="cls-6" d="M721.41,441.74a2.72,2.72,0,0,1,2.53-1.36c2.08,0,2.71,1.38,2.71,3.28v5.48h-1.47v-5c0-1.39-.12-2.55-1.72-2.55-1.33,0-2.05,1-2.05,2.83v4.68h-1.47v-8.61h1.47Z"/>
    <path class="cls-6" d="M731.61,438.37h1.47v2.16h3.52v1.26h-3.52v5c0,.88,0,1.11.86,1.11h2.66v1.26h-3c-1.57,0-2-.37-2-2.16v-5.19h-2.45v-1.26h2.45Z"/>
    <path class="cls-6" d="M740.1,444.87c0-2.77,1.63-4.5,3.91-4.5,2.51,0,4,1.84,3.84,4.91h-6.2c0,1.73,1,2.87,2.33,2.87a2.07,2.07,0,0,0,2.22-1.59h1.52a3.54,3.54,0,0,1-3.71,2.79C741.4,449.35,740.1,447.41,740.1,444.87Zm1.57-.81h4.61a2.21,2.21,0,0,0-2.27-2.48C742.61,441.58,741.73,442.4,741.67,444.06Z"/>
    <path class="cls-6" d="M752.42,441.74a2.71,2.71,0,0,1,2.53-1.36c2.08,0,2.71,1.38,2.71,3.28v5.48h-1.48v-5c0-1.39-.11-2.55-1.71-2.55-1.33,0-2.05,1-2.05,2.83v4.68H751v-8.61h1.47Z"/>
    <path class="cls-6" d="M762.61,438.37h1.48v2.16h3.52v1.26h-3.52v5c0,.88,0,1.11.86,1.11h2.66v1.26h-3c-1.57,0-2-.37-2-2.16v-5.19h-2.44v-1.26h2.44Z"/>
    <path class="cls-6" d="M772.42,445.44v-1.38h5.09v1.38Z"/>
    <path class="cls-6" d="M783.65,447.7h5.7v1.44h-7.22V437.53h1.52Z"/>
    <path class="cls-6" d="M791.78,444.87c0-2.77,1.63-4.5,3.91-4.5,2.51,0,3.95,1.84,3.84,4.91h-6.2c0,1.73,1,2.87,2.33,2.87a2.07,2.07,0,0,0,2.22-1.59h1.52a3.54,3.54,0,0,1-3.71,2.79C793.08,449.35,791.78,447.41,791.78,444.87Zm1.57-.81H798a2.21,2.21,0,0,0-2.27-2.48C794.29,441.58,793.41,442.4,793.35,444.06Z"/>
    <path class="cls-6" d="M804.1,441.74a2.71,2.71,0,0,1,2.53-1.36c2.08,0,2.71,1.38,2.71,3.28v5.48h-1.48v-5c0-1.39-.11-2.55-1.71-2.55-1.33,0-2,1-2,2.83v4.68h-1.47v-8.61h1.47Z"/>
    <path class="cls-6" d="M818.28,440.53h1.47v7.54c0,1.76-.22,2.48-.69,3a4,4,0,0,1-3,1.14c-1.87,0-3.2-.9-3.45-2.6h1.55c.21.79.66,1.32,1.92,1.32a2.33,2.33,0,0,0,1.76-.64c.29-.34.45-.74.45-1.91v-.83a2.72,2.72,0,0,1-2.55,1.42c-2,0-3.47-1.45-3.47-4.3s1.49-4.31,3.47-4.31a2.74,2.74,0,0,1,2.55,1.44ZM816,441.62c-1.47,0-2.23,1-2.23,3.07s.76,3.09,2.23,3.09c1.23,0,2.3-.83,2.3-3.09S817.27,441.62,816,441.62Z"/>
    <path class="cls-6" d="M824.63,438.37h1.47v2.16h3.52v1.26H826.1v5c0,.88,0,1.11.87,1.11h2.65v1.26h-3c-1.57,0-2-.37-2-2.16v-5.19h-2.45v-1.26h2.45Z"/>
    <path class="cls-6" d="M840.34,443.66v5.48h-1.47v-5c0-1.39-.09-2.56-1.7-2.56-1.32,0-2.06,1-2.06,2.84v4.68h-1.47V437.53h1.47v4.21a2.76,2.76,0,0,1,2.55-1.36C839.74,440.38,840.34,441.76,840.34,443.66Z"/>
    <path class="cls-6" d="M846.39,442.37v-1.84h1.84v1.84Zm0,6.77V447.3h1.84v1.84Z"/>
    <path class="cls-6" d="M872.39,446.27h-1.93v2.87H869v-2.87h-5.47V444.9l5.46-7.37h1.49v7.37h1.93ZM865,444.9H869v-5.38Z"/>
    <path class="cls-6" d="M882.06,440.45c0,2.69-2.6,5.06-5.56,7.43h5.76v1.26h-7.82v-1.26c3.89-3,6-5.21,6-7.24a1.89,1.89,0,0,0-2-2.07c-1.2,0-2.31.74-2.34,2.65h-1.51a3.69,3.69,0,0,1,3.86-3.89C880.54,437.33,882.06,438.48,882.06,440.45Z"/>
    <path class="cls-6" d="M889.69,437.53v10.35h2.43v1.26h-6.87v-1.26h3v-7.82h-3v-1c1.94-.05,2.88-.26,3.48-1.53Z"/>
    <path class="cls-6" d="M706.7,463.54c-.4,2.48-1.94,3.81-4,3.81-2.83,0-4.16-2.52-4.16-6s1.51-6,4.28-6c2,0,3.5,1.55,3.89,3.91h-1.56c-.19-1.33-.91-2.49-2.38-2.49-1.68,0-2.66,1.62-2.66,4.58s.91,4.63,2.69,4.63c1.47,0,2.21-1,2.42-2.4Z"/>
    <path class="cls-6" d="M713,458.38c2,0,4,1.36,4,4.49s-2,4.48-4,4.48-4-1.36-4-4.48S711,458.38,713,458.38Zm0,7.74c1.31,0,2.43-1,2.43-3.25s-1.12-3.25-2.43-3.25-2.43,1-2.43,3.25S711.64,466.12,713,466.12Z"/>
    <path class="cls-6" d="M721.41,459.74a2.72,2.72,0,0,1,2.53-1.36c2.08,0,2.71,1.38,2.71,3.28v5.48h-1.47v-5c0-1.39-.12-2.55-1.72-2.55-1.33,0-2.05,1-2.05,2.83v4.68h-1.47v-8.61h1.47Z"/>
    <path class="cls-6" d="M731.61,456.37h1.47v2.16h3.52v1.26h-3.52v5c0,.88,0,1.11.86,1.11h2.66v1.26h-3c-1.57,0-2-.37-2-2.16v-5.19h-2.45v-1.26h2.45Z"/>
    <path class="cls-6" d="M740.1,462.87c0-2.77,1.63-4.5,3.91-4.5,2.51,0,4,1.84,3.84,4.91h-6.2c0,1.73,1,2.87,2.33,2.87a2.07,2.07,0,0,0,2.22-1.59h1.52a3.54,3.54,0,0,1-3.71,2.79C741.4,467.35,740.1,465.41,740.1,462.87Zm1.57-.81h4.61a2.21,2.21,0,0,0-2.27-2.48C742.61,459.58,741.73,460.4,741.67,462.06Z"/>
    <path class="cls-6" d="M752.42,459.74a2.71,2.71,0,0,1,2.53-1.36c2.08,0,2.71,1.38,2.71,3.28v5.48h-1.48v-5c0-1.39-.11-2.55-1.71-2.55-1.33,0-2.05,1-2.05,2.83v4.68H751v-8.61h1.47Z"/>
    <path class="cls-6" d="M762.61,456.37h1.48v2.16h3.52v1.26h-3.52v5c0,.88,0,1.11.86,1.11h2.66v1.26h-3c-1.57,0-2-.37-2-2.16v-5.19h-2.44v-1.26h2.44Z"/>
    <path class="cls-6" d="M784.53,457H781v-1.43h8.5V457h-3.48v10.17h-1.53Z"/>
    <path class="cls-6" d="M791.7,469.94v-1.26h1.55c.9,0,1.19-.12,1.64-1.35l.06-.19-3.22-8.61h1.62l2.34,6.64,2.29-6.64h1.52l-3.19,9c-.61,1.69-1.09,2.43-2.91,2.43Z"/>
    <path class="cls-6" d="M804,459.82a2.74,2.74,0,0,1,2.54-1.44c2,0,3.48,1.65,3.48,4.49s-1.49,4.48-3.48,4.48a2.75,2.75,0,0,1-2.54-1.43v4h-1.47V458.53H804Zm2.24,6.31c1.47,0,2.22-1.22,2.22-3.26s-.75-3.25-2.22-3.25c-1.23,0-2.31,1-2.31,3.25S805.05,466.13,806.28,466.13Z"/>
    <path class="cls-6" d="M812.45,462.87c0-2.77,1.64-4.5,3.91-4.5,2.51,0,3.95,1.84,3.84,4.91H814c0,1.73,1,2.87,2.32,2.87a2.07,2.07,0,0,0,2.22-1.59h1.52a3.53,3.53,0,0,1-3.71,2.79C813.75,467.35,812.45,465.41,812.45,462.87Zm1.57-.81h4.61a2.21,2.21,0,0,0-2.27-2.48C815,459.58,814.09,460.4,814,462.06Z"/>
    <path class="cls-6" d="M825.72,460.37v-1.84h1.84v1.84Zm0,6.77V465.3h1.84v1.84Z"/>
    <path class="cls-6" d="M845.3,456.37h1.47v2.16h3.53v1.26h-3.53v5c0,.88.05,1.11.87,1.11h2.66v1.26h-3c-1.57,0-2-.37-2-2.16v-5.19h-2.45v-1.26h2.45Z"/>
    <path class="cls-6" d="M853.8,462.87c0-2.77,1.63-4.5,3.9-4.5,2.52,0,4,1.84,3.84,4.91h-6.19c0,1.73,1,2.87,2.32,2.87a2.09,2.09,0,0,0,2.23-1.59h1.52a3.55,3.55,0,0,1-3.72,2.79C855.09,467.35,853.8,465.41,853.8,462.87Zm1.57-.81H860a2.22,2.22,0,0,0-2.28-2.48C856.31,459.58,855.43,460.4,855.37,462.06Z"/>
    <path class="cls-6" d="M868.81,462.71l3,4.43h-1.67l-2.16-3.2-2.16,3.2h-1.66l3-4.42-2.82-4.19H866l2,3,2-3h1.63Z"/>
    <path class="cls-6" d="M876.31,456.37h1.47v2.16h3.52v1.26h-3.52v5c0,.88.05,1.11.87,1.11h2.65v1.26h-3c-1.57,0-2-.37-2-2.16v-5.19h-2.45v-1.26h2.45Z"/>
    <path class="cls-6" d="M885.65,467.14l4.56-11.6h1.46l-4.56,11.6Z"/>
    <path class="cls-6" d="M897.06,459.82a2.76,2.76,0,0,1,2.55-1.44c2,0,3.47,1.65,3.47,4.49s-1.49,4.48-3.47,4.48a2.77,2.77,0,0,1-2.55-1.43v4h-1.47V458.53h1.47Zm2.24,6.31c1.48,0,2.23-1.22,2.23-3.26s-.75-3.25-2.23-3.25c-1.23,0-2.3,1-2.3,3.25S898.07,466.13,899.3,466.13Z"/>
    <path class="cls-6" d="M910.12,455.54v10.34h2.45v1.26h-6.36v-1.26h2.44v-9.1h-2.44v-1.24Z"/>
    <path class="cls-6" d="M916,464.9c0-2,2.18-2.68,5.7-3.06v-.37a1.69,1.69,0,0,0-1.93-1.93c-1.33,0-2,.65-2,1.71h-1.51a3.31,3.31,0,0,1,3.57-2.9c2.39,0,3.41,1.06,3.38,3.44l0,2.1c0,1.44.07,2.67.12,3.25h-1.41l0-1.26a3.16,3.16,0,0,1-3,1.47A2.52,2.52,0,0,1,916,464.9Zm5.82-1.89c-2.63.26-4.23.62-4.23,1.86,0,.81.59,1.29,1.63,1.29,1.31,0,2.6-.62,2.6-2.91Z"/>
    <path class="cls-6" d="M930.89,458.53v7.35h2.44v1.26H927v-1.26h2.43v-6.09H927v-1.26Zm0-3v1.74h-1.48v-1.74Z"/>
    <path class="cls-6" d="M938.47,459.74a2.71,2.71,0,0,1,2.53-1.36c2.08,0,2.7,1.38,2.7,3.28v5.48h-1.47v-5c0-1.39-.11-2.55-1.71-2.55-1.33,0-2,1-2,2.83v4.68H937v-8.61h1.47Z"/>
    <path class="cls-6" d="M706.57,494.59v1.57l-6.4,2.69,6.4,2.64V503l-8.23-3.57v-1.25Z"/>
    <path class="cls-6" d="M716.31,497.66v5.48h-1.47v-5c0-1.39-.1-2.56-1.7-2.56-1.33,0-2.06,1-2.06,2.84v4.68h-1.47v-11.6h1.47v4.2a2.75,2.75,0,0,1,2.54-1.36C715.7,494.38,716.31,495.76,716.31,497.66Z"/>
    <path class="cls-6" d="M721.27,492.37h1.47v2.16h3.52v1.26h-3.52v5c0,.88,0,1.11.87,1.11h2.65v1.26h-3c-1.57,0-2-.37-2-2.16v-5.19h-2.45v-1.26h2.45Z"/>
    <path class="cls-6" d="M735.77,494.38c.89,0,1.77.42,1.77,2.69v6.07h-1.47v-5.32c0-1.24,0-2.2-.73-2.2s-1,.86-1,2.64v4.88H732.9v-5.32c0-1.24,0-2.2-.72-2.2s-1,.88-1,2.67v4.85h-1.48v-8.61h1.41v.91a1.71,1.71,0,0,1,1.57-1.06,1.38,1.38,0,0,1,1.35,1.09A1.87,1.87,0,0,1,735.77,494.38Z"/>
    <path class="cls-6" d="M744.74,491.54v10.34h2.45v1.26h-6.35v-1.26h2.43v-9.1h-2.43v-1.24Z"/>
    <path class="cls-6" d="M758.57,499.47,750.34,503v-1.55l6.4-2.64-6.4-2.69v-1.57l8.23,3.63Z"/>
    <path class="cls-6" d="M727.24,512.59v1.57l-6.4,2.69,6.4,2.64V521L719,517.47v-1.25Z"/>
    <path class="cls-6" d="M731.69,513.82a2.76,2.76,0,0,1,2.56-1.44c2,0,3.46,1.65,3.46,4.49s-1.49,4.48-3.46,4.48a2.77,2.77,0,0,1-2.56-1.43l0,1.22h-1.46v-11.6h1.48Zm2.24,6.31c1.49,0,2.22-1.22,2.22-3.26s-.73-3.25-2.22-3.25c-1.22,0-2.31,1-2.31,3.25S732.71,520.13,733.93,520.13Z"/>
    <path class="cls-6" d="M744,512.38c2,0,4,1.36,4,4.49s-2,4.48-4,4.48-4-1.36-4-4.48S742,512.38,744,512.38Zm0,7.74c1.31,0,2.43-1,2.43-3.25s-1.12-3.25-2.43-3.25-2.43,1-2.43,3.25S742.65,520.12,744,520.12Z"/>
    <path class="cls-6" d="M756.23,509.54h1.47v11.6h-1.45l0-1.22a2.74,2.74,0,0,1-2.54,1.43c-2,0-3.48-1.64-3.48-4.48s1.49-4.49,3.48-4.49a2.73,2.73,0,0,1,2.54,1.44ZM754,513.62c-1.47,0-2.22,1.2-2.22,3.25s.75,3.26,2.22,3.26c1.23,0,2.31-1,2.31-3.26S755.22,513.62,754,513.62Z"/>
    <path class="cls-6" d="M760.69,523.94v-1.26h1.56c.89,0,1.18-.12,1.63-1.35l.06-.19-3.21-8.61h1.61l2.34,6.64,2.29-6.64h1.52l-3.19,9c-.6,1.69-1.09,2.43-2.91,2.43Z"/>
    <path class="cls-6" d="M779.24,517.47,771,521v-1.55l6.41-2.64L771,514.16v-1.57l8.23,3.63Z"/>
    <path class="cls-6" d="M747.91,530.59v1.57l-6.4,2.69,6.4,2.64V539l-8.22-3.57v-1.25Z"/>
    <path class="cls-6" d="M757.66,533.66v5.48h-1.48v-5c0-1.39-.09-2.56-1.69-2.56-1.33,0-2.07,1-2.07,2.84v4.68H751v-11.6h1.47v4.2a2.76,2.76,0,0,1,2.55-1.36C757.05,530.38,757.66,531.76,757.66,533.66Z"/>
    <path class="cls-6" d="M765.66,527.54v10.34h2.43v1.26h-6.87v-1.26h3v-7.82h-3v-1c1.94,0,2.88-.25,3.48-1.51Z"/>
    <path class="cls-6" d="M779.24,535.47,771,539v-1.55l6.41-2.64L771,532.16v-1.57l8.23,3.63Z"/>
    <path class="cls-6" d="M797.74,536.93l.86-9.39h1.52L799,539.14h-2l-1.34-6-1.35,6h-2l-1.15-11.6h1.52l.85,9.39,1.28-5.86h1.65Z"/>
    <path class="cls-6" d="M802.12,534.87c0-2.77,1.63-4.5,3.9-4.5,2.52,0,4,1.84,3.84,4.91h-6.19c0,1.73,1,2.87,2.32,2.87a2.09,2.09,0,0,0,2.23-1.59h1.52a3.55,3.55,0,0,1-3.72,2.79C803.41,539.35,802.12,537.41,802.12,534.87Zm1.57-.81h4.61a2.22,2.22,0,0,0-2.28-2.48C804.63,531.58,803.75,532.4,803.69,534.06Z"/>
    <path class="cls-6" d="M817.09,527.54v10.34h2.45v1.26h-6.35v-1.26h2.43v-9.1h-2.43v-1.24Z"/>
    <path class="cls-6" d="M830.26,533.39h-1.48a2.06,2.06,0,0,0-2-1.79c-1.28,0-2.33,1.11-2.33,3.27s1.05,3.28,2.33,3.28a2.13,2.13,0,0,0,2.1-1.78h1.52a3.6,3.6,0,0,1-3.7,3c-2.38,0-3.81-1.86-3.81-4.48s1.49-4.49,4-4.49A3.35,3.35,0,0,1,830.26,533.39Z"/>
    <path class="cls-6" d="M837,530.38c2,0,4,1.36,4,4.49s-2,4.48-4,4.48-4-1.36-4-4.48S835,530.38,837,530.38Zm0,7.74c1.31,0,2.44-1,2.44-3.25s-1.13-3.25-2.44-3.25-2.43,1-2.43,3.25S835.67,538.12,837,538.12Z"/>
    <path class="cls-6" d="M849.46,530.38c.9,0,1.78.42,1.78,2.69v6.07h-1.47v-5.32c0-1.24,0-2.2-.74-2.2s-1,.86-1,2.64v4.88H846.6v-5.32c0-1.24,0-2.2-.72-2.2s-1,.88-1,2.67v4.85h-1.47v-8.61h1.41v.91a1.71,1.71,0,0,1,1.57-1.06,1.37,1.37,0,0,1,1.34,1.09A1.89,1.89,0,0,1,849.46,530.38Z"/>
    <path class="cls-6" d="M853.8,534.87c0-2.77,1.63-4.5,3.9-4.5,2.52,0,4,1.84,3.84,4.91h-6.19c0,1.73,1,2.87,2.32,2.87a2.09,2.09,0,0,0,2.23-1.59h1.52a3.55,3.55,0,0,1-3.72,2.79C855.09,539.35,853.8,537.41,853.8,534.87Zm1.57-.81H860a2.22,2.22,0,0,0-2.28-2.48C856.31,531.58,855.43,532.4,855.37,534.06Z"/>
    <path class="cls-6" d="M876.31,528.37h1.47v2.16h3.52v1.26h-3.52v5c0,.88.05,1.11.87,1.11h2.65v1.26h-3c-1.57,0-2-.37-2-2.16v-5.19h-2.45v-1.26h2.45Z"/>
    <path class="cls-6" d="M888.66,530.38c2,0,4,1.36,4,4.49s-2,4.48-4,4.48-4-1.36-4-4.48S886.69,530.38,888.66,530.38Zm0,7.74c1.31,0,2.44-1,2.44-3.25s-1.13-3.25-2.44-3.25-2.43,1-2.43,3.25S887.35,538.12,888.66,538.12Z"/>
    <path class="cls-6" d="M913.42,535.54c-.4,2.48-1.94,3.81-4,3.81-2.83,0-4.16-2.52-4.16-6s1.51-6,4.27-6c2,0,3.51,1.55,3.89,3.91h-1.55c-.19-1.33-.91-2.49-2.38-2.49-1.68,0-2.66,1.62-2.66,4.58s.91,4.63,2.69,4.63c1.47,0,2.21-1,2.42-2.4Z"/>
    <path class="cls-6" d="M919.67,530.38c2,0,4,1.36,4,4.49s-2,4.48-4,4.48-4-1.36-4-4.48S917.7,530.38,919.67,530.38Zm0,7.74c1.31,0,2.43-1,2.43-3.25s-1.12-3.25-2.43-3.25-2.43,1-2.43,3.25S918.36,538.12,919.67,538.12Z"/>
    <path class="cls-6" d="M931.94,527.54h1.48v11.6H932l0-1.22a2.74,2.74,0,0,1-2.54,1.43c-2,0-3.48-1.64-3.48-4.48s1.49-4.49,3.48-4.49a2.73,2.73,0,0,1,2.54,1.44Zm-2.24,4.08c-1.47,0-2.22,1.2-2.22,3.25s.75,3.26,2.22,3.26c1.23,0,2.31-1,2.31-3.26S930.93,531.62,929.7,531.62Z"/>
    <path class="cls-6" d="M936.48,534.87c0-2.77,1.64-4.5,3.91-4.5,2.51,0,4,1.84,3.84,4.91H938c0,1.73,1,2.87,2.32,2.87a2.07,2.07,0,0,0,2.22-1.59h1.52a3.53,3.53,0,0,1-3.71,2.79C937.78,539.35,936.48,537.41,936.48,534.87Zm1.57-.81h4.61a2.21,2.21,0,0,0-2.27-2.48C939,531.58,938.12,532.4,938.05,534.06Z"/>
    <path class="cls-6" d="M954.29,533.39h-1.48a2.06,2.06,0,0,0-2-1.79c-1.28,0-2.33,1.11-2.33,3.27s1,3.28,2.33,3.28a2.13,2.13,0,0,0,2.1-1.78h1.52a3.6,3.6,0,0,1-3.7,3c-2.38,0-3.81-1.86-3.81-4.48s1.49-4.49,4-4.49A3.35,3.35,0,0,1,954.29,533.39Z"/>
    <path class="cls-6" d="M957.35,536.9c0-2,2.18-2.68,5.7-3.06v-.37a1.69,1.69,0,0,0-1.94-1.93,1.78,1.78,0,0,0-2.05,1.71h-1.5a3.3,3.3,0,0,1,3.57-2.9c2.38,0,3.41,1.06,3.37,3.44v2.1c0,1.44.06,2.67.11,3.25h-1.41l0-1.26a3.15,3.15,0,0,1-3,1.47A2.52,2.52,0,0,1,957.35,536.9Zm5.81-1.89c-2.63.26-4.23.62-4.23,1.86,0,.81.6,1.29,1.64,1.29,1.31,0,2.59-.62,2.59-2.91Z"/>
    <path class="cls-6" d="M973.29,527.54h1.47v11.6H973.3v-1.22a2.75,2.75,0,0,1-2.55,1.43c-2,0-3.47-1.64-3.47-4.48s1.49-4.49,3.47-4.49a2.74,2.74,0,0,1,2.55,1.44Zm-2.24,4.08c-1.48,0-2.23,1.2-2.23,3.25s.75,3.26,2.23,3.26c1.23,0,2.3-1,2.3-3.26S972.28,531.62,971.05,531.62Z"/>
    <path class="cls-6" d="M977.83,534.87c0-2.77,1.63-4.5,3.9-4.5,2.52,0,4,1.84,3.85,4.91h-6.2c0,1.73,1,2.87,2.32,2.87a2.09,2.09,0,0,0,2.23-1.59h1.52a3.55,3.55,0,0,1-3.72,2.79C979.12,539.35,977.83,537.41,977.83,534.87Zm1.57-.81H984a2.22,2.22,0,0,0-2.28-2.48C980.34,531.58,979.46,532.4,979.4,534.06Z"/>
    <path class="cls-6" d="M994.17,530.38c.89,0,1.77.42,1.77,2.69v6.07h-1.47v-5.32c0-1.24,0-2.2-.74-2.2s-1,.86-1,2.64v4.88H991.3v-5.32c0-1.24,0-2.2-.72-2.2s-1,.88-1,2.67v4.85h-1.47v-8.61h1.41v.91a1.71,1.71,0,0,1,1.57-1.06,1.37,1.37,0,0,1,1.34,1.09A1.9,1.9,0,0,1,994.17,530.38Z"/>
    <path class="cls-6" d="M998.42,541.94v-1.26H1000c.9,0,1.19-.12,1.64-1.35l.06-.19-3.22-8.61h1.62l2.34,6.64,2.28-6.64h1.52l-3.18,9c-.61,1.69-1.09,2.43-2.91,2.43Z"/>
    <path class="cls-6" d="M1011.77,539.14V537.3h1.84v1.84Zm.44-3.39-.29-4.71v-3.5h1.54V531l-.32,4.71Z"/>
    <path class="cls-6" d="M1037.32,530.59v1.57l-6.4,2.69,6.4,2.64V539l-8.23-3.57v-1.25Z"/>
    <path class="cls-6" d="M1040.69,539.14l4.56-11.6h1.46l-4.56,11.6Z"/>
    <path class="cls-6" d="M1057.4,533.66v5.48h-1.47v-5c0-1.39-.1-2.56-1.7-2.56-1.33,0-2.07,1-2.07,2.84v4.68h-1.47v-11.6h1.47v4.2a2.76,2.76,0,0,1,2.55-1.36C1056.79,530.38,1057.4,531.76,1057.4,533.66Z"/>
    <path class="cls-6" d="M1065.4,527.54v10.34h2.43v1.26H1061v-1.26h3v-7.82h-3v-1c1.94,0,2.88-.25,3.48-1.51Z"/>
    <path class="cls-6" d="M1079,535.47l-8.22,3.57v-1.55l6.4-2.64-6.4-2.69v-1.57l8.22,3.63Z"/>
    <path class="cls-6" d="M727.24,548.59v1.57l-6.4,2.69,6.4,2.64V557L719,553.47v-1.25Z"/>
    <path class="cls-6" d="M730.61,557.14l4.57-11.6h1.45l-4.56,11.6Z"/>
    <path class="cls-6" d="M742,549.82a2.79,2.79,0,0,1,2.56-1.44c2,0,3.46,1.65,3.46,4.49s-1.49,4.48-3.46,4.48a2.8,2.8,0,0,1-2.56-1.43v1.22h-1.46v-11.6H742Zm2.24,6.31c1.49,0,2.23-1.22,2.23-3.26s-.74-3.25-2.23-3.25c-1.21,0-2.3,1-2.3,3.25S743.05,556.13,744.26,556.13Z"/>
    <path class="cls-6" d="M754.29,548.38c2,0,4,1.36,4,4.49s-2,4.48-4,4.48-4-1.36-4-4.48S752.33,548.38,754.29,548.38Zm0,7.74c1.32,0,2.44-1,2.44-3.25s-1.12-3.25-2.44-3.25-2.43,1-2.43,3.25S753,556.12,754.29,556.12Z"/>
    <path class="cls-6" d="M766.57,545.54H768v11.6h-1.46v-1.22a2.75,2.75,0,0,1-2.55,1.43c-2,0-3.47-1.64-3.47-4.48s1.49-4.49,3.47-4.49a2.74,2.74,0,0,1,2.55,1.44Zm-2.24,4.08c-1.48,0-2.23,1.2-2.23,3.25s.75,3.26,2.23,3.26c1.23,0,2.3-1,2.3-3.26S765.56,549.62,764.33,549.62Z"/>
    <path class="cls-6" d="M771,559.94v-1.26h1.55c.9,0,1.19-.12,1.63-1.35l.07-.19-3.22-8.61h1.62l2.33,6.64,2.29-6.64h1.52l-3.18,9c-.61,1.69-1.09,2.43-2.91,2.43Z"/>
    <path class="cls-6" d="M789.58,553.47,781.35,557v-1.55l6.4-2.64-6.4-2.69v-1.57l8.23,3.63Z"/>
    <path class="cls-6" d="M706.57,566.59v1.57l-6.4,2.69,6.4,2.64V575l-8.23-3.57v-1.25Z"/>
    <path class="cls-6" d="M709.94,575.14l4.56-11.6H716l-4.56,11.6Z"/>
    <path class="cls-6" d="M726.65,569.66v5.48h-1.47v-5c0-1.39-.1-2.56-1.7-2.56-1.33,0-2.07,1-2.07,2.84v4.68h-1.47v-11.6h1.47v4.2a2.76,2.76,0,0,1,2.55-1.36C726,566.38,726.65,567.76,726.65,569.66Z"/>
    <path class="cls-6" d="M731.61,564.37h1.47v2.16h3.52v1.26h-3.52v5c0,.88,0,1.11.86,1.11h2.66v1.26h-3c-1.57,0-2-.37-2-2.16v-5.19h-2.45v-1.26h2.45Z"/>
    <path class="cls-6" d="M746.1,566.38c.9,0,1.78.42,1.78,2.69v6.07h-1.47v-5.32c0-1.24,0-2.2-.74-2.2s-1,.86-1,2.64v4.88h-1.47v-5.32c0-1.24,0-2.2-.72-2.2s-1,.88-1,2.67v4.85h-1.47v-8.61h1.41v.91a1.71,1.71,0,0,1,1.57-1.06,1.37,1.37,0,0,1,1.34,1.09A1.89,1.89,0,0,1,746.1,566.38Z"/>
    <path class="cls-6" d="M755.08,563.54v10.34h2.45v1.26h-6.36v-1.26h2.44v-9.1h-2.44v-1.24Z"/>
    <path class="cls-6" d="M768.9,571.47,760.68,575v-1.55l6.4-2.64-6.4-2.69v-1.57l8.22,3.63Z"/>
  </g>
  <g>
    <ellipse class="cls-5" cx="886.52" cy="325.04" rx="225.48" ry="36.33"/>
    <path class="cls-2" d="M886.52,361.86c-60.26,0-116.91-3.78-159.52-10.64-42.86-6.91-66.46-16.2-66.46-26.18s23.6-19.28,66.46-26.18c42.61-6.87,99.26-10.65,159.52-10.65S1003.42,292,1046,298.86c42.86,6.9,66.46,16.2,66.46,26.18s-23.6,19.27-66.46,26.18C1003.42,358.08,946.77,361.86,886.52,361.86Zm0-72.65c-60.21,0-116.8,3.78-159.36,10.64-41.71,6.71-65.62,15.9-65.62,25.19s23.91,18.47,65.62,25.19c42.56,6.86,99.16,10.63,159.36,10.63s116.8-3.77,159.36-10.63c41.7-6.72,65.62-15.9,65.62-25.19s-23.92-18.48-65.62-25.19C1003.32,293,946.72,289.21,886.52,289.21Z"/>
  </g>
</svg>
