<svg xmlns="http://www.w3.org/2000/svg" viewBox="0 0 2050 1600"><defs><style>.cls-1{fill:#10172f;}.cls-2{fill:#fff;}.cls-3{fill:#db9c72;}.cls-4{fill:#10162f;}.cls-5{fill:#fff0e5;}.cls-6{fill:#f966ff;}.cls-7{fill:#008a27;}.cls-8{fill:#aee938;}.cls-9{fill:#c4c3c7;}.cls-10{fill:#66c4ff;}.cls-11{fill:#ffd300;}.cls-12{fill:#828285;}.cls-13{fill:#ff8c00;}</style></defs><g id="BG"><rect class="cls-1" width="2050" height="1600"/></g><g id="Layer_1" data-name="Layer 1"><path class="cls-2" d="M169.39,505.8a14.8,14.8,0,0,1-16.83,0q-3.19-2.61-3.19-7.66V481.08h6.42V497.9a6.23,6.23,0,0,0,1.26,4.35,5.26,5.26,0,0,0,4,1.34,5.1,5.1,0,0,0,3.92-1.33,6.33,6.33,0,0,0,1.23-4.36V481.08h6.4v17.07Q172.59,503.18,169.39,505.8Z"/><path class="cls-2" d="M187,508.4c-4,0-7.12-.67-9.49-2l.65-4.81a20.14,20.14,0,0,0,4.11,1.57,17.16,17.16,0,0,0,4.54.7,5.91,5.91,0,0,0,3.31-.8,2.68,2.68,0,0,0,1.2-2.33,2.58,2.58,0,0,0-1.11-2.2,21.27,21.27,0,0,0-4.23-2l-1.39-.51a14.29,14.29,0,0,1-5.35-3.21,6.8,6.8,0,0,1-1.64-4.8,6.56,6.56,0,0,1,2.65-5.61q2.65-2,7.39-2a20.11,20.11,0,0,1,9,1.93l-1.59,4.42a17.32,17.32,0,0,0-7.3-1.78,5.84,5.84,0,0,0-3,.65,2.13,2.13,0,0,0-1.08,2,2.2,2.2,0,0,0,1,1.94,22.92,22.92,0,0,0,4.1,1.82l.63.22.83.32a13.55,13.55,0,0,1,5.42,3.21,6.85,6.85,0,0,1,1.74,4.87,7.62,7.62,0,0,1-2.74,6.22C192.88,507.67,190.31,508.4,187,508.4Z"/><path class="cls-2" d="M214.87,508.43q-6.47,0-10.07-3.73t-3.6-10.29q0-6.39,3.39-10.18a11.92,11.92,0,0,1,9.26-3.81q5.53,0,8.6,3.47a13.35,13.35,0,0,1,3.07,9.2c0,.28,0,.73,0,1.35s0,1.07,0,1.36H207.65a8.44,8.44,0,0,0,2.06,5.83,7.13,7.13,0,0,0,5.41,2.06,16.88,16.88,0,0,0,8.44-2.3l.91,4.55A17.92,17.92,0,0,1,214.87,508.43Zm-7.1-16.65h11.72a7.57,7.57,0,0,0-1.49-5,5.11,5.11,0,0,0-4.13-1.76,5.64,5.64,0,0,0-4.16,1.71A7.75,7.75,0,0,0,207.77,491.78Z"/><path class="cls-2" d="M230.74,507.91V481.08h5.37l.83,4.1a8.49,8.49,0,0,1,7.64-4.22,11.37,11.37,0,0,1,1.71.1l-.09,5.34a14.93,14.93,0,0,0-2-.14,6.87,6.87,0,0,0-5.29,1.88,7.38,7.38,0,0,0-1.74,5.22v14.55Z"/><path class="cls-2" d="M250.2,507.91V481.08h5.15l.71,3.4a12.67,12.67,0,0,1,9.11-4.06q4.68,0,7,2.7t2.33,7.83v17H268.1V491.73a9.38,9.38,0,0,0-1.05-4.86c-.69-1.08-1.92-1.61-3.69-1.61a7.1,7.1,0,0,0-3.8,1.06,6.51,6.51,0,0,0-2.5,2.67,26.94,26.94,0,0,0-.46,5.86v13.06Z"/><path class="cls-2" d="M287.9,508.43a8.73,8.73,0,0,1-6-2.07,7.53,7.53,0,0,1-2.3-5.94q0-4.19,2.73-6.19t8.25-2.55l1.64-.2c.58-.06,1.24-.13,2-.19l1.73-.17V489.7a4.86,4.86,0,0,0-1.12-3.55,4.69,4.69,0,0,0-3.42-1.11,23.59,23.59,0,0,0-8.08,1.83l-.81-2.22c-.52-1.44-.79-2.17-.8-2.2a25.76,25.76,0,0,1,10.25-2q5.42,0,7.89,2.36t2.46,7.63v17.5h-4.74c0-.06-.19-.61-.53-1.63s-.52-1.57-.52-1.64a15.08,15.08,0,0,1-3.91,2.87A10.74,10.74,0,0,1,287.9,508.43Zm1.73-4.55a7,7,0,0,0,3.87-1.06,6.17,6.17,0,0,0,2.35-2.57v-5.18l-1.28.1-1.3.1a13.39,13.39,0,0,0-5.69,1.46,3.92,3.92,0,0,0-1.81,3.61,3.38,3.38,0,0,0,1,2.63A4.09,4.09,0,0,0,289.63,503.88Z"/><path class="cls-2" d="M308.7,507.91V481.08h5.17l.73,3.42c.33-.41.64-.77.94-1.09a12,12,0,0,1,1.25-1.07,8.42,8.42,0,0,1,1.68-1,11.37,11.37,0,0,1,2.2-.66,13.79,13.79,0,0,1,2.8-.27,8.94,8.94,0,0,1,5.11,1.3,7.32,7.32,0,0,1,2.7,3,9.53,9.53,0,0,1,3.73-3.19,11.48,11.48,0,0,1,5.11-1.13q4.61,0,6.77,2.62t2.16,7.73v17.14h-6.42V492.68a13.81,13.81,0,0,0-.86-5.68,3.35,3.35,0,0,0-3.31-1.74,5.55,5.55,0,0,0-5.37,3.37,11.69,11.69,0,0,0-.93,3.58v15.7h-6.4V492.39a11.67,11.67,0,0,0-.95-5.35,3.57,3.57,0,0,0-3.44-1.76,5.87,5.87,0,0,0-3.49,1,6.55,6.55,0,0,0-2.23,2.68,27.32,27.32,0,0,0-.56,5.91v13Z"/><path class="cls-2" d="M367.75,508.43q-6.47,0-10.07-3.73t-3.6-10.29q0-6.39,3.4-10.18a11.88,11.88,0,0,1,9.25-3.81q5.53,0,8.6,3.47a13.35,13.35,0,0,1,3.07,9.2c0,.28,0,.73,0,1.35s0,1.07,0,1.36H360.53a8.44,8.44,0,0,0,2.06,5.83,7.13,7.13,0,0,0,5.41,2.06,17,17,0,0,0,8.45-2.3l.9,4.55A17.92,17.92,0,0,1,367.75,508.43Zm-7.1-16.65h11.72a7.57,7.57,0,0,0-1.49-5,5.1,5.1,0,0,0-4.13-1.76,5.64,5.64,0,0,0-4.16,1.71A7.75,7.75,0,0,0,360.65,491.78Z"/><path class="cls-2" d="M382.79,487.38v-6.47h6.47v6.47Zm0,20.68v-6.47h6.47v6.47Z"/><path class="cls-2" d="M416.88,472.12l-2.45,12h-5.34l3.9-12Zm7.32,0-2.64,12h-5.12l3.61-12Z"/><path class="cls-2" d="M445.68,508.43a10.38,10.38,0,0,1-5-1.21,8.73,8.73,0,0,1-3.23-2.75l-.63,3.42H431.3v-36.7l6.4-.41v8.3q0,2.42-.15,5.49a10,10,0,0,1,8.28-4.15,9.59,9.59,0,0,1,8.05,3.81q2.91,3.81,2.91,10,0,6.4-3,10.32A9.7,9.7,0,0,1,445.68,508.43Zm-1.53-4.86a5.33,5.33,0,0,0,4.56-2.42,11.76,11.76,0,0,0,1.71-6.86q0-4.47-1.67-6.76a5.33,5.33,0,0,0-4.53-2.3q-6.5,0-6.57,8.77c0,3.29.55,5.7,1.64,7.25A5.57,5.57,0,0,0,444.15,503.57Z"/><path class="cls-2" d="M473.54,508.43a11.87,11.87,0,0,1-9.37-3.86q-3.42-3.85-3.42-10.16,0-6.5,3.42-10.24t9.64-3.75q6,0,9.41,3.82t3.41,10.17q0,6.42-3.45,10.22T473.54,508.43Zm.17-4.86a5.53,5.53,0,0,0,4.88-2.37,11.88,11.88,0,0,0,1.64-6.79q0-4.47-1.64-6.81a6.31,6.31,0,0,0-9.82,0q-1.65,2.36-1.65,6.83a11.66,11.66,0,0,0,1.66,6.76A5.63,5.63,0,0,0,473.71,503.57Z"/><path class="cls-2" d="M506.11,508.43a10.35,10.35,0,0,1-5-1.21,8.57,8.57,0,0,1-3.23-2.75l-.64,3.42h-5.54v-36.7l6.39-.41v8.3c0,1.61,0,3.44-.14,5.49a9.94,9.94,0,0,1,8.27-4.15,9.59,9.59,0,0,1,8,3.81,16,16,0,0,1,2.92,10q0,6.4-3,10.32A9.7,9.7,0,0,1,506.11,508.43Zm-1.54-4.86a5.34,5.34,0,0,0,4.57-2.42,11.84,11.84,0,0,0,1.7-6.86c0-3-.55-5.23-1.67-6.76a5.31,5.31,0,0,0-4.53-2.3q-6.5,0-6.56,8.77c0,3.29.54,5.7,1.63,7.25A5.57,5.57,0,0,0,504.57,503.57Z"/><path class="cls-2" d="M526.59,507.89V478.13c-.23.14-1.28.61-3.16,1.4s-2.94,1.22-3.19,1.28v-4.88c.39-.18,1.63-.79,3.72-1.84s3.23-1.65,3.44-1.8h5.37v35.6Z"/><path class="cls-2" d="M541.88,507.91l10.83-14.11a8.88,8.88,0,0,1-2.9.56,11.88,11.88,0,0,1-8.56-3.16,10.85,10.85,0,0,1-3.31-8.19,10.48,10.48,0,0,1,3.63-8.35,13.91,13.91,0,0,1,9.41-3.12,14.27,14.27,0,0,1,9.69,3.21,10.69,10.69,0,0,1,3.71,8.53,13.1,13.1,0,0,1-1.17,5.59,34.39,34.39,0,0,1-3.44,5.62l-10.11,13.42Zm9.3-18a6.24,6.24,0,0,0,5-1.88,7.45,7.45,0,0,0,1.63-5.08,6.57,6.57,0,0,0-1.69-4.76,6.38,6.38,0,0,0-4.83-1.76,6.87,6.87,0,0,0-5.09,1.84,6.47,6.47,0,0,0-1.84,4.81,7,7,0,0,0,1.72,5A6.64,6.64,0,0,0,551.18,489.87Z"/><path class="cls-2" d="M571.54,507.91l10.84-14.11a8.94,8.94,0,0,1-2.91.56,11.84,11.84,0,0,1-8.55-3.16,10.81,10.81,0,0,1-3.31-8.19,10.5,10.5,0,0,1,3.62-8.35,13.93,13.93,0,0,1,9.41-3.12,14.32,14.32,0,0,1,9.7,3.21,10.73,10.73,0,0,1,3.71,8.53,13.1,13.1,0,0,1-1.17,5.59,34.52,34.52,0,0,1-3.45,5.62l-10.1,13.42Zm9.3-18a6.28,6.28,0,0,0,5-1.88,7.5,7.5,0,0,0,1.62-5.08,6.6,6.6,0,0,0-1.68-4.76,6.41,6.41,0,0,0-4.84-1.76,6.88,6.88,0,0,0-5.09,1.84A6.47,6.47,0,0,0,574,483a7,7,0,0,0,1.72,5A6.66,6.66,0,0,0,580.84,489.87Z"/><path class="cls-2" d="M616.33,507.44a14.26,14.26,0,0,1-10.44,0,10.54,10.54,0,0,1-3.83-2.69,14.57,14.57,0,0,1-2.53-4.06,20.94,20.94,0,0,1-1.44-5,34.72,34.72,0,0,1-.43-5.64,35.61,35.61,0,0,1,.44-5.72,21.12,21.12,0,0,1,1.47-5.06,14.47,14.47,0,0,1,2.55-4.06,10.87,10.87,0,0,1,3.82-2.68,14.15,14.15,0,0,1,10.35,0,10.72,10.72,0,0,1,3.81,2.69,14.52,14.52,0,0,1,2.52,4.08,22,22,0,0,1,1.46,5,35.39,35.39,0,0,1,.44,5.71,35.88,35.88,0,0,1-.43,5.64,22.12,22.12,0,0,1-1.43,5,14.24,14.24,0,0,1-2.51,4.06A10.74,10.74,0,0,1,616.33,507.44Zm-8.56-5.22a5.5,5.5,0,0,0,6.68,0,6.87,6.87,0,0,0,2.1-3.11,20.8,20.8,0,0,0,1-4.25,36.29,36.29,0,0,0,.32-5q0-13.23-6.79-13.24t-6.83,13.14a37,37,0,0,0,.31,5.05,22.06,22.06,0,0,0,1,4.29A6.93,6.93,0,0,0,607.77,502.22Z"/><path class="cls-2" d="M631.21,484.16l2.63-12H639l-3.61,12Zm7.32,0,2.44-12h5.35l-3.91,12Z"/><path class="cls-2" d="M130.38,587.24v-38h5.49l.68,3.76a9.07,9.07,0,0,1,3.51-3.28,10.24,10.24,0,0,1,4.87-1.16,9.54,9.54,0,0,1,5.79,1.83,11.35,11.35,0,0,1,3.8,5,18.79,18.79,0,0,1,1.3,7.15,16.15,16.15,0,0,1-3,10.14,9.77,9.77,0,0,1-8.17,3.92,10.38,10.38,0,0,1-4.6-1,10,10,0,0,1-3.45-2.75c.13,2.34.19,3.66.19,3.95v10.14Zm12.89-15.52a5.18,5.18,0,0,0,4.5-2.4,11.94,11.94,0,0,0,1.65-6.83c0-3-.55-5.28-1.66-6.79a5.42,5.42,0,0,0-4.62-2.27q-6.34,0-6.42,8.64,0,5,1.65,7.31A5.6,5.6,0,0,0,143.27,571.72Z"/><path class="cls-2" d="M168,576.6a8.74,8.74,0,0,1-6-2.06,7.57,7.57,0,0,1-2.31-5.95c0-2.78.91-4.85,2.74-6.19s4.57-2.19,8.25-2.55l1.63-.19c.59-.07,1.25-.13,2-.2s1.31-.12,1.74-.17v-1.42a4.83,4.83,0,0,0-1.13-3.55,4.69,4.69,0,0,0-3.42-1.11,23.64,23.64,0,0,0-8.08,1.83s-.28-.79-.8-2.22-.79-2.16-.81-2.2a25.84,25.84,0,0,1,10.26-2q5.41,0,7.88,2.35c1.65,1.57,2.47,4.12,2.47,7.63v17.51h-4.74c0-.07-.19-.61-.54-1.64s-.51-1.57-.51-1.64a14.73,14.73,0,0,1-3.92,2.87A10.71,10.71,0,0,1,168,576.6Zm1.74-4.54a7,7,0,0,0,3.86-1.06,6.22,6.22,0,0,0,2.36-2.58v-5.18l-1.28.1-1.31.1a13.53,13.53,0,0,0-5.68,1.46,3.94,3.94,0,0,0-1.81,3.62,3.36,3.36,0,0,0,1,2.62A4.1,4.1,0,0,0,169.76,572.06Z"/><path class="cls-2" d="M197.39,576.57c-3.95,0-7.12-.67-9.49-2l.65-4.81a20.14,20.14,0,0,0,4.11,1.57,16.76,16.76,0,0,0,4.54.7,5.91,5.91,0,0,0,3.31-.8,2.66,2.66,0,0,0,1.2-2.33,2.56,2.56,0,0,0-1.11-2.19,20.59,20.59,0,0,0-4.23-2l-1.39-.51a14.29,14.29,0,0,1-5.35-3.21,6.8,6.8,0,0,1-1.64-4.8,6.56,6.56,0,0,1,2.65-5.61q2.66-1.95,7.39-1.95a20.08,20.08,0,0,1,9,1.92l-1.59,4.42a17.47,17.47,0,0,0-7.3-1.78,5.94,5.94,0,0,0-3,.65,2.13,2.13,0,0,0-1.08,2,2.2,2.2,0,0,0,1,1.94,21.53,21.53,0,0,0,4.1,1.82l.63.22.83.32a13.78,13.78,0,0,1,5.42,3.21,6.87,6.87,0,0,1,1.74,4.87,7.64,7.64,0,0,1-2.74,6.23C203.28,575.84,200.71,576.57,197.39,576.57Z"/><path class="cls-2" d="M221.44,576.57a19.23,19.23,0,0,1-9.5-2l.66-4.81a20,20,0,0,0,4.1,1.57,16.82,16.82,0,0,0,4.55.7,5.88,5.88,0,0,0,3.3-.8,2.65,2.65,0,0,0,1.21-2.33,2.56,2.56,0,0,0-1.11-2.19,20.59,20.59,0,0,0-4.23-2l-1.4-.51a14.32,14.32,0,0,1-5.34-3.21,6.8,6.8,0,0,1-1.64-4.8,6.53,6.53,0,0,1,2.65-5.61q2.66-1.95,7.39-1.95a20,20,0,0,1,9,1.92l-1.58,4.42a17.47,17.47,0,0,0-7.3-1.78,5.94,5.94,0,0,0-3,.65,2.13,2.13,0,0,0-1.08,2,2.2,2.2,0,0,0,1.05,1.94,21.23,21.23,0,0,0,4.1,1.82l.63.22.83.32a13.78,13.78,0,0,1,5.42,3.21,6.87,6.87,0,0,1,1.74,4.87,7.64,7.64,0,0,1-2.74,6.23Q226.42,576.57,221.44,576.57Z"/><path class="cls-2" d="M242.12,576.09,234,549.25h6.52l5.15,19.68q.17-.55,2.78-9.59t3-10.09H258q.32,1,2.81,10t2.69,9.62l5.29-19.61h6.43l-8.4,26.84h-6.37c-.22-.7-1.2-4.24-3-10.62s-2.72-9.83-2.87-10.33q-.49,1.79-3.11,10.74t-3,10.21Z"/><path class="cls-2" d="M290.14,576.6a11.87,11.87,0,0,1-9.37-3.86q-3.42-3.86-3.42-10.16,0-6.48,3.42-10.24t9.64-3.74q6,0,9.41,3.82t3.41,10.16q0,6.43-3.44,10.22T290.14,576.6Zm.17-4.86a5.56,5.56,0,0,0,4.89-2.37q1.64-2.37,1.63-6.79t-1.63-6.81a5.64,5.64,0,0,0-4.94-2.34,5.56,5.56,0,0,0-4.89,2.36q-1.65,2.36-1.65,6.82a11.66,11.66,0,0,0,1.66,6.76A5.63,5.63,0,0,0,290.31,571.74Z"/><path class="cls-2" d="M308.48,576.09V549.25h5.37l.83,4.11a8.47,8.47,0,0,1,7.64-4.23,12.88,12.88,0,0,1,1.71.1l-.1,5.35a13.37,13.37,0,0,0-2-.15,6.87,6.87,0,0,0-5.28,1.88,7.41,7.41,0,0,0-1.75,5.23v14.55Z"/><path class="cls-2" d="M337.68,576.6a9.91,9.91,0,0,1-8.26-3.86q-3-3.86-3-10.3,0-6.26,3-10.05a9.92,9.92,0,0,1,8.24-3.79q5.72,0,8.08,4c-.16-1.6-.24-3.13-.24-4.62v-8.66l6.39-.42v37.14h-5.54l-.71-3.67c-.27.44-.53.82-.76,1.14a9,9,0,0,1-1,1.1,6.22,6.22,0,0,1-1.48,1,10.39,10.39,0,0,1-2,.66A12.29,12.29,0,0,1,337.68,576.6Zm1.51-4.86q6.45,0,6.54-8.76,0-5-1.66-7.23a5.75,5.75,0,0,0-4.95-2.27,5.47,5.47,0,0,0-4.61,2.31c-1.14,1.53-1.72,3.8-1.72,6.79s.58,5.25,1.72,6.82A5.51,5.51,0,0,0,339.19,571.74Z"/><path class="cls-2" d="M357.62,555.55v-6.47h6.47v6.47Zm0,20.68v-6.47h6.47v6.47Z"/><path class="cls-2" d="M391.7,540.29l-2.44,12h-5.34l3.9-12Zm7.33,0-2.64,12h-5.13l3.62-12Z"/><path class="cls-2" d="M406.13,587.24v-38h5.5l.68,3.76a9.11,9.11,0,0,1,3.5-3.28,10.27,10.27,0,0,1,4.87-1.16,9.57,9.57,0,0,1,5.8,1.83,11.35,11.35,0,0,1,3.8,5,18.79,18.79,0,0,1,1.29,7.15,16.15,16.15,0,0,1-3,10.14,9.78,9.78,0,0,1-8.17,3.92,10.35,10.35,0,0,1-4.6-1,10.05,10.05,0,0,1-3.46-2.75c.13,2.34.2,3.66.2,3.95v10.14ZM419,571.72a5.19,5.19,0,0,0,4.51-2.4,11.94,11.94,0,0,0,1.65-6.83c0-3-.56-5.28-1.66-6.79a5.42,5.42,0,0,0-4.62-2.27q-6.34,0-6.42,8.64,0,5,1.65,7.31A5.6,5.6,0,0,0,419,571.72Z"/><path class="cls-2" d="M455.3,581.09a22.24,22.24,0,0,1-10.43-2.37,17.13,17.13,0,0,1-7.11-6.8,21.43,21.43,0,0,1-1-18.09,18.86,18.86,0,0,1,4.18-6.3,19.15,19.15,0,0,1,6.41-4.12,21.38,21.38,0,0,1,8-1.5,19.66,19.66,0,0,1,9.19,2.12,16.15,16.15,0,0,1,6.5,6,16.82,16.82,0,0,1,2.38,8.89,15.61,15.61,0,0,1-.91,5.37,13.09,13.09,0,0,1-2.39,4.23,11.41,11.41,0,0,1-3.44,2.73,8.77,8.77,0,0,1-4,1,4.22,4.22,0,0,1-3.25-1.3,5.85,5.85,0,0,1-1.27-4.05,9.07,9.07,0,0,1-2.63,3.59,5.68,5.68,0,0,1-3.69,1.39,6.67,6.67,0,0,1-5.28-2.15,8.26,8.26,0,0,1-1.9-5.69,14.9,14.9,0,0,1,1.44-6.5,12.12,12.12,0,0,1,4.1-4.85,10.27,10.27,0,0,1,6-1.83,23.23,23.23,0,0,1,7.71,1.56q-.31,1.66-1,5c-.48,2.26-.85,4.13-1.12,5.63a21,21,0,0,0-.4,3.49,2.47,2.47,0,0,0,.45,1.71,1.94,1.94,0,0,0,1.45.47,4.5,4.5,0,0,0,3.19-1.49,10.39,10.39,0,0,0,2.35-3.77,13.25,13.25,0,0,0,.86-4.66,13.51,13.51,0,0,0-1.84-7.08,12.25,12.25,0,0,0-5.09-4.71,16.15,16.15,0,0,0-7.35-1.63,16.38,16.38,0,0,0-6.07,1.09,14,14,0,0,0-4.58,2.84,17.23,17.23,0,0,0-3.07,4,17.51,17.51,0,0,0-1.83,4.41,16.77,16.77,0,0,0-.57,4.23,17.2,17.2,0,0,0,1.27,6.72,13.41,13.41,0,0,0,3.48,4.93,15.55,15.55,0,0,0,5.11,3,18.18,18.18,0,0,0,6.18,1,20.07,20.07,0,0,0,12.26-3.76l1.34,2.64A20.73,20.73,0,0,1,455.3,581.09Zm-3.39-12.62q4.68,0,6.76-10.65c.2-1,.4-2.27.61-3.68a13.89,13.89,0,0,0-2.76-.27,5.85,5.85,0,0,0-3.82,1.49,9.88,9.88,0,0,0-2.74,3.76,11.41,11.41,0,0,0-1,4.61,7.17,7.17,0,0,0,.72,3.4A2.36,2.36,0,0,0,451.91,568.47Z"/><path class="cls-2" d="M486.85,576.57q-5.94,0-9.5-2l.66-4.81a19.8,19.8,0,0,0,4.1,1.57,16.76,16.76,0,0,0,4.54.7,5.89,5.89,0,0,0,3.31-.8,2.67,2.67,0,0,0,1.21-2.33,2.56,2.56,0,0,0-1.11-2.19,20.75,20.75,0,0,0-4.24-2l-1.39-.51a14.29,14.29,0,0,1-5.35-3.21,6.8,6.8,0,0,1-1.63-4.8,6.53,6.53,0,0,1,2.65-5.61q2.64-1.95,7.38-1.95a20.08,20.08,0,0,1,9,1.92l-1.59,4.42a17.43,17.43,0,0,0-7.3-1.78,5.9,5.9,0,0,0-3,.65,2.12,2.12,0,0,0-1.09,2,2.2,2.2,0,0,0,1.05,1.94,21.84,21.84,0,0,0,4.1,1.82l.64.22.83.32a13.93,13.93,0,0,1,5.42,3.21,6.91,6.91,0,0,1,1.73,4.87,7.66,7.66,0,0,1-2.73,6.23Q491.83,576.57,486.85,576.57Z"/><path class="cls-2" d="M510.89,576.57c-3.95,0-7.12-.67-9.49-2l.66-4.81a19.8,19.8,0,0,0,4.1,1.57,16.76,16.76,0,0,0,4.54.7,5.91,5.91,0,0,0,3.31-.8,2.64,2.64,0,0,0,1.2-2.33,2.56,2.56,0,0,0-1.11-2.19,20.59,20.59,0,0,0-4.23-2l-1.39-.51a14.29,14.29,0,0,1-5.35-3.21,6.8,6.8,0,0,1-1.64-4.8,6.56,6.56,0,0,1,2.65-5.61q2.66-1.95,7.39-1.95a20.08,20.08,0,0,1,9,1.92L519,554.94a17.47,17.47,0,0,0-7.3-1.78,5.88,5.88,0,0,0-3,.65,2.12,2.12,0,0,0-1.09,2,2.2,2.2,0,0,0,1.05,1.94,21.84,21.84,0,0,0,4.1,1.82l.63.22.84.32a13.81,13.81,0,0,1,5.41,3.21,6.87,6.87,0,0,1,1.74,4.87,7.64,7.64,0,0,1-2.74,6.23C516.78,575.84,514.21,576.57,510.89,576.57Z"/><path class="cls-2" d="M531.57,576.09l-8.13-26.84H530l5.15,19.68c.12-.37,1-3.57,2.79-9.59s2.72-9.38,3-10.09h6.57q.32,1,2.8,10t2.69,9.62l5.3-19.61h6.42l-8.4,26.84h-6.37q-.32-1.05-3-10.62T544,555.14q-.48,1.79-3.11,10.74t-3,10.21Z"/><path class="cls-2" d="M586,575.61a14.23,14.23,0,0,1-10.43,0,10.55,10.55,0,0,1-3.84-2.69,14.55,14.55,0,0,1-2.52-4.06,20.94,20.94,0,0,1-1.44-5,34.55,34.55,0,0,1-.43-5.64,35.61,35.61,0,0,1,.44-5.72,21.49,21.49,0,0,1,1.46-5,14.85,14.85,0,0,1,2.55-4.07,10.89,10.89,0,0,1,3.83-2.67,14,14,0,0,1,10.35,0,10.7,10.7,0,0,1,3.81,2.68,14.75,14.75,0,0,1,2.52,4.08,21.67,21.67,0,0,1,1.45,5,34.37,34.37,0,0,1,.44,5.71,35.73,35.73,0,0,1-.42,5.64,22,22,0,0,1-1.43,5,14.46,14.46,0,0,1-2.52,4.07A10.76,10.76,0,0,1,586,575.61Zm-8.55-5.21a5.53,5.53,0,0,0,6.67,0,7,7,0,0,0,2.1-3.11,21.13,21.13,0,0,0,1-4.25,36.54,36.54,0,0,0,.32-5q0-13.23-6.79-13.23T574,557.92a37.14,37.14,0,0,0,.31,5.06,20.77,20.77,0,0,0,1.05,4.28A7,7,0,0,0,577.45,570.4Z"/><path class="cls-2" d="M599.86,576.09V549.25h5.37l.83,4.11a8.47,8.47,0,0,1,7.64-4.23,12.88,12.88,0,0,1,1.71.1l-.1,5.35a13.24,13.24,0,0,0-2-.15,6.89,6.89,0,0,0-5.29,1.88,7.41,7.41,0,0,0-1.75,5.23v14.55Z"/><path class="cls-2" d="M629.06,576.6a9.88,9.88,0,0,1-8.25-3.86q-3-3.86-3-10.3,0-6.26,3-10.05A9.92,9.92,0,0,1,629,548.6q5.72,0,8.08,4c-.16-1.6-.24-3.13-.24-4.62v-8.66l6.4-.42v37.14h-5.55l-.7-3.67c-.28.44-.54.82-.77,1.14a8.29,8.29,0,0,1-1,1.1,6.22,6.22,0,0,1-1.48,1,10.16,10.16,0,0,1-2,.66A12.29,12.29,0,0,1,629.06,576.6Zm1.51-4.86q6.45,0,6.54-8.76,0-5-1.66-7.23a5.73,5.73,0,0,0-5-2.27,5.44,5.44,0,0,0-4.6,2.31c-1.15,1.53-1.73,3.8-1.73,6.79s.58,5.25,1.73,6.82A5.48,5.48,0,0,0,630.57,571.74Z"/><path class="cls-2" d="M650.86,552.33l2.64-12h5.12l-3.61,12Zm7.32,0,2.44-12H666l-3.9,12Z"/><path class="cls-3" d="M353.71,300.46a16.27,16.27,0,0,0-4.47-2.58,5.47,5.47,0,0,0-4.95.61,6,6,0,0,0-1.83,2.75,21.14,21.14,0,0,0-.86,8.31c.19,3.86.84,8.08,3.72,10.67,2,1.79,4.73,2.48,7.35,3.1,1.37.32,3.15.49,3.85-.73"/><path class="cls-4" d="M354.42,325.55a9.59,9.59,0,0,1-2.21-.29c-2.59-.61-5.8-1.37-8.22-3.55-3.52-3.16-4.19-8.11-4.39-12.07a22.76,22.76,0,0,1,1-9.1,8,8,0,0,1,2.47-3.63,7.39,7.39,0,0,1,6.78-.93,17.64,17.64,0,0,1,5.05,2.86l-2.36,3.24a14.34,14.34,0,0,0-3.9-2.29,3.52,3.52,0,0,0-3.11.28,4.12,4.12,0,0,0-1.18,1.86,19.28,19.28,0,0,0-.74,7.52c.16,3.18.65,7.11,3.06,9.28,1.67,1.5,4.22,2.11,6.47,2.64a3.1,3.1,0,0,0,1.75.12.22.22,0,0,0-.09.1l3.46,2A4.06,4.06,0,0,1,354.42,325.55Z"/><path class="cls-3" d="M440.4,292.67a16,16,0,0,1,4.48-2.57,5.44,5.44,0,0,1,4.95.6,6.06,6.06,0,0,1,1.82,2.75,20.77,20.77,0,0,1,.86,8.31c-.19,3.87-.84,8.09-3.72,10.67-2,1.8-4.73,2.48-7.34,3.1-1.37.33-3.15.49-3.86-.73"/><path class="cls-4" d="M439.69,317.77a4.07,4.07,0,0,1-3.83-2l3.47-2a.38.38,0,0,0-.1-.09,3.26,3.26,0,0,0,1.75-.12c2.26-.54,4.81-1.15,6.48-2.64,2.41-2.17,2.9-6.1,3.05-9.29a19,19,0,0,0-.73-7.51,4.18,4.18,0,0,0-1.18-1.87,3.57,3.57,0,0,0-3.12-.28,14.75,14.75,0,0,0-3.9,2.29l-2.35-3.23a18,18,0,0,1,5-2.87,7.38,7.38,0,0,1,6.78.93,7.88,7.88,0,0,1,2.48,3.64,22.58,22.58,0,0,1,1,9.1c-.19,4-.87,8.9-4.38,12.06-2.43,2.18-5.64,2.94-8.22,3.56A9.67,9.67,0,0,1,439.69,317.77Z"/><circle class="cls-5" cx="398.48" cy="322.38" r="101.51"/><path d="M398.48,425.88A103.51,103.51,0,1,1,502,322.38,103.63,103.63,0,0,1,398.48,425.88Zm0-203A99.51,99.51,0,1,0,498,322.38,99.62,99.62,0,0,0,398.48,222.87Z"/><path class="cls-3" d="M379.3,351.6l-5.15,41.1s26.2,18.63,48.9,1.16l-3.6-48.75Z"/><path class="cls-4" d="M401.33,403.28c-15.49,0-28.15-8.82-28.34-8.95l-1-.69,5.48-43.78,43.78-7.07,3.85,52-.86.66A36.82,36.82,0,0,1,401.33,403.28Zm-25-11.57a54,54,0,0,0,14.43,6.22c11.4,3,21.58,1.29,30.26-5l-3.36-45.49-36.52,5.9Z"/><path class="cls-3" d="M372.13,360.14c6.23,5.75,8.22,10.28,16.25,11.28,11.61,1.43,19.21-.39,29.16-7.24,9.54-6.58,20.57-17.08,23.78-29.09s3.68-24.71,3.84-37.25c.06-5,.07-10-1.24-14.78-1.86-6.77-6.24-12.35-11.12-16.86-21.58-19.94-66.09-23.63-82.25,7.38C340.26,293.31,357,346.17,372.13,360.14Z"/><path class="cls-4" d="M395.23,373.88a58.38,58.38,0,0,1-7.1-.48c-6.75-.84-9.71-3.94-13.45-7.88-1.19-1.24-2.42-2.53-3.91-3.91h0c-15.26-14.08-32.87-68.1-22-89,8.24-15.8,22.26-21.25,32.57-23,18.34-3.19,39.57,2.88,52.81,15.12,6.14,5.67,10,11.5,11.7,17.8,1.33,4.83,1.38,9.81,1.31,15.34-.16,12.28-.58,25.31-3.91,37.73-3.92,14.7-18.49,26-24.57,30.22C410.5,371.46,403.77,373.88,395.23,373.88Zm-21.75-15.21c1.59,1.46,2.92,2.86,4.1,4.1,3.43,3.61,5.71,6,11,6.66,11.27,1.39,18.28-.35,27.79-6.9,5.71-3.94,19.39-14.55,23-28,3.2-12,3.62-24.73,3.77-36.75.06-5.23,0-9.9-1.17-14.23-1.52-5.56-5-10.77-10.55-15.92-12.37-11.44-32.23-17.11-49.41-14.12-9.43,1.64-22.23,6.6-29.71,20.95-10,19.19,7,71.11,21.16,84.17Z"/><path class="cls-6" d="M398.48,423.88a101.21,101.21,0,0,0,72.7-30.67C460.86,382.59,446,379.78,446,379.78l-16.56-1c-44.85,20.72-60.67-1.23-60.67-1.23-21.57,4.85-34.42,10.85-42,16.68A101.22,101.22,0,0,0,398.48,423.88Z"/><path class="cls-4" d="M398.48,425.88a102.79,102.79,0,0,1-73.13-30.26l-1.61-1.6,1.8-1.4c9-7,23.41-12.69,42.76-17l1.29-.29.77,1.07c.61.83,15.59,20.28,58.21.58l.46-.21,17.31,1.08c.64.12,15.64,3.05,26.27,14l1.36,1.39-1.36,1.4A102.7,102.7,0,0,1,398.48,425.88Zm-68.63-31.45a99.5,99.5,0,0,0,138.48-1.2c-9.16-8.47-21.33-11.19-22.62-11.46l-15.92-1c-40.28,18.44-57.84,3.32-61.8-1C351.11,383.64,338.3,388.57,329.85,394.43Z"/><circle cx="378.12" cy="321.16" r="5"/><circle cx="412.89" cy="320.66" r="5"/><path d="M394.12,342.65a1.5,1.5,0,0,1,0-3,15.24,15.24,0,0,0,2.31-.21,8.77,8.77,0,0,1,1.83-.13.81.81,0,0,0,.74-.25c.08-.27-.45-1-.73-1.46-1.64-2.37-3.14-11.07-2.86-13.63a1.5,1.5,0,1,1,3,.33c-.24,2.11,1.21,10,2.3,11.55.69,1,1.67,2.42,1.18,4.07a3.66,3.66,0,0,1-3.83,2.39,5.84,5.84,0,0,0-1.2.1,18.68,18.68,0,0,1-2.71.24Z"/><path d="M398,357.94a13.42,13.42,0,0,1-9.12-3.71,1.5,1.5,0,1,1,2-2.21c5.1,4.68,10.9,3,14.63,0a1.49,1.49,0,1,1,1.91,2.3A14.78,14.78,0,0,1,398,357.94Z"/><path class="cls-7" d="M359.48,254.53a37.51,37.51,0,0,0-9,12.22c-3.64,7.32-5.79,21-5.48,28.6a5.16,5.16,0,0,0,.22,1.51c.87,2.43,5.1,4,9.2,4.26s8.21-.33,12.3-.65c10.54-.84,19.71-1.92,30.29-2.13,11.1-.23,24.48,2,34.31-.45a35.92,35.92,0,0,0,10.78-4.29c4.94-2.75,4.29-12.39,3.43-15.09-1.55-4.87-2.91-10.62-5.95-15.46-3.15-5-4.39-6.76-10.68-11.64-4.92-3.82-9.31-6.86-18.12-8.1-4.75-.68-20.54-2.13-31.12,1.06S365,249.66,359.48,254.53Z"/><path class="cls-4" d="M356.71,303.19c-.8,0-1.6,0-2.4-.08-4.24-.31-9.65-1.95-10.94-5.58a6.48,6.48,0,0,1-.34-2.1c-.33-8.1,1.88-21.92,5.69-29.57A39.67,39.67,0,0,1,358.16,253h0c5.78-5.08,10.28-7.35,20.95-10.57,12.61-3.81,31.2-1.25,32-1.13,9.19,1.29,13.89,4.47,19.07,8.5,6.54,5.07,7.88,7,11.14,12.16,2.6,4.14,4,8.89,5.3,13.08.29,1,.57,1.92.87,2.83.86,2.7,2,13.92-4.37,17.44a37.45,37.45,0,0,1-11.27,4.49c-6.76,1.67-15,1.25-22.94.84-4.16-.21-8.09-.41-11.81-.33-7.66.15-14.56.76-21.87,1.41-2.7.24-5.45.48-8.3.71l-3,.27C361.58,303,359.16,303.19,356.71,303.19ZM360.8,256h0a35.63,35.63,0,0,0-8.5,11.61c-3.48,7-5.58,20.18-5.28,27.63a3.6,3.6,0,0,0,.12.92c.42,1.18,3.39,2.63,7.46,2.93a53.3,53.3,0,0,0,8.95-.37c1-.1,2-.2,3-.28,2.84-.22,5.58-.46,8.27-.7,7.38-.66,14.34-1.27,22.14-1.43,3.86-.08,8.05.13,12.09.34,7.67.39,15.6.79,21.79-.73a34.21,34.21,0,0,0,10.28-4.1c3.59-2,3.26-10.33,2.5-12.73-.3-.94-.6-1.91-.89-2.9-1.25-4.14-2.54-8.42-4.85-12.11-3.11-4.95-4.17-6.44-10.21-11.12-4.87-3.78-8.94-6.54-17.18-7.7-6.34-.9-20.84-1.85-30.26,1C370.13,249.35,366.13,251.35,360.8,256Z"/><path class="cls-8" d="M359.36,295.63s-3.95,8.21-3.28,14.69,29.65-3.1,43.58-2.77c12.25.29,24.72,3,34.47,2.77s-2.74-18.74-2.74-18.74"/><path d="M361.38,314.56c-2.58,0-4.49-.39-5.73-1.32a3.87,3.87,0,0,1-1.56-2.72c-.72-7,3.29-15.4,3.46-15.76l3.61,1.73c0,.08-3.67,7.75-3.09,13.57,1.67,1.54,13.3-.56,20.27-1.82,7.69-1.39,15.61-2.84,21.36-2.69,5.93.14,11.81.83,17.5,1.5a125.36,125.36,0,0,0,16.88,1.27c1.28,0,1.5-.46,1.58-.6,1.12-2.19-2.2-9.5-5.92-15l3.31-2.24c8.64,12.78,6.65,18.14,6.16,19.09-.62,1.22-2,2.69-5,2.76A128.29,128.29,0,0,1,416.74,311c-5.6-.66-11.4-1.34-17.13-1.47-5.33-.13-13.06,1.27-20.55,2.63C371.41,313.56,365.53,314.56,361.38,314.56Z"/><ellipse class="cls-1" cx="395.58" cy="244.44" rx="6.65" ry="4.48"/><polygon class="cls-9" points="1477.51 577.16 1371.54 648.14 1183.65 594.61 1290.12 524.62 1477.51 577.16"/><path d="M1371.54,650.14a2,2,0,0,1-.54-.07l-187.89-53.54a2,2,0,0,1-.55-3.59L1289,523a2,2,0,0,1,1.64-.25L1478,575.23a2,2,0,0,1,1.44,1.61,2,2,0,0,1-.86,2l-106,71A2,2,0,0,1,1371.54,650.14ZM1188.4,593.88,1371.2,646l101.59-68.05-182.34-51.12Z"/><polygon class="cls-10" points="1477.51 678.67 1371.54 749.65 1184.15 697.12 1290.12 653.71 1477.51 678.67"/><path class="cls-4" d="M1371.89,751.83,1178,697.47l111.84-45.81L1483,677.38ZM1190.3,696.76l180.9,50.72L1472,680l-181.62-24.18Z"/><polygon class="cls-9" points="1371.54 752.59 1477.51 681.6 1477.51 577.19 1371.54 646.67 1371.54 752.59"/><path d="M1371.54,754.58a2,2,0,0,1-.94-.23,2,2,0,0,1-1.06-1.77V646.67a2,2,0,0,1,.91-1.67l106-69.48a2,2,0,0,1,3.09,1.67V681.6a2,2,0,0,1-.88,1.66l-106,71A2.06,2.06,0,0,1,1371.54,754.58Zm2-106.83V748.84l102-68.31V580.89Z"/><polygon class="cls-9" points="1183.65 594.61 1371.54 647.14 1371.54 749.65 1184.15 697.12 1183.65 594.61"/><path d="M1371.54,751.65a2,2,0,0,1-.54-.07L1183.61,699a2,2,0,0,1-1.46-1.91l-.5-102.51a2,2,0,0,1,2.54-1.94l187.89,52.54a2,2,0,0,1,1.46,1.92V749.65a2,2,0,0,1-2,2Zm-185.39-56L1369.54,747V648.66l-183.87-51.41Z"/><path class="cls-6" d="M213.09,173.63q-12.54,0-19.88-7.89t-7.35-21.8q0-13.2,7.68-21.19t20.09-8q10.05,0,17,4.65l-3.32,8a25.54,25.54,0,0,0-13.44-4.1A15.18,15.18,0,0,0,201.39,129q-4.59,5.69-4.59,15.26,0,9.92,4.43,15.35T213.87,165a31.18,31.18,0,0,0,14.26-3.6l1.4,8.29Q223,173.63,213.09,173.63Z"/><path class="cls-6" d="M238,172.81V129.88h8.59l1.33,6.56a13.57,13.57,0,0,1,12.23-6.75,20,20,0,0,1,2.73.15l-.15,8.56a21.52,21.52,0,0,0-3.25-.24c-3.77,0-6.59,1-8.45,3s-2.8,4.79-2.8,8.36v23.28Z"/><path class="cls-6" d="M288.6,173.63q-10.37,0-16.12-6t-5.76-16.46q0-10.23,5.43-16.29T287,128.83q8.87,0,13.76,5.54t4.91,14.73c0,.44,0,1.16,0,2.15s0,1.72,0,2.19H277q.17,6,3.3,9.31c2.1,2.2,5,3.3,8.66,3.3a27,27,0,0,0,13.51-3.67l1.45,7.27A28.69,28.69,0,0,1,288.6,173.63ZM277.23,147H296c0-3.49-.8-6.17-2.38-8.05a8.21,8.21,0,0,0-6.61-2.81,9,9,0,0,0-6.66,2.74Q277.62,141.6,277.23,147Z"/><path class="cls-6" d="M329.92,173.63q-8.4,0-13.2-6.17T311.92,151q0-10,4.78-16.08t13.18-6.07q9.15,0,12.93,6.48a72.8,72.8,0,0,1-.39-7.38V114.06l10.24-.66v59.41h-8.87L342.66,167c-.45.71-.86,1.31-1.23,1.82a13.33,13.33,0,0,1-1.66,1.76,10,10,0,0,1-2.37,1.6,16,16,0,0,1-3.2,1.05A18.87,18.87,0,0,1,329.92,173.63Zm2.43-7.77q10.31,0,10.46-14,0-7.92-2.65-11.56c-1.77-2.42-4.42-3.63-7.93-3.63a8.72,8.72,0,0,0-7.36,3.69q-2.76,3.69-2.76,10.88t2.76,10.9A8.77,8.77,0,0,0,332.35,165.86Z"/><path class="cls-6" d="M382.93,173.63q-10.35,0-16.11-6t-5.76-16.46q0-10.23,5.43-16.29t14.8-6.09q8.86,0,13.77,5.54T400,149.1c0,.44,0,1.16,0,2.15s0,1.72,0,2.19H371.37q.15,6,3.3,9.31t8.65,3.3a27.06,27.06,0,0,0,13.52-3.67l1.44,7.27A28.64,28.64,0,0,1,382.93,173.63ZM371.56,147h18.75q0-5.24-2.38-8.05a8.2,8.2,0,0,0-6.6-2.81,9,9,0,0,0-6.66,2.74Q372,141.6,371.56,147Z"/><path class="cls-6" d="M408.28,172.81V129.88h8.25l1.13,5.43q6.55-6.48,14.57-6.48,7.5,0,11.23,4.31t3.73,12.52v27.15H436.92v-25.9q0-5.19-1.68-7.77c-1.1-1.72-3.06-2.58-5.9-2.58a11.38,11.38,0,0,0-6.08,1.7,10.3,10.3,0,0,0-4,4.28,42.74,42.74,0,0,0-.74,9.37v20.9Z"/><path class="cls-6" d="M474.42,173.4a22,22,0,0,1-7.29-1,9.39,9.39,0,0,1-4.55-3.26,13.8,13.8,0,0,1-2.32-5.25,34.38,34.38,0,0,1-.69-7.48V136.09h-7l.39-5.54,7.35-.67,3.28-11.64,6.25,0v11.68h10.66v6.21H469.81v20.47c0,3.26.47,5.57,1.4,6.95s2.67,2.07,5.2,2.07a30.19,30.19,0,0,0,4.76-.39l.28,7.35c-.06,0-.37.06-1,.17l-1.68.32c-.53.09-1.22.17-2.05.25S475.14,173.4,474.42,173.4Z"/><path class="cls-6" d="M488.87,123.63v-8.75h10.27v8.75Zm0,49.18V129.88H499.1v42.93Z"/><path class="cls-6" d="M521.1,173.63a14,14,0,0,1-9.67-3.3q-3.69-3.3-3.69-9.51,0-6.67,4.37-9.9t13.2-4.09l2.62-.31c.94-.1,2-.21,3.17-.31s2.09-.2,2.77-.27v-2.27c0-2.6-.6-4.5-1.8-5.68s-3-1.78-5.47-1.78q-5.24,0-12.93,2.93c0-.08-.45-1.26-1.29-3.56s-1.26-3.46-1.28-3.51a41.27,41.27,0,0,1,16.4-3.24q8.67,0,12.62,3.77t3.94,12.2v28h-7.57l-.86-2.62c-.55-1.64-.82-2.51-.82-2.61a24.33,24.33,0,0,1-6.27,4.59A17.29,17.29,0,0,1,521.1,173.63Zm2.77-7.26a11.2,11.2,0,0,0,6.19-1.7,10,10,0,0,0,3.77-4.12v-8.29l-2.05.16c-1.29.11-2,.16-2.09.16-4.14.36-7.18,1.14-9.1,2.34a6.29,6.29,0,0,0-2.89,5.78,5.39,5.39,0,0,0,1.6,4.2A6.52,6.52,0,0,0,523.87,166.37Z"/><path class="cls-6" d="M569.42,173.4a22.12,22.12,0,0,1-7.33-1,9.52,9.52,0,0,1-4.59-3.3,13.67,13.67,0,0,1-2.34-5.39,37.59,37.59,0,0,1-.67-7.77V114.06l10.24-.66v42.3c0,3.86.45,6.47,1.37,7.83s2.68,2.05,5.31,2.05a37.28,37.28,0,0,0,5-.42l.27,7.3-.95.2c-.62.13-1.2.24-1.76.33s-1.27.18-2.13.27A23.18,23.18,0,0,1,569.42,173.4Z"/><path class="cls-6" d="M595.43,173.59q-9.49,0-15.19-3.24l1-7.69a32.12,32.12,0,0,0,6.56,2.51,27,27,0,0,0,7.27,1.12,9.4,9.4,0,0,0,5.29-1.27,4.32,4.32,0,0,0,1.94-3.73,4.13,4.13,0,0,0-1.78-3.52,33.65,33.65,0,0,0-6.78-3.2l-2.23-.82c-3.95-1.54-6.81-3.25-8.55-5.14a10.83,10.83,0,0,1-2.62-7.67,10.49,10.49,0,0,1,4.24-9c2.83-2.08,6.76-3.12,11.82-3.12a32.07,32.07,0,0,1,14.41,3.08L608.32,139a27.74,27.74,0,0,0-11.68-2.85,9.43,9.43,0,0,0-4.82,1,3.42,3.42,0,0,0-1.74,3.14,3.54,3.54,0,0,0,1.68,3.11,36.9,36.9,0,0,0,6.56,2.91c.11,0,.44.14,1,.35l1.33.51q5.9,2.15,8.67,5.13a11,11,0,0,1,2.77,7.8q0,6.44-4.37,10T595.43,173.59Z"/><path class="cls-6" d="M903.07,666.45V609.22h17.85q11.37,0,17,3.32t5.58,11.06a20.06,20.06,0,0,1-.15,2.46,13.63,13.63,0,0,1-.71,2.75,11.06,11.06,0,0,1-1.44,2.8,11.64,11.64,0,0,1-2.5,2.44,12.4,12.4,0,0,1-3.75,1.85,14,14,0,0,1,8.12,4.94,14.32,14.32,0,0,1,2.82,9q0,8.08-5.73,12.34t-15.84,4.26Zm10.59-33.59h9.06q10.51,0,10.51-8c0-3-1-5.05-3-6.17S925,617,920.57,617h-6.91Zm0,25.93h9.18q12.18,0,12.19-9.53c0-3.2-1-5.51-3-6.91s-5.17-2.11-9.42-2.11h-8.9Z"/><path class="cls-6" d="M973,667.27q-9.86,0-15.34-5.86t-5.49-16.76q0-10.54,5.77-16.36t15.17-5.83a23.64,23.64,0,0,1,12.74,3.25l-2.43,7.3a21.49,21.49,0,0,0-9.88-2.77,9.94,9.94,0,0,0-8.18,3.71q-3,3.7-3,10.82t2.95,10.94a10,10,0,0,0,8.34,3.75,19.83,19.83,0,0,0,10.82-3.32l1,7.77a18.92,18.92,0,0,1-5.59,2.58A26.63,26.63,0,0,1,973,667.27Z"/><path class="cls-6" d="M993.58,666.45V623.52h8.59l1.33,6.56a13.58,13.58,0,0,1,12.23-6.76,19.8,19.8,0,0,1,2.73.16l-.15,8.56a21.52,21.52,0,0,0-3.25-.24q-5.65,0-8.45,3c-1.86,2-2.8,4.79-2.8,8.36v23.28Z"/><path class="cls-6" d="M1027,684.54a47.73,47.73,0,0,1-5.31-.32l-.51-7.93a43.6,43.6,0,0,0,4.57.2,8.64,8.64,0,0,0,9.26-6.41q.15-.39,1.56-4.41l-17.27-42.15h10.94l11.29,31.13q1.24-4.65,5.61-17.26t4.78-13.87h10.94q-17.85,47.19-18,47.58-2.77,7.23-7,10.33T1027,684.54Z"/><path class="cls-6" d="M1068.31,684.3V623.52h8.79l1.09,6a14.51,14.51,0,0,1,5.6-5.26,16.33,16.33,0,0,1,7.8-1.85,15.27,15.27,0,0,1,9.28,2.93,18.18,18.18,0,0,1,6.07,8,30,30,0,0,1,2.07,11.43q0,10-4.82,16.23a15.63,15.63,0,0,1-13.07,6.27,16.47,16.47,0,0,1-7.36-1.62,16,16,0,0,1-5.53-4.4q.32,5.63.31,6.33v16.21Zm20.62-24.84a8.31,8.31,0,0,0,7.21-3.83q2.64-3.82,2.64-10.94t-2.66-10.86a8.63,8.63,0,0,0-7.38-3.63q-10.17,0-10.28,13.83,0,8,2.64,11.7A9,9,0,0,0,1088.93,659.46Z"/><path class="cls-6" d="M1134.52,667a22,22,0,0,1-7.29-1,9.43,9.43,0,0,1-4.55-3.26,13.92,13.92,0,0,1-2.32-5.26,34.25,34.25,0,0,1-.69-7.48V629.73h-7l.39-5.55,7.35-.66,3.28-11.64,6.25,0v11.68h10.66v6.21h-10.66V650.2c0,3.26.47,5.57,1.4,6.95s2.67,2.07,5.2,2.07a31.65,31.65,0,0,0,4.77-.39l.27,7.35s-.37.05-1,.17-1.14.22-1.68.31-1.22.18-2.05.26S1135.25,667,1134.52,667Z"/><path class="cls-2" d="M942.55,824.91V789.05h11.91a21.2,21.2,0,0,1,7.23,1.09,9.8,9.8,0,0,1,4.75,3.52,10.3,10.3,0,0,1,1.74,6.13,14.5,14.5,0,0,1-.66,4.56,9.27,9.27,0,0,1-6.43,6.11,21.78,21.78,0,0,1-6.63.88c-2.21,0-4-.06-5.4-.2v13.77Zm11.2-18.36a14.15,14.15,0,0,0,3.53-.39,6.93,6.93,0,0,0,2.34-1,4.54,4.54,0,0,0,1.35-1.51,5.79,5.79,0,0,0,.65-1.75,9.87,9.87,0,0,0,.16-1.89,5.42,5.42,0,0,0-1.9-4.49,8.32,8.32,0,0,0-5.37-1.54h-5.45v12.53C949.26,806.54,950.82,806.55,953.75,806.55Z"/><path class="cls-2" d="M981.9,825.28a13.89,13.89,0,0,1-4.58-.65,5.9,5.9,0,0,1-2.86-2.06A8.47,8.47,0,0,1,973,819.2a23.68,23.68,0,0,1-.41-4.86V788.2l6.39-.42v26.44c0,2.41.29,4,.86,4.9s1.67,1.28,3.32,1.28a22.75,22.75,0,0,0,3.1-.27l.17,4.56-.6.13c-.38.08-.75.15-1.1.2s-.79.12-1.33.18S982.36,825.28,981.9,825.28Z"/><path class="cls-2" d="M996.67,825.43a8.7,8.7,0,0,1-6-2.07,7.53,7.53,0,0,1-2.31-5.94c0-2.78.91-4.85,2.74-6.19s4.57-2.19,8.25-2.55l1.63-.2c.59-.06,1.25-.13,2-.19l1.74-.17V806.7a4.82,4.82,0,0,0-1.13-3.55,4.69,4.69,0,0,0-3.42-1.11,23.64,23.64,0,0,0-8.08,1.83s-.28-.79-.8-2.22-.79-2.17-.81-2.2a25.84,25.84,0,0,1,10.26-2q5.42,0,7.88,2.36t2.47,7.63v17.5h-4.74c0-.06-.19-.61-.54-1.63s-.51-1.57-.51-1.64a14.73,14.73,0,0,1-3.92,2.87A10.74,10.74,0,0,1,996.67,825.43Zm1.74-4.54a6.92,6.92,0,0,0,3.86-1.07,6.14,6.14,0,0,0,2.36-2.57v-5.18l-1.28.1-1.31.1a13.47,13.47,0,0,0-5.69,1.46,4,4,0,0,0-1.8,3.62,3.36,3.36,0,0,0,1,2.62A4.1,4.1,0,0,0,998.41,820.89Z"/><path class="cls-2" d="M1017.62,794.18v-5.47H1024v5.47Zm0,30.73V798.08h6.4v26.83Z"/><path class="cls-2" d="M1030.68,824.91V798.08h5.15l.71,3.4a12.71,12.71,0,0,1,9.11-4.06q4.68,0,7,2.7T1055,808v17h-6.42V808.73a9.38,9.38,0,0,0-1-4.86c-.69-1.08-1.92-1.61-3.69-1.61a7.1,7.1,0,0,0-3.8,1.06,6.51,6.51,0,0,0-2.5,2.67,27,27,0,0,0-.46,5.86v13.06Z"/><path class="cls-2" d="M1085.22,825.28a13.74,13.74,0,0,1-4.55-.65,5.9,5.9,0,0,1-2.85-2,8.76,8.76,0,0,1-1.45-3.28,21.91,21.91,0,0,1-.43-4.67V802h-4.39l.24-3.46,4.59-.42,2-7.27,3.91,0v7.3H1089V802h-6.67v12.8a8,8,0,0,0,.88,4.34,3.65,3.65,0,0,0,3.25,1.3,18.9,18.9,0,0,0,3-.25l.17,4.59-.6.11-1,.2c-.34.06-.76.11-1.28.16S1085.68,825.28,1085.22,825.28Z"/><path class="cls-2" d="M1106.29,825.43q-6.46,0-10.07-3.73t-3.6-10.29q0-6.39,3.39-10.18a11.9,11.9,0,0,1,9.26-3.81q5.54,0,8.6,3.47a13.4,13.4,0,0,1,3.07,9.2c0,.28,0,.73,0,1.35s0,1.07,0,1.36h-17.85a8.49,8.49,0,0,0,2.07,5.83,7.13,7.13,0,0,0,5.41,2.06,16.9,16.9,0,0,0,8.44-2.29l.91,4.54A17.92,17.92,0,0,1,1106.29,825.43Zm-7.1-16.65h11.72a7.59,7.59,0,0,0-1.49-5,5.14,5.14,0,0,0-4.13-1.76,5.64,5.64,0,0,0-4.16,1.71A7.75,7.75,0,0,0,1099.19,808.78Z"/><path class="cls-2" d="M1119.3,824.91l9.55-13.74-9.08-13.09H1127l6,9.13,6.12-9.13h7.13l-9.15,13.06,9.47,13.77h-7.32l-6.25-9.74-6.45,9.74Z"/><path class="cls-2" d="M1161,825.28a13.81,13.81,0,0,1-4.56-.65,5.83,5.83,0,0,1-2.84-2,8.6,8.6,0,0,1-1.45-3.28,21.28,21.28,0,0,1-.43-4.67V802h-4.39l.24-3.46,4.59-.42,2-7.27,3.91,0v7.3h6.66V802h-6.66v12.8a8,8,0,0,0,.88,4.34c.58.87,1.66,1.3,3.24,1.3a18.81,18.81,0,0,0,3-.25l.17,4.59-.6.11c-.36.08-.71.14-1,.2s-.76.11-1.28.16S1161.48,825.28,1161,825.28Z"/><path class="cls-2" d="M1183.12,836.07v-38h5.5l.68,3.76a9.11,9.11,0,0,1,3.5-3.28,10.27,10.27,0,0,1,4.87-1.16,9.57,9.57,0,0,1,5.8,1.83,11.42,11.42,0,0,1,3.8,5,18.77,18.77,0,0,1,1.29,7.14,16.18,16.18,0,0,1-3,10.15,9.78,9.78,0,0,1-8.17,3.92,10.22,10.22,0,0,1-4.6-1,10,10,0,0,1-3.46-2.74c.13,2.34.2,3.66.2,4v10.13ZM1196,820.54a5.18,5.18,0,0,0,4.51-2.39,11.94,11.94,0,0,0,1.65-6.83q0-4.53-1.67-6.79a5.36,5.36,0,0,0-4.61-2.27q-6.35,0-6.42,8.64,0,5,1.65,7.31A5.59,5.59,0,0,0,1196,820.54Z"/><path class="cls-2" d="M1220.77,825.43a8.69,8.69,0,0,1-6-2.07,7.53,7.53,0,0,1-2.31-5.94c0-2.78.91-4.85,2.73-6.19s4.58-2.19,8.26-2.55l1.63-.2c.59-.06,1.25-.13,2-.19l1.73-.17V806.7a4.81,4.81,0,0,0-1.12-3.55,4.69,4.69,0,0,0-3.42-1.11,23.64,23.64,0,0,0-8.08,1.83l-.81-2.22-.8-2.2a25.79,25.79,0,0,1,10.25-2c3.62,0,6.24.79,7.89,2.36s2.46,4.11,2.46,7.63v17.5h-4.73l-.54-1.63c-.34-1-.51-1.57-.51-1.64a14.89,14.89,0,0,1-3.92,2.87A10.74,10.74,0,0,1,1220.77,825.43Zm1.73-4.54a7,7,0,0,0,3.87-1.07,6.21,6.21,0,0,0,2.36-2.57v-5.18l-1.28.1-1.31.1a13.43,13.43,0,0,0-5.69,1.46,4,4,0,0,0-1.81,3.62,3.36,3.36,0,0,0,1,2.62A4.05,4.05,0,0,0,1222.5,820.89Z"/><path class="cls-2" d="M1250.14,825.4c-4,0-7.12-.67-9.5-2l.66-4.81a20,20,0,0,0,4.1,1.57,16.81,16.81,0,0,0,4.54.7,5.89,5.89,0,0,0,3.31-.8,2.68,2.68,0,0,0,1.21-2.33,2.58,2.58,0,0,0-1.11-2.2,21.14,21.14,0,0,0-4.24-2l-1.39-.51a14.24,14.24,0,0,1-5.34-3.21,6.76,6.76,0,0,1-1.64-4.8,6.53,6.53,0,0,1,2.65-5.61,12.24,12.24,0,0,1,7.38-2,20.08,20.08,0,0,1,9,1.93l-1.58,4.42a17.32,17.32,0,0,0-7.3-1.78,5.92,5.92,0,0,0-3,.65,2.14,2.14,0,0,0-1.09,2,2.2,2.2,0,0,0,1,1.94,22.39,22.39,0,0,0,4.11,1.82l.63.22.83.32a13.62,13.62,0,0,1,5.42,3.21,6.85,6.85,0,0,1,1.73,4.87,7.6,7.6,0,0,1-2.73,6.23Q1255.12,825.4,1250.14,825.4Z"/><path class="cls-2" d="M1274.19,825.4c-4,0-7.12-.67-9.5-2l.66-4.81a19.8,19.8,0,0,0,4.1,1.57,16.76,16.76,0,0,0,4.54.7,5.89,5.89,0,0,0,3.31-.8,2.68,2.68,0,0,0,1.21-2.33,2.58,2.58,0,0,0-1.11-2.2,21.43,21.43,0,0,0-4.24-2l-1.39-.51a14.29,14.29,0,0,1-5.35-3.21,6.8,6.8,0,0,1-1.63-4.8,6.53,6.53,0,0,1,2.65-5.61,12.22,12.22,0,0,1,7.38-2,20.08,20.08,0,0,1,9,1.93l-1.59,4.42a17.28,17.28,0,0,0-7.3-1.78,5.9,5.9,0,0,0-3,.65,2.12,2.12,0,0,0-1.09,2,2.2,2.2,0,0,0,1.05,1.94,22.53,22.53,0,0,0,4.1,1.82l.64.22.83.32a13.62,13.62,0,0,1,5.42,3.21,6.89,6.89,0,0,1,1.73,4.87,7.66,7.66,0,0,1-2.73,6.23Q1279.17,825.4,1274.19,825.4Z"/><path class="cls-2" d="M1294.87,824.91l-8.13-26.83h6.51l5.16,19.68q.16-.56,2.78-9.59t3-10.09h6.57q.32,1,2.81,10t2.68,9.62l5.3-19.61h6.42l-8.4,26.83h-6.37q-.32-1-3-10.62T1307.32,804q-.49,1.78-3.12,10.74t-3,10.2Z"/><path class="cls-2" d="M1342.89,825.43a11.9,11.9,0,0,1-9.38-3.86q-3.42-3.86-3.42-10.16,0-6.49,3.42-10.24t9.65-3.75q6,0,9.41,3.82t3.4,10.17q0,6.42-3.44,10.22T1342.89,825.43Zm.17-4.86a5.54,5.54,0,0,0,4.88-2.37,11.88,11.88,0,0,0,1.64-6.79q0-4.47-1.64-6.81a6.31,6.31,0,0,0-9.82,0q-1.65,2.35-1.65,6.83a11.66,11.66,0,0,0,1.66,6.76A5.62,5.62,0,0,0,1343.06,820.57Z"/><path class="cls-2" d="M1361.22,824.91V798.08h5.37l.83,4.1a8.5,8.5,0,0,1,7.65-4.22,11.31,11.31,0,0,1,1.7.1l-.09,5.35a13.37,13.37,0,0,0-2-.15,6.87,6.87,0,0,0-5.28,1.88,7.34,7.34,0,0,0-1.75,5.22v14.55Z"/><path class="cls-2" d="M1390.42,825.43a9.88,9.88,0,0,1-8.25-3.86q-3-3.86-3-10.3,0-6.25,3-10a9.91,9.91,0,0,1,8.24-3.8q5.71,0,8.08,4.06c-.16-1.6-.25-3.14-.25-4.62V788.2l6.4-.42v37.13h-5.54l-.71-3.66c-.28.44-.53.82-.77,1.14a7.68,7.68,0,0,1-1,1.1,6.27,6.27,0,0,1-1.47,1,10.39,10.39,0,0,1-2,.66A12.32,12.32,0,0,1,1390.42,825.43Zm1.52-4.86q6.43,0,6.54-8.77c0-3.3-.56-5.71-1.66-7.22a5.74,5.74,0,0,0-5-2.27,5.47,5.47,0,0,0-4.6,2.3q-1.73,2.31-1.72,6.8t1.72,6.81A5.49,5.49,0,0,0,1391.94,820.57Z"/><path class="cls-2" d="M1424.53,794.18v-5.47H1431v5.47Zm0,30.73V798.08h6.39v26.83Z"/><path class="cls-2" d="M1446.16,825.4c-4,0-7.12-.67-9.5-2l.66-4.81a20,20,0,0,0,4.1,1.57,16.81,16.81,0,0,0,4.54.7,5.89,5.89,0,0,0,3.31-.8,2.68,2.68,0,0,0,1.21-2.33,2.58,2.58,0,0,0-1.11-2.2,21.14,21.14,0,0,0-4.24-2l-1.39-.51a14.32,14.32,0,0,1-5.34-3.21,6.76,6.76,0,0,1-1.64-4.8,6.53,6.53,0,0,1,2.65-5.61,12.24,12.24,0,0,1,7.38-2,20.08,20.08,0,0,1,9,1.93l-1.58,4.42a17.32,17.32,0,0,0-7.3-1.78,5.92,5.92,0,0,0-3,.65,2.14,2.14,0,0,0-1.09,2,2.2,2.2,0,0,0,1,1.94,22.39,22.39,0,0,0,4.11,1.82l.63.22.83.32a13.62,13.62,0,0,1,5.42,3.21,6.85,6.85,0,0,1,1.73,4.87,7.6,7.6,0,0,1-2.73,6.23Q1451.14,825.4,1446.16,825.4Z"/><path class="cls-2" d="M1474.85,824.91V788.2l6.39-.42v7.74c0,.37,0,1.41-.07,3.11s-.07,2.57-.07,2.6a10.63,10.63,0,0,1,8.59-3.81,9.21,9.21,0,0,1,7,2.58q2.47,2.58,2.48,7.92v17h-6.4V808.63a8.69,8.69,0,0,0-1-4.83,4,4,0,0,0-3.56-1.54,6.8,6.8,0,0,0-3.81,1.08,6.9,6.9,0,0,0-2.49,2.8,23.93,23.93,0,0,0-.59,5.86v12.91Z"/><path class="cls-2" d="M1512.52,825.43a8.73,8.73,0,0,1-6-2.07,7.56,7.56,0,0,1-2.3-5.94c0-2.78.91-4.85,2.73-6.19s4.57-2.19,8.25-2.55l1.64-.2c.59-.06,1.24-.13,2-.19l1.73-.17V806.7a4.86,4.86,0,0,0-1.12-3.55A4.69,4.69,0,0,0,1516,802a23.59,23.59,0,0,0-8.08,1.83l-.81-2.22-.8-2.2a25.76,25.76,0,0,1,10.25-2q5.42,0,7.89,2.36t2.46,7.63v17.5h-4.73l-.54-1.63c-.34-1-.51-1.57-.51-1.64a14.89,14.89,0,0,1-3.92,2.87A10.74,10.74,0,0,1,1512.52,825.43Zm1.73-4.54a7,7,0,0,0,3.87-1.07,6.21,6.21,0,0,0,2.36-2.57v-5.18l-1.29.1-1.3.1a13.39,13.39,0,0,0-5.69,1.46,3.94,3.94,0,0,0-1.81,3.62,3.39,3.39,0,0,0,1,2.62A4.1,4.1,0,0,0,1514.25,820.89Z"/><path class="cls-2" d="M1541.89,825.4c-4,0-7.12-.67-9.5-2l.66-4.81a19.8,19.8,0,0,0,4.1,1.57,16.76,16.76,0,0,0,4.54.7,5.89,5.89,0,0,0,3.31-.8,2.68,2.68,0,0,0,1.21-2.33,2.58,2.58,0,0,0-1.11-2.2,21.43,21.43,0,0,0-4.24-2l-1.39-.51a14.37,14.37,0,0,1-5.35-3.21,6.8,6.8,0,0,1-1.63-4.8,6.53,6.53,0,0,1,2.65-5.61,12.22,12.22,0,0,1,7.38-2,20.08,20.08,0,0,1,9,1.93l-1.59,4.42a17.28,17.28,0,0,0-7.3-1.78,5.9,5.9,0,0,0-3,.65,2.12,2.12,0,0,0-1.09,2,2.2,2.2,0,0,0,1,1.94,22.53,22.53,0,0,0,4.1,1.82l.64.22.83.32a13.62,13.62,0,0,1,5.42,3.21,6.89,6.89,0,0,1,1.73,4.87,7.66,7.66,0,0,1-2.73,6.23Q1546.87,825.4,1541.89,825.4Z"/><path class="cls-2" d="M1557.37,824.91V788.2l6.39-.42v7.74c0,.37,0,1.41-.07,3.11s-.07,2.57-.07,2.6a10.63,10.63,0,0,1,8.59-3.81,9.21,9.21,0,0,1,7,2.58q2.47,2.58,2.48,7.92v17h-6.4V808.63a8.69,8.69,0,0,0-1-4.83,4,4,0,0,0-3.56-1.54,6.8,6.8,0,0,0-3.81,1.08,6.9,6.9,0,0,0-2.49,2.8,23.93,23.93,0,0,0-.59,5.86v12.91Z"/><path class="cls-2" d="M1600.36,825.43q-6.48,0-10.07-3.73t-3.6-10.29q0-6.39,3.39-10.18a11.89,11.89,0,0,1,9.25-3.81q5.55,0,8.61,3.47a13.4,13.4,0,0,1,3.06,9.2c0,.28,0,.73,0,1.35s0,1.07,0,1.36h-17.85a8.44,8.44,0,0,0,2.07,5.83,7.11,7.11,0,0,0,5.4,2.06,16.91,16.91,0,0,0,8.45-2.29l.9,4.54A17.86,17.86,0,0,1,1600.36,825.43Zm-7.11-16.65H1605a7.53,7.53,0,0,0-1.49-5,5.1,5.1,0,0,0-4.12-1.76,5.62,5.62,0,0,0-4.16,1.71A7.75,7.75,0,0,0,1593.25,808.78Z"/><path class="cls-2" d="M1626.19,825.43a9.88,9.88,0,0,1-8.25-3.86q-3-3.86-3-10.3,0-6.25,3-10a9.92,9.92,0,0,1,8.24-3.8q5.71,0,8.09,4.06a43.72,43.72,0,0,1-.25-4.62V788.2l6.4-.42v37.13h-5.54l-.71-3.66c-.28.44-.54.82-.77,1.14a8.29,8.29,0,0,1-1,1.1,6.54,6.54,0,0,1-1.48,1,10.16,10.16,0,0,1-2,.66A12.16,12.16,0,0,1,1626.19,825.43Zm1.51-4.86q6.45,0,6.55-8.77,0-4.95-1.67-7.22a5.7,5.7,0,0,0-4.95-2.27,5.46,5.46,0,0,0-4.6,2.3q-1.72,2.31-1.72,6.8t1.72,6.81A5.46,5.46,0,0,0,1627.7,820.57Z"/><path class="cls-2" d="M952.82,885.28a13.74,13.74,0,0,1-4.55-.65,5.83,5.83,0,0,1-2.84-2,8.62,8.62,0,0,1-1.46-3.28,22,22,0,0,1-.42-4.67V862h-4.4l.25-3.46,4.59-.42,2-7.27,3.9,0v7.3h6.67V862h-6.67v12.8a8.07,8.07,0,0,0,.88,4.34,3.65,3.65,0,0,0,3.25,1.3,18.81,18.81,0,0,0,3-.25l.17,4.59-.6.11-1,.2c-.33.06-.76.11-1.28.16S953.28,885.28,952.82,885.28Z"/><path class="cls-2" d="M961.71,884.91V848.2l6.4-.42v7.74c0,.37,0,1.41-.08,3.11s-.07,2.57-.07,2.6a10.64,10.64,0,0,1,8.59-3.81,9.2,9.2,0,0,1,7,2.58c1.66,1.72,2.48,4.36,2.48,7.92v17h-6.39V868.63a8.69,8.69,0,0,0-1.05-4.83,4,4,0,0,0-3.57-1.54,6.85,6.85,0,0,0-3.81,1.08,7,7,0,0,0-2.49,2.8,24,24,0,0,0-.58,5.86v12.91Z"/><path class="cls-2" d="M992.33,884.91V858.08h5.37l.83,4.1a8.48,8.48,0,0,1,7.64-4.22,11.37,11.37,0,0,1,1.71.1l-.1,5.35a13.37,13.37,0,0,0-2-.15,6.87,6.87,0,0,0-5.28,1.88,7.34,7.34,0,0,0-1.75,5.22v14.55Z"/><path class="cls-2" d="M1023.06,885.43a11.88,11.88,0,0,1-9.37-3.86q-3.42-3.86-3.42-10.16,0-6.49,3.42-10.24t9.64-3.75q6,0,9.41,3.82t3.41,10.17q0,6.42-3.44,10.22T1023.06,885.43Zm.17-4.86a5.55,5.55,0,0,0,4.89-2.37q1.64-2.37,1.63-6.79t-1.63-6.81a6.32,6.32,0,0,0-9.83,0q-1.65,2.35-1.65,6.83a11.74,11.74,0,0,0,1.66,6.76A5.63,5.63,0,0,0,1023.23,880.57Z"/><path class="cls-2" d="M1060.73,882.8a14.8,14.8,0,0,1-16.83,0c-2.12-1.74-3.19-4.29-3.19-7.66V858.08h6.43V874.9c0,2,.41,3.46,1.25,4.35a5.23,5.23,0,0,0,4,1.34,5.1,5.1,0,0,0,3.92-1.33,6.31,6.31,0,0,0,1.24-4.36V858.08h6.39v17.07C1063.93,878.5,1062.87,881.05,1060.73,882.8Z"/><path class="cls-2" d="M1075.14,896.93l-.37-5.18H1078q5.64,0,7.89-1.5t2.24-5.51q0-1.63-.15-3.54a12.34,12.34,0,0,1-1.2,1.46,9.38,9.38,0,0,1-1.44,1.13,6.21,6.21,0,0,1-2.08.84,12,12,0,0,1-2.75.28,11.22,11.22,0,0,1-8.75-3.83,14.29,14.29,0,0,1-3.43-9.89,17.37,17.37,0,0,1,1-5.87,12.29,12.29,0,0,1,2.59-4.36,11.4,11.4,0,0,1,8.33-3.54q5.38,0,8,3.93l.44-3.27h5.71V883a30.13,30.13,0,0,1-.19,3.6,15.66,15.66,0,0,1-.69,3.08,8.91,8.91,0,0,1-3.27,4.57,10.18,10.18,0,0,1-2.82,1.48,19.58,19.58,0,0,1-3.77.88,35,35,0,0,1-4.83.31Zm6.42-16.48q6.62,0,6.69-8.87v-.92a10.42,10.42,0,0,0-1.66-6.16,5.57,5.57,0,0,0-4.71-2.19,6.26,6.26,0,0,0-5.33,2.4,10.58,10.58,0,0,0-1.8,6.48,11.4,11.4,0,0,0,1.82,6.6A5.73,5.73,0,0,0,1081.56,880.45Z"/><path class="cls-2" d="M1100.7,884.91V848.2l6.4-.42v7.74c0,.37,0,1.41-.08,3.11s-.07,2.57-.07,2.6a10.64,10.64,0,0,1,8.59-3.81,9.2,9.2,0,0,1,7,2.58c1.66,1.72,2.48,4.36,2.48,7.92v17h-6.39V868.63a8.69,8.69,0,0,0-1-4.83,4,4,0,0,0-3.57-1.54,6.85,6.85,0,0,0-3.81,1.08,7,7,0,0,0-2.49,2.8,24,24,0,0,0-.58,5.86v12.91Z"/><path class="cls-2" d="M1151.58,885.43a8.69,8.69,0,0,1-6-2.07,7.53,7.53,0,0,1-2.31-5.94c0-2.78.91-4.85,2.73-6.19s4.58-2.19,8.26-2.55l1.63-.2c.59-.06,1.25-.13,2-.19l1.73-.17V866.7a4.81,4.81,0,0,0-1.12-3.55A4.69,4.69,0,0,0,1155,862a23.64,23.64,0,0,0-8.08,1.83s-.28-.79-.81-2.22l-.8-2.2a25.79,25.79,0,0,1,10.25-2c3.62,0,6.24.79,7.89,2.36s2.46,4.11,2.46,7.63v17.5h-4.73l-.54-1.63c-.34-1-.51-1.57-.51-1.64a14.89,14.89,0,0,1-3.92,2.87A10.74,10.74,0,0,1,1151.58,885.43Zm1.73-4.54a7,7,0,0,0,3.87-1.07,6.14,6.14,0,0,0,2.36-2.57v-5.18l-1.28.1-1.31.1a13.43,13.43,0,0,0-5.69,1.46,4,4,0,0,0-1.8,3.62,3.36,3.36,0,0,0,1,2.62A4.07,4.07,0,0,0,1153.31,880.89Z"/><path class="cls-2" d="M1172.38,884.91V858.08h5.15l.71,3.4a12.71,12.71,0,0,1,9.11-4.06q4.68,0,7,2.7t2.33,7.83v17h-6.42V868.73a9.38,9.38,0,0,0-1-4.86c-.69-1.08-1.92-1.61-3.69-1.61a7.1,7.1,0,0,0-3.8,1.06,6.51,6.51,0,0,0-2.5,2.67,27,27,0,0,0-.46,5.86v13.06Z"/><path class="cls-2" d="M1223.28,885.43a8.7,8.7,0,0,1-6-2.07,7.53,7.53,0,0,1-2.31-5.94c0-2.78.91-4.85,2.74-6.19s4.57-2.19,8.25-2.55l1.64-.2c.58-.06,1.24-.13,2-.19l1.74-.17V866.7a4.82,4.82,0,0,0-1.13-3.55,4.68,4.68,0,0,0-3.41-1.11,23.64,23.64,0,0,0-8.09,1.83s-.28-.79-.8-2.22-.79-2.17-.81-2.2a25.84,25.84,0,0,1,10.26-2q5.42,0,7.88,2.36t2.47,7.63v17.5h-4.74c0-.06-.19-.61-.53-1.63s-.52-1.57-.52-1.64a14.73,14.73,0,0,1-3.92,2.87A10.68,10.68,0,0,1,1223.28,885.43Zm1.74-4.54a7,7,0,0,0,3.87-1.07,6.11,6.11,0,0,0,2.35-2.57v-5.18l-1.28.1-1.31.1a13.38,13.38,0,0,0-5.68,1.46,3.94,3.94,0,0,0-1.81,3.62,3.36,3.36,0,0,0,1,2.62A4.1,4.1,0,0,0,1225,880.89Z"/><path class="cls-2" d="M1253.48,885.28a13.79,13.79,0,0,1-4.57-.65,5.93,5.93,0,0,1-2.87-2.06,8.61,8.61,0,0,1-1.47-3.37,23.68,23.68,0,0,1-.41-4.86V848.2l6.39-.42v26.44c0,2.41.29,4,.86,4.9s1.67,1.28,3.32,1.28a22.62,22.62,0,0,0,3.1-.27l.17,4.56-.6.13c-.38.08-.75.15-1.1.2s-.79.12-1.33.18S1253.94,885.28,1253.48,885.28Z"/><path class="cls-2" d="M1266.42,896.93l-.36-5.18h3.24q5.64,0,7.89-1.5t2.25-5.51q0-1.63-.15-3.54a12.33,12.33,0,0,1-1.21,1.46,8.5,8.5,0,0,1-1.44,1.13,6.21,6.21,0,0,1-2.08.84,12,12,0,0,1-2.74.28,11.19,11.19,0,0,1-8.75-3.83,14.24,14.24,0,0,1-3.43-9.89,17.13,17.13,0,0,1,.95-5.87,12,12,0,0,1,2.59-4.36,11.4,11.4,0,0,1,8.32-3.54q5.4,0,8,3.93l.44-3.27h5.72V883a30,30,0,0,1-.2,3.6,16.39,16.39,0,0,1-.68,3.08,9.8,9.8,0,0,1-1.28,2.57,9.42,9.42,0,0,1-2,2,10.1,10.1,0,0,1-2.83,1.48,19.41,19.41,0,0,1-3.77.88,35,35,0,0,1-4.83.31Zm6.42-16.48q6.62,0,6.69-8.87v-.92a10.35,10.35,0,0,0-1.66-6.16,5.55,5.55,0,0,0-4.71-2.19,6.24,6.24,0,0,0-5.32,2.4,10.51,10.51,0,0,0-1.81,6.48,11.47,11.47,0,0,0,1.82,6.6A5.74,5.74,0,0,0,1272.84,880.45Z"/><path class="cls-2" d="M1303.51,885.43a11.9,11.9,0,0,1-9.38-3.86q-3.42-3.86-3.42-10.16,0-6.49,3.42-10.24t9.65-3.75q6,0,9.41,3.82t3.4,10.17q0,6.42-3.44,10.22T1303.51,885.43Zm.17-4.86a5.54,5.54,0,0,0,4.88-2.37,11.88,11.88,0,0,0,1.64-6.79q0-4.47-1.64-6.81a6.31,6.31,0,0,0-9.82,0q-1.65,2.35-1.65,6.83a11.66,11.66,0,0,0,1.66,6.76A5.62,5.62,0,0,0,1303.68,880.57Z"/><path class="cls-2" d="M1321.84,884.91V858.08h5.37l.83,4.1a8.5,8.5,0,0,1,7.65-4.22,11.23,11.23,0,0,1,1.7.1l-.09,5.35a13.37,13.37,0,0,0-2-.15,6.87,6.87,0,0,0-5.28,1.88,7.34,7.34,0,0,0-1.75,5.22v14.55Z"/><path class="cls-2" d="M1341.45,854.18v-5.47h6.42v5.47Zm0,30.73V858.08h6.39v26.83Z"/><path class="cls-2" d="M1365.23,885.28a13.81,13.81,0,0,1-4.56-.65,5.83,5.83,0,0,1-2.84-2,8.6,8.6,0,0,1-1.45-3.28,21.28,21.28,0,0,1-.43-4.67V862h-4.4l.25-3.46,4.59-.42,2-7.27,3.91,0v7.3H1369V862h-6.66v12.8a8.09,8.09,0,0,0,.87,4.34,3.65,3.65,0,0,0,3.25,1.3,18.81,18.81,0,0,0,3-.25l.17,4.59-.6.11c-.36.08-.71.14-1,.2s-.76.11-1.28.16S1365.68,885.28,1365.23,885.28Z"/><path class="cls-2" d="M1374.11,884.91V848.2l6.4-.42v7.74c0,.37,0,1.41-.07,3.11s-.08,2.57-.08,2.6a10.66,10.66,0,0,1,8.6-3.81,9.21,9.21,0,0,1,7,2.58q2.47,2.58,2.48,7.92v17H1392V868.63a8.69,8.69,0,0,0-1-4.83,4,4,0,0,0-3.57-1.54,6.79,6.79,0,0,0-3.8,1.08,6.9,6.9,0,0,0-2.49,2.8,23.93,23.93,0,0,0-.59,5.86v12.91Z"/><path class="cls-2" d="M1404.7,884.91V858.08h5.18l.73,3.42c.33-.41.64-.77.94-1.09a11,11,0,0,1,1.25-1.07,8.42,8.42,0,0,1,1.68-1,11.37,11.37,0,0,1,2.2-.66,13.76,13.76,0,0,1,2.79-.27,9,9,0,0,1,5.12,1.3,7.28,7.28,0,0,1,2.7,3,9.56,9.56,0,0,1,3.73-3.2,11.43,11.43,0,0,1,5.1-1.13q4.62,0,6.78,2.62t2.16,7.74v17.13h-6.42V869.68a13.61,13.61,0,0,0-.87-5.68,3.34,3.34,0,0,0-3.31-1.74,5.55,5.55,0,0,0-5.37,3.37,12,12,0,0,0-.92,3.59v15.69h-6.4V869.39a11.67,11.67,0,0,0-1-5.35,3.57,3.57,0,0,0-3.44-1.76,5.91,5.91,0,0,0-3.5,1,6.6,6.6,0,0,0-2.22,2.68,27.32,27.32,0,0,0-.56,5.91v13Z"/><path class="cls-2" d="M1471.65,885.43a8.69,8.69,0,0,1-6-2.07,7.53,7.53,0,0,1-2.31-5.94c0-2.78.91-4.85,2.73-6.19s4.58-2.19,8.25-2.55l1.64-.2c.59-.06,1.25-.13,2-.19l1.73-.17V866.7a4.81,4.81,0,0,0-1.12-3.55,4.69,4.69,0,0,0-3.42-1.11,23.59,23.59,0,0,0-8.08,1.83l-.81-2.22-.8-2.2a25.76,25.76,0,0,1,10.25-2q5.41,0,7.89,2.36t2.46,7.63v17.5h-4.73l-.54-1.63c-.34-1-.51-1.57-.51-1.64a14.89,14.89,0,0,1-3.92,2.87A10.74,10.74,0,0,1,1471.65,885.43Zm1.73-4.54a7,7,0,0,0,3.87-1.07,6.21,6.21,0,0,0,2.36-2.57v-5.18l-1.29.1-1.3.1a13.39,13.39,0,0,0-5.69,1.46,3.94,3.94,0,0,0-1.81,3.62,3.39,3.39,0,0,0,1,2.62A4.1,4.1,0,0,0,1473.38,880.89Z"/><path class="cls-2" d="M1492.45,884.91V858.08h5.15l.71,3.4a12.7,12.7,0,0,1,9.1-4.06q4.69,0,7,2.7c1.56,1.8,2.33,4.41,2.33,7.83v17h-6.42V868.73a9.18,9.18,0,0,0-1-4.86c-.68-1.08-1.91-1.61-3.68-1.61a7.07,7.07,0,0,0-3.8,1.06,6.44,6.44,0,0,0-2.5,2.67,26.87,26.87,0,0,0-.47,5.86v13.06Z"/><path class="cls-2" d="M1533.05,885.43a9.88,9.88,0,0,1-8.25-3.86q-3-3.86-3-10.3,0-6.25,3-10a9.89,9.89,0,0,1,8.23-3.8q5.71,0,8.09,4.06a43.72,43.72,0,0,1-.25-4.62V848.2l6.4-.42v37.13h-5.54l-.71-3.66c-.28.44-.54.82-.77,1.14a8.29,8.29,0,0,1-1,1.1,6.32,6.32,0,0,1-1.48,1,9.94,9.94,0,0,1-2,.66A12.16,12.16,0,0,1,1533.05,885.43Zm1.51-4.86q6.45,0,6.55-8.77c0-3.3-.56-5.71-1.66-7.22a5.74,5.74,0,0,0-5-2.27,5.47,5.47,0,0,0-4.6,2.3q-1.73,2.31-1.72,6.8t1.72,6.81A5.48,5.48,0,0,0,1534.56,880.57Z"/><path class="cls-2" d="M1574.09,885.43a8.69,8.69,0,0,1-6-2.07,7.53,7.53,0,0,1-2.31-5.94c0-2.78.91-4.85,2.73-6.19s4.58-2.19,8.26-2.55l1.63-.2c.59-.06,1.25-.13,2-.19l1.73-.17V866.7a4.81,4.81,0,0,0-1.12-3.55,4.69,4.69,0,0,0-3.42-1.11,23.64,23.64,0,0,0-8.08,1.83s-.28-.79-.81-2.22l-.8-2.2a25.79,25.79,0,0,1,10.25-2c3.62,0,6.24.79,7.89,2.36s2.46,4.11,2.46,7.63v17.5h-4.73l-.54-1.63c-.34-1-.51-1.57-.51-1.64a14.89,14.89,0,0,1-3.92,2.87A10.74,10.74,0,0,1,1574.09,885.43Zm1.73-4.54a7,7,0,0,0,3.87-1.07,6.14,6.14,0,0,0,2.36-2.57v-5.18l-1.28.1-1.31.1a13.43,13.43,0,0,0-5.69,1.46,4,4,0,0,0-1.81,3.62,3.36,3.36,0,0,0,1,2.62A4.05,4.05,0,0,0,1575.82,880.89Z"/><path class="cls-2" d="M1616.94,849.12l-2.45,12h-5.34l3.9-12Zm7.32,0-2.64,12h-5.12l3.61-12Z"/><path class="cls-2" d="M1642,885.4a22.64,22.64,0,0,1-11.6-3l1.61-5.25a24,24,0,0,0,5,2.06,18.84,18.84,0,0,0,5.26.78,7.26,7.26,0,0,0,4.76-1.36,4.81,4.81,0,0,0,1.61-3.89c0-2.25-1.5-3.8-4.49-4.67l-1.78-.52c-1-.28-1.9-.56-2.75-.83s-1.47-.48-1.84-.62c-4.81-1.7-7.21-4.85-7.21-9.48a8.86,8.86,0,0,1,3.46-7.49q3.45-2.64,9.17-2.64a22.25,22.25,0,0,1,11.15,2.66l-2,4.84a21.87,21.87,0,0,0-8.89-2.15,7.84,7.84,0,0,0-4.45,1,4.09,4.09,0,0,0-1.6,3.45,3.74,3.74,0,0,0,2.95,3.88q.59.22,2.88,1l3,.95c3.27,1.07,5.61,2.41,7,4a9.74,9.74,0,0,1,2.11,6.67,9.28,9.28,0,0,1-3.61,7.85Q1648.13,885.41,1642,885.4Z"/><path class="cls-2" d="M1667.47,885.43a8.7,8.7,0,0,1-6-2.07,7.53,7.53,0,0,1-2.31-5.94c0-2.78.91-4.85,2.74-6.19s4.57-2.19,8.25-2.55l1.64-.2c.58-.06,1.24-.13,2-.19l1.74-.17V866.7a4.82,4.82,0,0,0-1.13-3.55,4.68,4.68,0,0,0-3.41-1.11,23.64,23.64,0,0,0-8.09,1.83s-.28-.79-.8-2.22-.79-2.17-.81-2.2a25.84,25.84,0,0,1,10.26-2q5.41,0,7.88,2.36t2.47,7.63v17.5h-4.74c0-.06-.19-.61-.54-1.63s-.51-1.57-.51-1.64a14.73,14.73,0,0,1-3.92,2.87A10.71,10.71,0,0,1,1667.47,885.43Zm1.74-4.54a7,7,0,0,0,3.87-1.07,6.18,6.18,0,0,0,2.35-2.57v-5.18l-1.28.1-1.31.1a13.38,13.38,0,0,0-5.68,1.46,3.94,3.94,0,0,0-1.81,3.62,3.36,3.36,0,0,0,1,2.62A4.1,4.1,0,0,0,1669.21,880.89Z"/><path class="cls-2" d="M1697.67,885.28a13.89,13.89,0,0,1-4.58-.65,6,6,0,0,1-2.86-2.06,8.61,8.61,0,0,1-1.47-3.37,23.68,23.68,0,0,1-.41-4.86V848.2l6.39-.42v26.44c0,2.41.29,4,.86,4.9s1.67,1.28,3.32,1.28a22.75,22.75,0,0,0,3.1-.27l.17,4.56-.6.13c-.38.08-.75.15-1.1.2s-.79.12-1.33.18S1698.13,885.28,1697.67,885.28Z"/><path class="cls-2" d="M1716.08,885.28a13.74,13.74,0,0,1-4.55-.65,5.9,5.9,0,0,1-2.85-2,8.76,8.76,0,0,1-1.45-3.28,21.91,21.91,0,0,1-.43-4.67V862h-4.39l.24-3.46,4.59-.42,2-7.27,3.91,0v7.3h6.67V862h-6.67v12.8a8,8,0,0,0,.88,4.34,3.65,3.65,0,0,0,3.25,1.3,18.69,18.69,0,0,0,3-.25l.18,4.59-.6.11-1.05.2c-.34.06-.76.11-1.28.16S1716.54,885.28,1716.08,885.28Z"/><path class="cls-2" d="M1726,861.16l2.63-12h5.13l-3.61,12Zm7.32,0,2.44-12h5.35l-3.91,12Z"/><path class="cls-2" d="M1751,885.35a3.64,3.64,0,0,1-2.69-1.1,3.57,3.57,0,0,1-1.1-2.61,3.73,3.73,0,0,1,1.09-2.66,3.6,3.6,0,0,1,2.7-1.12,3.51,3.51,0,0,1,2.64,1.12,3.75,3.75,0,0,1,1.07,2.66,3.62,3.62,0,0,1-1.07,2.61A3.53,3.53,0,0,1,1751,885.35Z"/><path class="cls-2" d="M934,943.1l3-8.4h2.58l-2,8.4Zm6.8,0,3-8.4h2.6l-2,8.4Z"/><path class="cls-2" d="M963,963.05a6.31,6.31,0,0,1-3.31-.86,5.87,5.87,0,0,1-2.19-2.21v10l-3.2.36v-27h3.2V946a6.69,6.69,0,0,1,2.25-2.33,5.76,5.76,0,0,1,3.18-.9,7,7,0,0,1,6.77,3.94,13,13,0,0,1,1.26,5.94q0,5.5-2.65,8.37A6.88,6.88,0,0,1,963,963.05Zm-5.54-10.19q0,7.73,5.42,7.73,4.86,0,4.87-7.73,0-4.29-1.31-6a4.34,4.34,0,0,0-3.62-1.68c-3,0-4.73,1.74-5.2,5.2A16.61,16.61,0,0,0,957.42,952.86Z"/><path class="cls-2" d="M984.83,942.75c1.3,0,2.31.94,3,2.81l.37-2.23h2s-.18,1.14-.51,3.43a46.46,46.46,0,0,0-.49,6.66,3.75,3.75,0,0,0,.37,1.62c.26.52.59.79,1,.79.57,0,1.06-.62,1.47-1.87a20.55,20.55,0,0,0,1.06-6.54,15,15,0,0,0-.84-5.46,7.52,7.52,0,0,0-2.53-3.38,6.49,6.49,0,0,0-4-1.28,7.7,7.7,0,0,0-4.14,1.13,8.57,8.57,0,0,0-2.95,3.11,19.66,19.66,0,0,0-2.23,9.81q0,6.76,4,9.73a7.79,7.79,0,0,0,4.8,1.52,11.12,11.12,0,0,0,7.44-3l.84,1a11.87,11.87,0,0,1-8.47,3.6,10.1,10.1,0,0,1-4-.77,9.9,9.9,0,0,1-5-5,15.13,15.13,0,0,1-1.57-6.78,22.63,22.63,0,0,1,.86-6.45,16.16,16.16,0,0,1,2.34-4.88,11.24,11.24,0,0,1,3.51-3.14A8.34,8.34,0,0,1,985.3,936a10.7,10.7,0,0,1,3.66.57,7.79,7.79,0,0,1,2.64,1.54,8.73,8.73,0,0,1,1.81,2.34,11,11,0,0,1,1.07,2.91,15.92,15.92,0,0,1,.33,3.3,27.39,27.39,0,0,1-.23,3.49,23.3,23.3,0,0,1-.7,3.42,7.14,7.14,0,0,1-1.36,2.7,2.75,2.75,0,0,1-2.14,1,2.36,2.36,0,0,1-2-1,5,5,0,0,1-.88-2.54,5.48,5.48,0,0,1-1.68,2.8,3.58,3.58,0,0,1-2.19.86,3.14,3.14,0,0,1-3.07-1.85,9.57,9.57,0,0,1-.89-4.16,13.22,13.22,0,0,1,.64-4.23,8.26,8.26,0,0,1,1.82-3.17A3.65,3.65,0,0,1,984.83,942.75Zm2.12,3.37a2,2,0,0,0-2-1.59c-1.21,0-2.12,1.1-2.76,3.3a13.91,13.91,0,0,0-.51,3.88q0,4,2.38,4c1.09,0,2-1,2.68-2.83a9.77,9.77,0,0,0,.57-3.46A11.5,11.5,0,0,0,987,946.12Z"/><path class="cls-2" d="M1011.47,953.61a5.79,5.79,0,0,1,1.15,3.86,4.9,4.9,0,0,1-1.93,4,7.5,7.5,0,0,1-4.82,1.53,15.41,15.41,0,0,1-4-.52,8.38,8.38,0,0,1-2.88-1.22l.79-2.3a10.15,10.15,0,0,0,2.34.92,12.34,12.34,0,0,0,3.47.47,5.14,5.14,0,0,0,3-.78,2.45,2.45,0,0,0,1.11-2.09,3.34,3.34,0,0,0-.55-2,3.67,3.67,0,0,0-2.14-1.14l-3.26-.79c-1.89-.47-3.15-1.15-3.77-2a5.73,5.73,0,0,1-.93-3.35,5.22,5.22,0,0,1,1.63-3.69,6.38,6.38,0,0,1,4.74-1.72h.22a12.44,12.44,0,0,1,6,1.32l-.7,2.25a13.15,13.15,0,0,0-5.2-1.09,4.3,4.3,0,0,0-2.68.82,2.42,2.42,0,0,0-1.05,2,2.73,2.73,0,0,0,.53,1.82,3.91,3.91,0,0,0,2,1l3.36.82A6.87,6.87,0,0,1,1011.47,953.61Z"/><path class="cls-2" d="M1033.07,953.61a5.74,5.74,0,0,1,1.15,3.86,4.92,4.92,0,0,1-1.92,4,7.55,7.55,0,0,1-4.83,1.53,15.39,15.39,0,0,1-4-.52,8.36,8.36,0,0,1-2.89-1.22l.79-2.3a10.35,10.35,0,0,0,2.34.92,12.44,12.44,0,0,0,3.47.47,5.12,5.12,0,0,0,3-.78,2.43,2.43,0,0,0,1.12-2.09,3.34,3.34,0,0,0-.56-2,3.67,3.67,0,0,0-2.13-1.14l-3.27-.79c-1.89-.47-3.14-1.15-3.76-2a5.73,5.73,0,0,1-.93-3.35,5.25,5.25,0,0,1,1.62-3.69,6.4,6.4,0,0,1,4.74-1.72h.23a12.47,12.47,0,0,1,6,1.32l-.71,2.25a13.12,13.12,0,0,0-5.2-1.09,4.32,4.32,0,0,0-2.68.82,2.42,2.42,0,0,0-1,2,2.73,2.73,0,0,0,.53,1.82,3.91,3.91,0,0,0,2,1l3.36.82A6.83,6.83,0,0,1,1033.07,953.61Z"/><path class="cls-2" d="M1045.33,962.61h-3.27l-3.76-19.28h3.22l2.3,14.89,3.22-14.89h3.81l3.15,14.84,2-14.84h3l-3.53,19.28h-3.38l-3.21-16.75Z"/><path class="cls-2" d="M1074.12,962a7.29,7.29,0,0,1-7.7,0,8.2,8.2,0,0,1-2.72-3,19.81,19.81,0,0,1-2.06-9.48q0-7,2.76-10.67a7.11,7.11,0,0,1,2.47-2.07,7.82,7.82,0,0,1,6.81,0,8.35,8.35,0,0,1,4,4.89,23.56,23.56,0,0,1,1.23,7.85,19.82,19.82,0,0,1-2.05,9.48A8.13,8.13,0,0,1,1074.12,962Zm-1.47-22.36a3.63,3.63,0,0,0-2.54-.94,3.46,3.46,0,0,0-2.7,1.46q-2.33,2.86-2.32,9.39a19.38,19.38,0,0,0,1.26,7.61Zm1.61,2.46L1068,959.52a3.68,3.68,0,0,0,2.44.81,3.45,3.45,0,0,0,2.66-1.46q2.33-2.83,2.32-9.37A19.75,19.75,0,0,0,1074.26,942.05Z"/><path class="cls-2" d="M1090.63,962.61h-3.2V943.33h2.62l.26,3.57a8.1,8.1,0,0,1,3.1-3.1,8.85,8.85,0,0,1,4.34-1h1.54v3h-2a7.22,7.22,0,0,0-4.87,1.54,5.78,5.78,0,0,0-1.79,4.63Z"/><path class="cls-2" d="M1118.12,946V935.46l3.2-.36v27.51h-3.2v-3a6.06,6.06,0,0,1-5.52,3.43,6.5,6.5,0,0,1-5.93-2.92,13.36,13.36,0,0,1-1.86-7.33c0-3.53.91-6.23,2.71-8.08a6.78,6.78,0,0,1,5.1-2,6.32,6.32,0,0,1,3.54.9A5,5,0,0,1,1118.12,946Zm0,6.88q0-4.5-1.33-6.08a4.75,4.75,0,0,0-3.8-1.57,4.23,4.23,0,0,0-4.41,3.38A15.56,15.56,0,0,0,1108,953q0,7.56,5,7.56Q1118.12,960.59,1118.12,952.86Z"/><path class="cls-2" d="M1134,934.7l-3,8.4h-2.58l2-8.4Zm6.38,0-3,8.4h-2.58l2.06-8.4Z"/><path class="cls-2" d="M1283.53,950.85a7.73,7.73,0,0,1-9.21-1.1,7.87,7.87,0,0,1-2-5.63,8.19,8.19,0,0,1,1.18-4.43,7.56,7.56,0,0,1,3-2.82,9,9,0,0,1,4.06-.92,8.53,8.53,0,0,1,6.31,2.27,8.63,8.63,0,0,1,2.27,6.36,12.54,12.54,0,0,1-2.88,7.79l-7.91,10.24h-4.26Zm-2.94-1.42a4.71,4.71,0,0,0,3.72-1.54,5.67,5.67,0,0,0,1.36-3.92,5.39,5.39,0,0,0-1.37-3.85,5.15,5.15,0,0,0-7.26,0,5.57,5.57,0,0,0-1.38,3.88,5.76,5.76,0,0,0,1.28,3.87A4.51,4.51,0,0,0,1280.59,949.43Z"/><path class="cls-2" d="M1293.79,940a28.77,28.77,0,0,0,5.91-3.6h3.3v23.66h5.52v2.56h-14.71v-2.56h5.91V939.94c-.33.18-1.15.67-2.47,1.47a22.2,22.2,0,0,1-3.46,1.76Z"/><path class="cls-2" d="M1317.52,961.71a8.11,8.11,0,0,1-3-3.62,12.94,12.94,0,0,1-1-5.14,13.94,13.94,0,0,1,.9-5.15,8.62,8.62,0,0,1,2.71-3.67,6.32,6.32,0,0,1,4-1.4q4.08,0,6,2.8a11.9,11.9,0,0,1,1.9,6.87v1.07h-12.22a9.57,9.57,0,0,0,1.49,5,4.64,4.64,0,0,0,4.14,2.07,14.82,14.82,0,0,0,5.15-2l1,2.18a8.43,8.43,0,0,1-6.24,2.28A8.6,8.6,0,0,1,1317.52,961.71Zm8.42-10.58c-.23-3.94-1.62-5.92-4.15-5.92-2.86,0-4.49,2-4.9,5.92Z"/><path class="cls-2" d="M1342.9,962.61h-3.2V945.79h-5v-2.46h5a20.66,20.66,0,0,1,.28-4.48,5.71,5.71,0,0,1,1.44-2.62q1.71-1.49,6.21-1.48h1.86l-.18,2.46h-1.75a13.5,13.5,0,0,0-2.15.13,3.42,3.42,0,0,0-1.4.52c-.74.47-1.11,1.52-1.11,3.13v2.34h6.59v2.46h-6.59Z"/><path class="cls-2" d="M1355.9,940a28.77,28.77,0,0,0,5.91-3.6h3.3v23.66h5.52v2.56h-14.71v-2.56h5.91V939.94q-.49.27-2.46,1.47a22.7,22.7,0,0,1-3.47,1.76Z"/><path class="cls-2" d="M1387.05,950.85a7.73,7.73,0,0,1-9.21-1.1,7.87,7.87,0,0,1-2-5.63,8.2,8.2,0,0,1,1.19-4.43,7.56,7.56,0,0,1,3-2.82,9,9,0,0,1,4.06-.92,8.53,8.53,0,0,1,6.31,2.27,8.63,8.63,0,0,1,2.27,6.36,12.54,12.54,0,0,1-2.88,7.79l-7.91,10.24h-4.26Zm-3-1.42a4.71,4.71,0,0,0,3.73-1.54,5.67,5.67,0,0,0,1.36-3.92,5.39,5.39,0,0,0-1.37-3.85,5.15,5.15,0,0,0-7.26,0,5.57,5.57,0,0,0-1.39,3.88,5.76,5.76,0,0,0,1.29,3.87A4.5,4.5,0,0,0,1384.1,949.43Z"/><path class="cls-2" d="M1408.58,946V935.46l3.2-.36v27.51h-3.2v-3a6.06,6.06,0,0,1-5.52,3.43,6.51,6.51,0,0,1-5.94-2.92,13.44,13.44,0,0,1-1.85-7.33c0-3.53.9-6.23,2.71-8.08a6.75,6.75,0,0,1,5.1-2,6.32,6.32,0,0,1,3.54.9A5,5,0,0,1,1408.58,946Zm0,6.88q0-4.5-1.34-6.08a4.74,4.74,0,0,0-3.8-1.57,4.25,4.25,0,0,0-4.41,3.38,16,16,0,0,0-.54,4.44q0,7.56,5,7.56Q1408.58,960.59,1408.58,952.86Z"/><path class="cls-2" d="M1425.71,962.61h-3.2V945.79h-5v-2.46h5a21.36,21.36,0,0,1,.28-4.48,5.62,5.62,0,0,1,1.45-2.62q1.69-1.49,6.2-1.48h1.86l-.17,2.46h-1.76a13.36,13.36,0,0,0-2.14.13,3.46,3.46,0,0,0-1.41.52c-.74.47-1.11,1.52-1.11,3.13v2.34h6.59v2.46h-6.59Z"/><path class="cls-2" d="M1442.88,947.64a7,7,0,0,1,3.8-1,6.87,6.87,0,0,1,5.42,2.29,8.45,8.45,0,0,1,2,5.83,8.81,8.81,0,0,1-.69,3.52,7.54,7.54,0,0,1-1.86,2.65,8.79,8.79,0,0,1-6.11,2.18,7.86,7.86,0,0,1-6-2.35q-2.26-2.34-2.26-6.72a12.09,12.09,0,0,1,2.88-7.88l8-9.73h4.26Zm-2.14,7.22a5.7,5.7,0,0,0,1.38,3.95,4.66,4.66,0,0,0,3.63,1.54,4.57,4.57,0,0,0,3.63-1.59,5.79,5.79,0,0,0,1.38-4,6.26,6.26,0,0,0-1.29-4,4.41,4.41,0,0,0-3.64-1.62,4.56,4.56,0,0,0-3.72,1.64A6.15,6.15,0,0,0,1440.74,954.86Z"/><path class="cls-2" d="M1461.46,946a7.05,7.05,0,0,1,11.56-.42,12.8,12.8,0,0,1,1.82,7.07c0,3.71-.88,6.51-2.64,8.38a6.73,6.73,0,0,1-5.17,2,5.61,5.61,0,0,1-3.29-.8,10.82,10.82,0,0,1-2.28-2.27l0,2.63h-3.16V935.46l3.2-.36Zm.12,9.29a7.57,7.57,0,0,0,1.48,3.88,4.79,4.79,0,0,0,8-1.95,11.74,11.74,0,0,0,.58-3.7,27.57,27.57,0,0,0-.12-3,7.65,7.65,0,0,0-1.38-3.9,4.14,4.14,0,0,0-3.47-1.43,4.47,4.47,0,0,0-4.82,3.8,14.59,14.59,0,0,0-.37,3.38A27.31,27.31,0,0,0,1461.58,955.27Z"/><path class="cls-2" d="M1493.57,961.35a7.48,7.48,0,0,1-5.25,1.7,9.42,9.42,0,0,1-4-.83,8.27,8.27,0,0,1-2.93-2.24,10.9,10.9,0,0,1-2.41-7.12,11.39,11.39,0,0,1,1.1-5,9.13,9.13,0,0,1,3.24-3.71,9.34,9.34,0,0,1,5.29-1.42,6.79,6.79,0,0,1,4.89,1.67l-.81,2.14a8,8,0,0,0-4.57-1.35,5.14,5.14,0,0,0-4.23,2.18,8.82,8.82,0,0,0-1.68,5.55,8.68,8.68,0,0,0,1.68,5.51,5.21,5.21,0,0,0,4.29,2.14,7.82,7.82,0,0,0,4.6-1.4Z"/><path class="cls-2" d="M1511.27,950.85a7.73,7.73,0,0,1-9.21-1.1,7.87,7.87,0,0,1-2-5.63,8.2,8.2,0,0,1,1.19-4.43,7.56,7.56,0,0,1,3-2.82,9,9,0,0,1,4.06-.92,8.53,8.53,0,0,1,6.31,2.27,8.63,8.63,0,0,1,2.27,6.36,12.54,12.54,0,0,1-2.88,7.79l-7.91,10.24h-4.26Zm-3-1.42a4.71,4.71,0,0,0,3.73-1.54,5.67,5.67,0,0,0,1.36-3.92,5.39,5.39,0,0,0-1.37-3.85,5.15,5.15,0,0,0-7.26,0,5.57,5.57,0,0,0-1.39,3.88,5.76,5.76,0,0,0,1.29,3.87A4.5,4.5,0,0,0,1508.32,949.43Z"/><path class="cls-2" d="M1535,961.35a7.49,7.49,0,0,1-5.26,1.7,9.41,9.41,0,0,1-4-.83,8.31,8.31,0,0,1-2.94-2.24,11,11,0,0,1-2.4-7.12,11.38,11.38,0,0,1,1.09-5,9.23,9.23,0,0,1,3.25-3.71,9.34,9.34,0,0,1,5.29-1.42,6.79,6.79,0,0,1,4.89,1.67l-.81,2.14a8,8,0,0,0-4.57-1.35,5.14,5.14,0,0,0-4.23,2.18,8.82,8.82,0,0,0-1.68,5.55,8.68,8.68,0,0,0,1.68,5.51,5.21,5.21,0,0,0,4.29,2.14,7.82,7.82,0,0,0,4.6-1.4Z"/><path class="cls-2" d="M1556.88,955.48a7.34,7.34,0,0,1-2.09,5.57,9.23,9.23,0,0,1-11.45,0,7.34,7.34,0,0,1-2.09-5.57,6.09,6.09,0,0,1,.79-3.1,7.65,7.65,0,0,1,4.66-3.44q-4.92-1.73-4.92-6.4a6,6,0,0,1,2-4.82,8.7,8.7,0,0,1,10.49,0,6,6,0,0,1,2.06,4.82q0,4.68-4.92,6.4a8.76,8.76,0,0,1,3.84,2.31A5.81,5.81,0,0,1,1556.88,955.48ZM1545,956a4.6,4.6,0,0,0,1,3.21,3.84,3.84,0,0,0,3,1.15,3.9,3.9,0,0,0,3-1.15,4.6,4.6,0,0,0,1.05-3.21,4.19,4.19,0,1,0-8.1,0Zm4-8.72c2.62-.71,3.92-2.27,3.92-4.68a3.74,3.74,0,0,0-1.1-2.9,4.36,4.36,0,0,0-5.62,0,3.81,3.81,0,0,0-1.1,2.91C1545.17,945,1546.47,946.54,1549.07,947.25Z"/><path class="cls-2" d="M1577.58,955.48a7.33,7.33,0,0,1-2.08,5.57,9.23,9.23,0,0,1-11.45,0,7.3,7.3,0,0,1-2.1-5.57,6.09,6.09,0,0,1,.8-3.1,7.63,7.63,0,0,1,4.65-3.44q-4.92-1.73-4.92-6.4a6,6,0,0,1,2.06-4.82,8.68,8.68,0,0,1,10.48,0,6,6,0,0,1,2.07,4.82q0,4.68-4.92,6.4a8.76,8.76,0,0,1,3.84,2.31A5.81,5.81,0,0,1,1577.58,955.48Zm-11.85.49a4.6,4.6,0,0,0,1,3.21,4.49,4.49,0,0,0,6,0,4.55,4.55,0,0,0,1.06-3.21,4.2,4.2,0,1,0-8.11,0Zm4-8.72q3.92-1.07,3.92-4.68a3.78,3.78,0,0,0-1.1-2.9,4.38,4.38,0,0,0-5.63,0,3.81,3.81,0,0,0-1.1,2.91C1565.87,945,1567.17,946.54,1569.78,947.25Z"/><path class="cls-2" d="M1597.09,961.35a7.49,7.49,0,0,1-5.26,1.7,9.41,9.41,0,0,1-4-.83,8.4,8.4,0,0,1-2.94-2.24,11,11,0,0,1-2.4-7.12,11.25,11.25,0,0,1,1.1-5,9.13,9.13,0,0,1,3.24-3.71,9.34,9.34,0,0,1,5.29-1.42,6.79,6.79,0,0,1,4.89,1.67l-.81,2.14a8,8,0,0,0-4.57-1.35,5.14,5.14,0,0,0-4.23,2.18,8.82,8.82,0,0,0-1.68,5.55,8.68,8.68,0,0,0,1.68,5.51,5.21,5.21,0,0,0,4.29,2.14,7.82,7.82,0,0,0,4.6-1.4Z"/><path class="cls-2" d="M1615,950a3.84,3.84,0,0,0-6.48.31h-3.69V936.39h12.71V939h-9.41v8.19a6.19,6.19,0,0,1,2.68-1.51,4.86,4.86,0,0,1,1.23-.17,7.6,7.6,0,0,1,3.34.71,6.6,6.6,0,0,1,2.42,1.92,9,9,0,0,1,1.9,5.58,10.58,10.58,0,0,1-1.41,5.49,7.59,7.59,0,0,1-4,3.35,10.3,10.3,0,0,1-3.51.51,12.61,12.61,0,0,1-7.67-2.53l1.3-2.71a10.36,10.36,0,0,0,6.56,2.55,4.44,4.44,0,0,0,2.83-1A7.35,7.35,0,0,0,1615,950Z"/><path class="cls-2" d="M1636.32,946V935.46l3.2-.36v27.51h-3.2v-3a6.06,6.06,0,0,1-5.52,3.43,6.51,6.51,0,0,1-5.94-2.92,13.44,13.44,0,0,1-1.85-7.33c0-3.53.9-6.23,2.71-8.08a6.74,6.74,0,0,1,5.09-2,6.33,6.33,0,0,1,3.55.9A5.09,5.09,0,0,1,1636.32,946Zm0,6.88q0-4.5-1.34-6.08a4.74,4.74,0,0,0-3.8-1.57,4.25,4.25,0,0,0-4.41,3.38,16,16,0,0,0-.54,4.44q0,7.56,5,7.56Q1636.32,960.59,1636.32,952.86Z"/><path class="cls-2" d="M1656.19,950.85a7,7,0,0,1-3.79,1,7.06,7.06,0,0,1-5.42-2.14,7.91,7.91,0,0,1-2-5.63,8.11,8.11,0,0,1,1.19-4.43,7.54,7.54,0,0,1,3-2.82,9,9,0,0,1,4.07-.92,7.86,7.86,0,0,1,8.57,8.63,12.54,12.54,0,0,1-2.88,7.79l-7.91,10.24h-4.25Zm-2.94-1.42a4.71,4.71,0,0,0,3.73-1.54,5.72,5.72,0,0,0,1.36-3.92,5.43,5.43,0,0,0-1.37-3.85,5.15,5.15,0,0,0-7.26,0,5.53,5.53,0,0,0-1.39,3.88,5.81,5.81,0,0,0,1.28,3.87A4.52,4.52,0,0,0,1653.25,949.43Z"/><path class="cls-2" d="M1676.9,950.85a7.73,7.73,0,0,1-9.21-1.1,7.87,7.87,0,0,1-2-5.63,8.2,8.2,0,0,1,1.19-4.43,7.56,7.56,0,0,1,3.05-2.82A8.93,8.93,0,0,1,1674,936a8.54,8.54,0,0,1,6.31,2.27,8.63,8.63,0,0,1,2.27,6.36,12.49,12.49,0,0,1-2.89,7.79l-7.91,10.24h-4.25Zm-3-1.42a4.71,4.71,0,0,0,3.73-1.54A5.67,5.67,0,0,0,1679,944a5.43,5.43,0,0,0-1.37-3.85,5.15,5.15,0,0,0-7.26,0,5.57,5.57,0,0,0-1.39,3.88,5.76,5.76,0,0,0,1.29,3.87A4.5,4.5,0,0,0,1674,949.43Z"/><path class="cls-2" d="M1700.61,961.35a7.51,7.51,0,0,1-5.26,1.7,9.37,9.37,0,0,1-4-.83,8.22,8.22,0,0,1-2.94-2.24,11,11,0,0,1-2.41-7.12,11.39,11.39,0,0,1,1.1-5,9.23,9.23,0,0,1,3.25-3.71,9.34,9.34,0,0,1,5.29-1.42,6.78,6.78,0,0,1,4.88,1.67l-.8,2.14a8.08,8.08,0,0,0-4.58-1.35,5.14,5.14,0,0,0-4.22,2.18,8.82,8.82,0,0,0-1.68,5.55,8.68,8.68,0,0,0,1.68,5.51,5.21,5.21,0,0,0,4.29,2.14,7.77,7.77,0,0,0,4.59-1.4Z"/><path class="cls-2" d="M1718.3,950.85a7,7,0,0,1-3.79,1,7.06,7.06,0,0,1-5.42-2.14,7.91,7.91,0,0,1-2-5.63,8.11,8.11,0,0,1,1.19-4.43,7.5,7.5,0,0,1,3-2.82,8.93,8.93,0,0,1,4.06-.92,7.86,7.86,0,0,1,8.57,8.63,12.54,12.54,0,0,1-2.88,7.79l-7.91,10.24h-4.25Zm-2.94-1.42a4.71,4.71,0,0,0,3.73-1.54,5.72,5.72,0,0,0,1.36-3.92,5.43,5.43,0,0,0-1.37-3.85,5.15,5.15,0,0,0-7.26,0,5.53,5.53,0,0,0-1.39,3.88,5.81,5.81,0,0,0,1.28,3.87A4.52,4.52,0,0,0,1715.36,949.43Z"/><path class="cls-2" d="M1739.21,950a3.84,3.84,0,0,0-6.48.31H1729V936.39h12.71V939h-9.4v8.19a6.22,6.22,0,0,1,2.67-1.51,4.86,4.86,0,0,1,1.23-.17,7.6,7.6,0,0,1,3.34.71,6.6,6.6,0,0,1,2.42,1.92,9,9,0,0,1,1.9,5.58,10.67,10.67,0,0,1-1.4,5.49,7.65,7.65,0,0,1-4,3.35,10.26,10.26,0,0,1-3.51.51,12.61,12.61,0,0,1-7.67-2.53l1.3-2.71a10.36,10.36,0,0,0,6.56,2.55,4.44,4.44,0,0,0,2.83-1,7.35,7.35,0,0,0,1.17-9.36Z"/><path class="cls-2" d="M1763.91,955.48a7.33,7.33,0,0,1-2.08,5.57,9.23,9.23,0,0,1-11.45,0,7.3,7.3,0,0,1-2.09-5.57,6.09,6.09,0,0,1,.79-3.1,7.65,7.65,0,0,1,4.65-3.44q-4.92-1.73-4.92-6.4a6,6,0,0,1,2.06-4.82,8.68,8.68,0,0,1,10.48,0,6,6,0,0,1,2.07,4.82q0,4.68-4.92,6.4a8.76,8.76,0,0,1,3.84,2.31A5.81,5.81,0,0,1,1763.91,955.48Zm-11.85.49a4.6,4.6,0,0,0,1,3.21,4.49,4.49,0,0,0,6,0,4.55,4.55,0,0,0,1.06-3.21,4.2,4.2,0,1,0-8.11,0Zm4-8.72q3.92-1.07,3.92-4.68a3.78,3.78,0,0,0-1.1-2.9,4.38,4.38,0,0,0-5.63,0,3.81,3.81,0,0,0-1.09,2.91C1752.21,945,1753.51,946.54,1756.11,947.25Z"/><path class="cls-2" d="M1781.58,962.61h-3.29v-7h-11.41V953.1l10.65-16.71h4v16.77h4.25v2.46h-4.25Zm-3.29-22.53-8.09,13.08h8.09Z"/><path class="cls-2" d="M1789,939.36v-3h15.56v2.55l-7.45,23.67h-4.08l7.35-23.25Z"/><path class="cls-2" d="M1821.82,950.85a7.73,7.73,0,0,1-9.21-1.1,7.87,7.87,0,0,1-2-5.63,8.19,8.19,0,0,1,1.18-4.43,7.56,7.56,0,0,1,3-2.82,9,9,0,0,1,4.06-.92,7.88,7.88,0,0,1,8.58,8.63,12.54,12.54,0,0,1-2.88,7.79l-7.91,10.24h-4.26Zm-2.94-1.42a4.69,4.69,0,0,0,3.72-1.54A5.68,5.68,0,0,0,1824,944a5.39,5.39,0,0,0-1.38-3.85,5.15,5.15,0,0,0-7.26,0,5.57,5.57,0,0,0-1.38,3.88,5.76,5.76,0,0,0,1.28,3.87A4.51,4.51,0,0,0,1818.88,949.43Z"/><path class="cls-2" d="M1830.43,939.36v-3H1846v2.55l-7.45,23.67h-4.08l7.34-23.25Z"/><path class="cls-2" d="M1863.54,949.32q0-4.12-3.49-4.13a19.18,19.18,0,0,0-3.65.39,14.53,14.53,0,0,0-2.8.74l-.76-2.36a21.62,21.62,0,0,1,6.84-1.21,8.33,8.33,0,0,1,5.13,1.46,5.26,5.26,0,0,1,1.93,4.5v13.9h-2.65l-.42-2.23a9.15,9.15,0,0,1-2.89,1.91,8.66,8.66,0,0,1-3.46.76,5.81,5.81,0,0,1-4.06-1.47,5.29,5.29,0,0,1-1.62-4.14,4.24,4.24,0,0,1,2.11-3.93,9.18,9.18,0,0,1,3-1.21c1.07-.21,2.47-.43,4.19-.64l2.56-.3Zm0,9v-4.93l-2.61.37a21.11,21.11,0,0,0-3.8.78,3.25,3.25,0,0,0-1.51,5.32,3.06,3.06,0,0,0,2.32.86A7.57,7.57,0,0,0,1863.54,958.31Z"/><path class="cls-2" d="M1884.76,946V935.46l3.2-.36v27.51h-3.2v-3a6.06,6.06,0,0,1-5.52,3.43q-4.08,0-5.93-2.92a13.36,13.36,0,0,1-1.86-7.33c0-3.53.9-6.23,2.71-8.08a6.75,6.75,0,0,1,5.1-2,6.32,6.32,0,0,1,3.54.9A5,5,0,0,1,1884.76,946Zm0,6.88q0-4.5-1.34-6.08a4.72,4.72,0,0,0-3.79-1.57,4.25,4.25,0,0,0-4.42,3.38,16,16,0,0,0-.54,4.44q0,7.56,5,7.56Q1884.76,960.59,1884.76,952.86Z"/><path class="cls-2" d="M1897.22,961.71a8.11,8.11,0,0,1-3-3.62,12.94,12.94,0,0,1-1-5.14,13.94,13.94,0,0,1,.9-5.15,8.54,8.54,0,0,1,2.71-3.67,6.32,6.32,0,0,1,4-1.4q4.08,0,6,2.8a12,12,0,0,1,1.9,6.87v1.07h-12.22a9.57,9.57,0,0,0,1.48,5,4.64,4.64,0,0,0,4.14,2.07,14.75,14.75,0,0,0,5.15-2l1.06,2.18a8.43,8.43,0,0,1-6.24,2.28A8.6,8.6,0,0,1,1897.22,961.71Zm8.42-10.58c-.24-3.94-1.62-5.92-4.15-5.92-2.86,0-4.49,2-4.91,5.92Z"/><path class="cls-2" d="M1917.92,961.71a8.11,8.11,0,0,1-3-3.62,12.94,12.94,0,0,1-1-5.14,13.94,13.94,0,0,1,.9-5.15,8.62,8.62,0,0,1,2.71-3.67,6.32,6.32,0,0,1,4-1.4c2.72,0,4.72.93,6,2.8a11.9,11.9,0,0,1,1.9,6.87v1.07h-12.22a9.57,9.57,0,0,0,1.49,5,4.64,4.64,0,0,0,4.14,2.07,14.82,14.82,0,0,0,5.15-2l1,2.18a8.43,8.43,0,0,1-6.24,2.28A8.62,8.62,0,0,1,1917.92,961.71Zm8.42-10.58c-.23-3.94-1.62-5.92-4.15-5.92-2.86,0-4.49,2-4.9,5.92Z"/><rect class="cls-11" x="1159.32" y="947.2" width="70.55" height="8"/><polygon class="cls-11" points="1225.21 967.16 1252.84 951.2 1225.21 935.25 1225.21 967.16"/><path class="cls-12" d="M906.9,845.44a2,2,0,0,1-2-2V743.36H1005a2,2,0,0,1,0,4H908.9v96.08A2,2,0,0,1,906.9,845.44Z"/><path class="cls-12" d="M1964.69,1004.89H1864.61a2,2,0,0,1,0-4h96.08V904.81a2,2,0,0,1,4,0Z"/><path class="cls-13" d="M290.47,1236.83v-167.3H127.16v167.3s0,.65,0,1c0,7.62,36.57,18.55,81.68,18.55s81.68-10.93,81.68-18.55C290.49,1237.48,290.47,1236.83,290.47,1236.83Z"/><path d="M208.81,1258.36c-20.8,0-41.48-2.3-58.24-6.48-21-5.24-25.44-10.54-25.44-14.07,0-.36,0-1.06,0-1.06V1067.53H292.47V1236.8c0,.15,0,.71,0,1,0,3.53-4.41,8.83-25.44,14.07C250.3,1256.06,229.61,1258.36,208.81,1258.36Zm-79.65-186.83v165.3c0,.1,0,.68,0,1,0,1.5,5.48,6,22.41,10.19,16.45,4.11,36.79,6.36,57.27,6.36s40.83-2.25,57.28-6.36c16.93-4.22,22.4-8.69,22.4-10.19,0-.3,0-.9,0-.91V1071.53Z"/><ellipse class="cls-13" cx="208.81" cy="1067.5" rx="81.68" ry="15.57"/><path d="M208.81,1085.07c-33.64,0-83.68-4.68-83.68-17.57s50-17.57,83.68-17.57,83.68,4.68,83.68,17.57S242.45,1085.07,208.81,1085.07Zm0-31.14c-21.69,0-42.07,1.61-57.38,4.53-17.6,3.35-22.3,7.26-22.3,9s4.7,5.69,22.3,9c15.31,2.92,35.69,4.52,57.38,4.52s42.08-1.6,57.39-4.52c17.6-3.36,22.29-7.27,22.29-9s-4.69-5.69-22.29-9C250.89,1055.54,230.51,1053.93,208.81,1053.93Z"/><path class="cls-13" d="M290.49,1125c0,8.6-36.57,15.57-81.68,15.57s-81.68-7-81.68-15.57"/><path d="M208.81,1142.55c-33.64,0-83.68-4.68-83.68-17.57h4c0,1.78,4.7,5.69,22.3,9,15.31,2.92,35.69,4.53,57.38,4.53s42.08-1.61,57.39-4.53c17.6-3.35,22.29-7.26,22.29-9h4C292.49,1137.87,242.45,1142.55,208.81,1142.55Z"/><path class="cls-13" d="M290.49,1182.31c0,8.6-36.57,15.57-81.68,15.57s-81.68-7-81.68-15.57"/><path d="M208.81,1199.88c-33.64,0-83.68-4.68-83.68-17.57h4c0,1.78,4.7,5.69,22.3,9,15.31,2.92,35.69,4.53,57.38,4.53s42.08-1.61,57.39-4.53c17.6-3.35,22.29-7.26,22.29-9h4C292.49,1195.2,242.45,1199.88,208.81,1199.88Z"/><path class="cls-6" d="M332.75,1183.88v-57.22h16.56a48.21,48.21,0,0,1,13.44,1.72,28.76,28.76,0,0,1,10.21,5.17,22.29,22.29,0,0,1,6.56,8.91,32.21,32.21,0,0,1,2.29,12.59q0,13.88-8.36,21.35t-23.17,7.48Zm10.58-8.47h7.58q9.81,0,14.92-5.14t5.12-15q0-10.55-5.28-15.33t-15.89-4.79h-6.45Z"/><path class="cls-6" d="M402.2,1184.7a14,14,0,0,1-9.67-3.3q-3.69-3.3-3.69-9.51,0-6.67,4.37-9.9t13.21-4.08c.8-.11,1.68-.21,2.61-.32l3.17-.31c1.17-.1,2.09-.19,2.77-.27v-2.27c0-2.6-.6-4.5-1.8-5.68s-3-1.78-5.46-1.78q-5.23,0-12.93,2.93l-1.29-3.55-1.29-3.52a41.27,41.27,0,0,1,16.4-3.24q8.68,0,12.62,3.77t3.95,12.21v28h-7.58c0-.1-.31-1-.86-2.61s-.82-2.52-.82-2.62a24.33,24.33,0,0,1-6.27,4.59A17.29,17.29,0,0,1,402.2,1184.7Zm2.77-7.26a11.18,11.18,0,0,0,6.19-1.7,9.91,9.91,0,0,0,3.77-4.12v-8.28l-2.05.15c-1.29.11-2,.16-2.09.16q-6.21.54-9.1,2.34a6.29,6.29,0,0,0-2.89,5.78,5.38,5.38,0,0,0,1.6,4.2A6.52,6.52,0,0,0,405,1177.44Z"/><path class="cls-6" d="M452.63,1184.47a22,22,0,0,1-7.29-1,9.37,9.37,0,0,1-4.55-3.26,13.8,13.8,0,0,1-2.32-5.25,34.31,34.31,0,0,1-.69-7.48v-20.28h-7l.39-5.54,7.35-.67,3.28-11.64,6.25,0V1141h10.66v6.21H448v20.47q0,4.89,1.4,7t5.2,2.07a31.65,31.65,0,0,0,4.77-.39l.27,7.34-1,.18-1.68.31c-.53.09-1.22.17-2,.25S453.36,1184.47,452.63,1184.47Z"/><path class="cls-6" d="M478.14,1184.7a14,14,0,0,1-9.67-3.3q-3.69-3.3-3.69-9.51,0-6.67,4.37-9.9t13.2-4.08c.81-.11,1.68-.21,2.62-.32l3.17-.31c1.17-.1,2.09-.19,2.77-.27v-2.27c0-2.6-.6-4.5-1.8-5.68s-3-1.78-5.47-1.78q-5.24,0-12.93,2.93c0-.08-.45-1.26-1.29-3.55l-1.28-3.52a41.27,41.27,0,0,1,16.4-3.24q8.67,0,12.62,3.77t3.94,12.21v28h-7.57l-.86-2.61c-.55-1.65-.82-2.52-.82-2.62a24.33,24.33,0,0,1-6.27,4.59A17.29,17.29,0,0,1,478.14,1184.7Zm2.77-7.26a11.2,11.2,0,0,0,6.19-1.7,10,10,0,0,0,3.77-4.12v-8.28l-2.05.15c-1.29.11-2,.16-2.09.16-4.14.36-7.18,1.14-9.1,2.34a6.29,6.29,0,0,0-2.89,5.78,5.38,5.38,0,0,0,1.6,4.2A6.52,6.52,0,0,0,480.91,1177.44Z"/><path class="cls-6" d="M534.42,1184.7a16.4,16.4,0,0,1-7.94-1.93,13.83,13.83,0,0,1-5.18-4.39l-1,5.46h-8.86v-58.71l10.23-.66v13.28q0,3.87-.23,8.79a15.89,15.89,0,0,1,13.24-6.64,15.31,15.31,0,0,1,12.87,6.09q4.66,6.09,4.67,15.94,0,10.23-4.83,16.5A15.49,15.49,0,0,1,534.42,1184.7Zm-2.46-7.77a8.52,8.52,0,0,0,7.31-3.87q2.73-3.87,2.73-11t-2.67-10.82a8.51,8.51,0,0,0-7.25-3.68q-10.4,0-10.51,14,0,7.89,2.62,11.6A8.9,8.9,0,0,0,532,1176.93Z"/><path class="cls-6" d="M571.73,1184.7a14,14,0,0,1-9.67-3.3q-3.69-3.3-3.69-9.51,0-6.67,4.38-9.9t13.2-4.08c.8-.11,1.68-.21,2.62-.32l3.16-.31c1.17-.1,2.1-.19,2.77-.27v-2.27c0-2.6-.6-4.5-1.79-5.68s-3-1.78-5.47-1.78q-5.24,0-12.93,2.93l-1.29-3.55-1.29-3.52a41.29,41.29,0,0,1,16.41-3.24q8.67,0,12.61,3.77t4,12.21v28h-7.58c0-.1-.31-1-.86-2.61s-.82-2.52-.82-2.62a24.33,24.33,0,0,1-6.27,4.59A17.22,17.22,0,0,1,571.73,1184.7Zm2.77-7.26a11.18,11.18,0,0,0,6.19-1.7,9.91,9.91,0,0,0,3.77-4.12v-8.28l-2.05.15c-1.29.11-2,.16-2.09.16q-6.21.54-9.1,2.34a6.29,6.29,0,0,0-2.89,5.78,5.38,5.38,0,0,0,1.6,4.2A6.52,6.52,0,0,0,574.5,1177.44Z"/><path class="cls-6" d="M618.72,1184.66q-9.5,0-15.19-3.24l1.05-7.69a32.68,32.68,0,0,0,6.56,2.52,27.32,27.32,0,0,0,7.27,1.11,9.4,9.4,0,0,0,5.29-1.27,4.32,4.32,0,0,0,1.94-3.73,4.14,4.14,0,0,0-1.78-3.52,33.65,33.65,0,0,0-6.78-3.2l-2.23-.82c-4-1.54-6.81-3.25-8.55-5.14a10.82,10.82,0,0,1-2.62-7.67,10.49,10.49,0,0,1,4.24-9c2.83-2.08,6.76-3.12,11.82-3.12a32.07,32.07,0,0,1,14.41,3.08l-2.54,7.07a27.74,27.74,0,0,0-11.68-2.85,9.45,9.45,0,0,0-4.82,1,3.42,3.42,0,0,0-1.74,3.14,3.53,3.53,0,0,0,1.68,3.11,36.9,36.9,0,0,0,6.56,2.91c.11,0,.44.14,1,.35l1.33.51q5.89,2.15,8.67,5.13a11,11,0,0,1,2.77,7.8q0,6.43-4.37,10T618.72,1184.66Z"/><path class="cls-6" d="M663.33,1184.7q-10.35,0-16.11-6t-5.76-16.47q0-10.23,5.43-16.29t14.8-6.09q8.87,0,13.77,5.55t4.9,14.72c0,.45,0,1.16,0,2.15s0,1.72,0,2.19H651.77q.15,6,3.3,9.31c2.1,2.21,5,3.3,8.65,3.3a27.06,27.06,0,0,0,13.52-3.67l1.44,7.27A28.55,28.55,0,0,1,663.33,1184.7ZM652,1158.06h18.75q0-5.24-2.38-8a8.18,8.18,0,0,0-6.6-2.82,9,9,0,0,0-6.66,2.74Q652.36,1152.67,652,1158.06Z"/><path class="cls-2" d="M142.35,1326.59v-5.47h6.42v5.47Zm0,30.73v-26.83h6.39v26.83Z"/><path class="cls-2" d="M165.39,1357.84a9.88,9.88,0,0,1-8.25-3.86q-3-3.86-3-10.3,0-6.26,3-10a9.91,9.91,0,0,1,8.24-3.8q5.72,0,8.08,4.06-.24-2.4-.24-4.62v-8.67l6.39-.41v37.13h-5.54l-.71-3.66c-.28.44-.53.82-.77,1.14a8.24,8.24,0,0,1-1,1.1,6.27,6.27,0,0,1-1.47,1,10.39,10.39,0,0,1-2,.66A12.32,12.32,0,0,1,165.39,1357.84Zm1.52-4.86q6.43,0,6.54-8.77,0-4.95-1.66-7.22a5.74,5.74,0,0,0-5-2.27,5.47,5.47,0,0,0-4.6,2.3q-1.72,2.31-1.72,6.8t1.72,6.81A5.49,5.49,0,0,0,166.91,1353Z"/><path class="cls-2" d="M252.34,1355.21a14.82,14.82,0,0,1-16.84,0q-3.18-2.61-3.18-7.66v-17.07h6.42v16.82a6.23,6.23,0,0,0,1.26,4.35,5.26,5.26,0,0,0,4,1.34,5.1,5.1,0,0,0,3.92-1.33,6.33,6.33,0,0,0,1.23-4.36v-16.82h6.4v17.07Q255.54,1352.59,252.34,1355.21Z"/><path class="cls-2" d="M269.94,1357.81a19.23,19.23,0,0,1-9.5-2l.66-4.81a19.91,19.91,0,0,0,4.11,1.57,17.16,17.16,0,0,0,4.54.7,5.88,5.88,0,0,0,3.3-.8,2.66,2.66,0,0,0,1.21-2.33,2.58,2.58,0,0,0-1.11-2.2,21.27,21.27,0,0,0-4.23-2l-1.4-.51a14.32,14.32,0,0,1-5.34-3.21,6.8,6.8,0,0,1-1.64-4.8,6.53,6.53,0,0,1,2.65-5.61q2.65-2,7.39-2a20,20,0,0,1,9,1.93l-1.58,4.42a17.32,17.32,0,0,0-7.3-1.78,5.84,5.84,0,0,0-3,.65,2.13,2.13,0,0,0-1.08,2,2.2,2.2,0,0,0,1,1.94,22.2,22.2,0,0,0,4.1,1.82l.63.22.83.32a13.55,13.55,0,0,1,5.42,3.21,6.85,6.85,0,0,1,1.74,4.87,7.62,7.62,0,0,1-2.74,6.22C275.83,1357.08,273.26,1357.81,269.94,1357.81Z"/><path class="cls-2" d="M297.82,1357.84q-6.46,0-10.07-3.73t-3.6-10.29q0-6.39,3.39-10.18a11.92,11.92,0,0,1,9.26-3.81q5.54,0,8.6,3.47a13.35,13.35,0,0,1,3.07,9.2c0,.28,0,.73,0,1.35s0,1.07,0,1.36H290.6a8.44,8.44,0,0,0,2.06,5.83,7.13,7.13,0,0,0,5.41,2.06,16.88,16.88,0,0,0,8.44-2.3l.91,4.55A17.92,17.92,0,0,1,297.82,1357.84Zm-7.1-16.65h11.72a7.57,7.57,0,0,0-1.49-5,5.11,5.11,0,0,0-4.13-1.76,5.64,5.64,0,0,0-4.16,1.71A7.75,7.75,0,0,0,290.72,1341.19Z"/><path class="cls-2" d="M313.69,1357.32v-26.83h5.37l.83,4.1a8.49,8.49,0,0,1,7.64-4.22,11.37,11.37,0,0,1,1.71.1l-.09,5.34a14.93,14.93,0,0,0-2-.14,6.87,6.87,0,0,0-5.29,1.88,7.38,7.38,0,0,0-1.74,5.22v14.55Z"/><path class="cls-2" d="M333.15,1357.32v-26.83h5.15l.71,3.4a12.67,12.67,0,0,1,9.11-4.06q4.68,0,7,2.7t2.34,7.83v17H351v-16.18a9.29,9.29,0,0,0-1-4.86c-.69-1.08-1.92-1.61-3.69-1.61a7.07,7.07,0,0,0-3.8,1.06,6.51,6.51,0,0,0-2.5,2.67,26.94,26.94,0,0,0-.46,5.86v13.06Z"/><path class="cls-2" d="M370.84,1357.84a8.7,8.7,0,0,1-6-2.07,7.53,7.53,0,0,1-2.3-5.94q0-4.18,2.73-6.19t8.25-2.55l1.64-.2c.58-.06,1.24-.13,2-.19l1.74-.17v-1.42a4.86,4.86,0,0,0-1.12-3.55,4.69,4.69,0,0,0-3.42-1.11,23.59,23.59,0,0,0-8.08,1.83l-.81-2.22c-.52-1.44-.79-2.17-.81-2.2a25.84,25.84,0,0,1,10.26-2q5.41,0,7.88,2.36t2.47,7.63v17.5h-4.74c0-.06-.19-.61-.53-1.63s-.52-1.57-.52-1.64a15.08,15.08,0,0,1-3.91,2.87A10.75,10.75,0,0,1,370.84,1357.84Zm1.74-4.55a7,7,0,0,0,3.87-1.06,6.17,6.17,0,0,0,2.35-2.57v-5.18l-1.28.1-1.3.1a13.39,13.39,0,0,0-5.69,1.46,3.92,3.92,0,0,0-1.81,3.61,3.38,3.38,0,0,0,1,2.63A4.09,4.09,0,0,0,372.58,1353.29Z"/><path class="cls-2" d="M391.65,1357.32v-26.83h5.17l.73,3.42c.33-.41.64-.77.94-1.09a11,11,0,0,1,1.25-1.07,8.42,8.42,0,0,1,1.68-1,11.37,11.37,0,0,1,2.2-.66,13.79,13.79,0,0,1,2.8-.27,8.94,8.94,0,0,1,5.11,1.3,7.32,7.32,0,0,1,2.7,3A9.61,9.61,0,0,1,418,1331a11.44,11.44,0,0,1,5.11-1.13q4.6,0,6.77,2.62t2.16,7.73v17.14h-6.42v-15.23a13.61,13.61,0,0,0-.87-5.68,3.33,3.33,0,0,0-3.3-1.74A5.54,5.54,0,0,0,416,1338a11.69,11.69,0,0,0-.93,3.58v15.7h-6.4V1341.8a11.67,11.67,0,0,0-.95-5.35,3.57,3.57,0,0,0-3.44-1.76,5.85,5.85,0,0,0-3.49,1,6.55,6.55,0,0,0-2.23,2.68,27.32,27.32,0,0,0-.56,5.91v13Z"/><path class="cls-2" d="M450.7,1357.84q-6.46,0-10.07-3.73t-3.6-10.29q0-6.39,3.39-10.18a11.92,11.92,0,0,1,9.26-3.81q5.54,0,8.6,3.47a13.35,13.35,0,0,1,3.07,9.2c0,.28,0,.73,0,1.35s0,1.07,0,1.36H443.48a8.44,8.44,0,0,0,2.06,5.83,7.13,7.13,0,0,0,5.41,2.06,16.88,16.88,0,0,0,8.44-2.3l.91,4.55A17.92,17.92,0,0,1,450.7,1357.84Zm-7.1-16.65h11.72a7.57,7.57,0,0,0-1.49-5,5.11,5.11,0,0,0-4.13-1.76,5.64,5.64,0,0,0-4.16,1.71A7.75,7.75,0,0,0,443.6,1341.19Z"/><path class="cls-2" d="M518.82,1368.48v-38h5.49l.68,3.76a9.07,9.07,0,0,1,3.51-3.28,10.24,10.24,0,0,1,4.87-1.16,9.54,9.54,0,0,1,5.79,1.83,11.29,11.29,0,0,1,3.8,5,18.77,18.77,0,0,1,1.29,7.14,16.18,16.18,0,0,1-3,10.15,9.77,9.77,0,0,1-8.17,3.92,10.25,10.25,0,0,1-4.6-1,10,10,0,0,1-3.45-2.74c.13,2.34.19,3.66.19,4v10.13ZM531.71,1353a5.17,5.17,0,0,0,4.5-2.39q1.65-2.38,1.65-6.84c0-3-.56-5.27-1.66-6.78a5.39,5.39,0,0,0-4.62-2.27q-6.35,0-6.42,8.64,0,5,1.65,7.31A5.59,5.59,0,0,0,531.71,1353Z"/><path class="cls-2" d="M556.46,1357.84a8.7,8.7,0,0,1-6-2.07,7.53,7.53,0,0,1-2.31-5.94q0-4.18,2.74-6.19t8.25-2.55l1.63-.2c.59-.06,1.25-.13,2-.19l1.74-.17v-1.42a4.82,4.82,0,0,0-1.13-3.55,4.69,4.69,0,0,0-3.42-1.11,23.64,23.64,0,0,0-8.08,1.83s-.28-.79-.8-2.22-.79-2.17-.81-2.2a25.84,25.84,0,0,1,10.26-2q5.41,0,7.88,2.36t2.47,7.63v17.5h-4.74c0-.06-.19-.61-.54-1.63s-.51-1.57-.51-1.64a15,15,0,0,1-3.92,2.87A10.74,10.74,0,0,1,556.46,1357.84Zm1.74-4.55a6.92,6.92,0,0,0,3.86-1.06,6.2,6.2,0,0,0,2.36-2.57v-5.18l-1.28.1-1.31.1a13.47,13.47,0,0,0-5.69,1.46,3.93,3.93,0,0,0-1.8,3.61,3.38,3.38,0,0,0,1,2.63A4.09,4.09,0,0,0,558.2,1353.29Z"/><path class="cls-2" d="M585.83,1357.81a19.23,19.23,0,0,1-9.5-2L577,1351a20.14,20.14,0,0,0,4.11,1.57,17.16,17.16,0,0,0,4.54.7,5.91,5.91,0,0,0,3.31-.8,2.68,2.68,0,0,0,1.2-2.33,2.58,2.58,0,0,0-1.11-2.2,21.27,21.27,0,0,0-4.23-2l-1.39-.51a14.29,14.29,0,0,1-5.35-3.21,6.8,6.8,0,0,1-1.64-4.8,6.56,6.56,0,0,1,2.65-5.61q2.65-2,7.39-2a20.11,20.11,0,0,1,9,1.93l-1.59,4.42a17.32,17.32,0,0,0-7.3-1.78,5.84,5.84,0,0,0-3,.65,2.13,2.13,0,0,0-1.08,2,2.2,2.2,0,0,0,1,1.94,22.2,22.2,0,0,0,4.1,1.82l.63.22.83.32a13.55,13.55,0,0,1,5.42,3.21,6.85,6.85,0,0,1,1.74,4.87,7.62,7.62,0,0,1-2.74,6.22C591.72,1357.08,589.15,1357.81,585.83,1357.81Z"/><path class="cls-2" d="M609.88,1357.81c-4,0-7.12-.67-9.5-2L601,1351a20,20,0,0,0,4.1,1.57,17.22,17.22,0,0,0,4.54.7,5.89,5.89,0,0,0,3.31-.8,2.68,2.68,0,0,0,1.21-2.33,2.58,2.58,0,0,0-1.11-2.2,21.14,21.14,0,0,0-4.24-2l-1.39-.51a14.32,14.32,0,0,1-5.34-3.21,6.8,6.8,0,0,1-1.64-4.8,6.53,6.53,0,0,1,2.65-5.61q2.65-2,7.38-2a20.05,20.05,0,0,1,9,1.93l-1.58,4.42a17.32,17.32,0,0,0-7.3-1.78,5.84,5.84,0,0,0-3,.65,2.13,2.13,0,0,0-1.08,2,2.19,2.19,0,0,0,1,1.94,22.39,22.39,0,0,0,4.11,1.82l.63.22.83.32a13.55,13.55,0,0,1,5.42,3.21,6.85,6.85,0,0,1,1.73,4.87,7.58,7.58,0,0,1-2.73,6.22Q614.86,1357.82,609.88,1357.81Z"/><path class="cls-2" d="M630.56,1357.32l-8.13-26.83H629l5.15,19.68q.17-.56,2.78-9.59t3-10.09h6.56c.21.69,1.15,4,2.81,10s2.56,9.18,2.69,9.62l5.29-19.61h6.43l-8.4,26.83h-6.38q-.32-1-3-10.62T643,1336.38c-.33,1.18-1.36,4.77-3.11,10.74s-2.77,9.37-3,10.2Z"/><path class="cls-2" d="M678.58,1357.84a11.87,11.87,0,0,1-9.37-3.86q-3.42-3.86-3.42-10.16,0-6.49,3.42-10.24t9.64-3.75q6,0,9.41,3.82t3.41,10.17q0,6.42-3.45,10.22T678.58,1357.84Zm.17-4.86a5.53,5.53,0,0,0,4.88-2.37,11.88,11.88,0,0,0,1.64-6.79q0-4.47-1.64-6.81a6.31,6.31,0,0,0-9.82,0q-1.65,2.36-1.65,6.83a11.66,11.66,0,0,0,1.66,6.76A5.63,5.63,0,0,0,678.75,1353Z"/><path class="cls-2" d="M696.92,1357.32v-26.83h5.37l.83,4.1a8.48,8.48,0,0,1,7.64-4.22,11.37,11.37,0,0,1,1.71.1l-.1,5.34a14.82,14.82,0,0,0-2-.14c-2.36,0-4.12.62-5.28,1.88a7.34,7.34,0,0,0-1.75,5.22v14.55Z"/><path class="cls-2" d="M726.12,1357.84a9.91,9.91,0,0,1-8.26-3.86q-3-3.86-3-10.3,0-6.26,3-10a9.91,9.91,0,0,1,8.24-3.8q5.71,0,8.08,4.06-.24-2.4-.24-4.62v-8.67l6.39-.41v37.13h-5.54l-.71-3.66c-.27.44-.53.82-.77,1.14a8.76,8.76,0,0,1-1,1.1,6.54,6.54,0,0,1-1.48,1,10.39,10.39,0,0,1-2,.66A12.29,12.29,0,0,1,726.12,1357.84Zm1.51-4.86q6.45,0,6.54-8.77,0-4.95-1.66-7.22a5.73,5.73,0,0,0-5-2.27A5.47,5.47,0,0,0,723,1337c-1.14,1.54-1.72,3.81-1.72,6.8s.58,5.25,1.72,6.81A5.49,5.49,0,0,0,727.63,1353Z"/><path class="cls-2" d="M266.88,1419.73l-1.76,8.66h-3.85l2.81-8.66Zm5.27,0-1.9,8.66h-3.69l2.6-8.66Z"/><path class="cls-2" d="M287.62,1445.87A7.44,7.44,0,0,1,284,1445a6.32,6.32,0,0,1-2.33-2l-.45,2.46h-4v-26.42l4.6-.3v6c0,1.16,0,2.47-.1,4a7.16,7.16,0,0,1,6-3,6.89,6.89,0,0,1,5.79,2.75,11.44,11.44,0,0,1,2.1,7.17,11.81,11.81,0,0,1-2.17,7.42A7,7,0,0,1,287.62,1445.87Zm-1.11-3.5a3.84,3.84,0,0,0,3.29-1.74,8.48,8.48,0,0,0,1.23-4.94,8.23,8.23,0,0,0-1.2-4.87,3.84,3.84,0,0,0-3.26-1.65q-4.68,0-4.73,6.31a9.16,9.16,0,0,0,1.18,5.22A4,4,0,0,0,286.51,1442.37Z"/><path class="cls-2" d="M307.68,1445.87a8.56,8.56,0,0,1-6.75-2.78,12.2,12.2,0,0,1,0-14.69,8.91,8.91,0,0,1,6.94-2.7,8.64,8.64,0,0,1,6.78,2.75,10.64,10.64,0,0,1,2.45,7.33,10.53,10.53,0,0,1-2.48,7.35A8.91,8.91,0,0,1,307.68,1445.87Zm.12-3.5a4,4,0,0,0,3.52-1.71,10.82,10.82,0,0,0,0-9.79,4.54,4.54,0,0,0-7.08,0,8.54,8.54,0,0,0-1.19,4.91,8.38,8.38,0,0,0,1.2,4.87A4.05,4.05,0,0,0,307.8,1442.37Z"/><path class="cls-2" d="M331.13,1445.87a7.38,7.38,0,0,1-3.58-.87,6.23,6.23,0,0,1-2.33-2l-.46,2.46h-4v-26.42l4.61-.3v6c0,1.16,0,2.47-.11,4a7.17,7.17,0,0,1,6-3,6.89,6.89,0,0,1,5.79,2.75,11.44,11.44,0,0,1,2.1,7.17A11.81,11.81,0,0,1,337,1443,7,7,0,0,1,331.13,1445.87Zm-1.11-3.5a3.84,3.84,0,0,0,3.29-1.74,8.48,8.48,0,0,0,1.23-4.94,8.15,8.15,0,0,0-1.21-4.87,3.82,3.82,0,0,0-3.26-1.65q-4.67,0-4.73,6.31a9.24,9.24,0,0,0,1.18,5.22A4,4,0,0,0,330,1442.37Z"/><path class="cls-2" d="M345.88,1445.48v-21.43c-.17.11-.93.44-2.28,1s-2.12.88-2.3.92v-3.51c.29-.13,1.18-.57,2.68-1.33s2.32-1.18,2.48-1.29h3.86v25.63Z"/><path class="cls-2" d="M356.88,1445.5l7.8-10.16a6.48,6.48,0,0,1-2.09.4,8.54,8.54,0,0,1-6.16-2.28,7.76,7.76,0,0,1-2.38-5.89,7.55,7.55,0,0,1,2.61-6,10,10,0,0,1,6.78-2.25,10.27,10.27,0,0,1,7,2.32,7.7,7.7,0,0,1,2.68,6.14,9.47,9.47,0,0,1-.85,4,24.86,24.86,0,0,1-2.48,4l-7.27,9.67Zm6.7-13a4.52,4.52,0,0,0,3.61-1.36,5.39,5.39,0,0,0,1.17-3.65,4.73,4.73,0,0,0-1.22-3.43,4.55,4.55,0,0,0-3.48-1.27,5,5,0,0,0-3.66,1.32,4.64,4.64,0,0,0-1.33,3.46,5,5,0,0,0,1.24,3.61A4.8,4.8,0,0,0,363.58,1432.51Z"/><path class="cls-2" d="M378.24,1445.5l7.8-10.16a6.48,6.48,0,0,1-2.09.4,8.54,8.54,0,0,1-6.16-2.28,7.76,7.76,0,0,1-2.38-5.89,7.55,7.55,0,0,1,2.61-6,10,10,0,0,1,6.77-2.25,10.3,10.3,0,0,1,7,2.32,7.72,7.72,0,0,1,2.67,6.14,9.47,9.47,0,0,1-.84,4,24.86,24.86,0,0,1-2.48,4l-7.28,9.67Zm6.69-13a4.55,4.55,0,0,0,3.62-1.36,5.38,5.38,0,0,0,1.16-3.65,4.73,4.73,0,0,0-1.21-3.43,4.58,4.58,0,0,0-3.48-1.27,5,5,0,0,0-3.66,1.32,4.64,4.64,0,0,0-1.33,3.46,5,5,0,0,0,1.24,3.61A4.78,4.78,0,0,0,384.93,1432.51Z"/><path class="cls-2" d="M410.48,1445.15a10.15,10.15,0,0,1-7.51,0,7.7,7.7,0,0,1-2.76-1.93,10.55,10.55,0,0,1-1.82-2.93,15.26,15.26,0,0,1-1-3.6,26,26,0,0,1-.31-4.06,25.42,25.42,0,0,1,.32-4.12,15,15,0,0,1,1.06-3.64,10.57,10.57,0,0,1,1.83-2.93A7.82,7.82,0,0,1,403,1420a10,10,0,0,1,7.46,0,7.71,7.71,0,0,1,2.74,1.93,10.46,10.46,0,0,1,1.82,2.94,16,16,0,0,1,1,3.63,24.14,24.14,0,0,1,.32,4.11,24.88,24.88,0,0,1-.31,4.06,15,15,0,0,1-1,3.61,10.3,10.3,0,0,1-1.81,2.93A7.56,7.56,0,0,1,410.48,1445.15Zm-6.16-3.75a3.71,3.71,0,0,0,2.41.81,3.67,3.67,0,0,0,2.4-.81,5,5,0,0,0,1.51-2.24,14.89,14.89,0,0,0,.75-3.06,26.41,26.41,0,0,0,.23-3.61q0-9.52-4.89-9.53t-4.92,9.46a25.34,25.34,0,0,0,.23,3.64,15.08,15.08,0,0,0,.75,3.08A5,5,0,0,0,404.32,1441.4Z"/><path class="cls-2" d="M421.2,1428.39l1.9-8.66h3.69l-2.6,8.66Zm5.27,0,1.76-8.66h3.85l-2.81,8.66Z"/><path class="cls-2" d="M160.22,1445.48v-21.43c-.16.11-.92.44-2.27,1s-2.12.88-2.3.92v-3.51c.28-.13,1.17-.57,2.67-1.33s2.33-1.18,2.48-1.29h3.87v25.63Z"/><path class="cls-2" d="M530.18,1434a7,7,0,0,1-3.8,1,7.1,7.1,0,0,1-5.42-2.13,8,8,0,0,1-2-5.64,8.2,8.2,0,0,1,1.19-4.43,7.56,7.56,0,0,1,3.05-2.82,9.06,9.06,0,0,1,4.06-.92,8.54,8.54,0,0,1,6.31,2.27,8.63,8.63,0,0,1,2.27,6.36,12.49,12.49,0,0,1-2.89,7.79L525,1445.72h-4.25Zm-2.95-1.42A4.71,4.71,0,0,0,531,1431a5.67,5.67,0,0,0,1.36-3.92,5.45,5.45,0,0,0-1.37-3.85,5.17,5.17,0,0,0-7.26.06,5.49,5.49,0,0,0-1.39,3.87,5.81,5.81,0,0,0,1.28,3.87A4.53,4.53,0,0,0,527.23,1432.54Z"/><path class="cls-2" d="M540.44,1423.1a28.56,28.56,0,0,0,5.9-3.6h3.31v23.66h5.52v2.56H540.46v-2.56h5.9v-20.11l-2.46,1.47a22.65,22.65,0,0,1-3.46,1.76Z"/><path class="cls-2" d="M564.17,1444.82a8.06,8.06,0,0,1-3-3.62,12.94,12.94,0,0,1-1-5.14,13.65,13.65,0,0,1,.91-5.14,8.49,8.49,0,0,1,2.7-3.68,6.37,6.37,0,0,1,4-1.4,6.73,6.73,0,0,1,6,2.8,12,12,0,0,1,1.89,6.87v1.07H563.43a9.54,9.54,0,0,0,1.48,5.05,4.64,4.64,0,0,0,4.14,2.07,14.55,14.55,0,0,0,5.15-2l1.06,2.18a9.58,9.58,0,0,1-11.09.94Zm8.41-10.57q-.35-5.93-4.14-5.93-4.29,0-4.91,5.93Z"/><path class="cls-2" d="M589.54,1445.72h-3.2V1428.9h-5v-2.46h5a20.4,20.4,0,0,1,.29-4.48,5.58,5.58,0,0,1,1.44-2.62c1.13-1,3.2-1.48,6.2-1.48h1.87l-.18,2.46H594.2a14.66,14.66,0,0,0-2.14.13,3.62,3.62,0,0,0-1.41.52c-.74.47-1.11,1.52-1.11,3.13v2.34h6.6v2.46h-6.6Z"/><path class="cls-2" d="M602.55,1423.1a28.85,28.85,0,0,0,5.91-3.6h3.3v23.66h5.52v2.56H602.57v-2.56h5.9v-20.11l-2.46,1.47a22.65,22.65,0,0,1-3.46,1.76Z"/><path class="cls-2" d="M633.69,1434a6.89,6.89,0,0,1-3.79,1,7.09,7.09,0,0,1-5.42-2.13,8,8,0,0,1-2-5.64,8.11,8.11,0,0,1,1.19-4.43,7.54,7.54,0,0,1,3-2.82,9.14,9.14,0,0,1,4.07-.92,7.86,7.86,0,0,1,8.57,8.63,12.54,12.54,0,0,1-2.88,7.79l-7.91,10.24h-4.25Zm-2.94-1.42a4.71,4.71,0,0,0,3.73-1.54,5.72,5.72,0,0,0,1.36-3.92,5.45,5.45,0,0,0-1.37-3.85,4.72,4.72,0,0,0-3.62-1.46,4.67,4.67,0,0,0-3.64,1.52,5.49,5.49,0,0,0-1.39,3.87,5.81,5.81,0,0,0,1.28,3.87A4.52,4.52,0,0,0,630.75,1432.54Z"/><path class="cls-2" d="M655.22,1429.1v-10.53l3.2-.36v27.51h-3.2v-3a6.07,6.07,0,0,1-5.52,3.42,6.51,6.51,0,0,1-5.93-2.91,13.4,13.4,0,0,1-1.85-7.33q0-5.31,2.7-8.09a6.78,6.78,0,0,1,5.1-2,6.32,6.32,0,0,1,3.54.9A5.06,5.06,0,0,1,655.22,1429.1Zm0,6.87c0-3-.44-5-1.33-6.07a4.71,4.71,0,0,0-3.8-1.58,4.25,4.25,0,0,0-4.41,3.38,15.56,15.56,0,0,0-.55,4.44q0,7.56,5,7.56Q655.22,1443.7,655.22,1436Z"/><path class="cls-2" d="M672.36,1445.72h-3.2V1428.9h-5v-2.46h5a20.66,20.66,0,0,1,.28-4.48,5.76,5.76,0,0,1,1.44-2.62c1.14-1,3.21-1.48,6.21-1.48H679l-.18,2.46H677a14.81,14.81,0,0,0-2.15.13,3.57,3.57,0,0,0-1.4.52c-.74.47-1.11,1.52-1.11,3.13v2.34H679v2.46h-6.59Z"/><path class="cls-2" d="M689.53,1430.75a7,7,0,0,1,3.8-1,6.92,6.92,0,0,1,5.42,2.29,8.5,8.5,0,0,1,2,5.83,8.64,8.64,0,0,1-.7,3.52,7.65,7.65,0,0,1-1.85,2.65,8.79,8.79,0,0,1-6.12,2.18,7.87,7.87,0,0,1-6-2.35c-1.5-1.56-2.26-3.8-2.26-6.72a12,12,0,0,1,2.89-7.87l8-9.74H699Zm-2.15,7.22a5.7,5.7,0,0,0,1.38,4,4.66,4.66,0,0,0,3.63,1.54,4.6,4.6,0,0,0,3.63-1.58,5.83,5.83,0,0,0,1.38-4,6.26,6.26,0,0,0-1.29-4,4.38,4.38,0,0,0-3.64-1.62,4.62,4.62,0,0,0-3.72,1.64A6.15,6.15,0,0,0,687.38,1438Z"/><path class="cls-2" d="M708.11,1429.1a6.37,6.37,0,0,1,5.84-3.24,6.31,6.31,0,0,1,5.71,2.81,12.72,12.72,0,0,1,1.82,7.07q0,5.58-2.63,8.38a6.73,6.73,0,0,1-5.17,2,5.66,5.66,0,0,1-3.3-.8,11,11,0,0,1-2.27-2.27l0,2.63h-3.16v-27.15l3.2-.36Zm.12,9.28a7.48,7.48,0,0,0,1.48,3.88,4.37,4.37,0,0,0,3.58,1.43c2.17,0,3.63-1.13,4.4-3.38a12,12,0,0,0,.58-3.7,27.07,27.07,0,0,0-.13-3,7.47,7.47,0,0,0-1.38-3.9,4.13,4.13,0,0,0-3.47-1.43,4.48,4.48,0,0,0-4.82,3.8,15.17,15.17,0,0,0-.36,3.38A27.31,27.31,0,0,0,708.23,1438.38Z"/><path class="cls-2" d="M740.22,1444.46a7.46,7.46,0,0,1-5.26,1.7,9.22,9.22,0,0,1-4-.83,8.11,8.11,0,0,1-2.94-2.24,10.94,10.94,0,0,1-2.41-7.12,11.42,11.42,0,0,1,1.1-5,9.14,9.14,0,0,1,3.25-3.7,9.35,9.35,0,0,1,5.29-1.43,6.76,6.76,0,0,1,4.88,1.67l-.8,2.15a8,8,0,0,0-4.57-1.36,5.14,5.14,0,0,0-4.23,2.18,8.83,8.83,0,0,0-1.68,5.55,8.68,8.68,0,0,0,1.68,5.51,5.21,5.21,0,0,0,4.29,2.14,7.77,7.77,0,0,0,4.59-1.4Z"/><path class="cls-2" d="M757.91,1434a6.89,6.89,0,0,1-3.79,1,7.09,7.09,0,0,1-5.42-2.13,8,8,0,0,1-2-5.64,8.11,8.11,0,0,1,1.19-4.43,7.5,7.5,0,0,1,3.05-2.82,9.06,9.06,0,0,1,4.06-.92,7.86,7.86,0,0,1,8.57,8.63,12.54,12.54,0,0,1-2.88,7.79l-7.91,10.24h-4.25Zm-2.94-1.42a4.71,4.71,0,0,0,3.73-1.54,5.72,5.72,0,0,0,1.36-3.92,5.45,5.45,0,0,0-1.37-3.85,4.72,4.72,0,0,0-3.62-1.46,4.67,4.67,0,0,0-3.64,1.52,5.49,5.49,0,0,0-1.39,3.87,5.81,5.81,0,0,0,1.28,3.87A4.52,4.52,0,0,0,755,1432.54Z"/><path class="cls-2" d="M781.62,1444.46a7.44,7.44,0,0,1-5.25,1.7,9.22,9.22,0,0,1-4-.83,8.11,8.11,0,0,1-2.94-2.24,10.88,10.88,0,0,1-2.41-7.12,11.42,11.42,0,0,1,1.1-5,9,9,0,0,1,3.24-3.7,9.37,9.37,0,0,1,5.29-1.43,6.79,6.79,0,0,1,4.89,1.67l-.81,2.15a8,8,0,0,0-4.57-1.36,5.14,5.14,0,0,0-4.23,2.18,8.89,8.89,0,0,0-1.67,5.55,8.73,8.73,0,0,0,1.67,5.51,5.21,5.21,0,0,0,4.29,2.14,7.8,7.8,0,0,0,4.6-1.4Z"/><path class="cls-2" d="M803.52,1438.59a7.32,7.32,0,0,1-2.08,5.57,9.23,9.23,0,0,1-11.45,0,7.28,7.28,0,0,1-2.09-5.57,6.09,6.09,0,0,1,.79-3.1,7.69,7.69,0,0,1,4.65-3.44q-4.92-1.72-4.92-6.4a6,6,0,0,1,2.06-4.82,8.72,8.72,0,0,1,10.48,0,6,6,0,0,1,2.07,4.82q0,4.68-4.92,6.4a8.85,8.85,0,0,1,3.84,2.31A5.81,5.81,0,0,1,803.52,1438.59Zm-11.85.49a4.6,4.6,0,0,0,1.05,3.21,4.49,4.49,0,0,0,6,0,4.55,4.55,0,0,0,1.06-3.21,4.2,4.2,0,1,0-8.11,0Zm4.05-8.72q3.91-1.06,3.92-4.67a3.75,3.75,0,0,0-1.1-2.9,4.39,4.39,0,0,0-5.63,0,3.81,3.81,0,0,0-1.09,2.91C791.82,1428.09,793.12,1429.65,795.72,1430.36Z"/><path class="cls-2" d="M824.23,1438.59a7.32,7.32,0,0,1-2.09,5.57,9.23,9.23,0,0,1-11.45,0,7.32,7.32,0,0,1-2.09-5.57,6.09,6.09,0,0,1,.79-3.1,7.69,7.69,0,0,1,4.66-3.44q-4.92-1.72-4.92-6.4a6,6,0,0,1,2-4.82,8.74,8.74,0,0,1,10.49,0,6,6,0,0,1,2.06,4.82q0,4.68-4.92,6.4a8.85,8.85,0,0,1,3.84,2.31A5.81,5.81,0,0,1,824.23,1438.59Zm-11.85.49a4.64,4.64,0,0,0,1,3.21,4.5,4.5,0,0,0,6,0,4.6,4.6,0,0,0,1.05-3.21,4.19,4.19,0,1,0-8.1,0Zm4-8.72c2.62-.71,3.92-2.27,3.92-4.67a3.71,3.71,0,0,0-1.1-2.9,4.38,4.38,0,0,0-5.62,0,3.81,3.81,0,0,0-1.1,2.91C812.52,1428.09,813.82,1429.65,816.42,1430.36Z"/><path class="cls-2" d="M843.73,1444.46a7.44,7.44,0,0,1-5.25,1.7,9.22,9.22,0,0,1-4-.83,8.11,8.11,0,0,1-2.94-2.24,10.88,10.88,0,0,1-2.41-7.12,11.42,11.42,0,0,1,1.1-5,9,9,0,0,1,3.24-3.7,9.37,9.37,0,0,1,5.29-1.43,6.79,6.79,0,0,1,4.89,1.67l-.81,2.15a8,8,0,0,0-4.57-1.36,5.11,5.11,0,0,0-4.22,2.18,8.83,8.83,0,0,0-1.68,5.55,8.68,8.68,0,0,0,1.68,5.51,5.18,5.18,0,0,0,4.28,2.14,7.8,7.8,0,0,0,4.6-1.4Z"/><path class="cls-2" d="M861.63,1433.13a3.83,3.83,0,0,0-6.47.31h-3.7V1419.5h12.71v2.56h-9.4v8.2a6.23,6.23,0,0,1,2.67-1.52,4.86,4.86,0,0,1,1.23-.17,7.72,7.72,0,0,1,3.34.71,6.48,6.48,0,0,1,2.43,1.93,9,9,0,0,1,1.9,5.58,10.57,10.57,0,0,1-1.41,5.48,7.63,7.63,0,0,1-4,3.35,10.36,10.36,0,0,1-3.52.51,12.52,12.52,0,0,1-7.66-2.53l1.3-2.71a10.33,10.33,0,0,0,6.55,2.55,4.42,4.42,0,0,0,2.83-1,7.35,7.35,0,0,0,1.17-9.36Z"/><path class="cls-2" d="M883,1429.1v-10.53l3.2-.36v27.51H883v-3a6.07,6.07,0,0,1-5.52,3.42,6.51,6.51,0,0,1-5.93-2.91,13.4,13.4,0,0,1-1.85-7.33q0-5.31,2.7-8.09a6.78,6.78,0,0,1,5.1-2,6.32,6.32,0,0,1,3.54.9A5.06,5.06,0,0,1,883,1429.1Zm0,6.87c0-3-.44-5-1.33-6.07a4.71,4.71,0,0,0-3.8-1.58,4.24,4.24,0,0,0-4.41,3.38,15.56,15.56,0,0,0-.55,4.44q0,7.56,5,7.56Q883,1443.7,883,1436Z"/><path class="cls-2" d="M902.84,1434a6.93,6.93,0,0,1-3.8,1,7.06,7.06,0,0,1-5.41-2.13,7.91,7.91,0,0,1-2-5.64,8.2,8.2,0,0,1,1.19-4.43,7.56,7.56,0,0,1,3.05-2.82,9.1,9.1,0,0,1,4.06-.92,8.53,8.53,0,0,1,6.31,2.27,8.63,8.63,0,0,1,2.27,6.36,12.54,12.54,0,0,1-2.88,7.79l-7.91,10.24h-4.26Zm-3-1.42a4.71,4.71,0,0,0,3.73-1.54,5.67,5.67,0,0,0,1.36-3.92,5.4,5.4,0,0,0-1.37-3.85,5.17,5.17,0,0,0-7.26.06,5.53,5.53,0,0,0-1.39,3.87,5.76,5.76,0,0,0,1.29,3.87A4.5,4.5,0,0,0,899.89,1432.54Z"/><path class="cls-2" d="M923.54,1434a6.89,6.89,0,0,1-3.79,1,7.09,7.09,0,0,1-5.42-2.13,8,8,0,0,1-2-5.64,8.19,8.19,0,0,1,1.18-4.43,7.62,7.62,0,0,1,3-2.82,9.13,9.13,0,0,1,4.06-.92,7.87,7.87,0,0,1,8.58,8.63,12.54,12.54,0,0,1-2.88,7.79l-7.91,10.24h-4.25Zm-2.94-1.42a4.73,4.73,0,0,0,3.73-1.54,5.72,5.72,0,0,0,1.36-3.92,5.45,5.45,0,0,0-1.37-3.85,4.72,4.72,0,0,0-3.62-1.46,4.67,4.67,0,0,0-3.64,1.52,5.49,5.49,0,0,0-1.39,3.87A5.81,5.81,0,0,0,917,1431,4.52,4.52,0,0,0,920.6,1432.54Z"/><path class="cls-2" d="M947.25,1444.46a7.44,7.44,0,0,1-5.25,1.7,9.27,9.27,0,0,1-4-.83,8.15,8.15,0,0,1-2.93-2.24,10.88,10.88,0,0,1-2.41-7.12,11.42,11.42,0,0,1,1.1-5,9,9,0,0,1,3.24-3.7,9.35,9.35,0,0,1,5.29-1.43,6.79,6.79,0,0,1,4.89,1.67l-.81,2.15a8,8,0,0,0-4.57-1.36,5.14,5.14,0,0,0-4.23,2.18,8.83,8.83,0,0,0-1.68,5.55,8.68,8.68,0,0,0,1.68,5.51,5.21,5.21,0,0,0,4.29,2.14,7.82,7.82,0,0,0,4.6-1.4Z"/><path class="cls-2" d="M965,1434a6.93,6.93,0,0,1-3.8,1,7.06,7.06,0,0,1-5.41-2.13,7.91,7.91,0,0,1-2-5.64,8.2,8.2,0,0,1,1.19-4.43A7.56,7.56,0,0,1,958,1420a9.1,9.1,0,0,1,4.06-.92,8.53,8.53,0,0,1,6.31,2.27,8.63,8.63,0,0,1,2.27,6.36,12.54,12.54,0,0,1-2.88,7.79l-7.91,10.24h-4.26Zm-3-1.42a4.71,4.71,0,0,0,3.73-1.54,5.67,5.67,0,0,0,1.36-3.92,5.4,5.4,0,0,0-1.37-3.85,5.17,5.17,0,0,0-7.26.06,5.53,5.53,0,0,0-1.39,3.87,5.76,5.76,0,0,0,1.29,3.87A4.5,4.5,0,0,0,962,1432.54Z"/><path class="cls-2" d="M985.86,1433.13a3.84,3.84,0,0,0-6.48.31h-3.69V1419.5H988.4v2.56H979v8.2a6.23,6.23,0,0,1,2.67-1.52,4.92,4.92,0,0,1,1.23-.17,7.72,7.72,0,0,1,3.34.71,6.48,6.48,0,0,1,2.43,1.93,9,9,0,0,1,1.9,5.58,10.57,10.57,0,0,1-1.41,5.48,7.63,7.63,0,0,1-4,3.35,10.36,10.36,0,0,1-3.52.51,12.52,12.52,0,0,1-7.66-2.53l1.3-2.71a10.34,10.34,0,0,0,6.56,2.55,4.44,4.44,0,0,0,2.83-1,7.39,7.39,0,0,0,1.17-9.36Z"/><path class="cls-2" d="M1010.56,1438.59a7.32,7.32,0,0,1-2.09,5.57,9.23,9.23,0,0,1-11.45,0,7.32,7.32,0,0,1-2.09-5.57,6.09,6.09,0,0,1,.79-3.1,7.69,7.69,0,0,1,4.66-3.44q-4.92-1.72-4.92-6.4a6,6,0,0,1,2-4.82,8.74,8.74,0,0,1,10.49,0,6,6,0,0,1,2.07,4.82c0,3.12-1.65,5.25-4.93,6.4a8.74,8.74,0,0,1,3.84,2.31A5.81,5.81,0,0,1,1010.56,1438.59Zm-11.85.49a4.6,4.6,0,0,0,1,3.21,3.81,3.81,0,0,0,3,1.15,3.87,3.87,0,0,0,3-1.15,4.6,4.6,0,0,0,1-3.21,4.19,4.19,0,1,0-8.1,0Zm4-8.72c2.62-.71,3.92-2.27,3.92-4.67a3.71,3.71,0,0,0-1.1-2.9,4.38,4.38,0,0,0-5.62,0,3.81,3.81,0,0,0-1.1,2.91C998.85,1428.09,1000.15,1429.65,1002.75,1430.36Z"/><path class="cls-2" d="M1028.22,1445.72h-3.29v-7h-11.4v-2.52l10.65-16.71h4v16.77h4.25v2.46h-4.25Zm-3.29-22.53-8.08,13.08h8.08Z"/><path class="cls-2" d="M1035.67,1422.47v-3h15.56v2.55l-7.46,23.67h-4.07l7.34-23.25Z"/><path class="cls-2" d="M1068.47,1434a6.93,6.93,0,0,1-3.8,1,7.06,7.06,0,0,1-5.41-2.13,7.91,7.91,0,0,1-2-5.64,8.2,8.2,0,0,1,1.19-4.43,7.56,7.56,0,0,1,3-2.82,9.06,9.06,0,0,1,4.06-.92,8.54,8.54,0,0,1,6.31,2.27,8.63,8.63,0,0,1,2.27,6.36,12.49,12.49,0,0,1-2.89,7.79l-7.91,10.24h-4.25Zm-3-1.42a4.71,4.71,0,0,0,3.73-1.54,5.67,5.67,0,0,0,1.36-3.92,5.45,5.45,0,0,0-1.37-3.85,5.17,5.17,0,0,0-7.26.06,5.49,5.49,0,0,0-1.39,3.87,5.76,5.76,0,0,0,1.29,3.87A4.5,4.5,0,0,0,1065.52,1432.54Z"/><path class="cls-2" d="M1077.08,1422.47v-3h15.55v2.55l-7.45,23.67h-4.08l7.35-23.25Z"/><path class="cls-2" d="M1110.19,1432.44q0-4.14-3.5-4.14a19.26,19.26,0,0,0-3.65.39,15.56,15.56,0,0,0-2.8.74l-.75-2.36a21.85,21.85,0,0,1,6.83-1.21,8.34,8.34,0,0,1,5.14,1.46,5.26,5.26,0,0,1,1.93,4.5v13.9h-2.65l-.43-2.23a9,9,0,0,1-2.89,1.91,8.65,8.65,0,0,1-3.45.76,5.85,5.85,0,0,1-4.06-1.46,5.33,5.33,0,0,1-1.62-4.15,4.22,4.22,0,0,1,2.11-3.93,9,9,0,0,1,3-1.2c1.07-.22,2.47-.44,4.19-.65l2.57-.3Zm0,9v-4.92l-2.62.37a20.66,20.66,0,0,0-3.8.77,3.11,3.11,0,0,0-2.35,3,3.16,3.16,0,0,0,.84,2.32,3.1,3.1,0,0,0,2.32.87A7.6,7.6,0,0,0,1110.19,1441.42Z"/><path class="cls-2" d="M1131.4,1429.1v-10.53l3.2-.36v27.51h-3.2v-3a6.07,6.07,0,0,1-5.52,3.42,6.52,6.52,0,0,1-5.93-2.91,13.49,13.49,0,0,1-1.85-7.33q0-5.31,2.7-8.09a6.78,6.78,0,0,1,5.1-2,6.28,6.28,0,0,1,3.54.9A5,5,0,0,1,1131.4,1429.1Zm0,6.87c0-3-.44-5-1.33-6.07a4.71,4.71,0,0,0-3.8-1.58,4.25,4.25,0,0,0-4.41,3.38,15.92,15.92,0,0,0-.55,4.44q0,7.56,5,7.56Q1131.4,1443.7,1131.4,1436Z"/><path class="cls-2" d="M1143.86,1444.82a8.1,8.1,0,0,1-3-3.62,12.94,12.94,0,0,1-1-5.14,13.65,13.65,0,0,1,.91-5.14,8.49,8.49,0,0,1,2.7-3.68,6.35,6.35,0,0,1,4-1.4c2.72,0,4.71.94,6,2.8a11.9,11.9,0,0,1,1.9,6.87v1.07h-12.22a9.64,9.64,0,0,0,1.49,5.05,4.64,4.64,0,0,0,4.14,2.07,14.55,14.55,0,0,0,5.15-2l1.06,2.18a9.59,9.59,0,0,1-11.1.94Zm8.42-10.57q-.35-5.93-4.15-5.93c-2.85,0-4.49,2-4.9,5.93Z"/><path class="cls-2" d="M1164.57,1444.82a8.06,8.06,0,0,1-3-3.62,12.94,12.94,0,0,1-1-5.14,13.85,13.85,0,0,1,.91-5.14,8.43,8.43,0,0,1,2.71-3.68,6.32,6.32,0,0,1,4-1.4,6.73,6.73,0,0,1,6,2.8,12,12,0,0,1,1.89,6.87v1.07h-12.21a9.54,9.54,0,0,0,1.48,5.05,4.64,4.64,0,0,0,4.14,2.07,14.55,14.55,0,0,0,5.15-2l1.06,2.18a9.58,9.58,0,0,1-11.09.94Zm8.42-10.57q-.36-5.93-4.15-5.93-4.29,0-4.91,5.93Z"/><rect class="cls-12" x="202.23" y="1308.83" width="4" height="159.77"/><rect class="cls-12" x="127.13" y="1383.03" width="1062.77" height="4"/><rect class="cls-12" x="489.93" y="1308.83" width="4" height="159.77"/><path class="cls-11" d="M973.8,518c-1-59.42-7.82-112.2-20.4-156.87-12.89-45.77-32.18-84.45-57.35-115-25.75-31.25-58.49-55-97.32-70.54-39.91-16-87.53-23.87-141.48-23.4l-.07-8c55-.46,103.64,7.59,144.52,24,40.09,16.06,73.91,40.58,100.53,72.88,25.87,31.4,45.68,71.07,58.87,117.91,12.77,45.33,19.73,98.8,20.7,158.91Z"/><polygon class="cls-11" points="949.74 509.71 977.6 558.1 1005.59 509.78 949.74 509.71"/><path class="cls-11" d="M377.91,1046.54l-7.66-2.3C407.58,920,486.69,924.54,563.2,929c44.13,2.54,89.76,5.17,126.2-17.88,35-22.12,35-64.78,35.06-109.94,0-35.15.09-71.49,16.54-100.93,18.7-33.49,56.16-52.39,114.53-57.81l.74,8c-55.55,5.15-91,22.73-108.29,53.74-15.43,27.63-15.47,62.91-15.52,97,0,23.62-.05,45.92-4.78,66.05-5.41,23-16.53,39.59-34,50.64-38.61,24.43-85.55,21.72-130.94,19.1C486,932.5,413.42,928.32,377.91,1046.54Z"/><polygon class="cls-11" points="349.35 1030.74 364.61 1084.45 403.5 1044.38 349.35 1030.74"/></g></svg>