<svg id="Layer_1" data-name="Layer 1" xmlns="http://www.w3.org/2000/svg" viewBox="0 0 2043 1596"><defs><style>.cls-1{fill:#f5fcff;}.cls-2{fill:#19191a;}.cls-3{fill:#fffae5;}.cls-4{fill:#f5ffe3;}.cls-5{fill:#fff5ff;}.cls-6{opacity:0.8;}.cls-7{fill:#ffd300;}.cls-8{fill:#aee938;}.cls-9{fill:#f966ff;}.cls-10,.cls-11{stroke:#19191a;stroke-miterlimit:10;}.cls-10{stroke-width:0.25px;}</style></defs><rect class="cls-1" x="127.63" y="525.46" width="493.4" height="135.76"/><path class="cls-2" d="M623,663.22H125.63V523.46H623Zm-493.4-4H619V527.46H129.63Z"/><rect class="cls-1" x="127.63" y="661.82" width="493.4" height="135.76"/><path class="cls-2" d="M623,799.58H125.63V659.82H623Zm-493.4-4H619V663.82H129.63Z"/><rect class="cls-1" x="127.63" y="798.19" width="493.4" height="135.76"/><path class="cls-2" d="M623,936H125.63V796.19H623Zm-493.4-4H619V800.19H129.63Z"/><rect class="cls-1" x="127.63" y="934.56" width="493.4" height="135.76"/><path class="cls-2" d="M623,1072.32H125.63V932.56H623Zm-493.4-4H619V936.56H129.63Z"/><rect class="cls-1" x="127.63" y="1070.92" width="493.4" height="135.76"/><path class="cls-2" d="M623,1208.68H125.63V1068.92H623Zm-493.4-4H619V1072.92H129.63Z"/><rect class="cls-3" x="621.03" y="525.46" width="431.45" height="135.76"/><path class="cls-2" d="M1052.48,663.22H621a2,2,0,0,1-2-2V525.46a2,2,0,0,1,2-2h431.45a2,2,0,0,1,2,2V661.22A2,2,0,0,1,1052.48,663.22Zm-429.45-4h427.45V527.46H623Z"/><rect class="cls-3" x="621.03" y="661.82" width="431.45" height="135.76"/><path class="cls-2" d="M1052.48,799.58H621a2,2,0,0,1-2-2V661.82a2,2,0,0,1,2-2h431.45a2,2,0,0,1,2,2V797.58A2,2,0,0,1,1052.48,799.58Zm-429.45-4h427.45V663.82H623Z"/><rect class="cls-3" x="621.03" y="798.19" width="431.45" height="135.76"/><path class="cls-2" d="M1052.48,936H621a2,2,0,0,1-2-2V798.19a2,2,0,0,1,2-2h431.45a2,2,0,0,1,2,2V934A2,2,0,0,1,1052.48,936ZM623,932h427.45V800.19H623Z"/><rect class="cls-3" x="621.03" y="934.56" width="431.45" height="135.76"/><path class="cls-2" d="M1052.48,1072.32H621a2,2,0,0,1-2-2V934.56a2,2,0,0,1,2-2h431.45a2,2,0,0,1,2,2v135.76A2,2,0,0,1,1052.48,1072.32Zm-429.45-4h427.45V936.56H623Z"/><rect class="cls-3" x="621.03" y="1070.44" width="431.45" height="135.76"/><path class="cls-2" d="M1052.48,1208.2H621a2,2,0,0,1-2-2V1070.44a2,2,0,0,1,2-2h431.45a2,2,0,0,1,2,2V1206.2A2,2,0,0,1,1052.48,1208.2Zm-429.45-4h427.45V1072.44H623Z"/><rect class="cls-4" x="1052.48" y="525.46" width="431.45" height="135.76"/><path class="cls-2" d="M1485.92,663.22H1050.48V523.46h435.44Zm-431.44-4h427.44V527.46H1054.48Z"/><rect class="cls-4" x="1052.48" y="661.82" width="431.45" height="135.76"/><path class="cls-2" d="M1485.92,799.58H1050.48V659.82h435.44Zm-431.44-4h427.44V663.82H1054.48Z"/><rect class="cls-4" x="1052.48" y="798.19" width="431.45" height="135.76"/><path class="cls-2" d="M1485.92,936H1050.48V796.19h435.44Zm-431.44-4h427.44V800.19H1054.48Z"/><rect class="cls-4" x="1052.48" y="934.56" width="431.45" height="135.76"/><path class="cls-2" d="M1485.92,1072.32H1050.48V932.56h435.44Zm-431.44-4h427.44V936.56H1054.48Z"/><rect class="cls-4" x="1052.48" y="1070.92" width="431.45" height="135.76"/><path class="cls-2" d="M1485.92,1208.68H1050.48V1068.92h435.44Zm-431.44-4h427.44V1072.92H1054.48Z"/><rect class="cls-5" x="1483.92" y="525.46" width="431.45" height="135.76"/><path class="cls-2" d="M1917.37,663.22H1481.92V523.46h435.45Zm-431.45-4h427.45V527.46H1485.92Z"/><g class="cls-6"><rect class="cls-1" x="127.63" y="389.32" width="493.4" height="135.76"/><path class="cls-2" d="M623,527.08H125.63V387.32H623Zm-493.4-4H619V391.32H129.63Z"/></g><rect class="cls-7" x="621.03" y="389.32" width="431.45" height="135.76"/><path class="cls-2" d="M1052.48,527.08H621a2,2,0,0,1-2-2V389.32a2,2,0,0,1,2-2h431.45a2,2,0,0,1,2,2V525.08A2,2,0,0,1,1052.48,527.08Zm-429.45-4h427.45V391.32H623Z"/><rect class="cls-8" x="1052.48" y="389.32" width="431.45" height="135.76"/><path class="cls-2" d="M1485.92,527.08H1050.48V387.32h435.44Zm-431.44-4h427.44V391.32H1054.48Z"/><rect class="cls-9" x="1483.92" y="389.32" width="431.45" height="135.76"/><path class="cls-2" d="M1917.37,527.08H1481.92V387.32h435.45Zm-431.45-4h427.45V391.32H1485.92Z"/><rect class="cls-5" x="1483.92" y="661.82" width="431.45" height="135.76"/><path class="cls-2" d="M1917.37,799.58H1481.92V659.82h435.45Zm-431.45-4h427.45V663.82H1485.92Z"/><rect class="cls-5" x="1483.92" y="798.19" width="431.45" height="135.76"/><path class="cls-2" d="M1917.37,936H1481.92V796.19h435.45Zm-431.45-4h427.45V800.19H1485.92Z"/><rect class="cls-5" x="1483.92" y="934.56" width="431.45" height="135.76"/><path class="cls-2" d="M1917.37,1072.32H1481.92V932.56h435.45Zm-431.45-4h427.45V936.56H1485.92Z"/><rect class="cls-5" x="1483.92" y="1070.92" width="431.45" height="135.76"/><path class="cls-2" d="M1917.37,1208.68H1481.92V1068.92h435.45Zm-431.45-4h427.45V1072.92H1485.92Z"/><path d="M166.48,609.46V582.21h10.07a30.79,30.79,0,0,1,3.58.18,13.5,13.5,0,0,1,2.87.68,5.93,5.93,0,0,1,2.21,1.33,5.81,5.81,0,0,1,1.34,2.18,9.4,9.4,0,0,1,.49,3.18q0,5.41-4.92,7.12a20.33,20.33,0,0,1,2.49,4.2l4,8.38h-5.49l-3.17-7.1c-1.2-2.55-2-4.06-2.23-4.53-.21,0-.91,0-2.1,0l-4.21,0v11.69ZM177,594.18a6.63,6.63,0,0,0,4.15-1,4,4,0,0,0,1.27-3.32,3.44,3.44,0,0,0-1.28-3,6.62,6.62,0,0,0-3.92-.94h-5.77v8.22H177Z"/><path d="M201.43,609.85a10.15,10.15,0,0,1-7.65-2.83A10.78,10.78,0,0,1,191,599.2a11.13,11.13,0,0,1,2.58-7.73,9,9,0,0,1,7-2.9,8.28,8.28,0,0,1,6.54,2.64,10.17,10.17,0,0,1,2.32,7v1c0,.47,0,.82,0,1H195.94a6.41,6.41,0,0,0,1.57,4.43,5.43,5.43,0,0,0,4.11,1.56,12.86,12.86,0,0,0,6.42-1.74l.69,3.45A13.61,13.61,0,0,1,201.43,609.85ZM196,597.2h8.9a5.77,5.77,0,0,0-1.13-3.82,3.9,3.9,0,0,0-3.14-1.34,4.3,4.3,0,0,0-3.16,1.3A5.88,5.88,0,0,0,196,597.2Z"/><path d="M218.78,609.85a6.65,6.65,0,0,1-4.59-1.56,5.76,5.76,0,0,1-1.75-4.52,5.46,5.46,0,0,1,2.08-4.71,12.65,12.65,0,0,1,6.27-1.93L222,597l1.5-.15,1.32-.13v-1.08a3.69,3.69,0,0,0-.85-2.7,3.58,3.58,0,0,0-2.6-.84,17.83,17.83,0,0,0-6.14,1.39s-.22-.6-.61-1.69-.6-1.64-.62-1.67a19.74,19.74,0,0,1,7.8-1.54q4.11,0,6,1.79t1.87,5.8v13.3h-3.6s-.14-.46-.4-1.24-.39-1.19-.39-1.24a11.66,11.66,0,0,1-3,2.18A8.22,8.22,0,0,1,218.78,609.85Zm1.32-3.45a5.35,5.35,0,0,0,2.94-.8,4.7,4.7,0,0,0,1.79-2V599.7l-1,.08-1,.07a10.29,10.29,0,0,0-4.33,1.12,3,3,0,0,0-1.37,2.74,2.57,2.57,0,0,0,.76,2A3.12,3.12,0,0,0,220.1,606.4Z"/><path d="M242.18,609.85a7.49,7.49,0,0,1-6.27-2.93,12.4,12.4,0,0,1-2.28-7.83,12,12,0,0,1,2.27-7.63,7.52,7.52,0,0,1,6.26-2.89c2.9,0,4.94,1,6.14,3.08q-.18-1.81-.18-3.51v-6.58l4.86-.32v28.22h-4.21l-.54-2.78c-.21.34-.41.62-.58.86a7.1,7.1,0,0,1-.79.84,4.67,4.67,0,0,1-1.13.76,7.3,7.3,0,0,1-1.52.5A9.11,9.11,0,0,1,242.18,609.85Zm1.15-3.69c3.27,0,4.92-2.22,5-6.66q0-3.76-1.26-5.49a4.36,4.36,0,0,0-3.76-1.73,4.15,4.15,0,0,0-3.5,1.76,8.55,8.55,0,0,0-1.31,5.16,8.68,8.68,0,0,0,1.31,5.18A4.16,4.16,0,0,0,243.33,606.16Z"/><path d="M278.92,609.85a7.82,7.82,0,0,1-3.78-.91,6.69,6.69,0,0,1-2.46-2.09l-.48,2.6H268V581.56l4.86-.32v6.31c0,1.23,0,2.62-.11,4.18a7.54,7.54,0,0,1,6.29-3.16,7.26,7.26,0,0,1,6.11,2.9,12.1,12.1,0,0,1,2.22,7.57,12.51,12.51,0,0,1-2.29,7.84A7.37,7.37,0,0,1,278.92,609.85Zm-1.17-3.69a4,4,0,0,0,3.47-1.84,8.89,8.89,0,0,0,1.3-5.21,8.66,8.66,0,0,0-1.27-5.14,4.05,4.05,0,0,0-3.44-1.74c-3.3,0-5,2.22-5,6.66,0,2.5.42,4.33,1.25,5.51A4.24,4.24,0,0,0,277.75,606.16Z"/><path d="M292.32,618.06a22.66,22.66,0,0,1-2.53-.15l-.24-3.77a21.37,21.37,0,0,0,2.17.09,4.11,4.11,0,0,0,4.4-3c.05-.12.3-.82.74-2.1l-8.2-20h5.2l5.36,14.79q.58-2.21,2.66-8.2c1.38-4,2.14-6.19,2.27-6.59h5.2q-8.48,22.42-8.55,22.6a10.61,10.61,0,0,1-3.33,4.91A8.47,8.47,0,0,1,292.32,618.06Z"/><path d="M330.07,609.84a17.23,17.23,0,0,1-8.81-2.27l1.23-4a17.53,17.53,0,0,0,3.79,1.56,14.2,14.2,0,0,0,4,.59,5.5,5.5,0,0,0,3.62-1,3.65,3.65,0,0,0,1.22-3q0-2.57-3.41-3.55l-1.36-.4c-.74-.21-1.43-.42-2.09-.63s-1.11-.36-1.4-.47q-5.46-1.94-5.47-7.2a6.76,6.76,0,0,1,2.63-5.7,11.21,11.21,0,0,1,7-2,16.87,16.87,0,0,1,8.48,2l-1.52,3.68a16.55,16.55,0,0,0-6.75-1.64,6,6,0,0,0-3.39.79,3.14,3.14,0,0,0-1.21,2.63,2.84,2.84,0,0,0,2.24,3q.45.16,2.19.72l2.26.72a12.09,12.09,0,0,1,5.34,3.05,7.38,7.38,0,0,1,1.6,5.06,7,7,0,0,1-2.74,6A12,12,0,0,1,330.07,609.84Z"/><path d="M353.47,609.85q-4.92,0-7.65-2.83t-2.74-7.82a11.13,11.13,0,0,1,2.58-7.73,9,9,0,0,1,7-2.9,8.26,8.26,0,0,1,6.54,2.64,10.13,10.13,0,0,1,2.33,7c0,.21,0,.55,0,1s0,.82,0,1H348a6.41,6.41,0,0,0,1.57,4.43,5.4,5.4,0,0,0,4.11,1.56,12.91,12.91,0,0,0,6.42-1.74l.68,3.45A13.6,13.6,0,0,1,353.47,609.85Zm-5.4-12.65H357a5.77,5.77,0,0,0-1.13-3.82,3.9,3.9,0,0,0-3.14-1.34,4.3,4.3,0,0,0-3.16,1.3A5.93,5.93,0,0,0,348.07,597.2Z"/><path d="M365.53,609.46V589.07h4.08l.64,3.12a6.43,6.43,0,0,1,5.8-3.21,11,11,0,0,1,1.3.07l-.07,4.07a9.71,9.71,0,0,0-1.54-.11,5.19,5.19,0,0,0-4,1.43,5.62,5.62,0,0,0-1.33,4v11.05Z"/><path d="M386,609.46l-8.13-20.39h5.16q.29.84,1.88,5.19t2.11,5.93q1.05,3.07,1.52,4.65s.1-.41.31-1.2.41-1.54.61-2.24.31-1.12.36-1.27.58-1.73,1.7-5.12,1.78-5.37,2-5.94h5.12L391,609.46Z"/><path d="M410.49,609.85q-4.92,0-7.65-2.83t-2.74-7.82a11.13,11.13,0,0,1,2.58-7.73,9,9,0,0,1,7-2.9,8.26,8.26,0,0,1,6.54,2.64,10.18,10.18,0,0,1,2.33,7c0,.21,0,.55,0,1s0,.82,0,1H405a6.41,6.41,0,0,0,1.57,4.43,5.4,5.4,0,0,0,4.11,1.56,12.91,12.91,0,0,0,6.42-1.74l.68,3.45A13.6,13.6,0,0,1,410.49,609.85Zm-5.4-12.65H414a5.77,5.77,0,0,0-1.13-3.82,3.9,3.9,0,0,0-3.14-1.34,4.3,4.3,0,0,0-3.16,1.3A5.88,5.88,0,0,0,405.09,597.2Z"/><path d="M422.55,609.46V589.07h4.08l.63,3.12a6.46,6.46,0,0,1,5.81-3.21,11,11,0,0,1,1.3.07l-.07,4.07a9.71,9.71,0,0,0-1.54-.11,5.19,5.19,0,0,0-4,1.43,5.57,5.57,0,0,0-1.33,4v11.05Z"/><path d="M178.46,744.66a12.27,12.27,0,0,1-9.44-3.75q-3.5-3.75-3.49-10.35a13.94,13.94,0,0,1,3.65-10.07,12.62,12.62,0,0,1,9.54-3.79,14.18,14.18,0,0,1,8.08,2.21l-1.58,3.8a12.12,12.12,0,0,0-6.38-2,7.21,7.21,0,0,0-5.93,2.7,11.17,11.17,0,0,0-2.18,7.25q0,4.71,2.1,7.29a7.33,7.33,0,0,0,6,2.58,14.81,14.81,0,0,0,6.77-1.71l.67,3.93A15.06,15.06,0,0,1,178.46,744.66Z"/><path d="M195.66,744.66a6.61,6.61,0,0,1-4.59-1.57,5.73,5.73,0,0,1-1.75-4.52,5.45,5.45,0,0,1,2.08-4.7,12.65,12.65,0,0,1,6.27-1.94l1.24-.15,1.5-.15c.56,0,1-.09,1.32-.13v-1.07a3.66,3.66,0,0,0-.85-2.7,3.58,3.58,0,0,0-2.6-.85,17.93,17.93,0,0,0-6.14,1.4s-.22-.6-.61-1.69-.6-1.65-.62-1.67a19.56,19.56,0,0,1,7.8-1.54c2.74,0,4.74.59,6,1.79s1.87,3.12,1.87,5.8v13.3H203s-.14-.46-.4-1.24-.39-1.2-.39-1.25a11.43,11.43,0,0,1-3,2.18A8.07,8.07,0,0,1,195.66,744.66Zm1.32-3.45a5.27,5.27,0,0,0,2.94-.81,4.7,4.7,0,0,0,1.79-2v-3.93l-1,.07-1,.08a10.16,10.16,0,0,0-4.33,1.11,3,3,0,0,0-1.37,2.75,2.55,2.55,0,0,0,.76,2A3.08,3.08,0,0,0,197,741.21Z"/><path d="M211.47,752.75V723.88h4.18l.52,2.86a6.87,6.87,0,0,1,2.66-2.5,7.75,7.75,0,0,1,3.7-.88,7.26,7.26,0,0,1,4.41,1.39,8.54,8.54,0,0,1,2.88,3.8,14.11,14.11,0,0,1,1,5.42,12.26,12.26,0,0,1-2.3,7.71,7.39,7.39,0,0,1-6.2,3,7.89,7.89,0,0,1-3.5-.77,7.56,7.56,0,0,1-2.62-2.09c.09,1.78.14,2.79.14,3v7.7Zm9.8-11.8a3.94,3.94,0,0,0,3.42-1.82,9,9,0,0,0,1.26-5.19,8.72,8.72,0,0,0-1.27-5.16,4.1,4.1,0,0,0-3.5-1.73q-4.83,0-4.88,6.57c0,2.52.41,4.38,1.25,5.56A4.25,4.25,0,0,0,221.27,741Z"/><path d="M240.08,744.66a6.61,6.61,0,0,1-4.59-1.57,5.73,5.73,0,0,1-1.75-4.52,5.45,5.45,0,0,1,2.08-4.7,12.65,12.65,0,0,1,6.27-1.94l1.24-.15,1.5-.15c.56,0,1-.09,1.32-.13v-1.07a3.66,3.66,0,0,0-.85-2.7,3.58,3.58,0,0,0-2.6-.85,17.93,17.93,0,0,0-6.14,1.4s-.22-.6-.61-1.69-.6-1.65-.62-1.67a19.56,19.56,0,0,1,7.8-1.54c2.74,0,4.74.59,6,1.79S251,728.29,251,731v13.3h-3.6s-.14-.46-.4-1.24-.39-1.2-.39-1.25a11.43,11.43,0,0,1-3,2.18A8.07,8.07,0,0,1,240.08,744.66Zm1.32-3.45a5.27,5.27,0,0,0,2.94-.81,4.7,4.7,0,0,0,1.79-2v-3.93l-1,.07-1,.08a10.16,10.16,0,0,0-4.33,1.11,3,3,0,0,0-1.37,2.75,2.55,2.55,0,0,0,.76,2A3.08,3.08,0,0,0,241.4,741.21Z"/><path d="M264.82,744.66a9.52,9.52,0,0,1-7.29-2.78q-2.59-2.79-2.6-8,0-5,2.74-7.78a9.68,9.68,0,0,1,7.2-2.76,11.17,11.17,0,0,1,6.05,1.54l-1.15,3.47a10.21,10.21,0,0,0-4.69-1.32,4.74,4.74,0,0,0-3.89,1.76,8,8,0,0,0-1.42,5.14,8.31,8.31,0,0,0,1.4,5.2,4.78,4.78,0,0,0,4,1.78,9.42,9.42,0,0,0,5.14-1.58l.47,3.69a9.13,9.13,0,0,1-2.66,1.23A12.45,12.45,0,0,1,264.82,744.66Z"/><path d="M274.71,720.91v-4.16h4.88v4.16Zm0,23.36V723.88h4.86v20.39Z"/><path d="M292.78,744.55a10.62,10.62,0,0,1-3.46-.49,4.51,4.51,0,0,1-2.16-1.55,6.7,6.7,0,0,1-1.11-2.5,16.88,16.88,0,0,1-.32-3.55v-9.63h-3.34l.18-2.64,3.49-.31,1.56-5.53,3,0v5.55h5.07v3h-5.07v9.72a6,6,0,0,0,.67,3.3,2.77,2.77,0,0,0,2.47,1,14.25,14.25,0,0,0,2.26-.19l.13,3.49-.46.08-.79.15a8.73,8.73,0,0,1-1,.12A10.9,10.9,0,0,1,292.78,744.55Z"/><path d="M300.61,752.86a22.62,22.62,0,0,1-2.52-.15l-.24-3.76A21.23,21.23,0,0,0,300,749a4.11,4.11,0,0,0,4.39-3l.75-2.1-8.21-20h5.2l5.36,14.79q.6-2.22,2.67-8.2t2.27-6.59h5.19l-8.55,22.6a10.73,10.73,0,0,1-3.32,4.91A8.52,8.52,0,0,1,300.61,752.86Z"/><path d="M166.61,879.08V851.89h16.47l-.2,4H171.64v7h10.68v4H171.64v8.18h11.65l-.17,4Z"/><path d="M185.44,879.08l7.26-10.45-6.91-10h5.51l4.53,6.94,4.66-6.94h5.42l-7,9.93,7.2,10.47h-5.57l-4.75-7.41-4.9,7.41Z"/><path d="M209,887.56V858.68h4.17l.52,2.86a6.91,6.91,0,0,1,2.66-2.49,7.75,7.75,0,0,1,3.7-.89,7.27,7.27,0,0,1,4.41,1.4,8.6,8.6,0,0,1,2.89,3.79,14.32,14.32,0,0,1,1,5.43,12.29,12.29,0,0,1-2.29,7.71,7.44,7.44,0,0,1-6.21,3,7.76,7.76,0,0,1-3.5-.78,7.54,7.54,0,0,1-2.62-2.08q.15,2.67.15,3v7.7Zm9.79-11.81a3.93,3.93,0,0,0,3.42-1.81,9.1,9.1,0,0,0,1.26-5.2,8.72,8.72,0,0,0-1.26-5.16,4.11,4.11,0,0,0-3.51-1.72c-3.22,0-4.84,2.19-4.88,6.57q0,3.78,1.25,5.55A4.27,4.27,0,0,0,218.8,875.75Z"/><path d="M232.42,855.72v-4.16h4.88v4.16Zm0,23.36v-20.4h4.86v20.4Z"/><path d="M242.37,879.08v-20.4h4.08l.63,3.12a6.45,6.45,0,0,1,5.81-3.21,9.09,9.09,0,0,1,1.3.08l-.08,4.06a9.63,9.63,0,0,0-1.54-.11,5.22,5.22,0,0,0-4,1.43,5.61,5.61,0,0,0-1.32,4v11.06Z"/><path d="M258.23,887.67a22.62,22.62,0,0,1-2.52-.15l-.24-3.77a21.23,21.23,0,0,0,2.17.09,4.94,4.94,0,0,0,2.71-.66A4.82,4.82,0,0,0,262,880.8q.08-.18.75-2.1l-8.2-20h5.19l5.36,14.79q.6-2.21,2.67-8.2c1.38-4,2.13-6.19,2.27-6.59h5.19q-8.47,22.43-8.55,22.6a10.68,10.68,0,0,1-3.32,4.91A8.46,8.46,0,0,1,258.23,887.67Z"/><path d="M166.61,1013.88V986.7h8.48q5.4,0,8,1.58a5.61,5.61,0,0,1,2.65,5.25,9.18,9.18,0,0,1-.07,1.17,6.52,6.52,0,0,1-.33,1.3,5.57,5.57,0,0,1-.69,1.33,5.49,5.49,0,0,1-1.19,1.16,5.81,5.81,0,0,1-1.78.88,6.66,6.66,0,0,1,3.86,2.35,7.61,7.61,0,0,1-1.38,10.14c-1.82,1.35-4.32,2-7.53,2Zm5-16h4.3c3.33,0,5-1.26,5-3.8a3.05,3.05,0,0,0-1.44-2.93,9.85,9.85,0,0,0-4.57-.8h-3.28Zm0,12.32H176c3.86,0,5.79-1.5,5.79-4.52a3.74,3.74,0,0,0-1.45-3.29,8,8,0,0,0-4.47-1h-4.23Z"/><path d="M190.9,1013.88V993.49H195l.63,3.12a6.44,6.44,0,0,1,5.81-3.21,9.3,9.3,0,0,1,1.3.07l-.08,4.06a10.94,10.94,0,0,0-1.54-.11,5.26,5.26,0,0,0-4,1.43,5.65,5.65,0,0,0-1.32,4v11.06Z"/><path d="M214.26,1014.27a9,9,0,0,1-7.13-2.93,12.85,12.85,0,0,1,0-15.5,9.42,9.42,0,0,1,7.33-2.85,9.1,9.1,0,0,1,7.15,2.9,12.85,12.85,0,0,1,0,15.5A9.41,9.41,0,0,1,214.26,1014.27Zm.13-3.69a4.22,4.22,0,0,0,3.71-1.8,11.4,11.4,0,0,0,0-10.34,4.29,4.29,0,0,0-3.75-1.78,4.24,4.24,0,0,0-3.72,1.79,9,9,0,0,0-1.25,5.19,8.89,8.89,0,0,0,1.26,5.14A4.28,4.28,0,0,0,214.39,1010.58Z"/><path d="M231.92,1013.88l-6.18-20.39h5l3.91,15c.09-.28.79-2.71,2.12-7.29s2.07-7.13,2.24-7.66h5q.24.78,2.14,7.59t2,7.31l4-14.9H257l-6.38,20.39h-4.84q-.24-.79-2.26-8.07c-1.34-4.85-2.07-7.46-2.18-7.85-.24.9-1,3.63-2.36,8.17s-2.1,7.12-2.31,7.75Z"/><path d="M266.26,1014.25a14.51,14.51,0,0,1-7.21-1.54l.5-3.65a14.91,14.91,0,0,0,3.12,1.19,12.61,12.61,0,0,0,3.45.53,4.5,4.5,0,0,0,2.51-.6,2,2,0,0,0,.92-1.77,1.94,1.94,0,0,0-.85-1.67,15.22,15.22,0,0,0-3.21-1.52l-1.06-.39a11,11,0,0,1-4.07-2.44,5.22,5.22,0,0,1-1.24-3.65,5,5,0,0,1,2-4.27,9.34,9.34,0,0,1,5.62-1.48,15.24,15.24,0,0,1,6.84,1.46l-1.2,3.36a13.19,13.19,0,0,0-5.55-1.35,4.45,4.45,0,0,0-2.29.49,1.63,1.63,0,0,0-.83,1.49,1.69,1.69,0,0,0,.8,1.48,17.47,17.47,0,0,0,3.12,1.38l.48.17.63.24a10.38,10.38,0,0,1,4.12,2.44,5.22,5.22,0,0,1,1.32,3.7,5.79,5.79,0,0,1-2.08,4.73A9,9,0,0,1,266.26,1014.25Z"/><path d="M287.45,1014.27a10.15,10.15,0,0,1-7.65-2.83,10.78,10.78,0,0,1-2.74-7.82,11.17,11.17,0,0,1,2.58-7.74,9.05,9.05,0,0,1,7-2.89,8.31,8.31,0,0,1,6.54,2.63,10.2,10.2,0,0,1,2.32,7v1c0,.47,0,.82,0,1H282a6.39,6.39,0,0,0,1.57,4.42,5.4,5.4,0,0,0,4.11,1.57,12.86,12.86,0,0,0,6.42-1.74l.69,3.45A13.63,13.63,0,0,1,287.45,1014.27Zm-5.4-12.65H291a5.81,5.81,0,0,0-1.13-3.83,3.9,3.9,0,0,0-3.14-1.33,4.26,4.26,0,0,0-3.16,1.3A5.91,5.91,0,0,0,282.05,1001.62Z"/><path d="M299.51,1013.88V993.49h4.09l.63,3.12A6.44,6.44,0,0,1,310,993.4a9,9,0,0,1,1.29.07l-.07,4.06a11.05,11.05,0,0,0-1.54-.11,5.26,5.26,0,0,0-4,1.43,5.65,5.65,0,0,0-1.32,4v11.06Z"/><path d="M336.66,1014.27a12.26,12.26,0,0,1-9.44-3.75q-3.5-3.75-3.49-10.35,0-6.27,3.65-10.07a12.61,12.61,0,0,1,9.54-3.79,14.2,14.2,0,0,1,8.07,2.21l-1.57,3.8a12.13,12.13,0,0,0-6.39-2,7.22,7.22,0,0,0-5.93,2.7,11.23,11.23,0,0,0-2.18,7.25c0,3.14.71,5.57,2.11,7.29a7.29,7.29,0,0,0,6,2.58,14.74,14.74,0,0,0,6.77-1.71l.67,3.94A15.12,15.12,0,0,1,336.66,1014.27Z"/><path d="M357.24,1014.27a9.06,9.06,0,0,1-7.13-2.93,12.89,12.89,0,0,1,0-15.5,9.43,9.43,0,0,1,7.33-2.85,9.12,9.12,0,0,1,7.16,2.9,12.87,12.87,0,0,1,0,15.5A9.41,9.41,0,0,1,357.24,1014.27Zm.13-3.69a4.22,4.22,0,0,0,3.71-1.8,11.4,11.4,0,0,0,0-10.34,4.8,4.8,0,0,0-7.47,0,9.08,9.08,0,0,0-1.25,5.19,8.89,8.89,0,0,0,1.26,5.14A4.28,4.28,0,0,0,357.37,1010.58Z"/><path d="M371.15,1013.88V993.49h3.94l.55,2.6c.25-.31.49-.59.72-.83a7.24,7.24,0,0,1,.95-.81,5.92,5.92,0,0,1,1.28-.76,9.08,9.08,0,0,1,1.67-.5,11,11,0,0,1,2.12-.2,6.9,6.9,0,0,1,3.89,1,5.63,5.63,0,0,1,2.05,2.3,7.28,7.28,0,0,1,2.84-2.43A8.65,8.65,0,0,1,395,993q3.51,0,5.15,2t1.65,5.89v13H397V1002.3a10.3,10.3,0,0,0-.66-4.31,2.54,2.54,0,0,0-2.52-1.33,4.24,4.24,0,0,0-4.08,2.56,8.93,8.93,0,0,0-.7,2.73v11.93h-4.87v-11.8a8.84,8.84,0,0,0-.72-4.06,2.71,2.71,0,0,0-2.62-1.34,4.51,4.51,0,0,0-2.65.78,5,5,0,0,0-1.69,2A20.83,20.83,0,0,0,376,1004v9.89Z"/><path d="M406.61,1022.36V993.49h4.18l.52,2.86a6.8,6.8,0,0,1,2.66-2.5,7.75,7.75,0,0,1,3.7-.88,7.26,7.26,0,0,1,4.41,1.39,8.54,8.54,0,0,1,2.88,3.8,14.11,14.11,0,0,1,1,5.42,12.26,12.26,0,0,1-2.3,7.71,7.39,7.39,0,0,1-6.2,3,7.89,7.89,0,0,1-3.5-.77,7.56,7.56,0,0,1-2.62-2.09c.09,1.78.14,2.79.14,3v7.7Zm9.8-11.8a3.94,3.94,0,0,0,3.42-1.82,9,9,0,0,0,1.26-5.19,8.72,8.72,0,0,0-1.27-5.16,4.1,4.1,0,0,0-3.5-1.73q-4.83,0-4.88,6.57c0,2.52.41,4.38,1.25,5.56A4.25,4.25,0,0,0,416.41,1010.56Z"/><path d="M435.22,1014.27a6.61,6.61,0,0,1-4.59-1.57,5.72,5.72,0,0,1-1.75-4.51,5.45,5.45,0,0,1,2.08-4.71,12.65,12.65,0,0,1,6.27-1.94l1.24-.15,1.5-.14,1.32-.13V1000a3.66,3.66,0,0,0-.85-2.7,3.58,3.58,0,0,0-2.6-.84,17.88,17.88,0,0,0-6.14,1.39s-.22-.6-.61-1.69-.6-1.65-.62-1.67a19.56,19.56,0,0,1,7.8-1.54q4.11,0,6,1.79c1.25,1.19,1.87,3.13,1.87,5.8v13.3h-3.6s-.14-.46-.4-1.24-.39-1.2-.39-1.25a11.2,11.2,0,0,1-3,2.18A8.07,8.07,0,0,1,435.22,1014.27Zm1.32-3.45a5.27,5.27,0,0,0,2.94-.81,4.67,4.67,0,0,0,1.79-2v-3.94l-1,.08-1,.07a10.16,10.16,0,0,0-4.33,1.11,3,3,0,0,0-1.37,2.75,2.53,2.53,0,0,0,.76,2A3.08,3.08,0,0,0,436.54,1010.82Z"/><path d="M459.18,1014.16a10.36,10.36,0,0,1-3.46-.49,4.51,4.51,0,0,1-2.16-1.55,6.7,6.7,0,0,1-1.11-2.5,16.88,16.88,0,0,1-.32-3.55v-9.63h-3.34l.18-2.63,3.49-.32L454,988l3,0v5.55h5.06v3H457v9.72a6.09,6.09,0,0,0,.67,3.31,2.77,2.77,0,0,0,2.46,1,14.27,14.27,0,0,0,2.27-.19l.13,3.49-.46.08-.79.15a8.73,8.73,0,0,1-1,.12Q459.69,1014.16,459.18,1014.16Z"/><path d="M466,990.52v-4.16h4.88v4.16Zm0,23.36V993.49h4.86v20.39Z"/><path d="M486.9,1014.27a7.72,7.72,0,0,1-3.78-.92,6.67,6.67,0,0,1-2.46-2.08l-.48,2.59H476V986l4.86-.32V992c0,1.22,0,2.61-.11,4.17A7.55,7.55,0,0,1,487,993a7.25,7.25,0,0,1,6.11,2.89,12.12,12.12,0,0,1,2.22,7.57,12.49,12.49,0,0,1-2.29,7.84A7.36,7.36,0,0,1,486.9,1014.27Zm-1.17-3.69a4,4,0,0,0,3.47-1.84,9,9,0,0,0,1.3-5.21,8.71,8.71,0,0,0-1.27-5.14,4.06,4.06,0,0,0-3.44-1.75c-3.3,0-5,2.22-5,6.67a9.69,9.69,0,0,0,1.25,5.51A4.24,4.24,0,0,0,485.73,1010.58Z"/><path d="M499.42,990.52v-4.16h4.88v4.16Zm0,23.36V993.49h4.86v20.39Z"/><path d="M516.49,1014.16a10.53,10.53,0,0,1-3.48-.49,4.57,4.57,0,0,1-2.18-1.57,6.54,6.54,0,0,1-1.11-2.56,18.21,18.21,0,0,1-.31-3.69V986l4.86-.32v20.09a7.3,7.3,0,0,0,.65,3.73,2.84,2.84,0,0,0,2.52,1,16.93,16.93,0,0,0,2.36-.21l.13,3.47-.46.1-.83.16-1,.12A9.4,9.4,0,0,1,516.49,1014.16Z"/><path d="M522.45,990.52v-4.16h4.88v4.16Zm0,23.36V993.49h4.86v20.39Z"/><path d="M540.52,1014.16a10.4,10.4,0,0,1-3.46-.49,4.51,4.51,0,0,1-2.16-1.55,6.54,6.54,0,0,1-1.1-2.5,16.17,16.17,0,0,1-.33-3.55v-9.63h-3.34l.19-2.63,3.48-.32,1.56-5.53,3,0v5.55h5.07v3h-5.07v9.72a6.09,6.09,0,0,0,.67,3.31,2.8,2.8,0,0,0,2.47,1,14.15,14.15,0,0,0,2.26-.19l.13,3.49-.45.08-.8.15a8.51,8.51,0,0,1-1,.12C541.24,1014.14,540.87,1014.16,540.52,1014.16Z"/><path d="M548.35,1022.47a22.62,22.62,0,0,1-2.52-.15l-.24-3.76a21.37,21.37,0,0,0,2.17.09,4.11,4.11,0,0,0,4.4-3c0-.13.29-.83.74-2.1l-8.2-20h5.19l5.36,14.79c.4-1.47,1.29-4.21,2.67-8.2l2.27-6.59h5.2q-8.49,22.41-8.56,22.6a10.66,10.66,0,0,1-3.32,4.91A8.52,8.52,0,0,1,548.35,1022.47Z"/><path d="M163.62,1148.69l10-27.2h5.48l9.85,27.2h-5.16L181.1,1141h-9.52l-2.71,7.68Zm9.22-11.43h7q-3.34-10.71-3.43-11.06Z"/><path d="M200.28,1149.08a9.49,9.49,0,0,1-7.28-2.79q-2.61-2.77-2.61-8c0-3.34.92-5.93,2.74-7.77a9.71,9.71,0,0,1,7.21-2.76,11.19,11.19,0,0,1,6,1.54l-1.15,3.47a10.22,10.22,0,0,0-4.7-1.32,4.72,4.72,0,0,0-3.88,1.76,8,8,0,0,0-1.42,5.14,8.24,8.24,0,0,0,1.4,5.2,4.76,4.76,0,0,0,4,1.78,9.44,9.44,0,0,0,5.14-1.58l.46,3.69a9,9,0,0,1-2.65,1.23A13,13,0,0,1,200.28,1149.08Z"/><path d="M218.84,1149.08a9.46,9.46,0,0,1-7.28-2.79q-2.61-2.77-2.61-8,0-5,2.74-7.77a9.68,9.68,0,0,1,7.2-2.76,11.17,11.17,0,0,1,6.05,1.54l-1.15,3.47a10.18,10.18,0,0,0-4.69-1.32,4.74,4.74,0,0,0-3.89,1.76,8,8,0,0,0-1.42,5.14,8.31,8.31,0,0,0,1.4,5.2,4.78,4.78,0,0,0,4,1.78,9.39,9.39,0,0,0,5.14-1.58l.47,3.69a9.13,9.13,0,0,1-2.66,1.23A12.89,12.89,0,0,1,218.84,1149.08Z"/><path d="M237.89,1149.08a10.19,10.19,0,0,1-7.65-2.83,10.8,10.8,0,0,1-2.74-7.82,11.17,11.17,0,0,1,2.58-7.74,9,9,0,0,1,7-2.89,8.28,8.28,0,0,1,6.54,2.63,10.2,10.2,0,0,1,2.32,7v1c0,.47,0,.81,0,1H232.4a6.41,6.41,0,0,0,1.57,4.43,5.4,5.4,0,0,0,4.11,1.57,12.77,12.77,0,0,0,6.42-1.75l.69,3.46A13.61,13.61,0,0,1,237.89,1149.08Zm-5.39-12.66h8.9a5.78,5.78,0,0,0-1.13-3.82,3.9,3.9,0,0,0-3.14-1.33,4.29,4.29,0,0,0-3.16,1.29A5.9,5.9,0,0,0,232.5,1136.42Z"/><path d="M256.45,1149.06a14.55,14.55,0,0,1-7.22-1.54l.5-3.66a14.77,14.77,0,0,0,3.12,1.2,13,13,0,0,0,3.45.53,4.46,4.46,0,0,0,2.51-.6,2,2,0,0,0,.92-1.78,2,2,0,0,0-.84-1.67,16.48,16.48,0,0,0-3.22-1.52c-.54-.19-.9-.32-1.06-.39a10.85,10.85,0,0,1-4.06-2.44,5.13,5.13,0,0,1-1.24-3.64,5,5,0,0,1,2-4.27,9.28,9.28,0,0,1,5.61-1.48,15.18,15.18,0,0,1,6.85,1.46l-1.21,3.36a13.19,13.19,0,0,0-5.55-1.35,4.48,4.48,0,0,0-2.29.49,1.6,1.6,0,0,0-.82,1.49,1.68,1.68,0,0,0,.8,1.48,17.62,17.62,0,0,0,3.11,1.38l.48.16c.28.1.49.18.64.25a10.34,10.34,0,0,1,4.11,2.44,5.21,5.21,0,0,1,1.32,3.7,5.76,5.76,0,0,1-2.08,4.73A9.07,9.07,0,0,1,256.45,1149.06Z"/><path d="M274.73,1149.06a14.52,14.52,0,0,1-7.22-1.54l.5-3.66a14.55,14.55,0,0,0,3.12,1.2,13,13,0,0,0,3.45.53,4.5,4.5,0,0,0,2.51-.6,2.06,2.06,0,0,0,.92-1.78,2,2,0,0,0-.84-1.67A16.79,16.79,0,0,0,274,1140c-.55-.19-.9-.32-1.06-.39a10.76,10.76,0,0,1-4.06-2.44,5.14,5.14,0,0,1-1.25-3.64,5,5,0,0,1,2-4.27,9.28,9.28,0,0,1,5.61-1.48,15.11,15.11,0,0,1,6.84,1.46l-1.2,3.36a13.19,13.19,0,0,0-5.55-1.35,4.45,4.45,0,0,0-2.29.49,1.61,1.61,0,0,0-.83,1.49,1.7,1.7,0,0,0,.8,1.48,17.47,17.47,0,0,0,3.12,1.38l.48.16c.27.1.48.18.63.25a10.38,10.38,0,0,1,4.12,2.44,5.21,5.21,0,0,1,1.32,3.7,5.79,5.79,0,0,1-2.08,4.73A9.07,9.07,0,0,1,274.73,1149.06Z"/><path d="M297,1148.69v-27.18h16.09l-.19,4H302v7.72h10.37v4H302v11.52Z"/><path d="M317,1148.69V1128.3h4.08l.63,3.11a6.46,6.46,0,0,1,5.81-3.21,9,9,0,0,1,1.3.08l-.07,4.06a11.05,11.05,0,0,0-1.54-.11,5.23,5.23,0,0,0-4,1.43,5.64,5.64,0,0,0-1.33,4v11.06Z"/><path d="M340.37,1149.08a9,9,0,0,1-7.12-2.93,12.87,12.87,0,0,1,0-15.51,9.4,9.4,0,0,1,7.33-2.84,9.08,9.08,0,0,1,7.15,2.9,12.82,12.82,0,0,1,0,15.49A9.37,9.37,0,0,1,340.37,1149.08Zm.13-3.69a4.21,4.21,0,0,0,3.71-1.8,11.32,11.32,0,0,0,0-10.34,4.8,4.8,0,0,0-7.47,0,9,9,0,0,0-1.25,5.19,8.91,8.91,0,0,0,1.26,5.14A4.29,4.29,0,0,0,340.5,1145.39Z"/><path d="M354.29,1148.69V1128.3h3.93l.56,2.59c.25-.3.48-.58.71-.82a9,9,0,0,1,.95-.82,6.6,6.6,0,0,1,1.28-.75,8.57,8.57,0,0,1,1.67-.5,10.24,10.24,0,0,1,2.12-.2,6.82,6.82,0,0,1,3.89,1,5.63,5.63,0,0,1,2.05,2.3,7.35,7.35,0,0,1,2.84-2.43,8.7,8.7,0,0,1,3.88-.85c2.34,0,4.05.66,5.15,2s1.64,3.28,1.64,5.88v13h-4.88v-11.58a10.3,10.3,0,0,0-.66-4.31,2.53,2.53,0,0,0-2.51-1.33,4.23,4.23,0,0,0-4.09,2.56,9.06,9.06,0,0,0-.7,2.73v11.93h-4.86v-11.8a8.74,8.74,0,0,0-.73-4.07,2.7,2.7,0,0,0-2.61-1.33,4.54,4.54,0,0,0-2.66.78,4.93,4.93,0,0,0-1.68,2,20.1,20.1,0,0,0-.43,4.49v9.89Z"/><path class="cls-10" d="M663.72,597.05l6.5-11.33h2.94L665,599.61v9.22h-2.74v-9.15l-7.8-14h2.93Z"/><path class="cls-10" d="M680.54,609.19a7.57,7.57,0,0,1-5.89-2.37,9.35,9.35,0,0,1-2.14-6.5,9.77,9.77,0,0,1,2.07-6.47,6.93,6.93,0,0,1,5.47-2.52,6.33,6.33,0,0,1,5.06,2.18,8.65,8.65,0,0,1,1.86,5.82V600c0,.33,0,.57,0,.72H675.19a6.76,6.76,0,0,0,1.51,4.55,5,5,0,0,0,3.93,1.64,11.6,11.6,0,0,0,5.45-1.44l.41,2.11A11.2,11.2,0,0,1,680.54,609.19Zm2.63-14.34a3.91,3.91,0,0,0-3.15-1.36,4.17,4.17,0,0,0-3.26,1.41,6.5,6.5,0,0,0-1.49,3.87h9.05A5.93,5.93,0,0,0,683.17,594.85Z"/><path class="cls-10" d="M695.71,609.19a13.14,13.14,0,0,1-3.23-.37,8.43,8.43,0,0,1-2.4-1l.33-2.21a10.82,10.82,0,0,0,5.13,1.39q3.81,0,3.92-2.68a2.2,2.2,0,0,0-.81-1.8,11.63,11.63,0,0,0-3.19-1.47l-1.3-.45a7.19,7.19,0,0,1-3.21-1.86,4.32,4.32,0,0,1,.64-6.11,6.77,6.77,0,0,1,4.43-1.33,12.31,12.31,0,0,1,5.3,1.13l-.77,2a11.82,11.82,0,0,0-4.53-1,4.46,4.46,0,0,0-2.57.64,2.11,2.11,0,0,0-.93,1.83,1.87,1.87,0,0,0,.67,1.53,10.42,10.42,0,0,0,2.69,1.22c.34.12.78.27,1.3.43a8.9,8.9,0,0,1,3.67,2,4.36,4.36,0,0,1,1.08,3.11,4.47,4.47,0,0,1-1.71,3.68A7.13,7.13,0,0,1,695.71,609.19Z"/><path class="cls-10" d="M672,738h-2.65v5.8h-2.63V738H656.18v-2.39l10.26-15.18h2.93v15.31h2.87Zm-5.28-14-7.81,11.77h7.81Z"/><path class="cls-10" d="M701.08,743.83h-3.31l-8.84-11-2.11,1.86v9.17H684.1V720.72h2.72v11.35L697,720.72h3.4L691,731.13Z"/><path class="cls-10" d="M703.52,720.72h6.63c3,0,5.17.46,6.6,1.36a4.75,4.75,0,0,1,2.15,4.33,6.36,6.36,0,0,1-.06.87,6.55,6.55,0,0,1-.28,1.1,4.52,4.52,0,0,1-.62,1.22,4.65,4.65,0,0,1-1.14,1.11,6.31,6.31,0,0,1-1.78.89,5.6,5.6,0,0,1,3.53,2,5.8,5.8,0,0,1,1.21,3.68,6,6,0,0,1-2.06,4.86q-2.06,1.73-6.12,1.72h-8.06Zm2.7,9.94h5a6.5,6.5,0,0,0,3.65-.84,3.38,3.38,0,0,0,1.24-3,3.12,3.12,0,0,0-1.48-3A9.87,9.87,0,0,0,710,723h-3.79Zm0,2.17v8.78h4.83a7.43,7.43,0,0,0,4.41-1.08,3.94,3.94,0,0,0,1.47-3.39,3.59,3.59,0,0,0-1.59-3.35,9.82,9.82,0,0,0-4.94-1Z"/><path class="cls-10" d="M731.91,747.24h-2.25l10.56-26.31h2.29Z"/><path class="cls-10" d="M773.46,732.25q0,5.64-3.2,8.61t-8.94,3h-6.86V720.72h6.41a18.24,18.24,0,0,1,5.17.68,11.15,11.15,0,0,1,4,2.06,9,9,0,0,1,2.57,3.61A14,14,0,0,1,773.46,732.25Zm-2.89.08c0-3.23-.84-5.58-2.5-7.05s-4.1-2.2-7.28-2.2h-3.63v18.39h4.08q4.56,0,7-2.3C769.77,737.63,770.57,735.35,770.57,732.33Z"/><path class="cls-10" d="M792.52,735.25a9.59,9.59,0,0,1-2.12,6.46,7.32,7.32,0,0,1-5.88,2.48,7.15,7.15,0,0,1-5.74-2.5,10.8,10.8,0,0,1,0-12.89,7.34,7.34,0,0,1,5.87-2.47,7.16,7.16,0,0,1,5.77,2.48A9.66,9.66,0,0,1,792.52,735.25Zm-13.17,0a8,8,0,0,0,1.35,4.88,4.59,4.59,0,0,0,3.95,1.84,4.44,4.44,0,0,0,3.86-1.83,8.32,8.32,0,0,0,1.31-4.92,8.4,8.4,0,0,0-1.29-4.95,5.13,5.13,0,0,0-7.84,0A8.26,8.26,0,0,0,779.35,735.3Z"/><path class="cls-10" d="M818,743.83v-8.92c0-.83,0-1.53-.05-2.09a11.51,11.51,0,0,0-.25-1.72,3.84,3.84,0,0,0-.55-1.39,2.62,2.62,0,0,0-1-.82,3.19,3.19,0,0,0-1.5-.32,4.64,4.64,0,0,0-2.93.92,5,5,0,0,0-1.73,2.59,20.18,20.18,0,0,0-.14,2.41v9.34h-2.61v-9.2c0-.77,0-1.44-.08-2a10.11,10.11,0,0,0-.29-1.66,4.13,4.13,0,0,0-.59-1.3,2.68,2.68,0,0,0-1-.8,3.38,3.38,0,0,0-1.45-.29,5.08,5.08,0,0,0-3.15.95,4.58,4.58,0,0,0-1.71,2.53,23.37,23.37,0,0,0-.14,2.61v9.17h-2.61q0-16.08,0-17.14h2.19l.32,2.45a6.46,6.46,0,0,1,2.22-2,6.55,6.55,0,0,1,3.27-.81,7.53,7.53,0,0,1,1.76.2,5.46,5.46,0,0,1,1.34.49,4.27,4.27,0,0,1,1,.71,4.52,4.52,0,0,1,.66.81,6.4,6.4,0,0,1,.39.84,6.27,6.27,0,0,1,5.73-3,5.14,5.14,0,0,1,4.2,1.63,7.53,7.53,0,0,1,1.33,4.84v11Z"/><path class="cls-10" d="M834.54,743.83c-.16-.66-.31-1.38-.46-2.15a9,9,0,0,1-2.67,2,7.18,7.18,0,0,1-2.94.55,5.69,5.69,0,0,1-3.86-1.26,4.47,4.47,0,0,1-1.46-3.61,4.28,4.28,0,0,1,2-3.89,12.73,12.73,0,0,1,5.74-1.58l1.56-.14,1.55-.13v-1.51a3.75,3.75,0,0,0-.84-2.69,3.58,3.58,0,0,0-2.66-.88,11.68,11.68,0,0,0-5.11,1.25c0-.12-.19-.48-.41-1.08s-.33-.91-.34-.93a10.86,10.86,0,0,1,2.71-1,13.73,13.73,0,0,1,3.2-.38c2.13,0,3.67.47,4.61,1.4s1.42,2.52,1.42,4.76v11.34Zm-5.67-1.75a5.45,5.45,0,0,0,3.27-1A4.58,4.58,0,0,0,834,738.3v-2.89l-1,.08-1.13.09a11.94,11.94,0,0,0-4.73,1.11,2.82,2.82,0,0,0-1.33,2.61,2.6,2.6,0,0,0,.81,2.08A3.3,3.3,0,0,0,828.87,742.08Z"/><path class="cls-10" d="M844.15,720.46v3.09h-2.63v-3.09Zm0,6.23v17.14h-2.63V726.69Z"/><path class="cls-10" d="M849.05,743.83V726.69h2.19l.33,2.45a7.74,7.74,0,0,1,2.54-2,7.21,7.21,0,0,1,3.29-.77,5.46,5.46,0,0,1,4.39,1.67,7.75,7.75,0,0,1,1.42,5.11v10.72H860.6c0-6.87,0-10.56,0-11.05a5.31,5.31,0,0,0-.88-3.2,3.32,3.32,0,0,0-2.74-1,5.65,5.65,0,0,0-3.36,1,4.41,4.41,0,0,0-1.75,2.52,17.06,17.06,0,0,0-.16,2.41v9.37Z"/><path class="cls-10" d="M667.35,857.71a7.87,7.87,0,0,0-4.49,1.26,7.7,7.7,0,0,0-2.81,3.41,12.44,12.44,0,0,0-.92,4.92,13.58,13.58,0,0,0,.5,3.79,8.81,8.81,0,0,0,1.5,3,6.59,6.59,0,0,0,2.6,2,9.08,9.08,0,0,0,3.68.71,12.56,12.56,0,0,0,5.53-1.39l.46,2.3a11.73,11.73,0,0,1-6.3,1.47,12,12,0,0,1-4.68-.87,9,9,0,0,1-3.42-2.46,10.78,10.78,0,0,1-2.06-3.78,15.89,15.89,0,0,1-.7-4.88,14.39,14.39,0,0,1,.77-4.78,11.13,11.13,0,0,1,2.16-3.76,9.44,9.44,0,0,1,3.49-2.44,13.12,13.12,0,0,1,11.22.84l-1.06,2.2A10.41,10.41,0,0,0,667.35,857.71Z"/><path class="cls-10" d="M676.29,873.11V861.69h2.62v11.45a5.12,5.12,0,0,0,.32,1.91,2.72,2.72,0,0,0,.92,1.21,4,4,0,0,0,1.36.62,7.62,7.62,0,0,0,1.75.19,5,5,0,0,0,3.16-.89,3.64,3.64,0,0,0,1.13-3V861.69h2.63v11.42a7,7,0,0,1-.38,2.36,5.07,5.07,0,0,1-1,1.74,5.17,5.17,0,0,1-1.53,1.15,7.24,7.24,0,0,1-1.88.66,11,11,0,0,1-2.13.2,11.16,11.16,0,0,1-2.13-.2,7.4,7.4,0,0,1-1.9-.67,5.4,5.4,0,0,1-1.54-1.15,4.9,4.9,0,0,1-1-1.74A6.94,6.94,0,0,1,676.29,873.11Z"/><path class="cls-10" d="M699.18,879.19a13.14,13.14,0,0,1-3.23-.37,8.43,8.43,0,0,1-2.4-1l.33-2.21A10.82,10.82,0,0,0,699,877c2.54,0,3.84-.89,3.92-2.68a2.2,2.2,0,0,0-.81-1.8,11.63,11.63,0,0,0-3.19-1.47l-1.3-.45a7.19,7.19,0,0,1-3.21-1.86,4.32,4.32,0,0,1,.64-6.11,6.77,6.77,0,0,1,4.43-1.33,12.31,12.31,0,0,1,5.3,1.13l-.77,2a11.82,11.82,0,0,0-4.53-1,4.46,4.46,0,0,0-2.57.64,2.11,2.11,0,0,0-.93,1.83,1.84,1.84,0,0,0,.67,1.53,10.42,10.42,0,0,0,2.69,1.22c.34.12.78.27,1.3.43a8.9,8.9,0,0,1,3.67,2,4.36,4.36,0,0,1,1.08,3.11,4.47,4.47,0,0,1-1.71,3.68A7.13,7.13,0,0,1,699.18,879.19Z"/><path class="cls-10" d="M714.43,879.14a4.55,4.55,0,0,1-3.6-1.23,6.32,6.32,0,0,1-1.12-4v-10.3h-2.55l.11-1.72,2.42-.22.89-3.92,1.72-.06v4h4.77v1.94H712.3v9.83a4.72,4.72,0,0,0,.6,2.75,2.36,2.36,0,0,0,2,.79,19.49,19.49,0,0,0,2.23-.25l.11,2.07A18.63,18.63,0,0,1,714.43,879.14Z"/><path class="cls-10" d="M735,870.25a9.55,9.55,0,0,1-2.13,6.46,7.28,7.28,0,0,1-5.87,2.48,7.14,7.14,0,0,1-5.74-2.5,10.78,10.78,0,0,1,0-12.89,7.37,7.37,0,0,1,5.88-2.47,7.16,7.16,0,0,1,5.77,2.48A9.66,9.66,0,0,1,735,870.25Zm-13.17,0a8,8,0,0,0,1.35,4.88,4.57,4.57,0,0,0,3.94,1.84,4.45,4.45,0,0,0,3.87-1.83,8.32,8.32,0,0,0,1.31-4.92,8.4,8.4,0,0,0-1.29-4.95,5.13,5.13,0,0,0-7.84,0A8.19,8.19,0,0,0,721.79,870.3Z"/><path class="cls-10" d="M760.41,878.83v-8.92c0-.83,0-1.53,0-2.09a11.51,11.51,0,0,0-.25-1.72,3.84,3.84,0,0,0-.55-1.39,2.58,2.58,0,0,0-1-.82,3.14,3.14,0,0,0-1.5-.32,4.68,4.68,0,0,0-2.93.92,5,5,0,0,0-1.72,2.59,18.29,18.29,0,0,0-.14,2.41v9.34h-2.61v-9.2c0-.77,0-1.44-.08-2a9.16,9.16,0,0,0-.3-1.66,3.92,3.92,0,0,0-.58-1.3,2.68,2.68,0,0,0-1-.8,3.41,3.41,0,0,0-1.45-.29,5.08,5.08,0,0,0-3.15.95,4.58,4.58,0,0,0-1.71,2.53,21.2,21.2,0,0,0-.14,2.61v9.17h-2.61q0-16.08,0-17.14h2.18l.33,2.45a6.37,6.37,0,0,1,2.22-2,6.55,6.55,0,0,1,3.27-.81,7.38,7.38,0,0,1,1.75.2,5.4,5.4,0,0,1,1.35.49,4.27,4.27,0,0,1,1,.71,4.52,4.52,0,0,1,.66.81,6.4,6.4,0,0,1,.39.84,6.27,6.27,0,0,1,5.73-3,5.14,5.14,0,0,1,4.2,1.63A7.53,7.53,0,0,1,763,867.8v11Z"/><path class="cls-10" d="M675,1013.83h-2.7V1003H659.91v10.81h-2.7V990.72h2.7v9.92h12.41v-9.92H675Z"/><path class="cls-10" d="M687.68,1013.83H685V993.11h-7.11v-2.39h16.94v2.39h-7.11Z"/><path class="cls-10" d="M707.76,1012.41l-7.1-16.5-.59-1.58.11,5.66v13.84h-2.53V990.72h3.5l8,18.41,8-18.41h3.41v23.11h-2.63v-13.9l.11-5.54-.58,1.58-7.07,16.44Z"/><path class="cls-10" d="M726,1013.83V990.72h2.72v20.71h10.17l-.09,2.4Z"/><path class="cls-10" d="M756.79,1008h-2.66v5.8h-2.62V1008H740.94v-2.39l10.27-15.18h2.92v15.31H757Zm-5.28-14-7.82,11.77h7.82Z"/><path class="cls-10" d="M759.88,1018.18q0-.46.27-2.4c.15-1.3.27-2.39.36-3.28s.14-1.66.18-2.32h3.08v.68c-.51,2.07-1.26,4.5-2.25,7.32Z"/><path class="cls-10" d="M794.58,1013.83h-2.7V1003H779.47v10.81h-2.7V990.72h2.7v9.92h12.41v-9.92h2.7Z"/><path class="cls-10" d="M807.24,1013.83h-2.72V993.11h-7.11v-2.39h16.94v2.39h-7.11Z"/><path class="cls-10" d="M827.32,1012.41l-7.1-16.5-.59-1.58.11,5.66v13.84h-2.53V990.72h3.5l8,18.41,8-18.41h3.41v23.11h-2.62v-13.9l.11-5.54L837,996,830,1012.41Z"/><path class="cls-10" d="M845.58,1013.83V990.72h2.72v20.71h10.17l-.09,2.4Z"/><path class="cls-10" d="M874.51,990.46l-.22,2.56h-9.55q-.15,4.54-.23,7.36a7,7,0,0,1,3.82-1.13,8.25,8.25,0,0,1,3.11.56,6,6,0,0,1,2.23,1.52,6.63,6.63,0,0,1,1.32,2.26,8.41,8.41,0,0,1,.45,2.79,7.41,7.41,0,0,1-2.27,5.68,8.69,8.69,0,0,1-6.18,2.13,9,9,0,0,1-6.28-2.14l1-2.2a8.45,8.45,0,0,0,5.36,1.81,5.53,5.53,0,0,0,4-1.45,5.09,5.09,0,0,0,1.49-3.8,4.41,4.41,0,0,0-4.82-4.7,4.79,4.79,0,0,0-3.72,1.54l-2.17-.29.61-12.5Z"/><path class="cls-10" d="M672,1148.83l-2.71-7.33h-9.22l-2.79,7.33h-2.75l8.87-23.15h2.77l8.61,23.15Zm-3.58-9.59q-3.3-9.59-3.64-10.77l-3.8,10.77Z"/><path class="cls-10" d="M677.07,1148.83v-17.14h2.19l.32,2.45a7.84,7.84,0,0,1,2.54-2,7.24,7.24,0,0,1,3.29-.77,5.46,5.46,0,0,1,4.39,1.67c1,1.1,1.42,2.81,1.42,5.11v10.72h-2.6c0-6.87,0-10.56,0-11a5.38,5.38,0,0,0-.88-3.2,3.33,3.33,0,0,0-2.75-1,5.6,5.6,0,0,0-3.35,1,4.41,4.41,0,0,0-1.75,2.52,15.69,15.69,0,0,0-.16,2.41v9.37Z"/><path class="cls-10" d="M693.38,1131.69h2.77l5.4,14.27,4.82-14.27h2.76q-6.93,19.1-7.17,19.69a9.68,9.68,0,0,1-2.61,4,6.15,6.15,0,0,1-4,1.26,9.8,9.8,0,0,1-1.58-.13l-.16-2.22c.59,0,1,.07,1.32.07a4.65,4.65,0,0,0,2.68-.65,5.42,5.42,0,0,0,1.63-2.43c.43-1.1.74-1.94.95-2.53Z"/><path class="cls-10" d="M724.26,1148.83l-7-23.11h2.83l5.71,19.89,5.72-19.47h3.05l5.55,19.49,5.76-19.91h2.83l-7.06,23.11h-3l-5.62-19.42-5.91,19.42Z"/><path class="cls-10" d="M754.05,1125.46v3.09h-2.62v-3.09Zm0,6.23v17.14h-2.62v-17.14Z"/><path class="cls-10" d="M759,1148.83v-17.14h2.19l.32,2.45a7.84,7.84,0,0,1,2.54-2,7.27,7.27,0,0,1,3.29-.77,5.45,5.45,0,0,1,4.39,1.67,7.7,7.7,0,0,1,1.43,5.11v10.72h-2.61c0-6.87,0-10.56,0-11a5.38,5.38,0,0,0-.88-3.2,3.32,3.32,0,0,0-2.74-1,5.61,5.61,0,0,0-3.36,1,4.41,4.41,0,0,0-1.75,2.52,15.69,15.69,0,0,0-.16,2.41v9.37Z"/><path class="cls-10" d="M789.29,1146.35a6.28,6.28,0,0,1-2.25,2.06,7,7,0,0,1-8.46-1.65,10.28,10.28,0,0,1-1.92-6.57,9.93,9.93,0,0,1,2-6.41,6.34,6.34,0,0,1,5.23-2.45,7.27,7.27,0,0,1,3.21.74,5.23,5.23,0,0,1,2.26,2l-.05-1.49V1125l2.58-.15v23.95h-2.22Zm-5.14.59a4.48,4.48,0,0,0,3.83-1.66,7.68,7.68,0,0,0,1.26-4.73,9.25,9.25,0,0,0-1.21-5.23,4.41,4.41,0,0,0-3.91-1.75,4.3,4.3,0,0,0-2.13.51,4,4,0,0,0-1.48,1.44,7.36,7.36,0,0,0-.86,2.12,11.23,11.23,0,0,0-.28,2.61,10.88,10.88,0,0,0,.49,3.47,5,5,0,0,0,1.58,2.35A4.21,4.21,0,0,0,784.15,1146.94Z"/><path class="cls-10" d="M811.46,1140.25a9.55,9.55,0,0,1-2.13,6.46,7.28,7.28,0,0,1-5.87,2.48,7.14,7.14,0,0,1-5.74-2.5,10.78,10.78,0,0,1,0-12.89,7.37,7.37,0,0,1,5.88-2.47,7.16,7.16,0,0,1,5.77,2.48A9.66,9.66,0,0,1,811.46,1140.25Zm-13.17,0a8,8,0,0,0,1.35,4.88,4.57,4.57,0,0,0,3.94,1.84,4.45,4.45,0,0,0,3.87-1.83,8.32,8.32,0,0,0,1.31-4.92,8.4,8.4,0,0,0-1.29-5,5.13,5.13,0,0,0-7.84,0A8.19,8.19,0,0,0,798.29,1140.3Z"/><path class="cls-10" d="M829.83,1148.83q-3.6-11.53-4.46-14.36-.5,1.72-1.11,3.72c-.42,1.33-.79,2.48-1.1,3.44s-.72,2.2-1.22,3.72l-1.14,3.48H818l-4.89-17.14h2.7l3.67,14q.76-2.49,4.5-14h3q3.72,11.79,4.37,14l3.63-14h2.67l-4.94,17.14Z"/><path class="cls-10" d="M1536.21,608.83h-3.06l-12-18.19-.78-1.07c.08,2.18.12,4.14.12,5.86v13.4H1518V585.72h3l12,18.19.8,1.08c-.08-3.32-.11-5.25-.11-5.77v-13.5h2.51Z"/><path class="cls-10" d="M1556.24,600.25a9.59,9.59,0,0,1-2.12,6.46,7.32,7.32,0,0,1-5.88,2.48,7.15,7.15,0,0,1-5.74-2.5,10.8,10.8,0,0,1,0-12.89,7.35,7.35,0,0,1,5.87-2.47,7.16,7.16,0,0,1,5.77,2.48A9.61,9.61,0,0,1,1556.24,600.25Zm-13.17,0a8,8,0,0,0,1.35,4.88,4.59,4.59,0,0,0,3.95,1.84,4.45,4.45,0,0,0,3.87-1.83,10.05,10.05,0,0,0,0-9.87,5.12,5.12,0,0,0-7.83,0A8.19,8.19,0,0,0,1543.07,600.3Z"/><path class="cls-10" d="M1530.93,720.46l-.22,2.56h-9.54q-.17,4.54-.24,7.36a7,7,0,0,1,3.83-1.13,8.16,8.16,0,0,1,3.1.56,6,6,0,0,1,2.24,1.52,7,7,0,0,1,1.32,2.26,8.41,8.41,0,0,1,.45,2.79,7.44,7.44,0,0,1-2.27,5.68,8.69,8.69,0,0,1-6.18,2.13,9,9,0,0,1-6.29-2.14l1-2.2a8.43,8.43,0,0,0,5.36,1.81,5.53,5.53,0,0,0,4-1.45,5.08,5.08,0,0,0,1.48-3.8,4.41,4.41,0,0,0-4.81-4.7,4.79,4.79,0,0,0-3.72,1.54l-2.17-.29.61-12.5Z"/><path class="cls-10" d="M1546.48,742.41l-7.1-16.5-.59-1.58.11,5.66v13.84h-2.53V720.72h3.5l8.05,18.41,8-18.41h3.41v23.11h-2.62v-13.9l.1-5.54-.57,1.58-7.08,16.44Z"/><path class="cls-10" d="M1564.74,720.72h6.63c3,0,5.17.46,6.6,1.36a4.75,4.75,0,0,1,2.15,4.33,6.36,6.36,0,0,1-.06.87,5.69,5.69,0,0,1-.28,1.1,4.5,4.5,0,0,1-.61,1.22,4.9,4.9,0,0,1-1.15,1.11,6.31,6.31,0,0,1-1.78.89,5.58,5.58,0,0,1,3.53,2,5.74,5.74,0,0,1,1.21,3.68,6,6,0,0,1-2.06,4.86q-2.06,1.73-6.11,1.72h-8.07Zm2.71,9.94h5a6.56,6.56,0,0,0,3.66-.84,3.4,3.4,0,0,0,1.23-3,3.12,3.12,0,0,0-1.48-3,9.87,9.87,0,0,0-4.58-.82h-3.78Zm0,2.17v8.78h4.82a7.43,7.43,0,0,0,4.41-1.08,3.94,3.94,0,0,0,1.47-3.39,3.59,3.59,0,0,0-1.59-3.35,9.8,9.8,0,0,0-4.94-1Z"/><path class="cls-10" d="M1593.13,747.24h-2.25l10.57-26.31h2.28Z"/><path class="cls-10" d="M1634.68,732.25q0,5.64-3.2,8.61t-8.94,3h-6.86V720.72h6.41a18.24,18.24,0,0,1,5.17.68,11.15,11.15,0,0,1,4,2.06,8.85,8.85,0,0,1,2.57,3.61A14,14,0,0,1,1634.68,732.25Zm-2.89.08q0-4.85-2.5-7.05c-1.67-1.46-4.09-2.2-7.28-2.2h-3.63v18.39h4.08q4.56,0,7-2.3T1631.79,732.33Z"/><path class="cls-10" d="M1653.74,735.25a9.59,9.59,0,0,1-2.12,6.46,7.32,7.32,0,0,1-5.88,2.48,7.15,7.15,0,0,1-5.74-2.5,10.8,10.8,0,0,1,0-12.89,7.35,7.35,0,0,1,5.87-2.47,7.16,7.16,0,0,1,5.77,2.48A9.61,9.61,0,0,1,1653.74,735.25Zm-13.17,0a8,8,0,0,0,1.35,4.88,4.59,4.59,0,0,0,3.95,1.84,4.45,4.45,0,0,0,3.87-1.83,10.05,10.05,0,0,0,0-9.87,5.12,5.12,0,0,0-7.83,0A8.19,8.19,0,0,0,1640.57,735.3Z"/><path class="cls-10" d="M1679.2,743.83v-8.92c0-.83,0-1.53-.06-2.09a11.51,11.51,0,0,0-.25-1.72,4,4,0,0,0-.54-1.39,2.74,2.74,0,0,0-1-.82,3.19,3.19,0,0,0-1.5-.32,4.66,4.66,0,0,0-2.93.92,5,5,0,0,0-1.73,2.59,20.18,20.18,0,0,0-.14,2.41v9.34h-2.61v-9.2a19.77,19.77,0,0,0-.08-2,10.11,10.11,0,0,0-.29-1.66,3.92,3.92,0,0,0-.59-1.3,2.6,2.6,0,0,0-1-.8,3.38,3.38,0,0,0-1.45-.29,5.08,5.08,0,0,0-3.15.95,4.58,4.58,0,0,0-1.71,2.53,23.37,23.37,0,0,0-.14,2.61v9.17h-2.61q0-16.08,0-17.14h2.19l.33,2.45a6.37,6.37,0,0,1,2.22-2,6.49,6.49,0,0,1,3.26-.81,7.46,7.46,0,0,1,1.76.2,5.46,5.46,0,0,1,1.34.49,4.27,4.27,0,0,1,1,.71,4,4,0,0,1,1,1.65,6.27,6.27,0,0,1,5.73-3,5.14,5.14,0,0,1,4.2,1.63,7.53,7.53,0,0,1,1.34,4.84v11Z"/><path class="cls-10" d="M1695.76,743.83c-.16-.66-.31-1.38-.45-2.15a9.1,9.1,0,0,1-2.68,2,7.16,7.16,0,0,1-2.93.55,5.7,5.7,0,0,1-3.87-1.26,4.47,4.47,0,0,1-1.46-3.61,4.28,4.28,0,0,1,2-3.89,12.73,12.73,0,0,1,5.74-1.58l1.56-.14,1.55-.13v-1.51a3.75,3.75,0,0,0-.84-2.69,3.56,3.56,0,0,0-2.66-.88,11.68,11.68,0,0,0-5.11,1.25c0-.12-.18-.48-.4-1.08s-.34-.91-.35-.93a10.86,10.86,0,0,1,2.71-1,13.79,13.79,0,0,1,3.2-.38q3.2,0,4.62,1.4t1.41,4.76v11.34Zm-5.67-1.75a5.43,5.43,0,0,0,3.27-1,4.58,4.58,0,0,0,1.82-2.76v-2.89l-.94.08-1.14.09a11.83,11.83,0,0,0-4.72,1.11,2.82,2.82,0,0,0-1.34,2.61,2.6,2.6,0,0,0,.81,2.08A3.3,3.3,0,0,0,1690.09,742.08Z"/><path class="cls-10" d="M1705.37,720.46v3.09h-2.63v-3.09Zm0,6.23v17.14h-2.63V726.69Z"/><path class="cls-10" d="M1710.27,743.83V726.69h2.19l.33,2.45a7.74,7.74,0,0,1,2.54-2,7.24,7.24,0,0,1,3.29-.77A5.46,5.46,0,0,1,1723,728c1,1.1,1.42,2.81,1.42,5.11v10.72h-2.61c0-6.87,0-10.56,0-11.05a5.38,5.38,0,0,0-.89-3.2,3.31,3.31,0,0,0-2.74-1,5.65,5.65,0,0,0-3.36,1,4.46,4.46,0,0,0-1.75,2.52,17.17,17.17,0,0,0-.15,2.41v9.37Z"/><path class="cls-10" d="M1522.21,878.83l-7-23.11h2.83l5.72,19.89,5.72-19.47h3l5.54,19.49,5.77-19.91h2.83l-7.07,23.11h-3l-5.62-19.42-5.91,19.42Z"/><path class="cls-10" d="M1560.48,878.83V868.47a6.72,6.72,0,0,0-.82-3.75,3.27,3.27,0,0,0-2.87-1.17,5.53,5.53,0,0,0-3.32,1,4.49,4.49,0,0,0-1.76,2.55,22.85,22.85,0,0,0-.14,2.61v9.14H1549V855l2.61-.15v7c0,.59,0,1.33-.06,2.2a7.16,7.16,0,0,1,5.84-2.72q5.75,0,5.74,6.74v10.76Z"/><path class="cls-10" d="M1573.56,879.19a7.55,7.55,0,0,1-5.89-2.37,9.35,9.35,0,0,1-2.15-6.5,9.78,9.78,0,0,1,2.08-6.47,6.93,6.93,0,0,1,5.47-2.52,6.33,6.33,0,0,1,5.06,2.18,8.65,8.65,0,0,1,1.86,5.82V870c0,.33,0,.57,0,.72h-11.77a6.76,6.76,0,0,0,1.51,4.55,5,5,0,0,0,3.93,1.64,11.6,11.6,0,0,0,5.45-1.44l.41,2.11A11.22,11.22,0,0,1,1573.56,879.19Zm2.63-14.34a3.91,3.91,0,0,0-3.15-1.36,4.21,4.21,0,0,0-3.27,1.41,6.56,6.56,0,0,0-1.48,3.87h9A6,6,0,0,0,1576.19,864.85Z"/><path class="cls-10" d="M1583.62,878.83V861.69h2.19l.32,2.45a7.84,7.84,0,0,1,2.54-2,7.24,7.24,0,0,1,3.29-.77,5.46,5.46,0,0,1,4.39,1.67c1,1.1,1.42,2.81,1.42,5.11v10.72h-2.6c0-6.87,0-10.56,0-11.05a5.38,5.38,0,0,0-.88-3.2,3.33,3.33,0,0,0-2.75-1,5.6,5.6,0,0,0-3.35,1,4.41,4.41,0,0,0-1.75,2.52,15.69,15.69,0,0,0-.16,2.41v9.37Z"/><path class="cls-10" d="M1610.15,875a17.2,17.2,0,0,0,7.73,1.78q5.08,0,5.08-4.62a3.61,3.61,0,0,0-.8-2.43,5.74,5.74,0,0,0-2.93-1.47l-4.6-1.15c-3.51-.89-5.26-2.76-5.26-5.63a5.61,5.61,0,0,1,2.26-4.9,10.77,10.77,0,0,1,6.27-1.6,15.84,15.84,0,0,1,3.92.46,10.56,10.56,0,0,1,3.06,1.22l-.78,2.2a12,12,0,0,0-2.77-1,13.82,13.82,0,0,0-3.49-.46q-5.65,0-5.66,3.93a2.77,2.77,0,0,0,.87,2.13,5.84,5.84,0,0,0,2.6,1.23l4.39,1.06a8.65,8.65,0,0,1,4.27,2.15,5.75,5.75,0,0,1,1.45,4.19,6.5,6.5,0,0,1-2.16,5.32,9,9,0,0,1-5.89,1.79,19.44,19.44,0,0,1-4.94-.57,12.73,12.73,0,0,1-3.43-1.35Z"/><path class="cls-10" d="M1636.52,879.19a7.53,7.53,0,0,1-5.88-2.37,9.35,9.35,0,0,1-2.15-6.5,9.78,9.78,0,0,1,2.08-6.47,6.93,6.93,0,0,1,5.47-2.52,6.33,6.33,0,0,1,5.06,2.18,8.65,8.65,0,0,1,1.86,5.82c0,.13,0,.36,0,.69v.72h-11.77a6.71,6.71,0,0,0,1.51,4.55,5,5,0,0,0,3.93,1.64,11.6,11.6,0,0,0,5.45-1.44l.41,2.11A11.23,11.23,0,0,1,1636.52,879.19Zm2.64-14.34a3.91,3.91,0,0,0-3.15-1.36,4.21,4.21,0,0,0-3.27,1.41,6.49,6.49,0,0,0-1.48,3.87h9A6,6,0,0,0,1639.16,864.85Z"/><path class="cls-10" d="M1651.7,879.19a13.08,13.08,0,0,1-3.23-.37,8.43,8.43,0,0,1-2.4-1l.33-2.21a10.82,10.82,0,0,0,5.12,1.39c2.55,0,3.85-.89,3.93-2.68a2.18,2.18,0,0,0-.82-1.8,11.38,11.38,0,0,0-3.18-1.47l-1.3-.45a7.19,7.19,0,0,1-3.21-1.86,4.32,4.32,0,0,1,.64-6.11,6.75,6.75,0,0,1,4.43-1.33,12.31,12.31,0,0,1,5.3,1.13l-.77,2a11.82,11.82,0,0,0-4.53-1,4.46,4.46,0,0,0-2.57.64,2.11,2.11,0,0,0-.93,1.83,1.84,1.84,0,0,0,.67,1.53,10.25,10.25,0,0,0,2.69,1.22c.34.12.77.27,1.3.43a9,9,0,0,1,3.67,2,4.36,4.36,0,0,1,1.08,3.11,4.5,4.5,0,0,1-1.71,3.68A7.13,7.13,0,0,1,1651.7,879.19Z"/><path class="cls-10" d="M1666.59,879.19a13.14,13.14,0,0,1-3.23-.37,8.43,8.43,0,0,1-2.4-1l.33-2.21a10.82,10.82,0,0,0,5.13,1.39c2.54,0,3.84-.89,3.92-2.68a2.18,2.18,0,0,0-.82-1.8,11.38,11.38,0,0,0-3.18-1.47l-1.3-.45a7.19,7.19,0,0,1-3.21-1.86,4.32,4.32,0,0,1,.64-6.11,6.75,6.75,0,0,1,4.43-1.33,12.31,12.31,0,0,1,5.3,1.13l-.77,2a11.82,11.82,0,0,0-4.53-1,4.46,4.46,0,0,0-2.57.64,2.11,2.11,0,0,0-.93,1.83,1.84,1.84,0,0,0,.67,1.53,10.42,10.42,0,0,0,2.69,1.22c.34.12.77.27,1.3.43a9,9,0,0,1,3.67,2,4.36,4.36,0,0,1,1.08,3.11,4.5,4.5,0,0,1-1.71,3.68A7.13,7.13,0,0,1,1666.59,879.19Z"/><path class="cls-10" d="M1679.45,855.46v3.09h-2.63v-3.09Zm0,6.23v17.14h-2.63V861.69Z"/><path class="cls-10" d="M1699.43,870.25a9.59,9.59,0,0,1-2.12,6.46,7.32,7.32,0,0,1-5.88,2.48,7.14,7.14,0,0,1-5.74-2.5,10.8,10.8,0,0,1,0-12.89,7.34,7.34,0,0,1,5.87-2.47,7.16,7.16,0,0,1,5.77,2.48A9.66,9.66,0,0,1,1699.43,870.25Zm-13.17,0a8,8,0,0,0,1.35,4.88,4.59,4.59,0,0,0,4,1.84,4.44,4.44,0,0,0,3.86-1.83,8.32,8.32,0,0,0,1.31-4.92,8.4,8.4,0,0,0-1.29-4.95,5.13,5.13,0,0,0-7.84,0A8.26,8.26,0,0,0,1686.26,870.3Z"/><path class="cls-10" d="M1703.12,878.83V861.69h2.19l.32,2.45a7.84,7.84,0,0,1,2.54-2,7.24,7.24,0,0,1,3.29-.77,5.46,5.46,0,0,1,4.39,1.67c1,1.1,1.42,2.81,1.42,5.11v10.72h-2.6c0-6.87,0-10.56,0-11.05a5.38,5.38,0,0,0-.88-3.2,3.33,3.33,0,0,0-2.75-1,5.6,5.6,0,0,0-3.35,1,4.41,4.41,0,0,0-1.75,2.52,15.69,15.69,0,0,0-.16,2.41v9.37Z"/><path class="cls-10" d="M1737.31,878.83h-2.72V858.11h-7.11v-2.39h16.94v2.39h-7.11Z"/><path class="cls-10" d="M1756.82,878.83c-.15-.66-.31-1.38-.45-2.15a9.21,9.21,0,0,1-2.67,2,7.24,7.24,0,0,1-2.94.55,5.72,5.72,0,0,1-3.87-1.26,4.5,4.5,0,0,1-1.46-3.61,4.3,4.3,0,0,1,2-3.89,12.78,12.78,0,0,1,5.75-1.58l1.55-.14,1.55-.13v-1.51a3.75,3.75,0,0,0-.84-2.69,3.56,3.56,0,0,0-2.66-.88,11.64,11.64,0,0,0-5.1,1.25c-.06-.12-.19-.48-.41-1.08l-.34-.93a10.71,10.71,0,0,1,2.71-1,13.65,13.65,0,0,1,3.19-.38q3.21,0,4.62,1.4t1.41,4.76v11.34Zm-5.67-1.75a5.43,5.43,0,0,0,3.27-1,4.54,4.54,0,0,0,1.82-2.76v-2.89l-.94.08-1.13.09a11.84,11.84,0,0,0-4.73,1.11,2.82,2.82,0,0,0-1.34,2.61,2.58,2.58,0,0,0,.82,2.08A3.28,3.28,0,0,0,1751.15,877.08Z"/><path class="cls-10" d="M1771.42,861.33a6.68,6.68,0,0,1,3.93,1.16,7.07,7.07,0,0,1,2.49,3.14,11.76,11.76,0,0,1,.83,4.55,12.48,12.48,0,0,1-.82,4.67,7.06,7.06,0,0,1-2.49,3.18,6.8,6.8,0,0,1-4,1.16,6.63,6.63,0,0,1-3.11-.73,6.94,6.94,0,0,1-2.34-2l-.26,2.37h-2.24V855l2.61-.15v5.67c0,1.4,0,2.59-.06,3.59a6.57,6.57,0,0,1,2.35-2A6.48,6.48,0,0,1,1771.42,861.33Zm-.27,2.17a4.49,4.49,0,0,0-3.8,1.71,8.07,8.07,0,0,0-1.33,5c0,4.52,1.71,6.78,5.11,6.78a4.56,4.56,0,0,0,2.23-.52,3.9,3.9,0,0,0,1.52-1.47,7.39,7.39,0,0,0,.82-2.14,11.32,11.32,0,0,0,.28-2.64,11.72,11.72,0,0,0-.46-3.43,5,5,0,0,0-1.57-2.39A4.22,4.22,0,0,0,1771.15,863.5Z"/><path class="cls-10" d="M1801,857.71a7.92,7.92,0,0,0-4.5,1.26,7.68,7.68,0,0,0-2.8,3.41,12.27,12.27,0,0,0-.92,4.92,13.22,13.22,0,0,0,.5,3.79,8.81,8.81,0,0,0,1.5,3,6.52,6.52,0,0,0,2.6,2,9,9,0,0,0,3.68.71,12.59,12.59,0,0,0,5.53-1.39l.45,2.3a11.69,11.69,0,0,1-6.29,1.47,12,12,0,0,1-4.68-.87,9,9,0,0,1-3.42-2.46,10.62,10.62,0,0,1-2.06-3.78,15.89,15.89,0,0,1-.7-4.88,14.39,14.39,0,0,1,.76-4.78,11,11,0,0,1,2.17-3.76,9.35,9.35,0,0,1,3.49-2.44,13.12,13.12,0,0,1,11.22.84l-1.06,2.2A10.44,10.44,0,0,0,1801,857.71Z"/><path class="cls-10" d="M1815.09,879.14a4.19,4.19,0,0,1-3.54-1.34c-.7-.9-1-2.45-1-4.67V855l2.59-.15V872.1c0,.71,0,1.27,0,1.7a10.35,10.35,0,0,0,.11,1.26,3.76,3.76,0,0,0,.25.93,1.9,1.9,0,0,0,.46.57,1.43,1.43,0,0,0,.71.34,4.82,4.82,0,0,0,1,.09,18.29,18.29,0,0,0,2-.19l.14,2.08A16.6,16.6,0,0,1,1815.09,879.14Z"/><path class="cls-10" d="M1834.45,870.25a9.55,9.55,0,0,1-2.13,6.46,7.3,7.3,0,0,1-5.87,2.48,7.17,7.17,0,0,1-5.75-2.5,10.8,10.8,0,0,1,0-12.89,7.37,7.37,0,0,1,5.88-2.47,7.14,7.14,0,0,1,5.76,2.48A9.62,9.62,0,0,1,1834.45,870.25Zm-13.18,0a8,8,0,0,0,1.36,4.88,4.57,4.57,0,0,0,3.94,1.84,4.45,4.45,0,0,0,3.87-1.83,8.32,8.32,0,0,0,1.3-4.92,8.4,8.4,0,0,0-1.29-4.95,5.12,5.12,0,0,0-7.83,0A8.19,8.19,0,0,0,1821.27,870.3Z"/><path class="cls-10" d="M1843.24,879.19a13.06,13.06,0,0,1-3.22-.37,8.2,8.2,0,0,1-2.4-1l.33-2.21a10.79,10.79,0,0,0,5.12,1.39q3.81,0,3.92-2.68a2.2,2.2,0,0,0-.81-1.8,11.33,11.33,0,0,0-3.19-1.47l-1.29-.45a7.19,7.19,0,0,1-3.21-1.86,4.32,4.32,0,0,1,.64-6.11,6.73,6.73,0,0,1,4.43-1.33,12.27,12.27,0,0,1,5.29,1.13l-.76,2a11.9,11.9,0,0,0-4.53-1,4.42,4.42,0,0,0-2.57.64,2.11,2.11,0,0,0-.93,1.83,1.84,1.84,0,0,0,.67,1.53,10.25,10.25,0,0,0,2.69,1.22c.34.12.77.27,1.29.43a8.83,8.83,0,0,1,3.67,2,4.36,4.36,0,0,1,1.08,3.11,4.49,4.49,0,0,1-1.7,3.68A7.16,7.16,0,0,1,1843.24,879.19Z"/><path class="cls-10" d="M1860.27,879.19a7.53,7.53,0,0,1-5.88-2.37,9.35,9.35,0,0,1-2.15-6.5,9.78,9.78,0,0,1,2.08-6.47,6.93,6.93,0,0,1,5.47-2.52,6.33,6.33,0,0,1,5.06,2.18,8.65,8.65,0,0,1,1.86,5.82c0,.13,0,.36,0,.69v.72h-11.77a6.71,6.71,0,0,0,1.51,4.55,5,5,0,0,0,3.93,1.64,11.6,11.6,0,0,0,5.45-1.44l.41,2.11A11.23,11.23,0,0,1,1860.27,879.19Zm2.64-14.34a3.91,3.91,0,0,0-3.15-1.36,4.21,4.21,0,0,0-3.27,1.41,6.49,6.49,0,0,0-1.48,3.87h9A6,6,0,0,0,1862.91,864.85Z"/><path class="cls-10" d="M1875.45,879.19a13.08,13.08,0,0,1-3.23-.37,8.43,8.43,0,0,1-2.4-1l.33-2.21a10.82,10.82,0,0,0,5.12,1.39c2.55,0,3.85-.89,3.93-2.68a2.18,2.18,0,0,0-.82-1.8,11.38,11.38,0,0,0-3.18-1.47l-1.3-.45a7.19,7.19,0,0,1-3.21-1.86,4.32,4.32,0,0,1,.64-6.11,6.75,6.75,0,0,1,4.43-1.33,12.31,12.31,0,0,1,5.3,1.13l-.77,2a11.82,11.82,0,0,0-4.53-1,4.46,4.46,0,0,0-2.57.64,2.11,2.11,0,0,0-.93,1.83,1.84,1.84,0,0,0,.67,1.53,10.25,10.25,0,0,0,2.69,1.22c.34.12.77.27,1.3.43a9,9,0,0,1,3.67,2,4.36,4.36,0,0,1,1.08,3.11,4.5,4.5,0,0,1-1.71,3.68A7.13,7.13,0,0,1,1875.45,879.19Z"/><path class="cls-10" d="M1535.77,1013.83h-2.7V1003h-12.4v10.81H1518V990.72h2.71v9.92h12.4v-9.92h2.7Z"/><path class="cls-10" d="M1548.43,1013.83h-2.72V993.11h-7.11v-2.39h16.94v2.39h-7.11Z"/><path class="cls-10" d="M1568.51,1012.41l-7.09-16.5-.6-1.58.11,5.66v13.84h-2.53V990.72h3.5l8,18.41,8-18.41h3.4v23.11h-2.62v-13.9l.11-5.54-.58,1.58-7.08,16.44Z"/><path class="cls-10" d="M1586.77,1013.83V990.72h2.72v20.71h10.18l-.1,2.4Z"/><path class="cls-10" d="M1615.7,990.46l-.22,2.56h-9.55q-.15,4.54-.23,7.36a7,7,0,0,1,3.82-1.13,8.25,8.25,0,0,1,3.11.56,6,6,0,0,1,2.23,1.52,6.63,6.63,0,0,1,1.32,2.26,8.41,8.41,0,0,1,.45,2.79,7.41,7.41,0,0,1-2.27,5.68,8.68,8.68,0,0,1-6.18,2.13,9,9,0,0,1-6.28-2.14l1-2.2a8.4,8.4,0,0,0,5.35,1.81,5.53,5.53,0,0,0,4-1.45,5.09,5.09,0,0,0,1.49-3.8,4.41,4.41,0,0,0-4.82-4.7,4.79,4.79,0,0,0-3.72,1.54l-2.17-.29.61-12.5Z"/><path class="cls-10" d="M1517.52,1145a17.24,17.24,0,0,0,7.74,1.78c3.38,0,5.08-1.54,5.08-4.62a3.57,3.57,0,0,0-.81-2.43,5.66,5.66,0,0,0-2.93-1.47l-4.59-1.15c-3.51-.89-5.27-2.76-5.27-5.63a5.61,5.61,0,0,1,2.27-4.9,10.76,10.76,0,0,1,6.26-1.6,15.92,15.92,0,0,1,3.93.46,10.56,10.56,0,0,1,3.06,1.22l-.78,2.2a12.1,12.1,0,0,0-2.78-1,13.76,13.76,0,0,0-3.49-.46q-5.65,0-5.65,3.93a2.8,2.8,0,0,0,.86,2.13,5.89,5.89,0,0,0,2.6,1.23l4.4,1.06a8.65,8.65,0,0,1,4.26,2.15,5.71,5.71,0,0,1,1.45,4.19,6.5,6.5,0,0,1-2.16,5.32,8.9,8.9,0,0,1-5.88,1.79,19.47,19.47,0,0,1-4.95-.57,13,13,0,0,1-3.43-1.35Z"/><path class="cls-10" d="M1547.27,1148.83c-.15-.66-.3-1.38-.45-2.15a9.21,9.21,0,0,1-2.67,2,7.18,7.18,0,0,1-2.94.55,5.69,5.69,0,0,1-3.86-1.26,4.48,4.48,0,0,1-1.47-3.61,4.28,4.28,0,0,1,2-3.89,12.69,12.69,0,0,1,5.74-1.58l1.55-.14,1.56-.13v-1.51a3.71,3.71,0,0,0-.85-2.69,3.54,3.54,0,0,0-2.65-.88,11.68,11.68,0,0,0-5.11,1.25c0-.12-.19-.48-.41-1.08l-.34-.93a10.71,10.71,0,0,1,2.71-1,13.71,13.71,0,0,1,3.19-.38q3.21,0,4.62,1.4c.94.93,1.42,2.52,1.42,4.76v11.34Zm-5.67-1.75a5.48,5.48,0,0,0,3.28-1,4.58,4.58,0,0,0,1.82-2.76v-2.89l-1,.08-1.13.09a11.89,11.89,0,0,0-4.73,1.11,2.82,2.82,0,0,0-1.33,2.61,2.6,2.6,0,0,0,.81,2.08A3.28,3.28,0,0,0,1541.6,1147.08Z"/><path class="cls-10" d="M1575.57,1148.83v-8.92c0-.83,0-1.53,0-2.09a11.51,11.51,0,0,0-.25-1.72,4,4,0,0,0-.55-1.39,2.58,2.58,0,0,0-1-.82,3.14,3.14,0,0,0-1.5-.32,4.68,4.68,0,0,0-2.93.92,5,5,0,0,0-1.72,2.59,18.29,18.29,0,0,0-.14,2.41v9.34h-2.61v-9.2c0-.77,0-1.44-.08-2a9.16,9.16,0,0,0-.3-1.66,3.92,3.92,0,0,0-.58-1.3,2.68,2.68,0,0,0-1-.8,3.41,3.41,0,0,0-1.45-.29,5.08,5.08,0,0,0-3.15,1,4.58,4.58,0,0,0-1.71,2.53,21.2,21.2,0,0,0-.14,2.61v9.17h-2.61q0-16.08,0-17.14H1556l.33,2.45a6.37,6.37,0,0,1,2.22-2,6.55,6.55,0,0,1,3.27-.81,7.38,7.38,0,0,1,1.75.2,5.4,5.4,0,0,1,1.35.49,4.27,4.27,0,0,1,1,.71,4,4,0,0,1,.65.81,5.38,5.38,0,0,1,.4.84,6.27,6.27,0,0,1,5.73-3.05,5.15,5.15,0,0,1,4.2,1.63,7.53,7.53,0,0,1,1.33,4.84v11Z"/><path class="cls-10" d="M1588.76,1149.19a7.53,7.53,0,0,1-5.88-2.37,9.31,9.31,0,0,1-2.15-6.5,9.72,9.72,0,0,1,2.08-6.47,6.9,6.9,0,0,1,5.46-2.52,6.33,6.33,0,0,1,5.06,2.18,8.66,8.66,0,0,1,1.87,5.82c0,.13,0,.36,0,.69s0,.57,0,.72h-11.76a6.76,6.76,0,0,0,1.5,4.55,5,5,0,0,0,3.93,1.64,11.64,11.64,0,0,0,5.46-1.44l.4,2.11A11.2,11.2,0,0,1,1588.76,1149.19Zm2.63-14.34a3.88,3.88,0,0,0-3.15-1.36,4.17,4.17,0,0,0-3.26,1.41,6.5,6.5,0,0,0-1.49,3.87h9A5.93,5.93,0,0,0,1591.39,1134.85Z"/><path class="cls-10" d="M1614.51,1148.83h-2.72v-20.72h-7.11v-2.39h16.94v2.39h-7.11Z"/><path class="cls-10" d="M1634,1148.83c-.15-.66-.3-1.38-.45-2.15a9.21,9.21,0,0,1-2.67,2,7.18,7.18,0,0,1-2.94.55,5.69,5.69,0,0,1-3.86-1.26,4.48,4.48,0,0,1-1.47-3.61,4.28,4.28,0,0,1,2-3.89,12.69,12.69,0,0,1,5.74-1.58l1.55-.14,1.56-.13v-1.51a3.71,3.71,0,0,0-.85-2.69,3.54,3.54,0,0,0-2.65-.88,11.68,11.68,0,0,0-5.11,1.25c0-.12-.19-.48-.41-1.08l-.34-.93a10.71,10.71,0,0,1,2.71-1,13.71,13.71,0,0,1,3.19-.38q3.21,0,4.62,1.4c.94.93,1.42,2.52,1.42,4.76v11.34Zm-5.67-1.75a5.48,5.48,0,0,0,3.28-1,4.58,4.58,0,0,0,1.82-2.76v-2.89l-1,.08-1.13.09a11.89,11.89,0,0,0-4.73,1.11,2.82,2.82,0,0,0-1.33,2.61,2.6,2.6,0,0,0,.81,2.08A3.28,3.28,0,0,0,1628.35,1147.08Z"/><path class="cls-10" d="M1648.62,1131.33a6.73,6.73,0,0,1,3.94,1.16,7.05,7.05,0,0,1,2.48,3.14,11.76,11.76,0,0,1,.83,4.55,12.28,12.28,0,0,1-.82,4.67,7.06,7.06,0,0,1-2.49,3.18,6.79,6.79,0,0,1-4,1.16,6.6,6.6,0,0,1-3.11-.73,6.88,6.88,0,0,1-2.35-2l-.26,2.37h-2.24V1125l2.61-.15v5.67c0,1.4,0,2.59-.06,3.59a6.68,6.68,0,0,1,5.44-2.81Zm-.27,2.17a4.52,4.52,0,0,0-3.8,1.71,8.13,8.13,0,0,0-1.32,5q0,6.78,5.11,6.78a4.55,4.55,0,0,0,2.22-.52,3.9,3.9,0,0,0,1.52-1.47,7.7,7.7,0,0,0,.83-2.14,11.91,11.91,0,0,0,.27-2.64,11.39,11.39,0,0,0-.46-3.43,5,5,0,0,0-1.57-2.39A4.21,4.21,0,0,0,1648.35,1133.5Z"/><path class="cls-10" d="M1109.2,608.83h-3.06l-12-18.19-.78-1.07c.08,2.18.12,4.14.12,5.86v13.4H1091V585.72h3l12,18.19.8,1.08c-.08-3.32-.11-5.25-.11-5.77v-13.5h2.51Z"/><path class="cls-10" d="M1129.23,600.25a9.59,9.59,0,0,1-2.12,6.46,7.32,7.32,0,0,1-5.88,2.48,7.15,7.15,0,0,1-5.74-2.5,10.8,10.8,0,0,1,0-12.89,7.35,7.35,0,0,1,5.87-2.47,7.16,7.16,0,0,1,5.77,2.48A9.66,9.66,0,0,1,1129.23,600.25Zm-13.17,0a8,8,0,0,0,1.35,4.88,4.59,4.59,0,0,0,3.95,1.84,4.43,4.43,0,0,0,3.86-1.83,8.32,8.32,0,0,0,1.31-4.92,8.4,8.4,0,0,0-1.29-4.95,5.13,5.13,0,0,0-7.84,0A8.26,8.26,0,0,0,1116.06,600.3Z"/><path class="cls-10" d="M1093,720.46h2.49v23.37h-2.77V723.35a16.32,16.32,0,0,1-3.86,1.76V722.5l1-.43,1.14-.5c.26-.12.58-.28,1-.49A9.93,9.93,0,0,0,1093,720.46Z"/><path class="cls-10" d="M1111.37,743.28a7.74,7.74,0,0,1-7.28,0,6.89,6.89,0,0,1-2.51-2.57,13.09,13.09,0,0,1-1.4-3.82,22.71,22.71,0,0,1-.46-4.79,25.1,25.1,0,0,1,.3-4,14.18,14.18,0,0,1,1-3.34,9,9,0,0,1,1.58-2.55,6.52,6.52,0,0,1,2.26-1.62,7.28,7.28,0,0,1,2.92-.57,7,7,0,0,1,3.54.88,6.71,6.71,0,0,1,2.5,2.49,13.09,13.09,0,0,1,1.45,3.81,23.12,23.12,0,0,1,.48,4.92,23.42,23.42,0,0,1-.45,4.79,13.38,13.38,0,0,1-1.39,3.82A6.91,6.91,0,0,1,1111.37,743.28Zm-.9-19.64a3.6,3.6,0,0,0-5.47,0,8.06,8.06,0,0,0-1.71,3.4,19.49,19.49,0,0,0-.57,5,20.2,20.2,0,0,0,.57,5.06,8.24,8.24,0,0,0,1.71,3.47,3.54,3.54,0,0,0,5.47,0,8.24,8.24,0,0,0,1.71-3.47,20.2,20.2,0,0,0,.57-5.06,19.49,19.49,0,0,0-.57-5A8.06,8.06,0,0,0,1110.47,723.64Z"/><path class="cls-10" d="M1138.23,742.41l-7.09-16.5-.59-1.58.1,5.66v13.84h-2.53V720.72h3.5l8.05,18.41,8-18.41h3.41v23.11h-2.63v-13.9l.11-5.54L1148,726l-7.08,16.44Z"/><path class="cls-10" d="M1156.5,720.72h6.62c3,0,5.17.46,6.6,1.36a4.73,4.73,0,0,1,2.15,4.33,8.46,8.46,0,0,1,0,.87,6.55,6.55,0,0,1-.28,1.1,4.48,4.48,0,0,1-1.77,2.33,6.12,6.12,0,0,1-1.77.89,5.6,5.6,0,0,1,3.53,2,5.79,5.79,0,0,1,1.2,3.68,6,6,0,0,1-2,4.86q-2.06,1.73-6.12,1.72h-8.06Zm2.7,9.94h5a6.52,6.52,0,0,0,3.66-.84,3.4,3.4,0,0,0,1.24-3,3.14,3.14,0,0,0-1.48-3A9.94,9.94,0,0,0,1163,723h-3.78Zm0,2.17v8.78H1164a7.43,7.43,0,0,0,4.41-1.08,4,4,0,0,0,1.46-3.39,3.59,3.59,0,0,0-1.58-3.35,9.87,9.87,0,0,0-5-1Z"/><path class="cls-10" d="M1184.89,747.24h-2.25l10.56-26.31h2.28Z"/><path class="cls-10" d="M1226.44,732.25q0,5.64-3.21,8.61t-8.93,3h-6.86V720.72h6.4a18.19,18.19,0,0,1,5.17.68,11.15,11.15,0,0,1,4,2.06,9,9,0,0,1,2.58,3.61A14,14,0,0,1,1226.44,732.25Zm-2.89.08c0-3.23-.84-5.58-2.5-7.05s-4.1-2.2-7.29-2.2h-3.62v18.39h4.08q4.56,0,6.94-2.3T1223.55,732.33Z"/><path class="cls-10" d="M1245.5,735.25a9.55,9.55,0,0,1-2.13,6.46,7.28,7.28,0,0,1-5.87,2.48,7.14,7.14,0,0,1-5.74-2.5,10.78,10.78,0,0,1,0-12.89,7.37,7.37,0,0,1,5.88-2.47,7.13,7.13,0,0,1,5.76,2.48A9.62,9.62,0,0,1,1245.5,735.25Zm-13.17,0a8,8,0,0,0,1.35,4.88,4.57,4.57,0,0,0,3.94,1.84,4.45,4.45,0,0,0,3.87-1.83,8.32,8.32,0,0,0,1.31-4.92,8.4,8.4,0,0,0-1.29-4.95,5.13,5.13,0,0,0-7.84,0A8.19,8.19,0,0,0,1232.33,735.3Z"/><path class="cls-10" d="M1271,743.83v-8.92c0-.83,0-1.53,0-2.09a11.51,11.51,0,0,0-.25-1.72,4,4,0,0,0-.55-1.39,2.58,2.58,0,0,0-1-.82,3.14,3.14,0,0,0-1.5-.32,4.68,4.68,0,0,0-2.93.92,5,5,0,0,0-1.72,2.59,18.29,18.29,0,0,0-.14,2.41v9.34h-2.61v-9.2c0-.77,0-1.44-.08-2a9.16,9.16,0,0,0-.3-1.66,3.92,3.92,0,0,0-.58-1.3,2.68,2.68,0,0,0-1-.8,3.41,3.41,0,0,0-1.45-.29,5.08,5.08,0,0,0-3.15.95,4.58,4.58,0,0,0-1.71,2.53,21.2,21.2,0,0,0-.14,2.61v9.17h-2.61q0-16.08,0-17.14h2.18l.33,2.45a6.37,6.37,0,0,1,2.22-2,6.55,6.55,0,0,1,3.27-.81,7.38,7.38,0,0,1,1.75.2,5.4,5.4,0,0,1,1.35.49,4.27,4.27,0,0,1,1,.71,4,4,0,0,1,.65.81,5.38,5.38,0,0,1,.4.84,6.27,6.27,0,0,1,5.73-3,5.12,5.12,0,0,1,4.19,1.63,7.47,7.47,0,0,1,1.34,4.84v11Z"/><path class="cls-10" d="M1287.51,743.83c-.15-.66-.3-1.38-.45-2.15a9.21,9.21,0,0,1-2.67,2,7.21,7.21,0,0,1-2.94.55,5.74,5.74,0,0,1-3.87-1.26,4.5,4.5,0,0,1-1.46-3.61,4.28,4.28,0,0,1,2-3.89,12.69,12.69,0,0,1,5.74-1.58l1.55-.14,1.56-.13v-1.51a3.71,3.71,0,0,0-.85-2.69,3.54,3.54,0,0,0-2.65-.88,11.68,11.68,0,0,0-5.11,1.25c-.06-.12-.19-.48-.41-1.08l-.34-.93a10.71,10.71,0,0,1,2.71-1,13.71,13.71,0,0,1,3.19-.38q3.21,0,4.62,1.4c.94.93,1.42,2.52,1.42,4.76v11.34Zm-5.67-1.75a5.48,5.48,0,0,0,3.28-1,4.62,4.62,0,0,0,1.82-2.76v-2.89l-1,.08-1.13.09a11.89,11.89,0,0,0-4.73,1.11,2.82,2.82,0,0,0-1.33,2.61,2.6,2.6,0,0,0,.81,2.08A3.28,3.28,0,0,0,1281.84,742.08Z"/><path class="cls-10" d="M1297.12,720.46v3.09h-2.62v-3.09Zm0,6.23v17.14h-2.62V726.69Z"/><path class="cls-10" d="M1302,743.83V726.69h2.19l.33,2.45a7.7,7.7,0,0,1,2.53-2,7.27,7.27,0,0,1,3.29-.77,5.45,5.45,0,0,1,4.39,1.67,7.7,7.7,0,0,1,1.43,5.11v10.72h-2.61c0-6.87,0-10.56,0-11.05a5.38,5.38,0,0,0-.88-3.2,3.32,3.32,0,0,0-2.74-1,5.61,5.61,0,0,0-3.36,1,4.41,4.41,0,0,0-1.75,2.52,15.69,15.69,0,0,0-.16,2.41v9.37Z"/><path class="cls-10" d="M1108.76,1013.83h-2.7V1003h-12.41v10.81H1091V990.72h2.7v9.92h12.41v-9.92h2.7Z"/><path class="cls-10" d="M1121.42,1013.83h-2.72V993.11h-7.11v-2.39h16.94v2.39h-7.11Z"/><path class="cls-10" d="M1141.5,1012.41l-7.1-16.5-.59-1.58.11,5.66v13.84h-2.53V990.72h3.5l8,18.41,8-18.41h3.41v23.11h-2.62v-13.9l.11-5.54-.58,1.58-7.08,16.44Z"/><path class="cls-10" d="M1159.76,1013.83V990.72h2.72v20.71h10.17l-.09,2.4Z"/><path class="cls-10" d="M1188.69,990.46l-.22,2.56h-9.55q-.15,4.54-.23,7.36a7,7,0,0,1,3.82-1.13,8.25,8.25,0,0,1,3.11.56,6,6,0,0,1,2.23,1.52,6.63,6.63,0,0,1,1.32,2.26,8.41,8.41,0,0,1,.45,2.79,7.41,7.41,0,0,1-2.27,5.68,8.69,8.69,0,0,1-6.18,2.13,9,9,0,0,1-6.28-2.14l1-2.2a8.45,8.45,0,0,0,5.36,1.81,5.53,5.53,0,0,0,4-1.45,5.09,5.09,0,0,0,1.49-3.8,4.41,4.41,0,0,0-4.82-4.7,4.79,4.79,0,0,0-3.72,1.54l-2.17-.29.61-12.5Z"/><path class="cls-10" d="M1105.75,1148.83l-2.7-7.33h-9.22l-2.8,7.33h-2.75l8.87-23.15h2.77l8.61,23.15Zm-3.58-9.59q-3.3-9.59-3.64-10.77l-3.8,10.77Z"/><path class="cls-10" d="M1110.81,1148.83v-17.14H1113l.33,2.45a7.63,7.63,0,0,1,2.54-2,7.2,7.2,0,0,1,3.28-.77,5.49,5.49,0,0,1,4.4,1.67,7.75,7.75,0,0,1,1.42,5.11v10.72h-2.61c0-6.87,0-10.56,0-11a5.31,5.31,0,0,0-.88-3.2,3.32,3.32,0,0,0-2.74-1,5.61,5.61,0,0,0-3.36,1,4.41,4.41,0,0,0-1.75,2.52,15.69,15.69,0,0,0-.16,2.41v9.37Z"/><path class="cls-10" d="M1127.12,1131.69h2.77l5.41,14.27,4.81-14.27h2.76q-6.93,19.1-7.17,19.69a9.68,9.68,0,0,1-2.61,4,6.13,6.13,0,0,1-4,1.26,9.8,9.8,0,0,1-1.58-.13l-.15-2.22c.58,0,1,.07,1.31.07a4.63,4.63,0,0,0,2.68-.65,5.42,5.42,0,0,0,1.63-2.43c.43-1.1.75-1.94,1-2.53Z"/><path class="cls-10" d="M1158,1148.83l-7-23.11h2.83l5.72,19.89,5.72-19.47h3l5.55,19.49,5.76-19.91h2.83l-7.06,23.11h-3l-5.63-19.42-5.9,19.42Z"/><path class="cls-10" d="M1187.8,1125.46v3.09h-2.63v-3.09Zm0,6.23v17.14h-2.63v-17.14Z"/><path class="cls-10" d="M1192.7,1148.83v-17.14h2.19l.33,2.45a7.63,7.63,0,0,1,2.54-2,7.21,7.21,0,0,1,3.29-.77,5.48,5.48,0,0,1,4.39,1.67,7.75,7.75,0,0,1,1.42,5.11v10.72h-2.61c0-6.87,0-10.56,0-11a5.31,5.31,0,0,0-.88-3.2,3.32,3.32,0,0,0-2.74-1,5.61,5.61,0,0,0-3.36,1,4.41,4.41,0,0,0-1.75,2.52,15.69,15.69,0,0,0-.16,2.41v9.37Z"/><path class="cls-10" d="M1223,1146.35a6.12,6.12,0,0,1-2.25,2.06,6.95,6.95,0,0,1-8.45-1.65,10.28,10.28,0,0,1-1.93-6.57,9.93,9.93,0,0,1,2-6.41,6.34,6.34,0,0,1,5.23-2.45,7.2,7.2,0,0,1,3.21.74,5.23,5.23,0,0,1,2.26,2l0-1.49V1125l2.58-.15v23.95h-2.22Zm-5.14.59a4.47,4.47,0,0,0,3.83-1.66,7.68,7.68,0,0,0,1.26-4.73,9.25,9.25,0,0,0-1.21-5.23,4.41,4.41,0,0,0-3.91-1.75,4.33,4.33,0,0,0-2.13.51,4,4,0,0,0-1.48,1.44,7.08,7.08,0,0,0-.85,2.12,10.7,10.7,0,0,0-.29,2.61,10.88,10.88,0,0,0,.49,3.47,5,5,0,0,0,1.59,2.35A4.19,4.19,0,0,0,1217.89,1146.94Z"/><path class="cls-10" d="M1245.2,1140.25a9.59,9.59,0,0,1-2.12,6.46,7.32,7.32,0,0,1-5.88,2.48,7.15,7.15,0,0,1-5.74-2.5,10.8,10.8,0,0,1,0-12.89,7.34,7.34,0,0,1,5.87-2.47,7.16,7.16,0,0,1,5.77,2.48A9.66,9.66,0,0,1,1245.2,1140.25Zm-13.17,0a8,8,0,0,0,1.35,4.88,4.59,4.59,0,0,0,3.95,1.84,4.44,4.44,0,0,0,3.86-1.83,8.32,8.32,0,0,0,1.31-4.92,8.4,8.4,0,0,0-1.29-5,5.13,5.13,0,0,0-7.84,0A8.26,8.26,0,0,0,1232,1140.3Z"/><path class="cls-10" d="M1263.58,1148.83q-3.61-11.53-4.47-14.36-.49,1.72-1.11,3.72c-.42,1.33-.78,2.48-1.1,3.44s-.71,2.2-1.21,3.72-.89,2.68-1.14,3.48h-2.82l-4.89-17.14h2.71l3.67,14q.77-2.49,4.5-14h3q3.72,11.79,4.38,14l3.62-14h2.67l-4.94,17.14Z"/><path d="M680.79,474.27q-6.27,0-9.94-3.94t-3.67-10.9q0-6.6,3.83-10.6a13.32,13.32,0,0,1,10-4,15,15,0,0,1,8.5,2.32l-1.66,4a12.73,12.73,0,0,0-6.72-2.05,7.58,7.58,0,0,0-6.24,2.84,11.79,11.79,0,0,0-2.3,7.63q0,4.95,2.22,7.67a7.71,7.71,0,0,0,6.32,2.72,15.57,15.57,0,0,0,7.13-1.8l.7,4.14A15.88,15.88,0,0,1,680.79,474.27Z"/><path d="M702.45,474.27a9.48,9.48,0,0,1-7.5-3.08,11.83,11.83,0,0,1-2.73-8.13q0-5.19,2.73-8.19t7.71-3a9.54,9.54,0,0,1,7.53,3.06,13.49,13.49,0,0,1,0,16.31A9.87,9.87,0,0,1,702.45,474.27Zm.14-3.88a4.41,4.41,0,0,0,3.9-1.9,12,12,0,0,0,0-10.88,5.06,5.06,0,0,0-7.86,0,9.49,9.49,0,0,0-1.32,5.46,9.37,9.37,0,0,0,1.33,5.41A4.5,4.5,0,0,0,702.59,470.39Z"/><path d="M726.32,474.27a9.48,9.48,0,0,1-7.5-3.08,11.78,11.78,0,0,1-2.74-8.13q0-5.19,2.74-8.19t7.71-3a9.57,9.57,0,0,1,7.53,3.06,13.49,13.49,0,0,1,0,16.31A9.89,9.89,0,0,1,726.32,474.27Zm.13-3.88a4.43,4.43,0,0,0,3.91-1.9,12,12,0,0,0,0-10.88,5.06,5.06,0,0,0-7.86,0,9.49,9.49,0,0,0-1.32,5.46,9.3,9.3,0,0,0,1.33,5.41A4.48,4.48,0,0,0,726.45,470.39Z"/><path d="M741,473.86V444.49l5.11-.33v13.18l-.11,4.34a4.9,4.9,0,0,1,.4-.39l.42-.41c.71-.85,1.49-1.72,2.33-2.62s1.9-2,3.18-3.3,2.12-2.16,2.51-2.56h6.1l-8.83,9.14,9.39,12.32h-6.19l-7.07-9.74-2.13,1.68v8.06Z"/><path d="M764,449.27V444.9h5.14v4.37Zm0,24.59V452.4h5.12v21.46Z"/><path d="M784.36,474.27q-5.18,0-8.05-3c-1.92-2-2.88-4.73-2.88-8.24a11.74,11.74,0,0,1,2.71-8.14,9.52,9.52,0,0,1,7.4-3.05,8.75,8.75,0,0,1,6.89,2.77,10.75,10.75,0,0,1,2.45,7.37c0,.22,0,.58,0,1.07s0,.86,0,1.1H778.58a6.72,6.72,0,0,0,1.65,4.65,5.66,5.66,0,0,0,4.33,1.65,13.58,13.58,0,0,0,6.76-1.83l.72,3.63A14.31,14.31,0,0,1,784.36,474.27ZM778.68,461h9.37a6,6,0,0,0-1.19-4,4.08,4.08,0,0,0-3.3-1.41,4.54,4.54,0,0,0-3.33,1.37A6.24,6.24,0,0,0,778.68,461Z"/><path d="M803.89,474.25a15.33,15.33,0,0,1-7.59-1.62l.52-3.84a17,17,0,0,0,3.29,1.26,13.52,13.52,0,0,0,3.63.55,4.79,4.79,0,0,0,2.65-.63,2.15,2.15,0,0,0,1-1.87,2,2,0,0,0-.89-1.76,16.55,16.55,0,0,0-3.39-1.6l-1.11-.41a11.48,11.48,0,0,1-4.28-2.57,5.42,5.42,0,0,1-1.3-3.83,5.26,5.26,0,0,1,2.11-4.5,9.83,9.83,0,0,1,5.91-1.56,16.11,16.11,0,0,1,7.21,1.54L810.34,457a13.86,13.86,0,0,0-5.84-1.43,4.76,4.76,0,0,0-2.41.52,1.71,1.71,0,0,0-.87,1.57,1.77,1.77,0,0,0,.84,1.56,18.36,18.36,0,0,0,3.28,1.45l.51.18.66.25a11,11,0,0,1,4.34,2.57,5.52,5.52,0,0,1,1.38,3.9,6.12,6.12,0,0,1-2.18,5A9.57,9.57,0,0,1,803.89,474.25Z"/><path class="cls-11" d="M1111.51,473.86h-2.83a13.42,13.42,0,0,1-5.39-.78,5,5,0,0,1-1.49-1c-1-1-1.46-3.22-1.5-6.64V446h-6.41V443.3h10v21.93q0,3.88.72,4.77a2.61,2.61,0,0,0,1.78,1,17.64,17.64,0,0,0,2.19.13h3.15Z"/><path class="cls-11" d="M1134.21,454.92a13.31,13.31,0,0,1,2.32,8.16,12.59,12.59,0,0,1-2.52,8.16,8.34,8.34,0,0,1-6.83,3.11,9.2,9.2,0,0,1-4.11-.88,7.73,7.73,0,0,1-2.91-2.42,13.51,13.51,0,0,1-2.24-8.08,12.47,12.47,0,0,1,2.48-8.08,8.44,8.44,0,0,1,7-3.1A8,8,0,0,1,1134.21,454.92Zm-7,16.7a5,5,0,0,0,5.07-3.71,12,12,0,0,0,.73-4.1,27,27,0,0,0-.16-3.27,8.59,8.59,0,0,0-1.69-4.33,4.75,4.75,0,0,0-4-1.68c-2.43,0-4.08,1.26-5,3.79a13.11,13.11,0,0,0-.7,4.25,15,15,0,0,0,1.23,6.5A4.49,4.49,0,0,0,1127.18,471.62Z"/><path class="cls-11" d="M1158.8,472.46a8.32,8.32,0,0,1-5.84,1.89,10.32,10.32,0,0,1-4.42-.93,8.87,8.87,0,0,1-3.26-2.49,12.12,12.12,0,0,1-2.68-7.91,12.48,12.48,0,0,1,1.23-5.52,10,10,0,0,1,3.6-4.12,10.37,10.37,0,0,1,5.88-1.59,7.52,7.52,0,0,1,5.43,1.86l-.9,2.38a8.94,8.94,0,0,0-5.08-1.5,5.72,5.72,0,0,0-4.7,2.42,9.82,9.82,0,0,0-1.86,6.16,9.62,9.62,0,0,0,1.86,6.12,5.82,5.82,0,0,0,4.77,2.39,8.64,8.64,0,0,0,5.11-1.56Z"/><path class="cls-11" d="M1179.81,459.1q0-4.59-3.88-4.59a21.2,21.2,0,0,0-4.06.43,17,17,0,0,0-3.11.82l-.84-2.62a24,24,0,0,1,7.59-1.35,9.24,9.24,0,0,1,5.71,1.62,5.88,5.88,0,0,1,2.15,5v15.45h-2.95l-.47-2.48a9.92,9.92,0,0,1-3.21,2.12,9.58,9.58,0,0,1-3.84.85,6.43,6.43,0,0,1-4.51-1.63,5.9,5.9,0,0,1-1.8-4.61,4.7,4.7,0,0,1,2.34-4.36,10.3,10.3,0,0,1,3.37-1.34c1.19-.24,2.75-.48,4.66-.71l2.85-.34Zm0,10v-5.47l-2.91.41a23.69,23.69,0,0,0-4.22.86,3.46,3.46,0,0,0-2.61,3.34,3.55,3.55,0,0,0,.93,2.58,3.45,3.45,0,0,0,2.58.95A8.42,8.42,0,0,0,1179.81,469.08Z"/><path class="cls-11" d="M1207.53,473.86h-2.84a13.45,13.45,0,0,1-5.39-.78,4.89,4.89,0,0,1-1.48-1c-1-1-1.47-3.22-1.5-6.64V446h-6.41V443.3h10v21.93c0,2.59.24,4.18.71,4.77a2.64,2.64,0,0,0,1.79,1,17.64,17.64,0,0,0,2.19.13h3.14Z"/><path class="cls-11" d="M1215.38,468.77a11.39,11.39,0,0,0,7.44,2.55,4.54,4.54,0,0,0,3.61-1.43,5.4,5.4,0,0,0,1.27-3.72,4.41,4.41,0,0,0-1.32-3.47,10.71,10.71,0,0,0-3.19-1.94l-1.17-.47a23.44,23.44,0,0,1-4.6-2.25,9,9,0,0,1-1.87-1.68,7,7,0,0,1-1.38-4.43,6.88,6.88,0,0,1,2.48-5.67,9.76,9.76,0,0,1,6.38-2c3.29,0,5.84.73,7.68,2.17l-1.37,2.82a9.63,9.63,0,0,0-6.11-2,5.15,5.15,0,0,0-3.66,1.26,4.54,4.54,0,0,0-1.36,3.52,4.25,4.25,0,0,0,2.48,3.7,25.34,25.34,0,0,0,2.84,1.27,35.74,35.74,0,0,1,3.81,1.74,9.33,9.33,0,0,1,3.19,2.69,7,7,0,0,1,1.29,4.34,8.16,8.16,0,0,1-2.43,6.39,9.53,9.53,0,0,1-6.65,2.2A15.47,15.47,0,0,1,1214,472Z"/><path class="cls-11" d="M1246.63,455.17v10.06a17.68,17.68,0,0,0,.2,3,3.63,3.63,0,0,0,.82,1.78,3,3,0,0,0,1.6.91,11.55,11.55,0,0,0,2.65.24h3.93l-.2,2.73H1252c-3.69,0-6.14-.67-7.36-2a7.3,7.3,0,0,1-1.47-4.27,32.24,32.24,0,0,1-.14-3.23v-9.16h-6l.39-2.73h5.66v-7.38l3.56-1.06v8.44h9v2.73Z"/><path class="cls-11" d="M1278.23,454.92a13.31,13.31,0,0,1,2.32,8.16,12.59,12.59,0,0,1-2.52,8.16,8.33,8.33,0,0,1-6.83,3.11,9.15,9.15,0,0,1-4.1-.88,7.58,7.58,0,0,1-2.91-2.42,13.44,13.44,0,0,1-2.25-8.08,12.53,12.53,0,0,1,2.48-8.08,8.44,8.44,0,0,1,7-3.1A8,8,0,0,1,1278.23,454.92Zm-7,16.7a5,5,0,0,0,5.08-3.71,12,12,0,0,0,.72-4.1,25.12,25.12,0,0,0-.16-3.27,8.5,8.5,0,0,0-1.69-4.33,4.75,4.75,0,0,0-4-1.68c-2.42,0-4.08,1.26-5,3.79a12.85,12.85,0,0,0-.71,4.25,15,15,0,0,0,1.23,6.5A4.5,4.5,0,0,0,1271.2,471.62Z"/><path class="cls-11" d="M1293.85,473.86h-3.55V452.44h2.91l.29,4a8.92,8.92,0,0,1,3.44-3.43,9.75,9.75,0,0,1,4.82-1.18h1.72v3.3h-2.22a8,8,0,0,0-5.41,1.71,6.42,6.42,0,0,0-2,5.15Z"/><path class="cls-11" d="M1323.84,459.1q0-4.59-3.89-4.59a21,21,0,0,0-4,.43,17.15,17.15,0,0,0-3.12.82l-.84-2.62a24.08,24.08,0,0,1,7.6-1.35,9.22,9.22,0,0,1,5.7,1.62,5.88,5.88,0,0,1,2.15,5v15.45h-3l-.47-2.48a9.81,9.81,0,0,1-3.21,2.12,9.58,9.58,0,0,1-3.84.85,6.45,6.45,0,0,1-4.51-1.63,5.9,5.9,0,0,1-1.8-4.61,4.69,4.69,0,0,1,2.35-4.36,10.13,10.13,0,0,1,3.37-1.34c1.19-.24,2.74-.48,4.65-.71l2.86-.34Zm0,10v-5.47l-2.91.41a23.49,23.49,0,0,0-4.22.86c-1.75.66-2.62,1.78-2.62,3.34a3.51,3.51,0,0,0,.94,2.58,3.41,3.41,0,0,0,2.57.95A8.45,8.45,0,0,0,1323.84,469.08Z"/><path class="cls-11" d="M1348.6,469.76a6.44,6.44,0,0,1-2.34,2.89,6.24,6.24,0,0,1-3.75,1.21,7.62,7.62,0,0,1-6.43-3.15,12.51,12.51,0,0,1-2.36-7.71q0-6.09,3-9.1a8.16,8.16,0,0,1,5.92-2.11,6.65,6.65,0,0,1,5.92,3.56l.12-2.91h3.61q-.18,4.79-.17,12.71v5.74q0,6.92-3,9.42a12.06,12.06,0,0,1-6.53,2.3,43.53,43.53,0,0,1-5.07.26l-.3-2.74a26.3,26.3,0,0,0,6.11-.5,8.29,8.29,0,0,0,2.68-1.14,5.57,5.57,0,0,0,1.45-1.62,11.36,11.36,0,0,0,1.11-5.68Zm-1.69-13.54a4.17,4.17,0,0,0-1.63-1.23,5.6,5.6,0,0,0-2.35-.46,5.5,5.5,0,0,0-2.36.47A4.7,4.7,0,0,0,1338,458a13,13,0,0,0-.72,4.22,20.6,20.6,0,0,0,.18,3.18,7.6,7.6,0,0,0,1.64,3.82,4.52,4.52,0,0,0,3.65,1.53,5,5,0,0,0,5.1-3.36,10.12,10.12,0,0,0,.74-3.8,25.74,25.74,0,0,0-.15-3.13,10.8,10.8,0,0,0-.53-2.3A6.27,6.27,0,0,0,1346.91,456.22Z"/><path class="cls-11" d="M1363.25,472.86a9,9,0,0,1-3.33-4,14.39,14.39,0,0,1-1.08-5.71,15.37,15.37,0,0,1,1-5.71,9.38,9.38,0,0,1,3-4.08,7,7,0,0,1,4.4-1.56c3,0,5.24,1,6.64,3.11a13.26,13.26,0,0,1,2.11,7.64v1.19h-13.57a10.59,10.59,0,0,0,1.65,5.6,5.16,5.16,0,0,0,4.6,2.31,16.29,16.29,0,0,0,5.72-2.23l1.17,2.42a9.33,9.33,0,0,1-6.93,2.54A9.55,9.55,0,0,1,1363.25,472.86Zm9.35-11.75q-.39-6.58-4.6-6.58-4.77,0-5.45,6.58Z"/><path class="cls-11" d="M1539,463.86a6.41,6.41,0,0,1,1.28,4.29,5.47,5.47,0,0,1-2.14,4.5,8.33,8.33,0,0,1-5.36,1.7,17.58,17.58,0,0,1-4.48-.57,9.65,9.65,0,0,1-3.2-1.36l.88-2.56a11.26,11.26,0,0,0,2.6,1,13.89,13.89,0,0,0,3.85.51,5.66,5.66,0,0,0,3.32-.87,2.69,2.69,0,0,0,1.24-2.31,3.78,3.78,0,0,0-.61-2.28,4.11,4.11,0,0,0-2.37-1.26l-3.64-.87c-2.09-.53-3.49-1.28-4.18-2.28a6.39,6.39,0,0,1-1-3.72,5.78,5.78,0,0,1,1.81-4.1,7.09,7.09,0,0,1,5.26-1.92h.25a13.81,13.81,0,0,1,6.62,1.47l-.78,2.5a14.62,14.62,0,0,0-5.78-1.21,4.81,4.81,0,0,0-3,.91,2.7,2.7,0,0,0-1.16,2.23,3,3,0,0,0,.59,2,4.24,4.24,0,0,0,2.22,1.07l3.73.92A7.59,7.59,0,0,1,1539,463.86Z"/><path class="cls-11" d="M1552.37,472.86a9,9,0,0,1-3.33-4,14.22,14.22,0,0,1-1.09-5.71,15.37,15.37,0,0,1,1-5.71,9.38,9.38,0,0,1,3-4.08,7,7,0,0,1,4.4-1.56q4.53,0,6.64,3.11a13.26,13.26,0,0,1,2.11,7.64v1.19h-13.57a10.42,10.42,0,0,0,1.65,5.6,5.14,5.14,0,0,0,4.6,2.31,16.37,16.37,0,0,0,5.72-2.23l1.17,2.42a9.33,9.33,0,0,1-6.93,2.54A9.53,9.53,0,0,1,1552.37,472.86Zm9.35-11.75c-.26-4.39-1.79-6.58-4.61-6.58q-4.75,0-5.45,6.58Z"/><path class="cls-11" d="M1587,463.86a6.35,6.35,0,0,1,1.28,4.29,5.44,5.44,0,0,1-2.14,4.5,8.29,8.29,0,0,1-5.36,1.7,17.56,17.56,0,0,1-4.47-.57,9.65,9.65,0,0,1-3.2-1.36l.88-2.56a11.15,11.15,0,0,0,2.59,1,14,14,0,0,0,3.86.51,5.68,5.68,0,0,0,3.32-.87,2.69,2.69,0,0,0,1.24-2.31,3.78,3.78,0,0,0-.61-2.28,4.11,4.11,0,0,0-2.38-1.26l-3.63-.87c-2.1-.53-3.49-1.28-4.18-2.28a6.39,6.39,0,0,1-1-3.72,5.81,5.81,0,0,1,1.8-4.1,7.13,7.13,0,0,1,5.27-1.92h.25a13.81,13.81,0,0,1,6.62,1.47l-.78,2.5a14.62,14.62,0,0,0-5.78-1.21,4.81,4.81,0,0,0-3,.91,2.7,2.7,0,0,0-1.16,2.23,3,3,0,0,0,.58,2,4.32,4.32,0,0,0,2.23,1.07l3.73.92A7.52,7.52,0,0,1,1587,463.86Z"/><path class="cls-11" d="M1611.05,463.86a6.41,6.41,0,0,1,1.28,4.29,5.47,5.47,0,0,1-2.14,4.5,8.31,8.31,0,0,1-5.36,1.7,17.58,17.58,0,0,1-4.48-.57,9.65,9.65,0,0,1-3.2-1.36l.88-2.56a11.26,11.26,0,0,0,2.6,1,13.92,13.92,0,0,0,3.86.51,5.7,5.7,0,0,0,3.32-.87,2.71,2.71,0,0,0,1.24-2.31,3.78,3.78,0,0,0-.62-2.28,4.11,4.11,0,0,0-2.37-1.26l-3.63-.87c-2.1-.53-3.49-1.28-4.18-2.28a6.32,6.32,0,0,1-1-3.72,5.78,5.78,0,0,1,1.81-4.1,7.1,7.1,0,0,1,5.26-1.92h.25a13.85,13.85,0,0,1,6.63,1.47l-.79,2.5a14.59,14.59,0,0,0-5.78-1.21,4.81,4.81,0,0,0-3,.91,2.7,2.7,0,0,0-1.16,2.23,3,3,0,0,0,.59,2,4.24,4.24,0,0,0,2.22,1.07l3.74.92A7.56,7.56,0,0,1,1611.05,463.86Z"/><path class="cls-11" d="M1621.37,455.17v-2.73H1631v18.69h6.13v2.73h-16.48v-2.73h6.79v-16Zm5.53-8.38v-1.93a1.51,1.51,0,0,1,.79-1.24,2.55,2.55,0,0,1,3.14,0,1.51,1.51,0,0,1,.79,1.24v1.93a1.49,1.49,0,0,1-.79,1.24,2.55,2.55,0,0,1-3.14,0A1.49,1.49,0,0,1,1626.9,446.79Z"/><path class="cls-11" d="M1659.38,454.92a13.31,13.31,0,0,1,2.32,8.16,12.59,12.59,0,0,1-2.52,8.16,8.34,8.34,0,0,1-6.83,3.11,9.12,9.12,0,0,1-4.1-.88,7.58,7.58,0,0,1-2.91-2.42,13.44,13.44,0,0,1-2.25-8.08,12.53,12.53,0,0,1,2.48-8.08,8.44,8.44,0,0,1,7-3.1A8,8,0,0,1,1659.38,454.92Zm-7,16.7a5.05,5.05,0,0,0,5.08-3.71,12,12,0,0,0,.72-4.1,25.12,25.12,0,0,0-.16-3.27,8.59,8.59,0,0,0-1.69-4.33,4.75,4.75,0,0,0-4-1.68c-2.42,0-4.08,1.26-5,3.79a12.85,12.85,0,0,0-.71,4.25,15,15,0,0,0,1.23,6.5A4.49,4.49,0,0,0,1652.35,471.62Z"/><path class="cls-11" d="M1678.32,451.79q6.66,0,6.66,8.44v13.63h-3.55v-13.2a15.21,15.21,0,0,0-.24-3.24,4.21,4.21,0,0,0-.7-1.6,3.86,3.86,0,0,0-3.26-1.29,5.81,5.81,0,0,0-3.87,1.33,4.35,4.35,0,0,0-1.58,3.51v14.49h-3.55V452.44h3.26l.19,2.32C1673.1,452.78,1675.32,451.79,1678.32,451.79Z"/><path class="cls-11" d="M1692.54,468.77a11.42,11.42,0,0,0,7.44,2.55,4.57,4.57,0,0,0,3.62-1.43,5.45,5.45,0,0,0,1.27-3.72,4.41,4.41,0,0,0-1.32-3.47,10.89,10.89,0,0,0-3.2-1.94l-1.17-.47a24.05,24.05,0,0,1-4.6-2.25,8.86,8.86,0,0,1-1.86-1.68,7,7,0,0,1-1.39-4.43,6.91,6.91,0,0,1,2.48-5.67,9.79,9.79,0,0,1,6.39-2c3.28,0,5.84.73,7.67,2.17l-1.36,2.82a9.66,9.66,0,0,0-6.12-2,5.18,5.18,0,0,0-3.66,1.26,4.58,4.58,0,0,0-1.36,3.52,4.25,4.25,0,0,0,2.48,3.7,25.67,25.67,0,0,0,2.85,1.27,35.74,35.74,0,0,1,3.81,1.74,9.52,9.52,0,0,1,3.19,2.69,7,7,0,0,1,1.29,4.34,8.16,8.16,0,0,1-2.43,6.39,9.55,9.55,0,0,1-6.65,2.2,15.45,15.45,0,0,1-8.75-2.32Z"/><path class="cls-11" d="M1723.79,455.17v10.06a16.52,16.52,0,0,0,.21,3,3.55,3.55,0,0,0,.82,1.78,3,3,0,0,0,1.59.91,11.64,11.64,0,0,0,2.66.24H1733l-.19,2.73h-3.6c-3.68,0-6.14-.67-7.36-2a7.44,7.44,0,0,1-1.47-4.27c-.09-.88-.13-1.95-.13-3.23v-9.16h-6.06l.39-2.73h5.67v-7.38l3.55-1.06v8.44h9v2.73Z"/><path class="cls-11" d="M1755.39,454.92a13.32,13.32,0,0,1,2.33,8.16,12.59,12.59,0,0,1-2.52,8.16,8.35,8.35,0,0,1-6.84,3.11,9.18,9.18,0,0,1-4.1-.88,7.58,7.58,0,0,1-2.91-2.42,13.44,13.44,0,0,1-2.25-8.08,12.48,12.48,0,0,1,2.49-8.08,8.44,8.44,0,0,1,7-3.1A8,8,0,0,1,1755.39,454.92Zm-7,16.7a5,5,0,0,0,5.08-3.71,12,12,0,0,0,.72-4.1,27.43,27.43,0,0,0-.15-3.27,8.68,8.68,0,0,0-1.69-4.33,4.75,4.75,0,0,0-4-1.68q-3.63,0-5,3.79a12.84,12.84,0,0,0-.7,4.25,15,15,0,0,0,1.23,6.5A4.49,4.49,0,0,0,1748.36,471.62Z"/><path class="cls-11" d="M1771,473.86h-3.56V452.44h2.91l.3,4a8.9,8.9,0,0,1,3.43-3.43,9.76,9.76,0,0,1,4.83-1.18h1.72v3.3h-2.23a8,8,0,0,0-5.41,1.71,6.41,6.41,0,0,0-2,5.15Z"/><path class="cls-11" d="M1801,459.1q0-4.59-3.89-4.59a21.18,21.18,0,0,0-4,.43,17.15,17.15,0,0,0-3.12.82l-.84-2.62a24.08,24.08,0,0,1,7.6-1.35,9.28,9.28,0,0,1,5.71,1.62,5.88,5.88,0,0,1,2.14,5v15.45h-3l-.46-2.48a10,10,0,0,1-3.22,2.12,9.53,9.53,0,0,1-3.83.85,6.47,6.47,0,0,1-4.52-1.63,5.93,5.93,0,0,1-1.79-4.61,4.7,4.7,0,0,1,2.34-4.36,10.3,10.3,0,0,1,3.37-1.34c1.19-.24,2.74-.48,4.66-.71l2.85-.34Zm0,10v-5.47l-2.91.41a23.69,23.69,0,0,0-4.22.86c-1.74.66-2.62,1.78-2.62,3.34a3.56,3.56,0,0,0,.94,2.58,3.45,3.45,0,0,0,2.58.95A8.43,8.43,0,0,0,1801,469.08Z"/><path class="cls-11" d="M1825.76,469.76a6.44,6.44,0,0,1-2.34,2.89,6.24,6.24,0,0,1-3.75,1.21,7.59,7.59,0,0,1-6.42-3.15,12.46,12.46,0,0,1-2.37-7.71q0-6.09,3-9.1a8.15,8.15,0,0,1,5.92-2.11,6.63,6.63,0,0,1,5.91,3.56l.12-2.91h3.62q-.18,4.79-.18,12.71v5.74q0,6.92-3,9.42a12,12,0,0,1-6.52,2.3,43.71,43.71,0,0,1-5.08.26l-.29-2.74a26.2,26.2,0,0,0,6.1-.5,8.36,8.36,0,0,0,2.69-1.14,5.41,5.41,0,0,0,1.44-1.62,11.36,11.36,0,0,0,1.11-5.68Zm-1.68-13.54a4.2,4.2,0,0,0-1.64-1.23,5.57,5.57,0,0,0-2.35-.46,5.42,5.42,0,0,0-2.35.47,4.69,4.69,0,0,0-2.57,2.95,12.94,12.94,0,0,0-.71,4.22,20.88,20.88,0,0,0,.17,3.18,7.68,7.68,0,0,0,1.64,3.82,4.52,4.52,0,0,0,3.66,1.53,5,5,0,0,0,5.09-3.36,9.93,9.93,0,0,0,.74-3.8,26.08,26.08,0,0,0-.14-3.13,11.47,11.47,0,0,0-.54-2.3A6.26,6.26,0,0,0,1824.08,456.22Z"/><path class="cls-11" d="M1840.41,472.86a9.08,9.08,0,0,1-3.33-4,14.39,14.39,0,0,1-1.08-5.71,15.17,15.17,0,0,1,1-5.71,9.43,9.43,0,0,1,3-4.08,7,7,0,0,1,4.41-1.56q4.53,0,6.64,3.11a13.34,13.34,0,0,1,2.11,7.64v1.19h-13.58a10.59,10.59,0,0,0,1.65,5.6,5.17,5.17,0,0,0,4.6,2.31,16.33,16.33,0,0,0,5.73-2.23l1.17,2.42a9.35,9.35,0,0,1-6.94,2.54A9.57,9.57,0,0,1,1840.41,472.86Zm9.36-11.75q-.39-6.58-4.61-6.58-4.77,0-5.45,6.58Z"/><path class="cls-10" d="M1112.72,856.19h-3.14l-12.3-18.63-.8-1.11q.13,3.36.13,6v13.73H1094V832.51h3.09l12.33,18.64.81,1.11q-.11-5.12-.11-5.91V832.51h2.58Z"/><path class="cls-10" d="M1125.22,856.56a7.7,7.7,0,0,1-6-2.43,9.54,9.54,0,0,1-2.21-6.66,10,10,0,0,1,2.13-6.62,7.11,7.11,0,0,1,5.61-2.59,6.51,6.51,0,0,1,5.18,2.23,8.9,8.9,0,0,1,1.91,6c0,.13,0,.36,0,.7s0,.59,0,.74h-12a7,7,0,0,0,1.54,4.67,5.15,5.15,0,0,0,4,1.67,12,12,0,0,0,5.59-1.47l.41,2.16A11.43,11.43,0,0,1,1125.22,856.56Zm2.7-14.69a4,4,0,0,0-3.22-1.4,4.27,4.27,0,0,0-3.35,1.45,6.64,6.64,0,0,0-1.52,4h9.27A6.05,6.05,0,0,0,1127.92,841.87Z"/><path class="cls-10" d="M1140,856.19l-6.8-17.56h2.87l3.87,10.44,1.6,4.45c.36-1.14.87-2.62,1.51-4.42q1.22-3.4,3.77-10.47h2.85L1143,856.19Z"/><path class="cls-10" d="M1159.26,856.56a7.7,7.7,0,0,1-6-2.43,9.54,9.54,0,0,1-2.21-6.66,10,10,0,0,1,2.13-6.62,7.11,7.11,0,0,1,5.61-2.59,6.51,6.51,0,0,1,5.18,2.23,8.9,8.9,0,0,1,1.91,6c0,.13,0,.36,0,.7s0,.59,0,.74h-12a7,7,0,0,0,1.54,4.67,5.15,5.15,0,0,0,4,1.67,12,12,0,0,0,5.59-1.47l.41,2.16A11.43,11.43,0,0,1,1159.26,856.56Zm2.7-14.69a4,4,0,0,0-3.22-1.4,4.27,4.27,0,0,0-3.35,1.45,6.64,6.64,0,0,0-1.52,4h9.27A6.05,6.05,0,0,0,1162,841.87Z"/><path class="cls-10" d="M1177.45,838.47a7.5,7.5,0,0,1,1.31.1l-.09,2.46a8.26,8.26,0,0,0-1.28-.13,4.65,4.65,0,0,0-3.64,1.56,5.57,5.57,0,0,0-1.4,3.87v9.86h-2.68q0-16.17,0-17.56h2.22l.26,3.15a7.5,7.5,0,0,1,2.32-2.4A5.4,5.4,0,0,1,1177.45,838.47Z"/><path class="cls-10" d="M1205.15,847.4A9.75,9.75,0,0,1,1203,854a7.47,7.47,0,0,1-6,2.54,7.33,7.33,0,0,1-5.88-2.56,11,11,0,0,1,0-13.21,7.54,7.54,0,0,1,6-2.53,7.33,7.33,0,0,1,5.91,2.54A9.87,9.87,0,0,1,1205.15,847.4Zm-13.5.05a8.31,8.31,0,0,0,1.39,5,4.71,4.71,0,0,0,4,1.88,4.58,4.58,0,0,0,4-1.88,10.31,10.31,0,0,0,0-10.11,5.25,5.25,0,0,0-8,0A8.41,8.41,0,0,0,1191.65,847.45Z"/><path class="cls-10" d="M1216.81,838.47a7.58,7.58,0,0,1,1.31.1L1218,841a8.15,8.15,0,0,0-1.28-.13,4.66,4.66,0,0,0-3.64,1.56,5.61,5.61,0,0,0-1.4,3.87v9.86H1209q0-16.17,0-17.56h2.22l.26,3.15a7.5,7.5,0,0,1,2.32-2.4A5.41,5.41,0,0,1,1216.81,838.47Z"/><path class="cls-10" d="M1251,844.36a15.53,15.53,0,0,1-.75,4.95,11.09,11.09,0,0,1-2.14,3.85,9.56,9.56,0,0,1-3.53,2.5,12.39,12.39,0,0,1-4.79.89,11.73,11.73,0,0,1-6.14-1.53,9.59,9.59,0,0,1-3.83-4.26,15,15,0,0,1-1.27-6.41q0-5.69,3-9t8.29-3.28a10.5,10.5,0,0,1,8.23,3.3C1250,837.61,1251,840.59,1251,844.36Zm-19.5,0a11.13,11.13,0,0,0,2.09,7.17,7.51,7.51,0,0,0,6.2,2.6,7.42,7.42,0,0,0,6.17-2.6,11.19,11.19,0,0,0,2.07-7.17c0-3.12-.69-5.53-2.08-7.25a8.64,8.64,0,0,0-12.32,0C1232.22,838.83,1231.51,841.24,1231.51,844.36Z"/><path class="cls-10" d="M1255.09,856.19V838.63h2.24l.34,2.51a7.87,7.87,0,0,1,2.6-2.09,7.43,7.43,0,0,1,3.37-.79,5.59,5.59,0,0,1,4.5,1.71q1.45,1.69,1.46,5.24v11h-2.68q0-10.56,0-11.32a5.53,5.53,0,0,0-.91-3.28,3.43,3.43,0,0,0-2.81-1,5.74,5.74,0,0,0-3.44,1,4.49,4.49,0,0,0-1.79,2.58,16.52,16.52,0,0,0-.16,2.47v9.6Z"/><path class="cls-10" d="M1293.1,854.74l-7.27-16.91-.61-1.62.11,5.8v14.18h-2.59V832.51h3.59l8.24,18.86,8.17-18.86h3.49v23.68h-2.69V841.94l.11-5.66-.59,1.61-7.25,16.85Z"/><path class="cls-10" d="M1322.21,856.19c-.16-.68-.32-1.42-.47-2.21a9.16,9.16,0,0,1-2.73,2,7.38,7.38,0,0,1-3,.56,5.87,5.87,0,0,1-4-1.29,4.6,4.6,0,0,1-1.49-3.7,4.39,4.39,0,0,1,2-4,13.24,13.24,0,0,1,5.88-1.62l1.59-.13,1.6-.14v-1.55a3.84,3.84,0,0,0-.87-2.76,3.65,3.65,0,0,0-2.72-.89,11.81,11.81,0,0,0-5.23,1.28c-.06-.13-.2-.5-.42-1.12s-.34-.93-.35-.95a11.6,11.6,0,0,1,2.77-1.05,13.94,13.94,0,0,1,3.28-.39c2.19,0,3.76.48,4.73,1.43s1.45,2.58,1.45,4.88v11.62Zm-5.81-1.79a5.56,5.56,0,0,0,3.35-1,4.7,4.7,0,0,0,1.87-2.82v-3l-1,.08-1.16.1a12,12,0,0,0-4.85,1.14,2.88,2.88,0,0,0-1.37,2.67,2.65,2.65,0,0,0,.84,2.13A3.36,3.36,0,0,0,1316.4,854.4Z"/><path class="cls-10" d="M1328.9,856.19V838.63h2.24l.34,2.51a7.87,7.87,0,0,1,2.6-2.09,7.43,7.43,0,0,1,3.37-.79A5.59,5.59,0,0,1,1342,840q1.46,1.69,1.46,5.24v11h-2.68q0-10.56,0-11.32a5.53,5.53,0,0,0-.91-3.28,3.43,3.43,0,0,0-2.81-1,5.76,5.76,0,0,0-3.44,1,4.49,4.49,0,0,0-1.79,2.58,16.52,16.52,0,0,0-.16,2.47v9.6Z"/><path class="cls-10" d="M1347.25,850.33v-11.7h2.69v11.74a5.13,5.13,0,0,0,.33,2,2.77,2.77,0,0,0,.94,1.24,4.19,4.19,0,0,0,1.39.63,7.45,7.45,0,0,0,1.79.19,5.1,5.1,0,0,0,3.24-.91,3.7,3.7,0,0,0,1.16-3.1V838.63h2.69v11.7a7.27,7.27,0,0,1-.38,2.42,5.36,5.36,0,0,1-1,1.79,5.6,5.6,0,0,1-1.57,1.17,7.57,7.57,0,0,1-1.92.68,12,12,0,0,1-4.37,0,7.71,7.71,0,0,1-1.94-.68,5.61,5.61,0,0,1-1.59-1.19,5.18,5.18,0,0,1-1-1.78A7.3,7.3,0,0,1,1347.25,850.33Z"/><path class="cls-10" d="M1376.36,856.19c-.16-.68-.32-1.42-.47-2.21a9.07,9.07,0,0,1-2.74,2,7.32,7.32,0,0,1-3,.56,5.86,5.86,0,0,1-4-1.29,4.61,4.61,0,0,1-1.5-3.7,4.39,4.39,0,0,1,2-4,13.24,13.24,0,0,1,5.88-1.62l1.59-.13,1.6-.14v-1.55a3.84,3.84,0,0,0-.87-2.76,3.65,3.65,0,0,0-2.72-.89,11.88,11.88,0,0,0-5.24,1.28c0-.13-.19-.5-.41-1.12s-.34-.93-.35-.95a11.44,11.44,0,0,1,2.77-1.05,13.94,13.94,0,0,1,3.28-.39c2.19,0,3.76.48,4.73,1.43s1.45,2.58,1.45,4.88v11.62Zm-5.81-1.79a5.58,5.58,0,0,0,3.35-1,4.64,4.64,0,0,0,1.86-2.82v-3l-1,.08-1.16.1a12,12,0,0,0-4.85,1.14,2.88,2.88,0,0,0-1.37,2.67,2.65,2.65,0,0,0,.84,2.13A3.36,3.36,0,0,0,1370.55,854.4Z"/><path class="cls-10" d="M1387.77,856.51a4.29,4.29,0,0,1-3.62-1.37c-.71-.92-1.07-2.52-1.07-4.79V831.81l2.66-.16v17.64c0,.73,0,1.31,0,1.75s.06.87.12,1.29a3.38,3.38,0,0,0,.26.95,1.93,1.93,0,0,0,.46.58,1.62,1.62,0,0,0,.73.36,6.24,6.24,0,0,0,1.05.08,19.29,19.29,0,0,0,2-.19l.14,2.13A17.64,17.64,0,0,1,1387.77,856.51Z"/><path class="cls-10" d="M1113.49,891.69q0,5.79-3.28,8.83t-9.16,3h-7V879.88h6.56a18.71,18.71,0,0,1,5.3.69,11.47,11.47,0,0,1,4.06,2.12,8.94,8.94,0,0,1,2.64,3.7A14.38,14.38,0,0,1,1113.49,891.69Zm-3,.08q0-4.95-2.57-7.22t-7.46-2.25h-3.71v18.84H1101c3.11,0,5.49-.79,7.11-2.36S1110.53,894.87,1110.53,891.77Z"/><path class="cls-10" d="M1125,903.93a7.71,7.71,0,0,1-6-2.44,9.54,9.54,0,0,1-2.2-6.66,10,10,0,0,1,2.13-6.62,7.09,7.09,0,0,1,5.6-2.58,6.45,6.45,0,0,1,5.18,2.23,8.84,8.84,0,0,1,1.92,6c0,.13,0,.37,0,.71s0,.58,0,.73h-12.06a7,7,0,0,0,1.55,4.67,5.12,5.12,0,0,0,4,1.67,11.91,11.91,0,0,0,5.58-1.47l.42,2.16A11.46,11.46,0,0,1,1125,903.93Zm2.7-14.69a4,4,0,0,0-3.23-1.4,4.29,4.29,0,0,0-3.34,1.44,6.65,6.65,0,0,0-1.53,4h9.28A6.09,6.09,0,0,0,1127.7,889.24Z"/><path class="cls-10" d="M1140,903.88a4.3,4.3,0,0,1-3.62-1.38c-.71-.92-1.07-2.51-1.07-4.79V879.17L1138,879v17.65c0,.72,0,1.31,0,1.74a10.85,10.85,0,0,0,.11,1.29,3.38,3.38,0,0,0,.26.95,1.86,1.86,0,0,0,.47.59,1.62,1.62,0,0,0,.72.35,5.26,5.26,0,0,0,1.05.09c.34,0,1-.07,2-.19l.14,2.13A17.53,17.53,0,0,1,1140,903.88Z"/><path class="cls-10" d="M1151.85,903.93a7.71,7.71,0,0,1-6-2.44,9.54,9.54,0,0,1-2.2-6.66,10,10,0,0,1,2.13-6.62,7.09,7.09,0,0,1,5.6-2.58,6.45,6.45,0,0,1,5.18,2.23,8.84,8.84,0,0,1,1.92,6c0,.13,0,.37,0,.71s0,.58,0,.73h-12a6.9,6.9,0,0,0,1.54,4.67,5.12,5.12,0,0,0,4,1.67,11.91,11.91,0,0,0,5.58-1.47l.42,2.16A11.44,11.44,0,0,1,1151.85,903.93Zm2.7-14.69a4,4,0,0,0-3.23-1.4,4.29,4.29,0,0,0-3.34,1.44,6.58,6.58,0,0,0-1.52,4h9.27A6.09,6.09,0,0,0,1154.55,889.24Z"/><path class="cls-10" d="M1167.77,903.88a4.64,4.64,0,0,1-3.69-1.27,6.44,6.44,0,0,1-1.15-4.08V888h-2.61l.11-1.76,2.48-.23.92-4,1.76-.07V886h4.88v2h-4.88v10.07a4.87,4.87,0,0,0,.61,2.82,2.44,2.44,0,0,0,2.08.82,21.76,21.76,0,0,0,2.29-.26l.11,2.11A17.59,17.59,0,0,1,1167.77,903.88Z"/><path class="cls-10" d="M1176.68,879.61v3.17H1174v-3.17Zm0,6.38v17.57H1174V886Z"/><path class="cls-10" d="M1197.16,894.77a9.77,9.77,0,0,1-2.18,6.62,7.5,7.5,0,0,1-6,2.54,7.34,7.34,0,0,1-5.88-2.57,11,11,0,0,1,0-13.2,7.54,7.54,0,0,1,6-2.53,7.32,7.32,0,0,1,5.91,2.53A9.89,9.89,0,0,1,1197.16,894.77Zm-13.5.05a8.28,8.28,0,0,0,1.39,5,4.71,4.71,0,0,0,4,1.88,4.54,4.54,0,0,0,4-1.87,8.47,8.47,0,0,0,1.34-5.05,8.56,8.56,0,0,0-1.32-5.06,5.25,5.25,0,0,0-8,0A8.39,8.39,0,0,0,1183.66,894.82Z"/><path class="cls-10" d="M1200.94,903.56V886h2.24l.34,2.52a7.75,7.75,0,0,1,2.6-2.09,7.3,7.3,0,0,1,3.37-.79,5.58,5.58,0,0,1,4.5,1.7,8,8,0,0,1,1.46,5.24v11h-2.68q0-10.57,0-11.32a5.48,5.48,0,0,0-.91-3.28,3.4,3.4,0,0,0-2.81-1,5.76,5.76,0,0,0-3.44,1,4.46,4.46,0,0,0-1.79,2.58,16.29,16.29,0,0,0-.16,2.46v9.61Z"/><path class="cls-10" d="M1231.23,879.61v3.17h-2.69v-3.17Zm0,6.38v17.57h-2.69V886Z"/><path class="cls-10" d="M1236.26,903.56V886h2.24l.34,2.52a7.75,7.75,0,0,1,2.6-2.09,7.3,7.3,0,0,1,3.37-.79,5.58,5.58,0,0,1,4.5,1.7,8,8,0,0,1,1.46,5.24v11h-2.68q0-10.57,0-11.32a5.48,5.48,0,0,0-.91-3.28,3.38,3.38,0,0,0-2.81-1,5.76,5.76,0,0,0-3.44,1,4.46,4.46,0,0,0-1.79,2.58A16.29,16.29,0,0,0,1239,894v9.61Z"/><path class="cls-10" d="M1263.9,879.88h6.78c3,0,5.3.46,6.77,1.39a4.86,4.86,0,0,1,2.2,4.44,6.51,6.51,0,0,1-.06.88,5.73,5.73,0,0,1-.28,1.13,5,5,0,0,1-.64,1.26,5.1,5.1,0,0,1-1.17,1.14,6.32,6.32,0,0,1-1.82.9,5.74,5.74,0,0,1,3.62,2,5.94,5.94,0,0,1,1.23,3.78,6.15,6.15,0,0,1-2.1,5q-2.12,1.76-6.27,1.76h-8.26Zm2.77,10.18h5.07a6.73,6.73,0,0,0,3.75-.86,3.47,3.47,0,0,0,1.26-3.08,3.19,3.19,0,0,0-1.51-3.06,10.08,10.08,0,0,0-4.7-.84h-3.87Zm0,2.23v9h4.94a7.61,7.61,0,0,0,4.52-1.11,4,4,0,0,0,1.5-3.46,3.7,3.7,0,0,0-1.62-3.44,10.06,10.06,0,0,0-5.07-1Z"/><path class="cls-10" d="M1291.87,885.83a8.73,8.73,0,0,1,1.31.1l-.1,2.47a7.1,7.1,0,0,0-1.28-.13,4.66,4.66,0,0,0-3.64,1.56,5.59,5.59,0,0,0-1.4,3.86v9.87h-2.67q0-16.17,0-17.57h2.22l.26,3.16a7.4,7.4,0,0,1,2.32-2.4A5.42,5.42,0,0,1,1291.87,885.83Z"/><path class="cls-10" d="M1311.06,894.77a9.81,9.81,0,0,1-2.17,6.62,7.53,7.53,0,0,1-6,2.54,7.35,7.35,0,0,1-5.89-2.57,11.06,11.06,0,0,1,0-13.2,7.54,7.54,0,0,1,6-2.53,7.32,7.32,0,0,1,5.91,2.53A9.89,9.89,0,0,1,1311.06,894.77Zm-13.49.05a8.28,8.28,0,0,0,1.38,5,4.71,4.71,0,0,0,4,1.88,4.56,4.56,0,0,0,4-1.87,10.31,10.31,0,0,0,0-10.11,4.59,4.59,0,0,0-4-1.85,4.66,4.66,0,0,0-4,1.89A8.45,8.45,0,0,0,1297.57,894.82Z"/><path class="cls-10" d="M1329.89,903.56q-3.69-11.82-4.58-14.72c-.33,1.18-.71,2.45-1.13,3.81s-.8,2.54-1.12,3.53l-1.25,3.81c-.51,1.56-.91,2.75-1.17,3.57h-2.88l-5-17.57h2.76l3.77,14.38q.78-2.57,4.61-14.38h3q3.83,12.07,4.49,14.33l3.71-14.33h2.74l-5.06,17.57Z"/><path class="cls-10" d="M1345.68,903.93a13.24,13.24,0,0,1-3.31-.39,8,8,0,0,1-2.45-1l.33-2.26a11.14,11.14,0,0,0,5.25,1.43q3.91,0,4-2.76a2.25,2.25,0,0,0-.83-1.84,11.53,11.53,0,0,0-3.27-1.5l-1.32-.47a7.38,7.38,0,0,1-3.3-1.9,4.43,4.43,0,0,1,.66-6.26,7,7,0,0,1,4.54-1.36,12.58,12.58,0,0,1,5.43,1.15l-.79,2.05a12.07,12.07,0,0,0-4.64-1,4.47,4.47,0,0,0-2.63.67,2.13,2.13,0,0,0-1,1.86,1.87,1.87,0,0,0,.69,1.57,10.16,10.16,0,0,0,2.76,1.25q.53.2,1.32.45a9.07,9.07,0,0,1,3.77,2,4.49,4.49,0,0,1,1.1,3.18,4.59,4.59,0,0,1-1.74,3.77A7.37,7.37,0,0,1,1345.68,903.93Z"/><path class="cls-10" d="M1363.13,903.93a7.71,7.71,0,0,1-6-2.44,9.59,9.59,0,0,1-2.2-6.66,10,10,0,0,1,2.13-6.62,7.1,7.1,0,0,1,5.61-2.58,6.48,6.48,0,0,1,5.18,2.23,8.89,8.89,0,0,1,1.91,6c0,.13,0,.37,0,.71s0,.58,0,.73h-12a6.9,6.9,0,0,0,1.54,4.67,5.12,5.12,0,0,0,4,1.67,12,12,0,0,0,5.59-1.47l.41,2.16A11.44,11.44,0,0,1,1363.13,903.93Zm2.7-14.69a4,4,0,0,0-3.23-1.4,4.29,4.29,0,0,0-3.34,1.44,6.65,6.65,0,0,0-1.52,4H1367A6.09,6.09,0,0,0,1365.83,889.24Z"/><path class="cls-10" d="M1381.32,885.83a8.62,8.62,0,0,1,1.31.1l-.09,2.47a7.19,7.19,0,0,0-1.28-.13,4.68,4.68,0,0,0-3.65,1.56,5.59,5.59,0,0,0-1.4,3.86v9.87h-2.67q0-16.17,0-17.57h2.23l.26,3.16a7.3,7.3,0,0,1,2.32-2.4A5.39,5.39,0,0,1,1381.32,885.83Z"/></svg>