<svg xmlns="http://www.w3.org/2000/svg" viewBox="0 0 2043 1596.05"><defs><style>.cls-1{fill:#10162f;}.cls-2{fill:#53f;}.cls-3{fill:#66c4ff;}.cls-4{fill:#fff;}.cls-5{fill:#dddce0;}.cls-6{fill:#181819;}.cls-7{fill:#e91c11;}.cls-8{fill:#ffd300;}.cls-9{fill:#008a27;}.cls-10{fill:#3a10e5;}.cls-11{fill:#1557ff;}</style></defs><g id="BG"><rect class="cls-1" y="0.02" width="2043" height="1596"/></g><g id="Layer_1" data-name="Layer 1"><path class="cls-2" d="M746.38,852h1244a0,0,0,0,1,0,0v106.8a0,0,0,0,1,0,0h-1244A11.18,11.18,0,0,1,735.2,947.6V863.16A11.18,11.18,0,0,1,746.38,852Z" transform="translate(457.41 2268.17) rotate(-90)"/><path d="M1405,1535h-84.44a13.19,13.19,0,0,1-13.18-13.18V275.8h110.8v1246A13.19,13.19,0,0,1,1405,1535ZM1311.39,279.8v1242a9.19,9.19,0,0,0,9.18,9.18H1405a9.19,9.19,0,0,0,9.18-9.18V279.8Z"/><path class="cls-3" d="M-379.55,852h1244a0,0,0,0,1,0,0v106.8a0,0,0,0,1,0,0h-1244a11.18,11.18,0,0,1-11.18-11.18V863.16A11.18,11.18,0,0,1-379.55,852Z" transform="translate(-668.52 1142.24) rotate(-90)"/><path d="M279.08,1535H194.64a13.19,13.19,0,0,1-13.18-13.18V275.8h110.8v1246A13.2,13.2,0,0,1,279.08,1535ZM185.46,279.8v1242a9.19,9.19,0,0,0,9.18,9.18h84.44a9.19,9.19,0,0,0,9.18-9.18V279.8Z"/><path class="cls-4" d="M667.41,404.93q-7,0-10.67-3.5t-3.64-9.88v-22.9h6.65V391q0,4.47,1.81,6.52t6,2.05q4.08,0,5.91-2.06c1.22-1.38,1.83-3.55,1.83-6.53V368.65h6.62v23q0,6.33-3.71,9.83T667.41,404.93Z"/><path class="cls-4" d="M697.75,404.91a19.17,19.17,0,0,1-9.5-2l.66-4.81a19.77,19.77,0,0,0,4.1,1.58,17.11,17.11,0,0,0,4.54.69,5.89,5.89,0,0,0,3.31-.79,2.7,2.7,0,0,0,1.21-2.33A2.58,2.58,0,0,0,701,395a20.86,20.86,0,0,0-4.24-2l-1.39-.51A14.29,14.29,0,0,1,690,389.3a6.8,6.8,0,0,1-1.63-4.8,6.56,6.56,0,0,1,2.65-5.62q2.64-2,7.38-1.95a20,20,0,0,1,9,1.93l-1.59,4.42a17.28,17.28,0,0,0-7.3-1.78,5.91,5.91,0,0,0-3,.64,2.13,2.13,0,0,0-1.09,2,2.21,2.21,0,0,0,1.05,1.94,23.27,23.27,0,0,0,4.1,1.82c.07,0,.28.09.64.22l.83.31a13.93,13.93,0,0,1,5.42,3.21,6.92,6.92,0,0,1,1.73,4.88,7.64,7.64,0,0,1-2.73,6.22Q702.72,404.92,697.75,404.91Z"/><path class="cls-4" d="M726.13,404.93q-6.48,0-10.07-3.72t-3.61-10.29q0-6.41,3.4-10.18a11.88,11.88,0,0,1,9.25-3.81c3.7,0,6.56,1.16,8.61,3.47a13.4,13.4,0,0,1,3.06,9.2c0,.28,0,.73,0,1.34s0,1.08,0,1.37H718.9a8.39,8.39,0,0,0,2.06,5.82,7.11,7.11,0,0,0,5.41,2.07,16.92,16.92,0,0,0,8.45-2.3l.9,4.54A17.86,17.86,0,0,1,726.13,404.93ZM719,388.28h11.72a7.6,7.6,0,0,0-1.49-5,5.11,5.11,0,0,0-4.12-1.75,5.63,5.63,0,0,0-4.17,1.7A7.77,7.77,0,0,0,719,388.28Z"/><path class="cls-4" d="M742.5,404.42V377.59h5.37l.83,4.1a8.47,8.47,0,0,1,7.64-4.22,13.13,13.13,0,0,1,1.71.09l-.1,5.35a13.39,13.39,0,0,0-2-.14,6.86,6.86,0,0,0-5.28,1.87,7.38,7.38,0,0,0-1.75,5.23v14.55Z"/><path class="cls-4" d="M776.77,404.42V368.65h6.62v30.5h15l-.19,5.27Z"/><path class="cls-4" d="M814.33,404.93a11.88,11.88,0,0,1-9.37-3.85q-3.42-3.87-3.42-10.16,0-6.5,3.42-10.24t9.64-3.75q6,0,9.41,3.82t3.41,10.17q0,6.42-3.44,10.22T814.33,404.93Zm.17-4.86a5.54,5.54,0,0,0,4.89-2.36q1.64-2.37,1.63-6.79t-1.63-6.81a6.31,6.31,0,0,0-9.83,0c-1.1,1.57-1.65,3.85-1.65,6.82a11.69,11.69,0,0,0,1.66,6.77A5.62,5.62,0,0,0,814.5,400.07Z"/><path class="cls-4" d="M838.51,416.43l-.36-5.17h3.24q5.64,0,7.89-1.51t2.25-5.5q0-1.63-.15-3.54a11.41,11.41,0,0,1-1.21,1.45,9,9,0,0,1-1.44,1.14,6.7,6.7,0,0,1-2.07.84,12.12,12.12,0,0,1-2.75.28,11.22,11.22,0,0,1-8.75-3.83,14.26,14.26,0,0,1-3.43-9.89,17.09,17.09,0,0,1,.95-5.87,12.06,12.06,0,0,1,2.59-4.36,11.4,11.4,0,0,1,8.32-3.54q5.4,0,8,3.93l.44-3.27h5.72v24.93a30,30,0,0,1-.2,3.6,16.29,16.29,0,0,1-.68,3.07,8.88,8.88,0,0,1-3.27,4.58,10.74,10.74,0,0,1-2.82,1.48,20.48,20.48,0,0,1-3.78.88,35.11,35.11,0,0,1-4.83.3ZM844.93,400q6.63,0,6.69-8.86v-.93A10.34,10.34,0,0,0,850,384a5.55,5.55,0,0,0-4.71-2.2,6.22,6.22,0,0,0-5.32,2.41,10.56,10.56,0,0,0-1.81,6.48,11.42,11.42,0,0,0,1.82,6.59A5.72,5.72,0,0,0,844.93,400Z"/><path class="cls-4" d="M873.14,404.91a19.15,19.15,0,0,1-9.49-2l.66-4.81a19.77,19.77,0,0,0,4.1,1.58,17.11,17.11,0,0,0,4.54.69,5.89,5.89,0,0,0,3.31-.79,2.7,2.7,0,0,0,1.21-2.33,2.56,2.56,0,0,0-1.12-2.2,20.71,20.71,0,0,0-4.23-2l-1.39-.51a14.29,14.29,0,0,1-5.35-3.21,6.8,6.8,0,0,1-1.63-4.8,6.58,6.58,0,0,1,2.64-5.62q2.65-2,7.39-1.95a20,20,0,0,1,9,1.93l-1.59,4.42a17.28,17.28,0,0,0-7.3-1.78,5.91,5.91,0,0,0-3,.64,2.13,2.13,0,0,0-1.09,2,2.21,2.21,0,0,0,1.05,1.94,23.27,23.27,0,0,0,4.1,1.82c.07,0,.28.09.64.22l.83.31a13.93,13.93,0,0,1,5.42,3.21,6.92,6.92,0,0,1,1.73,4.88,7.64,7.64,0,0,1-2.73,6.22C879,404.18,876.47,404.91,873.14,404.91Z"/><path class="cls-4" d="M903.61,404.42V368.65h6.62v35.77Z"/><path class="cls-4" d="M918,404.42V377.59h5.15l.71,3.39a12.69,12.69,0,0,1,9.1-4.05q4.69,0,7,2.7c1.56,1.8,2.34,4.4,2.34,7.82v17h-6.43V388.23a9.17,9.17,0,0,0-1-4.85c-.68-1.08-1.91-1.62-3.68-1.62a7.08,7.08,0,0,0-3.8,1.07,6.38,6.38,0,0,0-2.5,2.67,26.94,26.94,0,0,0-.46,5.86v13.06Z"/><path class="cls-4" d="M1611.27,587.5q-7.85,0-12.43-4.94t-4.59-13.62q0-8.25,4.8-13.24a16.62,16.62,0,0,1,12.56-5,18.67,18.67,0,0,1,10.62,2.91l-2.08,5a15.89,15.89,0,0,0-8.4-2.56,9.5,9.5,0,0,0-7.8,3.55q-2.87,3.55-2.86,9.54,0,6.2,2.77,9.59a9.6,9.6,0,0,0,7.89,3.39,19.48,19.48,0,0,0,8.92-2.24l.87,5.17A19.77,19.77,0,0,1,1611.27,587.5Z"/><path class="cls-4" d="M1627.34,587V560.15h5.37l.83,4.1a8.49,8.49,0,0,1,7.64-4.22,11.37,11.37,0,0,1,1.71.1l-.09,5.34a14.93,14.93,0,0,0-2-.14,6.87,6.87,0,0,0-5.29,1.88,7.38,7.38,0,0,0-1.74,5.22V587Z"/><path class="cls-4" d="M1659.46,587.5q-6.48,0-10.07-3.73t-3.6-10.29q0-6.39,3.39-10.18a11.89,11.89,0,0,1,9.25-3.81q5.55,0,8.61,3.47a13.4,13.4,0,0,1,3.06,9.2c0,.28,0,.73,0,1.35s0,1.07,0,1.36h-17.85a8.49,8.49,0,0,0,2.06,5.83,7.14,7.14,0,0,0,5.41,2.06,16.92,16.92,0,0,0,8.45-2.3l.9,4.55A17.86,17.86,0,0,1,1659.46,587.5Zm-7.11-16.65h11.72a7.51,7.51,0,0,0-1.49-5,5.07,5.07,0,0,0-4.12-1.76,5.66,5.66,0,0,0-4.17,1.71A7.8,7.8,0,0,0,1652.35,570.85Z"/><path class="cls-4" d="M1682.79,587.5a8.73,8.73,0,0,1-6-2.07,7.53,7.53,0,0,1-2.3-5.94q0-4.18,2.73-6.19t8.25-2.55l1.64-.2c.58-.06,1.24-.13,2-.19l1.73-.17v-1.42a4.86,4.86,0,0,0-1.12-3.55,4.69,4.69,0,0,0-3.42-1.11,23.59,23.59,0,0,0-8.08,1.83l-.81-2.22-.8-2.2a25.76,25.76,0,0,1,10.25-2q5.42,0,7.89,2.36t2.46,7.63V587h-4.74c0-.06-.19-.61-.53-1.63s-.52-1.57-.52-1.64a15.08,15.08,0,0,1-3.91,2.87A10.74,10.74,0,0,1,1682.79,587.5Zm1.73-4.55a7,7,0,0,0,3.87-1.06,6.11,6.11,0,0,0,2.35-2.57v-5.18l-1.28.1-1.3.1a13.24,13.24,0,0,0-5.69,1.46,3.92,3.92,0,0,0-1.81,3.61,3.41,3.41,0,0,0,1,2.63A4.09,4.09,0,0,0,1684.52,583Z"/><path class="cls-4" d="M1714.8,587.35a13.74,13.74,0,0,1-4.55-.65,5.83,5.83,0,0,1-2.84-2,8.62,8.62,0,0,1-1.46-3.28,22,22,0,0,1-.42-4.68V564h-4.4l.25-3.46,4.59-.42,2-7.27,3.9,0v7.3h6.67V564h-6.67v12.8a8.07,8.07,0,0,0,.88,4.34,3.67,3.67,0,0,0,3.25,1.3,18.81,18.81,0,0,0,3-.25l.17,4.59-.6.11-1,.2c-.33,0-.76.11-1.28.16S1715.26,587.35,1714.8,587.35Z"/><path class="cls-4" d="M1736.37,587.5q-6.46,0-10.07-3.73t-3.6-10.29q0-6.39,3.4-10.18a11.88,11.88,0,0,1,9.25-3.81q5.54,0,8.6,3.47a13.35,13.35,0,0,1,3.07,9.2c0,.28,0,.73,0,1.35s0,1.07,0,1.36h-17.84a8.44,8.44,0,0,0,2.06,5.83,7.13,7.13,0,0,0,5.41,2.06,16.88,16.88,0,0,0,8.44-2.3L1746,585A17.92,17.92,0,0,1,1736.37,587.5Zm-7.1-16.65H1741a7.57,7.57,0,0,0-1.49-5,5.1,5.1,0,0,0-4.13-1.76,5.64,5.64,0,0,0-4.16,1.71A7.75,7.75,0,0,0,1729.27,570.85Z"/><path class="cls-4" d="M1761.29,587.47c-4,0-7.12-.67-9.5-2l.66-4.8a19.8,19.8,0,0,0,4.1,1.57,17.16,17.16,0,0,0,4.54.7,5.89,5.89,0,0,0,3.31-.8,2.68,2.68,0,0,0,1.21-2.33,2.58,2.58,0,0,0-1.11-2.2,21.14,21.14,0,0,0-4.24-2l-1.39-.51a14.37,14.37,0,0,1-5.35-3.21,6.8,6.8,0,0,1-1.63-4.8,6.53,6.53,0,0,1,2.65-5.61q2.64-2,7.38-2a20.08,20.08,0,0,1,9,1.93l-1.59,4.42a17.28,17.28,0,0,0-7.3-1.78,5.91,5.91,0,0,0-3,.64,2.14,2.14,0,0,0-1.09,2,2.2,2.2,0,0,0,1,1.94,22.53,22.53,0,0,0,4.1,1.82l.64.22.83.32a13.62,13.62,0,0,1,5.42,3.21,6.89,6.89,0,0,1,1.73,4.87,7.61,7.61,0,0,1-2.73,6.22Q1766.27,587.48,1761.29,587.47Z"/><path class="cls-4" d="M1798.05,587.5a8.7,8.7,0,0,1-6-2.07,7.53,7.53,0,0,1-2.31-5.94c0-2.79.92-4.85,2.74-6.19s4.57-2.19,8.25-2.55l1.64-.2c.58-.06,1.24-.13,2-.19l1.74-.17v-1.42a4.82,4.82,0,0,0-1.13-3.55,4.65,4.65,0,0,0-3.41-1.11,23.59,23.59,0,0,0-8.08,1.83l-.81-2.22c-.52-1.44-.79-2.17-.81-2.2a25.84,25.84,0,0,1,10.26-2q5.42,0,7.88,2.36t2.47,7.63V587h-4.74c0-.06-.19-.61-.53-1.63s-.52-1.57-.52-1.64a15,15,0,0,1-3.92,2.87A10.68,10.68,0,0,1,1798.05,587.5Zm1.74-4.55a7,7,0,0,0,3.87-1.06,6.11,6.11,0,0,0,2.35-2.57v-5.18l-1.28.1-1.3.1a13.24,13.24,0,0,0-5.69,1.46,3.92,3.92,0,0,0-1.81,3.61,3.38,3.38,0,0,0,1,2.63A4.09,4.09,0,0,0,1799.79,583Z"/><path class="cls-4" d="M1828,594.82l-.27-5.2a15.82,15.82,0,0,0,2.57.19c1.81,0,3-.46,3.66-1.39a8.31,8.31,0,0,0,1-4.59V551.12h6.64v32.27a20.78,20.78,0,0,1-.55,5.19,8.48,8.48,0,0,1-1.85,3.59,7.46,7.46,0,0,1-3.47,2.16,17.85,17.85,0,0,1-5.36.69A12,12,0,0,1,1828,594.82Z"/><path class="cls-4" d="M1855.73,587,1846,551.22h6.6l6.93,27.83,8.15-27.66H1874l7.74,27.76,7.08-27.93h6.59l-10,35.76h-6.86l-7.64-26.19L1862.54,587Z"/><path class="cls-4" d="M1907.11,587V556.51h-10.43v-5.29h27.45v5.29h-10.38V587Z"/><path class="cls-4" d="M1609.34,651l-8.13-26.83h6.52l5.15,19.68q.16-.55,2.78-9.6t2.95-10.08h6.57c.21.69,1.15,4,2.81,10s2.55,9.18,2.69,9.62l5.29-19.61h6.42L1634,651h-6.38q-.31-1.05-3-10.62T1621.79,630c-.33,1.18-1.36,4.77-3.11,10.74s-2.77,9.37-3,10.2Z"/><path class="cls-4" d="M1646.6,620.25v-5.47H1653v5.47Zm0,30.73V624.15h6.4V651Z"/><path class="cls-4" d="M1670.88,651.35a13.74,13.74,0,0,1-4.55-.65,5.83,5.83,0,0,1-2.84-2,8.62,8.62,0,0,1-1.46-3.28,22,22,0,0,1-.42-4.68V628h-4.4l.25-3.46,4.59-.42,2-7.27,3.9,0v7.3h6.67V628H1668v12.8a8.07,8.07,0,0,0,.88,4.34,3.65,3.65,0,0,0,3.25,1.3,18.81,18.81,0,0,0,3-.25l.17,4.59-.6.11-1,.2c-.33,0-.76.11-1.28.16S1671.34,651.35,1670.88,651.35Z"/><path class="cls-4" d="M1680.27,651V614.26l6.4-.41v7.74c0,.37,0,1.41-.08,3.11s-.07,2.57-.07,2.6a10.64,10.64,0,0,1,8.59-3.81,9.24,9.24,0,0,1,7,2.58q2.48,2.58,2.47,7.92v17h-6.39V634.7a8.75,8.75,0,0,0-1.05-4.84,4,4,0,0,0-3.57-1.53,6.85,6.85,0,0,0-3.81,1.08,7,7,0,0,0-2.49,2.8,24,24,0,0,0-.58,5.86V651Z"/><path class="cls-4" d="M1732.15,651.5a8.7,8.7,0,0,1-6-2.07,7.53,7.53,0,0,1-2.31-5.94q0-4.18,2.73-6.19t8.26-2.55l1.63-.2c.59-.06,1.25-.13,2-.19l1.73-.17v-1.42a4.81,4.81,0,0,0-1.12-3.55,4.69,4.69,0,0,0-3.42-1.11,23.64,23.64,0,0,0-8.08,1.83c0-.05-.28-.79-.8-2.22s-.79-2.17-.81-2.2a25.79,25.79,0,0,1,10.25-2q5.43,0,7.89,2.36c1.64,1.57,2.47,4.11,2.47,7.63V651h-4.74l-.54-1.63c-.34-1-.51-1.57-.51-1.64a15.12,15.12,0,0,1-3.92,2.87A10.74,10.74,0,0,1,1732.15,651.5Zm1.73-4.55a7,7,0,0,0,3.87-1.06,6.2,6.2,0,0,0,2.36-2.57v-5.18l-1.28.1-1.31.1a13.28,13.28,0,0,0-5.69,1.46,3.93,3.93,0,0,0-1.8,3.61,3.38,3.38,0,0,0,1,2.63A4.07,4.07,0,0,0,1733.88,647Z"/><path class="cls-4" d="M1777.8,651.47a22.58,22.58,0,0,1-11.59-3l1.61-5.25a23.86,23.86,0,0,0,5,2,18.55,18.55,0,0,0,5.26.79,7.24,7.24,0,0,0,4.76-1.36,4.78,4.78,0,0,0,1.61-3.89c0-2.25-1.49-3.8-4.49-4.67l-1.78-.52c-1-.29-1.89-.56-2.75-.83s-1.47-.48-1.84-.62c-4.8-1.7-7.2-4.85-7.2-9.48a8.88,8.88,0,0,1,3.45-7.49q3.45-2.64,9.17-2.64a22.31,22.31,0,0,1,11.16,2.66l-2,4.84a21.7,21.7,0,0,0-8.88-2.15,7.8,7.8,0,0,0-4.46,1,4.12,4.12,0,0,0-1.6,3.45,3.75,3.75,0,0,0,3,3.88c.39.15,1.35.47,2.88,1l3,1c3.27,1.07,5.61,2.41,7,4a9.79,9.79,0,0,1,2.11,6.67,9.29,9.29,0,0,1-3.62,7.85Q1783.94,651.47,1777.8,651.47Z"/><path class="cls-4" d="M1809.09,651.5q-6.46,0-10.07-3.73t-3.6-10.29q0-6.39,3.39-10.18a11.89,11.89,0,0,1,9.25-3.81q5.55,0,8.61,3.47a13.4,13.4,0,0,1,3.06,9.2c0,.28,0,.73,0,1.35s0,1.07,0,1.36h-17.85a8.44,8.44,0,0,0,2.07,5.83,7.12,7.12,0,0,0,5.4,2.06,16.92,16.92,0,0,0,8.45-2.3l.9,4.55A17.86,17.86,0,0,1,1809.09,651.5ZM1802,634.85h11.72a7.51,7.51,0,0,0-1.49-5,5.07,5.07,0,0,0-4.12-1.76,5.62,5.62,0,0,0-4.16,1.71A7.75,7.75,0,0,0,1802,634.85Z"/><path class="cls-4" d="M1837.18,651.5q-6.15,0-9.58-3.67t-3.44-10.47q0-6.58,3.6-10.23a12.8,12.8,0,0,1,9.49-3.64,14.78,14.78,0,0,1,8,2l-1.51,4.56a13.57,13.57,0,0,0-6.18-1.73,6.21,6.21,0,0,0-5.12,2.32q-1.86,2.33-1.86,6.76t1.84,6.84a6.26,6.26,0,0,0,5.21,2.34,12.37,12.37,0,0,0,6.76-2.07l.62,4.86a12.26,12.26,0,0,1-3.5,1.61A16.77,16.77,0,0,1,1837.18,651.5Z"/><path class="cls-4" d="M1850.57,651V624.15h5.37l.83,4.1a8.48,8.48,0,0,1,7.64-4.22,11.37,11.37,0,0,1,1.71.1l-.1,5.34a14.78,14.78,0,0,0-2-.14c-2.36,0-4.13.62-5.29,1.88a7.38,7.38,0,0,0-1.75,5.22V651Z"/><path class="cls-4" d="M1882.68,651.5q-6.47,0-10.07-3.73t-3.6-10.29q0-6.39,3.4-10.18a11.88,11.88,0,0,1,9.25-3.81q5.53,0,8.6,3.47a13.35,13.35,0,0,1,3.07,9.2c0,.28,0,.73,0,1.35s0,1.07,0,1.36h-17.84a8.44,8.44,0,0,0,2.06,5.83,7.13,7.13,0,0,0,5.41,2.06,17,17,0,0,0,8.45-2.3l.9,4.55A17.92,17.92,0,0,1,1882.68,651.5Zm-7.1-16.65h11.72a7.57,7.57,0,0,0-1.49-5,5.1,5.1,0,0,0-4.13-1.76,5.64,5.64,0,0,0-4.16,1.71A7.75,7.75,0,0,0,1875.58,634.85Z"/><path class="cls-4" d="M1909.75,651.35a13.81,13.81,0,0,1-4.56-.65,5.83,5.83,0,0,1-2.84-2,8.6,8.6,0,0,1-1.45-3.28,21.31,21.31,0,0,1-.43-4.68V628h-4.4l.25-3.46,4.59-.42,2-7.27,3.91,0v7.3h6.66V628h-6.66v12.8a8.09,8.09,0,0,0,.87,4.34,3.65,3.65,0,0,0,3.25,1.3,18.81,18.81,0,0,0,3-.25l.17,4.59-.6.11-1,.2c-.33,0-.76.11-1.28.16S1910.2,651.35,1909.75,651.35Z"/><path class="cls-4" d="M1621.49,1175.23l-13-35.76h6.81l7.57,22.09c.29.77,1,3,2,6.72.07-.26.37-1.34.91-3.21s.88-3,1-3.46,1.43-4.23,3.71-11l3.73-11.12H1641l-12.84,35.76Z"/><path class="cls-4" d="M1656.12,1175.75q-6.46,0-10.07-3.73t-3.6-10.29q0-6.39,3.39-10.18a11.9,11.9,0,0,1,9.26-3.81q5.54,0,8.6,3.47a13.4,13.4,0,0,1,3.06,9.2c0,.28,0,.73,0,1.35s0,1.07,0,1.36h-17.85A8.49,8.49,0,0,0,1651,1169a7.12,7.12,0,0,0,5.4,2.06,16.91,16.91,0,0,0,8.45-2.29l.9,4.54A17.86,17.86,0,0,1,1656.12,1175.75ZM1649,1159.1h11.72a7.58,7.58,0,0,0-1.48-5,5.11,5.11,0,0,0-4.13-1.76A5.62,5.62,0,0,0,1651,1154,7.8,7.8,0,0,0,1649,1159.1Z"/><path class="cls-4" d="M1672.49,1175.23V1148.4h5.37l.83,4.1a8.49,8.49,0,0,1,7.64-4.22,11.37,11.37,0,0,1,1.71.1l-.1,5.35a13.24,13.24,0,0,0-2-.15,6.89,6.89,0,0,0-5.29,1.88,7.38,7.38,0,0,0-1.74,5.22v14.55Z"/><path class="cls-4" d="M1692.59,1144.5V1139H1699v5.47Zm0,30.73V1148.4h6.4v26.83Z"/><path class="cls-4" d="M1707.38,1175.23v-23h-4.23v-3.81h4.23v-.81c0-1.22.06-2.25.15-3.1a14.27,14.27,0,0,1,.5-2.49,5.5,5.5,0,0,1,1-2,6.37,6.37,0,0,1,1.72-1.37,8.19,8.19,0,0,1,2.6-.86,21.22,21.22,0,0,1,3.62-.27h1.66l.53,4.64h-1.71a7.55,7.55,0,0,0-2.06.23,2.06,2.06,0,0,0-1.17.83,3.34,3.34,0,0,0-.53,1.38,15,15,0,0,0-.12,2.15v1.66h15.26v26.8h-6.2v-23h-9.06v23Zm15.28-30.73V1139h6.22v5.47Z"/><path class="cls-4" d="M1747.94,1175.75q-6.46,0-10.07-3.73t-3.6-10.29q0-6.39,3.39-10.18a11.89,11.89,0,0,1,9.25-3.81q5.55,0,8.61,3.47a13.4,13.4,0,0,1,3.06,9.2c0,.28,0,.73,0,1.35s0,1.07,0,1.36h-17.85a8.49,8.49,0,0,0,2.07,5.83,7.12,7.12,0,0,0,5.4,2.06,16.91,16.91,0,0,0,8.45-2.29l.9,4.54A17.86,17.86,0,0,1,1747.94,1175.75Zm-7.1-16.65h11.71a7.53,7.53,0,0,0-1.49-5,5.07,5.07,0,0,0-4.12-1.76,5.62,5.62,0,0,0-4.16,1.71A7.7,7.7,0,0,0,1740.84,1159.1Z"/><path class="cls-4" d="M1772.85,1175.72c-3.95,0-7.12-.67-9.49-2l.65-4.81a20.14,20.14,0,0,0,4.11,1.57,16.76,16.76,0,0,0,4.54.7,5.91,5.91,0,0,0,3.31-.8,2.68,2.68,0,0,0,1.21-2.33,2.59,2.59,0,0,0-1.12-2.2,21.27,21.27,0,0,0-4.23-2l-1.39-.51a14.29,14.29,0,0,1-5.35-3.21,6.8,6.8,0,0,1-1.64-4.8,6.56,6.56,0,0,1,2.65-5.61q2.65-2,7.39-2a20.08,20.08,0,0,1,9,1.93l-1.59,4.42a17.32,17.32,0,0,0-7.3-1.78,5.78,5.78,0,0,0-3,.65,2.12,2.12,0,0,0-1.09,2,2.2,2.2,0,0,0,1,1.94,22.53,22.53,0,0,0,4.1,1.82l.63.22.83.32a13.55,13.55,0,0,1,5.42,3.21,6.85,6.85,0,0,1,1.74,4.87,7.62,7.62,0,0,1-2.74,6.22C1778.74,1175,1776.17,1175.72,1772.85,1175.72Z"/><path class="cls-4" d="M1797.51,1183.07l-.27-5.2a15.68,15.68,0,0,0,2.57.2c1.8,0,3-.47,3.66-1.4a8.4,8.4,0,0,0,1-4.59v-32.71h6.64v32.27a20.67,20.67,0,0,1-.55,5.19,8.59,8.59,0,0,1-1.85,3.59,7.51,7.51,0,0,1-3.47,2.16,17.85,17.85,0,0,1-5.36.69A11.93,11.93,0,0,1,1797.51,1183.07Z"/><path class="cls-4" d="M1825.21,1175.23l-9.72-35.76h6.59l6.94,27.83,8.15-27.66h6.32l7.74,27.76,7.08-27.93h6.6l-10,35.76H1848l-7.64-26.19-8.37,26.19Z"/><path class="cls-4" d="M1876.59,1175.23v-30.46h-10.43v-5.3h27.44v5.3h-10.37v30.46Z"/><path class="cls-4" d="M1542.54,1239.72a22.62,22.62,0,0,1-11.6-3l1.61-5.25a24.43,24.43,0,0,0,5,2.06,18.94,18.94,0,0,0,5.26.78,7.24,7.24,0,0,0,4.76-1.36,4.78,4.78,0,0,0,1.62-3.89c0-2.25-1.5-3.8-4.5-4.67l-1.78-.52c-1-.29-1.89-.56-2.74-.83s-1.47-.48-1.85-.62c-4.8-1.7-7.2-4.85-7.2-9.48a8.88,8.88,0,0,1,3.45-7.49c2.31-1.76,5.36-2.64,9.17-2.64a22.31,22.31,0,0,1,11.16,2.66l-2,4.84a21.91,21.91,0,0,0-8.89-2.15,7.82,7.82,0,0,0-4.46,1,4.09,4.09,0,0,0-1.59,3.45,3.74,3.74,0,0,0,3,3.88q.58.23,2.88,1l3,1c3.27,1.07,5.61,2.41,7,4a9.74,9.74,0,0,1,2.11,6.67,9.31,9.31,0,0,1-3.61,7.85Q1548.67,1239.72,1542.54,1239.72Z"/><path class="cls-4" d="M1561.57,1208.5V1203H1568v5.47Zm0,30.73V1212.4H1568v26.83Z"/><path class="cls-4" d="M1580.5,1251.25l-.37-5.18h3.25q5.64,0,7.88-1.5t2.25-5.51q0-1.63-.15-3.54a12.34,12.34,0,0,1-1.2,1.46,9.38,9.38,0,0,1-1.44,1.13,6.21,6.21,0,0,1-2.08.84,12,12,0,0,1-2.75.28,11.22,11.22,0,0,1-8.75-3.83,14.24,14.24,0,0,1-3.43-9.89,17.37,17.37,0,0,1,1-5.87,12.29,12.29,0,0,1,2.59-4.36,11.38,11.38,0,0,1,3.77-2.62,11.5,11.5,0,0,1,4.56-.92q5.39,0,8,3.93l.44-3.27h5.71v24.93a30.13,30.13,0,0,1-.19,3.6,16.4,16.4,0,0,1-.69,3.08,9.22,9.22,0,0,1-1.28,2.57,9.42,9.42,0,0,1-2,2,10.18,10.18,0,0,1-2.82,1.48,19.58,19.58,0,0,1-3.77.88,35.16,35.16,0,0,1-4.84.31Zm6.42-16.48q6.61,0,6.69-8.87V1225a10.42,10.42,0,0,0-1.66-6.16,5.57,5.57,0,0,0-4.71-2.19,6.26,6.26,0,0,0-5.33,2.4,10.58,10.58,0,0,0-1.8,6.48,11.34,11.34,0,0,0,1.82,6.59A5.72,5.72,0,0,0,1586.92,1234.77Z"/><path class="cls-4" d="M1606.56,1239.23V1212.4h5.15l.71,3.4a12.71,12.71,0,0,1,9.11-4.06q4.68,0,7,2.7t2.34,7.83v17h-6.42v-16.18a9.38,9.38,0,0,0-1-4.86c-.69-1.08-1.92-1.61-3.69-1.61a7.1,7.1,0,0,0-3.8,1.06,6.44,6.44,0,0,0-2.5,2.67,27,27,0,0,0-.46,5.86v13.06Z"/><path class="cls-4" d="M1644.76,1239.75a8.71,8.71,0,0,1-6-2.07,7.56,7.56,0,0,1-2.3-5.94c0-2.78.91-4.85,2.73-6.19s4.57-2.19,8.25-2.55l1.64-.2c.58-.06,1.24-.13,2-.19l1.73-.17V1221a4.86,4.86,0,0,0-1.12-3.55,4.69,4.69,0,0,0-3.42-1.11,23.59,23.59,0,0,0-8.08,1.83l-.81-2.22-.8-2.2a25.76,25.76,0,0,1,10.25-2q5.41,0,7.88,2.36t2.47,7.63v17.5h-4.74c0-.06-.19-.61-.53-1.63s-.52-1.57-.52-1.64a14.85,14.85,0,0,1-3.91,2.87A10.74,10.74,0,0,1,1644.76,1239.75Zm1.73-4.54a7,7,0,0,0,3.87-1.07,6.11,6.11,0,0,0,2.35-2.57v-5.18l-1.28.1-1.3.1a13.39,13.39,0,0,0-5.69,1.46,3.94,3.94,0,0,0-1.81,3.62,3.36,3.36,0,0,0,1,2.62A4.1,4.1,0,0,0,1646.49,1235.21Z"/><path class="cls-4" d="M1676.77,1239.6a13.74,13.74,0,0,1-4.55-.65,5.83,5.83,0,0,1-2.84-2,8.62,8.62,0,0,1-1.46-3.28,22,22,0,0,1-.42-4.67v-12.68h-4.4l.25-3.46,4.59-.42,2-7.27,3.9,0v7.3h6.67v3.88h-6.67v12.8a8.07,8.07,0,0,0,.88,4.34,3.65,3.65,0,0,0,3.25,1.3,18.81,18.81,0,0,0,3-.25l.17,4.59-.6.11-1,.2c-.33.06-.76.11-1.28.16S1677.23,1239.6,1676.77,1239.6Z"/><path class="cls-4" d="M1705.52,1237.12a14.8,14.8,0,0,1-16.83,0q-3.2-2.61-3.19-7.66V1212.4h6.42v16.82a6.21,6.21,0,0,0,1.26,4.35,5.23,5.23,0,0,0,4,1.34,5.1,5.1,0,0,0,3.92-1.33,6.33,6.33,0,0,0,1.23-4.36V1212.4h6.4v17.07Q1708.72,1234.49,1705.52,1237.12Z"/><path class="cls-4" d="M1715.08,1239.23V1212.4h5.37l.83,4.1a8.48,8.48,0,0,1,7.64-4.22,11.37,11.37,0,0,1,1.71.1l-.1,5.35a13.24,13.24,0,0,0-2-.15,6.89,6.89,0,0,0-5.29,1.88,7.38,7.38,0,0,0-1.75,5.22v14.55Z"/><path class="cls-4" d="M1747.19,1239.75q-6.46,0-10.07-3.73t-3.6-10.29q0-6.39,3.4-10.18a11.88,11.88,0,0,1,9.25-3.81q5.53,0,8.6,3.47a13.35,13.35,0,0,1,3.07,9.2c0,.28,0,.73,0,1.35s0,1.07,0,1.36H1740A8.44,8.44,0,0,0,1742,1233a7.13,7.13,0,0,0,5.41,2.06,16.94,16.94,0,0,0,8.45-2.29l.9,4.54A17.89,17.89,0,0,1,1747.19,1239.75Zm-7.1-16.65h11.72a7.59,7.59,0,0,0-1.49-5,5.1,5.1,0,0,0-4.13-1.76A5.64,5.64,0,0,0,1742,1218,7.75,7.75,0,0,0,1740.09,1223.1Z"/><path class="cls-4" d="M1784.33,1239.75a8.73,8.73,0,0,1-6-2.07,7.56,7.56,0,0,1-2.3-5.94c0-2.78.91-4.85,2.73-6.19s4.58-2.19,8.25-2.55l1.64-.2c.59-.06,1.25-.13,2-.19l1.73-.17V1221a4.81,4.81,0,0,0-1.12-3.55,4.69,4.69,0,0,0-3.42-1.11,23.59,23.59,0,0,0-8.08,1.83l-.81-2.22-.8-2.2a25.76,25.76,0,0,1,10.25-2q5.42,0,7.89,2.36t2.46,7.63v17.5H1794l-.54-1.63c-.34-1-.51-1.57-.51-1.64a14.89,14.89,0,0,1-3.92,2.87A10.74,10.74,0,0,1,1784.33,1239.75Zm1.73-4.54a7,7,0,0,0,3.87-1.07,6.21,6.21,0,0,0,2.36-2.57v-5.18l-1.28.1-1.31.1a13.39,13.39,0,0,0-5.69,1.46,4,4,0,0,0-1.81,3.62,3.39,3.39,0,0,0,1,2.62A4.1,4.1,0,0,0,1786.06,1235.21Z"/><path class="cls-4" d="M1805.63,1239.23V1212.4h5.15l.71,3.4a12.7,12.7,0,0,1,9.1-4.06q4.7,0,7,2.7c1.56,1.8,2.33,4.41,2.33,7.83v17h-6.42v-16.18a9.18,9.18,0,0,0-1-4.86c-.68-1.08-1.91-1.61-3.68-1.61a7.07,7.07,0,0,0-3.8,1.06,6.44,6.44,0,0,0-2.5,2.67,26.87,26.87,0,0,0-.47,5.86v13.06Z"/><path class="cls-4" d="M1846.73,1239.75a9.88,9.88,0,0,1-8.25-3.86q-3-3.86-3-10.3,0-6.25,3-10a9.92,9.92,0,0,1,8.24-3.8q5.71,0,8.09,4.06a43.72,43.72,0,0,1-.25-4.62v-8.66l6.4-.42v37.13h-5.54l-.71-3.66c-.28.44-.54.82-.77,1.14a9,9,0,0,1-1,1.1,6.32,6.32,0,0,1-1.48,1,10.16,10.16,0,0,1-2,.66A12.16,12.16,0,0,1,1846.73,1239.75Zm1.51-4.86q6.45,0,6.55-8.77c0-3.3-.56-5.71-1.66-7.22a5.74,5.74,0,0,0-5-2.27,5.46,5.46,0,0,0-4.6,2.3q-1.72,2.31-1.72,6.8t1.72,6.81A5.46,5.46,0,0,0,1848.24,1234.89Z"/><path class="cls-4" d="M1898.27,1239.75q-8.19,0-12.78-4.94t-4.61-13.5a20.56,20.56,0,0,1,2.15-9.58,15.37,15.37,0,0,1,6.32-6.46,20.11,20.11,0,0,1,9.87-2.32,21.31,21.31,0,0,1,11.18,2.81l-2.15,4.93a18.68,18.68,0,0,0-8.91-2.39,10.76,10.76,0,0,0-8.52,3.52q-3.1,3.51-3.1,9.57t2.76,9.49q2.76,3.49,8.08,3.5a17,17,0,0,0,6.2-1.08V1225h-7.5l0-5.2H1911v17.26a39,39,0,0,1-6.29,2A29.6,29.6,0,0,1,1898.27,1239.75Z"/><path class="cls-4" d="M1930.38,1239.75q-6.47,0-10.07-3.73t-3.6-10.29q0-6.39,3.39-10.18a11.92,11.92,0,0,1,9.26-3.81q5.54,0,8.6,3.47a13.35,13.35,0,0,1,3.07,9.2c0,.28,0,.73,0,1.35s0,1.07,0,1.36h-17.84a8.44,8.44,0,0,0,2.06,5.83,7.13,7.13,0,0,0,5.41,2.06,16.87,16.87,0,0,0,8.44-2.29l.91,4.54A17.92,17.92,0,0,1,1930.38,1239.75Zm-7.1-16.65H1935a7.59,7.59,0,0,0-1.49-5,5.11,5.11,0,0,0-4.13-1.76,5.64,5.64,0,0,0-4.16,1.71A7.75,7.75,0,0,0,1923.28,1223.1Z"/><path class="cls-4" d="M1957.44,1239.6a13.74,13.74,0,0,1-4.55-.65,5.83,5.83,0,0,1-2.84-2,8.45,8.45,0,0,1-1.45-3.28,21.28,21.28,0,0,1-.43-4.67v-12.68h-4.4l.25-3.46,4.59-.42,2.05-7.27,3.9,0v7.3h6.67v3.88h-6.67v12.8a8.07,8.07,0,0,0,.88,4.34,3.65,3.65,0,0,0,3.25,1.3,18.81,18.81,0,0,0,3-.25l.17,4.59-.6.11-1,.2c-.33.06-.76.11-1.28.16S1957.9,1239.6,1957.44,1239.6Z"/><path class="cls-4" d="M1975.4,1239.72a19.23,19.23,0,0,1-9.5-2l.66-4.81a20,20,0,0,0,4.1,1.57,16.82,16.82,0,0,0,4.55.7,5.88,5.88,0,0,0,3.3-.8,2.66,2.66,0,0,0,1.21-2.33,2.58,2.58,0,0,0-1.11-2.2,21.27,21.27,0,0,0-4.23-2l-1.4-.51a14.32,14.32,0,0,1-5.34-3.21,6.8,6.8,0,0,1-1.64-4.8,6.53,6.53,0,0,1,2.65-5.61q2.65-2,7.39-2a20,20,0,0,1,9,1.93l-1.58,4.42a17.32,17.32,0,0,0-7.3-1.78,5.84,5.84,0,0,0-3,.65,2.13,2.13,0,0,0-1.08,2,2.2,2.2,0,0,0,1,1.94,22.2,22.2,0,0,0,4.1,1.82l.63.22.83.32a13.55,13.55,0,0,1,5.42,3.21,6.85,6.85,0,0,1,1.74,4.87,7.62,7.62,0,0,1-2.74,6.22Q1980.38,1239.72,1975.4,1239.72Z"/><path class="cls-4" d="M1571.56,1303.75q-7,0-10.67-3.51t-3.63-9.87v-22.9h6.64v22.34c0,3,.6,5.15,1.82,6.51s3.2,2.06,6,2.06,4.69-.69,5.91-2.07,1.84-3.55,1.84-6.53v-22.31H1586v23q0,6.32-3.71,9.82T1571.56,1303.75Z"/><path class="cls-4" d="M1601.9,1303.72c-4,0-7.12-.67-9.5-2l.66-4.81a19.8,19.8,0,0,0,4.1,1.57,16.81,16.81,0,0,0,4.54.7,5.89,5.89,0,0,0,3.31-.8,2.68,2.68,0,0,0,1.21-2.33,2.58,2.58,0,0,0-1.11-2.2,21.43,21.43,0,0,0-4.24-2l-1.39-.51a14.37,14.37,0,0,1-5.35-3.21,6.8,6.8,0,0,1-1.63-4.8,6.53,6.53,0,0,1,2.65-5.61q2.64-2,7.38-2a20.08,20.08,0,0,1,9,1.93l-1.59,4.42a17.25,17.25,0,0,0-7.3-1.78,5.8,5.8,0,0,0-3,.65,2.12,2.12,0,0,0-1.09,2,2.2,2.2,0,0,0,1,1.94,22.53,22.53,0,0,0,4.1,1.82l.64.22.83.32a13.62,13.62,0,0,1,5.42,3.21,6.89,6.89,0,0,1,1.73,4.87,7.61,7.61,0,0,1-2.73,6.22Q1606.88,1303.72,1601.9,1303.72Z"/><path class="cls-4" d="M1630.28,1303.75q-6.48,0-10.07-3.73t-3.6-10.29q0-6.39,3.39-10.18a11.89,11.89,0,0,1,9.25-3.81q5.55,0,8.61,3.47a13.4,13.4,0,0,1,3.06,9.2c0,.28,0,.73,0,1.35s0,1.07,0,1.36h-17.85a8.49,8.49,0,0,0,2.06,5.83,7.16,7.16,0,0,0,5.41,2.06,16.91,16.91,0,0,0,8.45-2.29l.9,4.54A17.86,17.86,0,0,1,1630.28,1303.75Zm-7.11-16.65h11.72a7.53,7.53,0,0,0-1.49-5,5.09,5.09,0,0,0-4.12-1.76,5.66,5.66,0,0,0-4.17,1.71A7.8,7.8,0,0,0,1623.17,1287.1Z"/><path class="cls-4" d="M1646.65,1303.23V1276.4H1652l.83,4.1a8.48,8.48,0,0,1,7.64-4.22,11.37,11.37,0,0,1,1.71.1l-.1,5.35a13.34,13.34,0,0,0-2-.15,6.88,6.88,0,0,0-5.29,1.88,7.38,7.38,0,0,0-1.75,5.22v14.55Z"/><path class="cls-4" d="M1681.1,1303.23v-35.76h6.61v35.76Z"/><path class="cls-4" d="M1695.51,1303.23V1276.4h5.15l.71,3.4a12.71,12.71,0,0,1,9.11-4.06q4.68,0,7,2.7t2.33,7.83v17h-6.42v-16.18a9.38,9.38,0,0,0-1.05-4.86c-.69-1.08-1.92-1.61-3.69-1.61a7.1,7.1,0,0,0-3.8,1.06,6.51,6.51,0,0,0-2.5,2.67,27,27,0,0,0-.46,5.86v13.06Z"/><path class="cls-4" d="M1728.34,1303.23v-22.58h-4.25l.41-3.76,3.84-.49v-1.49a16.78,16.78,0,0,1,.45-4.17,7.53,7.53,0,0,1,1.47-3,6.12,6.12,0,0,1,2.75-1.83,13,13,0,0,1,4.24-.6,27.75,27.75,0,0,1,5,.47l-.56,4.76a25.17,25.17,0,0,0-3.16-.27,3.71,3.71,0,0,0-2.91,1,4.94,4.94,0,0,0-.87,3.28v1.83h6.3v4.25h-6.3v22.58Z"/><path class="cls-4" d="M1756.69,1303.75a11.88,11.88,0,0,1-9.37-3.86q-3.42-3.86-3.42-10.16,0-6.49,3.42-10.24t9.64-3.75q6,0,9.41,3.82t3.41,10.17q0,6.42-3.44,10.22T1756.69,1303.75Zm.17-4.86a5.56,5.56,0,0,0,4.89-2.37q1.63-2.37,1.63-6.79t-1.63-6.81a5.64,5.64,0,0,0-4.94-2.34,5.58,5.58,0,0,0-4.89,2.35q-1.65,2.35-1.65,6.83a11.66,11.66,0,0,0,1.66,6.76A5.63,5.63,0,0,0,1756.86,1298.89Z"/><path class="cls-4" d="M1775.53,1303.23V1276.4h5.37l.83,4.1a8.48,8.48,0,0,1,7.64-4.22,11.37,11.37,0,0,1,1.71.1l-.1,5.35a13.37,13.37,0,0,0-2-.15,6.87,6.87,0,0,0-5.28,1.88,7.34,7.34,0,0,0-1.75,5.22v14.55Z"/><path class="cls-4" d="M1795.48,1303.23V1276.4h5.18l.73,3.42c.33-.41.64-.77.94-1.09a11,11,0,0,1,1.25-1.07,8.42,8.42,0,0,1,1.68-1,11.37,11.37,0,0,1,2.2-.66,13.79,13.79,0,0,1,2.8-.27,9,9,0,0,1,5.11,1.3,7.32,7.32,0,0,1,2.7,3,9.61,9.61,0,0,1,3.73-3.19,11.44,11.44,0,0,1,5.11-1.13q4.6,0,6.77,2.62t2.16,7.74v17.13h-6.42V1288a13.61,13.61,0,0,0-.87-5.68,3.34,3.34,0,0,0-3.3-1.74,5.57,5.57,0,0,0-5.38,3.37,12,12,0,0,0-.92,3.59v15.69h-6.4v-15.52a11.67,11.67,0,0,0-1-5.35,3.57,3.57,0,0,0-3.44-1.76,5.91,5.91,0,0,0-3.5,1,6.6,6.6,0,0,0-2.22,2.68,27.32,27.32,0,0,0-.56,5.91v13Z"/><path class="cls-4" d="M1849.72,1303.75a8.7,8.7,0,0,1-6-2.07,7.53,7.53,0,0,1-2.31-5.94c0-2.78.91-4.85,2.73-6.19s4.58-2.19,8.26-2.55l1.63-.2c.59-.06,1.25-.13,2-.19l1.73-.17V1285a4.81,4.81,0,0,0-1.12-3.55,4.69,4.69,0,0,0-3.42-1.11,23.64,23.64,0,0,0-8.08,1.83s-.28-.79-.81-2.22-.78-2.17-.8-2.2a25.79,25.79,0,0,1,10.25-2q5.43,0,7.89,2.36c1.64,1.57,2.47,4.11,2.47,7.63v17.5h-4.74l-.54-1.63c-.34-1-.51-1.57-.51-1.64a14.89,14.89,0,0,1-3.92,2.87A10.74,10.74,0,0,1,1849.72,1303.75Zm1.73-4.54a7,7,0,0,0,3.87-1.07,6.14,6.14,0,0,0,2.36-2.57v-5.18l-1.28.1-1.31.1a13.43,13.43,0,0,0-5.69,1.46,4,4,0,0,0-1.8,3.62,3.36,3.36,0,0,0,1,2.62A4.07,4.07,0,0,0,1851.45,1299.21Z"/><path class="cls-4" d="M1881.74,1303.6a13.85,13.85,0,0,1-4.56-.65,5.83,5.83,0,0,1-2.84-2,8.6,8.6,0,0,1-1.45-3.28,21.28,21.28,0,0,1-.43-4.67v-12.68h-4.39l.24-3.46,4.59-.42,2-7.27,3.91,0v7.3h6.66v3.88h-6.66v12.8a8,8,0,0,0,.88,4.34c.58.87,1.66,1.3,3.24,1.3a18.81,18.81,0,0,0,3-.25l.17,4.59-.6.11c-.36.08-.71.14-1,.2s-.76.11-1.28.16S1882.19,1303.6,1881.74,1303.6Z"/><path class="cls-4" d="M1891.27,1272.5V1267h6.42v5.47Zm0,30.73V1276.4h6.4v26.83Z"/><path class="cls-4" d="M1916.36,1303.75a11.89,11.89,0,0,1-9.38-3.86q-3.42-3.86-3.42-10.16,0-6.49,3.42-10.24t9.64-3.75q6,0,9.42,3.82t3.4,10.17q0,6.42-3.44,10.22T1916.36,1303.75Zm.17-4.86a5.54,5.54,0,0,0,4.88-2.37,11.88,11.88,0,0,0,1.64-6.79q0-4.47-1.64-6.81a6.32,6.32,0,0,0-9.83,0q-1.65,2.35-1.65,6.83a11.66,11.66,0,0,0,1.67,6.76A5.62,5.62,0,0,0,1916.53,1298.89Z"/><path class="cls-4" d="M1935.17,1303.23V1276.4h5.15l.71,3.4a12.7,12.7,0,0,1,9.1-4.06q4.69,0,7,2.7c1.56,1.8,2.33,4.41,2.33,7.83v17h-6.42v-16.18a9.18,9.18,0,0,0-1-4.86c-.68-1.08-1.91-1.61-3.68-1.61a7.07,7.07,0,0,0-3.8,1.06,6.44,6.44,0,0,0-2.5,2.67,26.87,26.87,0,0,0-.47,5.86v13.06Z"/><path class="cls-4" d="M1650.77,1367.23v-22.58h-4.25l.42-3.76,3.83-.49v-1.49a16.78,16.78,0,0,1,.45-4.17,7.55,7.55,0,0,1,1.48-3,6.12,6.12,0,0,1,2.75-1.83,13,13,0,0,1,4.23-.6,27.58,27.58,0,0,1,5,.47l-.56,4.76a24.89,24.89,0,0,0-3.15-.27,3.69,3.69,0,0,0-2.91,1,4.94,4.94,0,0,0-.87,3.28v1.83h6.3v4.25h-6.3v22.58Z"/><path class="cls-4" d="M1668.14,1367.23V1340.4h5.37l.83,4.1a8.5,8.5,0,0,1,7.65-4.22,11.23,11.23,0,0,1,1.7.1l-.09,5.35a13.37,13.37,0,0,0-2-.15,6.91,6.91,0,0,0-5.29,1.88,7.38,7.38,0,0,0-1.74,5.22v14.55Z"/><path class="cls-4" d="M1699.38,1367.75a11.87,11.87,0,0,1-9.37-3.86q-3.42-3.86-3.42-10.16,0-6.49,3.42-10.24t9.64-3.75q6,0,9.41,3.82t3.41,10.17q0,6.42-3.45,10.22T1699.38,1367.75Zm.17-4.86a5.53,5.53,0,0,0,4.88-2.37,11.88,11.88,0,0,0,1.64-6.79q0-4.47-1.64-6.81a6.31,6.31,0,0,0-9.82,0q-1.65,2.35-1.65,6.83a11.66,11.66,0,0,0,1.66,6.76A5.63,5.63,0,0,0,1699.55,1362.89Z"/><path class="cls-4" d="M1718.19,1367.23V1340.4h5.18l.73,3.42c.32-.41.64-.77.94-1.09a11.72,11.72,0,0,1,1.24-1.07,8.22,8.22,0,0,1,1.69-1,11,11,0,0,1,2.2-.66,13.76,13.76,0,0,1,2.79-.27,9.05,9.05,0,0,1,5.12,1.3,7.36,7.36,0,0,1,2.69,3,9.64,9.64,0,0,1,3.74-3.19,11.43,11.43,0,0,1,5.1-1.13q4.62,0,6.78,2.62t2.16,7.74v17.13h-6.42V1352a13.61,13.61,0,0,0-.87-5.68,3.34,3.34,0,0,0-3.31-1.74,5.55,5.55,0,0,0-5.37,3.37,12,12,0,0,0-.93,3.59v15.69h-6.39v-15.52a11.52,11.52,0,0,0-1-5.35,3.56,3.56,0,0,0-3.44-1.76,5.9,5.9,0,0,0-3.49,1,6.45,6.45,0,0,0-2.22,2.68,26.71,26.71,0,0,0-.56,5.91v13Z"/><path class="cls-4" d="M1774,1375.07l-.26-5.2a15.56,15.56,0,0,0,2.56.2c1.81,0,3-.47,3.66-1.4a8.31,8.31,0,0,0,1-4.59v-32.71h6.64v32.27a20.67,20.67,0,0,1-.55,5.19,8.48,8.48,0,0,1-1.85,3.59,7.46,7.46,0,0,1-3.47,2.16,17.81,17.81,0,0,1-5.36.69A12.08,12.08,0,0,1,1774,1375.07Z"/><path class="cls-4" d="M1801.72,1367.23l-9.71-35.76h6.59l6.93,27.83,8.15-27.66H1820l7.74,27.76,7.08-27.93h6.59l-10,35.76h-6.86l-7.64-26.19-8.38,26.19Z"/><path class="cls-4" d="M1853.1,1367.23v-30.46h-10.42v-5.3h27.44v5.3h-10.38v30.46Z"/><path class="cls-4" d="M421.35,713.56V677.7H434.6a39.75,39.75,0,0,1,4.7.24,17.33,17.33,0,0,1,3.79.9,7.87,7.87,0,0,1,2.9,1.74,7.64,7.64,0,0,1,1.76,2.87,12.25,12.25,0,0,1,.65,4.19q0,7.13-6.47,9.37a26.5,26.5,0,0,1,3.27,5.52l5.32,11h-7.23l-4.17-9.35q-2.37-5-2.93-6-.42,0-2.76,0l-5.54-.05v15.38Zm13.84-20.11q3.81,0,5.47-1.36a5.32,5.32,0,0,0,1.66-4.36,4.5,4.5,0,0,0-1.69-3.88,8.67,8.67,0,0,0-5.15-1.24h-7.59v10.81l3.64,0Z"/><path class="cls-4" d="M467.84,714.08q-6.46,0-10.07-3.73t-3.6-10.29q0-6.39,3.39-10.18a11.92,11.92,0,0,1,9.26-3.81q5.54,0,8.6,3.47a13.36,13.36,0,0,1,3.07,9.21c0,.27,0,.72,0,1.34s0,1.07,0,1.37H460.62a8.43,8.43,0,0,0,2.06,5.82,7.13,7.13,0,0,0,5.41,2.06,16.87,16.87,0,0,0,8.44-2.29l.91,4.54A17.92,17.92,0,0,1,467.84,714.08Zm-7.1-16.65h11.72a7.59,7.59,0,0,0-1.49-5,5.14,5.14,0,0,0-4.13-1.76,5.64,5.64,0,0,0-4.16,1.71A7.75,7.75,0,0,0,460.74,697.43Z"/><path class="cls-4" d="M494.9,713.93a13.49,13.49,0,0,1-4.55-.65,5.87,5.87,0,0,1-2.84-2,8.73,8.73,0,0,1-1.46-3.29,22,22,0,0,1-.42-4.67V690.62h-4.4l.25-3.47,4.59-.42,2.05-7.27,3.9,0v7.3h6.67v3.89H492v12.79a8.07,8.07,0,0,0,.88,4.34,3.65,3.65,0,0,0,3.25,1.3,18.81,18.81,0,0,0,3-.25l.17,4.59-.6.11c-.36.08-.72.14-1.05.2s-.76.11-1.28.16S495.36,713.93,494.9,713.93Z"/><path class="cls-4" d="M523.65,711.45a14.82,14.82,0,0,1-16.83,0c-2.13-1.75-3.19-4.3-3.19-7.67V686.73h6.42v16.83a6.2,6.2,0,0,0,1.26,4.34,5.23,5.23,0,0,0,4,1.34,5.1,5.1,0,0,0,3.92-1.33c.82-.88,1.23-2.34,1.23-4.35V686.73h6.4V703.8Q526.85,708.83,523.65,711.45Z"/><path class="cls-4" d="M533.21,713.56V686.73h5.37l.83,4.11a8.48,8.48,0,0,1,7.64-4.23,11.37,11.37,0,0,1,1.71.1l-.1,5.35a13.24,13.24,0,0,0-2-.15,6.89,6.89,0,0,0-5.29,1.88,7.38,7.38,0,0,0-1.74,5.22v14.55Z"/><path class="cls-4" d="M553.17,713.56V686.73h5.15l.71,3.4a12.7,12.7,0,0,1,9.1-4.06q4.7,0,7,2.7c1.56,1.8,2.33,4.41,2.33,7.83v17h-6.42V697.38a9.18,9.18,0,0,0-1-4.86c-.68-1.07-1.91-1.61-3.68-1.61a7.07,7.07,0,0,0-3.8,1.06,6.44,6.44,0,0,0-2.5,2.67,26.87,26.87,0,0,0-.47,5.86v13.06Z"/><path class="cls-4" d="M592.85,714.05a19.23,19.23,0,0,1-9.5-2l.66-4.81a20.14,20.14,0,0,0,4.11,1.57,16.76,16.76,0,0,0,4.54.7,5.85,5.85,0,0,0,3.3-.8,2.65,2.65,0,0,0,1.21-2.33,2.56,2.56,0,0,0-1.11-2.19,20.59,20.59,0,0,0-4.23-2l-1.4-.51a14.32,14.32,0,0,1-5.34-3.21,6.8,6.8,0,0,1-1.64-4.8A6.56,6.56,0,0,1,586.1,688a12.27,12.27,0,0,1,7.39-2,20.11,20.11,0,0,1,9,1.93l-1.59,4.42a17.32,17.32,0,0,0-7.3-1.78,5.94,5.94,0,0,0-3,.65,2.13,2.13,0,0,0-1.08,2,2.2,2.2,0,0,0,1,1.94,22.2,22.2,0,0,0,4.1,1.82l.63.22.83.32a13.55,13.55,0,0,1,5.42,3.21,6.85,6.85,0,0,1,1.74,4.87,7.64,7.64,0,0,1-2.74,6.23C598.74,713.32,596.17,714.05,592.85,714.05Z"/><path class="cls-4" d="M633.26,713.93a13.55,13.55,0,0,1-4.56-.65,5.87,5.87,0,0,1-2.84-2,8.72,8.72,0,0,1-1.45-3.29,21.28,21.28,0,0,1-.43-4.67V690.62h-4.4l.25-3.47,4.59-.42,2.05-7.27,3.91,0v7.3H637v3.89h-6.66v12.79a8.09,8.09,0,0,0,.87,4.34,3.65,3.65,0,0,0,3.25,1.3,18.81,18.81,0,0,0,3-.25l.17,4.59-.6.11c-.36.08-.71.14-1,.2s-.76.11-1.28.16S633.71,713.93,633.26,713.93Z"/><path class="cls-4" d="M642.64,713.56V676.85l6.4-.42v7.74c0,.37,0,1.41-.07,3.11s-.08,2.57-.08,2.6a10.65,10.65,0,0,1,8.6-3.81,9.23,9.23,0,0,1,7,2.58q2.47,2.58,2.47,7.92v17h-6.39V697.28a8.69,8.69,0,0,0-1-4.83,4,4,0,0,0-3.57-1.54,6.79,6.79,0,0,0-3.8,1.08,6.9,6.9,0,0,0-2.49,2.8,23.45,23.45,0,0,0-.59,5.86v12.91Z"/><path class="cls-4" d="M686.14,714.08q-6.48,0-10.07-3.73t-3.61-10.29q0-6.39,3.4-10.18a11.88,11.88,0,0,1,9.25-3.81q5.53,0,8.61,3.47a13.41,13.41,0,0,1,3.06,9.21c0,.27,0,.72,0,1.34s0,1.07,0,1.37H678.91a8.43,8.43,0,0,0,2.06,5.82,7.14,7.14,0,0,0,5.41,2.06,16.91,16.91,0,0,0,8.45-2.29l.9,4.54A17.86,17.86,0,0,1,686.14,714.08ZM679,697.43h11.72a7.59,7.59,0,0,0-1.49-5,5.12,5.12,0,0,0-4.12-1.76,5.64,5.64,0,0,0-4.17,1.71A7.75,7.75,0,0,0,679,697.43Z"/><path class="cls-4" d="M711.16,721.4l-.27-5.2a15.65,15.65,0,0,0,2.56.2c1.81,0,3-.47,3.67-1.39a8.45,8.45,0,0,0,1-4.59V677.7h6.64V710a20.64,20.64,0,0,1-.55,5.18,8.49,8.49,0,0,1-1.86,3.59,7.43,7.43,0,0,1-3.46,2.16,17.85,17.85,0,0,1-5.36.69A11.93,11.93,0,0,1,711.16,721.4Z"/><path class="cls-4" d="M738.86,713.56l-9.72-35.76h6.59l6.94,27.83L750.82,678h6.32l7.74,27.76L772,677.8h6.59l-10,35.76h-6.86L754,687.37l-8.37,26.19Z"/><path class="cls-4" d="M790.24,713.56V683.1H779.81v-5.3h27.44v5.3H796.88v30.46Z"/><path class="cls-4" d="M835.77,713.93a13.55,13.55,0,0,1-4.56-.65,5.87,5.87,0,0,1-2.84-2,8.72,8.72,0,0,1-1.45-3.29,21.28,21.28,0,0,1-.43-4.67V690.62H822.1l.24-3.47,4.59-.42,2.05-7.27,3.91,0v7.3h6.66v3.89h-6.66v12.79a8.09,8.09,0,0,0,.87,4.34,3.65,3.65,0,0,0,3.25,1.3,18.81,18.81,0,0,0,3-.25l.17,4.59-.6.11c-.36.08-.71.14-1,.2s-.76.11-1.28.16S836.22,713.93,835.77,713.93Z"/><path class="cls-4" d="M856.46,714.08a11.9,11.9,0,0,1-9.38-3.86q-3.42-3.86-3.42-10.16,0-6.49,3.42-10.24t9.65-3.75q6,0,9.41,3.82t3.4,10.17q0,6.42-3.44,10.22T856.46,714.08Zm.17-4.86a5.54,5.54,0,0,0,4.88-2.37,11.88,11.88,0,0,0,1.64-6.79c0-3-.55-5.25-1.64-6.81a6.32,6.32,0,0,0-9.83,0c-1.09,1.58-1.64,3.85-1.64,6.83a11.66,11.66,0,0,0,1.66,6.76A5.62,5.62,0,0,0,856.63,709.22Z"/><path class="cls-4" d="M899.69,713.93a13.49,13.49,0,0,1-4.55-.65,5.87,5.87,0,0,1-2.84-2,8.73,8.73,0,0,1-1.46-3.29,22,22,0,0,1-.42-4.67V690.62H886l.25-3.47,4.59-.42,2-7.27,3.9,0v7.3h6.67v3.89h-6.67v12.79a8.07,8.07,0,0,0,.88,4.34,3.65,3.65,0,0,0,3.25,1.3,18.81,18.81,0,0,0,3-.25l.17,4.59-.6.11-1,.2c-.33.06-.76.11-1.28.16S900.15,713.93,899.69,713.93Z"/><path class="cls-4" d="M909.08,713.56V676.85l6.4-.42v7.74c0,.37,0,1.41-.08,3.11s-.07,2.57-.07,2.6a10.64,10.64,0,0,1,8.59-3.81,9.2,9.2,0,0,1,7,2.58c1.66,1.72,2.48,4.36,2.48,7.92v17H927V697.28a8.69,8.69,0,0,0-1.05-4.83,4,4,0,0,0-3.57-1.54,6.85,6.85,0,0,0-3.81,1.08,7,7,0,0,0-2.49,2.8,24,24,0,0,0-.58,5.86v12.91Z"/><path class="cls-4" d="M952.57,714.08q-6.47,0-10.07-3.73t-3.6-10.29q0-6.39,3.4-10.18a11.88,11.88,0,0,1,9.25-3.81q5.54,0,8.6,3.47a13.36,13.36,0,0,1,3.07,9.21c0,.27,0,.72,0,1.34s0,1.07,0,1.37H945.35a8.43,8.43,0,0,0,2.06,5.82,7.13,7.13,0,0,0,5.41,2.06,16.87,16.87,0,0,0,8.44-2.29l.91,4.54A17.92,17.92,0,0,1,952.57,714.08Zm-7.1-16.65h11.72a7.59,7.59,0,0,0-1.49-5,5.13,5.13,0,0,0-4.13-1.76,5.64,5.64,0,0,0-4.16,1.71A7.75,7.75,0,0,0,945.47,697.43Z"/><path class="cls-4" d="M983.24,713.56V677.8h11.15q7.11,0,10.6,2.07t3.49,6.91a11.17,11.17,0,0,1-.1,1.54,7.92,7.92,0,0,1-.44,1.72,6.73,6.73,0,0,1-.9,1.75,7.08,7.08,0,0,1-1.56,1.52,7.48,7.48,0,0,1-2.35,1.16,8.76,8.76,0,0,1,5.08,3.09,10,10,0,0,1-1.82,13.34q-3.57,2.67-9.9,2.66Zm6.61-21h5.67q6.56,0,6.56-5c0-1.87-.63-3.15-1.89-3.85a13,13,0,0,0-6-1.05h-4.32Zm0,16.21h5.74q7.62,0,7.62-6a4.88,4.88,0,0,0-1.91-4.32q-1.9-1.32-5.88-1.32h-5.57Z"/><path class="cls-4" d="M1015.69,713.56V686.73h5.38l.83,4.11a8.46,8.46,0,0,1,7.64-4.23,11.37,11.37,0,0,1,1.71.1l-.1,5.35a13.37,13.37,0,0,0-2-.15,6.87,6.87,0,0,0-5.28,1.88,7.34,7.34,0,0,0-1.75,5.22v14.55Z"/><path class="cls-4" d="M1046.93,714.08a11.88,11.88,0,0,1-9.37-3.86q-3.42-3.86-3.42-10.16,0-6.49,3.42-10.24t9.64-3.75q6,0,9.41,3.82t3.41,10.17q0,6.42-3.44,10.22T1046.93,714.08Zm.17-4.86a5.56,5.56,0,0,0,4.89-2.37q1.63-2.37,1.63-6.79c0-3-.54-5.25-1.63-6.81a5.64,5.64,0,0,0-4.94-2.34,5.58,5.58,0,0,0-4.89,2.35c-1.1,1.58-1.65,3.85-1.65,6.83a11.66,11.66,0,0,0,1.66,6.76A5.63,5.63,0,0,0,1047.1,709.22Z"/><path class="cls-4" d="M1070.67,713.56l-8.13-26.83h6.52l5.15,19.68q.18-.55,2.79-9.59t3-10.09h6.57q.32,1,2.81,10t2.68,9.62l5.3-19.61h6.42l-8.4,26.83H1089q-.32-1-3-10.62t-2.86-10.32q-.5,1.78-3.12,10.74t-3,10.2Z"/><path class="cls-4" d="M1116.36,714.05c-3.95,0-7.12-.67-9.49-2l.66-4.81a19.8,19.8,0,0,0,4.1,1.57,16.76,16.76,0,0,0,4.54.7,5.89,5.89,0,0,0,3.31-.8,2.67,2.67,0,0,0,1.21-2.33,2.56,2.56,0,0,0-1.11-2.19,21,21,0,0,0-4.24-2l-1.39-.51a14.29,14.29,0,0,1-5.35-3.21,6.8,6.8,0,0,1-1.63-4.8,6.55,6.55,0,0,1,2.64-5.61,12.27,12.27,0,0,1,7.39-2,20.08,20.08,0,0,1,9,1.93l-1.59,4.42a17.28,17.28,0,0,0-7.3-1.78,5.9,5.9,0,0,0-3,.65,2.12,2.12,0,0,0-1.09,2,2.2,2.2,0,0,0,1,1.94,22.53,22.53,0,0,0,4.1,1.82l.64.22.83.32a13.7,13.7,0,0,1,5.42,3.21,6.89,6.89,0,0,1,1.73,4.87,7.64,7.64,0,0,1-2.74,6.23C1122.25,713.32,1119.68,714.05,1116.36,714.05Z"/><path class="cls-4" d="M1144.75,714.08c-4.32,0-7.67-1.24-10.08-3.73s-3.6-5.91-3.6-10.29,1.13-7.65,3.4-10.18a11.88,11.88,0,0,1,9.25-3.81q5.54,0,8.61,3.47a13.41,13.41,0,0,1,3.06,9.21c0,.27,0,.72,0,1.34s0,1.07,0,1.37h-17.84a8.43,8.43,0,0,0,2.06,5.82,7.13,7.13,0,0,0,5.41,2.06,16.94,16.94,0,0,0,8.45-2.29l.9,4.54A17.88,17.88,0,0,1,1144.75,714.08Zm-7.11-16.65h11.72a7.59,7.59,0,0,0-1.49-5,5.13,5.13,0,0,0-4.13-1.76,5.64,5.64,0,0,0-4.16,1.71A7.75,7.75,0,0,0,1137.64,697.43Z"/><path class="cls-4" d="M1161.11,713.56V686.73h5.38l.83,4.11a8.46,8.46,0,0,1,7.64-4.23,11.37,11.37,0,0,1,1.71.1l-.1,5.35a13.37,13.37,0,0,0-2-.15,6.87,6.87,0,0,0-5.28,1.88,7.34,7.34,0,0,0-1.75,5.22v14.55Z"/><path class="cls-4" d="M457.92,1393.74a22.71,22.71,0,0,1-11.6-3l1.61-5.25a24.49,24.49,0,0,0,5,2,18.84,18.84,0,0,0,5.26.78A7.21,7.21,0,0,0,463,1387a4.81,4.81,0,0,0,1.61-3.89q0-3.37-4.49-4.66l-1.79-.53c-1-.28-1.89-.56-2.74-.83s-1.47-.48-1.85-.62q-7.2-2.54-7.2-9.47a8.87,8.87,0,0,1,3.46-7.5c2.3-1.76,5.36-2.64,9.16-2.64a22.16,22.16,0,0,1,11.16,2.67l-2,4.83a21.87,21.87,0,0,0-8.89-2.15,7.84,7.84,0,0,0-4.45,1,4.09,4.09,0,0,0-1.6,3.45,3.74,3.74,0,0,0,2.95,3.88q.59.23,2.88,1l3,1c3.27,1.07,5.61,2.41,7,4a9.74,9.74,0,0,1,2.11,6.67,9.27,9.27,0,0,1-3.61,7.85Q464,1393.75,457.92,1393.74Z"/><path class="cls-4" d="M489.2,1393.77q-6.46,0-10.07-3.73t-3.6-10.29q0-6.39,3.4-10.18a11.84,11.84,0,0,1,9.25-3.8q5.54,0,8.6,3.46a13.36,13.36,0,0,1,3.07,9.21c0,.27,0,.72,0,1.34s0,1.07,0,1.37H482A8.43,8.43,0,0,0,484,1387a7.13,7.13,0,0,0,5.41,2.06,16.94,16.94,0,0,0,8.45-2.29l.9,4.54A17.89,17.89,0,0,1,489.2,1393.77Zm-7.1-16.65h11.72a7.59,7.59,0,0,0-1.49-5,5.13,5.13,0,0,0-4.13-1.76A5.64,5.64,0,0,0,484,1372,7.75,7.75,0,0,0,482.1,1377.12Z"/><path class="cls-4" d="M505.55,1393.26v-26.84h5.15l.71,3.4a12.69,12.69,0,0,1,9.1-4c3.13,0,5.47.89,7,2.69s2.34,4.41,2.34,7.83v17h-6.43v-16.19a9.18,9.18,0,0,0-1.05-4.86c-.68-1.07-1.91-1.61-3.68-1.61a7.07,7.07,0,0,0-3.8,1.06,6.44,6.44,0,0,0-2.5,2.67,27,27,0,0,0-.46,5.86v13.07Z"/><path class="cls-4" d="M546.65,1393.77a9.88,9.88,0,0,1-8.25-3.86q-3-3.86-3-10.3,0-6.25,3-10a9.9,9.9,0,0,1,8.24-3.79q5.7,0,8.08,4a43.58,43.58,0,0,1-.25-4.62v-8.66l6.4-.42v37.14h-5.54l-.71-3.67c-.28.44-.53.82-.77,1.14a8.29,8.29,0,0,1-1,1.1,6.17,6.17,0,0,1-1.47,1,10.28,10.28,0,0,1-2,.66A12.16,12.16,0,0,1,546.65,1393.77Zm1.51-4.86q6.45,0,6.55-8.77c0-3.3-.56-5.71-1.66-7.22a5.74,5.74,0,0,0-5-2.27,5.47,5.47,0,0,0-4.6,2.3q-1.72,2.31-1.72,6.8t1.72,6.82A5.49,5.49,0,0,0,548.16,1388.91Z"/><path class="cls-4" d="M576.47,1393.74a19.23,19.23,0,0,1-9.5-2l.66-4.81a20,20,0,0,0,4.1,1.57,16.82,16.82,0,0,0,4.55.7,5.88,5.88,0,0,0,3.3-.8,2.65,2.65,0,0,0,1.21-2.33,2.56,2.56,0,0,0-1.11-2.19,20.59,20.59,0,0,0-4.23-2l-1.4-.51a14.32,14.32,0,0,1-5.34-3.21,6.8,6.8,0,0,1-1.64-4.8,6.53,6.53,0,0,1,2.65-5.61q2.65-2,7.39-2a20,20,0,0,1,9,1.92l-1.58,4.42a17.47,17.47,0,0,0-7.3-1.78,5.94,5.94,0,0,0-3,.65,2.13,2.13,0,0,0-1.08,2,2.2,2.2,0,0,0,1,1.94,22.2,22.2,0,0,0,4.1,1.82l.63.22.83.32a13.67,13.67,0,0,1,5.42,3.21,6.85,6.85,0,0,1,1.74,4.87,7.64,7.64,0,0,1-2.74,6.23Q581.45,1393.74,576.47,1393.74Z"/><path class="cls-4" d="M606.6,1393.26v-35.87h13.25a37.53,37.53,0,0,1,4.7.25,17.32,17.32,0,0,1,3.79.89,7.87,7.87,0,0,1,2.9,1.74,7.64,7.64,0,0,1,1.76,2.87,12.25,12.25,0,0,1,.65,4.19q0,7.13-6.47,9.37a26.5,26.5,0,0,1,3.27,5.52l5.32,11h-7.22l-4.18-9.36q-2.37-5-2.93-6-.42,0-2.76,0l-5.54-.05v15.39Zm13.84-20.12q3.81,0,5.47-1.36a5.31,5.31,0,0,0,1.66-4.35,4.51,4.51,0,0,0-1.69-3.89,8.67,8.67,0,0,0-5.15-1.24h-7.59v10.81l3.64,0Z"/><path class="cls-4" d="M653.09,1393.77q-6.47,0-10.07-3.73t-3.6-10.29q0-6.39,3.39-10.18a11.87,11.87,0,0,1,9.26-3.8q5.53,0,8.6,3.46a13.36,13.36,0,0,1,3.07,9.21c0,.27,0,.72,0,1.34s0,1.07,0,1.37H645.87a8.43,8.43,0,0,0,2.06,5.82,7.13,7.13,0,0,0,5.41,2.06,16.87,16.87,0,0,0,8.44-2.29l.91,4.54A17.92,17.92,0,0,1,653.09,1393.77Zm-7.1-16.65h11.72a7.59,7.59,0,0,0-1.49-5,5.14,5.14,0,0,0-4.13-1.76,5.64,5.64,0,0,0-4.16,1.71A7.75,7.75,0,0,0,646,1377.12Z"/><path class="cls-4" d="M678,1393.74c-4,0-7.12-.67-9.5-2l.66-4.81a19.8,19.8,0,0,0,4.1,1.57,16.76,16.76,0,0,0,4.54.7,5.89,5.89,0,0,0,3.31-.8,2.67,2.67,0,0,0,1.21-2.33,2.56,2.56,0,0,0-1.11-2.19,20.75,20.75,0,0,0-4.24-2l-1.39-.51a14.37,14.37,0,0,1-5.35-3.21,6.8,6.8,0,0,1-1.63-4.8,6.53,6.53,0,0,1,2.65-5.61q2.64-2,7.38-2a20.08,20.08,0,0,1,9,1.92l-1.59,4.42a17.4,17.4,0,0,0-7.3-1.78,5.9,5.9,0,0,0-3,.65,2.12,2.12,0,0,0-1.09,2,2.2,2.2,0,0,0,1.05,1.94,22.53,22.53,0,0,0,4.1,1.82l.64.22.83.32a13.74,13.74,0,0,1,5.42,3.21,6.89,6.89,0,0,1,1.73,4.87,7.63,7.63,0,0,1-2.73,6.23Q683,1393.74,678,1393.74Z"/><path class="cls-4" d="M694,1404.41v-38h5.49l.68,3.76a9.07,9.07,0,0,1,3.51-3.28,10.24,10.24,0,0,1,4.87-1.16,9.59,9.59,0,0,1,5.8,1.83,11.4,11.4,0,0,1,3.79,5,18.79,18.79,0,0,1,1.3,7.15,16.15,16.15,0,0,1-3,10.14,9.77,9.77,0,0,1-8.17,3.92,10.38,10.38,0,0,1-4.6-1,10.13,10.13,0,0,1-3.45-2.75c.13,2.34.19,3.66.19,4v10.14Zm12.89-15.52a5.18,5.18,0,0,0,4.5-2.4,11.94,11.94,0,0,0,1.65-6.83c0-3-.56-5.28-1.66-6.79a5.42,5.42,0,0,0-4.62-2.27q-6.35,0-6.42,8.64,0,5,1.65,7.31A5.6,5.6,0,0,0,706.88,1388.89Z"/><path class="cls-4" d="M736.67,1393.77a11.88,11.88,0,0,1-9.37-3.86q-3.42-3.86-3.42-10.16,0-6.48,3.42-10.24t9.64-3.74q6,0,9.41,3.82t3.41,10.16q0,6.42-3.44,10.22T736.67,1393.77Zm.17-4.86a5.55,5.55,0,0,0,4.89-2.37q1.63-2.37,1.63-6.79t-1.63-6.81a6.32,6.32,0,0,0-9.83,0c-1.1,1.58-1.65,3.85-1.65,6.83a11.74,11.74,0,0,0,1.66,6.76A5.63,5.63,0,0,0,736.84,1388.91Z"/><path class="cls-4" d="M755.48,1393.26v-26.84h5.16l.7,3.4a12.71,12.71,0,0,1,9.11-4c3.12,0,5.46.89,7,2.69s2.33,4.41,2.33,7.83v17h-6.42v-16.19a9.38,9.38,0,0,0-1-4.86c-.68-1.07-1.91-1.61-3.69-1.61a7,7,0,0,0-3.79,1.06,6.47,6.47,0,0,0-2.51,2.67,27,27,0,0,0-.46,5.86v13.07Z"/><path class="cls-4" d="M795.17,1393.74c-4,0-7.12-.67-9.5-2l.66-4.81a19.8,19.8,0,0,0,4.1,1.57,16.81,16.81,0,0,0,4.54.7,5.89,5.89,0,0,0,3.31-.8,2.67,2.67,0,0,0,1.21-2.33,2.56,2.56,0,0,0-1.11-2.19,20.48,20.48,0,0,0-4.24-2l-1.39-.51a14.46,14.46,0,0,1-5.35-3.21,6.8,6.8,0,0,1-1.63-4.8,6.53,6.53,0,0,1,2.65-5.61c1.76-1.3,4.23-2,7.38-2a20.08,20.08,0,0,1,9,1.92l-1.59,4.42a17.39,17.39,0,0,0-7.29-1.78,5.92,5.92,0,0,0-3,.65,2.12,2.12,0,0,0-1.09,2,2.2,2.2,0,0,0,1,1.94,22.53,22.53,0,0,0,4.1,1.82l.64.22.83.32a13.74,13.74,0,0,1,5.42,3.21,6.89,6.89,0,0,1,1.73,4.87,7.6,7.6,0,0,1-2.73,6.23Q800.15,1393.74,795.17,1393.74Z"/><path class="cls-4" d="M823.55,1393.77q-6.46,0-10.07-3.73t-3.6-10.29q0-6.39,3.39-10.18a11.85,11.85,0,0,1,9.25-3.8q5.55,0,8.61,3.46a13.41,13.41,0,0,1,3.06,9.21c0,.27,0,.72,0,1.34s0,1.07,0,1.37H816.32a8.48,8.48,0,0,0,2.07,5.82,7.12,7.12,0,0,0,5.4,2.06,16.91,16.91,0,0,0,8.45-2.29l.9,4.54A17.86,17.86,0,0,1,823.55,1393.77Zm-7.11-16.65h11.72a7.53,7.53,0,0,0-1.49-5,5.1,5.1,0,0,0-4.12-1.76,5.62,5.62,0,0,0-4.16,1.71A7.75,7.75,0,0,0,816.44,1377.12Z"/><path class="cls-4" d="M864.32,1393.62a13.49,13.49,0,0,1-4.55-.65,5.9,5.9,0,0,1-2.85-2,8.72,8.72,0,0,1-1.45-3.29A21.28,21.28,0,0,1,855,1383v-12.67h-4.39l.24-3.47,4.59-.42,2-7.27,3.91,0v7.3h6.66v3.89h-6.66v12.79a8,8,0,0,0,.88,4.34,3.63,3.63,0,0,0,3.24,1.3,18.71,18.71,0,0,0,3-.25l.17,4.59-.59.11-1,.2c-.34.06-.77.11-1.29.16S864.77,1393.62,864.32,1393.62Z"/><path class="cls-4" d="M885,1393.77a11.87,11.87,0,0,1-9.37-3.86q-3.42-3.86-3.42-10.16,0-6.48,3.42-10.24t9.64-3.74q6,0,9.41,3.82t3.41,10.16q0,6.42-3.45,10.22T885,1393.77Zm.17-4.86a5.53,5.53,0,0,0,4.88-2.37,11.88,11.88,0,0,0,1.64-6.79q0-4.45-1.64-6.81a6.31,6.31,0,0,0-9.82,0c-1.1,1.58-1.65,3.85-1.65,6.83a11.66,11.66,0,0,0,1.66,6.76A5.63,5.63,0,0,0,885.18,1388.91Z"/><path class="cls-4" d="M928.25,1393.62a13.55,13.55,0,0,1-4.56-.65,5.87,5.87,0,0,1-2.84-2,8.72,8.72,0,0,1-1.45-3.29A21.28,21.28,0,0,1,919,1383v-12.67h-4.4l.25-3.47,4.59-.42,2.05-7.27,3.91,0v7.3H932v3.89h-6.66v12.79a8.09,8.09,0,0,0,.87,4.34,3.65,3.65,0,0,0,3.25,1.3,18.81,18.81,0,0,0,3-.25l.17,4.59-.6.11c-.36.08-.71.14-1,.2s-.76.11-1.28.16S928.7,1393.62,928.25,1393.62Z"/><path class="cls-4" d="M937.63,1393.26v-36.72l6.4-.42v7.74c0,.38,0,1.41-.07,3.11s-.08,2.57-.08,2.6a10.64,10.64,0,0,1,8.6-3.8,9.22,9.22,0,0,1,7,2.57q2.47,2.58,2.48,7.92v17h-6.4V1377a8.69,8.69,0,0,0-1-4.83,4,4,0,0,0-3.57-1.54,6.72,6.72,0,0,0-3.8,1.09,6.81,6.81,0,0,0-2.49,2.79,23.45,23.45,0,0,0-.59,5.86v12.92Z"/><path class="cls-4" d="M981.13,1393.77q-6.48,0-10.07-3.73t-3.61-10.29q0-6.39,3.4-10.18a11.84,11.84,0,0,1,9.25-3.8c3.7,0,6.56,1.15,8.61,3.46a13.41,13.41,0,0,1,3.06,9.21c0,.27,0,.72,0,1.34s0,1.07,0,1.37H973.9A8.43,8.43,0,0,0,976,1387a7.14,7.14,0,0,0,5.41,2.06,16.91,16.91,0,0,0,8.45-2.29l.9,4.54A17.86,17.86,0,0,1,981.13,1393.77ZM974,1377.12h11.72a7.59,7.59,0,0,0-1.49-5,5.12,5.12,0,0,0-4.12-1.76A5.64,5.64,0,0,0,976,1372,7.75,7.75,0,0,0,974,1377.12Z"/><path class="cls-4" d="M1027.39,1393.77q-7.83,0-12.43-4.93t-4.59-13.63q0-8.25,4.8-13.24t12.56-5a18.66,18.66,0,0,1,10.62,2.9l-2.07,5a16,16,0,0,0-8.4-2.57,9.51,9.51,0,0,0-7.8,3.55q-2.87,3.56-2.87,9.54,0,6.19,2.77,9.59a9.6,9.6,0,0,0,7.9,3.4,19.49,19.49,0,0,0,8.91-2.25l.88,5.18A19.9,19.9,0,0,1,1027.39,1393.77Z"/><path class="cls-4" d="M1052.84,1393.62a13.64,13.64,0,0,1-4.58-.65,6,6,0,0,1-2.87-2.06,8.53,8.53,0,0,1-1.46-3.37,23.6,23.6,0,0,1-.42-4.86v-26.14l6.4-.42v26.44c0,2.41.29,4,.86,4.9s1.67,1.28,3.32,1.28a22.75,22.75,0,0,0,3.1-.27l.17,4.57-.6.12c-.38.08-.75.15-1.1.2s-.79.12-1.33.18S1053.3,1393.62,1052.84,1393.62Z"/><path class="cls-4" d="M1061.18,1362.52v-5.47h6.42v5.47Zm0,30.74v-26.84h6.39v26.84Z"/><path class="cls-4" d="M1087.14,1393.77q-6.47,0-10.07-3.73t-3.6-10.29q0-6.39,3.39-10.18a11.87,11.87,0,0,1,9.26-3.8q5.54,0,8.6,3.46a13.41,13.41,0,0,1,3.07,9.21c0,.27,0,.72,0,1.34s0,1.07,0,1.37h-17.84A8.43,8.43,0,0,0,1082,1387a7.13,7.13,0,0,0,5.41,2.06,16.87,16.87,0,0,0,8.44-2.29l.91,4.54A17.92,17.92,0,0,1,1087.14,1393.77Zm-7.1-16.65h11.72a7.59,7.59,0,0,0-1.49-5,5.14,5.14,0,0,0-4.13-1.76A5.64,5.64,0,0,0,1082,1372,7.75,7.75,0,0,0,1080,1377.12Z"/><path class="cls-4" d="M1103.49,1393.26v-26.84h5.15l.71,3.4a12.69,12.69,0,0,1,9.1-4c3.13,0,5.47.89,7,2.69s2.33,4.41,2.33,7.83v17h-6.42v-16.19a9.18,9.18,0,0,0-1.05-4.86c-.68-1.07-1.91-1.61-3.68-1.61a7.07,7.07,0,0,0-3.8,1.06,6.44,6.44,0,0,0-2.5,2.67,26.87,26.87,0,0,0-.47,5.86v13.07Z"/><path class="cls-4" d="M1145.32,1393.62a13.49,13.49,0,0,1-4.55-.65,5.9,5.9,0,0,1-2.85-2,8.72,8.72,0,0,1-1.45-3.29,21.28,21.28,0,0,1-.43-4.67v-12.67h-4.39l.24-3.47,4.59-.42,2-7.27,3.91,0v7.3h6.66v3.89h-6.66v12.79a8,8,0,0,0,.88,4.34,3.63,3.63,0,0,0,3.24,1.3,18.71,18.71,0,0,0,3-.25l.17,4.59-.59.11-1,.2c-.34.06-.77.11-1.29.16S1145.77,1393.62,1145.32,1393.62Z"/><path class="cls-4" d="M549.23,1011.63a22.61,22.61,0,0,1-11.59-3l1.61-5.25a23.33,23.33,0,0,0,5,2.05,18.55,18.55,0,0,0,5.26.79,7.24,7.24,0,0,0,4.76-1.36,4.78,4.78,0,0,0,1.61-3.89c0-2.25-1.49-3.8-4.49-4.67l-1.78-.52c-1-.28-1.89-.56-2.75-.83s-1.47-.48-1.84-.62c-4.8-1.7-7.2-4.85-7.2-9.48a8.88,8.88,0,0,1,3.45-7.49c2.31-1.76,5.36-2.64,9.17-2.64a22.31,22.31,0,0,1,11.16,2.66l-2,4.84a21.91,21.91,0,0,0-8.89-2.15,7.88,7.88,0,0,0-4.46,1,4.12,4.12,0,0,0-1.6,3.45,3.75,3.75,0,0,0,3,3.88q.58.22,2.88,1l3,1c3.27,1.07,5.61,2.41,7,4a9.79,9.79,0,0,1,2.11,6.67,9.31,9.31,0,0,1-3.61,7.85Q555.37,1011.64,549.23,1011.63Z"/><path class="cls-4" d="M580.52,1011.66q-6.46,0-10.07-3.73t-3.6-10.29q0-6.39,3.39-10.18a11.9,11.9,0,0,1,9.26-3.81q5.54,0,8.6,3.47a13.4,13.4,0,0,1,3.07,9.2c0,.28,0,.73,0,1.35s0,1.07,0,1.36H573.29a8.49,8.49,0,0,0,2.07,5.83,7.12,7.12,0,0,0,5.4,2.06,16.82,16.82,0,0,0,8.45-2.3l.9,4.55A17.86,17.86,0,0,1,580.52,1011.66ZM573.42,995h11.71a7.58,7.58,0,0,0-1.48-5,5.11,5.11,0,0,0-4.13-1.76,5.64,5.64,0,0,0-4.16,1.71A7.75,7.75,0,0,0,573.42,995Z"/><path class="cls-4" d="M596.86,1011.14V984.31H602l.7,3.4a12.68,12.68,0,0,1,9.11-4.06q4.7,0,7,2.7t2.33,7.83v17h-6.42V995a9.38,9.38,0,0,0-1-4.86c-.68-1.08-1.91-1.61-3.69-1.61a7.06,7.06,0,0,0-3.79,1.06,6.44,6.44,0,0,0-2.5,2.67,26.8,26.8,0,0,0-.47,5.86v13.06Z"/><path class="cls-4" d="M638,1011.66a9.91,9.91,0,0,1-8.26-3.86q-3-3.85-3-10.3,0-6.25,3-10a9.91,9.91,0,0,1,8.24-3.8q5.71,0,8.08,4.06-.24-2.4-.24-4.62v-8.66l6.4-.42v37.13h-5.55l-.7-3.66c-.28.44-.54.82-.77,1.14a9.81,9.81,0,0,1-1,1.1,6.54,6.54,0,0,1-1.48,1,10.39,10.39,0,0,1-2,.66A12.29,12.29,0,0,1,638,1011.66Zm1.51-4.86q6.45,0,6.54-8.77,0-4.95-1.66-7.22a5.72,5.72,0,0,0-5-2.27,5.49,5.49,0,0,0-4.61,2.3c-1.14,1.54-1.72,3.81-1.72,6.8s.58,5.25,1.72,6.81A5.49,5.49,0,0,0,639.48,1006.8Z"/><path class="cls-4" d="M667.79,1011.63c-4,0-7.12-.67-9.5-2l.66-4.8a19.8,19.8,0,0,0,4.1,1.57,17.16,17.16,0,0,0,4.54.7,5.89,5.89,0,0,0,3.31-.8,2.68,2.68,0,0,0,1.21-2.33,2.58,2.58,0,0,0-1.11-2.2,21.14,21.14,0,0,0-4.24-2l-1.39-.51A14.37,14.37,0,0,1,660,996a6.8,6.8,0,0,1-1.63-4.8,6.53,6.53,0,0,1,2.65-5.61q2.64-2,7.38-2a20.08,20.08,0,0,1,9,1.93L675.84,990a17.28,17.28,0,0,0-7.3-1.78,5.9,5.9,0,0,0-3,.65,2.12,2.12,0,0,0-1.09,2,2.2,2.2,0,0,0,1,1.94,22.53,22.53,0,0,0,4.1,1.82l.64.22.83.32a13.62,13.62,0,0,1,5.42,3.21,6.89,6.89,0,0,1,1.73,4.87,7.67,7.67,0,0,1-2.73,6.23Q672.76,1011.63,667.79,1011.63Z"/><path class="cls-4" d="M708.19,1011.51a13.74,13.74,0,0,1-4.55-.65,5.9,5.9,0,0,1-2.85-2,8.76,8.76,0,0,1-1.45-3.28,21.94,21.94,0,0,1-.43-4.68V988.19h-4.39l.24-3.46,4.59-.42,2-7.27,3.91,0v7.3H712v3.88h-6.67V1001a8,8,0,0,0,.88,4.34c.58.87,1.67,1.3,3.25,1.3a18.9,18.9,0,0,0,3-.25l.17,4.59-.6.11-1,.2c-.34.05-.76.11-1.28.16S708.65,1011.51,708.19,1011.51Z"/><path class="cls-4" d="M717.58,1011.14V974.43L724,974v7.74c0,.37,0,1.41-.07,3.11s-.07,2.57-.07,2.6a10.63,10.63,0,0,1,8.59-3.81,9.2,9.2,0,0,1,7,2.58q2.48,2.58,2.48,7.92v17h-6.4V994.86a8.75,8.75,0,0,0-1.05-4.84,4,4,0,0,0-3.56-1.53,6.88,6.88,0,0,0-6.3,3.88,23.93,23.93,0,0,0-.59,5.86v12.91Z"/><path class="cls-4" d="M761.07,1011.66q-6.47,0-10.07-3.73t-3.6-10.29q0-6.39,3.39-10.18a11.9,11.9,0,0,1,9.26-3.81q5.54,0,8.6,3.47a13.4,13.4,0,0,1,3.07,9.2c0,.28,0,.73,0,1.35s0,1.07,0,1.36H753.85a8.44,8.44,0,0,0,2.06,5.83,7.13,7.13,0,0,0,5.41,2.06,16.78,16.78,0,0,0,8.44-2.3l.91,4.55A17.92,17.92,0,0,1,761.07,1011.66ZM754,995h11.71a7.58,7.58,0,0,0-1.48-5,5.11,5.11,0,0,0-4.13-1.76,5.64,5.64,0,0,0-4.16,1.71A7.75,7.75,0,0,0,754,995Z"/><path class="cls-4" d="M786.1,1019l-.27-5.2a15.56,15.56,0,0,0,2.56.2c1.81,0,3-.47,3.66-1.4a8.31,8.31,0,0,0,1-4.59V975.28h6.64v32.27a21.31,21.31,0,0,1-.54,5.19,8.6,8.6,0,0,1-1.86,3.59,7.46,7.46,0,0,1-3.47,2.16,17.81,17.81,0,0,1-5.36.69A11.89,11.89,0,0,1,786.1,1019Z"/><path class="cls-4" d="M813.79,1011.14l-9.71-35.76h6.59l6.93,27.83,8.16-27.66h6.32l7.74,27.76,7.08-27.93h6.59l-10,35.76h-6.86L829,985l-8.38,26.19Z"/><path class="cls-4" d="M865.17,1011.14V980.68H854.75v-5.3h27.44v5.3H871.81v30.46Z"/><path class="cls-4" d="M911.51,1011.66a11.9,11.9,0,0,1-9.38-3.86q-3.42-3.85-3.42-10.16,0-6.5,3.42-10.24t9.65-3.75q6,0,9.41,3.82t3.4,10.17q0,6.42-3.44,10.22T911.51,1011.66Zm.17-4.86a5.54,5.54,0,0,0,4.88-2.37,11.88,11.88,0,0,0,1.64-6.79q0-4.47-1.64-6.81a6.32,6.32,0,0,0-9.83,0q-1.63,2.35-1.64,6.83a11.66,11.66,0,0,0,1.66,6.76A5.62,5.62,0,0,0,911.68,1006.8Z"/><path class="cls-4" d="M930.32,1011.14V984.31h5.15l.71,3.4a12.66,12.66,0,0,1,9.1-4.06q4.69,0,7,2.7c1.56,1.8,2.33,4.41,2.33,7.83v17h-6.42V995a9.18,9.18,0,0,0-1.05-4.86c-.68-1.08-1.91-1.61-3.68-1.61a7.07,7.07,0,0,0-3.8,1.06,6.44,6.44,0,0,0-2.5,2.67,26.8,26.8,0,0,0-.47,5.86v13.06Z"/><path class="cls-4" d="M985.86,1011.51a13.74,13.74,0,0,1-4.55-.65,5.86,5.86,0,0,1-2.85-2,8.6,8.6,0,0,1-1.45-3.28,21.31,21.31,0,0,1-.43-4.68V988.19h-4.39l.24-3.46,4.59-.42,2.05-7.27,3.91,0v7.3h6.66v3.88H983V1001a8,8,0,0,0,.88,4.34c.58.87,1.66,1.3,3.24,1.3a18.81,18.81,0,0,0,3-.25l.17,4.59-.59.11-1,.2c-.34.05-.76.11-1.29.16S986.31,1011.51,985.86,1011.51Z"/><path class="cls-4" d="M995.25,1011.14V974.43l6.39-.42v7.74c0,.37,0,1.41-.07,3.11s-.07,2.57-.07,2.6a10.63,10.63,0,0,1,8.59-3.81,9.21,9.21,0,0,1,7,2.58q2.48,2.58,2.48,7.92v17h-6.4V994.86a8.75,8.75,0,0,0-1-4.84,4,4,0,0,0-3.56-1.53,6.88,6.88,0,0,0-6.3,3.88,23.93,23.93,0,0,0-.59,5.86v12.91Z"/><path class="cls-4" d="M1038.74,1011.66q-6.46,0-10.07-3.73t-3.6-10.29q0-6.39,3.39-10.18a11.89,11.89,0,0,1,9.25-3.81q5.55,0,8.61,3.47a13.4,13.4,0,0,1,3.06,9.2c0,.28,0,.73,0,1.35s0,1.07,0,1.36h-17.85a8.44,8.44,0,0,0,2.07,5.83,7.12,7.12,0,0,0,5.4,2.06,16.82,16.82,0,0,0,8.45-2.3l.9,4.55A17.86,17.86,0,0,1,1038.74,1011.66ZM1031.63,995h11.72a7.53,7.53,0,0,0-1.49-5,5.07,5.07,0,0,0-4.12-1.76,5.62,5.62,0,0,0-4.16,1.71A7.75,7.75,0,0,0,1031.63,995Z"/><path class="cls-4" d="M525.53,1040.2l10.33,34.94h-4.61l-3.31-11.27h-9.82l-3.28,11.27h-4.59l10.31-34.94ZM519,1060.35h8l-3.94-15.16Z"/><path class="cls-4" d="M561.57,1066.8q0,8.92-9.94,8.93t-9.94-8.93v-17.37H546v17.75a5.22,5.22,0,0,0,1.36,4,7.95,7.95,0,0,0,8.62,0,5.22,5.22,0,0,0,1.36-4v-17.75h4.27Z"/><path class="cls-4" d="M579.45,1052.71v12.07a20.9,20.9,0,0,0,.24,3.57,4.31,4.31,0,0,0,1,2.13,3.63,3.63,0,0,0,1.91,1.1,14.07,14.07,0,0,0,3.18.28h4.72l-.24,3.28h-4.31q-6.63,0-8.84-2.43a8.86,8.86,0,0,1-1.75-5.14,37.55,37.55,0,0,1-.17-3.86v-11h-7.26l.46-3.28h6.8v-8.86l4.27-1.26v10.12h10.82v3.28Z"/><path class="cls-4" d="M618.82,1059.63v15.51h-4.27v-15q0-4.83-1.29-6.52a4.57,4.57,0,0,0-3.89-1.71,6.45,6.45,0,0,0-4.56,1.82,5.31,5.31,0,0,0-1.93,3.9v17.48h-4.27v-36.21l4.27-.47v14.09a9.64,9.64,0,0,1,8-3.89Q618.81,1048.66,618.82,1059.63Z"/><path class="cls-4" d="M645.69,1052.41q2.79,3.75,2.79,9.8a15.09,15.09,0,0,1-3,9.78,10,10,0,0,1-8.2,3.74,11.13,11.13,0,0,1-4.93-1,9.37,9.37,0,0,1-3.49-2.91,16.16,16.16,0,0,1-2.69-9.7,15.07,15.07,0,0,1,3-9.7,10.15,10.15,0,0,1,8.38-3.71Q642.9,1048.66,645.69,1052.41Zm-8.43,20c3,0,5-1.49,6.09-4.45a14.28,14.28,0,0,0,.87-4.91,32.55,32.55,0,0,0-.19-3.93,10.31,10.31,0,0,0-2-5.2,5.68,5.68,0,0,0-4.74-2q-4.37,0-6,4.55a15.56,15.56,0,0,0-.84,5.11,18,18,0,0,0,1.47,7.79A5.4,5.4,0,0,0,637.26,1072.45Z"/><path class="cls-4" d="M664.2,1075.14h-4.26v-25.71h3.49l.35,4.76a10.62,10.62,0,0,1,4.13-4.12,11.75,11.75,0,0,1,5.78-1.41h2.07v4h-2.67a9.65,9.65,0,0,0-6.5,2.05q-2.39,2.05-2.39,6.18Z"/><path class="cls-4" d="M686,1052.71v-3.28h11.6v22.43H705v3.28H685.2v-3.28h8.15v-19.15Zm6.63-10v-2.32a1.83,1.83,0,0,1,1-1.49,3.1,3.1,0,0,1,3.77,0,1.81,1.81,0,0,1,1,1.49v2.32a1.81,1.81,0,0,1-1,1.49,3.1,3.1,0,0,1-3.77,0A1.83,1.83,0,0,1,692.65,1042.66Z"/><path class="cls-4" d="M713.83,1049.43H731v3.24l-13,19.19,13.82.05v3.23H713.36v-3.32l12.73-19.11H713.83Z"/><path class="cls-4" d="M757.07,1057.43c0-3.68-1.56-5.51-4.67-5.51a26,26,0,0,0-4.86.51,20,20,0,0,0-3.74,1l-1-3.14a28.81,28.81,0,0,1,9.11-1.62,11.13,11.13,0,0,1,6.85,1.94q2.57,2,2.57,6v18.54H757.8l-.57-3a12.12,12.12,0,0,1-3.85,2.54,11.56,11.56,0,0,1-4.61,1,7.73,7.73,0,0,1-5.41-2,7.08,7.08,0,0,1-2.16-5.53A5.66,5.66,0,0,1,744,1063a12.38,12.38,0,0,1,4-1.6q2.15-.44,5.59-.86l3.42-.4Zm0,12v-6.56l-3.49.49a29.54,29.54,0,0,0-5.07,1q-3.13,1.2-3.14,4a4.21,4.21,0,0,0,1.13,3.09,4.11,4.11,0,0,0,3.09,1.15A10.12,10.12,0,0,0,757.07,1069.4Z"/><path class="cls-4" d="M779.4,1052.71v12.07a20.9,20.9,0,0,0,.24,3.57,4.4,4.4,0,0,0,1,2.13,3.63,3.63,0,0,0,1.91,1.1,14.1,14.1,0,0,0,3.19.28h4.71l-.24,3.28h-4.31q-6.63,0-8.84-2.43a8.93,8.93,0,0,1-1.75-5.14,37.55,37.55,0,0,1-.17-3.86v-11h-7.26l.47-3.28h6.79v-8.86l4.27-1.26v10.12h10.83v3.28Z"/><path class="cls-4" d="M800.28,1052.71v-3.28h11.6v22.43h7.36v3.28H799.46v-3.28h8.15v-19.15Zm6.63-10v-2.32a1.83,1.83,0,0,1,1-1.49,3.1,3.1,0,0,1,3.77,0,1.83,1.83,0,0,1,1,1.49v2.32a1.83,1.83,0,0,1-1,1.49,3.1,3.1,0,0,1-3.77,0A1.83,1.83,0,0,1,806.91,1042.66Z"/><path class="cls-4" d="M845.65,1052.41q2.79,3.75,2.78,9.8t-3,9.78a10,10,0,0,1-8.2,3.74,11.05,11.05,0,0,1-4.92-1,9.33,9.33,0,0,1-3.5-2.91,16.23,16.23,0,0,1-2.69-9.7,15,15,0,0,1,3-9.7,10.12,10.12,0,0,1,8.37-3.71Q842.86,1048.66,845.65,1052.41Zm-8.44,20c3,0,5-1.49,6.09-4.45a14.28,14.28,0,0,0,.87-4.91,30.59,30.59,0,0,0-.19-3.93,10.31,10.31,0,0,0-2-5.2,5.68,5.68,0,0,0-4.74-2q-4.37,0-6,4.55a15.31,15.31,0,0,0-.85,5.11,17.86,17.86,0,0,0,1.48,7.79A5.38,5.38,0,0,0,837.21,1072.45Z"/><path class="cls-4" d="M868.14,1048.66q8,0,8,10.12v16.36h-4.26V1059.3a19.29,19.29,0,0,0-.28-3.89,5.15,5.15,0,0,0-.85-1.92,4.64,4.64,0,0,0-3.91-1.55,7,7,0,0,0-4.64,1.59,5.24,5.24,0,0,0-1.9,4.22v17.39H856v-25.71h3.92l.23,2.79Q862.72,1048.67,868.14,1048.66Z"/><path class="cls-4" d="M916.22,1075.14h-4.38V1040.2h4.38v14.9H929.7v-14.9h4.38v34.94H929.7v-16.45H916.22Z"/><path class="cls-4" d="M946.71,1073.94a10.81,10.81,0,0,1-4-4.83,17.37,17.37,0,0,1-1.3-6.86,18.3,18.3,0,0,1,1.21-6.85,11.3,11.3,0,0,1,3.61-4.9,8.42,8.42,0,0,1,5.28-1.86c3.63,0,6.28,1.24,8,3.72a15.93,15.93,0,0,1,2.53,9.17V1063H945.72a12.8,12.8,0,0,0,2,6.72,6.19,6.19,0,0,0,5.52,2.77,19.89,19.89,0,0,0,6.87-2.67l1.41,2.9a11.26,11.26,0,0,1-8.32,3A11.45,11.45,0,0,1,946.71,1073.94Zm11.22-14.1q-.46-7.9-5.53-7.9-5.71,0-6.54,7.9Z"/><path class="cls-4" d="M985.59,1057.43c0-3.68-1.56-5.51-4.67-5.51a25.93,25.93,0,0,0-4.86.51,20,20,0,0,0-3.74,1l-1-3.14a28.91,28.91,0,0,1,9.12-1.62,11.12,11.12,0,0,1,6.84,1.94q2.58,2,2.58,6v18.54h-3.54l-.56-3a12.05,12.05,0,0,1-3.86,2.54,11.52,11.52,0,0,1-4.6,1,7.71,7.71,0,0,1-5.41-2,7.08,7.08,0,0,1-2.16-5.53,5.66,5.66,0,0,1,2.81-5.24,12.33,12.33,0,0,1,4-1.6c1.43-.29,3.3-.58,5.59-.86l3.43-.4Zm0,12v-6.56l-3.5.49a29.59,29.59,0,0,0-5.06,1q-3.13,1.2-3.14,4a4.21,4.21,0,0,0,1.13,3.09,4.11,4.11,0,0,0,3.09,1.15A10.12,10.12,0,0,0,985.59,1069.4Z"/><path class="cls-4" d="M1014.83,1053v-14l4.27-.47v36.68h-4.27v-4c-1.73,3-4.19,4.57-7.36,4.57q-5.43,0-7.91-3.89a17.87,17.87,0,0,1-2.47-9.77q0-7.08,3.61-10.79a9,9,0,0,1,6.79-2.62,8.52,8.52,0,0,1,4.73,1.19A6.8,6.8,0,0,1,1014.83,1053Zm0,9.17q0-6-1.78-8.1a6.28,6.28,0,0,0-5.06-2.1,5.66,5.66,0,0,0-5.89,4.5,21.33,21.33,0,0,0-.72,5.93q0,10.08,6.61,10.08Q1014.83,1072.45,1014.83,1062.14Z"/><path class="cls-4" d="M1032.4,1073.94a10.79,10.79,0,0,1-4-4.83,17.2,17.2,0,0,1-1.3-6.86,18.5,18.5,0,0,1,1.2-6.85,11.38,11.38,0,0,1,3.61-4.9,8.45,8.45,0,0,1,5.29-1.86q5.43,0,8,3.72a16,16,0,0,1,2.53,9.17V1063h-16.29a12.62,12.62,0,0,0,2,6.72,6.19,6.19,0,0,0,5.52,2.77,19.89,19.89,0,0,0,6.87-2.67l1.4,2.9a11.24,11.24,0,0,1-8.32,3A11.47,11.47,0,0,1,1032.4,1073.94Zm11.23-14.1q-.47-7.9-5.53-7.9-5.71,0-6.54,7.9Z"/><path class="cls-4" d="M1062,1075.14h-4.27v-25.71h3.5l.35,4.76a10.59,10.59,0,0,1,4.12-4.12,11.76,11.76,0,0,1,5.79-1.41h2.06v4h-2.67a9.62,9.62,0,0,0-6.49,2.05q-2.38,2.05-2.39,6.18Z"/><polygon class="cls-2" points="1515.96 99.32 1440.85 150.64 1251.62 113.4 1326.73 63.08 1515.96 99.32"/><path d="M1441.29,152.76l-.82-.16-194-38.17L1326.3,61l.8.16,194,37.14Zm-184.55-40.39,183.68,36.15,70.45-48.14L1327.16,65.2Z"/><polygon class="cls-3" points="1515.96 309.26 1440.85 359.58 1251.62 322.34 1326.73 272.02 1515.96 309.26"/><path class="cls-1" d="M1441.28,361.7l-.81-.16-194-38.17,79.81-53.47.81.16,194,38.17Zm-184.54-40.39,183.69,36.15,70.41-47.17-183.69-36.15Z"/><polygon class="cls-2" points="1440.85 361.66 1515.96 311.34 1515.96 99.28 1440.85 149.6 1440.85 361.66"/><path d="M1438.85,365.41V148.53l79.12-53V312.41Zm4-214.74V357.91L1514,310.27V103Z"/><polygon class="cls-2" points="1251.62 113.4 1440.85 150.64 1440.85 359.58 1251.62 322.34 1251.62 113.4"/><path d="M1442.85,362l-193.23-38V111l193.23,38Zm-189.23-41.32,185.23,36.46V152.28l-185.23-36.45Z"/><polygon class="cls-3" points="1454.08 192.85 1504 159.41 1504 125.54 1454.08 158.98 1454.08 192.85"/><path d="M1452.08,196.6V157.92L1506,121.79v38.69Zm4-36.55v29.06L1502,158.34V129.29Z"/><circle class="cls-1" cx="1493.1" cy="150.22" r="4.16"/><polygon class="cls-3" points="1454.08 240.67 1504 207.23 1504 173.36 1454.08 206.8 1454.08 240.67"/><path d="M1452.08,244.42V205.73L1506,169.61v38.68Zm4-36.55v29L1502,206.16V177.1Z"/><circle class="cls-1" cx="1493.1" cy="198.03" r="4.16"/><polygon class="cls-3" points="1454.08 288.49 1504 255.04 1504 221.17 1454.08 254.62 1454.08 288.49"/><path d="M1452.08,292.23V253.55L1506,217.43v38.68Zm4-36.54v29.05L1502,254V224.92Z"/><circle class="cls-1" cx="1493.1" cy="245.85" r="4.16"/><polygon class="cls-3" points="1454.08 336.3 1504 302.86 1504 268.99 1454.08 302.43 1454.08 336.3"/><path d="M1452.08,340.05V301.37L1506,265.24v38.69Zm4-36.55v29.06L1502,301.79V272.74Z"/><circle class="cls-1" cx="1493.1" cy="293.67" r="4.16"/><path class="cls-4" d="M1285.46,242.65a21.8,21.8,0,0,1-11.13-2.86l1.55-5a23.25,23.25,0,0,0,4.79,2,18.13,18.13,0,0,0,5,.75,7,7,0,0,0,4.57-1.3,4.63,4.63,0,0,0,1.55-3.74q0-3.24-4.32-4.48l-1.71-.5c-.93-.28-1.81-.54-2.63-.8s-1.41-.46-1.77-.6q-6.92-2.43-6.92-9.09a8.53,8.53,0,0,1,3.32-7.2,14.17,14.17,0,0,1,8.8-2.53,21.28,21.28,0,0,1,10.71,2.56l-1.92,4.64a20.9,20.9,0,0,0-8.53-2.07,7.58,7.58,0,0,0-4.28,1,3.94,3.94,0,0,0-1.53,3.32,3.59,3.59,0,0,0,2.83,3.72c.38.14,1.3.45,2.77.92l2.86.91c3.14,1,5.38,2.31,6.74,3.85a9.33,9.33,0,0,1,2,6.39,8.89,8.89,0,0,1-3.47,7.54Q1291.35,242.65,1285.46,242.65Z"/><path class="cls-4" d="M1315,242.67q-6.21,0-9.67-3.57t-3.46-9.88q0-6.15,3.26-9.78a11.37,11.37,0,0,1,8.88-3.65q5.33,0,8.26,3.32a12.83,12.83,0,0,1,3,8.84c0,.27,0,.7,0,1.29s0,1,0,1.31h-17.13a8.08,8.08,0,0,0,2,5.59,6.83,6.83,0,0,0,5.19,2,16.22,16.22,0,0,0,8.11-2.2l.87,4.36A17.21,17.21,0,0,1,1315,242.67Zm-6.82-16h11.25a7.27,7.27,0,0,0-1.43-4.83,4.92,4.92,0,0,0-4-1.69,5.44,5.44,0,0,0-4,1.64A7.39,7.39,0,0,0,1308.2,226.69Z"/><path class="cls-4" d="M1330.25,242.18V216.42h5.16l.79,3.94a8.14,8.14,0,0,1,7.34-4.06,10.46,10.46,0,0,1,1.64.1l-.09,5.13a13.77,13.77,0,0,0-1.95-.14,6.6,6.6,0,0,0-5.07,1.8,7.1,7.1,0,0,0-1.68,5v14Z"/><path class="cls-4" d="M1356.15,242.18l-10.27-25.76h6.52c.25.7,1,2.89,2.38,6.55s2.22,6.16,2.66,7.49q1.33,3.89,1.92,5.88s.13-.52.4-1.52.52-1.94.76-2.83.4-1.41.46-1.6c0,0,.73-2.19,2.14-6.47s2.26-6.78,2.52-7.5h6.47l-9.75,25.76Z"/><path class="cls-4" d="M1387,242.67q-6.21,0-9.67-3.57t-3.45-9.88q0-6.15,3.25-9.78a11.41,11.41,0,0,1,8.89-3.65c3.54,0,6.3,1.11,8.26,3.32a12.87,12.87,0,0,1,2.94,8.84c0,.27,0,.7,0,1.29s0,1,0,1.31H1380.1a8.17,8.17,0,0,0,2,5.59,6.83,6.83,0,0,0,5.19,2,16.19,16.19,0,0,0,8.11-2.2l.87,4.36A17.21,17.21,0,0,1,1387,242.67Zm-6.82-16h11.25a7.27,7.27,0,0,0-1.43-4.83,4.89,4.89,0,0,0-4-1.69,5.44,5.44,0,0,0-4,1.64A7.5,7.5,0,0,0,1380.22,226.69Z"/><path class="cls-4" d="M1402.27,242.18V216.42h5.16l.8,3.94a8.13,8.13,0,0,1,7.33-4.06,10.37,10.37,0,0,1,1.64.1l-.09,5.13a13.52,13.52,0,0,0-1.94-.14,6.62,6.62,0,0,0-5.08,1.8,7.1,7.1,0,0,0-1.67,5v14Z"/><rect class="cls-3" x="128.08" y="35.43" width="230.74" height="377.16" rx="11.18" transform="translate(467.46 -19.44) rotate(90)"/><path d="M420.85,341.38H66.05A13.2,13.2,0,0,1,52.87,328.2V119.81a13.19,13.19,0,0,1,13.18-13.17h354.8A13.19,13.19,0,0,1,434,119.81V328.2A13.2,13.2,0,0,1,420.85,341.38ZM66.05,110.64a9.18,9.18,0,0,0-9.18,9.17V328.2a9.19,9.19,0,0,0,9.18,9.18h354.8A9.19,9.19,0,0,0,430,328.2V119.81a9.18,9.18,0,0,0-9.18-9.17Z"/><path class="cls-5" d="M68.2,107.12H418.84a12.46,12.46,0,0,1,12.46,12.46v19.16a0,0,0,0,1,0,0H55.74a0,0,0,0,1,0,0V119.58A12.46,12.46,0,0,1,68.2,107.12Z"/><path class="cls-6" d="M433.29,140.74H53.74V119.58A14.48,14.48,0,0,1,68.2,105.12H418.84a14.47,14.47,0,0,1,14.45,14.46Zm-375.55-4H429.29V119.58a10.47,10.47,0,0,0-10.45-10.46H68.2a10.47,10.47,0,0,0-10.46,10.46Z"/><circle class="cls-7" cx="73.08" cy="122.95" r="6.7"/><path class="cls-6" d="M73.08,130.65a7.71,7.71,0,1,1,7.7-7.7A7.71,7.71,0,0,1,73.08,130.65Zm0-13.41a5.71,5.71,0,1,0,5.7,5.71A5.71,5.71,0,0,0,73.08,117.24Z"/><circle class="cls-8" cx="91.66" cy="122.95" r="6.7"/><path class="cls-6" d="M91.66,130.65a7.71,7.71,0,1,1,7.7-7.7A7.7,7.7,0,0,1,91.66,130.65Zm0-13.41a5.71,5.71,0,1,0,5.7,5.71A5.71,5.71,0,0,0,91.66,117.24Z"/><circle class="cls-9" cx="110.14" cy="122.95" r="6.7"/><path class="cls-6" d="M110.14,130.65a7.71,7.71,0,1,1,7.7-7.7A7.71,7.71,0,0,1,110.14,130.65Zm0-13.41a5.71,5.71,0,1,0,5.7,5.71A5.71,5.71,0,0,0,110.14,117.24Z"/><path d="M151.9,247V212.63h10.71q6.82,0,10.17,2t3.35,6.63a11.84,11.84,0,0,1-.09,1.47,9.39,9.39,0,0,1-.42,1.66,6.79,6.79,0,0,1-.87,1.67,7,7,0,0,1-1.5,1.47,7.39,7.39,0,0,1-2.25,1.11,8.38,8.38,0,0,1,4.87,3,8.55,8.55,0,0,1,1.69,5.4,8.65,8.65,0,0,1-3.43,7.4Q170.7,247,164.62,247Zm6.35-20.16h5.44q6.3,0,6.3-4.8a3.85,3.85,0,0,0-1.81-3.7,12.4,12.4,0,0,0-5.78-1h-4.15Zm0,15.57h5.51q7.31,0,7.31-5.72a4.67,4.67,0,0,0-1.83-4.15q-1.83-1.27-5.65-1.27h-5.34Z"/><path d="M183.06,247V221.21h5.15l.8,3.94a8.15,8.15,0,0,1,7.34-4.06,12,12,0,0,1,1.64.1l-.1,5.13a13.52,13.52,0,0,0-1.94-.14,6.62,6.62,0,0,0-5.08,1.8,7.14,7.14,0,0,0-1.67,5v14Z"/><path d="M213,247.46a11.41,11.41,0,0,1-9-3.7,14.2,14.2,0,0,1-3.28-9.75q0-6.24,3.28-9.83t9.26-3.6q5.77,0,9,3.67t3.27,9.76q0,6.17-3.31,9.81T213,247.46Zm.17-4.66a5.32,5.32,0,0,0,4.69-2.28,14.34,14.34,0,0,0,0-13.05,6.07,6.07,0,0,0-9.44,0,11.41,11.41,0,0,0-1.58,6.55,11.23,11.23,0,0,0,1.59,6.49A5.41,5.41,0,0,0,213.21,242.8Z"/><path d="M235.84,247,228,221.21h6.26l5,18.89q.16-.54,2.67-9.21t2.83-9.68h6.31q.3,1,2.69,9.59l2.58,9.23,5.09-18.82h6.16L259.51,247h-6.12q-.3-1-2.85-10.2t-2.75-9.91q-.47,1.71-3,10.31t-2.92,9.8Z"/><path d="M279.7,247.44a18.37,18.37,0,0,1-9.12-1.95l.64-4.61a19.38,19.38,0,0,0,3.93,1.51,16.61,16.61,0,0,0,4.36.67,5.66,5.66,0,0,0,3.18-.77,2.56,2.56,0,0,0,1.16-2.23,2.46,2.46,0,0,0-1.07-2.11,19.68,19.68,0,0,0-4.06-1.93l-1.34-.49a13.66,13.66,0,0,1-5.13-3.08,6.51,6.51,0,0,1-1.57-4.61,6.28,6.28,0,0,1,2.54-5.39,11.76,11.76,0,0,1,7.09-1.87,19.29,19.29,0,0,1,8.65,1.85l-1.53,4.24a16.63,16.63,0,0,0-7-1.71,5.73,5.73,0,0,0-2.9.62,2.07,2.07,0,0,0-1,1.89,2.11,2.11,0,0,0,1,1.86,21.45,21.45,0,0,0,3.93,1.75,4.8,4.8,0,0,1,.61.21c.35.12.61.23.8.3a13.12,13.12,0,0,1,5.2,3.09,6.58,6.58,0,0,1,1.67,4.67,7.33,7.33,0,0,1-2.63,6C285.35,246.73,282.89,247.44,279.7,247.44Z"/><path d="M307,247.46q-6.22,0-9.67-3.57T293.82,234c0-4.1,1.09-7.35,3.26-9.78a11.37,11.37,0,0,1,8.88-3.65q5.32,0,8.26,3.33a12.85,12.85,0,0,1,2.94,8.83c0,.27,0,.7,0,1.29s0,1,0,1.31H300a8.08,8.08,0,0,0,2,5.59,6.83,6.83,0,0,0,5.19,2,16.22,16.22,0,0,0,8.11-2.2l.87,4.36A17.21,17.21,0,0,1,307,247.46Zm-6.82-16h11.25a7.27,7.27,0,0,0-1.43-4.83,4.92,4.92,0,0,0-4-1.69,5.42,5.42,0,0,0-4,1.64A7.41,7.41,0,0,0,300.13,231.48Z"/><path d="M322.66,247V221.21h5.16l.79,3.94a8.16,8.16,0,0,1,7.34-4.06,11.85,11.85,0,0,1,1.64.1l-.09,5.13a13.77,13.77,0,0,0-1.95-.14,6.58,6.58,0,0,0-5.07,1.8,7.1,7.1,0,0,0-1.68,5v14Z"/><path d="M224,813.83h34.34v10.71q0,6.83-2,10.17t-6.64,3.36a11.83,11.83,0,0,1-1.47-.1,7.69,7.69,0,0,1-1.65-.42,6.68,6.68,0,0,1-1.68-.87,6.75,6.75,0,0,1-1.46-1.5,7.41,7.41,0,0,1-1.12-2.25,8.39,8.39,0,0,1-3,4.88,9.61,9.61,0,0,1-12.81-1.75q-2.55-3.43-2.56-9.5Zm4.6,6.35v5.51q0,7.32,5.72,7.31a4.68,4.68,0,0,0,4.14-1.82c.85-1.22,1.27-3.11,1.27-5.65v-5.35Zm15.56,0v5.44c0,4.2,1.6,6.31,4.8,6.31a3.87,3.87,0,0,0,3.71-1.82,12.5,12.5,0,0,0,1-5.78v-4.15Z"/><path d="M224,845h25.76v5.16l-3.94.79a8.14,8.14,0,0,1,4.06,7.34,12.08,12.08,0,0,1-.09,1.64l-5.14-.09a12.43,12.43,0,0,0,.14-2,6.61,6.61,0,0,0-1.8-5.07,7.08,7.08,0,0,0-5-1.68H224Z"/><path d="M223.48,875a11.44,11.44,0,0,1,3.7-9,14.15,14.15,0,0,1,9.75-3.28q6.24,0,9.84,3.28t3.59,9.26q0,5.76-3.66,9t-9.77,3.27q-6.15,0-9.8-3.3T223.48,875Zm4.67.16a5.32,5.32,0,0,0,2.27,4.69,11.36,11.36,0,0,0,6.51,1.57q4.29,0,6.54-1.57a6.06,6.06,0,0,0,0-9.43c-1.51-1.06-3.69-1.58-6.55-1.58a11.23,11.23,0,0,0-6.49,1.59A5.39,5.39,0,0,0,228.15,875.14Z"/><path d="M224,897.77l25.76-7.8v6.26l-18.89,4.94,9.21,2.67q8.67,2.5,9.68,2.84V913c-.65.21-3.85,1.1-9.58,2.7s-8.82,2.45-9.24,2.58l18.82,5.08v6.17L224,921.44v-6.11c.68-.21,4.07-1.16,10.2-2.85l9.91-2.75q-1.71-.48-10.31-3t-9.8-2.92Z"/><path d="M223.51,941.64a18.38,18.38,0,0,1,1.94-9.12l4.62.63a18.7,18.7,0,0,0-1.51,3.94,16.15,16.15,0,0,0-.67,4.36,5.63,5.63,0,0,0,.76,3.17,2.56,2.56,0,0,0,2.24,1.16,2.47,2.47,0,0,0,2.11-1.06,20.51,20.51,0,0,0,1.92-4.07l.49-1.34a13.82,13.82,0,0,1,3.08-5.13,6.53,6.53,0,0,1,4.61-1.57,6.3,6.3,0,0,1,5.39,2.54,11.76,11.76,0,0,1,1.87,7.09,19.09,19.09,0,0,1-1.85,8.65l-4.24-1.52a16.64,16.64,0,0,0,1.71-7,5.69,5.69,0,0,0-.62-2.89,2,2,0,0,0-1.89-1.05,2.13,2.13,0,0,0-1.86,1,22.38,22.38,0,0,0-1.75,3.94,6.32,6.32,0,0,1-.21.61c-.12.34-.22.61-.3.8a13.3,13.3,0,0,1-3.08,5.2,6.62,6.62,0,0,1-4.68,1.66,7.32,7.32,0,0,1-6-2.62Q223.51,946.41,223.51,941.64Z"/><path d="M223.48,968.88q0-6.21,3.58-9.67t9.87-3.45q6.15,0,9.78,3.25a11.41,11.41,0,0,1,3.65,8.89c0,3.54-1.1,6.3-3.32,8.26a12.87,12.87,0,0,1-8.84,2.94h-2.6V961.94a8.17,8.17,0,0,0-5.59,2,6.83,6.83,0,0,0-2,5.19,16.19,16.19,0,0,0,2.2,8.11l-4.36.87A17.21,17.21,0,0,1,223.48,968.88Zm16-6.82v11.25a7.26,7.26,0,0,0,4.82-1.43,4.89,4.89,0,0,0,1.69-4,5.44,5.44,0,0,0-1.64-4A7.49,7.49,0,0,0,239.47,962.06Z"/><path d="M224,984.6h25.76v5.15l-3.94.8a8.13,8.13,0,0,1,4.06,7.33,12,12,0,0,1-.09,1.64l-5.14-.09a12.22,12.22,0,0,0,.14-1.94,6.62,6.62,0,0,0-1.8-5.08,7.08,7.08,0,0,0-5-1.67H224Z"/><path class="cls-4" d="M1347.76,845.86a21.7,21.7,0,0,1,2.86-11.13l5,1.55a22.71,22.71,0,0,0-2,4.79,18.13,18.13,0,0,0-.75,5,6.92,6.92,0,0,0,1.3,4.57,4.6,4.6,0,0,0,3.74,1.55q3.23,0,4.47-4.31l.51-1.71c.27-.94.54-1.82.79-2.64s.46-1.41.6-1.77q2.45-6.91,9.09-6.92a8.53,8.53,0,0,1,7.2,3.32,14.13,14.13,0,0,1,2.53,8.8,21.38,21.38,0,0,1-2.55,10.71L1376,855.8a21,21,0,0,0,2.06-8.53,7.5,7.5,0,0,0-1-4.28,3.93,3.93,0,0,0-3.31-1.53,3.6,3.6,0,0,0-3.73,2.83c-.14.38-.45,1.3-.91,2.77l-.92,2.86q-1.55,4.71-3.84,6.74a9.36,9.36,0,0,1-6.4,2,8.91,8.91,0,0,1-7.54-3.46C1348.64,852.9,1347.76,849.79,1347.76,845.86Z"/><path class="cls-4" d="M1347.73,875.42q0-6.21,3.58-9.67t9.88-3.46q6.13,0,9.77,3.26a11.41,11.41,0,0,1,3.66,8.88c0,3.55-1.11,6.3-3.33,8.27a12.87,12.87,0,0,1-8.84,2.94h-1.29l-1.31,0V868.48a8.08,8.08,0,0,0-5.59,2,6.83,6.83,0,0,0-2,5.19,16.19,16.19,0,0,0,2.2,8.11l-4.36.87A17.21,17.21,0,0,1,1347.73,875.42Zm16-6.82v11.25a7.31,7.31,0,0,0,4.83-1.43,4.93,4.93,0,0,0,1.68-4,5.4,5.4,0,0,0-1.64-4A7.44,7.44,0,0,0,1363.72,868.6Z"/><path class="cls-4" d="M1348.23,890.65H1374v5.16l-3.93.8a8.13,8.13,0,0,1,4,7.33,12.08,12.08,0,0,1-.09,1.64l-5.14-.09a12.35,12.35,0,0,0,.14-2,6.61,6.61,0,0,0-1.8-5.07,7.07,7.07,0,0,0-5-1.68h-14Z"/><path class="cls-4" d="M1348.23,916.55,1374,906.29v6.51l-6.55,2.38c-3.66,1.34-6.16,2.22-7.49,2.66q-3.89,1.33-5.88,1.92l1.53.4,2.82.76c.88.24,1.42.4,1.6.46l6.47,2.14q6.42,2.13,7.5,2.52v6.47l-25.75-9.75Z"/><path class="cls-4" d="M1347.73,947.44q0-6.21,3.58-9.67t9.88-3.45q6.13,0,9.77,3.25a11.45,11.45,0,0,1,3.66,8.89c0,3.54-1.11,6.3-3.33,8.26a12.87,12.87,0,0,1-8.84,2.94h-2.6V940.5a8.17,8.17,0,0,0-5.59,2,6.84,6.84,0,0,0-2,5.2,16.24,16.24,0,0,0,2.2,8.11l-4.36.86A17.21,17.21,0,0,1,1347.73,947.44Zm16-6.82v11.25a7.31,7.31,0,0,0,4.83-1.43,4.91,4.91,0,0,0,1.68-4,5.4,5.4,0,0,0-1.64-4A7.49,7.49,0,0,0,1363.72,940.62Z"/><path class="cls-4" d="M1348.23,962.68H1374v5.15l-3.93.8a8.14,8.14,0,0,1,4,7.34,12.18,12.18,0,0,1-.09,1.64l-5.14-.1a12.22,12.22,0,0,0,.14-1.94,6.62,6.62,0,0,0-1.8-5.08,7.11,7.11,0,0,0-5-1.67h-14Z"/><path class="cls-8" d="M409,474.86q-54,0-110.56-1.74a4,4,0,1,1,.25-8c259.5,8.19,476.86-14.42,651.51-32.59,118-12.28,220-22.88,302.68-20.46a4,4,0,0,1-.23,8c-82.21-2.41-183.88,8.17-301.62,20.42C801.53,456.05,620.76,474.86,409,474.86Z"/><polygon class="cls-8" points="1243.1 443.76 1292.88 418.45 1246.08 387.99 1243.1 443.76"/><path class="cls-8" d="M470.59,1130.94q-82.63,0-172.15-2.71a4,4,0,0,1,.12-8h.13c285.06,9,516.56-6.39,702.58-18.76,97.12-6.46,181-12,251.4-12.59h0a4,4,0,0,1,0,8c-70.16.55-153.93,6.12-250.93,12.57C854.57,1119.25,678.82,1130.94,470.59,1130.94Z"/><polygon class="cls-8" points="1244.43 1120.93 1292.88 1093.18 1244.62 1065.09 1244.43 1120.93"/><path class="cls-8" d="M1061.41,763.35c-144.57,0-272.88-3.9-383.27-7.24-133.34-4.05-248.48-7.54-339.28-2.52a4,4,0,0,1-.44-8c91.14-5,206.45-1.54,340,2.51,166.12,5,372.86,11.31,614.37,3.68a4,4,0,1,1,.26,8C1211.81,762.35,1134.52,763.35,1061.41,763.35Z"/><polygon class="cls-8" points="344.9 721.36 298.56 752.52 348.71 777.08 344.9 721.36"/><path class="cls-8" d="M1061.41,1442.76c-144.57,0-272.88-3.9-383.27-7.24-133.34-4-248.48-7.54-339.28-2.52a4,4,0,1,1-.44-8c91.14-5,206.45-1.55,340,2.5,166.12,5,372.86,11.31,614.37,3.68a4,4,0,1,1,.26,8C1211.81,1441.76,1134.52,1442.76,1061.41,1442.76Z"/><polygon class="cls-8" points="344.9 1400.77 298.56 1431.93 348.71 1456.48 344.9 1400.77"/><path class="cls-8" d="M1406.06,728.59a4,4,0,0,1-2.19-7.35c39.16-25.62,57.73-57.89,66.41-80.45,9.44-24.53,9.59-43.25,9.59-43.44,0-32.64-5.58-62.15-16.59-87.68a165.34,165.34,0,0,0-36.39-53.28c-26.24-25.58-52.88-33.84-53.15-33.92a4,4,0,1,1,2.3-7.66c1.15.34,28.5,8.76,56.13,35.55a173.3,173.3,0,0,1,38.34,55.88c11.52,26.6,17.36,57.26,17.36,91.12,0,.81-.11,20.11-10,45.95-9.09,23.77-28.54,57.74-69.63,84.63A4,4,0,0,1,1406.06,728.59Z"/><polygon class="cls-8" points="1399.49 695.64 1370.53 743.38 1426.36 744.59 1399.49 695.64"/><path class="cls-8" d="M1406.06,1395.52a4,4,0,0,1-2.19-7.35c39.16-25.62,57.73-57.89,66.41-80.45,9.44-24.53,9.59-43.25,9.59-43.44,0-32.75-5.62-62.34-16.7-87.94a165.11,165.11,0,0,0-36.57-53.3c-26.24-25.46-52.59-33.56-52.86-33.64a4,4,0,0,1,2.3-7.67c1.15.35,28.5,8.77,56.13,35.56a173.19,173.19,0,0,1,38.34,55.88c11.52,26.6,17.36,57.26,17.36,91.11,0,.81-.11,20.12-10,46-9.09,23.77-28.54,57.74-69.63,84.62A4,4,0,0,1,1406.06,1395.52Z"/><polygon class="cls-8" points="1399.49 1362.57 1370.53 1410.31 1426.36 1411.52 1399.49 1362.57"/><circle class="cls-10" cx="1758.39" cy="460.15" r="47.21"/><path class="cls-11" d="M1758.39,509.35a49.21,49.21,0,1,1,49.2-49.2A49.26,49.26,0,0,1,1758.39,509.35Zm0-94.41a45.21,45.21,0,1,0,45.2,45.21A45.26,45.26,0,0,0,1758.39,414.94Z"/><path class="cls-4" d="M1745.28,480.74l-.18-6.33,13.57-15.35a22.4,22.4,0,0,0,3.67-5,10.42,10.42,0,0,0,1.16-4.79,5.7,5.7,0,0,0-1.82-4.43,6.78,6.78,0,0,0-4.77-1.66,15.08,15.08,0,0,0-5.38,1,13.61,13.61,0,0,0-4.35,2.54L1745,441q4.39-3.85,12.37-3.86,6.33,0,10.18,3.18t3.85,9a15.28,15.28,0,0,1-2.18,7.82,41.41,41.41,0,0,1-6,7.64L1753.57,475h17.31l-.52,5.77Z"/><circle class="cls-10" cx="1758.39" cy="1047.08" r="47.21"/><path class="cls-11" d="M1758.39,1096.29a49.21,49.21,0,1,1,49.2-49.21A49.27,49.27,0,0,1,1758.39,1096.29Zm0-94.42a45.21,45.21,0,1,0,45.2,45.21A45.26,45.26,0,0,0,1758.39,1001.87Z"/><path class="cls-4" d="M1758.17,1068.29a20.3,20.3,0,0,1-6-1,28.11,28.11,0,0,1-4.69-1.82,13.86,13.86,0,0,1-2.14-1.33l2.35-5.51a18.74,18.74,0,0,0,1.62,1.1,20.21,20.21,0,0,0,3.46,1.51,13.82,13.82,0,0,0,4.59.85,8.06,8.06,0,0,0,6.21-2.29,8.5,8.5,0,0,0,2.11-6,8,8,0,0,0-1.92-5.59,6.4,6.4,0,0,0-5-2.11,8.59,8.59,0,0,0-6.5,3.16l-5.13-1,1.11-23.38h23.32l-.43,6h-16.09c0,.35-.06,2.12-.19,5.29s-.2,5-.22,5.32a11.34,11.34,0,0,1,5.42-1.38,12.56,12.56,0,0,1,9.54,3.81,13.84,13.84,0,0,1,3.62,9.93,14,14,0,0,1-4,10.42Q1765.32,1068.28,1758.17,1068.29Z"/><circle class="cls-10" cx="797.74" cy="1276.74" r="47.21"/><path class="cls-11" d="M797.74,1325.94a49.21,49.21,0,1,1,49.21-49.2A49.25,49.25,0,0,1,797.74,1325.94Zm0-94.41A45.21,45.21,0,1,0,843,1276.74,45.26,45.26,0,0,0,797.74,1231.53Z"/><path class="cls-4" d="M797.66,1297.94q-7.14,0-11.63-3.89a13,13,0,0,1-4.48-10.29,16.76,16.76,0,0,1,.44-3.92,16.11,16.11,0,0,1,1.35-3.67,32.89,32.89,0,0,1,1.81-3.16c.61-.92,1.39-2,2.35-3.28l12.18-15.38h9.08l-13.3,16.79a11.5,11.5,0,0,1,3.58-.74,14.45,14.45,0,0,1,10.31,3.77,13.92,13.92,0,0,1-.38,19.92A16.52,16.52,0,0,1,797.66,1297.94Zm-.35-5.86a8.1,8.1,0,0,0,6.05-2.21,7.92,7.92,0,0,0,2.18-5.81,8.37,8.37,0,0,0-2-6q-2.06-2.17-6.09-2.18t-6,2.2a8.76,8.76,0,0,0-1.93,6,8.1,8.1,0,0,0,2.05,5.79A7.63,7.63,0,0,0,797.31,1292.08Z"/><circle class="cls-10" cx="797.74" cy="589.01" r="47.21"/><path class="cls-11" d="M797.74,638.22A49.21,49.21,0,1,1,847,589,49.26,49.26,0,0,1,797.74,638.22Zm0-94.42A45.21,45.21,0,1,0,843,589,45.26,45.26,0,0,0,797.74,543.8Z"/><path class="cls-4" d="M795.6,611.22a24.71,24.71,0,0,1-7.1-1,13.87,13.87,0,0,1-5.26-2.65l2.11-5.53a12.83,12.83,0,0,0,4.45,2.21,20.17,20.17,0,0,0,5.83.86,7.94,7.94,0,0,0,5.44-1.81,6,6,0,0,0,2.06-4.75,7.81,7.81,0,0,0-.57-3.13,5.5,5.5,0,0,0-1.51-2.11,7,7,0,0,0-2.5-1.28,17.59,17.59,0,0,0-3.21-.66c-1.1-.11-2.41-.18-4-.2l-.85,0h-.85v-5.92h1.64a32.22,32.22,0,0,0,4.38-.26,14.25,14.25,0,0,0,3.4-.91,5,5,0,0,0,2.38-1.91,5.69,5.69,0,0,0,.8-3.1,5.61,5.61,0,0,0-1.87-4.25,7.43,7.43,0,0,0-5.28-1.76,17.78,17.78,0,0,0-9.81,2.76l-2.11-5.57A23.63,23.63,0,0,1,795.87,567a15.13,15.13,0,0,1,10,3.22,10.25,10.25,0,0,1,3.88,8.26,9.89,9.89,0,0,1-1.8,6,10.21,10.21,0,0,1-5.23,3.62,9.36,9.36,0,0,1,6.08,3.78,11.91,11.91,0,0,1,2.15,7.12,11,11,0,0,1-2.08,6.72,12.2,12.2,0,0,1-5.5,4.19A20.9,20.9,0,0,1,795.6,611.22Z"/><circle class="cls-10" cx="797.74" cy="892.2" r="47.21"/><path class="cls-11" d="M797.74,941.41A49.21,49.21,0,1,1,847,892.2,49.26,49.26,0,0,1,797.74,941.41Zm0-94.42A45.21,45.21,0,1,0,843,892.2,45.26,45.26,0,0,0,797.74,847Z"/><path class="cls-4" d="M799.7,912.79v-9.52H780.34v-5.22l17.37-28h9.76v27.39h5.27l-.38,5.8h-4.89v9.52ZM788,897.5H799.7V877.58Z"/><circle class="cls-10" cx="797.74" cy="280.27" r="47.21"/><path class="cls-11" d="M797.74,329.47A49.21,49.21,0,1,1,847,280.27,49.25,49.25,0,0,1,797.74,329.47Zm0-94.41A45.21,45.21,0,1,0,843,280.27,45.26,45.26,0,0,0,797.74,235.06Z"/><path class="cls-4" d="M794.77,300.83V265.12c-.27.17-1.54.73-3.8,1.68s-3.53,1.46-3.82,1.54v-5.86q.71-.32,4.45-2.21t4.14-2.16h6.44v42.72Z"/></g></svg>