<svg height="175" viewBox="0 0 500 175" width="500" xmlns="http://www.w3.org/2000/svg"><g fill="none" fill-rule="evenodd" transform="translate(40.25974 22.077922)"><g fill="#000" fill-rule="nonzero"><path d="m31.9155844 105.038961c.5281412.138529.937228.398267 1.2272727.779221.2900448.380954.435065.85714.435065 1.428571 0 .805195-.2640666 1.422076-.7922078 1.85065-.5281412.428573-1.2770514.642857-2.2467533.642857h-3.8181818v-9.155844h3.6753247c.9437277 0 1.6753221.20779 2.1948052.623376.5194831.415587.7792208 1.004325.7792208 1.766234 0 .493509-.1277044.917747-.3831169 1.272727s-.6125518.619047-1.0714286.792208zm-4.1428571-.38961h2.4675324c.6839861 0 1.201297-.138527 1.5519481-.415585.3506511-.277057.525974-.679651.525974-1.207792 0-1.038966-.6926337-1.558442-2.0779221-1.558442h-2.4675324zm2.6623376 4.207792c.7186183 0 1.2489161-.132033 1.5909091-.396104.3419931-.264071.512987-.677486.512987-1.24026 0-1.125547-.7012916-1.688311-2.1038961-1.688311h-2.6623376v3.324675zm7.4545455-5.597403c.8051988 0 1.4047599.205626 1.7987013.616883.3939414.411258.5909091 1.036793.5909091 1.876624v3.987013h-1.025974v-1.077922c-.164503.372296-.4155828.660172-.7532468.863636s-.7272705.305195-1.1688312.305195c-.4069284 0-.7813835-.08225-1.1233766-.246753-.341993-.164503-.6125531-.393938-.8116883-.688312s-.2987013-.619046-.2987013-.974026c0-.476193.1212109-.846319.3636364-1.11039.2424254-.26407.6406898-.454545 1.1948052-.571428.507939-.107144 1.1977476-.165179 2.0694434-.174107l.5279592-.001218v-.428571c0-.528142-.1082241-.911255-.3246754-1.149351s-.5670971-.357143-1.051948-.357143c-.7272764 0-1.4502129.225106-2.1688312.675325l-.3506493-.766234c.3290059-.233767.7251059-.422077 1.1883116-.564935.4632058-.142858.9112533-.214286 1.3441559-.214286zm-.4155844 5.74026c.5194831 0 .9458858-.175323 1.2792208-.525974s.5-.803028.5-1.357143v-.376623h-.2337663c-.7619086 0-1.3419893.032467-1.7402597.097402-.3982704.064936-.6818174.17316-.8506494.324676s-.2532467.374457-.2532467.668831c0 .337664.1233754.616882.3701298.837662.2467545.22078.5562752.331169.9285715.331169zm7.4025974.831169c-.6233798 0-1.1644999-.134198-1.6233766-.402598-.4588768-.268399-.8116871-.647183-1.0584416-1.136363s-.3701299-1.062767-.3701299-1.720779.1277044-1.235929.3831169-1.733767.6147163-.88528 1.0779221-1.162337c.4632058-.277058 1.0064904-.415585 1.6298701-.415585.4242446 0 .8398248.075757 1.2467533.227273.4069284.151516.7359294.352813.9870129.603896l-.3506493.779221c-.5974056-.484851-1.2034601-.727273-1.8181818-.727273-.6493539 0-1.1558442.212119-1.5194805.636364-.3636382.424244-.5454546 1.021641-.5454546 1.792208 0 .761908.1818164 1.350647.5454546 1.766233.3636363.415587.8701266.623377 1.5194805.623377.6147217 0 1.2207762-.242422 1.8181818-.727273l.3506493.779221c-.2683996.251084-.6060585.450216-1.012987.597403-.4069284.147186-.8268376.220779-1.2597402.220779zm9.1818182-.090909h-1.3636364l-3.2207792-3.025974v3.025974h-1.0519481v-9.155844h1.0519481v5.701298l2.9480519-2.857143h1.3376624l-3.1428572 3.025974zm4.3636363-9.155844h3.6233766c.9610438 0 1.7077896.233763 2.2402598.701298s.7987013 1.129866.7987013 1.987013-.2683956 1.523807-.8051948 2-1.2813805.714286-2.2337663.714286h-2.5584415v3.753247h-1.0649351zm3.5194805 4.51948c1.3939464 0 2.0909091-.610383 2.0909091-1.831169 0-1.203469-.6969627-1.805195-2.0909091-1.805195h-2.4545454v3.636364zm7.2727273-1.844156c.8051988 0 1.4047599.205626 1.7987013.616883.3939414.411258.5909091 1.036793.5909091 1.876624v3.987013h-1.025974v-1.077922c-.164503.372296-.4155827.660172-.7532468.863636-.337664.203464-.7272705.305195-1.1688311.305195-.4069285 0-.7813836-.08225-1.1233767-.246753-.341993-.164503-.6125531-.393938-.8116883-.688312s-.2987013-.619046-.2987013-.974026c0-.476193.1212109-.846319.3636364-1.11039.2424254-.26407.6406899-.454545 1.1948052-.571428.507939-.107144 1.1977476-.165179 2.0694434-.174107l.5279592-.001218v-.428571c0-.528142-.108224-.911255-.3246753-1.149351s-.5670972-.357143-1.0519481-.357143c-.7272764 0-1.4502129.225106-2.1688312.675325l-.3506493-.766234c.329006-.233767.7251059-.422077 1.1883117-.564935.4632057-.142858.9112532-.214286 1.3441558-.214286zm-.4155844 5.74026c.5194831 0 .9458858-.175323 1.2792208-.525974s.5-.803028.5-1.357143v-.376623h-.2337663c-.7619085 0-1.3419893.032467-1.7402597.097402-.3982704.064936-.6818173.17316-.8506493.324676-.1688321.151516-.2532468.374457-.2532468.668831 0 .337664.1233754.616882.3701299.837662s.5562752.331169.9285714.331169zm10.3896104-5.584416v5.896104c0 .943728-.2424218 1.655842-.7272727 2.136364s-1.2034585.720779-2.1558442.720779c-1.1082306 0-2.0389573-.285711-2.7922078-.857143l.3506494-.77922c.4242445.277057.8225089.476189 1.1948052.597402.3722962.121213.7878765.181818 1.2467532.181818.6060636 0 1.0649351-.162336 1.3766234-.487013.3116899-.324677.4675324-.798698.4675324-1.422078v-1.116883c-.181819.406929-.461037.718614-.8376623.935065-.3766252.216452-.8203438.324676-1.3311688.324676-.5541153 0-1.0454524-.129869-1.474026-.389611-.4285736-.259741-.7619036-.627703-1-1.103896s-.3571429-1.025971-.3571429-1.649351c0-.623379.1190465-1.173157.3571429-1.64935s.5714264-.844156 1-1.103896c.4285736-.259742.9199107-.389611 1.474026-.389611.502167 0 .9393921.108224 1.3116883.324676.3722962.216451.6536787.523807.8441558.922078v-1.09091zm-3 5.259741c.6060636 0 1.0822493-.201297 1.4285714-.603896.3463221-.4026.5194805-.958871.5194805-1.668832 0-.701302-.1709939-1.253244-.512987-1.655844-.341993-.402599-.8203432-.603896-1.4350649-.603896s-1.0974009.201297-1.448052.603896c-.3506511.4026-.525974.954542-.525974 1.655844 0 .709961.1753229 1.266232.525974 1.668832.3506511.402599.8333303.603896 1.448052.603896zm10.2467532-1.935065h-4.6233766c.0346322.735934.2337644 1.292206.5974026 1.668831s.8787846.564935 1.5454546.564935c.7359344 0 1.4112523-.25108 2.025974-.753247l.3506493.766234c-.2770576.259742-.6320324.465367-1.064935.616883s-.8744567.227273-1.3246754.227273c-.9870179 0-1.7640664-.290041-2.3311688-.87013-.5671024-.58009-.8506493-1.380947-.8506493-2.402597 0-.649354.1255398-1.222942.3766233-1.72078s.6038939-.88528 1.0584416-1.162337c.4545477-.277058.9718586-.415585 1.551948-.415585.8398311 0 1.4978332.274889 1.974026.824676.4761929.549786.7142857 1.30519.7142857 2.266233zm-2.6753246-2.662338c-.5541154 0-.9978339.173159-1.3311689.519481s-.5303027.835494-.5909091 1.467532h3.6753247c-.0173161-.640696-.1774876-1.132033-.4805195-1.474026-.3030318-.341993-.72727-.512987-1.2727272-.512987zm6.3636363 5.753247c-1.0649404 0-1.9090878-.272725-2.5324675-.818182l.3506493-.779221c.3376641.2684.6818165.461039 1.0324676.577922.3506511.116884.746751.175325 1.1883117.175325.4675348 0 .8246741-.080086 1.0714285-.24026.2467545-.160174.3701299-.391773.3701299-.694805 0-.251083-.0822503-.450216-.2467532-.597403-.164503-.147186-.4372276-.264068-.8181819-.350649l-1.064935-.246753c-.5367992-.121213-.9480505-.329003-1.2337663-.623377-.2857157-.294374-.4285714-.658006-.4285714-1.090909 0-.562773.220777-1.017314.6623377-1.363636.4415606-.346322 1.0302993-.519481 1.7662337-.519481.4415607 0 .8614699.071428 1.2597403.214286s.7316004.348483 1 .616883l-.3506494.766234c-.5800894-.493509-1.2164467-.74026-1.9090909-.74026-.4415606 0-.785713.084415-1.0324675.253247s-.3701299.40476-.3701299.707792c0 .251084.0757569.45238.2272728.603896s.3961022.266234.7337662.344156l1.0779221.25974c.5887475.138529 1.0259726.348484 1.3116883.62987.2857157.281387.4285714.647184.4285714 1.097403 0 .554115-.2229415.995669-.6688312 1.324675-.4458896.329006-1.0541087.493507-1.8246753.493507zm-42.6818182 17.545454c-1.4285714 0-2.5714242-.385277-3.4285714-1.155844l.4155844-.818182c.4502187.380955.9112531.653679 1.3831169.818182s1.0194774.246753 1.6428572.246753c.7359344 0 1.3030283-.142855 1.7012987-.428571.3982703-.285716.5974026-.688309.5974026-1.207792 0-.303032-.0952372-.549783-.2857143-.74026-.1904772-.190477-.4415569-.341991-.7532468-.454545-.2727286-.098486-.6283127-.200284-1.0667607-.305398l-.1929795-.045252c-.7099603-.164503-1.2922056-.337661-1.7467533-.51948s-.8225094-.441557-1.1038961-.779221-.4220779-.779218-.4220779-1.324675c0-.519483.1363623-.980518.4090909-1.383117.2727286-.4026.6623351-.714285 1.1688312-.935065.506496-.22078 1.0930702-.331169 1.7597402-.331169.6320378 0 1.222941.099566 1.7727273.298701.5497863.199136 1.0151496.484847 1.3961039.857143l-.4025974.818182c-.4329026-.372296-.8722922-.642856-1.3181818-.811688-.4458897-.168832-.9285689-.253247-1.448052-.253247-.7099602 0-1.2662317.149349-1.6688311.448052-.4025995.298703-.6038962.716447-.6038962 1.253247 0 .458876.1774874.805193.5324676 1.038961.3194821.21039.7862312.392726 1.4002589.547012l.2101307.05039c.7878827.190477 1.4069241.3658 1.8571428.525974s.8246739.400432 1.1233767.72078c.2987028.320347.4480519.748915.4480519 1.285714 0 .519483-.1363623.974024-.4090909 1.363636s-.6644996.690475-1.1753247.902598c-.510825.212122-1.1082217.318181-1.7922078.318181zm7.7272728-.857142c.1904771 0 .3809514-.012987.5714285-.038962l-.051948.831169c-.1991352.034633-.4155833.051948-.6493507.051948-.7619085 0-1.3354959-.199132-1.7207792-.597402-.3852833-.398271-.5779221-.952378-.5779221-1.662338v-3.324675h-1.2337662v-.831169h1.2337662v-1.922078h1.0519481v1.922078h1.7922078v.831169h-1.7922078v3.246753c0 .995676.4588699 1.493507 1.3766234 1.493507zm4.2077922-5.727273c.8051988 0 1.4047599.205625 1.7987013.616883.3939413.411257.5909091 1.036792.5909091 1.876623v3.987013h-1.0259741v-1.077922c-.1645029.372296-.4155827.660172-.7532467.863637-.337664.203464-.7272705.305194-1.1688312.305194-.4069284 0-.7813836-.08225-1.1233766-.246753-.3419931-.164503-.6125531-.393938-.8116883-.688312-.1991352-.294373-.2987013-.619045-.2987013-.974026 0-.476192.1212109-.846319.3636363-1.110389.2424255-.264071.6406899-.454545 1.1948052-.571429.5079391-.107143 1.1977476-.165178 2.0694435-.174107l.5279591-.001217v-.428572c0-.528141-.108224-.911254-.3246753-1.14935-.2164513-.238097-.5670971-.357143-1.051948-.357143-.7272764 0-1.4502129.225106-2.1688312.675324l-.3506494-.766233c.329006-.233768.725106-.422078 1.1883117-.564935.4632058-.142858.9112533-.214286 1.3441559-.214286zm-.4155844 5.74026c.5194831 0 .9458857-.175323 1.2792207-.525974.333335-.350652.5-.803028.5-1.357143v-.376624h-.2337662c-.7619086 0-1.3419893.032467-1.7402597.097403-.3982704.064935-.6818174.173159-.8506494.324675s-.2532467.374458-.2532467.668831c0 .337664.1233754.616882.3701298.837663.2467545.22078.5562752.331169.9285715.331169zm7.4025974.831168c-.6233798 0-1.1644999-.134197-1.6233767-.402597-.4588767-.2684-.811687-.647184-1.0584415-1.136364s-.3701299-1.062767-.3701299-1.720779.1277044-1.235928.3831169-1.733766.6147163-.88528 1.0779221-1.162338c.4632058-.277057 1.0064904-.415584 1.6298701-.415584.4242445 0 .8398248.075757 1.2467532.227273.4069285.151515.7359295.352812.987013.603896l-.3506493.77922c-.5974056-.484851-1.2034601-.727272-1.8181818-.727272-.6493539 0-1.1558442.212119-1.5194806.636363-.3636381.424245-.5454545 1.021641-.5454545 1.792208 0 .761909.1818164 1.350647.5454545 1.766234.3636364.415586.8701267.623376 1.5194806.623376.6147217 0 1.2207762-.242421 1.8181818-.727272l.3506493.779221c-.2683996.251083-.6060585.450215-1.012987.597402-.4069284.147187-.8268376.220779-1.2597402.220779zm9.1818181-.090909h-1.3636363l-3.2207792-3.025974v3.025974h-1.0519481v-9.155844h1.0519481v5.701299l2.9480519-2.857143h1.3376623l-3.1428571 3.025974z"/><path d="m334.090909 100.584416h1v9.155844h-.818182l-5.51948-7.363637v7.363637h-1v-9.155844h.818182l5.51948 7.363636zm8.402597 6.155844h-4.623376c.034632.735934.233764 1.292206.597402 1.668831.363639.376625.878785.564935 1.545455.564935.735934 0 1.411252-.25108 2.025974-.753247l.350649.766234c-.277057.259742-.632032.465367-1.064935.616883-.432902.151516-.874456.227273-1.324675.227273-.987018 0-1.764066-.290041-2.331169-.87013-.567102-.58009-.850649-1.380947-.850649-2.402597 0-.649354.12554-1.222942.376623-1.72078.251084-.497838.603894-.88528 1.058442-1.162337.454547-.277058.971858-.415585 1.551948-.415585.839831 0 1.497833.274889 1.974026.824676.476193.549786.714285 1.30519.714285 2.266233zm-2.675324-2.662338c-.554116 0-.997834.173159-1.331169.519481s-.530303.835494-.590909 1.467532h3.675325c-.017317-.640696-.177488-1.132033-.48052-1.474026s-.72727-.512987-1.272727-.512987zm7.233766 2.402597 2.623377 3.259741h-1.272728l-1.974026-2.467533-1.961039 2.467533h-1.285714l2.623377-3.259741-2.467533-3.064935h1.272728l1.818181 2.298702 1.818182-2.298702h1.285715zm6.493507 2.506494c.190477 0 .380951-.012987.571428-.038961l-.051948.831169c-.199135.034632-.415583.051948-.649351.051948-.761908 0-1.335495-.199132-1.720779-.597403-.385283-.39827-.577922-.952377-.577922-1.662337v-3.324676h-1.233766v-.831169h1.233766v-1.922078h1.051948v1.922078h1.792208v.831169h-1.792208v3.246753c0 .995676.45887 1.493507 1.376624 1.493507zm5.142857-8.402597h3.623376c.961044 0 1.70779.233763 2.24026.701298s.798701 1.129866.798701 1.987013-.268395 1.523807-.805194 2c-.5368.476193-1.281381.714286-2.233767.714286h-2.558441v3.753247h-1.064935zm3.51948 4.51948c1.393947 0 2.090909-.610383 2.090909-1.831169 0-1.203469-.696962-1.805195-2.090909-1.805195h-2.454545v3.636364zm7.272727-1.844156c.805199 0 1.40476.205626 1.798702.616883.393941.411258.590909 1.036793.590909 1.876624v3.987013h-1.025974v-1.077922c-.164503.372296-.415583.660172-.753247.863636s-.72727.305195-1.168831.305195c-.406929 0-.781384-.08225-1.123377-.246753s-.612553-.393938-.811688-.688312-.298701-.619046-.298701-.974026c0-.476193.121211-.846319.363636-1.11039.242426-.26407.64069-.454545 1.194805-.571428.507939-.107144 1.197748-.165179 2.069444-.174107l.527959-.001218v-.428571c0-.528142-.108224-.911255-.324675-1.149351-.216452-.238096-.567098-.357143-1.051949-.357143-.727276 0-1.450212.225106-2.168831.675325l-.350649-.766234c.329006-.233767.725106-.422077 1.188312-.564935.463205-.142858.911253-.214286 1.344155-.214286zm-.415584 5.74026c.519483 0 .945886-.175323 1.279221-.525974s.5-.803028.5-1.357143v-.376623h-.233766c-.761909 0-1.34199.032467-1.74026.097402-.398271.064936-.681817.17316-.850649.324676s-.253247.374457-.253247.668831c0 .337664.123375.616882.37013.837662.246754.22078.556275.331169.928571.331169zm10.38961-5.584416v5.896104c0 .943728-.242421 1.655842-.727272 2.136364s-1.203459.720779-2.155844.720779c-1.108231 0-2.038958-.285711-2.792208-.857143l.350649-.77922c.424245.277057.822509.476189 1.194805.597402.372297.121213.787877.181818 1.246754.181818.606063 0 1.064935-.162336 1.376623-.487013.31169-.324677.467532-.798698.467532-1.422078v-1.116883c-.181819.406929-.461037.718614-.837662.935065-.376625.216452-.820344.324676-1.331169.324676-.554115 0-1.045452-.129869-1.474026-.389611-.428573-.259741-.761903-.627703-1-1.103896-.238096-.476193-.357143-1.025971-.357143-1.649351 0-.623379.119047-1.173157.357143-1.64935.238097-.476193.571427-.844156 1-1.103896.428574-.259742.919911-.389611 1.474026-.389611.502167 0 .939392.108224 1.311689.324676.372296.216451.653678.523807.844155.922078v-1.09091zm-3 5.259741c.606064 0 1.08225-.201297 1.428572-.603896.346322-.4026.51948-.958871.51948-1.668832 0-.701302-.170994-1.253244-.512987-1.655844-.341993-.402599-.820343-.603896-1.435065-.603896-.614721 0-1.0974.201297-1.448051.603896-.350652.4026-.525975.954542-.525975 1.655844 0 .709961.175323 1.266232.525975 1.668832.350651.402599.83333.603896 1.448051.603896zm10.246754-1.935065h-4.623377c.034632.735934.233764 1.292206.597403 1.668831.363638.376625.878784.564935 1.545454.564935.735935 0 1.411253-.25108 2.025974-.753247l.35065.766234c-.277058.259742-.632033.465367-1.064935.616883-.432903.151516-.874457.227273-1.324676.227273-.987018 0-1.764066-.290041-2.331169-.87013-.567102-.58009-.850649-1.380947-.850649-2.402597 0-.649354.12554-1.222942.376623-1.72078.251084-.497838.603894-.88528 1.058442-1.162337.454548-.277058.971859-.415585 1.551948-.415585.839831 0 1.497833.274889 1.974026.824676.476193.549786.714286 1.30519.714286 2.266233zm-2.675325-2.662338c-.554115 0-.997834.173159-1.331169.519481s-.530303.835494-.590909 1.467532h3.675325c-.017316-.640696-.177488-1.132033-.48052-1.474026s-.72727-.512987-1.272727-.512987zm6.363636 5.753247c-1.06494 0-1.909087-.272725-2.532467-.818182l.350649-.779221c.337664.2684.681817.461039 1.032468.577922.350651.116884.746751.175325 1.188311.175325.467535 0 .824675-.080086 1.071429-.24026s.37013-.391773.37013-.694805c0-.251083-.08225-.450216-.246753-.597403-.164503-.147186-.437228-.264068-.818182-.350649l-1.064935-.246753c-.536799-.121213-.948051-.329003-1.233766-.623377-.285716-.294374-.428572-.658006-.428572-1.090909 0-.562773.220777-1.017314.662338-1.363636.44156-.346322 1.030299-.519481 1.766234-.519481.44156 0 .861469.071428 1.25974.214286.39827.142858.7316.348483 1 .616883l-.35065.766234c-.580089-.493509-1.216446-.74026-1.90909-.74026-.441561 0-.785714.084415-1.032468.253247-.246755.168832-.37013.40476-.37013.707792 0 .251084.075757.45238.227273.603896s.396102.266234.733766.344156l1.077922.25974c.588748.138529 1.025973.348484 1.311688.62987.285716.281387.428572.647184.428572 1.097403 0 .554115-.222942.995669-.668831 1.324675-.44589.329006-1.054109.493507-1.824676.493507zm-42.298701 17.545454c-1.428571 0-2.571424-.385277-3.428571-1.155844l.415584-.818182c.450219.380955.911253.653679 1.383117.818182s1.019477.246753 1.642857.246753c.735935 0 1.303028-.142855 1.701299-.428571.39827-.285716.597402-.688309.597402-1.207792 0-.303032-.095237-.549783-.285714-.74026s-.441557-.341991-.753247-.454545c-.272728-.098486-.628312-.200284-1.06676-.305398l-.19298-.045252c-.70996-.164503-1.292205-.337661-1.746753-.51948s-.82251-.441557-1.103896-.779221c-.281387-.337664-.422078-.779218-.422078-1.324675 0-.519483.136362-.980518.409091-1.383117.272728-.4026.662335-.714285 1.168831-.935065s1.09307-.331169 1.75974-.331169c.632038 0 1.222941.099566 1.772727.298701.549787.199136 1.01515.484847 1.396104.857143l-.402597.818182c-.432903-.372296-.872292-.642856-1.318182-.811688s-.928569-.253247-1.448052-.253247c-.70996 0-1.266232.149349-1.668831.448052s-.603896.716447-.603896 1.253247c0 .458876.177487.805193.532467 1.038961.319483.21039.786232.392726 1.400259.547012l.210131.05039c.787883.190477 1.406924.3658 1.857143.525974s.824674.400432 1.123377.72078c.298702.320347.448051.748915.448051 1.285714 0 .519483-.136362.974024-.40909 1.363636-.272729.389612-.6645.690475-1.175325.902598-.510825.212122-1.108222.318181-1.792208.318181zm7.727273-.857142c.190477 0 .380951-.012987.571428-.038962l-.051948.831169c-.199135.034633-.415583.051948-.64935.051948-.761909 0-1.335496-.199132-1.72078-.597402-.385283-.398271-.577922-.952378-.577922-1.662338v-3.324675h-1.233766v-.831169h1.233766v-1.922078h1.051948v1.922078h1.792208v.831169h-1.792208v3.246753c0 .995676.45887 1.493507 1.376624 1.493507zm4.207792-5.727273c.805199 0 1.40476.205625 1.798701.616883.393942.411257.590909 1.036792.590909 1.876623v3.987013h-1.025974v-1.077922c-.164503.372296-.415582.660172-.753246.863637-.337664.203464-.727271.305194-1.168832.305194-.406928 0-.781383-.08225-1.123376-.246753s-.612553-.393938-.811688-.688312c-.199136-.294373-.298702-.619045-.298702-.974026 0-.476192.121211-.846319.363637-1.110389.242425-.264071.640689-.454545 1.194805-.571429.507939-.107143 1.197747-.165178 2.069443-.174107l.527959-.001217v-.428572c0-.528141-.108224-.911254-.324675-1.14935-.216451-.238097-.567097-.357143-1.051948-.357143-.727276 0-1.450213.225106-2.168831.675324l-.35065-.766233c.329006-.233768.725106-.422078 1.188312-.564935.463206-.142858.911253-.214286 1.344156-.214286zm-.415584 5.74026c.519483 0 .945885-.175323 1.27922-.525974.333335-.350652.5-.803028.5-1.357143v-.376624h-.233766c-.761908 0-1.341989.032467-1.74026.097403-.39827.064935-.681817.173159-.850649.324675s-.253247.374458-.253247.668831c0 .337664.123376.616882.37013.837663.246755.22078.556275.331169.928572.331169zm7.402597.831168c-.62338 0-1.1645-.134197-1.623377-.402597-.458876-.2684-.811687-.647184-1.058441-1.136364-.246755-.48918-.37013-1.062767-.37013-1.720779s.127704-1.235928.383117-1.733766c.255412-.497838.614716-.88528 1.077922-1.162338.463206-.277057 1.00649-.415584 1.62987-.415584.424245 0 .839825.075757 1.246753.227273.406929.151515.73593.352812.987013.603896l-.350649.77922c-.597406-.484851-1.20346-.727272-1.818182-.727272-.649354 0-1.155844.212119-1.51948.636363-.363639.424245-.545455 1.021641-.545455 1.792208 0 .761909.181816 1.350647.545455 1.766234.363636.415586.870126.623376 1.51948.623376.614722 0 1.220776-.242421 1.818182-.727272l.350649.779221c-.268399.251083-.606058.450215-1.012987.597402-.406928.147187-.826837.220779-1.25974.220779zm9.181818-.090909h-1.363636l-3.220779-3.025974v3.025974h-1.051948v-9.155844h1.051948v5.701299l2.948052-2.857143h1.337662l-3.142857 3.025974z"/><path d="m176.62987 47.5064935c-.865805 0-1.619044-.1883098-2.25974-.5649351-.640696-.3766252-1.132033-.9177453-1.474026-1.6233766-.341993-.7056312-.512987-1.5389562-.512987-2.5 0-.9610437.170994-1.7922043.512987-2.4935065s.83333-1.2402578 1.474026-1.6168831 1.393935-.5649351 2.25974-.5649351c.632038 0 1.212119.0974017 1.74026.2922078.528141.1948062.987011.4826821 1.376623.8636364l-.402597.8181818c-.441561-.3722962-.874457-.6406918-1.298701-.8051948-.424245-.164503-.891773-.2467532-1.402598-.2467532-1.004334 0-1.781382.3268365-2.331169.9805194-.549786.653683-.824675 1.5779161-.824675 2.7727273 0 1.2034692.274889 2.1320314.824675 2.7857143.549787.6536829 1.326835.9805195 2.331169.9805195.510825 0 .978353-.0822503 1.402598-.2467533.424244-.1645029.85714-.4328985 1.298701-.8051948l.402597.8181819c-.389612.3809542-.848482.6688301-1.376623.8636363s-1.108222.2922078-1.74026.2922078zm10.051948-6.4285714v6.3246753h-1.025974v-1.0779221c-.199135.3809543-.478353.6709947-.837662.8701299s-.764067.2987013-1.214286.2987013c-.75325 0-1.320344-.2099546-1.701299-.6298701-.380954-.4199156-.571428-1.0411215-.571428-1.8636364v-3.9220779h1.051948v3.8961039c0 .5627734.112553.9761891.337662 1.2402597.22511.2640706.580084.3961039 1.064935.3961039.554116 0 .999999-.1796519 1.337663-.538961.337664-.3593092.506493-.8333304.506493-1.422078v-3.5714285zm5.545455.7532467-.688312.0649351c-.649354.0606064-1.119046.2640675-1.409091.6103896s-.435065.7748892-.435065 1.2857143v3.6103896h-1.051948v-6.3246753h1.025974v1.1038961c.35498-.7359344 1.051943-1.1471857 2.090909-1.2337663l.376624-.025974zm4.584415 0-.688311.0649351c-.649354.0606064-1.119047.2640675-1.409091.6103896-.290045.3463221-.435065.7748892-.435065 1.2857143v3.6103896h-1.051948v-6.3246753h1.025974v1.1038961c.35498-.7359344 1.051943-1.1471857 2.090909-1.2337663l.376623-.025974zm6.298702 2.5714286h-4.623377c.034632.7359344.233764 1.2922059.597403 1.6688312.363638.3766252.878784.564935 1.545454.564935.735935 0 1.411252-.2510797 2.025974-.7532467l.35065.7662337c-.277058.2597416-.632033.4653673-1.064936.6168832-.432902.1515159-.874456.2272727-1.324675.2272727-.987018 0-1.764066-.2900404-2.331169-.8701299-.567102-.5800895-.850649-1.3809472-.850649-2.4025974 0-.6493539.12554-1.2229412.376623-1.7207792.251084-.497838.603894-.88528 1.058442-1.1623377.454548-.2770576.971858-.4155844 1.551948-.4155844.839831 0 1.497833.274889 1.974026.8246753s.714286 1.30519.714286 2.2662338zm-2.675325-2.6623377c-.554115 0-.997834.1731585-1.331169.5194806-.333335.346322-.530303.8354946-.590909 1.4675324h3.675325c-.017316-.6406958-.177488-1.1320329-.48052-1.4740259-.303032-.3419931-.72727-.5129871-1.272727-.5129871zm7.402597-.8181818c1.515159 0 2.272728.8354895 2.272728 2.5064935v3.974026h-1.051948v-3.9090909c0-.5887475-.114718-1.0173147-.344156-1.2857143-.229439-.2683996-.595236-.4025974-1.097403-.4025974-.580089 0-1.043288.1774874-1.38961.5324675-.346322.3549802-.519481.8354948-.519481 1.4415585v3.6233766h-1.051948v-6.3246753h1.038961v1.038961c.207793-.3896123.497834-.6861462.87013-.8896104s.796534-.3051948 1.272727-.3051948zm6.974026 5.7272727c.190477 0 .380952-.0129868.571429-.038961l-.051948.8311688c-.199135.0346322-.415583.0519481-.649351.0519481-.761908 0-1.335496-.1991322-1.720779-.5974026s-.577922-.9523774-.577922-1.6623377v-3.3246753h-1.233766v-.8311688h1.233766v-1.9220779h1.051948v1.9220779h1.792208v.8311688h-1.792208v3.2467533c0 .9956759.45887 1.4935064 1.376623 1.4935064zm5.142857-8.4025974h3.623377c.961044 0 1.70779.2337639 2.24026.7012987.53247.4675349.798701 1.1298659.798701 1.987013 0 .8571472-.268395 1.5238072-.805195 2-.536799.4761929-1.28138.7142857-2.233766.7142857h-2.558441v3.7532468h-1.064936zm3.519481 4.5194806c1.393946 0 2.090909-.6103835 2.090909-1.8311689 0-1.2034692-.696963-1.8051948-2.090909-1.8051948h-2.454545v3.6363637zm7.272727-1.8441559c.805199 0 1.40476.2056257 1.798702.6168831.393941.4112575.590909 1.0367924.590909 1.8766234v3.987013h-1.025974v-1.0779221c-.164503.3722963-.415583.6601722-.753247.8636364s-.727271.3051948-1.168831.3051948c-.406929 0-.781384-.0822503-1.123377-.2467533-.341993-.1645029-.612553-.3939379-.811688-.6883116-.199135-.2943738-.298702-.6190459-.298702-.974026 0-.4761929.121211-.846319.363637-1.1103896.242425-.2640706.64069-.4545449 1.194805-.5714286.507939-.1071434 1.197748-.1651787 2.069443-.1741072l.52796-.0012175v-.4285714c0-.5281412-.108224-.9112542-.324676-1.1493507-.216451-.2380964-.567097-.3571428-1.051948-.3571428-.727276 0-1.450213.225106-2.168831.6753247l-.350649-.7662338c.329006-.2337674.725106-.4220772 1.188311-.5649351.463206-.1428578.911254-.2142857 1.344156-.2142857zm-.415584 5.7402598c.519483 0 .945886-.175323 1.279221-.5259741s.5-.8030275.5-1.3571428v-.3766234h-.233767c-.761908 0-1.341989.0324672-1.740259.0974026-.398271.0649354-.681818.1731594-.85065.3246753s-.253246.3744574-.253246.6688312c0 .337664.123375.616882.370129.8376623.246755.2207804.556276.3311689.928572.3311689zm10.38961-5.5844156v5.8961039c0 .9437276-.242422 1.6558417-.727273 2.1363636-.48485.4805219-1.203458.7207792-2.155844.7207792-1.10823 0-2.038957-.2857114-2.792207-.8571428l.350649-.7792208c.424244.2770577.822509.4761899 1.194805.5974026s.787877.1818182 1.246753.1818182c.606064 0 1.064935-.1623361 1.376624-.487013.31169-.324677.467532-.7986982.467532-1.4220779v-1.1168832c-.181819.4069285-.461037.7186137-.837662.935065s-.820344.3246753-1.331169.3246753c-.554115 0-1.045452-.1298688-1.474026-.3896104-.428574-.2597415-.761904-.6277032-1-1.1038961-.238096-.4761928-.357143-1.0259709-.357143-1.6493506 0-.6233798.119047-1.1731578.357143-1.6493507.238096-.4761928.571426-.8441558 1-1.1038961.428574-.2597415.919911-.3896104 1.474026-.3896104.502167 0 .939392.108224 1.311688.3246753.372297.2164513.653679.5238076.844156.922078v-1.0909091zm-3 5.2597402c.606064 0 1.08225-.2012967 1.428572-.6038961s.51948-.9588709.51948-1.6688311c0-.7013022-.170994-1.2532448-.512987-1.6558442s-.820343-.6038961-1.435065-.6038961c-.614721 0-1.097401.2012967-1.448052.6038961s-.525974.954542-.525974 1.6558442c0 .7099602.175323 1.2662317.525974 1.6688311s.833331.6038961 1.448052.6038961z"/></g><g transform="translate(0 40.909091)"><path d="m245.279221.01298701c.839831 0 1.497833.27488903 1.974026.82467533s.714285 1.30519.714285 2.26623376v.38961039h-4.623376c.034632.73593442.233764 1.29220591.597402 1.66883117.363639.37662526.878785.56493507 1.545455.56493507.735934 0 1.411252-.25107974 2.025974-.75324676l.350649.76623377c-.277057.25974156-.632032.46536721-1.064935.61688312-.432902.15151591-.874456.22727272-1.324675.22727272-.987018 0-1.764066-.29004039-2.331169-.87012987-.567102-.58008948-.850649-1.38094727-.850649-2.4025974 0-.64935389.12554-1.22294123.376623-1.72077922.251084-.49783799.603894-.88528 1.058442-1.16233766.454547-.27705766.971858-.41558442 1.551948-.41558442zm.012987.81818182c-.554116 0-.997834.17315844-1.331169.51948052s-.530303.83549468-.590909 1.46753247h3.675325c-.017317-.64069585-.177488-1.13203292-.48052-1.47402598-.303032-.34199305-.72727-.51298701-1.272727-.51298701z" fill="#000" fill-rule="nonzero"/><g fill="#fff" stroke="#4c7ef3" stroke-width="1.948052"><path d="m18.6688312 21.8802936h82.1428568l17.999295 24.2236025h-118.810983z"/><path d="m18.6688312 12.5635234h82.1428568l17.999295 24.2236025h-118.810983z"/><path d="m18.6688312 3.24675325h82.1428568l17.999295 24.22360245h-118.810983z"/></g></g><g fill="#fff" stroke="#fa4359" stroke-width="1.948052" transform="translate(300.649351 44.155844)"><path d="m18.6335404 18.6335404h81.9875776l17.965269 24.2236025h-118.586387z"/><path d="m18.6335404 9.31677019h81.9875776l17.965269 24.22360251h-118.586387z"/><path d="m18.6335404 0h81.9875776l17.965269 24.2236025h-118.586387z"/></g><path d="m18.6335404.45172219h81.9875776l17.965269 24.22360251h-118.586387z" fill="#fff" stroke="#000" stroke-width="1.948052" transform="translate(150)"/></g></svg>