<svg viewBox="0 0 2349 2777" xmlns="http://www.w3.org/2000/svg"><path d="m948 824c-1-105.29-91.33-174.33-101.06-181.46v-.63l-.43.31c-.28-.19-.43-.31-.43-.31v.63c-9.74 7.13-100.08 76.17-101.08 181.46-1 109.31 47.31 164.29 101 196.39v.61l.51-.3.51.3v-.61c53.67-32.1 101.98-87.08 100.98-196.39z" fill="#0054ff" stroke="#000" stroke-linecap="round" stroke-linejoin="round" stroke-width="6"/><path d="m500.06 1203.11c143.47 143.4 376 143.35 519.42-.12s143.35-376-.12-519.43l-310.42-310.28c-143.47-143.4-376-143.34-519.43.12s-143.34 376 .12 519.43z" fill="#0054ff" stroke="#000" stroke-linecap="round" stroke-linejoin="round" stroke-width="6"/><circle cx="811.12" cy="988.62" fill="#ff71f4" r="298.88" stroke="#000" stroke-linecap="round" stroke-linejoin="round" stroke-width="6"/><circle cx="576.09" cy="753.59" fill="#00ffb3" r="298.88" stroke="#000" stroke-miterlimit="10" stroke-width="6"/><path d="m796 964c97-98.8 77.22-251.36 74.8-267l.58-.58-.69-.11-.11-.69-.58.58c-15.68-2.46-168.2-24.2-267 72.8-102.57 100.72-104.48 198.69-84.42 278.44l-.57.57.76.19.18.75.57-.56c79.76 20.05 175.76 18.18 276.48-84.39z" fill="#ffd400" stroke="#000" stroke-linecap="round" stroke-linejoin="round" stroke-width="6"/><path d="m662.28 2649.68c120.25 120.2 315.18 120.15 435.38-.1s120.15-315.19-.1-435.39l-495.56-495.3c-120.26-120.2-315.19-120.15-435.39.1s-120.15 315.19.1 435.39z" fill="#ff71f4" stroke="#000" stroke-linecap="round" stroke-linejoin="round" stroke-width="6"/><path d="m724.32 2654.93c101 101 264.77 100.94 365.74-.09s100.94-264.77-.06-365.74l-218.6-218.48c-101-101-264.78-100.94-365.75.08s-100.94 264.77.08 365.75z" fill="#ff71f4" stroke="#000" stroke-linecap="round" stroke-linejoin="round" stroke-width="6"/><path d="m754.07 2654.66c93 92.93 243.67 92.89 336.59-.08s92.89-243.66-.08-336.59l-3.28-3.28c-93-92.92-243.67-92.89-336.59.08s-92.89 243.67.08 336.59z" fill="#ffd400" stroke="#000" stroke-linecap="round" stroke-linejoin="round" stroke-width="6"/><path d="m876.64 1512.86h-12l-4.83-15.35h-17l-4.5 15.35h-11.75l18.17-56.27h13.35zm-25.32-44.21h-.16l-5.7 19.29h11.54z"/><path d="m892.16 1512.86h-10.37v-56.27h10.37z"/><path d="m913.78 1512.86h-10.45v-28h-5.15v-8.86h15.6zm-5.71-56.27a6.74 6.74 0 0 1 6.75 6.75 6.71 6.71 0 0 1 -13.42 0 6.72 6.72 0 0 1 6.67-6.75z"/><path d="m930.9 1494.45c0 5.79 3.78 10 9.24 10a8.43 8.43 0 0 0 8.12-5.63l9.81 3.06c-2.41 7.31-9.65 11.89-18 11.89-10.93 0-19.61-8.11-19.61-19.37s8.68-19.37 19.61-19.37c8.36 0 15.6 4.66 18 12l-9.81 3a8.54 8.54 0 0 0 -8.12-5.63c-5.46 0-9.24 4.26-9.24 10.05z"/><path d="m1000.35 1497.51h-27.41a8.74 8.74 0 0 0 15.83 3.61l10.85 1.13c-3.29 7.88-10.2 11.57-18.4 11.57-11 0-19.3-8.11-19.3-19.37s8.12-19.37 19.14-19.37c10.12 0 19.29 6.59 19.29 22zm-27.65-7h16.47a8 8 0 0 0 -8.11-6.75 8.2 8.2 0 0 0 -8.36 6.75z"/><path d="m1013.29 1455.63a7.18 7.18 0 0 1 7.31 7.07 10.35 10.35 0 0 1 -1 4.1l-6.35 11.82h-8.52l4.58-10.21a6.61 6.61 0 0 1 -3-5.71 7 7 0 0 1 6.98-7.07z"/><path d="m1047.85 1487.3a13.37 13.37 0 0 0 -9.08-3.78c-2.73 0-3.7 1.37-3.7 2.49 0 1.29.81 2.17 2.74 2.82l6.11 1.92c7.55 2.5 10.12 6.6 10.12 11.42 0 5.38-4.58 11.65-14.63 11.65a23.73 23.73 0 0 1 -16.23-5.78l5.54-7.24c2.66 2.49 7.4 4.58 10.85 4.58 2.5 0 4-1.28 4-2.73 0-1.85-1.2-2.65-4.18-3.54l-6.27-1.85c-5.94-1.92-8.52-5.94-8.52-10.77 0-6 5.47-11.41 14.31-11.41a22 22 0 0 1 14.87 5.46z"/><path d="m1089.25 1512.86h-11.09v-56.27h19c13.26 0 20.25 8.28 20.25 18.49s-7 18.73-20.25 18.73h-8zm0-46.62v18h6.27c6.11 0 10.53-2.89 10.53-9.16s-4.42-8.84-10.53-8.84z"/><path d="m1157.33 1497.51h-27.41a8.74 8.74 0 0 0 15.83 3.61l10.86 1.13c-3.3 7.88-10.21 11.57-18.41 11.57-11 0-19.29-8.11-19.29-19.37s8.12-19.37 19.13-19.37c10.13 0 19.29 6.59 19.29 22zm-27.65-7h16.48a8 8 0 0 0 -8.12-6.75 8.21 8.21 0 0 0 -8.36 6.75z"/><path d="m1186.1 1486.33h-4.42c-5.3 0-7.71 2.5-7.71 8.93v17.6h-10.45v-36.86h10.13v5.87c1.44-3.94 5-6.35 9.56-6.35a11.8 11.8 0 0 1 2.89.32z"/><path d="m1240.36 1491.24c0-4.51-2.89-6.43-6.11-6.43-3 0-5.62 1.68-7.63 4.18v23.87h-10.45v-21.62c0-4.42-2.82-6.43-6.11-6.43-3 0-5.63 1.68-7.64 4.18v23.87h-10.42v-36.86h10.21v1.45c0 1.29-.16 2.89-.16 2.89a14.26 14.26 0 0 1 11-5.3c5.47 0 9.73 2.33 11.82 6.67 3.05-4.26 7.23-6.67 12.38-6.67 8 0 13.58 5.06 13.58 13.66v24.12h-10.45z"/><path d="m1272 1512.86h-10.45v-28h-5.14v-8.86h15.59zm-5.71-56.27a6.75 6.75 0 0 1 6.76 6.75 6.72 6.72 0 0 1 -13.43 0 6.72 6.72 0 0 1 6.7-6.75z"/><path d="m1302.74 1487.3a13.41 13.41 0 0 0 -9.09-3.78c-2.73 0-3.7 1.37-3.7 2.49 0 1.29.81 2.17 2.74 2.82l6.11 1.92c7.55 2.5 10.12 6.6 10.12 11.42 0 5.38-4.58 11.65-14.63 11.65a23.75 23.75 0 0 1 -16.23-5.78l5.54-7.24c2.66 2.49 7.4 4.58 10.86 4.58 2.49 0 4-1.28 4-2.73 0-1.85-1.2-2.65-4.18-3.54l-6.26-1.85c-6-1.92-8.53-5.94-8.53-10.77 0-6 5.47-11.41 14.31-11.41a22 22 0 0 1 14.87 5.46z"/><path d="m1337.3 1487.3a13.39 13.39 0 0 0 -9.09-3.78c-2.73 0-3.69 1.37-3.69 2.49 0 1.29.8 2.17 2.73 2.82l6.11 1.92c7.56 2.5 10.13 6.6 10.13 11.42 0 5.38-4.58 11.65-14.63 11.65a23.76 23.76 0 0 1 -16.24-5.78l5.55-7.24c2.65 2.49 7.39 4.58 10.85 4.58 2.49 0 4-1.28 4-2.73 0-1.85-1.21-2.65-4.18-3.54l-6.27-1.85c-5.95-1.92-8.52-5.94-8.52-10.77 0-6 5.46-11.41 14.31-11.41a22 22 0 0 1 14.87 5.46z"/><path d="m1362.78 1512.86h-10.45v-28h-5.15v-8.86h15.6zm-5.71-56.27a6.74 6.74 0 0 1 6.75 6.75 6.71 6.71 0 0 1 -13.42 0 6.72 6.72 0 0 1 6.67-6.75z"/><path d="m1369.45 1494.45c0-11.25 8.76-19.37 19.69-19.37s19.7 8.12 19.7 19.37-8.77 19.37-19.7 19.37-19.69-8.11-19.69-19.37zm10.45 0c0 5.71 3.78 10 9.24 10s9.17-4.34 9.17-10-3.78-10-9.17-10-9.24 4.21-9.24 10z"/><path d="m1436.81 1475.08c8 0 13.66 5.06 13.66 13.66v24.12h-10.47v-21.46c0-4.67-3-6.59-6.27-6.59a10.15 10.15 0 0 0 -7.73 4.19v23.87h-10.45v-36.87h10.2v1.45c0 1.29-.16 2.89-.16 2.89a14.52 14.52 0 0 1 11.22-5.26z"/><path d="m1480.77 1487.3a13.37 13.37 0 0 0 -9.08-3.78c-2.73 0-3.7 1.37-3.7 2.49 0 1.29.81 2.17 2.74 2.82l6.11 1.92c7.55 2.5 10.12 6.6 10.12 11.42 0 5.38-4.58 11.65-14.63 11.65a23.73 23.73 0 0 1 -16.23-5.78l5.54-7.24c2.66 2.49 7.4 4.58 10.86 4.58 2.49 0 4-1.28 4-2.73 0-1.85-1.2-2.65-4.18-3.54l-6.27-1.85c-5.94-1.92-8.52-5.94-8.52-10.77 0-6 5.47-11.41 14.31-11.41a22 22 0 0 1 14.87 5.46z"/><path d="m1438.33 1789.76h-3.56c-2.18-6-7.26-9.73-14.26-9.73-9.51 0-16 7.21-16 16.78s6.5 16.83 16 16.83c7 0 12.08-3.77 14.26-9.73h3.56c-2.46 7.87-9.46 12.68-17.82 12.68-10.77 0-19.4-8.25-19.4-19.78s8.58-19.79 19.4-19.79c8.36-.02 15.36 4.86 17.82 12.74z"/><path d="m1458.49 1799.27c0-3.67-2.84-5.14-6.06-5.14a13.15 13.15 0 0 0 -7.44 2.62l-1.58-2.51a15.75 15.75 0 0 1 9.23-3.06c5.74 0 9.19 3.22 9.19 8.2v16.56h-3.34v-3c-1.36 2.4-4.64 3.66-7.54 3.66-5.25 0-8.74-3.06-8.74-7.38s3.17-7 8.14-7h5.79c1.7 0 2.35-.87 2.35-2.18zm0 8.09v-3.36a4.18 4.18 0 0 1 -3.11.93h-4.48c-3.56 0-5.2 1.75-5.2 4.26 0 2.08 1.59 4.54 5.63 4.54 3.67.02 7.16-2 7.16-6.37z"/><path d="m1486.64 1800.09c0-3.88-2.52-6-6-6-2.89 0-5.74 1.58-8 4.26v17.55h-3.34v-24.11h3.28v3.45a10.93 10.93 0 0 1 8.64-4.1c5.63 0 8.74 3.44 8.74 8.74v16h-3.33z"/><path d="m1520.63 1794.78h-1.63c-4.26 0-7.32 2-7.32 7.66v13.5h-3.28v-24.11h3.17v4.1a7.56 7.56 0 0 1 7.27-4.53c.55 0 1.15 0 1.8.1z"/><path d="m1526.75 1804.9c.44 5 3.78 8.74 8.8 8.74a8.3 8.3 0 0 0 7.49-4.15h3.88a12.34 12.34 0 0 1 -11.37 7.1c-6.94 0-12.24-5.3-12.24-12.68s5.3-12.73 12.19-12.73c6.29 0 12.13 4.42 12.13 13.61v.11zm.11-2.74h17.06a8.47 8.47 0 0 0 -8.42-8c-4.81-.03-8.04 3.41-8.64 8z"/><path d="m1567.58 1799.27c0-3.67-2.84-5.14-6.07-5.14a13.14 13.14 0 0 0 -7.43 2.62l-1.58-2.51a15.7 15.7 0 0 1 9.23-3.06c5.74 0 9.19 3.22 9.19 8.2v16.56h-3.34v-3c-1.37 2.4-4.65 3.66-7.54 3.66-5.25 0-8.75-3.06-8.75-7.38s3.17-7 8.15-7h5.79c1.69 0 2.35-.87 2.35-2.18zm0 8.09v-3.36a4.19 4.19 0 0 1 -3.12.93h-4.46c-3.55 0-5.19 1.75-5.19 4.26 0 2.08 1.59 4.54 5.63 4.54 3.64.02 7.14-2 7.14-6.37z"/><path d="m1598.13 1796.53v-18.85h3.34v38.26h-3.34v-4.59a10.23 10.23 0 0 1 -9.18 5.24c-6.94 0-12.24-5.3-12.24-12.68s5.24-12.73 12.13-12.73c4.16 0 7.87 2.35 9.29 5.35zm-9 17.17c5.36 0 9.13-4.27 9.13-9.79s-3.77-9.78-9.13-9.78-9.07 4.26-9.07 9.78 3.75 9.79 9.11 9.79z"/><path d="m1624.36 1815.94h-3.36v-21.32h-3.83v-2.79h7.16zm-1.91-35.75a2.9 2.9 0 1 1 -2.9 2.9 2.92 2.92 0 0 1 2.9-2.9z"/><path d="m1649.45 1800.09c0-3.88-2.51-6-6-6-2.89 0-5.74 1.58-8 4.26v17.55h-3.34v-24.11h3.28v3.45a10.93 10.93 0 0 1 8.64-4.1c5.63 0 8.75 3.44 8.75 8.74v16h-3.34z"/><path d="m1673.55 1789.1a3.35 3.35 0 0 1 -3.33-3.33 4.91 4.91 0 0 1 .54-2.08l3.61-6.67h3l-2.51 5.58a3.39 3.39 0 0 1 2.08 3.17 3.35 3.35 0 0 1 -3.39 3.33z"/><path d="m1704.16 1800.85v15.09h-3.34v-16c0-3.71-2.29-5.79-5.74-5.79-2.84 0-5.41 1.58-7.7 4.26v17.55h-3.38v-24.11h3.28v3.45a10.24 10.24 0 0 1 8.2-4.1c4 0 6.73 1.8 7.87 4.64 2.63-3.17 5.47-4.64 9-4.64 5.68 0 8.58 3.44 8.58 8.74v16h-3.34v-16c0-3.71-2.29-5.79-5.68-5.79-2.9 0-5.52 1.64-7.87 4.37.06.75.12 1.57.12 2.33z"/><path d="m1742.69 1799.27c0-3.67-2.84-5.14-6.07-5.14a13.14 13.14 0 0 0 -7.43 2.62l-1.59-2.51a15.76 15.76 0 0 1 9.24-3.06c5.74 0 9.18 3.22 9.18 8.2v16.56h-3.33v-3c-1.37 2.4-4.65 3.66-7.54 3.66-5.25 0-8.75-3.06-8.75-7.38s3.17-7 8.14-7h5.8c1.69 0 2.35-.87 2.35-2.18zm0 8.09v-3.36a4.19 4.19 0 0 1 -3.12.93h-4.48c-3.55 0-5.19 1.75-5.19 4.26 0 2.08 1.58 4.54 5.63 4.54 3.66.02 7.16-2 7.16-6.37z"/><path d="m1765.75 1794.78h-1.64c-4.26 0-7.32 2-7.32 7.66v13.5h-3.28v-24.11h3.17v4.1a7.56 7.56 0 0 1 7.27-4.53c.55 0 1.15 0 1.8.1z"/><path d="m1774.11 1801.18h3.12l9.29-9.35h4.48l-11.09 10.77 11.69 13.34h-4.42l-10.11-11.86h-3v11.86h-3.33v-38.26h3.33z"/><path d="m1796.52 1804.9c.44 5 3.77 8.74 8.8 8.74a8.31 8.31 0 0 0 7.49-4.15h3.88a12.35 12.35 0 0 1 -11.37 7.1c-6.94 0-12.24-5.3-12.24-12.68s5.3-12.73 12.19-12.73c6.28 0 12.13 4.42 12.13 13.61v.11zm.11-2.74h17a8.45 8.45 0 0 0 -8.41-8c-4.76-.03-7.99 3.41-8.59 8z"/><path d="m1827.78 1781.67v10.16h6v2.79h-6v16.38c0 2.24 1.59 2.35 3.45 2.35a17.2 17.2 0 0 0 2.51-.16v2.79a33.6 33.6 0 0 1 -3.72.22c-2.51 0-5.57-.66-5.57-5.14v-16.4h-4.16v-2.79h4.16v-10.16z"/><path d="m1842.05 1777a3.36 3.36 0 0 1 3.33 3.39 5.22 5.22 0 0 1 -.55 2.08l-3.6 6.61h-3l2.51-5.57a3.28 3.28 0 0 1 -2.08-3.12 3.36 3.36 0 0 1 3.39-3.39z"/><path d="m1876 1799.27c0-3.67-2.85-5.14-6.07-5.14a13.11 13.11 0 0 0 -7.43 2.62l-1.59-2.51a15.76 15.76 0 0 1 9.24-3.06c5.74 0 9.18 3.22 9.18 8.2v16.56h-3.33v-3c-1.37 2.4-4.65 3.66-7.55 3.66-5.24 0-8.74-3.06-8.74-7.38s3.17-7 8.14-7h5.8c1.69 0 2.35-.87 2.35-2.18zm0 8.09v-3.36a4.19 4.19 0 0 1 -3.12.93h-4.48c-3.55 0-5.19 1.75-5.19 4.26 0 2.08 1.58 4.54 5.63 4.54 3.65.02 7.16-2 7.16-6.37z"/><path d="m1904.13 1800.09c0-3.88-2.51-6-6-6-2.9 0-5.74 1.58-8 4.26v17.55h-3.33v-24.11h3.28v3.45a10.89 10.89 0 0 1 8.63-4.1c5.63 0 8.75 3.44 8.75 8.74v16h-3.34z"/><path d="m1934.69 1796.53v-18.85h3.31v38.26h-3.33v-4.59a10.26 10.26 0 0 1 -9.19 5.24c-6.94 0-12.24-5.3-12.24-12.68s5.25-12.73 12.13-12.73c4.18 0 7.89 2.35 9.32 5.35zm-9 17.17c5.36 0 9.13-4.27 9.13-9.79s-3.77-9.78-9.13-9.78-9.07 4.26-9.07 9.78 3.75 9.79 9.1 9.79z"/><path d="m1959.06 1789.1a3.35 3.35 0 0 1 -3.34-3.33 4.91 4.91 0 0 1 .55-2.08l3.61-6.67h2.95l-2.51 5.58a3.38 3.38 0 0 1 2.07 3.17 3.34 3.34 0 0 1 -3.33 3.33z"/><path d="m1980.7 1809.54c0-2.4-2-3.44-5.41-4.7l-1.37-.49c-3.66-1.31-6.12-3.17-6.12-6.67 0-4 3.56-6.5 8.26-6.5a12.32 12.32 0 0 1 7.81 2.78l-1.8 2.52a10.91 10.91 0 0 0 -6.12-2.41c-2.68 0-4.7 1.37-4.7 3.45 0 1.53 1.09 2.73 3.55 3.66l2.79 1c4.64 1.8 6.56 3.82 6.56 7.38 0 3.11-2.68 7-8.86 7a14.42 14.42 0 0 1 -8.47-3l1.75-2.52a11.5 11.5 0 0 0 6.83 2.57c3.28.03 5.3-1.83 5.3-4.07z"/><path d="m2004.37 1799.27c0-3.67-2.85-5.14-6.07-5.14a13.11 13.11 0 0 0 -7.43 2.62l-1.59-2.51a15.76 15.76 0 0 1 9.24-3.06c5.74 0 9.18 3.22 9.18 8.2v16.56h-3.33v-3c-1.37 2.4-4.65 3.66-7.55 3.66-5.24 0-8.74-3.06-8.74-7.38s3.17-7 8.14-7h5.8c1.69 0 2.35-.87 2.35-2.18zm0 8.09v-3.36a4.19 4.19 0 0 1 -3.12.93h-4.48c-3.55 0-5.19 1.75-5.19 4.26 0 2.08 1.58 4.54 5.63 4.54 3.66.02 7.16-2 7.16-6.37z"/><path d="m2018.52 1815.94h-3.33v-38.26h3.33z"/><path d="m2028 1804.9c.44 5 3.77 8.74 8.8 8.74a8.31 8.31 0 0 0 7.49-4.15h3.88a12.35 12.35 0 0 1 -11.37 7.1c-6.94 0-12.24-5.3-12.24-12.68s5.3-12.73 12.19-12.73c6.28 0 12.13 4.42 12.13 13.61v.11zm.11-2.74h17a8.45 8.45 0 0 0 -8.41-8c-4.7-.03-7.96 3.41-8.56 8z"/><path d="m2066.29 1809.54c0-2.4-2-3.44-5.41-4.7l-1.37-.49c-3.66-1.31-6.12-3.17-6.12-6.67 0-4 3.55-6.5 8.25-6.5a12.37 12.37 0 0 1 7.82 2.78l-1.81 2.52a10.86 10.86 0 0 0 -6.12-2.41c-2.68 0-4.7 1.37-4.7 3.45 0 1.53 1.09 2.73 3.55 3.66l2.79 1c4.65 1.8 6.56 3.82 6.56 7.38 0 3.11-2.68 7-8.85 7a14.43 14.43 0 0 1 -8.48-3l1.75-2.52a11.5 11.5 0 0 0 6.84 2.57c3.27.03 5.3-1.83 5.3-4.07z"/><path d="m2078.91 1777a3.37 3.37 0 0 1 3.34 3.39 5.39 5.39 0 0 1 -.55 2.08l-3.61 6.61h-3l2.51-5.57a3.27 3.27 0 0 1 -2.07-3.12 3.35 3.35 0 0 1 3.38-3.39z"/><path d="m1438.33 2047.88h-3.56c-2.18-6-7.26-9.73-14.26-9.73-9.51 0-16 7.22-16 16.78s6.5 16.83 16 16.83c7 0 12.08-3.77 14.26-9.72h3.56c-2.46 7.87-9.46 12.68-17.82 12.68-10.77 0-19.4-8.26-19.4-19.79s8.58-19.79 19.4-19.79c8.36 0 15.36 4.86 17.82 12.74z"/><path d="m1458.49 2057.39c0-3.66-2.84-5.14-6.06-5.14a13.08 13.08 0 0 0 -7.44 2.63l-1.58-2.52a15.75 15.75 0 0 1 9.23-3.06c5.74 0 9.19 3.23 9.19 8.2v16.56h-3.34v-3c-1.36 2.41-4.64 3.67-7.54 3.67-5.25 0-8.74-3.06-8.74-7.38s3.17-7.05 8.14-7.05h5.79c1.7 0 2.35-.88 2.35-2.19zm0 8.09v-3.33a4.18 4.18 0 0 1 -3.11.92h-4.48c-3.56 0-5.2 1.75-5.2 4.27 0 2.08 1.59 4.53 5.63 4.53 3.67 0 7.16-2.02 7.16-6.39z"/><path d="m1486.64 2058.21c0-3.88-2.52-6-6-6-2.89 0-5.74 1.59-8 4.27v17.54h-3.34v-24.02h3.28v3.44a11 11 0 0 1 8.64-4.1c5.63 0 8.74 3.44 8.74 8.75v16h-3.33z"/><path d="m1512.6 2074.06h-3.34v-21.32h-3.82v-2.74h7.16zm-1.91-35.75a2.9 2.9 0 1 1 -2.9 2.9 2.92 2.92 0 0 1 2.9-2.9z"/><path d="m1537.69 2058.21c0-3.88-2.52-6-6-6-2.9 0-5.74 1.59-8 4.27v17.54h-3.33v-24.02h3.28v3.44a11 11 0 0 1 8.63-4.1c5.63 0 8.75 3.44 8.75 8.75v16h-3.33z"/><path d="m1560.2 2067.67c0-2.41-2-3.45-5.41-4.71l-1.37-.49c-3.66-1.31-6.12-3.17-6.12-6.67 0-4 3.56-6.5 8.26-6.5a12.27 12.27 0 0 1 7.81 2.79l-1.8 2.51a11 11 0 0 0 -6.12-2.4c-2.68 0-4.7 1.36-4.7 3.44 0 1.53 1.09 2.73 3.55 3.66l2.79 1c4.64 1.81 6.56 3.83 6.56 7.38 0 3.12-2.68 7-8.86 7a14.43 14.43 0 0 1 -8.47-3l1.75-2.51a11.55 11.55 0 0 0 6.83 2.56c3.28.03 5.3-1.82 5.3-4.06z"/><path d="m1571.35 2063c.44 5 3.77 8.74 8.8 8.74a8.31 8.31 0 0 0 7.49-4.15h3.88a12.36 12.36 0 0 1 -11.37 7.11c-6.94 0-12.24-5.3-12.24-12.68s5.3-12.74 12.19-12.74c6.28 0 12.13 4.43 12.13 13.61v.11zm.11-2.73h17a8.45 8.45 0 0 0 -8.41-8c-4.76-.02-7.99 3.43-8.59 8.02z"/><path d="m1610.15 2052.91h-1.64c-4.26 0-7.32 2-7.32 7.65v13.5h-3.28v-24.06h3.17v4.1a7.56 7.56 0 0 1 7.27-4.54c.55 0 1.15.05 1.8.11z"/><path d="m1619.88 2039.79v10.21h6v2.78h-6v16.35c0 2.24 1.59 2.35 3.45 2.35a16.21 16.21 0 0 0 2.51-.17v2.79a33.6 33.6 0 0 1 -3.72.22c-2.51 0-5.57-.66-5.57-5.14v-16.4h-4.16v-2.78h4.16v-10.17z"/><path d="m1642.18 2035.8h3.12l-12.79 38.26h-3.23z"/><path d="m1650.32 2065.48v-15.48h3.34v15.19c0 4.37 3 6.61 7 6.61s7-2.24 7-6.61v-15.19h3.34v15.52c0 5.08-3.6 9.24-10.33 9.24s-10.35-4.2-10.35-9.28z"/><path d="m1681.75 2069.52v14.11h-3.33v-33.63h3.33v4.7c1.42-3 5.14-5.36 9.29-5.36 6.89 0 12.14 5.36 12.14 12.74s-5.31 12.68-12.25 12.68a10.29 10.29 0 0 1 -9.18-5.24zm9-17.27c-5.35 0-9.12 4.27-9.12 9.79s3.77 9.78 9.12 9.78 9.08-4.26 9.08-9.78-3.76-9.79-9.12-9.79z"/><path d="m1729 2054.66v-18.86h3.34v38.26h-3.34v-4.59a10.22 10.22 0 0 1 -9.18 5.25c-6.94 0-12.24-5.3-12.24-12.68s5.24-12.74 12.13-12.74c4.12 0 7.84 2.35 9.29 5.36zm-9 17.16c5.35 0 9.12-4.26 9.12-9.78s-3.77-9.79-9.12-9.79-9.08 4.27-9.08 9.79 3.73 9.78 9.08 9.78z"/><path d="m1754.33 2057.39c0-3.66-2.84-5.14-6.07-5.14a13.07 13.07 0 0 0 -7.43 2.63l-1.59-2.52a15.76 15.76 0 0 1 9.24-3.06c5.74 0 9.18 3.23 9.18 8.2v16.56h-3.33v-3c-1.37 2.41-4.65 3.67-7.54 3.67-5.25 0-8.75-3.06-8.75-7.38s3.17-7.05 8.15-7.05h5.81c1.69 0 2.35-.88 2.35-2.19zm0 8.09v-3.33a4.19 4.19 0 0 1 -3.12.92h-4.48c-3.55 0-5.19 1.75-5.19 4.27 0 2.08 1.58 4.53 5.63 4.53 3.66 0 7.16-2.02 7.16-6.39z"/><path d="m1769.85 2039.79v10.21h6v2.78h-6v16.35c0 2.24 1.59 2.35 3.44 2.35a16.44 16.44 0 0 0 2.52-.17v2.79a33.6 33.6 0 0 1 -3.72.22c-2.51 0-5.57-.66-5.57-5.14v-16.4h-4.16v-2.78h4.16v-10.17z"/><path d="m1782.42 2063c.44 5 3.77 8.74 8.8 8.74a8.31 8.31 0 0 0 7.49-4.15h3.88a12.35 12.35 0 0 1 -11.37 7.11c-6.94 0-12.24-5.3-12.24-12.68s5.3-12.74 12.19-12.74c6.28 0 12.13 4.43 12.13 13.61v.11zm.11-2.73h17a8.45 8.45 0 0 0 -8.41-8c-4.76-.02-7.99 3.43-8.59 8.02z"/><path d="m1820.24 2035.8h3.12l-12.79 38.26h-3.23z"/><path d="m1847.73 2054.66v-18.86h3.34v38.26h-3.34v-4.59a10.22 10.22 0 0 1 -9.18 5.25c-6.94 0-12.24-5.3-12.24-12.68s5.24-12.74 12.13-12.74c4.15 0 7.87 2.35 9.29 5.36zm-9 17.16c5.36 0 9.13-4.26 9.13-9.78s-3.77-9.79-9.13-9.79-9.07 4.27-9.07 9.79 3.75 9.78 9.11 9.78z"/><path d="m1860.58 2063c.43 5 3.77 8.74 8.8 8.74a8.3 8.3 0 0 0 7.48-4.15h3.88a12.35 12.35 0 0 1 -11.36 7.11c-7 0-12.25-5.3-12.25-12.68s5.3-12.74 12.19-12.74c6.29 0 12.13 4.43 12.13 13.61v.11zm.1-2.73h17.06a8.46 8.46 0 0 0 -8.42-8c-4.81-.02-8.03 3.43-8.64 8.02z"/><path d="m1890.47 2074.06h-3.33v-38.26h3.33z"/><path d="m1900 2063c.44 5 3.77 8.74 8.8 8.74a8.31 8.31 0 0 0 7.49-4.15h3.88a12.37 12.37 0 0 1 -11.37 7.11c-6.94 0-12.24-5.3-12.24-12.68s5.3-12.74 12.18-12.74c6.29 0 12.14 4.43 12.14 13.61v.11zm.11-2.73h17.05a8.46 8.46 0 0 0 -8.42-8c-4.83-.02-8.05 3.43-8.65 8.02z"/><path d="m1931.24 2039.79v10.21h6v2.78h-6v16.35c0 2.24 1.58 2.35 3.44 2.35a16.44 16.44 0 0 0 2.52-.17v2.79a33.6 33.6 0 0 1 -3.72.22c-2.51 0-5.57-.66-5.57-5.14v-16.4h-4.16v-2.78h4.16v-10.17z"/><path d="m1943.81 2063c.44 5 3.77 8.74 8.8 8.74a8.31 8.31 0 0 0 7.49-4.15h3.9a12.36 12.36 0 0 1 -11.37 7.11c-6.94 0-12.24-5.3-12.24-12.68s5.3-12.74 12.19-12.74c6.28 0 12.13 4.43 12.13 13.61v.11zm.11-2.73h17a8.45 8.45 0 0 0 -8.41-8c-4.76-.02-7.99 3.43-8.59 8.02z"/><path d="m1992 2049.3a12.71 12.71 0 1 1 -12.46 12.74 12.4 12.4 0 0 1 12.46-12.74zm0 2.95c-5.35 0-9.07 4.27-9.07 9.79s3.72 9.78 9.07 9.78 9.13-4.26 9.13-9.78-3.7-9.79-9.13-9.79z"/><path d="m2027.87 2058.21c0-3.88-2.52-6-6-6-2.9 0-5.74 1.59-8 4.27v17.54h-3.34v-24.02h3.28v3.44a11 11 0 0 1 8.64-4.1c5.63 0 8.74 3.44 8.74 8.75v16h-3.33z"/><path d="m1407.28 2105.38v10.16h6v2.79h-6v16.34c0 2.24 1.59 2.35 3.45 2.35a17.2 17.2 0 0 0 2.51-.16v2.78a33.6 33.6 0 0 1 -3.72.22c-2.51 0-5.57-.65-5.57-5.13v-16.4h-4.16v-2.79h4.21v-10.16z"/><path d="m1432.59 2123c0-3.66-2.84-5.13-6.07-5.13a13 13 0 0 0 -7.43 2.62l-1.59-2.51a15.76 15.76 0 0 1 9.24-3.07c5.74 0 9.18 3.23 9.18 8.2v16.56h-3.33v-3c-1.37 2.4-4.65 3.66-7.55 3.66-5.24 0-8.74-3.06-8.74-7.38s3.17-7.05 8.14-7.05h5.8c1.69 0 2.35-.87 2.35-2.19zm0 8.09v-3.33a4.19 4.19 0 0 1 -3.12.93h-4.47c-3.55 0-5.19 1.75-5.19 4.26 0 2.08 1.58 4.54 5.63 4.54 3.65-.03 7.15-2.05 7.15-6.43z"/><path d="m1446.74 2135.11v4.53h-3.33v-38.26h3.33v18.86c1.42-3 5.14-5.36 9.29-5.36 6.89 0 12.14 5.36 12.14 12.74s-5.3 12.68-12.25 12.68a10.32 10.32 0 0 1 -9.18-5.19zm9-17.27c-5.36 0-9.13 4.26-9.13 9.78s3.77 9.78 9.13 9.78 9.07-4.26 9.07-9.78-3.75-9.78-9.1-9.78z"/><path d="m1477.57 2139.64h-3.34v-38.26h3.34z"/><path d="m1487.08 2128.6c.43 5 3.77 8.75 8.8 8.75a8.3 8.3 0 0 0 7.48-4.15h3.88a12.34 12.34 0 0 1 -11.36 7.1c-7 0-12.25-5.3-12.25-12.68s5.3-12.74 12.19-12.74c6.29 0 12.13 4.43 12.13 13.61v.11zm.1-2.73h17.06a8.46 8.46 0 0 0 -8.42-8c-4.82-.03-8.03 3.41-8.64 8z"/><path d="m1525.33 2133.25c0-2.41-2-3.44-5.41-4.7l-1.37-.49c-3.66-1.31-6.12-3.17-6.12-6.67 0-4 3.56-6.51 8.26-6.51a12.27 12.27 0 0 1 7.81 2.79l-1.8 2.52a10.91 10.91 0 0 0 -6.12-2.41c-2.68 0-4.7 1.37-4.7 3.45 0 1.53 1.09 2.73 3.55 3.66l2.79 1c4.64 1.8 6.56 3.82 6.56 7.37 0 3.12-2.68 7-8.86 7a14.37 14.37 0 0 1 -8.47-3l1.75-2.51a11.5 11.5 0 0 0 6.83 2.57c3.28.03 5.3-1.83 5.3-4.07z"/><path d="m1549.87 2139.64h-3.33v-21.31h-3.83v-2.79h7.16zm-1.87-35.74a2.9 2.9 0 1 1 -2.9 2.9 2.91 2.91 0 0 1 2.9-2.9z"/><path d="m1575 2123.79c0-3.88-2.52-5.95-6-5.95-2.9 0-5.74 1.58-8 4.26v17.54h-3.33v-24.1h3.28v3.46a11 11 0 0 1 8.64-4.1c5.63 0 8.74 3.45 8.74 8.75v16h-3.33z"/><path d="m1599.06 2112.81a3.35 3.35 0 0 1 -3.34-3.34 4.86 4.86 0 0 1 .55-2.07l3.61-6.67h2.95l-2.51 5.57a3.4 3.4 0 0 1 2.07 3.17 3.34 3.34 0 0 1 -3.33 3.34z"/><path d="m1629.66 2124.56v15.08h-3.33v-16c0-3.72-2.29-5.79-5.74-5.79-2.84 0-5.41 1.58-7.71 4.26v17.54h-3.33v-24.1h3.28v3.45a10.27 10.27 0 0 1 8.2-4.1c4 0 6.72 1.81 7.87 4.65 2.62-3.17 5.47-4.65 9-4.65 5.69 0 8.58 3.45 8.58 8.75v16h-3.33v-16c0-3.72-2.3-5.79-5.68-5.79-2.9 0-5.52 1.64-7.88 4.37.02.77.07 1.56.07 2.33z"/><path d="m1668.2 2123c0-3.66-2.85-5.13-6.07-5.13a13.1 13.1 0 0 0 -7.44 2.62l-1.58-2.51a15.76 15.76 0 0 1 9.24-3.07c5.74 0 9.18 3.23 9.18 8.2v16.56h-3.33v-3c-1.37 2.4-4.65 3.66-7.55 3.66-5.24 0-8.74-3.06-8.74-7.38s3.17-7.05 8.14-7.05h5.79c1.7 0 2.36-.87 2.36-2.19zm0 8.09v-3.33a4.21 4.21 0 0 1 -3.12.93h-4.48c-3.56 0-5.19 1.75-5.19 4.26 0 2.08 1.58 4.54 5.63 4.54 3.66-.03 7.16-2.05 7.16-6.43z"/><path d="m1691.26 2118.49h-1.64c-4.26 0-7.33 2-7.33 7.65v13.5h-3.29v-24.1h3.17v4.1a7.56 7.56 0 0 1 7.27-4.54c.54 0 1.14.06 1.8.11z"/><path d="m1699.62 2124.89h3.12l9.29-9.35h4.48l-11.1 10.77 11.7 13.33h-4.43l-10.11-11.86h-3v11.86h-3.33v-38.26h3.33z"/><path d="m1722 2128.6c.43 5 3.77 8.75 8.8 8.75a8.29 8.29 0 0 0 7.48-4.15h3.89a12.36 12.36 0 0 1 -11.37 7.1c-6.94 0-12.25-5.3-12.25-12.68s5.31-12.74 12.19-12.74c6.29 0 12.14 4.43 12.14 13.61v.11zm.11-2.73h17a8.45 8.45 0 0 0 -8.42-8c-4.69-.03-7.95 3.41-8.55 8z"/><path d="m1753.29 2105.38v10.16h6v2.79h-6v16.34c0 2.24 1.58 2.35 3.44 2.35a17.44 17.44 0 0 0 2.52-.16v2.78a33.6 33.6 0 0 1 -3.72.22c-2.52 0-5.58-.65-5.58-5.13v-16.4h-4.15v-2.79h4.2v-10.16z"/><path d="m1768.54 2139.64h-3.34v-21.31h-3.82v-2.79h7.16zm-1.92-35.74a2.9 2.9 0 1 1 -2.89 2.9 2.92 2.92 0 0 1 2.89-2.9z"/><path d="m1793.62 2123.79c0-3.88-2.51-5.95-5.95-5.95-2.9 0-5.74 1.58-8 4.26v17.54h-3.33v-24.1h3.28v3.46a10.92 10.92 0 0 1 8.63-4.1c5.63 0 8.75 3.45 8.75 8.75v16h-3.34z"/><path d="m1827.51 2142.16c0 3.93-1.8 7.05-7.11 7.05h-9.12v-2.79h8.72c2.3 0 4.15-.71 4.15-3.5v-7.87a10.22 10.22 0 0 1 -9.18 5.25c-6.94 0-12.24-5.3-12.24-12.68s5.25-12.74 12.13-12.74c4.16 0 7.87 2.36 9.29 5.36v-4.7h3.34zm-3.23-14.54c0-5.52-3.71-9.78-9.07-9.78s-9.13 4.26-9.13 9.78 3.77 9.78 9.13 9.78 9.07-4.26 9.07-9.78z"/><path d="m1838.49 2100.73a3.36 3.36 0 0 1 3.34 3.39 5.34 5.34 0 0 1 -.55 2.07l-3.61 6.62h-3l2.52-5.58a3.24 3.24 0 0 1 -2.08-3.11 3.35 3.35 0 0 1 3.38-3.39z"/><path d="m1438.33 2350.6h-3.56c-2.18-6-7.26-9.73-14.26-9.73-9.51 0-16 7.21-16 16.78s6.5 16.83 16 16.83c7 0 12.08-3.77 14.26-9.73h3.56c-2.46 7.87-9.46 12.69-17.82 12.69-10.77 0-19.4-8.26-19.4-19.79s8.58-19.79 19.4-19.79c8.36 0 15.36 4.87 17.82 12.74z"/><path d="m1458.49 2360.11c0-3.66-2.84-5.14-6.06-5.14a13.15 13.15 0 0 0 -7.44 2.62l-1.58-2.51a15.75 15.75 0 0 1 9.23-3.06c5.74 0 9.19 3.22 9.19 8.2v16.56h-3.34v-3c-1.36 2.41-4.64 3.67-7.54 3.67-5.25 0-8.74-3.07-8.74-7.38s3.17-7 8.14-7h5.79c1.7 0 2.35-.88 2.35-2.19zm0 8.09v-3.34a4.18 4.18 0 0 1 -3.11.93h-4.48c-3.56 0-5.2 1.75-5.2 4.27 0 2.07 1.59 4.53 5.63 4.53 3.67 0 7.16-2.02 7.16-6.39z"/><path d="m1486.64 2360.93c0-3.88-2.52-6-6-6-2.89 0-5.74 1.59-8 4.26v17.55h-3.34v-24.1h3.28v3.44a11 11 0 0 1 8.64-4.1c5.63 0 8.74 3.44 8.74 8.74v16h-3.33z"/><path d="m1519.1 2374.54a8.63 8.63 0 0 0 7.93-4.87l2.84 1.64a12.49 12.49 0 0 1 -23.23-6.56 12.35 12.35 0 0 1 12.46-12.75 12.2 12.2 0 0 1 10.77 6.12l-2.84 1.64a8.67 8.67 0 0 0 -7.93-4.81c-5.35 0-9.07 4.26-9.07 9.78s3.72 9.81 9.07 9.81z"/><path d="m1547.85 2355.63h-1.64c-4.26 0-7.32 2-7.32 7.65v13.5h-3.28v-24.1h3.17v4.09a7.55 7.55 0 0 1 7.27-4.53c.54 0 1.14.05 1.8.11z"/><path d="m1554 2365.74c.44 5 3.77 8.74 8.8 8.74a8.31 8.31 0 0 0 7.49-4.15h3.88a12.35 12.35 0 0 1 -11.37 7.11c-6.94 0-12.24-5.31-12.24-12.69s5.3-12.73 12.19-12.73c6.28 0 12.13 4.43 12.13 13.61v.11zm.11-2.73h17.05a8.45 8.45 0 0 0 -8.41-8c-4.84-.01-8.07 3.4-8.67 7.99z"/><path d="m1594.8 2360.11c0-3.66-2.84-5.14-6.07-5.14a13.11 13.11 0 0 0 -7.43 2.62l-1.59-2.51a15.76 15.76 0 0 1 9.29-3.08c5.74 0 9.18 3.22 9.18 8.2v16.56h-3.33v-3c-1.37 2.41-4.65 3.67-7.55 3.67-5.24 0-8.74-3.07-8.74-7.38s3.17-7 8.14-7h5.8c1.69 0 2.35-.88 2.35-2.19zm0 8.09v-3.34a4.19 4.19 0 0 1 -3.12.93h-4.48c-3.55 0-5.19 1.75-5.19 4.27 0 2.07 1.58 4.53 5.63 4.53 3.66 0 7.16-2.02 7.16-6.39z"/><path d="m1610.32 2342.51v10.17h6v2.78h-6v16.35c0 2.24 1.58 2.35 3.44 2.35a16.44 16.44 0 0 0 2.52-.17v2.79a33.6 33.6 0 0 1 -3.72.22c-2.52 0-5.58-.66-5.58-5.14v-16.4h-4.15v-2.78h4.17v-10.17z"/><path d="m1622.89 2365.74c.44 5 3.77 8.74 8.8 8.74a8.31 8.31 0 0 0 7.49-4.15h3.88a12.37 12.37 0 0 1 -11.37 7.11c-6.94 0-12.24-5.31-12.24-12.69s5.3-12.73 12.18-12.73c6.29 0 12.14 4.43 12.14 13.61v.11zm.11-2.73h17a8.46 8.46 0 0 0 -8.42-8c-4.76-.01-7.98 3.4-8.58 7.99z"/><path d="m1660.71 2338.52h3.11l-12.82 38.26h-3.22z"/><path d="m1688.2 2357.38v-18.86h3.34v38.26h-3.34v-4.59a10.25 10.25 0 0 1 -9.18 5.25c-6.94 0-12.24-5.31-12.24-12.69s5.22-12.75 12.13-12.75c4.15 0 7.87 2.37 9.29 5.38zm-9 17.16c5.35 0 9.12-4.26 9.12-9.79s-3.77-9.78-9.12-9.78-9.08 4.26-9.08 9.78 3.76 9.79 9.12 9.79z"/><path d="m1711.54 2355.63h-1.64c-4.27 0-7.33 2-7.33 7.65v13.5h-3.28v-24.1h3.17v4.09a7.57 7.57 0 0 1 7.27-4.53c.55 0 1.15.05 1.81.11z"/><path d="m1726.62 2352a12.71 12.71 0 1 1 -12.46 12.73 12.4 12.4 0 0 1 12.46-12.73zm0 2.95c-5.35 0-9.07 4.26-9.07 9.78s3.72 9.79 9.07 9.79 9.13-4.26 9.13-9.79-3.75-9.73-9.13-9.73z"/><path d="m1748.48 2372.24v14.1h-3.33v-33.66h3.33v4.7c1.42-3 5.14-5.36 9.29-5.36 6.89 0 12.14 5.36 12.14 12.73s-5.3 12.69-12.24 12.69a10.33 10.33 0 0 1 -9.19-5.2zm9-17.27c-5.36 0-9.13 4.26-9.13 9.78s3.77 9.79 9.13 9.79 9.07-4.26 9.07-9.79-3.75-9.75-9.1-9.75z"/><path d="m1790.78 2342.51v10.17h6v2.78h-6v16.35c0 2.24 1.59 2.35 3.45 2.35a16.21 16.21 0 0 0 2.51-.17v2.79a33.6 33.6 0 0 1 -3.72.22c-2.51 0-5.57-.66-5.57-5.14v-16.4h-4.16v-2.78h4.16v-10.17z"/><path d="m1816.09 2360.11c0-3.66-2.84-5.14-6.07-5.14a13.14 13.14 0 0 0 -7.43 2.62l-1.59-2.51a15.76 15.76 0 0 1 9.24-3.06c5.74 0 9.18 3.22 9.18 8.2v16.56h-3.33v-3c-1.37 2.41-4.65 3.67-7.54 3.67-5.25 0-8.75-3.07-8.75-7.38s3.17-7 8.14-7h5.8c1.69 0 2.35-.88 2.35-2.19zm0 8.09v-3.34a4.19 4.19 0 0 1 -3.12.93h-4.48c-3.55 0-5.19 1.75-5.19 4.27 0 2.07 1.58 4.53 5.63 4.53 3.66 0 7.16-2.02 7.16-6.39z"/><path d="m1830.24 2372.24v4.54h-3.33v-38.26h3.33v18.86c1.42-3 5.14-5.36 9.3-5.36 6.88 0 12.13 5.36 12.13 12.73s-5.3 12.69-12.24 12.69a10.33 10.33 0 0 1 -9.19-5.2zm9-17.27c-5.36 0-9.13 4.26-9.13 9.78s3.77 9.79 9.13 9.79 9.07-4.26 9.07-9.79-3.75-9.75-9.1-9.75z"/><path d="m1861.07 2376.78h-3.34v-38.26h3.34z"/><path d="m1870.58 2365.74c.43 5 3.77 8.74 8.8 8.74a8.29 8.29 0 0 0 7.48-4.15h3.88a12.35 12.35 0 0 1 -11.36 7.11c-7 0-12.25-5.31-12.25-12.69s5.3-12.73 12.19-12.73c6.29 0 12.14 4.43 12.14 13.61v.11zm.11-2.73h17a8.46 8.46 0 0 0 -8.42-8c-4.76-.01-7.98 3.4-8.58 7.99z"/><path d="m1908.83 2370.38c0-2.4-2-3.44-5.41-4.7l-1.36-.49c-3.67-1.31-6.13-3.17-6.13-6.67 0-4 3.56-6.5 8.26-6.5a12.27 12.27 0 0 1 7.81 2.79l-1.8 2.51a11 11 0 0 0 -6.12-2.4c-2.68 0-4.7 1.36-4.7 3.44 0 1.53 1.09 2.73 3.55 3.66l2.79 1c4.64 1.8 6.56 3.83 6.56 7.38 0 3.11-2.68 7-8.86 7a14.43 14.43 0 0 1 -8.47-3l1.75-2.51a11.55 11.55 0 0 0 6.83 2.56c3.28.03 5.3-1.83 5.3-4.07z"/><path d="m1933.37 2376.78h-3.37v-21.32h-3.83v-2.78h7.16zm-1.91-35.75a2.9 2.9 0 1 1 -2.9 2.9 2.93 2.93 0 0 1 2.9-2.93z"/><path d="m1958.46 2360.93c0-3.88-2.52-6-6-6-2.9 0-5.74 1.59-8 4.26v17.55h-3.34v-24.1h3.28v3.44a11 11 0 0 1 8.64-4.1c5.63 0 8.74 3.44 8.74 8.74v16h-3.33z"/><path d="m1982.56 2349.94a3.34 3.34 0 0 1 -3.34-3.33 4.91 4.91 0 0 1 .55-2.08l3.61-6.67h2.95l-2.51 5.58a3.38 3.38 0 0 1 2.07 3.17 3.34 3.34 0 0 1 -3.33 3.33z"/><path d="m2013.17 2361.69v15.09h-3.34v-16c0-3.71-2.29-5.79-5.74-5.79-2.84 0-5.41 1.59-7.7 4.26v17.55h-3.34v-24.1h3.28v3.44a10.24 10.24 0 0 1 8.2-4.1c4 0 6.72 1.8 7.87 4.65 2.62-3.17 5.47-4.65 9-4.65 5.69 0 8.59 3.44 8.59 8.74v16h-3.34v-16c0-3.71-2.29-5.79-5.68-5.79-2.9 0-5.52 1.64-7.87 4.37.01.75.07 1.57.07 2.33z"/><path d="m2051.7 2360.11c0-3.66-2.85-5.14-6.07-5.14a13.11 13.11 0 0 0 -7.43 2.62l-1.59-2.51a15.76 15.76 0 0 1 9.24-3.06c5.74 0 9.18 3.22 9.18 8.2v16.56h-3.33v-3c-1.37 2.41-4.65 3.67-7.55 3.67-5.24 0-8.74-3.07-8.74-7.38s3.17-7 8.14-7h5.8c1.69 0 2.35-.88 2.35-2.19zm0 8.09v-3.34a4.21 4.21 0 0 1 -3.12.93h-4.48c-3.55 0-5.19 1.75-5.19 4.27 0 2.07 1.58 4.53 5.63 4.53 3.66 0 7.16-2.02 7.16-6.39z"/><path d="m2074.76 2355.63h-1.64c-4.26 0-7.32 2-7.32 7.65v13.5h-3.28v-24.1h3.17v4.09a7.55 7.55 0 0 1 7.27-4.53c.54 0 1.14.05 1.8.11z"/><path d="m2083.12 2362h3.12l9.29-9.34h4.47l-11.09 10.76 11.69 13.34h-4.43l-10.11-11.86h-3v11.86h-3.33v-38.26h3.33z"/><path d="m2105.53 2365.74c.44 5 3.77 8.74 8.8 8.74a8.31 8.31 0 0 0 7.49-4.15h3.88a12.37 12.37 0 0 1 -11.37 7.11c-6.94 0-12.25-5.31-12.25-12.69s5.31-12.73 12.19-12.73c6.29 0 12.14 4.43 12.14 13.61v.11zm.11-2.73h17.05a8.46 8.46 0 0 0 -8.42-8c-4.81-.01-8.03 3.4-8.63 7.99z"/><path d="m2136.79 2342.51v10.17h6v2.78h-6v16.35c0 2.24 1.58 2.35 3.44 2.35a16.44 16.44 0 0 0 2.52-.17v2.79a33.6 33.6 0 0 1 -3.72.22c-2.51 0-5.57-.66-5.57-5.14v-16.4h-4.16v-2.78h4.16v-10.17z"/><path d="m2152 2376.78h-3.34v-21.32h-3.82v-2.78h7.16zm-1.92-35.75a2.9 2.9 0 1 1 -2.89 2.9 2.92 2.92 0 0 1 2.93-2.93z"/><path d="m2177.12 2360.93c0-3.88-2.51-6-5.95-6-2.9 0-5.74 1.59-8 4.26v17.55h-3.33v-24.1h3.28v3.44a10.92 10.92 0 0 1 8.63-4.1c5.63 0 8.75 3.44 8.75 8.74v16h-3.34z"/><path d="m2211 2379.29c0 3.94-1.8 7.05-7.11 7.05h-9.12v-2.78h8.74c2.3 0 4.16-.71 4.16-3.5v-7.87a10.27 10.27 0 0 1 -9.19 5.25c-6.94 0-12.24-5.31-12.24-12.69s5.25-12.73 12.13-12.73c4.16 0 7.87 2.35 9.3 5.36v-4.7h3.33zm-3.23-14.54c0-5.52-3.71-9.78-9.07-9.78s-9.13 4.26-9.13 9.78 3.78 9.79 9.13 9.79 9.08-4.26 9.08-9.79z"/><path d="m2222 2337.86a3.36 3.36 0 0 1 3.34 3.39 5.39 5.39 0 0 1 -.55 2.08l-3.61 6.61h-3l2.52-5.57a3.25 3.25 0 0 1 -2.08-3.12 3.35 3.35 0 0 1 3.38-3.39z"/><path d="m827.48 2465.1h-20.87v9h12.19v6.5h-12.19v9.72h20.88v6.5h-28.49v-38.26h28.47z"/><path d="m864.82 2482.09c0-3.06-2-4.37-4.16-4.37a6.83 6.83 0 0 0 -5.19 2.84v16.24h-7.11v-14.7c0-3-1.92-4.38-4.16-4.38a6.81 6.81 0 0 0 -5.19 2.85v16.23h-7.1v-25h6.94v1c0 .88-.1 2-.1 2a9.66 9.66 0 0 1 7.48-3.61c3.72 0 6.62 1.58 8 4.53a10.06 10.06 0 0 1 8.41-4.53c5.42 0 9.24 3.44 9.24 9.29v16.39h-7.11z"/><path d="m884.88 2506.36h-7.11v-34.6h7.1v1.2c0 1.2-.11 1.75-.11 2 1.2-2.13 4.16-3.88 7.93-3.88 6.88 0 12.13 5.52 12.13 13.17s-5.29 13.17-12.18 13.17c-3.55 0-6.51-1.69-7.76-3.82zm-.17-22.09c0 3.83 2.63 6.89 6.4 6.89s6.39-3.06 6.39-6.89-2.63-6.83-6.4-6.83-6.39 2.95-6.39 6.83z"/><path d="m916.47 2496.78h-7.05v-38.26h7.05z"/><path d="m921 2484.26a13.39 13.39 0 1 1 13.39 13.17 13 13 0 0 1 -13.39-13.17zm7.1 0c0 3.88 2.58 6.83 6.29 6.83s6.23-3 6.23-6.83-2.57-6.83-6.23-6.83-6.29 2.9-6.29 6.83z"/><path d="m959.48 2496.77h-1.8l-8.59-25h7.91l5.31 17.82 5.35-17.82h7.71l-10 29c-1.25 3.66-3.22 5.63-7.81 5.63h-4.92v-6h3.5a2.6 2.6 0 0 0 2.78-2z"/><path d="m1002.76 2486.32h-18.64a6 6 0 0 0 10.77 2.46l7.38.76c-2.24 5.35-6.94 7.87-12.51 7.87a12.77 12.77 0 0 1 -13.12-13.17c0-7.65 5.51-13.17 13-13.17 6.89 0 13.12 4.48 13.12 15zm-18.8-4.75h11.2a5.43 5.43 0 0 0 -5.52-4.59 5.58 5.58 0 0 0 -5.64 4.59z"/><path d="m1031.51 2486.32h-18.64a5.95 5.95 0 0 0 10.77 2.46l7.38.76c-2.24 5.36-6.94 7.87-12.52 7.88a12.78 12.78 0 0 1 -13.12-13.17c0-7.66 5.52-13.18 13-13.18 6.89 0 13.12 4.48 13.12 15zm-18.8-4.75h11.2a5.43 5.43 0 0 0 -5.52-4.59 5.58 5.58 0 0 0 -5.68 4.59z"/><path d="m1050.47 2479.37a9.11 9.11 0 0 0 -6.18-2.57c-1.85 0-2.51.93-2.51 1.7s.55 1.47 1.86 1.91l4.15 1.31c5.14 1.7 6.89 4.48 6.89 7.76 0 3.66-3.11 7.93-9.94 7.93a16.2 16.2 0 0 1 -11-3.93l3.77-4.92a12.43 12.43 0 0 0 7.38 3.11c1.7 0 2.74-.88 2.74-1.86 0-1.26-.82-1.8-2.85-2.4l-4.26-1.26c-4-1.31-5.79-4-5.79-7.32 0-4.1 3.71-7.76 9.72-7.77a15 15 0 0 1 10.12 3.72z"/><path d="m585.48 872.1h-20.87v9h12.19v6.5h-12.19v9.72h20.88v6.5h-28.49v-38.27h28.47z"/><path d="m622.82 889.09c0-3.06-2-4.37-4.16-4.37a6.83 6.83 0 0 0 -5.19 2.84v16.24h-7.11v-14.7c0-3-1.92-4.38-4.16-4.38a6.81 6.81 0 0 0 -5.19 2.85v16.23h-7.1v-25h6.94v1c0 .88-.1 2-.1 2a9.66 9.66 0 0 1 7.48-3.61c3.72 0 6.62 1.58 8 4.53a10.06 10.06 0 0 1 8.41-4.53c5.42 0 9.24 3.44 9.24 9.29v16.39h-7.11z"/><path d="m642.88 913.36h-7.11v-34.6h7.1v1.24c0 1.2-.11 1.75-.11 2 1.2-2.13 4.16-3.88 7.93-3.88 6.88 0 12.13 5.52 12.13 13.17s-5.29 13.17-12.18 13.17c-3.55 0-6.51-1.69-7.76-3.82zm-.17-22.09c0 3.83 2.63 6.89 6.4 6.89s6.39-3.06 6.39-6.89-2.63-6.83-6.4-6.83-6.39 2.95-6.39 6.83z"/><path d="m674.47 903.78h-7.05v-38.26h7.05z"/><path d="m679 891.26a13.39 13.39 0 1 1 13.39 13.17 13 13 0 0 1 -13.39-13.17zm7.1 0c0 3.88 2.58 6.83 6.29 6.83s6.23-3 6.23-6.83-2.57-6.83-6.23-6.83-6.29 2.9-6.29 6.83z"/><path d="m717.48 903.77h-1.8l-8.59-25h7.91l5.31 17.82 5.35-17.82h7.71l-10 29c-1.25 3.66-3.22 5.63-7.81 5.63h-4.92v-6h3.5a2.6 2.6 0 0 0 2.78-2z"/><path d="m760.76 893.32h-18.64a6 6 0 0 0 10.77 2.46l7.38.76c-2.24 5.35-6.94 7.87-12.51 7.87a12.77 12.77 0 0 1 -13.12-13.17c0-7.65 5.51-13.17 13-13.17 6.89 0 13.12 4.48 13.12 15zm-18.76-4.75h11.2a5.43 5.43 0 0 0 -5.52-4.59 5.58 5.58 0 0 0 -5.68 4.59z"/><path d="m789.51 893.32h-18.64a5.95 5.95 0 0 0 10.77 2.46l7.38.76c-2.24 5.36-6.94 7.87-12.52 7.88a12.78 12.78 0 0 1 -13.12-13.17c0-7.66 5.52-13.18 13-13.18 6.89 0 13.12 4.48 13.12 15zm-18.8-4.75h11.2a5.43 5.43 0 0 0 -5.52-4.59 5.58 5.58 0 0 0 -5.68 4.59z"/><path d="m808.47 886.37a9.11 9.11 0 0 0 -6.18-2.57c-1.85 0-2.51.93-2.51 1.7s.55 1.47 1.86 1.91l4.15 1.31c5.14 1.7 6.89 4.48 6.89 7.76 0 3.66-3.11 7.93-9.94 7.93a16.2 16.2 0 0 1 -11-3.93l3.77-4.92a12.43 12.43 0 0 0 7.38 3.11c1.7 0 2.74-.88 2.74-1.86 0-1.26-.82-1.8-2.85-2.4l-4.26-1.26c-4-1.31-5.79-4-5.79-7.32 0-4.1 3.71-7.76 9.72-7.77a15 15 0 0 1 10.12 3.72z"/><path d="m795.61 1090.61-7.55-18.86v27.06h-7.38v-38.26h10.72l8.36 21.7 8.52-21.7h10.22v38.26h-7.5v-27l-7.31 18.85z"/><path d="m839 1082.12c0-1.8-1.42-2.95-4.16-2.95a17 17 0 0 0 -7.54 2.36l-2.79-5.36a21.45 21.45 0 0 1 10.72-3.06c5.68 0 10.87 2.62 10.87 9.23v16.45h-7.1v-2.35c-1.31 2-4.15 3-7 3-5.3 0-8.75-3.77-8.75-7.87 0-4.75 3.5-7.7 9.07-7.7h4.92c1.2 0 1.75-.54 1.75-1.47zm0 7.71v-1.83a3.12 3.12 0 0 1 -2.18.54h-2.68c-2.24 0-3.56 1-3.56 2.74s1.37 3 3.56 3c2.52-.02 4.86-1.28 4.86-4.45z"/><path d="m867.26 1080.75h-3c-3.6 0-5.24 1.7-5.24 6.07v12h-7.1v-25h6.89v4a6.58 6.58 0 0 1 6.5-4.32 8.25 8.25 0 0 1 2 .21z"/><path d="m878.3 1082.44h1.7l6.89-8.69h8.58l-9.67 11.48 10 13.55h-8.53l-7.27-10.33h-1.7v10.33h-7v-38.26h7z"/><path d="m922.24 1088.33h-18.63a5.94 5.94 0 0 0 10.76 2.46l7.38.76c-2.24 5.36-6.94 7.87-12.51 7.87a12.76 12.76 0 0 1 -13.12-13.17c0-7.65 5.51-13.17 13-13.17 6.89 0 13.12 4.48 13.12 15zm-18.8-4.75h11.2a5.43 5.43 0 0 0 -5.52-4.59 5.59 5.59 0 0 0 -5.68 4.59z"/><path d="m935.41 1064.23v9.51h5.41v6h-5.41v11.31c0 1.59 1.26 1.81 2.35 1.81a31.87 31.87 0 0 0 3.28-.17v6.07s-3.44.33-5.52.33c-3.55 0-7.21-.6-7.21-5.63v-13.72h-3.94v-6h3.93v-9.51z"/><path d="m954.33 1098.77h-7.11v-19h-3.5v-6h10.6zm-3.89-38.26a4.58 4.58 0 0 1 4.59 4.59 4.57 4.57 0 0 1 -9.13 0 4.57 4.57 0 0 1 4.54-4.59z"/><path d="m974.92 1073.07c5.41 0 9.3 3.45 9.3 9.29v16.4h-7.1v-14.59c0-3.17-2-4.48-4.26-4.48a6.93 6.93 0 0 0 -5.3 2.84v16.23h-7.1v-25h6.94v1c0 .87-.11 2-.11 2a9.85 9.85 0 0 1 7.63-3.69z"/><path d="m1015.42 1073.72v26.89c0 3.94-2 7.71-8 7.71h-10.9v-6h9.13c1.25 0 2.67-.33 2.67-2.24v-4.81c-1.2 2-4.21 3.77-7.76 3.77-6.78 0-12-5.13-12-13s5.19-13 12-13c3.77 0 6.67 1.75 7.93 3.88 0-.28-.11-.77-.11-2.08v-1.15zm-13.27 19.19c3.77 0 6.34-2.79 6.33-6.84s-2.57-6.88-6.34-6.88-6.28 2.79-6.28 6.89 2.57 6.83 6.29 6.83z"/><path d="m451.4 641.7c-2.35-2.3-5.41-3.94-8.09-3.94-2.52 0-4.81 1.32-4.81 3.61 0 1.75 1.09 3.12 4.15 4.54l3.17 1.47c6.07 2.84 9.73 6 9.73 11.75s-4.86 11.32-13.27 11.32a18.83 18.83 0 0 1 -13.72-5.74l4.2-5.68c2.85 2.89 6.45 4.53 9.35 4.53 3.28 0 5.3-1.8 5.3-4.15 0-2.63-2.35-4.1-6-5.8l-2.68-1.25c-5.14-2.41-8.37-5.9-8.37-10.71 0-6.73 6-10.77 12.79-10.77 4.43 0 9 2.18 12.63 5.35z"/><path d="m474.14 653.11c0-1.8-1.43-3-4.16-3a17.07 17.07 0 0 0 -7.54 2.35l-2.79-5.35a21.44 21.44 0 0 1 10.71-3.06c5.69 0 10.88 2.62 10.88 9.23v16.45h-7.11v-2.35c-1.31 2-4.15 3-7 3-5.3 0-8.74-3.77-8.74-7.87 0-4.75 3.49-7.7 9.07-7.71h4.92c1.2 0 1.75-.54 1.75-1.47zm0 7.71v-1.82a3.13 3.13 0 0 1 -2.19.54h-2.68c-2.24 0-3.55 1-3.55 2.74s1.37 3 3.55 3c2.57-.03 4.87-1.34 4.87-4.46z"/><path d="m494.14 669.78h-7.05v-38.26h7.05z"/><path d="m524.8 659.33h-18.64a5.95 5.95 0 0 0 10.77 2.45l7.38.77c-2.24 5.35-6.94 7.87-12.51 7.87a12.78 12.78 0 0 1 -13.13-13.17c0-7.65 5.52-13.17 13-13.17 6.89 0 13.12 4.48 13.12 15zm-18.8-4.75h11.2a5.42 5.42 0 0 0 -5.52-4.59 5.57 5.57 0 0 0 -5.68 4.59z"/><path d="m543.76 652.39a9.09 9.09 0 0 0 -6.17-2.57c-1.86 0-2.52.93-2.52 1.69s.55 1.48 1.86 1.92l4.15 1.31c5.14 1.69 6.89 4.48 6.89 7.76 0 3.66-3.11 7.92-9.94 7.92a16.05 16.05 0 0 1 -11-3.93l3.77-4.92a12.35 12.35 0 0 0 7.38 3.12c1.69 0 2.73-.88 2.73-1.86 0-1.26-.82-1.81-2.84-2.41l-4.27-1.25c-4-1.31-5.79-4-5.79-7.33 0-4.09 3.71-7.76 9.72-7.76a15 15 0 0 1 10.12 3.71z"/><path d="m265.59 449.74v.1c4.43 1.81 7.11 5 7.11 9.46 0 6.12-4.54 11-12.63 11h-13.61v-38.3h12.35c7.87 0 11.81 4.86 11.81 9.78a8.45 8.45 0 0 1 -5.03 7.96zm-11.54-11.26v8.52h3.88c2.73 0 5-1.36 5-4.32s-2.35-4.2-5-4.2zm0 25.41h3.95c4.59 0 6.77-2.13 6.77-5.25s-2.68-4.86-6.39-4.86h-4.32z"/><path d="m275.81 457.77a13.39 13.39 0 1 1 13.39 13.17 13 13 0 0 1 -13.39-13.17zm7.11 0c0 3.88 2.57 6.83 6.28 6.83s6.23-3 6.23-6.84-2.57-6.83-6.23-6.83-6.29 2.9-6.28 6.84z"/><path d="m314.23 470.27h-7.1v-38.27h7.11v12.36c0 1.64-.11 3.39-.11 4.1 1.2-2.14 4.15-3.89 7.92-3.89 6.89 0 12.14 5.52 12.14 13.17s-5.3 13.18-12.18 13.18c-3.56 0-6.51-1.69-7.77-3.83zm-.16-12.51c0 3.82 2.62 6.88 6.39 6.88s6.4-3.06 6.4-6.89-2.63-6.83-6.4-6.83-6.39 2.96-6.39 6.84z"/><path d="m561.13 2193.67-7.55-18.86v27.06h-7.38v-38.26h10.71l8.37 21.69 8.52-21.7h10.2v38.26h-7.54v-27.05l-7.32 18.86z"/><path d="m604.47 2185.19c0-1.81-1.42-3-4.16-3a17 17 0 0 0 -7.54 2.36l-2.79-5.36a21.44 21.44 0 0 1 10.71-3.06c5.69 0 10.88 2.62 10.88 9.23v16.45h-7.11v-2.36c-1.31 2-4.15 3-7 3-5.31 0-8.75-3.77-8.75-7.87 0-4.75 3.49-7.7 9.07-7.7h4.92c1.2 0 1.75-.54 1.75-1.47zm0 7.7v-1.8a3.08 3.08 0 0 1 -2.19.54h-2.68c-2.24 0-3.55 1-3.55 2.73s1.37 3 3.56 3c2.57-.04 4.86-1.36 4.86-4.47z"/><path d="m632.78 2183.81h-3c-3.61 0-5.24 1.7-5.24 6.07v12h-7.11v-25h6.88v4a6.58 6.58 0 0 1 6.5-4.32 7.83 7.83 0 0 1 2 .22z"/><path d="m643.82 2185.5h1.69l6.89-8.69h8.6l-9.67 11.48 10 13.55h-8.53l-7.22-10.32h-1.69v10.33h-7.05v-38.26h7z"/><path d="m687.76 2191.4h-18.64a5.95 5.95 0 0 0 10.77 2.46l7.38.76c-2.24 5.36-6.94 7.87-12.51 7.88a12.78 12.78 0 0 1 -13.13-13.17c0-7.66 5.52-13.18 13-13.18 6.89 0 13.12 4.48 13.12 15zm-18.8-4.75h11.2a5.43 5.43 0 0 0 -5.52-4.59 5.58 5.58 0 0 0 -5.64 4.59z"/><path d="m700.93 2167.29v9.51h5.41v6h-5.41v11.32c0 1.58 1.26 1.8 2.35 1.8a31.87 31.87 0 0 0 3.28-.17v6.07s-3.44.33-5.52.33c-3.55 0-7.21-.6-7.21-5.63v-13.72h-3.93v-6h3.93v-9.51z"/><path d="m719.84 2201.83h-7.1v-19h-3.49v-6h10.61zm-3.84-38.26a4.59 4.59 0 0 1 4.59 4.59 4.57 4.57 0 0 1 -9.13 0 4.57 4.57 0 0 1 4.54-4.59z"/><path d="m740.44 2176.13c5.41 0 9.29 3.45 9.3 9.29v16.4h-7.11v-14.59c0-3.17-2-4.48-4.26-4.48a6.93 6.93 0 0 0 -5.3 2.84v16.24h-7.07v-25h6.94v1c0 .87-.11 2-.11 2a9.89 9.89 0 0 1 7.61-3.7z"/><path d="m780.94 2176.78v26.89c0 3.94-2 7.71-8 7.71h-10.94v-6h9.12c1.26 0 2.68-.33 2.68-2.24v-4.81c-1.2 2-4.21 3.77-7.76 3.77-6.78 0-12-5.13-12-13s5.19-13 12-13c3.77 0 6.67 1.75 7.93 3.88 0-.28-.11-.77-.11-2.08v-1.15zm-13.28 19.22c3.77 0 6.34-2.79 6.34-6.84s-2.57-6.88-6.34-6.88-6.28 2.79-6.28 6.89 2.62 6.83 6.28 6.83z"/><path d="m387.34 1924.06h-8.2l-3.28-10.44h-11.53l-3.06 10.44h-8l12.34-38.27h9.07zm-17.23-30.06h-.11l-3.87 13.12h7.81z"/><path d="m397.89 1924.06h-7.06v-38.26h7.05z"/><path d="m412.59 1924.05h-7.11v-19h-3.48v-6h10.6zm-3.89-38.26a4.58 4.58 0 0 1 4.59 4.59 4.57 4.57 0 0 1 -9.13 0 4.57 4.57 0 0 1 4.54-4.59z"/><path d="m424.22 1911.53c0 3.94 2.57 6.83 6.29 6.83a5.73 5.73 0 0 0 5.52-3.82l6.67 2.07c-1.64 5-6.56 8.09-12.24 8.09a13.17 13.17 0 1 1 0-26.34c5.69 0 10.61 3.17 12.25 8.14l-6.67 2a5.81 5.81 0 0 0 -5.52-3.82c-3.73.02-6.3 2.92-6.3 6.85z"/><path d="m471.45 1913.6h-18.64a5.95 5.95 0 0 0 10.77 2.46l7.38.76c-2.24 5.36-6.94 7.88-12.52 7.88a12.77 12.77 0 0 1 -13.12-13.17c0-7.65 5.52-13.18 13-13.18 6.88 0 13.11 4.48 13.12 15zm-18.81-4.75h11.21a5.44 5.44 0 0 0 -5.52-4.6 5.6 5.6 0 0 0 -5.69 4.6z"/><path d="m990.22 2359.14 295.86-.06" fill="none" stroke="#000" stroke-linecap="round" stroke-linejoin="round" stroke-width="6"/><path d="m723.45 2052.2 562.56-.13" fill="none" stroke="#000" stroke-linecap="round" stroke-linejoin="round" stroke-width="6"/><path d="m442.11 1792.43 843.84-.2" fill="none" stroke="#000" stroke-linecap="round" stroke-linejoin="round" stroke-width="6"/><path d="m76.03 1556.54 2191.91-.19" fill="none" stroke="#000" stroke-linecap="round" stroke-linejoin="round" stroke-width="6"/><path d="m879.5 67.63v.17c6.5 2.65 10.5 7.39 10.5 13.9 0 9-6.68 16.16-18.57 16.16h-20v-56.27h18.17c11.57 0 17.36 7.16 17.36 14.39a12.41 12.41 0 0 1 -7.46 11.65zm-17-16.55v12.54h5.7c4 0 7.32-2 7.32-6.35s-3.46-6.19-7.32-6.19zm0 37.37h5.78c6.76 0 10-3.13 10-7.71 0-4.74-3.94-7.16-9.4-7.16h-6.35z"/><path d="m894.53 79.45c0-11.25 8.76-19.37 19.69-19.37s19.69 8.12 19.69 19.37-8.76 19.37-19.69 19.37-19.69-8.11-19.69-19.37zm10.45 0c0 5.71 3.77 10 9.24 10s9.16-4.34 9.16-10-3.77-10-9.16-10-9.22 4.21-9.22 10z"/><path d="m951 97.86h-10.42v-56.27h10.42v18.17c0 2.41-.16 5-.16 6 1.77-3.14 6.11-5.71 11.66-5.71 10.13 0 17.84 8.12 17.84 19.37s-7.79 19.37-17.92 19.37c-5.23 0-9.57-2.49-11.42-5.62zm-.24-18.41c0 5.63 3.86 10.13 9.41 10.13s9.4-4.5 9.4-10.13-3.86-10-9.4-10-9.38 4.29-9.38 10z"/><path d="m993.47 40.63a7.19 7.19 0 0 1 7.32 7.07 10.2 10.2 0 0 1 -1 4.1l-6.35 11.82h-8.52l4.59-10.21a6.61 6.61 0 0 1 -3-5.71 7 7 0 0 1 6.96-7.07z"/><path d="m1028 72.3a13.37 13.37 0 0 0 -9.08-3.78c-2.74 0-3.7 1.37-3.7 2.49 0 1.29.8 2.17 2.73 2.82l6.11 1.92c7.56 2.5 10.13 6.6 10.13 11.42 0 5.38-4.58 11.65-14.63 11.65a23.78 23.78 0 0 1 -16.2-5.82l5.55-7.24c2.65 2.49 7.39 4.58 10.85 4.58 2.49 0 4-1.28 4-2.73 0-1.85-1.21-2.65-4.18-3.54l-6.27-1.85c-6-1.92-8.52-5.94-8.52-10.77 0-6 5.47-11.41 14.31-11.41a22 22 0 0 1 14.9 5.5z"/><path d="m1069.43 97.86h-11.09v-56.27h19.05c13.27 0 20.26 8.28 20.26 18.49s-7 18.73-20.26 18.73h-8zm0-46.62v18h6.27c6.11 0 10.53-2.89 10.53-9.16s-4.42-8.84-10.53-8.84z"/><path d="m1137.52 82.51h-27.41a8.74 8.74 0 0 0 15.83 3.61l10.85 1.13c-3.29 7.88-10.21 11.57-18.41 11.57-11 0-19.29-8.11-19.29-19.37s8.12-19.37 19.13-19.37c10.13 0 19.3 6.59 19.3 22zm-27.66-7h16.48a8 8 0 0 0 -8.12-6.75 8.21 8.21 0 0 0 -8.36 6.75z"/><path d="m1166.29 71.33h-4.42c-5.31 0-7.72 2.5-7.72 8.93v17.6h-10.45v-36.86h10.13v5.87a9.7 9.7 0 0 1 9.57-6.35 11.86 11.86 0 0 1 2.89.32z"/><path d="m1220.55 76.24c0-4.51-2.9-6.43-6.11-6.43-3 0-5.63 1.68-7.64 4.18v23.87h-10.45v-21.62c0-4.42-2.81-6.43-6.11-6.43-3 0-5.62 1.68-7.63 4.18v23.87h-10.45v-36.86h10.21v1.45c0 1.29-.16 2.89-.16 2.89a14.26 14.26 0 0 1 11-5.3c5.46 0 9.72 2.33 11.81 6.67 3.06-4.26 7.24-6.67 12.38-6.67 8 0 13.59 5.06 13.59 13.66v24.16h-10.45z"/><path d="m1252.22 97.86h-10.45v-28h-5.15v-8.86h15.6zm-5.71-56.27a6.74 6.74 0 0 1 6.75 6.75 6.71 6.71 0 0 1 -13.42 0 6.72 6.72 0 0 1 6.67-6.75z"/><path d="m1282.92 72.3a13.37 13.37 0 0 0 -9.08-3.78c-2.73 0-3.7 1.37-3.7 2.49 0 1.29.8 2.17 2.73 2.82l6.11 1.92c7.56 2.5 10.13 6.6 10.13 11.42 0 5.38-4.58 11.65-14.63 11.65a23.78 23.78 0 0 1 -16.24-5.82l5.55-7.24c2.65 2.49 7.4 4.58 10.85 4.58 2.49 0 4-1.28 4-2.73 0-1.85-1.2-2.65-4.18-3.54l-6.27-1.85c-6-1.92-8.52-5.94-8.52-10.77 0-6 5.47-11.41 14.31-11.41a22 22 0 0 1 14.87 5.46z"/><path d="m1317.48 72.3a13.37 13.37 0 0 0 -9.08-3.78c-2.73 0-3.7 1.37-3.7 2.49 0 1.29.81 2.17 2.74 2.82l6.11 1.92c7.55 2.5 10.12 6.6 10.12 11.42 0 5.38-4.58 11.65-14.63 11.65a23.75 23.75 0 0 1 -16.23-5.82l5.54-7.24c2.66 2.49 7.4 4.58 10.86 4.58 2.49 0 4-1.28 4-2.73 0-1.85-1.2-2.65-4.18-3.54l-6.27-1.85c-5.94-1.92-8.52-5.94-8.52-10.77 0-6 5.47-11.41 14.31-11.41a22 22 0 0 1 14.87 5.46z"/><path d="m1343 97.86h-10.45v-28h-5.14v-8.86h15.59zm-5.7-56.27a6.75 6.75 0 0 1 6.75 6.75 6.72 6.72 0 0 1 -13.43 0 6.73 6.73 0 0 1 6.64-6.75z"/><path d="m1349.63 79.45c0-11.25 8.77-19.37 19.7-19.37s19.67 8.12 19.67 19.37-8.76 19.37-19.69 19.37-19.68-8.11-19.68-19.37zm10.45 0c0 5.71 3.78 10 9.25 10s9.16-4.34 9.16-10-3.78-10-9.16-10-9.25 4.21-9.25 10z"/><path d="m1417 60.08c8 0 13.67 5.06 13.67 13.66v24.12h-10.45v-21.46c0-4.67-3-6.59-6.27-6.59a10.17 10.17 0 0 0 -7.8 4.18v23.87h-10.45v-36.86h10.21v1.45c0 1.29-.16 2.89-.16 2.89a14.49 14.49 0 0 1 11.25-5.26z"/><path d="m1461 72.3a13.37 13.37 0 0 0 -9.08-3.78c-2.74 0-3.7 1.37-3.7 2.49 0 1.29.8 2.17 2.73 2.82l6.11 1.92c7.56 2.5 10.13 6.6 10.13 11.42 0 5.38-4.58 11.65-14.63 11.65a23.78 23.78 0 0 1 -16.28-5.82l5.55-7.24c2.65 2.49 7.39 4.58 10.85 4.58 2.49 0 4-1.28 4-2.73 0-1.85-1.2-2.65-4.18-3.54l-6.27-1.85c-6-1.92-8.52-5.94-8.52-10.77 0-6 5.47-11.41 14.31-11.41a22 22 0 0 1 14.87 5.46z"/><path d="m76.03 141.54 2191.91-.19" fill="none" stroke="#000" stroke-linecap="round" stroke-linejoin="round" stroke-width="6"/><path d="m1438.33 323.08h-3.55c-2.19-6-7.27-9.73-14.27-9.73-9.51 0-16 7.21-16 16.78s6.5 16.83 16 16.83c7 0 12.08-3.77 14.27-9.73h3.55c-2.46 7.87-9.46 12.68-17.82 12.68-10.77 0-19.4-8.25-19.4-19.78s8.58-19.79 19.4-19.79c8.36 0 15.36 4.87 17.82 12.74z"/><path d="m1458.49 332.59c0-3.66-2.84-5.14-6.06-5.14a13.17 13.17 0 0 0 -7.44 2.62l-1.58-2.51a15.76 15.76 0 0 1 9.24-3.06c5.73 0 9.18 3.22 9.18 8.2v16.56h-3.34v-3c-1.36 2.41-4.64 3.66-7.54 3.66-5.25 0-8.74-3.06-8.74-7.37s3.17-7.06 8.14-7.06h5.79c1.7 0 2.35-.87 2.35-2.18zm0 8.09v-3.34a4.17 4.17 0 0 1 -3.11.93h-4.48c-3.56 0-5.2 1.75-5.2 4.27 0 2.07 1.59 4.53 5.63 4.53 3.67 0 7.16-2.02 7.16-6.39z"/><path d="m1486.64 333.41c0-3.88-2.51-6-6-6-2.89 0-5.74 1.59-8 4.26v17.55h-3.34v-24.07h3.28v3.45a10.93 10.93 0 0 1 8.64-4.1c5.63 0 8.74 3.44 8.74 8.74v16h-3.33z"/><path d="m1519.1 347a8.63 8.63 0 0 0 7.93-4.87l2.84 1.64a12.49 12.49 0 0 1 -23.23-6.56 12.35 12.35 0 0 1 12.46-12.73 12.18 12.18 0 0 1 10.77 6.12l-2.84 1.64a8.67 8.67 0 0 0 -7.93-4.81c-5.35 0-9.07 4.26-9.07 9.78s3.72 9.79 9.07 9.79z"/><path d="m1547.85 328.11h-1.64c-4.26 0-7.32 2-7.32 7.65v13.5h-3.28v-24.11h3.17v4.1a7.55 7.55 0 0 1 7.27-4.53c.54 0 1.15 0 1.8.11z"/><path d="m1554 338.22c.44 5 3.77 8.74 8.8 8.74a8.31 8.31 0 0 0 7.49-4.15h3.88a12.34 12.34 0 0 1 -11.37 7.1c-6.94 0-12.24-5.3-12.24-12.68s5.3-12.73 12.19-12.73c6.28 0 12.13 4.43 12.13 13.61v.11zm.11-2.74h17.05a8.45 8.45 0 0 0 -8.41-8c-4.84-.03-8.07 3.41-8.67 8z"/><path d="m1594.8 332.59c0-3.66-2.84-5.14-6.07-5.14a13.14 13.14 0 0 0 -7.43 2.62l-1.59-2.51a15.76 15.76 0 0 1 9.24-3.06c5.74 0 9.18 3.22 9.18 8.2v16.56h-3.33v-3c-1.37 2.41-4.65 3.66-7.54 3.66-5.25 0-8.75-3.06-8.75-7.37s3.17-7.06 8.14-7.06h5.8c1.69 0 2.35-.87 2.35-2.18zm0 8.09v-3.34a4.19 4.19 0 0 1 -3.12.93h-4.48c-3.55 0-5.19 1.75-5.19 4.27 0 2.07 1.58 4.53 5.63 4.53 3.66 0 7.16-2.02 7.16-6.39z"/><path d="m1610.32 315v10.16h6v2.79h-6v16.34c0 2.25 1.58 2.35 3.44 2.35a17.44 17.44 0 0 0 2.52-.16v2.79a33.6 33.6 0 0 1 -3.72.22c-2.51 0-5.57-.66-5.57-5.14v-16.4h-4.16v-2.79h4.17v-10.16z"/><path d="m1622.89 338.22c.44 5 3.77 8.74 8.8 8.74a8.31 8.31 0 0 0 7.49-4.15h3.88a12.35 12.35 0 0 1 -11.37 7.1c-6.94 0-12.24-5.3-12.24-12.68s5.3-12.73 12.18-12.73c6.29 0 12.14 4.43 12.14 13.61v.11zm.11-2.74h17a8.45 8.45 0 0 0 -8.42-8c-4.75-.03-7.98 3.41-8.58 8z"/><path d="m1664.26 315v10.16h6v2.79h-6v16.34c0 2.25 1.59 2.35 3.45 2.35a17.2 17.2 0 0 0 2.51-.16v2.79a33.6 33.6 0 0 1 -3.72.22c-2.51 0-5.57-.66-5.57-5.14v-16.4h-4.16v-2.79h4.16v-10.16z"/><path d="m1689.57 332.59c0-3.66-2.85-5.14-6.07-5.14a13.11 13.11 0 0 0 -7.43 2.62l-1.59-2.51a15.76 15.76 0 0 1 9.24-3.06c5.74 0 9.18 3.22 9.18 8.2v16.56h-3.33v-3c-1.37 2.41-4.65 3.66-7.55 3.66-5.24 0-8.74-3.06-8.74-7.37s3.17-7.06 8.14-7.06h5.8c1.69 0 2.35-.87 2.35-2.18zm0 8.09v-3.34a4.19 4.19 0 0 1 -3.12.93h-4.45c-3.55 0-5.19 1.75-5.19 4.27 0 2.07 1.58 4.53 5.63 4.53 3.63 0 7.13-2.02 7.13-6.39z"/><path d="m1703.72 344.72v4.54h-3.33v-38.26h3.33v18.85c1.42-3 5.14-5.35 9.29-5.35 6.89 0 12.14 5.35 12.14 12.73s-5.3 12.68-12.25 12.68a10.3 10.3 0 0 1 -9.18-5.19zm9-17.27c-5.36 0-9.13 4.26-9.13 9.78s3.77 9.79 9.13 9.79 9.07-4.27 9.07-9.79-3.79-9.78-9.1-9.78z"/><path d="m1734.55 349.26h-3.34v-38.26h3.34z"/><path d="m1744.05 338.22c.44 5 3.78 8.74 8.8 8.74a8.3 8.3 0 0 0 7.49-4.15h3.88a12.34 12.34 0 0 1 -11.37 7.1c-6.94 0-12.24-5.3-12.24-12.68s5.3-12.73 12.19-12.73c6.28 0 12.13 4.43 12.13 13.61v.11zm.11-2.74h17.06a8.47 8.47 0 0 0 -8.42-8c-4.8-.03-8.04 3.41-8.64 8z"/><path d="m1782.31 342.86c0-2.4-2-3.44-5.41-4.7l-1.37-.49c-3.66-1.31-6.12-3.17-6.12-6.67 0-4 3.55-6.5 8.26-6.5a12.27 12.27 0 0 1 7.81 2.79l-1.8 2.51a10.91 10.91 0 0 0 -6.12-2.41c-2.68 0-4.7 1.37-4.7 3.45 0 1.53 1.09 2.73 3.55 3.66l2.79 1c4.64 1.8 6.55 3.83 6.55 7.38 0 3.11-2.67 7-8.85 7a14.42 14.42 0 0 1 -8.47-3l1.75-2.52a11.5 11.5 0 0 0 6.82 2.64c3.29 0 5.31-1.9 5.31-4.14z"/><path d="m1806.85 349.26h-3.33v-21.32h-3.83v-2.79h7.16zm-1.91-35.75a2.9 2.9 0 1 1 -2.9 2.9 2.91 2.91 0 0 1 2.9-2.9z"/><path d="m1831.94 333.41c0-3.88-2.52-6-6-6-2.9 0-5.74 1.59-8 4.26v17.55h-3.33v-24.07h3.28v3.45a10.93 10.93 0 0 1 8.64-4.1c5.63 0 8.74 3.44 8.74 8.74v16h-3.33z"/><path d="m1856 322.42a3.34 3.34 0 0 1 -3.34-3.33 4.91 4.91 0 0 1 .55-2.08l3.61-6.67h3l-2.52 5.58a3.38 3.38 0 0 1 -1.25 6.5z"/><path d="m1886.64 334.17v15.09h-3.33v-16c0-3.71-2.3-5.79-5.74-5.79-2.84 0-5.41 1.59-7.71 4.26v17.55h-3.33v-24.13h3.28v3.45a10.24 10.24 0 0 1 8.2-4.1c4 0 6.72 1.8 7.87 4.64 2.62-3.17 5.46-4.64 9-4.64 5.69 0 8.58 3.44 8.58 8.74v16h-3.33v-16c0-3.71-2.3-5.79-5.68-5.79-2.9 0-5.53 1.64-7.88 4.37.02.77.07 1.59.07 2.35z"/><path d="m1925.17 332.59c0-3.66-2.84-5.14-6.06-5.14a13.17 13.17 0 0 0 -7.44 2.62l-1.58-2.51a15.76 15.76 0 0 1 9.24-3.06c5.74 0 9.18 3.22 9.18 8.2v16.56h-3.34v-3c-1.36 2.41-4.64 3.66-7.54 3.66-5.25 0-8.74-3.06-8.74-7.37s3.17-7.06 8.14-7.06h5.79c1.7 0 2.35-.87 2.35-2.18zm0 8.09v-3.34a4.17 4.17 0 0 1 -3.11.93h-4.48c-3.56 0-5.2 1.75-5.2 4.27 0 2.07 1.59 4.53 5.63 4.53 3.67 0 7.16-2.02 7.16-6.39z"/><path d="m1948.24 328.11h-1.64c-4.27 0-7.33 2-7.33 7.65v13.5h-3.27v-24.11h3.17v4.1a7.55 7.55 0 0 1 7.26-4.53c.55 0 1.15 0 1.81.11z"/><path d="m1956.6 334.5h3.11l9.3-9.35h4.48l-11.1 10.77 11.7 13.34h-4.43l-10.11-11.86h-3v11.86h-3.33v-38.26h3.33z"/><path d="m1979 338.22c.43 5 3.77 8.74 8.8 8.74a8.29 8.29 0 0 0 7.48-4.15h3.88a12.34 12.34 0 0 1 -11.36 7.1c-6.94 0-12.25-5.3-12.25-12.68s5.31-12.73 12.19-12.73c6.29 0 12.14 4.43 12.14 13.61v.11zm.11-2.74h17.05a8.45 8.45 0 0 0 -8.42-8c-4.8-.03-8.02 3.41-8.62 8z"/><path d="m2010.27 315v10.16h6v2.79h-6v16.34c0 2.25 1.58 2.35 3.44 2.35a17.44 17.44 0 0 0 2.52-.16v2.79a33.6 33.6 0 0 1 -3.72.22c-2.52 0-5.58-.66-5.58-5.14v-16.4h-4.15v-2.79h4.15v-10.16z"/><path d="m2025.52 349.26h-3.34v-21.32h-3.82v-2.79h7.16zm-1.92-35.75a2.9 2.9 0 1 1 -2.89 2.9 2.92 2.92 0 0 1 2.89-2.9z"/><path d="m2050.6 333.41c0-3.88-2.51-6-6-6-2.89 0-5.73 1.59-8 4.26v17.55h-3.33v-24.07h3.28v3.45a10.89 10.89 0 0 1 8.63-4.1c5.63 0 8.75 3.44 8.75 8.74v16h-3.34z"/><path d="m2084.49 351.77c0 3.94-1.81 7.05-7.11 7.05h-9.13v-2.82h8.75c2.3 0 4.15-.71 4.15-3.5v-7.87a10.23 10.23 0 0 1 -9.18 5.24c-6.94 0-12.24-5.3-12.24-12.68s5.25-12.73 12.13-12.73c4.16 0 7.87 2.35 9.29 5.35v-4.7h3.34zm-3.23-14.54c0-5.52-3.71-9.78-9.07-9.78s-9.13 4.26-9.13 9.78 3.77 9.79 9.13 9.79 9.07-4.27 9.07-9.79z"/><path d="m2095.47 310.34a3.36 3.36 0 0 1 3.34 3.39 5.39 5.39 0 0 1 -.55 2.08l-3.61 6.61h-3l2.51-5.57a3.26 3.26 0 0 1 -2.07-3.12 3.35 3.35 0 0 1 3.38-3.39z"/><path d="m1438.33 388.66h-3.55c-2.19-6-7.27-9.73-14.27-9.73-9.51 0-16 7.22-16 16.78s6.5 16.84 16 16.84c7 0 12.08-3.78 14.27-9.73h3.55c-2.46 7.87-9.46 12.68-17.82 12.68-10.77 0-19.4-8.26-19.4-19.79s8.58-19.78 19.4-19.78c8.36 0 15.36 4.86 17.82 12.73z"/><path d="m1458.49 398.17c0-3.66-2.84-5.14-6.06-5.14a13.11 13.11 0 0 0 -7.44 2.63l-1.58-2.52a15.83 15.83 0 0 1 9.24-3.06c5.73 0 9.18 3.23 9.18 8.2v16.56h-3.34v-3c-1.36 2.4-4.64 3.66-7.54 3.66-5.25 0-8.74-3.06-8.74-7.38s3.17-7.05 8.14-7.05h5.79c1.7 0 2.35-.88 2.35-2.19zm0 8.09v-3.33a4.17 4.17 0 0 1 -3.11.93h-4.48c-3.56 0-5.2 1.74-5.2 4.26 0 2.08 1.59 4.54 5.63 4.54 3.67 0 7.16-2.03 7.16-6.4z"/><path d="m1486.64 399c0-3.88-2.51-6-6-6-2.89 0-5.74 1.59-8 4.27v17.54h-3.34v-24.1h3.28v3.44a11 11 0 0 1 8.64-4.1c5.63 0 8.74 3.45 8.74 8.75v16h-3.33z"/><path d="m1519.1 412.6a8.62 8.62 0 0 0 7.93-4.86l2.84 1.64a12.49 12.49 0 0 1 -23.23-6.56 12.35 12.35 0 0 1 12.46-12.74 12.2 12.2 0 0 1 10.77 6.12l-2.84 1.64a8.69 8.69 0 0 0 -7.93-4.81c-5.35 0-9.07 4.27-9.07 9.79s3.72 9.78 9.07 9.78z"/><path d="m1547.85 393.69h-1.64c-4.26 0-7.32 2-7.32 7.65v13.5h-3.28v-24.1h3.17v4.1a7.55 7.55 0 0 1 7.27-4.54c.54 0 1.15.06 1.8.11z"/><path d="m1554 403.8c.44 5 3.77 8.75 8.8 8.75a8.3 8.3 0 0 0 7.49-4.16h3.88a12.35 12.35 0 0 1 -11.37 7.11c-6.94 0-12.24-5.3-12.24-12.68s5.3-12.74 12.19-12.74c6.28 0 12.13 4.43 12.13 13.61v.11zm.11-2.73h17.05a8.46 8.46 0 0 0 -8.41-8c-4.84-.07-8.07 3.41-8.67 8z"/><path d="m1594.8 398.17c0-3.66-2.84-5.14-6.07-5.14a13.07 13.07 0 0 0 -7.43 2.63l-1.59-2.52a15.83 15.83 0 0 1 9.24-3.06c5.74 0 9.18 3.23 9.18 8.2v16.56h-3.33v-3c-1.37 2.4-4.65 3.66-7.54 3.66-5.25 0-8.75-3.06-8.75-7.38s3.17-7.05 8.14-7.05h5.8c1.69 0 2.35-.88 2.35-2.19zm0 8.09v-3.33a4.19 4.19 0 0 1 -3.12.93h-4.48c-3.55 0-5.19 1.74-5.19 4.26 0 2.08 1.58 4.54 5.63 4.54 3.66 0 7.16-2.03 7.16-6.4z"/><path d="m1610.32 380.57v10.17h6v2.79h-6v16.34c0 2.24 1.58 2.35 3.44 2.35a16.44 16.44 0 0 0 2.52-.17v2.79a33.6 33.6 0 0 1 -3.72.22c-2.51 0-5.57-.66-5.57-5.14v-16.39h-4.16v-2.79h4.17v-10.17z"/><path d="m1622.89 403.8c.44 5 3.77 8.75 8.8 8.75a8.3 8.3 0 0 0 7.49-4.16h3.88a12.36 12.36 0 0 1 -11.37 7.11c-6.94 0-12.24-5.3-12.24-12.68s5.3-12.74 12.18-12.74c6.29 0 12.14 4.43 12.14 13.61v.11zm.11-2.73h17a8.46 8.46 0 0 0 -8.42-8c-4.75-.07-7.98 3.41-8.58 8z"/><path d="m1660.71 376.58h3.12l-12.83 38.26h-3.23z"/><path d="m1688.2 395.44v-18.86h3.34v38.26h-3.34v-4.59a10.22 10.22 0 0 1 -9.18 5.25c-6.94 0-12.24-5.3-12.24-12.68s5.24-12.74 12.13-12.74c4.15 0 7.87 2.35 9.29 5.36zm-9 17.16c5.35 0 9.13-4.26 9.13-9.78s-3.78-9.79-9.13-9.79-9.07 4.27-9.07 9.79 3.75 9.78 9.11 9.78z"/><path d="m1711.54 393.69h-1.64c-4.27 0-7.33 2-7.33 7.65v13.5h-3.28v-24.1h3.17v4.1a7.57 7.57 0 0 1 7.27-4.54c.55 0 1.15.06 1.81.11z"/><path d="m1726.62 390.08a12.71 12.71 0 1 1 -12.46 12.74 12.4 12.4 0 0 1 12.46-12.74zm0 2.95c-5.35 0-9.07 4.27-9.07 9.79s3.72 9.78 9.07 9.78 9.13-4.26 9.13-9.78-3.75-9.82-9.13-9.82z"/><path d="m1748.48 410.31v14.1h-3.33v-33.67h3.33v4.7c1.42-3 5.14-5.36 9.3-5.36 6.88 0 12.13 5.36 12.13 12.74s-5.3 12.68-12.24 12.68a10.32 10.32 0 0 1 -9.19-5.19zm9-17.28c-5.36 0-9.13 4.27-9.13 9.79s3.77 9.78 9.13 9.78 9.07-4.26 9.07-9.78-3.75-9.82-9.1-9.82z"/><path d="m1790.78 380.57v10.17h6v2.79h-6v16.34c0 2.24 1.59 2.35 3.45 2.35a16.21 16.21 0 0 0 2.51-.17v2.79a33.53 33.53 0 0 1 -3.71.22c-2.52 0-5.58-.66-5.58-5.14v-16.39h-4.15v-2.79h4.15v-10.17z"/><path d="m1816.09 398.17c0-3.66-2.84-5.14-6.07-5.14a13.07 13.07 0 0 0 -7.43 2.63l-1.59-2.52a15.83 15.83 0 0 1 9.24-3.06c5.74 0 9.18 3.23 9.18 8.2v16.56h-3.33v-3c-1.37 2.4-4.65 3.66-7.54 3.66-5.25 0-8.75-3.06-8.75-7.38s3.17-7.05 8.15-7.05h5.79c1.69 0 2.35-.88 2.35-2.19zm0 8.09v-3.33a4.19 4.19 0 0 1 -3.12.93h-4.48c-3.55 0-5.19 1.74-5.19 4.26 0 2.08 1.58 4.54 5.63 4.54 3.66 0 7.16-2.03 7.16-6.4z"/><path d="m1830.24 410.31v4.53h-3.33v-38.26h3.33v18.86c1.43-3 5.14-5.36 9.3-5.36 6.88 0 12.13 5.36 12.13 12.74s-5.3 12.68-12.24 12.68a10.32 10.32 0 0 1 -9.19-5.19zm9-17.28c-5.36 0-9.13 4.27-9.13 9.79s3.77 9.78 9.13 9.78 9.07-4.26 9.07-9.78-3.75-9.82-9.1-9.82z"/><path d="m1861.07 414.84h-3.34v-38.26h3.34z"/><path d="m1870.58 403.8c.43 5 3.77 8.75 8.8 8.75a8.27 8.27 0 0 0 7.48-4.16h3.89a12.37 12.37 0 0 1 -11.37 7.11c-6.94 0-12.25-5.3-12.25-12.68s5.31-12.74 12.19-12.74c6.29 0 12.14 4.43 12.14 13.61v.11zm.11-2.73h17a8.46 8.46 0 0 0 -8.42-8c-4.76-.07-7.98 3.41-8.58 8z"/><path d="m1908.83 408.45c0-2.41-2-3.45-5.41-4.7l-1.36-.5c-3.67-1.31-6.13-3.17-6.13-6.66 0-4 3.56-6.51 8.26-6.51a12.27 12.27 0 0 1 7.81 2.79l-1.8 2.51a10.94 10.94 0 0 0 -6.12-2.4c-2.68 0-4.7 1.37-4.7 3.44 0 1.53 1.09 2.74 3.55 3.66l2.79 1c4.64 1.81 6.56 3.83 6.56 7.38 0 3.12-2.68 7-8.86 7a14.43 14.43 0 0 1 -8.47-3l1.75-2.51a11.56 11.56 0 0 0 6.83 2.57c3.28.03 5.3-1.83 5.3-4.07z"/><path d="m1933.37 414.84h-3.37v-21.31h-3.83v-2.79h7.16zm-1.91-35.74a2.9 2.9 0 1 1 -2.9 2.89 2.92 2.92 0 0 1 2.9-2.89z"/><path d="m1958.46 399c0-3.88-2.52-6-6-6-2.9 0-5.74 1.59-8 4.27v17.54h-3.34v-24.1h3.28v3.44a11 11 0 0 1 8.64-4.1c5.63 0 8.74 3.45 8.74 8.75v16h-3.33z"/><path d="m1982.56 388a3.34 3.34 0 0 1 -3.33-3.33 5 5 0 0 1 .54-2.08l3.61-6.66h2.95l-2.51 5.57a3.39 3.39 0 0 1 2.07 3.17 3.34 3.34 0 0 1 -3.33 3.33z"/><path d="m2004.2 408.45c0-2.41-2-3.45-5.41-4.7l-1.36-.5c-3.67-1.31-6.13-3.17-6.13-6.66 0-4 3.56-6.51 8.26-6.51a12.27 12.27 0 0 1 7.81 2.79l-1.8 2.51a10.94 10.94 0 0 0 -6.12-2.4c-2.68 0-4.7 1.37-4.7 3.44 0 1.53 1.09 2.74 3.55 3.66l2.79 1c4.64 1.81 6.56 3.83 6.56 7.38 0 3.12-2.68 7-8.86 7a14.43 14.43 0 0 1 -8.47-3l1.75-2.51a11.56 11.56 0 0 0 6.83 2.57c3.28.03 5.3-1.83 5.3-4.07z"/><path d="m2027.87 398.17c0-3.66-2.84-5.14-6.07-5.14a13 13 0 0 0 -7.43 2.63l-1.59-2.52a15.83 15.83 0 0 1 9.24-3.06c5.74 0 9.18 3.23 9.18 8.2v16.56h-3.33v-3c-1.37 2.4-4.65 3.66-7.54 3.66-5.25 0-8.75-3.06-8.75-7.38s3.17-7.05 8.14-7.05h5.8c1.69 0 2.35-.88 2.35-2.19zm0 8.09v-3.33a4.19 4.19 0 0 1 -3.12.93h-4.48c-3.55 0-5.19 1.74-5.19 4.26 0 2.08 1.58 4.54 5.63 4.54 3.66 0 7.16-2.03 7.16-6.4z"/><path d="m2042 414.84h-3.33v-38.26h3.33z"/><path d="m2051.53 403.8c.44 5 3.77 8.75 8.8 8.75a8.3 8.3 0 0 0 7.49-4.16h3.88a12.36 12.36 0 0 1 -11.37 7.11c-6.94 0-12.24-5.3-12.24-12.68s5.3-12.74 12.19-12.74c6.28 0 12.13 4.43 12.13 13.61v.11zm.11-2.73h17.05a8.46 8.46 0 0 0 -8.41-8c-4.81-.07-8.04 3.41-8.64 8z"/><path d="m2089.79 408.45c0-2.41-2-3.45-5.41-4.7l-1.37-.5c-3.66-1.31-6.12-3.17-6.12-6.66 0-4 3.55-6.51 8.25-6.51a12.3 12.3 0 0 1 7.82 2.79l-1.81 2.51a10.91 10.91 0 0 0 -6.15-2.38c-2.68 0-4.7 1.37-4.7 3.44 0 1.53 1.1 2.74 3.55 3.66l2.79 1c4.65 1.81 6.56 3.83 6.56 7.38 0 3.12-2.68 7-8.85 7a14.41 14.41 0 0 1 -8.47-3l1.74-2.51a11.57 11.57 0 0 0 6.84 2.57c3.31.01 5.33-1.85 5.33-4.09z"/><path d="m2102.41 375.93a3.35 3.35 0 0 1 3.34 3.38 5.39 5.39 0 0 1 -.55 2.08l-3.61 6.61h-3l2.52-5.57a3.25 3.25 0 0 1 -2.08-3.12 3.35 3.35 0 0 1 3.38-3.38z"/><path d="m1430.33 539.88h-3.56c-2.18-6-7.26-9.73-14.26-9.73-9.51 0-16 7.22-16 16.78s6.5 16.83 16 16.83c7 0 12.08-3.77 14.26-9.72h3.56c-2.46 7.87-9.46 12.68-17.82 12.68-10.77 0-19.4-8.26-19.4-19.79s8.58-19.79 19.4-19.79c8.36 0 15.36 4.86 17.82 12.74z"/><path d="m1450.49 549.39c0-3.66-2.84-5.14-6.06-5.14a13.08 13.08 0 0 0 -7.44 2.63l-1.58-2.52a15.75 15.75 0 0 1 9.23-3.06c5.74 0 9.19 3.23 9.19 8.2v16.56h-3.34v-3c-1.36 2.41-4.64 3.67-7.54 3.67-5.25 0-8.74-3.06-8.74-7.38s3.17-7.05 8.14-7.05h5.79c1.7 0 2.35-.88 2.35-2.19zm0 8.09v-3.33a4.18 4.18 0 0 1 -3.11.92h-4.48c-3.56 0-5.2 1.75-5.2 4.27 0 2.08 1.59 4.53 5.63 4.53 3.67 0 7.16-2.02 7.16-6.39z"/><path d="m1478.64 550.21c0-3.88-2.52-6-6-6-2.89 0-5.74 1.59-8 4.27v17.54h-3.34v-24.02h3.28v3.44a11 11 0 0 1 8.64-4.1c5.63 0 8.74 3.44 8.74 8.75v16h-3.33z"/><path d="m1504.6 566.06h-3.34v-21.32h-3.82v-2.74h7.16zm-1.91-35.75a2.9 2.9 0 1 1 -2.9 2.9 2.92 2.92 0 0 1 2.9-2.9z"/><path d="m1529.69 550.21c0-3.88-2.52-6-6-6-2.9 0-5.74 1.59-8 4.27v17.54h-3.33v-24.02h3.28v3.44a11 11 0 0 1 8.63-4.1c5.63 0 8.75 3.44 8.75 8.75v16h-3.33z"/><path d="m1552.2 559.67c0-2.41-2-3.45-5.41-4.71l-1.37-.49c-3.66-1.31-6.12-3.17-6.12-6.67 0-4 3.56-6.5 8.26-6.5a12.27 12.27 0 0 1 7.81 2.79l-1.8 2.51a11 11 0 0 0 -6.12-2.4c-2.68 0-4.7 1.36-4.7 3.44 0 1.53 1.09 2.73 3.55 3.66l2.79 1c4.64 1.81 6.56 3.83 6.56 7.38 0 3.12-2.68 7-8.86 7a14.43 14.43 0 0 1 -8.47-3l1.75-2.51a11.55 11.55 0 0 0 6.83 2.56c3.28.03 5.3-1.82 5.3-4.06z"/><path d="m1563.35 555c.44 5 3.77 8.74 8.8 8.74a8.31 8.31 0 0 0 7.49-4.15h3.88a12.36 12.36 0 0 1 -11.37 7.11c-6.94 0-12.24-5.3-12.24-12.68s5.3-12.74 12.19-12.74c6.28 0 12.13 4.43 12.13 13.61v.11zm.11-2.73h17a8.45 8.45 0 0 0 -8.41-8c-4.76-.02-7.99 3.43-8.59 8.02z"/><path d="m1602.15 544.91h-1.64c-4.26 0-7.32 2-7.32 7.65v13.5h-3.28v-24.06h3.17v4.1a7.56 7.56 0 0 1 7.27-4.54c.55 0 1.15.05 1.8.11z"/><path d="m1611.88 531.79v10.21h6v2.78h-6v16.35c0 2.24 1.59 2.35 3.45 2.35a16.21 16.21 0 0 0 2.51-.17v2.79a33.6 33.6 0 0 1 -3.72.22c-2.51 0-5.57-.66-5.57-5.14v-16.4h-4.16v-2.78h4.16v-10.21z"/><path d="m1634.18 527.8h3.12l-12.79 38.26h-3.23z"/><path d="m1642.32 557.48v-15.48h3.34v15.19c0 4.37 3 6.61 7 6.61s7-2.24 7-6.61v-15.19h3.34v15.52c0 5.08-3.6 9.24-10.33 9.24s-10.35-4.2-10.35-9.28z"/><path d="m1673.75 561.52v14.11h-3.33v-33.63h3.33v4.7c1.42-3 5.14-5.36 9.29-5.36 6.89 0 12.14 5.36 12.14 12.74s-5.31 12.68-12.25 12.68a10.29 10.29 0 0 1 -9.18-5.24zm9-17.27c-5.35 0-9.12 4.27-9.12 9.79s3.77 9.78 9.12 9.78 9.08-4.26 9.08-9.78-3.76-9.79-9.12-9.79z"/><path d="m1721 546.66v-18.86h3.34v38.26h-3.34v-4.59a10.22 10.22 0 0 1 -9.18 5.25c-6.94 0-12.24-5.3-12.24-12.68s5.24-12.74 12.13-12.74c4.12 0 7.84 2.35 9.29 5.36zm-9 17.16c5.35 0 9.12-4.26 9.12-9.78s-3.77-9.79-9.12-9.79-9.08 4.27-9.08 9.79 3.73 9.78 9.08 9.78z"/><path d="m1746.33 549.39c0-3.66-2.84-5.14-6.07-5.14a13.07 13.07 0 0 0 -7.43 2.63l-1.59-2.52a15.76 15.76 0 0 1 9.24-3.06c5.74 0 9.18 3.23 9.18 8.2v16.56h-3.33v-3c-1.37 2.41-4.65 3.67-7.54 3.67-5.25 0-8.75-3.06-8.75-7.38s3.17-7.05 8.15-7.05h5.81c1.69 0 2.35-.88 2.35-2.19zm0 8.09v-3.33a4.19 4.19 0 0 1 -3.12.92h-4.48c-3.55 0-5.19 1.75-5.19 4.27 0 2.08 1.58 4.53 5.63 4.53 3.66 0 7.16-2.02 7.16-6.39z"/><path d="m1761.85 531.79v10.21h6v2.78h-6v16.35c0 2.24 1.59 2.35 3.44 2.35a16.44 16.44 0 0 0 2.52-.17v2.79a33.6 33.6 0 0 1 -3.72.22c-2.51 0-5.57-.66-5.57-5.14v-16.4h-4.16v-2.78h4.16v-10.21z"/><path d="m1774.42 555c.44 5 3.77 8.74 8.8 8.74a8.31 8.31 0 0 0 7.49-4.15h3.88a12.35 12.35 0 0 1 -11.37 7.11c-6.94 0-12.24-5.3-12.24-12.68s5.3-12.74 12.19-12.74c6.28 0 12.13 4.43 12.13 13.61v.11zm.11-2.73h17a8.45 8.45 0 0 0 -8.41-8c-4.76-.02-7.99 3.43-8.59 8.02z"/><path d="m1812.24 527.8h3.12l-12.79 38.26h-3.23z"/><path d="m1839.73 546.66v-18.86h3.34v38.26h-3.34v-4.59a10.22 10.22 0 0 1 -9.18 5.25c-6.94 0-12.24-5.3-12.24-12.68s5.24-12.74 12.13-12.74c4.15 0 7.87 2.35 9.29 5.36zm-9 17.16c5.36 0 9.13-4.26 9.13-9.78s-3.77-9.79-9.13-9.79-9.07 4.27-9.07 9.79 3.75 9.78 9.11 9.78z"/><path d="m1852.58 555c.43 5 3.77 8.74 8.8 8.74a8.3 8.3 0 0 0 7.48-4.15h3.88a12.35 12.35 0 0 1 -11.36 7.11c-7 0-12.25-5.3-12.25-12.68s5.3-12.74 12.19-12.74c6.29 0 12.13 4.43 12.13 13.61v.11zm.1-2.73h17.06a8.46 8.46 0 0 0 -8.42-8c-4.81-.02-8.03 3.43-8.64 8.02z"/><path d="m1882.47 566.06h-3.33v-38.26h3.33z"/><path d="m1892 555c.44 5 3.77 8.74 8.8 8.74a8.31 8.31 0 0 0 7.49-4.15h3.88a12.37 12.37 0 0 1 -11.37 7.11c-6.94 0-12.24-5.3-12.24-12.68s5.3-12.74 12.18-12.74c6.29 0 12.14 4.43 12.14 13.61v.11zm.11-2.73h17.05a8.46 8.46 0 0 0 -8.42-8c-4.83-.02-8.05 3.43-8.65 8.02z"/><path d="m1923.24 531.79v10.21h6v2.78h-6v16.35c0 2.24 1.58 2.35 3.44 2.35a16.44 16.44 0 0 0 2.52-.17v2.79a33.6 33.6 0 0 1 -3.72.22c-2.51 0-5.57-.66-5.57-5.14v-16.4h-4.16v-2.78h4.16v-10.21z"/><path d="m1935.81 555c.44 5 3.77 8.74 8.8 8.74a8.31 8.31 0 0 0 7.49-4.15h3.9a12.36 12.36 0 0 1 -11.37 7.11c-6.94 0-12.24-5.3-12.24-12.68s5.3-12.74 12.19-12.74c6.28 0 12.13 4.43 12.13 13.61v.11zm.11-2.73h17a8.45 8.45 0 0 0 -8.41-8c-4.76-.02-7.99 3.43-8.59 8.02z"/><path d="m1984 541.3a12.71 12.71 0 1 1 -12.45 12.7 12.4 12.4 0 0 1 12.45-12.7zm0 3c-5.35 0-9.07 4.27-9.07 9.79s3.72 9.78 9.07 9.78 9.13-4.26 9.13-9.78-3.7-9.84-9.13-9.84z"/><path d="m2019.87 550.21c0-3.88-2.52-6-6-6-2.9 0-5.74 1.59-8 4.27v17.54h-3.34v-24.02h3.28v3.44a11 11 0 0 1 8.64-4.1c5.63 0 8.74 3.44 8.74 8.75v16h-3.33z"/><path d="m2045.5 531.79v10.21h6v2.78h-6v16.35c0 2.24 1.58 2.35 3.44 2.35a16.44 16.44 0 0 0 2.52-.17v2.79a33.6 33.6 0 0 1 -3.72.22c-2.52 0-5.58-.66-5.58-5.14v-16.4h-4.16v-2.78h4.15v-10.21z"/><path d="m2070.8 549.39c0-3.66-2.84-5.14-6.06-5.14a13.11 13.11 0 0 0 -7.44 2.63l-1.58-2.52a15.76 15.76 0 0 1 9.24-3.06c5.73 0 9.18 3.23 9.18 8.2v16.56h-3.34v-3c-1.36 2.41-4.64 3.67-7.54 3.67-5.25 0-8.74-3.06-8.74-7.38s3.17-7.05 8.14-7.05h5.79c1.7 0 2.35-.88 2.35-2.19zm0 8.09v-3.33a4.16 4.16 0 0 1 -3.11.92h-4.48c-3.56 0-5.2 1.75-5.2 4.27 0 2.08 1.59 4.53 5.63 4.53 3.67 0 7.16-2.02 7.16-6.39z"/><path d="m2085 561.52v4.54h-3.34v-38.26h3.34v18.86c1.42-3 5.14-5.36 9.29-5.36 6.89 0 12.13 5.36 12.13 12.74s-5.3 12.68-12.24 12.68a10.28 10.28 0 0 1 -9.18-5.2zm9-17.27c-5.35 0-9.13 4.27-9.13 9.79s3.78 9.78 9.13 9.78 9.08-4.26 9.08-9.78-3.8-9.79-9.16-9.79z"/><path d="m2115.78 566.06h-3.33v-38.26h3.33z"/><path d="m2125.29 555c.44 5 3.77 8.74 8.8 8.74a8.31 8.31 0 0 0 7.49-4.15h3.88a12.36 12.36 0 0 1 -11.37 7.11c-6.94 0-12.24-5.3-12.24-12.68s5.3-12.74 12.19-12.74c6.28 0 12.13 4.43 12.13 13.61v.11zm.11-2.73h17a8.45 8.45 0 0 0 -8.41-8c-4.76-.02-7.99 3.43-8.59 8.02z"/><path d="m2163.55 559.67c0-2.41-2-3.45-5.41-4.71l-1.37-.49c-3.66-1.31-6.12-3.17-6.12-6.67 0-4 3.55-6.5 8.25-6.5a12.3 12.3 0 0 1 7.82 2.79l-1.81 2.51a10.91 10.91 0 0 0 -6.12-2.4c-2.68 0-4.7 1.36-4.7 3.44 0 1.53 1.1 2.73 3.55 3.66l2.79 1c4.65 1.81 6.56 3.83 6.56 7.38 0 3.12-2.68 7-8.85 7a14.38 14.38 0 0 1 -8.47-3l1.74-2.51a11.55 11.55 0 0 0 6.84 2.56c3.28.03 5.3-1.82 5.3-4.06z"/><path d="m1398.79 631.64h-3.33v-21.31h-3.83v-2.79h7.16zm-1.91-35.74a2.9 2.9 0 1 1 -2.9 2.9 2.91 2.91 0 0 1 2.9-2.9z"/><path d="m1423.88 615.79c0-3.88-2.52-5.95-6-5.95-2.9 0-5.74 1.58-8 4.26v17.54h-3.33v-24.1h3.28v3.46a11 11 0 0 1 8.64-4.1c5.63 0 8.74 3.45 8.74 8.75v16h-3.33z"/><path d="m1465.74 616.56v15.08h-3.33v-16c0-3.72-2.3-5.79-5.74-5.79-2.84 0-5.41 1.58-7.71 4.26v17.54h-3.33v-24.1h3.28v3.45a10.25 10.25 0 0 1 8.2-4.1c4 0 6.72 1.81 7.87 4.65 2.62-3.17 5.46-4.65 9-4.65 5.68 0 8.58 3.45 8.58 8.75v16h-3.33v-16c0-3.72-2.3-5.79-5.69-5.79-2.89 0-5.52 1.64-7.87 4.37.02.77.07 1.56.07 2.33z"/><path d="m1504.27 615c0-3.66-2.84-5.13-6.06-5.13a13.07 13.07 0 0 0 -7.44 2.62l-1.58-2.51a15.72 15.72 0 0 1 9.23-3.07c5.74 0 9.19 3.23 9.19 8.2v16.56h-3.34v-3c-1.36 2.4-4.64 3.66-7.54 3.66-5.25 0-8.75-3.06-8.75-7.38s3.17-7 8.15-7h5.79c1.7 0 2.35-.87 2.35-2.19zm0 8.09v-3.33a4.18 4.18 0 0 1 -3.11.93h-4.49c-3.55 0-5.19 1.75-5.19 4.26 0 2.08 1.59 4.54 5.63 4.54 3.66-.03 7.16-2.05 7.16-6.43z"/><path d="m1527.34 610.49h-1.64c-4.27 0-7.33 2-7.33 7.65v13.5h-3.28v-24.1h3.17v4.1a7.57 7.57 0 0 1 7.27-4.54c.55 0 1.15.06 1.81.11z"/><path d="m1535.7 616.89h3.11l9.29-9.35h4.49l-11.1 10.77 11.7 13.33h-4.43l-10.11-11.86h-3v11.86h-3.34v-38.26h3.34z"/><path d="m1558.1 620.6c.44 5 3.78 8.75 8.8 8.75a8.3 8.3 0 0 0 7.49-4.15h3.88a12.34 12.34 0 0 1 -11.37 7.1c-6.94 0-12.24-5.3-12.24-12.68s5.3-12.74 12.19-12.74c6.28 0 12.13 4.43 12.13 13.61v.11zm.11-2.73h17.06a8.47 8.47 0 0 0 -8.42-8c-4.85-.03-8.04 3.41-8.64 8z"/><path d="m1589.37 597.38v10.16h6v2.79h-6v16.34c0 2.24 1.58 2.35 3.44 2.35a17.2 17.2 0 0 0 2.51-.16v2.78a33.53 33.53 0 0 1 -3.71.22c-2.52 0-5.58-.65-5.58-5.13v-16.4h-4.15v-2.79h4.12v-10.16z"/><path d="m1604.61 631.64h-3.33v-21.31h-3.83v-2.79h7.16zm-1.91-35.74a2.9 2.9 0 1 1 -2.9 2.9 2.92 2.92 0 0 1 2.9-2.9z"/><path d="m1629.7 615.79c0-3.88-2.51-5.95-6-5.95-2.89 0-5.74 1.58-8 4.26v17.54h-3.34v-24.1h3.28v3.46a11 11 0 0 1 8.64-4.1c5.63 0 8.74 3.45 8.74 8.75v16h-3.33z"/><path d="m1663.59 634.16c0 3.93-1.81 7.05-7.11 7.05h-9.13v-2.79h8.75c2.29 0 4.15-.71 4.15-3.5v-7.87a10.22 10.22 0 0 1 -9.18 5.25c-6.94 0-12.24-5.3-12.24-12.68s5.24-12.74 12.13-12.74c4.15 0 7.87 2.36 9.29 5.36v-4.7h3.34zm-3.23-14.54c0-5.52-3.72-9.78-9.07-9.78s-9.13 4.26-9.13 9.78 3.77 9.78 9.13 9.78 9.07-4.26 9.07-9.78z"/><path d="m1438.33 796.88h-3.56c-2.18-6-7.26-9.73-14.26-9.73-9.51 0-16 7.22-16 16.78s6.5 16.83 16 16.83c7 0 12.08-3.77 14.26-9.72h3.56c-2.46 7.87-9.46 12.68-17.82 12.68-10.77 0-19.4-8.26-19.4-19.79s8.58-19.79 19.4-19.79c8.36 0 15.36 4.86 17.82 12.74z"/><path d="m1458.49 806.39c0-3.66-2.84-5.14-6.06-5.14a13.08 13.08 0 0 0 -7.44 2.63l-1.58-2.52a15.75 15.75 0 0 1 9.23-3.06c5.74 0 9.19 3.23 9.19 8.2v16.56h-3.34v-3c-1.36 2.41-4.64 3.67-7.54 3.67-5.25 0-8.74-3.06-8.74-7.38s3.17-7.05 8.14-7.05h5.79c1.7 0 2.35-.88 2.35-2.19zm0 8.09v-3.33a4.18 4.18 0 0 1 -3.11.92h-4.48c-3.56 0-5.2 1.75-5.2 4.27 0 2.08 1.59 4.53 5.63 4.53 3.67 0 7.16-2.02 7.16-6.39z"/><path d="m1486.64 807.21c0-3.88-2.52-6-6-6-2.89 0-5.74 1.59-8 4.27v17.54h-3.34v-24.02h3.28v3.44a11 11 0 0 1 8.64-4.1c5.63 0 8.74 3.44 8.74 8.75v16h-3.33z"/><path d="m1520.63 801.91h-1.63c-4.26 0-7.32 2-7.32 7.65v13.5h-3.28v-24.06h3.17v4.1a7.56 7.56 0 0 1 7.27-4.54c.55 0 1.15.05 1.8.11z"/><path d="m1526.75 812c.44 5 3.78 8.74 8.8 8.74a8.3 8.3 0 0 0 7.49-4.15h3.88a12.35 12.35 0 0 1 -11.37 7.11c-6.94 0-12.24-5.3-12.24-12.68s5.3-12.74 12.19-12.74c6.29 0 12.13 4.43 12.13 13.61v.11zm.11-2.73h17.06a8.47 8.47 0 0 0 -8.42-8c-4.81-.02-8.04 3.43-8.64 8.02z"/><path d="m1567.58 806.39c0-3.66-2.84-5.14-6.07-5.14a13.07 13.07 0 0 0 -7.43 2.63l-1.58-2.52a15.7 15.7 0 0 1 9.23-3.06c5.74 0 9.19 3.23 9.19 8.2v16.56h-3.34v-3c-1.37 2.41-4.65 3.67-7.54 3.67-5.25 0-8.75-3.06-8.75-7.38s3.17-7.05 8.15-7.05h5.79c1.69 0 2.35-.88 2.35-2.19zm0 8.09v-3.33a4.19 4.19 0 0 1 -3.12.92h-4.46c-3.55 0-5.19 1.75-5.19 4.27 0 2.08 1.59 4.53 5.63 4.53 3.64 0 7.14-2.02 7.14-6.39z"/><path d="m1598.13 803.66v-18.86h3.34v38.26h-3.34v-4.59a10.22 10.22 0 0 1 -9.18 5.25c-6.94 0-12.24-5.3-12.24-12.68s5.24-12.74 12.13-12.74c4.16 0 7.87 2.35 9.29 5.36zm-9 17.16c5.36 0 9.13-4.26 9.13-9.78s-3.77-9.79-9.13-9.79-9.07 4.27-9.07 9.79 3.75 9.78 9.11 9.78z"/><path d="m1624.36 823.06h-3.36v-21.32h-3.83v-2.74h7.16zm-1.91-35.75a2.9 2.9 0 1 1 -2.9 2.9 2.92 2.92 0 0 1 2.9-2.9z"/><path d="m1649.45 807.21c0-3.88-2.51-6-6-6-2.89 0-5.74 1.59-8 4.27v17.54h-3.34v-24.02h3.28v3.44a11 11 0 0 1 8.64-4.1c5.63 0 8.75 3.44 8.75 8.75v16h-3.34z"/><path d="m1673.55 796.22a3.34 3.34 0 0 1 -3.33-3.33 4.91 4.91 0 0 1 .54-2.08l3.61-6.67h3l-2.51 5.58a3.39 3.39 0 0 1 2.08 3.17 3.35 3.35 0 0 1 -3.39 3.33z"/><path d="m1704.16 808v15.08h-3.34v-16c0-3.72-2.29-5.8-5.74-5.8-2.84 0-5.41 1.59-7.7 4.27v17.54h-3.38v-24.09h3.28v3.44a10.27 10.27 0 0 1 8.2-4.1c4 0 6.73 1.8 7.87 4.65 2.63-3.17 5.47-4.65 9-4.65 5.68 0 8.58 3.44 8.58 8.75v16h-3.34v-16c0-3.72-2.29-5.8-5.68-5.8-2.9 0-5.52 1.64-7.87 4.37.06.73.12 1.55.12 2.34z"/><path d="m1742.69 806.39c0-3.66-2.84-5.14-6.07-5.14a13.07 13.07 0 0 0 -7.43 2.63l-1.59-2.52a15.76 15.76 0 0 1 9.24-3.06c5.74 0 9.18 3.23 9.18 8.2v16.56h-3.33v-3c-1.37 2.41-4.65 3.67-7.54 3.67-5.25 0-8.75-3.06-8.75-7.38s3.17-7.05 8.14-7.05h5.8c1.69 0 2.35-.88 2.35-2.19zm0 8.09v-3.33a4.19 4.19 0 0 1 -3.12.92h-4.48c-3.55 0-5.19 1.75-5.19 4.27 0 2.08 1.58 4.53 5.63 4.53 3.66 0 7.16-2.02 7.16-6.39z"/><path d="m1765.75 801.91h-1.64c-4.26 0-7.32 2-7.32 7.65v13.5h-3.28v-24.06h3.17v4.1a7.56 7.56 0 0 1 7.27-4.54c.55 0 1.15.05 1.8.11z"/><path d="m1774.11 808.3h3.12l9.29-9.34h4.48l-11.09 10.76 11.69 13.34h-4.42l-10.11-11.86h-3v11.86h-3.33v-38.26h3.33z"/><path d="m1796.52 812c.44 5 3.77 8.74 8.8 8.74a8.31 8.31 0 0 0 7.49-4.15h3.88a12.36 12.36 0 0 1 -11.37 7.11c-6.94 0-12.24-5.3-12.24-12.68s5.3-12.74 12.19-12.74c6.28 0 12.13 4.43 12.13 13.61v.11zm.11-2.73h17a8.45 8.45 0 0 0 -8.41-8c-4.76-.02-7.99 3.43-8.59 8.02z"/><path d="m1827.78 788.79v10.21h6v2.78h-6v16.35c0 2.24 1.59 2.35 3.45 2.35a16.21 16.21 0 0 0 2.51-.17v2.79a33.6 33.6 0 0 1 -3.72.22c-2.51 0-5.57-.66-5.57-5.14v-16.4h-4.16v-2.78h4.16v-10.21z"/><path d="m1843 823.06h-3.33v-21.32h-3.83v-2.74h7.16zm-1.91-35.75a2.9 2.9 0 1 1 -2.9 2.9 2.92 2.92 0 0 1 2.93-2.9z"/><path d="m1868.12 807.21c0-3.88-2.52-6-6-6-2.9 0-5.74 1.59-8 4.27v17.54h-3.33v-24.02h3.28v3.44a11 11 0 0 1 8.64-4.1c5.63 0 8.74 3.44 8.74 8.75v16h-3.33z"/><path d="m1902 825.58c0 3.93-1.8 7-7.1 7h-9.13v-2.79h8.74c2.3 0 4.16-.71 4.16-3.5v-7.87a10.25 10.25 0 0 1 -9.18 5.25c-7 0-12.25-5.3-12.25-12.68s5.25-12.74 12.14-12.74c4.15 0 7.87 2.35 9.29 5.36v-4.61h3.33zm-3.22-14.58c0-5.52-3.72-9.79-9.07-9.79s-9.13 4.27-9.13 9.79 3.77 9.78 9.13 9.78 9.07-4.22 9.07-9.78z"/><path d="m1913 784.14a3.36 3.36 0 0 1 3.33 3.39 5.22 5.22 0 0 1 -.55 2.08l-3.6 6.61h-3l2.52-5.57a3.27 3.27 0 0 1 -2.08-3.12 3.36 3.36 0 0 1 3.38-3.39z"/><path d="m1946.93 806.39c0-3.66-2.85-5.14-6.07-5.14a13 13 0 0 0 -7.43 2.63l-1.59-2.52a15.76 15.76 0 0 1 9.24-3.06c5.74 0 9.18 3.23 9.18 8.2v16.56h-3.33v-3c-1.37 2.41-4.65 3.67-7.55 3.67-5.24 0-8.74-3.06-8.74-7.38s3.17-7.05 8.14-7.05h5.8c1.69 0 2.35-.88 2.35-2.19zm0 8.09v-3.33a4.19 4.19 0 0 1 -3.12.92h-4.48c-3.55 0-5.19 1.75-5.19 4.27 0 2.08 1.58 4.53 5.63 4.53 3.66 0 7.16-2.02 7.16-6.39z"/><path d="m1975.07 807.21c0-3.88-2.51-6-6-6-2.9 0-5.74 1.59-8 4.27v17.54h-3.33v-24.02h3.26v3.44a10.92 10.92 0 0 1 8.63-4.1c5.63 0 8.75 3.44 8.75 8.75v16h-3.34z"/><path d="m2005.62 803.66v-18.86h3.38v38.26h-3.34v-4.59a10.22 10.22 0 0 1 -9.18 5.25c-6.94 0-12.24-5.3-12.24-12.68s5.25-12.74 12.13-12.74c4.12 0 7.83 2.35 9.25 5.36zm-9 17.16c5.36 0 9.13-4.26 9.13-9.78s-3.77-9.79-9.13-9.79-9.07 4.27-9.07 9.79 3.75 9.78 9.11 9.78z"/><path d="m2030 796.22a3.34 3.34 0 0 1 -3.34-3.33 4.91 4.91 0 0 1 .55-2.08l3.61-6.67h3l-2.51 5.58a3.38 3.38 0 0 1 2.07 3.17 3.34 3.34 0 0 1 -3.38 3.33z"/><path d="m2051.64 816.67c0-2.41-2-3.45-5.41-4.71l-1.37-.49c-3.66-1.31-6.12-3.17-6.12-6.67 0-4 3.55-6.5 8.26-6.5a12.27 12.27 0 0 1 7.81 2.79l-1.8 2.51a11 11 0 0 0 -6.12-2.4c-2.68 0-4.7 1.36-4.7 3.44 0 1.53 1.09 2.73 3.55 3.66l2.79 1c4.64 1.81 6.55 3.83 6.55 7.38 0 3.12-2.67 7-8.85 7a14.43 14.43 0 0 1 -8.47-3l1.75-2.51a11.55 11.55 0 0 0 6.83 2.56c3.28.03 5.3-1.82 5.3-4.06z"/><path d="m2075.31 806.39c0-3.66-2.85-5.14-6.07-5.14a13 13 0 0 0 -7.43 2.63l-1.59-2.52a15.76 15.76 0 0 1 9.24-3.06c5.74 0 9.18 3.23 9.18 8.2v16.56h-3.33v-3c-1.37 2.41-4.65 3.67-7.55 3.67-5.24 0-8.74-3.06-8.74-7.38s3.17-7.05 8.14-7.05h5.8c1.69 0 2.35-.88 2.35-2.19zm0 8.09v-3.33a4.19 4.19 0 0 1 -3.12.92h-4.48c-3.55 0-5.19 1.75-5.19 4.27 0 2.08 1.58 4.53 5.63 4.53 3.66 0 7.16-2.02 7.16-6.39z"/><path d="m2089.46 823.06h-3.33v-38.26h3.33z"/><path d="m2099 812c.44 5 3.77 8.74 8.8 8.74a8.31 8.31 0 0 0 7.49-4.15h3.88a12.36 12.36 0 0 1 -11.37 7.11c-6.94 0-12.24-5.3-12.24-12.68s5.3-12.74 12.18-12.74c6.29 0 12.14 4.43 12.14 13.61v.11zm.11-2.73h17.05a8.46 8.46 0 0 0 -8.42-8c-4.83-.02-8.06 3.43-8.66 8.02z"/><path d="m2137.23 816.67c0-2.41-2-3.45-5.41-4.71l-1.37-.49c-3.66-1.31-6.12-3.17-6.12-6.67 0-4 3.55-6.5 8.25-6.5a12.32 12.32 0 0 1 7.82 2.79l-1.81 2.51a10.94 10.94 0 0 0 -6.12-2.4c-2.68 0-4.7 1.36-4.7 3.44 0 1.53 1.09 2.73 3.55 3.66l2.79 1c4.65 1.81 6.56 3.83 6.56 7.38 0 3.12-2.68 7-8.85 7a14.44 14.44 0 0 1 -8.48-3l1.75-2.51a11.55 11.55 0 0 0 6.83 2.56c3.28.03 5.31-1.82 5.31-4.06z"/><path d="m2149.85 784.14a3.36 3.36 0 0 1 3.33 3.39 5.38 5.38 0 0 1 -.54 2.08l-3.61 6.61h-3l2.51-5.57a3.26 3.26 0 0 1 -2.07-3.12 3.35 3.35 0 0 1 3.38-3.39z"/><path d="m1438.33 993.6h-3.56c-2.18-6-7.26-9.73-14.26-9.73-9.51 0-16 7.21-16 16.78s6.5 16.83 16 16.83c7 0 12.08-3.77 14.26-9.73h3.56c-2.46 7.87-9.46 12.69-17.82 12.69-10.77 0-19.4-8.26-19.4-19.79s8.58-19.79 19.4-19.79c8.36 0 15.36 4.87 17.82 12.74z"/><path d="m1458.49 1003.11c0-3.66-2.84-5.14-6.06-5.14a13.15 13.15 0 0 0 -7.44 2.62l-1.58-2.51a15.75 15.75 0 0 1 9.23-3.06c5.74 0 9.19 3.22 9.19 8.2v16.56h-3.34v-3c-1.36 2.41-4.64 3.67-7.54 3.67-5.25 0-8.74-3.07-8.74-7.38s3.17-7 8.14-7h5.79c1.7 0 2.35-.88 2.35-2.19zm0 8.09v-3.34a4.18 4.18 0 0 1 -3.11.93h-4.48c-3.56 0-5.2 1.75-5.2 4.27 0 2.07 1.59 4.53 5.63 4.53 3.67 0 7.16-2.02 7.16-6.39z"/><path d="m1486.64 1003.93c0-3.88-2.52-6-6-6-2.89 0-5.74 1.59-8 4.26v17.55h-3.34v-24.1h3.28v3.44a11 11 0 0 1 8.64-4.1c5.63 0 8.74 3.44 8.74 8.74v16h-3.33z"/><path d="m1512.6 1019.78h-3.34v-21.32h-3.82v-2.78h7.16zm-1.91-35.78a2.9 2.9 0 1 1 -2.9 2.9 2.92 2.92 0 0 1 2.9-2.9z"/><path d="m1537.69 1003.93c0-3.88-2.52-6-6-6-2.9 0-5.74 1.59-8 4.26v17.55h-3.33v-24.1h3.28v3.44a11 11 0 0 1 8.63-4.1c5.63 0 8.75 3.44 8.75 8.74v16h-3.33z"/><path d="m1560.2 1013.38c0-2.4-2-3.44-5.41-4.7l-1.37-.49c-3.66-1.31-6.12-3.17-6.12-6.67 0-4 3.56-6.5 8.26-6.5a12.27 12.27 0 0 1 7.81 2.79l-1.8 2.51a11 11 0 0 0 -6.12-2.4c-2.68 0-4.7 1.36-4.7 3.44 0 1.53 1.09 2.73 3.55 3.66l2.79 1c4.64 1.8 6.56 3.83 6.56 7.38 0 3.11-2.68 7-8.86 7a14.43 14.43 0 0 1 -8.47-3l1.75-2.51a11.55 11.55 0 0 0 6.83 2.56c3.28.03 5.3-1.83 5.3-4.07z"/><path d="m1571.35 1008.74c.44 5 3.77 8.74 8.8 8.74a8.31 8.31 0 0 0 7.49-4.15h3.88a12.36 12.36 0 0 1 -11.37 7.11c-6.94 0-12.24-5.31-12.24-12.69s5.3-12.73 12.19-12.73c6.28 0 12.13 4.43 12.13 13.61v.11zm.11-2.73h17a8.45 8.45 0 0 0 -8.41-8c-4.76-.01-7.99 3.4-8.59 7.99z"/><path d="m1610.15 998.63h-1.64c-4.26 0-7.32 2-7.32 7.65v13.5h-3.28v-24.1h3.17v4.09a7.56 7.56 0 0 1 7.27-4.53c.55 0 1.15 0 1.8.11z"/><path d="m1619.88 985.51v10.17h6v2.78h-6v16.35c0 2.24 1.59 2.35 3.45 2.35a16.21 16.21 0 0 0 2.51-.17v2.79a33.6 33.6 0 0 1 -3.72.22c-2.51 0-5.57-.66-5.57-5.14v-16.4h-4.16v-2.78h4.16v-10.17z"/><path d="m1642.18 981.52h3.12l-12.79 38.26h-3.23z"/><path d="m1650.32 1011.2v-15.52h3.34v15.19c0 4.37 3 6.61 7 6.61s7-2.24 7-6.61v-15.19h3.34v15.52c0 5.08-3.6 9.24-10.33 9.24s-10.35-4.16-10.35-9.24z"/><path d="m1681.75 1015.24v14.1h-3.33v-33.66h3.33v4.7c1.42-3 5.14-5.36 9.29-5.36 6.89 0 12.14 5.36 12.14 12.73s-5.31 12.69-12.25 12.69a10.31 10.31 0 0 1 -9.18-5.2zm9-17.27c-5.35 0-9.12 4.26-9.12 9.78s3.77 9.79 9.12 9.79 9.08-4.26 9.08-9.79-3.76-9.75-9.12-9.75z"/><path d="m1729 1000.38v-18.86h3.34v38.26h-3.34v-4.59a10.24 10.24 0 0 1 -9.18 5.25c-6.94 0-12.24-5.31-12.24-12.69s5.24-12.73 12.13-12.73c4.12-.02 7.84 2.35 9.29 5.36zm-9 17.16c5.35 0 9.12-4.26 9.12-9.79s-3.76-9.75-9.12-9.75-9.08 4.26-9.08 9.78 3.73 9.76 9.08 9.76z"/><path d="m1754.33 1003.11c0-3.66-2.84-5.14-6.07-5.14a13.14 13.14 0 0 0 -7.43 2.62l-1.59-2.51a15.76 15.76 0 0 1 9.24-3.06c5.74 0 9.18 3.22 9.18 8.2v16.56h-3.33v-3c-1.37 2.41-4.65 3.67-7.54 3.67-5.25 0-8.75-3.07-8.75-7.38s3.17-7 8.15-7h5.81c1.69 0 2.35-.88 2.35-2.19zm0 8.09v-3.34a4.19 4.19 0 0 1 -3.12.93h-4.48c-3.55 0-5.19 1.75-5.19 4.27 0 2.07 1.58 4.53 5.63 4.53 3.66 0 7.16-2.02 7.16-6.39z"/><path d="m1769.85 985.51v10.17h6v2.78h-6v16.35c0 2.24 1.59 2.35 3.44 2.35a16.44 16.44 0 0 0 2.52-.17v2.79a33.6 33.6 0 0 1 -3.72.22c-2.51 0-5.57-.66-5.57-5.14v-16.4h-4.16v-2.78h4.16v-10.17z"/><path d="m1782.42 1008.74c.44 5 3.77 8.74 8.8 8.74a8.31 8.31 0 0 0 7.49-4.15h3.88a12.35 12.35 0 0 1 -11.37 7.11c-6.94 0-12.24-5.31-12.24-12.69s5.3-12.73 12.19-12.73c6.28 0 12.13 4.43 12.13 13.61v.11zm.11-2.73h17a8.45 8.45 0 0 0 -8.41-8c-4.76-.01-7.99 3.4-8.59 7.99z"/><path d="m1820.24 981.52h3.12l-12.79 38.26h-3.23z"/><path d="m1847.73 1000.38v-18.86h3.34v38.26h-3.34v-4.59a10.24 10.24 0 0 1 -9.18 5.25c-6.94 0-12.24-5.31-12.24-12.69s5.24-12.73 12.13-12.73c4.15-.02 7.87 2.35 9.29 5.36zm-9 17.16c5.36 0 9.13-4.26 9.13-9.79s-3.77-9.78-9.13-9.78-9.07 4.26-9.07 9.78 3.75 9.79 9.11 9.79z"/><path d="m1860.58 1008.74c.43 5 3.77 8.74 8.8 8.74a8.3 8.3 0 0 0 7.48-4.15h3.88a12.35 12.35 0 0 1 -11.36 7.11c-7 0-12.25-5.31-12.25-12.69s5.3-12.73 12.19-12.73c6.29 0 12.13 4.43 12.13 13.61v.11zm.1-2.73h17.06a8.46 8.46 0 0 0 -8.42-8c-4.81-.01-8.03 3.4-8.64 7.99z"/><path d="m1890.47 1019.78h-3.33v-38.26h3.33z"/><path d="m1900 1008.74c.44 5 3.77 8.74 8.8 8.74a8.31 8.31 0 0 0 7.49-4.15h3.88a12.37 12.37 0 0 1 -11.37 7.11c-6.94 0-12.24-5.31-12.24-12.69s5.3-12.73 12.18-12.73c6.29 0 12.14 4.43 12.14 13.61v.11zm.11-2.73h17.05a8.46 8.46 0 0 0 -8.42-8c-4.83-.01-8.05 3.4-8.65 7.99z"/><path d="m1931.24 985.51v10.17h6v2.78h-6v16.35c0 2.24 1.58 2.35 3.44 2.35a16.44 16.44 0 0 0 2.52-.17v2.79a33.6 33.6 0 0 1 -3.72.22c-2.51 0-5.57-.66-5.57-5.14v-16.4h-4.16v-2.78h4.16v-10.17z"/><path d="m1943.81 1008.74c.44 5 3.77 8.74 8.8 8.74a8.31 8.31 0 0 0 7.49-4.15h3.9a12.36 12.36 0 0 1 -11.37 7.11c-6.94 0-12.24-5.31-12.24-12.69s5.3-12.73 12.19-12.73c6.28 0 12.13 4.43 12.13 13.61v.11zm.11-2.73h17a8.45 8.45 0 0 0 -8.41-8c-4.76-.01-7.99 3.4-8.59 7.99z"/><path d="m1992 995a12.71 12.71 0 1 1 -12.46 12.73 12.39 12.39 0 0 1 12.46-12.73zm0 3c-5.35 0-9.07 4.26-9.07 9.78s3.72 9.79 9.07 9.79 9.13-4.26 9.13-9.79-3.7-9.78-9.13-9.78z"/><path d="m2027.87 1003.93c0-3.88-2.52-6-6-6-2.9 0-5.74 1.59-8 4.26v17.55h-3.34v-24.1h3.28v3.44a11 11 0 0 1 8.64-4.1c5.63 0 8.74 3.44 8.74 8.74v16h-3.33z"/><path d="m2053.5 985.51v10.17h6v2.78h-6v16.35c0 2.24 1.58 2.35 3.44 2.35a16.44 16.44 0 0 0 2.52-.17v2.79a33.6 33.6 0 0 1 -3.72.22c-2.52 0-5.58-.66-5.58-5.14v-16.4h-4.16v-2.78h4.15v-10.17z"/><path d="m2078.8 1003.11c0-3.66-2.84-5.14-6.06-5.14a13.17 13.17 0 0 0 -7.44 2.62l-1.58-2.51a15.76 15.76 0 0 1 9.28-3.08c5.73 0 9.18 3.22 9.18 8.2v16.56h-3.34v-3c-1.36 2.41-4.64 3.67-7.54 3.67-5.25 0-8.74-3.07-8.74-7.38s3.17-7 8.14-7h5.79c1.7 0 2.35-.88 2.35-2.19zm0 8.09v-3.34a4.17 4.17 0 0 1 -3.11.93h-4.48c-3.56 0-5.2 1.75-5.2 4.27 0 2.07 1.59 4.53 5.63 4.53 3.67 0 7.16-2.02 7.16-6.39z"/><path d="m2093 1015.24v4.54h-3.34v-38.26h3.34v18.86c1.42-3 5.14-5.36 9.29-5.36 6.89 0 12.13 5.36 12.13 12.73s-5.3 12.69-12.24 12.69a10.3 10.3 0 0 1 -9.18-5.2zm9-17.27c-5.35 0-9.13 4.26-9.13 9.78s3.78 9.79 9.13 9.79 9.08-4.26 9.08-9.79-3.8-9.75-9.16-9.75z"/><path d="m2123.78 1019.78h-3.33v-38.26h3.33z"/><path d="m2133.29 1008.74c.44 5 3.77 8.74 8.8 8.74a8.31 8.31 0 0 0 7.49-4.15h3.88a12.36 12.36 0 0 1 -11.37 7.11c-6.94 0-12.24-5.31-12.24-12.69s5.3-12.75 12.15-12.75c6.28 0 12.13 4.43 12.13 13.61v.11zm.11-2.73h17a8.45 8.45 0 0 0 -8.41-8c-4.76-.01-7.99 3.4-8.59 7.99z"/><path d="m2171.55 1013.38c0-2.4-2-3.44-5.41-4.7l-1.37-.49c-3.66-1.31-6.12-3.17-6.12-6.67 0-4 3.55-6.5 8.25-6.5a12.3 12.3 0 0 1 7.82 2.79l-1.81 2.51a10.91 10.91 0 0 0 -6.12-2.4c-2.68 0-4.7 1.36-4.7 3.44 0 1.53 1.1 2.73 3.55 3.66l2.79 1c4.65 1.8 6.56 3.83 6.56 7.38 0 3.11-2.68 7-8.85 7a14.38 14.38 0 0 1 -8.47-3l1.74-2.51a11.55 11.55 0 0 0 6.84 2.56c3.28.03 5.3-1.83 5.3-4.07z"/><path d="m1406.79 1085.36h-3.33v-21.31h-3.83v-2.79h7.16zm-1.91-35.74a2.9 2.9 0 1 1 -2.9 2.89 2.91 2.91 0 0 1 2.9-2.89z"/><path d="m1431.88 1069.51c0-3.88-2.52-6-6-6-2.9 0-5.74 1.59-8 4.27v17.54h-3.33v-24.1h3.28v3.44a11 11 0 0 1 8.64-4.1c5.63 0 8.74 3.45 8.74 8.75v16h-3.33z"/><path d="m1456 1058.53a3.35 3.35 0 0 1 -3.34-3.34 4.86 4.86 0 0 1 .55-2.07l3.61-6.67h3l-2.51 5.57a3.39 3.39 0 0 1 2.07 3.17 3.34 3.34 0 0 1 -3.38 3.34z"/><path d="m1486.58 1070.28v15.08h-3.33v-16c0-3.72-2.29-5.8-5.74-5.8-2.84 0-5.41 1.59-7.71 4.27v17.54h-3.33v-24.1h3.28v3.44a10.27 10.27 0 0 1 8.2-4.1c4 0 6.72 1.81 7.87 4.65 2.62-3.17 5.47-4.65 9-4.65 5.69 0 8.58 3.45 8.58 8.75v16h-3.4v-16c0-3.72-2.3-5.8-5.68-5.8-2.9 0-5.52 1.65-7.88 4.38.09.75.14 1.57.14 2.34z"/><path d="m1525.12 1068.69c0-3.66-2.85-5.14-6.07-5.14a13.11 13.11 0 0 0 -7.44 2.63l-1.58-2.52a15.83 15.83 0 0 1 9.24-3.06c5.74 0 9.18 3.23 9.18 8.2v16.56h-3.33v-3c-1.37 2.4-4.65 3.66-7.55 3.66-5.24 0-8.74-3.06-8.74-7.38s3.17-7.05 8.14-7.05h5.79c1.7 0 2.36-.88 2.36-2.19zm0 8.09v-3.33a4.21 4.21 0 0 1 -3.12.93h-4.48c-3.56 0-5.19 1.75-5.19 4.26 0 2.08 1.58 4.54 5.63 4.54 3.66 0 7.16-2.03 7.16-6.4z"/><path d="m1548.18 1064.21h-1.64c-4.26 0-7.33 2-7.33 7.65v13.5h-3.27v-24.1h3.17v4.1a7.55 7.55 0 0 1 7.27-4.54c.54 0 1.14.06 1.8.11z"/><path d="m1556.54 1070.61h3.12l9.29-9.35h4.48l-11.1 10.77 11.7 13.33h-4.43l-10.11-11.86h-3v11.86h-3.33v-38.26h3.33z"/><path d="m1579 1074.32c.43 5 3.77 8.75 8.8 8.75a8.27 8.27 0 0 0 7.48-4.16h3.89a12.36 12.36 0 0 1 -11.37 7.11c-6.94 0-12.25-5.3-12.25-12.68s5.31-12.74 12.19-12.74c6.29 0 12.14 4.43 12.14 13.61v.11zm.11-2.73h17a8.46 8.46 0 0 0 -8.42-8c-4.81-.04-8.03 3.41-8.63 8z"/><path d="m1610.21 1051.09v10.17h6v2.79h-6v16.34c0 2.24 1.58 2.35 3.44 2.35a17.44 17.44 0 0 0 2.52-.16v2.78a33.6 33.6 0 0 1 -3.72.22c-2.52 0-5.58-.65-5.58-5.14v-16.39h-4.15v-2.79h4.15v-10.17z"/><path d="m1625.46 1085.36h-3.34v-21.31h-3.82v-2.79h7.16zm-1.92-35.74a2.9 2.9 0 1 1 -2.89 2.89 2.91 2.91 0 0 1 2.89-2.89z"/><path d="m1650.54 1069.51c0-3.88-2.51-6-6-6-2.89 0-5.73 1.59-8 4.27v17.54h-3.33v-24.1h3.28v3.44a10.92 10.92 0 0 1 8.63-4.1c5.63 0 8.75 3.45 8.75 8.75v16h-3.34z"/><path d="m1684.43 1087.88c0 3.93-1.81 7-7.11 7h-9.12v-2.79h8.74c2.3 0 4.15-.71 4.15-3.5v-7.87a10.22 10.22 0 0 1 -9.18 5.25c-6.94 0-12.24-5.3-12.24-12.68s5.25-12.74 12.13-12.74c4.16 0 7.87 2.35 9.29 5.36v-4.7h3.34zm-3.23-14.54c0-5.52-3.71-9.79-9.07-9.79s-9.13 4.27-9.13 9.79 3.77 9.78 9.13 9.78 9.07-4.26 9.07-9.78z"/><path d="m1695.41 1046.45a3.36 3.36 0 0 1 3.34 3.39 5.34 5.34 0 0 1 -.55 2.07l-3.61 6.62h-2.95l2.52-5.58a3.25 3.25 0 0 1 -2.08-3.11 3.35 3.35 0 0 1 3.33-3.39z"/><g stroke="#000" stroke-width="6"><path d="m1749.83 488.13v38.87" fill="none" stroke-linecap="round" stroke-linejoin="round"/><path d="m1769.26 507.57h-38.87" fill="none" stroke-linecap="round" stroke-linejoin="round"/><path d="m1749.83 1918.13v38.87" fill="none" stroke-linecap="round" stroke-linejoin="round"/><path d="m1769.26 1937.57h-38.87" fill="none" stroke-linecap="round" stroke-linejoin="round"/><path d="m1749.83 2226.13v38.87" fill="none" stroke-linecap="round" stroke-linejoin="round"/><path d="m1769.26 2245.57h-38.87" fill="none" stroke-linecap="round" stroke-linejoin="round"/><path d="m1749.83 717.13v38.87" fill="none" stroke-linecap="round" stroke-linejoin="round"/><path d="m1769.26 736.57h-38.87" fill="none" stroke-linecap="round" stroke-linejoin="round"/><path d="m1749.83 891.13v38.87" fill="none" stroke-linecap="round" stroke-linejoin="round"/><path d="m1769.26 910.57h-38.87" fill="none" stroke-linecap="round" stroke-linejoin="round"/><path d="m1265.03 1767.07 25.73 25.73-25.73 25.73" fill="none" stroke-linecap="round" stroke-linejoin="round"/><path d="m1265.03 2026.91 25.73 25.73-25.73 25.73" fill="none" stroke-linecap="round" stroke-linejoin="round"/><path d="m1265.03 2333.06 25.73 25.73-25.73 25.72" fill="none" stroke-linecap="round" stroke-linejoin="round"/><circle cx="415.62" cy="1791.51" fill="none" r="23.15" stroke-linecap="round" stroke-linejoin="round"/><circle cx="698.61" cy="2053.93" fill="none" r="23.15" stroke-linecap="round" stroke-linejoin="round"/><circle cx="964.46" cy="2356.64" fill="none" r="23.15" stroke-linecap="round" stroke-linejoin="round"/><path d="m790.48 807.03 502.51-2.26" fill="none" stroke-linecap="round" stroke-linejoin="round"/><path d="m1272.32 779.36 25.41 26.04-26.04 25.41" fill="none" stroke-linecap="round" stroke-linejoin="round"/><circle cx="765.62" cy="808.45" fill="none" r="23.15" stroke-linecap="round" stroke-linejoin="round"/><path d="m956.48 993.03 336.51-1.26" fill="none" stroke-linecap="round" stroke-linejoin="round"/><path d="m1272.32 966.36 25.41 26.04-26.04 25.41" fill="none" stroke-linecap="round" stroke-linejoin="round"/><circle cx="931.62" cy="994.45" fill="none" r="23.15" stroke-linecap="round" stroke-linejoin="round"/><path d="m639.48 585.03 653.51-1.26" fill="none" stroke-linecap="round" stroke-linejoin="round"/><path d="m1272.32 558.36 25.41 26.04-26.04 25.41" fill="none" stroke-linecap="round" stroke-linejoin="round"/><circle cx="614.62" cy="586.45" fill="none" r="23.15" stroke-linecap="round" stroke-linejoin="round"/><path d="m481.48 325.03 818.01.24" fill="none" stroke-linecap="round" stroke-linejoin="round"/><path d="m1278.82 299.86 25.41 26.04-26.04 25.41" fill="none" stroke-linecap="round" stroke-linejoin="round"/><circle cx="456.62" cy="326.45" fill="none" r="23.15" stroke-linecap="round" stroke-linejoin="round"/></g></svg>