<svg id="Layer_1" data-name="Layer 1" xmlns="http://www.w3.org/2000/svg" viewBox="0 0 1058 1109"><defs><style>.cls-1{fill:#ffd400;}.cls-1,.cls-2,.cls-3,.cls-4,.cls-5{stroke:#000;stroke-width:6px;}.cls-1,.cls-2,.cls-4{stroke-linecap:round;stroke-linejoin:round;}.cls-2{fill:#ff71f4;}.cls-3{fill:#00ffb3;}.cls-3,.cls-5{stroke-miterlimit:10;}.cls-4{fill:#0054ff;}.cls-5,.cls-6{fill:#fff;}</style></defs><rect class="cls-1" x="125" y="201" width="804" height="804"/><circle class="cls-2" cx="662.39" cy="622.44" r="227.49"/><circle class="cls-3" cx="409.4" cy="622.44" r="227.49"/><path class="cls-4" d="M638,615c-1-105.29-91.33-174.33-101.06-181.46v-.63l-.43.31c-.28-.19-.43-.31-.43-.31v.63C526.34,440.67,436,509.71,435,615c-1,109.31,47.31,164.29,101,196.39V812l.51-.3.51.3v-.61C590.69,779.29,639,724.31,638,615Z"/><rect class="cls-5" x="333" y="902" width="387" height="144"/><path d="M138.54,84.25c0-19.77,15.18-33.93,34.49-33.93,14.81,0,28.31,9,32.15,24.47H190.84C188.4,67,181.75,62.32,173,62.32c-12.37,0-20.9,9.37-20.9,21.93,0,13.69,9.09,21.94,20.81,21.94,9.18,0,15.37-5.44,17.15-11H175.75V84.53h27.84v32.53H193V108c-2.53,3.84-9.93,10.22-21.18,10.22C153,118.19,138.54,104,138.54,84.25Z"/><path d="M239.67,86.13h-5.15c-6.19,0-9,2.9-9,10.4v20.53H213.33V74.13h11.81V81c1.69-4.59,5.82-7.4,11.16-7.4a13.82,13.82,0,0,1,3.37.37Z"/><path d="M243.33,95.6c0-13.13,10.21-22.59,23-22.59s23,9.46,23,22.59-10.22,22.59-23,22.59S243.33,108.72,243.33,95.6Zm12.18,0c0,6.65,4.41,11.71,10.78,11.71S277,102.25,277,95.6s-4.41-11.72-10.69-11.72S255.51,88.85,255.51,95.6Z"/><path d="M296.38,101.31V74.13h12.18V99.06c0,5.91,3.94,8.25,8.25,8.25s8.25-2.34,8.25-8.25V74.13h12.09v27.18c0,9-7.12,16.88-20.34,16.88S296.38,110.31,296.38,101.31Z"/><path d="M359.18,133.46H347V74.13h12.19v2.06c0,2.06-.19,3-.19,3.47C361.05,76,366.11,73,372.58,73c11.81,0,20.81,9.46,20.81,22.59s-9.09,22.59-20.9,22.59c-6.09,0-11.16-2.91-13.31-6.57ZM358.9,95.6c0,6.56,4.5,11.81,11,11.81s11-5.25,11-11.81-4.5-11.72-11-11.72S358.9,88.94,358.9,95.6Z"/><path d="M447.19,103,434.26,70.66v46.4H421.6V51.45H440l14.35,37.21,14.62-37.21h17.53v65.61H473.53V70.66L461,103Z"/><path d="M539.52,99.16h-32a9.73,9.73,0,0,0,9.85,8.62c3.56,0,6.93-1.5,8.62-4.4l12.65,1.31c-3.84,9.18-11.9,13.5-21.46,13.5-12.84,0-22.5-9.47-22.5-22.59S504.18,73,517,73c11.81,0,22.5,7.68,22.5,25.68ZM507.27,91h19.22A9.31,9.31,0,0,0,517,83.13,9.58,9.58,0,0,0,507.27,91Z"/><path d="M603.16,91.85c0-5.25-3.37-7.5-7.12-7.5-3.47,0-6.56,2-8.91,4.87v27.84H575V91.85c0-5.16-3.28-7.5-7.13-7.5-3.46,0-6.56,2-8.9,4.87v27.84H546.73V74.13h11.91v1.69c0,1.5-.19,3.37-.19,3.37A16.62,16.62,0,0,1,571.29,73c6.38,0,11.34,2.71,13.78,7.78,3.56-5,8.44-7.78,14.44-7.78,9.28,0,15.84,5.9,15.84,15.93v28.12H603.16Z"/><path d="M637.56,117.06H625.37V51.45h12.19V72.63c0,2.81-.19,5.81-.19,7C639.43,76,644.5,73,651,73c11.81,0,20.81,9.46,20.81,22.59s-9.09,22.59-20.9,22.59c-6.09,0-11.16-2.91-13.31-6.57Zm-.28-21.46c0,6.56,4.5,11.81,11,11.81s11-5.25,11-11.81-4.5-11.72-11-11.72S637.28,88.94,637.28,95.6Z"/><path d="M721.73,99.16h-32a9.71,9.71,0,0,0,9.84,8.62c3.56,0,6.94-1.5,8.62-4.4l12.66,1.31c-3.85,9.18-11.91,13.5-21.47,13.5-12.84,0-22.49-9.47-22.49-22.59S686.39,73,699.23,73c11.81,0,22.5,7.68,22.5,25.68ZM689.49,91H708.7a9.31,9.31,0,0,0-9.47-7.87A9.56,9.56,0,0,0,689.49,91Z"/><path d="M755.29,86.13h-5.16c-6.19,0-9,2.9-9,10.4v20.53H729V74.13h11.81V81c1.68-4.59,5.81-7.4,11.15-7.4a13.9,13.9,0,0,1,3.38.37Z"/><path d="M787.43,87.25a15.65,15.65,0,0,0-10.59-4.4c-3.19,0-4.31,1.59-4.31,2.9,0,1.5.94,2.53,3.19,3.28l7.12,2.25c8.81,2.91,11.81,7.69,11.81,13.31,0,6.28-5.34,13.6-17.06,13.6-9.47,0-15.37-3.66-18.93-6.75l6.46-8.44c3.1,2.91,8.63,5.34,12.66,5.34,2.9,0,4.69-1.5,4.69-3.18,0-2.16-1.41-3.1-4.88-4.13l-7.31-2.15c-6.94-2.25-9.94-6.94-9.94-12.56,0-7,6.38-13.31,16.69-13.31,5.62,0,12.28,1.68,17.34,6.37Z"/><path d="M827.27,73c9.28,0,15.93,5.9,15.93,15.93v28.12H831V92c0-5.43-3.47-7.68-7.31-7.68-3.57,0-6.75,2-9.1,4.87v27.84H802.43V51.45h12V75.82c0,1.5-.19,3.37-.19,3.37A16.83,16.83,0,0,1,827.27,73Z"/><path d="M868,117.06H855.76V84.44h-6V74.13H868Zm-6.66-65.61a7.86,7.86,0,0,1,7.88,7.87,7.83,7.83,0,0,1-15.66,0A7.84,7.84,0,0,1,861.29,51.45Z"/><path d="M890.63,133.46H878.44V74.13h12.19v2.06c0,2.06-.19,3-.19,3.47C892.5,76,897.57,73,904,73c11.81,0,20.81,9.46,20.81,22.59s-9.09,22.59-20.9,22.59c-6.09,0-11.15-2.91-13.31-6.57Zm-.28-37.86c0,6.56,4.5,11.81,11,11.81s11-5.25,11-11.81-4.5-11.72-11-11.72S890.35,88.94,890.35,95.6Z"/><path d="M415.2,955.51H390.86V966h14.21v7.59H390.86v11.34H415.2v7.59H382V947.86h33.2Z"/><path d="M458.73,975.33c0-3.56-2.29-5.09-4.84-5.09a8,8,0,0,0-6.06,3.31v18.93h-8.28V975.33c0-3.5-2.23-5.09-4.85-5.09a7.93,7.93,0,0,0-6.05,3.31v18.93h-8.29V963.29h8.1v1.15c0,1-.13,2.29-.13,2.29a11.31,11.31,0,0,1,8.73-4.21c4.34,0,7.71,1.85,9.37,5.29a11.75,11.75,0,0,1,9.82-5.29c6.31,0,10.77,4,10.77,10.84v19.12h-8.29Z"/><path d="M482.12,1003.63h-8.29V963.29h8.29v1.4c0,1.4-.13,2-.13,2.36,1.4-2.49,4.84-4.53,9.24-4.53,8,0,14.15,6.44,14.15,15.36s-6.18,15.36-14.21,15.36c-4.14,0-7.59-2-9.05-4.46Zm-.19-25.75c0,4.47,3.06,8,7.45,8s7.46-3.57,7.46-8-3.06-8-7.46-8S481.93,973.36,481.93,977.88Z"/><path d="M519,992.48h-8.23V947.86H519Z"/><path d="M524.24,977.88c0-8.92,7-15.36,15.62-15.36s15.61,6.44,15.61,15.36-6.94,15.36-15.61,15.36S524.24,986.81,524.24,977.88Zm8.29,0c0,4.53,3,8,7.33,8s7.27-3.44,7.27-8-3-8-7.27-8S532.53,973.29,532.53,977.88Z"/><path d="M569.11,992.48H567l-10-29.19h9.24l6.19,20.78,6.24-20.78h9L576,997.07c-1.47,4.27-3.76,6.56-9.12,6.56h-5.73v-6.94h4.07a3.05,3.05,0,0,0,3.26-2.3Z"/><path d="M619.59,980.31H597.86a6.93,6.93,0,0,0,12.55,2.86l8.61.9c-2.62,6.24-8.1,9.17-14.6,9.17a14.89,14.89,0,0,1-15.3-15.36c0-8.92,6.44-15.36,15.17-15.36,8,0,15.3,5.23,15.3,17.47Zm-21.93-5.55h13.07a6.33,6.33,0,0,0-6.44-5.35A6.52,6.52,0,0,0,597.66,974.76Z"/><path d="M653.11,980.31H631.38a6.93,6.93,0,0,0,12.55,2.86l8.61.9c-2.62,6.24-8.1,9.17-14.6,9.17a14.89,14.89,0,0,1-15.3-15.36c0-8.92,6.44-15.36,15.17-15.36,8,0,15.3,5.23,15.3,17.47Zm-21.92-5.55h13.06a6.33,6.33,0,0,0-6.44-5.35A6.5,6.5,0,0,0,631.19,974.76Z"/><path d="M675.22,972.21a10.63,10.63,0,0,0-7.2-3c-2.17,0-2.93,1.08-2.93,2s.64,1.72,2.17,2.23L672.1,975c6,2,8,5.23,8,9,0,4.27-3.63,9.24-11.6,9.24a18.82,18.82,0,0,1-12.87-4.58l4.39-5.74a14.51,14.51,0,0,0,8.61,3.63c2,0,3.19-1,3.19-2.17,0-1.46-1-2.1-3.32-2.8l-5-1.47c-4.72-1.53-6.76-4.71-6.76-8.54,0-4.78,4.34-9.05,11.35-9.05a17.39,17.39,0,0,1,11.79,4.34Z"/><path d="M309.32,322.72c-2.74-2.68-6.31-4.59-9.43-4.59-2.93,0-5.61,1.53-5.61,4.21,0,2,1.27,3.63,4.84,5.29l3.7,1.72c7.07,3.31,11.35,7,11.35,13.7s-5.68,13.19-15.49,13.19a22,22,0,0,1-16-6.69l4.91-6.63c3.31,3.38,7.52,5.29,10.9,5.29,3.82,0,6.18-2.1,6.18-4.84,0-3.06-2.74-4.78-7-6.76l-3.13-1.46c-6-2.81-9.75-6.89-9.75-12.49,0-7.84,7-12.56,14.92-12.56,5.16,0,10.45,2.55,14.72,6.25Z"/><path d="M335.83,336c0-2.1-1.65-3.44-4.84-3.44a19.81,19.81,0,0,0-8.8,2.74l-3.25-6.25a25,25,0,0,1,12.5-3.57c6.62,0,12.68,3.06,12.68,10.77v19.19h-8.29v-2.74c-1.53,2.29-4.84,3.5-8.16,3.5-6.18,0-10.19-4.39-10.19-9.17,0-5.55,4.08-9,10.58-9h5.73c1.41,0,2-.64,2-1.72Zm0,9v-2.11a3.6,3.6,0,0,1-2.55.64h-3.12c-2.61,0-4.14,1.15-4.14,3.19s1.59,3.44,4.14,3.44C333.16,350.19,335.83,348.66,335.83,345Z"/><path d="M359.16,355.48h-8.22V310.86h8.22Z"/><path d="M394.91,343.31H373.18a6.93,6.93,0,0,0,12.56,2.86l8.6.9c-2.61,6.24-8.09,9.17-14.6,9.17a14.88,14.88,0,0,1-15.29-15.36c0-8.92,6.43-15.36,15.17-15.36,8,0,15.29,5.23,15.29,17.47ZM373,337.76h13.06a6.32,6.32,0,0,0-6.43-5.35A6.5,6.5,0,0,0,373,337.76Z"/><path d="M417,335.21a10.65,10.65,0,0,0-7.21-3c-2.16,0-2.93,1.08-2.93,2s.64,1.72,2.17,2.23L413.9,338c6,2,8,5.23,8,9.05,0,4.27-3.63,9.24-11.6,9.24a18.85,18.85,0,0,1-12.87-4.58l4.4-5.74a14.46,14.46,0,0,0,8.6,3.63c2,0,3.19-1,3.19-2.17,0-1.46-1-2.1-3.32-2.8l-5-1.47c-4.71-1.53-6.75-4.71-6.75-8.54,0-4.78,4.33-9.05,11.34-9.05a17.37,17.37,0,0,1,11.79,4.34Z"/><path d="M584.77,345.92l-8.8-22v31.55h-8.6V310.86h12.49l9.75,25.31,9.94-25.31h11.92v44.62h-8.79V323.93l-8.54,22Z"/><path d="M635.31,336c0-2.1-1.66-3.44-4.85-3.44a19.73,19.73,0,0,0-8.79,2.74l-3.25-6.25a24.94,24.94,0,0,1,12.49-3.57c6.63,0,12.68,3.06,12.68,10.77v19.19h-8.28v-2.74c-1.53,2.29-4.85,3.5-8.16,3.5-6.18,0-10.2-4.39-10.2-9.17,0-5.55,4.08-9,10.58-9h5.74c1.4,0,2-.64,2-1.72Zm0,9v-2.11a3.61,3.61,0,0,1-2.55.64h-3.13c-2.61,0-4.14,1.15-4.14,3.19s1.59,3.44,4.14,3.44C632.63,350.19,635.31,348.66,635.31,345Z"/><path d="M668.32,334.45h-3.51c-4.2,0-6.11,2-6.11,7.07v14h-8.29V326.29h8v4.65a7.69,7.69,0,0,1,7.59-5,9.45,9.45,0,0,1,2.29.25Z"/><path d="M681.19,336.42h2l8-10.13h10l-11.29,13.38,11.6,15.81h-9.94l-8.41-12.05h-2v12.05H673V310.86h8.22Z"/><path d="M732.43,343.31H710.7a6.93,6.93,0,0,0,12.56,2.86l8.6.9c-2.61,6.24-8.09,9.17-14.59,9.17A14.88,14.88,0,0,1,702,340.88c0-8.92,6.44-15.36,15.17-15.36,8,0,15.29,5.23,15.29,17.47Zm-21.92-5.55h13.07a6.34,6.34,0,0,0-6.44-5.35A6.51,6.51,0,0,0,710.51,337.76Z"/><path d="M747.79,315.2v11.09h6.31v7h-6.31v13.19c0,1.85,1.47,2.11,2.74,2.11,2.11,0,3.83-.19,3.83-.19v7.07s-4,.38-6.44.38c-4.14,0-8.41-.7-8.41-6.56v-16h-4.59v-7h4.59V315.2Z"/><path d="M769.84,355.48h-8.28V333.3h-4.08v-7h12.36Zm-4.52-44.62a5.35,5.35,0,0,1,5.35,5.36,5.32,5.32,0,0,1-10.64,0A5.33,5.33,0,0,1,765.32,310.86Z"/><path d="M793.87,325.52c6.31,0,10.83,4,10.83,10.84v19.12h-8.28v-17c0-3.69-2.36-5.22-5-5.22a8.1,8.1,0,0,0-6.19,3.31v18.93H777V326.29h8.09v1.15c0,1-.12,2.29-.12,2.29A11.48,11.48,0,0,1,793.87,325.52Z"/><path d="M841.09,326.29v31.36c0,4.59-2.29,9-9.36,9H819v-7h10.65c1.46,0,3.12-.38,3.12-2.61V351.4c-1.4,2.36-4.91,4.4-9,4.4-7.9,0-14-6-14-15.11s6-15.17,14-15.17c4.39,0,7.77,2,9.24,4.53,0-.32-.13-.89-.13-2.42v-1.34Zm-15.48,22.37c4.39,0,7.39-3.25,7.39-8s-3-8-7.39-8-7.33,3.25-7.33,8S821.27,348.66,825.61,348.66Z"/><path class="cls-6" d="M732.18,636.48h-9.56l-3.82-12.17H705.35l-3.57,12.17h-9.3l14.4-44.62h10.58Zm-20.07-35.06H712l-4.53,15.3h9.12Z"/><path class="cls-6" d="M744.48,636.48h-8.22V591.86h8.22Z"/><path class="cls-6" d="M761.63,636.48h-8.29V614.3h-4.08v-7h12.37Zm-4.53-44.62a5.35,5.35,0,0,1,5.36,5.36,5.33,5.33,0,0,1-10.65,0A5.34,5.34,0,0,1,757.1,591.86Z"/><path class="cls-6" d="M775.2,621.88c0,4.59,3,8,7.33,8a6.69,6.69,0,0,0,6.44-4.46l7.77,2.42c-1.91,5.8-7.64,9.43-14.27,9.43-8.67,0-15.55-6.43-15.55-15.36s6.88-15.36,15.55-15.36c6.63,0,12.36,3.7,14.27,9.5L789,618.38a6.78,6.78,0,0,0-6.44-4.46C778.2,613.92,775.2,617.29,775.2,621.88Z"/><path class="cls-6" d="M830.27,624.31H808.53a6.93,6.93,0,0,0,12.56,2.86l8.6.9c-2.61,6.24-8.09,9.17-14.59,9.17a14.89,14.89,0,0,1-15.3-15.36c0-8.92,6.44-15.36,15.17-15.36,8,0,15.3,5.23,15.3,17.47Zm-21.93-5.55h13.07a6.34,6.34,0,0,0-6.44-5.35A6.51,6.51,0,0,0,808.34,618.76Z"/><path class="cls-6" d="M504.29,612.51v.13c5.16,2.11,8.28,5.87,8.28,11,0,7.14-5.29,12.81-14.72,12.81H482V591.86h14.4c9.18,0,13.77,5.68,13.77,11.41A9.83,9.83,0,0,1,504.29,612.51Zm-13.45-13.13v10h4.52c3.19,0,5.8-1.6,5.8-5s-2.74-4.91-5.8-4.91Zm0,29.64h4.59c5.35,0,7.9-2.48,7.9-6.12s-3.12-5.67-7.46-5.67h-5Z"/><path class="cls-6" d="M516.2,621.88c0-8.92,6.95-15.36,15.62-15.36s15.61,6.44,15.61,15.36-6.95,15.36-15.61,15.36S516.2,630.81,516.2,621.88Zm8.29,0c0,4.53,3,8,7.33,8s7.26-3.44,7.26-8-3-8-7.26-8S524.49,617.29,524.49,621.88Z"/><path class="cls-6" d="M561,636.48h-8.28V591.86H561v14.41c0,1.91-.12,4-.12,4.78,1.4-2.49,4.84-4.53,9.24-4.53,8,0,14.15,6.44,14.15,15.36s-6.18,15.36-14.21,15.36c-4.15,0-7.59-2-9.06-4.46Zm-.19-14.6c0,4.47,3.06,8,7.46,8s7.46-3.57,7.46-8-3.06-8-7.46-8S560.81,617.36,560.81,621.88Z"/></svg>