<svg xmlns="http://www.w3.org/2000/svg" viewBox="0 0 640 340">
  <defs>
    <style>
      .cls-1 {
        fill: #fff5ff;
      }

      .cls-2 {
        fill: #10162f;
      }

      .cls-3 {
        fill: #f966ff;
      }

      .cls-4 {
        fill: #fff9e4;
      }

      .cls-5 {
        fill: #e91c11;
      }

      .cls-6 {
        fill: #ffd300;
      }

      .cls-7 {
        fill: #fdf6fe;
      }
    </style>
  </defs>
  <g id="BG">
    <g>
      <rect class="cls-1" x="0.5" y="0.5" width="639" height="339"/>
      <path class="cls-2" d="M639,1V339H1V1H639m1-1H0V340H640V0Z"/>
    </g>
  </g>
  <g id="Layer_3" data-name="Layer 3">
    <g>
      <path class="cls-2" d="M282.53,283.75a2.15,2.15,0,0,1,1.57.54,2,2,0,0,1,.56,1.45,2.09,2.09,0,0,1-.34,1.19,1.78,1.78,0,0,1-1,.69l1.94,3.13h-1.45l-1.88-3h-.68v3H280v-7Zm.61,2.59a.78.78,0,0,0,.22-.6.76.76,0,0,0-.22-.6.88.88,0,0,0-.6-.19h-1.26v1.58h1.26A.94.94,0,0,0,283.14,286.34Z"/>
      <path class="cls-2" d="M290.4,288.63h-3.48a1.36,1.36,0,0,0,.39.85,1.16,1.16,0,0,0,.81.29,1.2,1.2,0,0,0,.7-.19,1.77,1.77,0,0,0,.51-.59l1,.37a2.49,2.49,0,0,1-.86,1.09,2.51,2.51,0,0,1-1.43.38,2.28,2.28,0,0,1-1.36-.39,2.25,2.25,0,0,1-.8-1,3.09,3.09,0,0,1-.26-1.23,3.13,3.13,0,0,1,.26-1.24,2.22,2.22,0,0,1,2.16-1.36,2.27,2.27,0,0,1,1.33.37,2.31,2.31,0,0,1,.78.95,3,3,0,0,1,.25,1.17Zm-1.28-1a1.27,1.27,0,0,0-.35-.69,1,1,0,0,0-.73-.27,1,1,0,0,0-.68.24,1.31,1.31,0,0,0-.41.72Z"/>
      <path class="cls-2" d="M292.75,285.71v.52a1.11,1.11,0,0,1,.46-.41,1.49,1.49,0,0,1,.77-.19,2.11,2.11,0,0,1,1.7.7,3.29,3.29,0,0,1,0,3.79,2.12,2.12,0,0,1-1.7.71,1.71,1.71,0,0,1-.71-.16,1.56,1.56,0,0,1-.52-.38v2.5h-1.23v-7.08Zm1.9,3.65a2.12,2.12,0,0,0,0-2.27,1,1,0,0,0-.84-.4,1,1,0,0,0-.84.4,2.17,2.17,0,0,0,0,2.27,1,1,0,0,0,.84.41A1.06,1.06,0,0,0,294.65,289.36Z"/>
      <path class="cls-2" d="M301.89,288.63h-3.48a1.36,1.36,0,0,0,.39.85,1.16,1.16,0,0,0,.81.29,1.2,1.2,0,0,0,.7-.19,1.91,1.91,0,0,0,.52-.59l1,.37a2.58,2.58,0,0,1-.87,1.09,2.48,2.48,0,0,1-1.42.38,2.29,2.29,0,0,1-1.37-.39,2.25,2.25,0,0,1-.8-1,3.08,3.08,0,0,1-.25-1.23,3.12,3.12,0,0,1,.25-1.24,2.22,2.22,0,0,1,2.17-1.36,2.25,2.25,0,0,1,1.32.37,2.31,2.31,0,0,1,.78.95,3,3,0,0,1,.25,1.17Zm-1.27-1a1.35,1.35,0,0,0-.36-.69,1,1,0,0,0-.72-.27,1,1,0,0,0-.69.24,1.31,1.31,0,0,0-.41.72Z"/>
      <path class="cls-2" d="M303.14,290.43a1.62,1.62,0,0,1,.14-2.33,2.41,2.41,0,0,1,1.54-.45h.88v-.22a.68.68,0,0,0-.25-.56,1.07,1.07,0,0,0-.63-.18.83.83,0,0,0-.87.58L302.9,287a1.6,1.6,0,0,1,.64-1,2.15,2.15,0,0,1,1.28-.38,2.18,2.18,0,0,1,1.56.53,2.1,2.1,0,0,1,.56,1.58v3h-1l-.13-.64a1.92,1.92,0,0,1-1.55.72A1.56,1.56,0,0,1,303.14,290.43Zm2.22-.95a1,1,0,0,0,.34-.75v-.1h-.83a1.06,1.06,0,0,0-.64.16.55.55,0,0,0-.22.49.45.45,0,0,0,.15.35.6.6,0,0,0,.41.14A1.2,1.2,0,0,0,305.36,289.48Z"/>
      <path class="cls-2" d="M308.9,290.36a1.84,1.84,0,0,1-.49-1.39v-2.2h-.79v-1.06h.79v-1.26l1.24-.78v2H311v1.06h-1.33V289a.94.94,0,0,0,.16.63.61.61,0,0,0,.5.19,1.07,1.07,0,0,0,.48-.12l.29,1a2,2,0,0,1-.82.18A1.89,1.89,0,0,1,308.9,290.36Z"/>
      <path class="cls-2" d="M312.19,290.43a1.88,1.88,0,0,1-.69-1l1-.53a1.4,1.4,0,0,0,.39.61.93.93,0,0,0,.61.22.65.65,0,0,0,.41-.13.42.42,0,0,0,.17-.36.47.47,0,0,0-.27-.4,4.39,4.39,0,0,0-.77-.36,2.37,2.37,0,0,1-.89-.58,1.3,1.3,0,0,1-.31-.9,1.25,1.25,0,0,1,.2-.71,1.53,1.53,0,0,1,.56-.51,1.72,1.72,0,0,1,.83-.19,2,2,0,0,1,.92.21,1.69,1.69,0,0,1,.66.61l-.75.68a.9.9,0,0,0-.8-.44.58.58,0,0,0-.35.1.32.32,0,0,0-.14.28.42.42,0,0,0,.21.33,3.19,3.19,0,0,0,.82.38,2.3,2.3,0,0,1,.91.55,1.2,1.2,0,0,1,.31.87,1.55,1.55,0,0,1-.47,1.18,1.75,1.75,0,0,1-1.24.45A2.13,2.13,0,0,1,312.19,290.43Z"/>
      <path class="cls-2" d="M318.14,286.77v-1.06h.65v-.26a1.77,1.77,0,0,1,.46-1.34,1.81,1.81,0,0,1,1.28-.44,1.83,1.83,0,0,1,.93.2l-.26,1a1.48,1.48,0,0,0-.61-.14c-.38,0-.56.21-.56.63v.35h1.05v1.06H320v4h-1.24v-4Z"/>
      <path class="cls-2" d="M323.12,285.71v.82a2,2,0,0,1,.67-.67,1.6,1.6,0,0,1,.83-.23,2,2,0,0,1,.6.1l-.22,1.15a1,1,0,0,0-.53-.14,1.17,1.17,0,0,0-1,.53,3,3,0,0,0-.38,1.69v1.79h-1.24v-5Z"/>
      <path class="cls-2" d="M330.31,288.63h-3.48a1.42,1.42,0,0,0,.4.85,1.16,1.16,0,0,0,.81.29,1.22,1.22,0,0,0,.7-.19,1.77,1.77,0,0,0,.51-.59l1,.37a2.49,2.49,0,0,1-.86,1.09,2.51,2.51,0,0,1-1.43.38,2.28,2.28,0,0,1-1.36-.39,2.25,2.25,0,0,1-.8-1,3.09,3.09,0,0,1-.26-1.23,3.13,3.13,0,0,1,.26-1.24,2.22,2.22,0,0,1,2.16-1.36,2.27,2.27,0,0,1,1.33.37,2.22,2.22,0,0,1,.77.95,2.83,2.83,0,0,1,.25,1.17Zm-1.27-1a1.34,1.34,0,0,0-.35-.69,1,1,0,0,0-.73-.27,1.07,1.07,0,0,0-.69.24,1.3,1.3,0,0,0-.4.72Z"/>
      <path class="cls-2" d="M334.67,290.29a1.46,1.46,0,0,1-.5.38,1.79,1.79,0,0,1-.71.16,2.11,2.11,0,0,1-1.71-.71,3.29,3.29,0,0,1,0-3.79,2.11,2.11,0,0,1,1.71-.7,1.48,1.48,0,0,1,.76.19,1.07,1.07,0,0,1,.45.41v-.52h1.25v7.08h-1.25v-2.5Zm-.21-.93a2.17,2.17,0,0,0,0-2.27,1.08,1.08,0,0,0-1.68,0,2.17,2.17,0,0,0,0,2.27,1.07,1.07,0,0,0,1.68,0Z"/>
      <path class="cls-2" d="M337.74,290.44a1.48,1.48,0,0,1-.43-1.13v-3.6h1.24v3.23a.9.9,0,0,0,.2.63.7.7,0,0,0,.52.2.81.81,0,0,0,.57-.24,1.58,1.58,0,0,0,.42-.71,3.31,3.31,0,0,0,.16-1.1v-2h1.24v5h-1.24v-.81a2.24,2.24,0,0,1-.69.65,1.63,1.63,0,0,1-.87.24A1.59,1.59,0,0,1,337.74,290.44Z"/>
      <path class="cls-2" d="M347.55,288.63h-3.48a1.42,1.42,0,0,0,.4.85,1.16,1.16,0,0,0,.8.29,1.23,1.23,0,0,0,.71-.19,1.77,1.77,0,0,0,.51-.59l1,.37a2.49,2.49,0,0,1-.86,1.09,2.51,2.51,0,0,1-1.43.38,2.28,2.28,0,0,1-1.36-.39,2.25,2.25,0,0,1-.8-1,3.09,3.09,0,0,1-.26-1.23A3.13,3.13,0,0,1,343,287a2.22,2.22,0,0,1,2.16-1.36,2.21,2.21,0,0,1,1.32.37,2.17,2.17,0,0,1,.78.95,2.83,2.83,0,0,1,.25,1.17Zm-1.27-1a1.34,1.34,0,0,0-.35-.69,1,1,0,0,0-.73-.27,1.07,1.07,0,0,0-.69.24,1.37,1.37,0,0,0-.41.72Z"/>
      <path class="cls-2" d="M349.91,285.71v.81a2.49,2.49,0,0,1,.69-.65,1.68,1.68,0,0,1,.87-.24,1.6,1.6,0,0,1,1.13.39,1.46,1.46,0,0,1,.42,1.13v3.6h-1.24v-3.23a.86.86,0,0,0-.19-.63.69.69,0,0,0-.53-.2.85.85,0,0,0-.57.24,1.74,1.74,0,0,0-.42.7,3.62,3.62,0,0,0-.16,1.11v2h-1.24v-5Z"/>
      <path class="cls-2" d="M355,290.36a1.88,1.88,0,0,1-.49-1.39v-2.2h-.78v-1.06h.78v-1.26l1.24-.78v2h1.33v1.06h-1.33V289a.93.93,0,0,0,.17.63.6.6,0,0,0,.49.19,1,1,0,0,0,.48-.12l.29,1a1.92,1.92,0,0,1-.82.18A1.9,1.9,0,0,1,355,290.36Z"/>
      <path class="cls-2" d="M357.92,283.67h1.25v7.08h-1.25Z"/>
      <path class="cls-2" d="M363.48,285.71h1.24l-2.6,7.08h-1.2l.86-2.38-1.82-4.7h1.25l1.15,3.1Z"/>
    </g>
    <g>
      <g>
        <g>
          <path class="cls-3" d="M166.36,166.5c-10.65,0-20.51-1-25.13-2.63-2.45-.44-2.45-1.19-2.45-1.44V150.55h55.16v11.9c0,.22,0,1-2.33,1.38C186.93,165.46,177.05,166.5,166.36,166.5Z"/>
          <path class="cls-2" d="M193.44,151.05v11.22h0v.18c0,.34-.75.67-1.92.88l-.08,0-.07,0C186.82,165,177,166,166.36,166s-20.4-1-25-2.6l-.07,0h-.08c-1.2-.21-1.92-.55-2-.9V151.05h54.16m1-1H138.28V162.3a.2.2,0,0,0,0,.07.13.13,0,0,0,0,.06c0,1,1,1.6,2.79,1.91,4.54,1.57,14.16,2.66,25.29,2.66s20.81-1.09,25.34-2.67c1.76-.32,2.74-.9,2.74-1.9V150.05Z"/>
        </g>
        <g>
          <ellipse class="cls-3" cx="166.36" cy="150.03" rx="27.58" ry="4.2"/>
          <path class="cls-2" d="M166.36,146.32c16.79,0,26.29,2.35,27.07,3.71-.78,1.35-10.28,3.7-27.07,3.7s-26.29-2.35-27.06-3.7c.77-1.36,10.28-3.71,27.06-3.71m0-1c-15.51,0-28.08,2.11-28.08,4.71s12.57,4.7,28.08,4.7,28.08-2.1,28.08-4.7-12.57-4.71-28.08-4.71Z"/>
        </g>
      </g>
      <g>
        <g>
          <path class="cls-3" d="M166.36,154.25c-10.65,0-20.52-1-25.13-2.63-2.45-.44-2.45-1.19-2.45-1.44V138.3h55.16v11.89c0,.23,0,1-2.33,1.39C186.93,153.21,177.05,154.25,166.36,154.25Z"/>
          <path class="cls-2" d="M193.44,138.8V150h0v.17c0,.35-.75.68-1.92.89l-.08,0-.07,0c-4.55,1.59-14.37,2.62-25,2.62s-20.4-1-25-2.61l-.07,0-.08,0c-1.2-.21-1.92-.54-2-.89V138.8h54.16m1-1H138.28V150a.15.15,0,0,0,0,.07.17.17,0,0,0,0,.07c0,1,1,1.59,2.79,1.91,4.54,1.57,14.16,2.66,25.29,2.66s20.81-1.09,25.34-2.67c1.76-.32,2.74-.9,2.74-1.9V137.8Z"/>
        </g>
        <g>
          <path class="cls-3" d="M166.36,142c-17.09,0-27.58-2.45-27.58-4.21s10.49-4.2,27.58-4.2,27.58,2.45,27.58,4.2S183.45,142,166.36,142Z"/>
          <path class="cls-2" d="M166.36,134.07c16.79,0,26.29,2.35,27.07,3.71-.78,1.35-10.28,3.7-27.07,3.7s-26.29-2.35-27.06-3.7c.77-1.36,10.28-3.71,27.06-3.71m0-1c-15.51,0-28.08,2.11-28.08,4.71s12.57,4.7,28.08,4.7,28.08-2.11,28.08-4.7-12.57-4.71-28.08-4.71Z"/>
        </g>
      </g>
      <g>
        <g>
          <path class="cls-3" d="M166.36,142c-10.65,0-20.51-1-25.13-2.64-2.45-.43-2.45-1.19-2.45-1.43v-.11h0a1.12,1.12,0,0,0,.07-.29l0-.09,0,0-.08-11.37h55.16v11.89c0,.23,0,1-2.33,1.39C186.93,141,177.05,142,166.36,142Z"/>
          <path class="cls-2" d="M193.44,126.55v11.22h0V138c0,.35-.75.68-1.92.89h-.08l-.07,0c-4.55,1.59-14.37,2.62-25,2.62s-20.4-1-25-2.61l-.07,0-.08,0c-1.19-.21-1.92-.54-2-.9,0-.06,0-.19.05-.27l0-.09v-.17l-.07-10.87h54.15m1-1H138.28l.08,11.88s-.08.41-.07.43a.15.15,0,0,0,0,.07c0,1,1,1.59,2.79,1.91,4.54,1.57,14.16,2.66,25.29,2.66s20.81-1.1,25.34-2.68c1.76-.31,2.74-.9,2.74-1.89V125.55Z"/>
        </g>
        <g>
          <path class="cls-3" d="M166.36,129.73c-17.09,0-27.58-2.45-27.58-4.21s10.49-4.2,27.58-4.2,27.58,2.45,27.58,4.2S183.45,129.73,166.36,129.73Z"/>
          <path class="cls-2" d="M166.36,121.82c16.79,0,26.29,2.35,27.07,3.7-.78,1.36-10.28,3.71-27.07,3.71s-26.29-2.35-27.06-3.71c.77-1.35,10.28-3.7,27.06-3.7m0-1c-15.51,0-28.08,2.1-28.08,4.7s12.57,4.71,28.08,4.71,28.08-2.11,28.08-4.71-12.57-4.7-28.08-4.7Z"/>
        </g>
      </g>
    </g>
    <g>
      <path class="cls-4" d="M33.07,166.5a4.58,4.58,0,0,1-4.57-4.57V126.07a4.58,4.58,0,0,1,4.57-4.57H93.93a5.58,5.58,0,0,1,5.57,5.57v34.86a4.58,4.58,0,0,1-4.57,4.57Z"/>
      <path class="cls-2" d="M93.93,122A5.07,5.07,0,0,1,99,127.07v34.86A4.08,4.08,0,0,1,94.93,166H33.07A4.08,4.08,0,0,1,29,161.93V126.07A4.08,4.08,0,0,1,33.07,122H93.93m0-1H33.07A5.07,5.07,0,0,0,28,126.07v35.86A5.07,5.07,0,0,0,33.07,167H94.93a5.07,5.07,0,0,0,5.07-5.07V127.07A6.09,6.09,0,0,0,93.93,121Z"/>
    </g>
    <g>
      <path class="cls-2" d="M42.84,140.77a2,2,0,0,1-2,1.9c-1.41,0-2.08-1.25-2.08-3s.75-3,2.14-3a2,2,0,0,1,1.94,2h-.78c-.09-.66-.45-1.24-1.19-1.24s-1.32.81-1.32,2.29S40,142,40.88,142c.73,0,1.1-.51,1.2-1.2Z"/>
      <path class="cls-2" d="M46,138.19a2.26,2.26,0,1,1-2,2.24A2,2,0,0,1,46,138.19Zm0,3.86c.66,0,1.22-.47,1.22-1.62s-.56-1.62-1.22-1.62-1.21.48-1.21,1.62S45.32,142.05,46,142.05Z"/>
      <path class="cls-2" d="M50.21,138.87a1.33,1.33,0,0,1,1.26-.68c1,0,1.35.69,1.35,1.64v2.74h-.74v-2.48c0-.7,0-1.27-.85-1.27s-1,.49-1,1.41v2.34h-.74v-4.31h.74Z"/>
      <path class="cls-2" d="M55.3,137.19H56v1.07H57.8v.64H56v2.48c0,.44,0,.55.43.55H57.8v.64H56.31c-.78,0-1-.19-1-1.08V138.9H54.08v-.64H55.3Z"/>
      <path class="cls-2" d="M61.92,138.26v3.67h1.22v.64H60v-.64h1.21v-3H60v-.64Zm0-1.49v.87h-.74v-.87Z"/>
      <path class="cls-2" d="M65.71,138.87a1.34,1.34,0,0,1,1.26-.68c1,0,1.36.69,1.36,1.64v2.74h-.74v-2.48c0-.7-.06-1.27-.86-1.27s-1,.49-1,1.41v2.34H65v-4.31h.74Z"/>
      <path class="cls-2" d="M72.74,142a1.33,1.33,0,0,1-1.26.66c-1,0-1.34-.69-1.34-1.64v-2.77h.74v2.52c0,.69,0,1.26.84,1.26s1-.49,1-1.41v-2.37h.74v4.31h-.74Z"/>
      <path class="cls-2" d="M77,138.19a2.26,2.26,0,1,1-2,2.24A2,2,0,0,1,77,138.19Zm0,3.86c.66,0,1.22-.47,1.22-1.62s-.56-1.62-1.22-1.62-1.21.48-1.21,1.62S76.33,142.05,77,142.05Z"/>
      <path class="cls-2" d="M83.08,142a1.35,1.35,0,0,1-1.27.66c-1,0-1.33-.69-1.33-1.64v-2.77h.73v2.52c0,.69,0,1.26.84,1.26s1-.49,1-1.41v-2.37h.73v4.31h-.73Z"/>
      <path class="cls-2" d="M88.21,139.44c-.1-.48-.48-.64-1-.64s-.87.17-.87.55.23.49.65.58l.48.09c.74.15,1.54.43,1.54,1.29s-.78,1.36-1.72,1.36a1.62,1.62,0,0,1-1.76-1.39h.78a.9.9,0,0,0,1,.78c.46,0,1-.16,1-.66s-.36-.6-.9-.7l-.54-.1c-.68-.14-1.22-.47-1.22-1.22s.91-1.19,1.63-1.19A1.58,1.58,0,0,1,89,139.44Z"/>
      <path class="cls-2" d="M36.38,146.77h3.68v.72H38.6v4.36h1.46v.72H36.38v-.72h1.46v-4.36H36.38Z"/>
      <path class="cls-2" d="M42.45,148.87a1.36,1.36,0,0,1,1.27-.68c1,0,1.35.69,1.35,1.64v2.74h-.74v-2.48c0-.7,0-1.27-.85-1.27s-1,.49-1,1.41v2.34h-.73v-4.31h.73Z"/>
      <path class="cls-2" d="M47.55,147.19h.74v1.07H50v.64H48.29v2.48c0,.44,0,.55.43.55H50v.64H48.56c-.79,0-1-.19-1-1.08V148.9H46.33v-.64h1.22Z"/>
      <path class="cls-2" d="M51.8,150.43a2,2,0,0,1,2-2.25c1.25,0,2,.92,1.92,2.46h-3.1c0,.86.48,1.43,1.16,1.43a1,1,0,0,0,1.12-.79h.75a1.76,1.76,0,0,1-1.85,1.39C52.45,152.67,51.8,151.7,51.8,150.43Zm.78-.4h2.31a1.11,1.11,0,0,0-1.14-1.24C53.05,148.79,52.61,149.2,52.58,150Z"/>
      <path class="cls-2" d="M59.88,148.26h.73V152c0,.88-.11,1.24-.34,1.51a2,2,0,0,1-1.5.57,1.56,1.56,0,0,1-1.73-1.3h.77c.11.4.33.66,1,.66a1.14,1.14,0,0,0,.88-.32c.15-.17.23-.37.23-1v-.42a1.36,1.36,0,0,1-1.27.71c-1,0-1.74-.72-1.74-2.15s.74-2.15,1.74-2.15a1.38,1.38,0,0,1,1.27.72Zm-1.12.55q-1.11,0-1.11,1.53c0,1,.37,1.55,1.11,1.55s1.15-.42,1.15-1.55S59.37,148.81,58.76,148.81Z"/>
      <path class="cls-2" d="M64.11,148.26V149a1.21,1.21,0,0,1,1.15-.77H66v.68h-.73c-.82,0-1.14.54-1.14,1.48v1.51H65.6v.64H62.17v-.64h1.22v-3H62.17v-.64Z"/>
      <path class="cls-2" d="M67.4,151.45c0-1,1.09-1.34,2.85-1.53v-.18a.85.85,0,0,0-1-1,.89.89,0,0,0-1,.85H67.5a1.66,1.66,0,0,1,1.79-1.44c1.19,0,1.7.52,1.68,1.72v1c0,.72,0,1.34.06,1.63h-.7v-.64a1.58,1.58,0,0,1-1.51.74A1.26,1.26,0,0,1,67.4,151.45Zm2.9-.95c-1.31.13-2.11.32-2.11.93,0,.41.3.65.82.65s1.29-.31,1.29-1.46Z"/>
      <path class="cls-2" d="M73.39,147.19h.74v1.07h1.75v.64H74.13v2.48c0,.44,0,.55.43.55h1.32v.64H74.4c-.79,0-1-.19-1-1.08V148.9H72.17v-.64h1.22Z"/>
      <path class="cls-2" d="M80,148.26v3.67h1.22v.64H78.05v-.64h1.22v-3H78.05v-.64Zm0-1.49v.87h-.74v-.87Z"/>
      <path class="cls-2" d="M84.73,148.19a2.26,2.26,0,1,1-2,2.24A2,2,0,0,1,84.73,148.19Zm0,3.86c.66,0,1.22-.47,1.22-1.62s-.56-1.62-1.22-1.62-1.21.48-1.21,1.62S84.08,152.05,84.73,152.05Z"/>
      <path class="cls-2" d="M89,148.87a1.33,1.33,0,0,1,1.26-.68c1,0,1.35.69,1.35,1.64v2.74h-.74v-2.48c0-.7,0-1.27-.85-1.27s-1,.49-1,1.41v2.34h-.74v-4.31H89Z"/>
    </g>
    <g>
      <path class="cls-4" d="M239.07,166.5a4.58,4.58,0,0,1-4.57-4.57V126.07a4.58,4.58,0,0,1,4.57-4.57h60.86a5.58,5.58,0,0,1,5.57,5.57v34.86a4.58,4.58,0,0,1-4.57,4.57Z"/>
      <path class="cls-2" d="M299.93,122a5.07,5.07,0,0,1,5.07,5.07v34.86a4.08,4.08,0,0,1-4.07,4.07H239.07a4.08,4.08,0,0,1-4.07-4.07V126.07a4.08,4.08,0,0,1,4.07-4.07h60.86m0-1H239.07a5.07,5.07,0,0,0-5.07,5.07v35.86a5.07,5.07,0,0,0,5.07,5.07h61.86a5.07,5.07,0,0,0,5.07-5.07V127.07a6.09,6.09,0,0,0-6.07-6.07Z"/>
    </g>
    <g>
      <path class="cls-5" d="M352.07,169.5a4.58,4.58,0,0,1-4.57-4.57V127.07a4.58,4.58,0,0,1,4.57-4.57h36.86a5.58,5.58,0,0,1,5.57,5.57v36.86a4.58,4.58,0,0,1-4.57,4.57Z"/>
      <path class="cls-2" d="M388.93,123a5.07,5.07,0,0,1,5.07,5.07v36.86a4.08,4.08,0,0,1-4.07,4.07H352.07a4.08,4.08,0,0,1-4.07-4.07V127.07a4.08,4.08,0,0,1,4.07-4.07h36.86m0-1H352.07a5.07,5.07,0,0,0-5.07,5.07v37.86a5.07,5.07,0,0,0,5.07,5.07h37.86a5.07,5.07,0,0,0,5.07-5.07V128.07a6.09,6.09,0,0,0-6.07-6.07Z"/>
    </g>
    <g>
      <path class="cls-5" d="M347.5,130.5v-3.43a4.58,4.58,0,0,1,4.57-4.57h36.86a5.58,5.58,0,0,1,5.57,5.57v2.43Z"/>
      <path class="cls-2" d="M388.93,123a5.07,5.07,0,0,1,5.07,5.07V130H348v-2.93a4.08,4.08,0,0,1,4.07-4.07h36.86m0-1H352.07a5.07,5.07,0,0,0-5.07,5.07V131h48v-2.93a6.09,6.09,0,0,0-6.07-6.07Z"/>
    </g>
    <g>
      <path class="cls-2" d="M248.84,140.77a2,2,0,0,1-2,1.9c-1.41,0-2.08-1.25-2.08-3s.75-3,2.14-3a2,2,0,0,1,1.94,2h-.78c-.09-.66-.45-1.24-1.19-1.24s-1.32.81-1.32,2.29S246,142,246.88,142c.73,0,1.1-.51,1.2-1.2Z"/>
      <path class="cls-2" d="M252,138.19a2.26,2.26,0,1,1-2,2.24A2,2,0,0,1,252,138.19Zm0,3.86c.66,0,1.22-.47,1.22-1.62s-.56-1.62-1.22-1.62-1.21.48-1.21,1.62S251.32,142.05,252,142.05Z"/>
      <path class="cls-2" d="M256.21,138.87a1.33,1.33,0,0,1,1.26-.68c1,0,1.35.69,1.35,1.64v2.74h-.74v-2.48c0-.7-.05-1.27-.85-1.27s-1,.49-1,1.41v2.34h-.74v-4.31h.74Z"/>
      <path class="cls-2" d="M261.3,137.19H262v1.07h1.76v.64H262v2.48c0,.44,0,.55.43.55h1.33v.64h-1.49c-.78,0-1-.19-1-1.08V138.9h-1.22v-.64h1.22Z"/>
      <path class="cls-2" d="M267.92,138.26v3.67h1.22v.64H266v-.64h1.21v-3H266v-.64Zm0-1.49v.87h-.74v-.87Z"/>
      <path class="cls-2" d="M271.71,138.87a1.34,1.34,0,0,1,1.26-.68c1,0,1.36.69,1.36,1.64v2.74h-.74v-2.48c0-.7-.06-1.27-.86-1.27s-1,.49-1,1.41v2.34H271v-4.31h.74Z"/>
      <path class="cls-2" d="M278.74,142a1.33,1.33,0,0,1-1.26.66c-1,0-1.34-.69-1.34-1.64v-2.77h.74v2.52c0,.69,0,1.26.84,1.26s1-.49,1-1.41v-2.37h.74v4.31h-.74Z"/>
      <path class="cls-2" d="M283,138.19a2.26,2.26,0,1,1-2,2.24A2,2,0,0,1,283,138.19Zm0,3.86c.66,0,1.22-.47,1.22-1.62s-.56-1.62-1.22-1.62-1.21.48-1.21,1.62S282.33,142.05,283,142.05Z"/>
      <path class="cls-2" d="M289.08,142a1.35,1.35,0,0,1-1.27.66c-1,0-1.33-.69-1.33-1.64v-2.77h.73v2.52c0,.69,0,1.26.84,1.26s1-.49,1-1.41v-2.37h.73v4.31h-.73Z"/>
      <path class="cls-2" d="M294.21,139.44c-.1-.48-.48-.64-1-.64s-.87.17-.87.55.23.49.65.58l.48.09c.74.15,1.54.43,1.54,1.29s-.78,1.36-1.72,1.36a1.62,1.62,0,0,1-1.76-1.39h.78a.9.9,0,0,0,1,.78c.46,0,1-.16,1-.66s-.36-.6-.9-.7l-.54-.1c-.68-.14-1.22-.47-1.22-1.22s.91-1.19,1.63-1.19a1.58,1.58,0,0,1,1.69,1.25Z"/>
      <path class="cls-2" d="M251.13,146.77c1.65,0,3,.68,3,2.89s-1.33,2.91-3,2.91h-1v-5.8Zm0,.72h-.21v4.36h.21c1.08,0,2.22-.22,2.22-2.19S252.19,147.49,251.11,147.49Z"/>
      <path class="cls-2" d="M255.21,150.43a2,2,0,0,1,2-2.25c1.25,0,2,.92,1.91,2.46H256c0,.86.48,1.43,1.16,1.43a1,1,0,0,0,1.11-.79H259a1.78,1.78,0,0,1-1.85,1.39C255.86,152.67,255.21,151.7,255.21,150.43Zm.79-.4h2.3a1.1,1.1,0,0,0-1.13-1.24C256.47,148.79,256,149.2,256,150Z"/>
      <path class="cls-2" d="M262.7,146.77v5.16h1.22v.64h-3.17v-.64H262v-4.54h-1.22v-.62Z"/>
      <path class="cls-2" d="M267.92,148.26v3.67h1.22v.64H266v-.64h1.21v-3H266v-.64Zm0-1.49v.87h-.74v-.87Z"/>
      <path class="cls-2" d="M272.68,151.56l1.1-3.3h.77L273,152.57h-.71l-1.55-4.31h.83Z"/>
      <path class="cls-2" d="M275.89,150.43a2,2,0,0,1,1.95-2.25c1.25,0,2,.92,1.92,2.46h-3.1c0,.86.48,1.43,1.16,1.43a1,1,0,0,0,1.11-.79h.76a1.76,1.76,0,0,1-1.85,1.39C276.53,152.67,275.89,151.7,275.89,150.43Zm.78-.4H279a1.1,1.1,0,0,0-1.13-1.24C277.14,148.79,276.7,149.2,276.67,150Z"/>
      <path class="cls-2" d="M283,148.26V149a1.21,1.21,0,0,1,1.15-.77h.74v.68h-.73c-.82,0-1.14.54-1.14,1.48v1.51h1.47v.64h-3.43v-.64h1.22v-3h-1.22v-.64Z"/>
      <path class="cls-2" d="M286.18,154v-.64H287c.45,0,.59-.05.81-.67l0-.09-1.61-4.31H287l1.16,3.32,1.15-3.32h.76l-1.59,4.49c-.31.85-.55,1.22-1.46,1.22Z"/>
    </g>
    <g>
      <path class="cls-4" d="M440.07,166.5a4.58,4.58,0,0,1-4.57-4.57V126.07a4.58,4.58,0,0,1,4.57-4.57h60.86a5.58,5.58,0,0,1,5.57,5.57v34.86a4.58,4.58,0,0,1-4.57,4.57Z"/>
      <path class="cls-2" d="M500.93,122a5.07,5.07,0,0,1,5.07,5.07v34.86a4.08,4.08,0,0,1-4.07,4.07H440.07a4.08,4.08,0,0,1-4.07-4.07V126.07a4.08,4.08,0,0,1,4.07-4.07h60.86m0-1H440.07a5.07,5.07,0,0,0-5.07,5.07v35.86a5.07,5.07,0,0,0,5.07,5.07h61.86a5.07,5.07,0,0,0,5.07-5.07V127.07a6.09,6.09,0,0,0-6.07-6.07Z"/>
    </g>
    <g>
      <path class="cls-2" d="M449.84,140.77a2,2,0,0,1-2,1.9c-1.41,0-2.08-1.25-2.08-3s.75-3,2.14-3a2,2,0,0,1,1.94,2h-.78c-.09-.66-.45-1.24-1.19-1.24s-1.32.81-1.32,2.29S447,142,447.88,142c.73,0,1.1-.51,1.2-1.2Z"/>
      <path class="cls-2" d="M453,138.19a2.26,2.26,0,1,1-2,2.24A2,2,0,0,1,453,138.19Zm0,3.86c.66,0,1.22-.47,1.22-1.62s-.56-1.62-1.22-1.62-1.21.48-1.21,1.62S452.32,142.05,453,142.05Z"/>
      <path class="cls-2" d="M457.21,138.87a1.33,1.33,0,0,1,1.26-.68c1,0,1.35.69,1.35,1.64v2.74h-.74v-2.48c0-.7-.05-1.27-.85-1.27s-1,.49-1,1.41v2.34h-.74v-4.31h.74Z"/>
      <path class="cls-2" d="M462.3,137.19H463v1.07h1.76v.64H463v2.48c0,.44,0,.55.43.55h1.33v.64h-1.49c-.78,0-1-.19-1-1.08V138.9h-1.22v-.64h1.22Z"/>
      <path class="cls-2" d="M468.92,138.26v3.67h1.22v.64H467v-.64h1.21v-3H467v-.64Zm0-1.49v.87h-.74v-.87Z"/>
      <path class="cls-2" d="M472.71,138.87a1.34,1.34,0,0,1,1.26-.68c1,0,1.36.69,1.36,1.64v2.74h-.74v-2.48c0-.7-.06-1.27-.86-1.27s-1,.49-1,1.41v2.34H472v-4.31h.74Z"/>
      <path class="cls-2" d="M479.74,142a1.33,1.33,0,0,1-1.26.66c-1,0-1.34-.69-1.34-1.64v-2.77h.74v2.52c0,.69,0,1.26.84,1.26s1-.49,1-1.41v-2.37h.74v4.31h-.74Z"/>
      <path class="cls-2" d="M484,138.19a2.26,2.26,0,1,1-2,2.24A2,2,0,0,1,484,138.19Zm0,3.86c.66,0,1.22-.47,1.22-1.62s-.56-1.62-1.22-1.62-1.21.48-1.21,1.62S483.33,142.05,484,142.05Z"/>
      <path class="cls-2" d="M490.08,142a1.35,1.35,0,0,1-1.27.66c-1,0-1.33-.69-1.33-1.64v-2.77h.73v2.52c0,.69,0,1.26.84,1.26s1-.49,1-1.41v-2.37h.73v4.31h-.73Z"/>
      <path class="cls-2" d="M495.21,139.44c-.1-.48-.48-.64-1-.64s-.87.17-.87.55.23.49.65.58l.48.09c.74.15,1.54.43,1.54,1.29s-.78,1.36-1.72,1.36a1.62,1.62,0,0,1-1.76-1.39h.78a.9.9,0,0,0,1,.78c.46,0,1-.16,1-.66s-.36-.6-.9-.7l-.54-.1c-.68-.14-1.22-.47-1.22-1.22s.91-1.19,1.63-1.19a1.58,1.58,0,0,1,1.69,1.25Z"/>
      <path class="cls-2" d="M447,146.77c1.64,0,3,.68,3,2.89s-1.33,2.91-3,2.91h-1v-5.8Zm0,.72h-.21v4.36h.21c1.08,0,2.23-.22,2.23-2.19S448,147.49,446.94,147.49Z"/>
      <path class="cls-2" d="M451.05,150.43a2,2,0,0,1,1.95-2.25c1.25,0,2,.92,1.92,2.46h-3.1c0,.86.48,1.43,1.16,1.43a1,1,0,0,0,1.11-.79h.76a1.76,1.76,0,0,1-1.85,1.39C451.69,152.67,451.05,151.7,451.05,150.43Zm.78-.4h2.3a1.1,1.1,0,0,0-1.13-1.24C452.3,148.79,451.86,149.2,451.83,150Z"/>
      <path class="cls-2" d="M457.17,148.91a1.4,1.4,0,0,1,1.28-.72c1,0,1.73.83,1.73,2.24s-.74,2.24-1.73,2.24a1.39,1.39,0,0,1-1.28-.71v2h-.73v-5.71h.73Zm1.12,3.15c.74,0,1.12-.6,1.12-1.63s-.38-1.62-1.12-1.62-1.15.49-1.15,1.62S457.68,152.06,458.29,152.06Z"/>
      <path class="cls-2" d="M463.7,146.77v5.16h1.22v.64h-3.17v-.64H463v-4.54h-1.22v-.62Z"/>
      <path class="cls-2" d="M468.48,148.19a2.26,2.26,0,1,1-2,2.24A2,2,0,0,1,468.48,148.19Zm0,3.86c.65,0,1.21-.47,1.21-1.62s-.56-1.62-1.21-1.62-1.22.48-1.22,1.62S467.82,152.05,468.48,152.05Z"/>
      <path class="cls-2" d="M471.68,154v-.64h.77c.45,0,.6-.05.82-.67l0-.09-1.6-4.31h.8l1.17,3.32,1.14-3.32h.76L474,152.75c-.3.85-.54,1.22-1.45,1.22Z"/>
      <path class="cls-2" d="M479.88,148.19c.45,0,.89.21.89,1.35v3H480v-2.66c0-.62,0-1.1-.37-1.1s-.48.43-.48,1.32v2.44h-.74v-2.66c0-.62,0-1.1-.36-1.1s-.48.44-.48,1.33v2.43h-.74v-4.31h.7v.46a.87.87,0,0,1,.79-.53.69.69,0,0,1,.67.55A.93.93,0,0,1,479.88,148.19Z"/>
      <path class="cls-2" d="M482.05,150.43a2,2,0,0,1,2-2.25c1.25,0,2,.92,1.91,2.46h-3.09c0,.86.48,1.43,1.16,1.43a1,1,0,0,0,1.11-.79h.76a1.78,1.78,0,0,1-1.85,1.39C482.7,152.67,482.05,151.7,482.05,150.43Zm.79-.4h2.3a1.1,1.1,0,0,0-1.13-1.24C483.31,148.79,482.87,149.2,482.84,150Z"/>
      <path class="cls-2" d="M488.21,148.87a1.36,1.36,0,0,1,1.27-.68c1,0,1.35.69,1.35,1.64v2.74h-.74v-2.48c0-.7,0-1.27-.85-1.27s-1,.49-1,1.41v2.34h-.73v-4.31h.73Z"/>
      <path class="cls-2" d="M493.31,147.19h.74v1.07h1.75v.64h-1.75v2.48c0,.44,0,.55.43.55h1.32v.64h-1.48c-.79,0-1-.19-1-1.08V148.9h-1.22v-.64h1.22Z"/>
    </g>
    <g>
      <path class="cls-2" d="M226.72,146.05H200.5a.5.5,0,0,1-.5-.5.5.5,0,0,1,.5-.5h26.22a.5.5,0,0,1,.5.5A.5.5,0,0,1,226.72,146.05Z"/>
      <path class="cls-2" d="M216.22,156.55a.47.47,0,0,1-.35-.15.5.5,0,0,1,0-.71L226,145.55,215.87,135.4a.5.5,0,0,1,0-.71.5.5,0,0,1,.7,0l10.5,10.5a.5.5,0,0,1,0,.71l-10.5,10.5A.47.47,0,0,1,216.22,156.55Z"/>
    </g>
    <g>
      <path class="cls-2" d="M339.72,146.05H313.5a.5.5,0,0,1-.5-.5.5.5,0,0,1,.5-.5h26.22a.5.5,0,0,1,.5.5A.5.5,0,0,1,339.72,146.05Z"/>
      <path class="cls-2" d="M329.22,156.55a.47.47,0,0,1-.35-.15.5.5,0,0,1,0-.71L339,145.55,328.87,135.4a.5.5,0,0,1,0-.71.5.5,0,0,1,.7,0l10.5,10.5a.5.5,0,0,1,0,.71l-10.5,10.5A.47.47,0,0,1,329.22,156.55Z"/>
    </g>
    <g>
      <path class="cls-2" d="M427.72,146.05H401.5a.5.5,0,0,1-.5-.5.5.5,0,0,1,.5-.5h26.22a.5.5,0,0,1,.5.5A.5.5,0,0,1,427.72,146.05Z"/>
      <path class="cls-2" d="M417.22,156.55a.47.47,0,0,1-.35-.15.5.5,0,0,1,0-.71L427,145.55,416.87,135.4a.5.5,0,0,1,0-.71.5.5,0,0,1,.7,0l10.5,10.5a.5.5,0,0,1,0,.71l-10.5,10.5A.47.47,0,0,1,417.22,156.55Z"/>
    </g>
    <g>
      <path class="cls-2" d="M539.72,146.05H513.5a.5.5,0,0,1-.5-.5.5.5,0,0,1,.5-.5h26.22a.5.5,0,0,1,.5.5A.5.5,0,0,1,539.72,146.05Z"/>
      <path class="cls-2" d="M529.22,156.55a.47.47,0,0,1-.35-.15.5.5,0,0,1,0-.71L539,145.55,528.87,135.4a.5.5,0,0,1,0-.71.5.5,0,0,1,.7,0l10.5,10.5a.5.5,0,0,1,0,.71l-10.5,10.5A.47.47,0,0,1,529.22,156.55Z"/>
    </g>
    <g>
      <path class="cls-2" d="M131.72,146.05H105.5a.5.5,0,0,1-.5-.5.5.5,0,0,1,.5-.5h26.22a.5.5,0,0,1,.5.5A.5.5,0,0,1,131.72,146.05Z"/>
      <path class="cls-2" d="M121.22,156.55a.47.47,0,0,1-.35-.15.5.5,0,0,1,0-.71L131,145.55,120.87,135.4a.5.5,0,0,1,0-.71.5.5,0,0,1,.7,0l10.5,10.5a.5.5,0,0,1,0,.71l-10.5,10.5A.47.47,0,0,1,121.22,156.55Z"/>
    </g>
    <g>
      <rect class="cls-6" x="364.5" y="122.5" width="13" height="47"/>
      <path class="cls-2" d="M377,123v46H365V123h12m1-1H364v48h14V122Z"/>
    </g>
    <g>
      <path class="cls-6" d="M362.57,125.57a8.57,8.57,0,1,1,8.58-8.57v8.57Z"/>
      <path class="cls-2" d="M362.57,108.93a8.08,8.08,0,0,1,8.08,8.07v8.07h-8.08a8.07,8.07,0,1,1,0-16.14m0-1A9.07,9.07,0,0,0,353.5,117h0a9.07,9.07,0,0,0,9.07,9.07h9.08V117a9.07,9.07,0,0,0-9.08-9.07Z"/>
    </g>
    <g>
      <path class="cls-6" d="M370.85,125.57V117a8.58,8.58,0,1,1,8.58,8.57Z"/>
      <path class="cls-2" d="M379.43,108.93a8.07,8.07,0,1,1,0,16.14h-8.08V117a8.08,8.08,0,0,1,8.08-8.07m0-1a9.07,9.07,0,0,0-9.08,9.07v9.07h9.08A9.07,9.07,0,0,0,388.5,117h0a9.07,9.07,0,0,0-9.07-9.07Z"/>
    </g>
    <g>
      <rect class="cls-6" x="347.5" y="139.5" width="47" height="13"/>
      <path class="cls-2" d="M394,140v12H348V140h46m1-1H347v14h48V139Z"/>
    </g>
    <g>
      <g>
        <rect class="cls-7" x="570.8" y="150.34" width="8.52" height="20.87"/>
        <path class="cls-2" d="M579.82,171.71H570.3V149.84h9.52Zm-8.52-1h7.52V150.84H571.3Z"/>
      </g>
      <g>
        <path class="cls-7" d="M558,169.43h34.14a2.55,2.55,0,0,1,2.54,2.55v1H555.44v-1A2.55,2.55,0,0,1,558,169.43Z"/>
        <path class="cls-2" d="M595.17,173.5H554.94V172a3.06,3.06,0,0,1,3-3h34.14a3,3,0,0,1,3,3Zm-39.23-1h38.23V172a2,2,0,0,0-2-2H558a2.05,2.05,0,0,0-2,2Z"/>
      </g>
      <g>
        <circle class="cls-7" cx="575.05" cy="147.69" r="8.93"/>
        <path class="cls-2" d="M575.05,157.12a9.43,9.43,0,1,1,9.43-9.43A9.44,9.44,0,0,1,575.05,157.12Zm0-17.86a8.43,8.43,0,1,0,8.43,8.43A8.45,8.45,0,0,0,575.05,139.26Z"/>
      </g>
      <g>
        <rect class="cls-7" x="546.58" y="123.4" width="56.95" height="37.94"/>
        <path class="cls-2" d="M604,161.84H546.08V122.9H604Zm-56.95-1H603V123.9H547.08Z"/>
      </g>
      <g>
        <rect class="cls-4" x="549.95" y="126.48" width="50.21" height="31.77"/>
        <path class="cls-2" d="M599.66,127v30.77H550.45V127h49.21m1-1H549.45v32.77h51.21V126Z"/>
      </g>
    </g>
    <g>
      <path class="cls-2" d="M339,76.77c1.65,0,3,.68,3,2.89s-1.32,2.91-3,2.91h-1v-5.8Zm0,.72h-.21v4.36H339c1.07,0,2.22-.22,2.22-2.19S340.06,77.49,339,77.49Z"/>
      <path class="cls-2" d="M343.09,80.43a2,2,0,0,1,2-2.25c1.26,0,2,.92,1.92,2.46h-3.09c0,.86.47,1.43,1.15,1.43a1,1,0,0,0,1.12-.79h.76A1.78,1.78,0,0,1,345,82.67C343.74,82.67,343.09,81.7,343.09,80.43Zm.78-.4h2.31A1.11,1.11,0,0,0,345,78.79C344.34,78.79,343.91,79.2,343.87,80Z"/>
      <path class="cls-2" d="M349.22,78.91a1.38,1.38,0,0,1,1.27-.72c1,0,1.73.83,1.73,2.24s-.74,2.24-1.73,2.24a1.37,1.37,0,0,1-1.27-.71v2h-.74V78.26h.74Zm1.12,3.15c.73,0,1.11-.6,1.11-1.63s-.38-1.62-1.11-1.62-1.16.49-1.16,1.62S349.72,82.06,350.34,82.06Z"/>
      <path class="cls-2" d="M355.74,76.77v5.16H357v.64h-3.18v-.64H355V77.39h-1.22v-.62Z"/>
      <path class="cls-2" d="M360.52,78.19a2.26,2.26,0,1,1-2,2.24A2,2,0,0,1,360.52,78.19Zm0,3.86c.66,0,1.22-.47,1.22-1.62s-.56-1.62-1.22-1.62-1.22.48-1.22,1.62S359.86,82.05,360.52,82.05Z"/>
      <path class="cls-2" d="M363.72,84v-.64h.78c.44,0,.59,0,.81-.67l0-.09-1.6-4.31h.8l1.17,3.32,1.15-3.32h.76L366,82.75c-.3.85-.54,1.22-1.45,1.22Z"/>
      <path class="cls-2" d="M371.93,78.19c.45,0,.89.21.89,1.35v3h-.74V79.91c0-.62,0-1.1-.37-1.1s-.48.43-.48,1.32v2.44h-.73V79.91c0-.62,0-1.1-.36-1.1s-.49.44-.49,1.33v2.43h-.74V78.26h.71v.46a.84.84,0,0,1,.78-.53.68.68,0,0,1,.67.55A1,1,0,0,1,371.93,78.19Z"/>
      <path class="cls-2" d="M374.1,80.43a2,2,0,0,1,1.95-2.25c1.25,0,2,.92,1.92,2.46h-3.1c0,.86.48,1.43,1.16,1.43a1,1,0,0,0,1.11-.79h.76a1.76,1.76,0,0,1-1.85,1.39C374.75,82.67,374.1,81.7,374.1,80.43Zm.78-.4h2.3a1.1,1.1,0,0,0-1.13-1.24C375.35,78.79,374.91,79.2,374.88,80Z"/>
      <path class="cls-2" d="M380.26,78.87a1.33,1.33,0,0,1,1.26-.68c1,0,1.35.69,1.35,1.64v2.74h-.73V80.09c0-.7-.06-1.27-.86-1.27s-1,.49-1,1.41v2.34h-.74V78.26h.74Z"/>
      <path class="cls-2" d="M385.35,77.19h.74v1.07h1.76v.64h-1.76v2.48c0,.44,0,.55.43.55h1.33v.64h-1.49c-.78,0-1-.19-1-1.08V78.9h-1.22v-.64h1.22Z"/>
      <path class="cls-2" d="M396.7,78.19a2.26,2.26,0,1,1-2,2.24A2,2,0,0,1,396.7,78.19Zm0,3.86c.65,0,1.21-.47,1.21-1.62s-.56-1.62-1.21-1.62-1.22.48-1.22,1.62S396,82.05,396.7,82.05Z"/>
      <path class="cls-2" d="M400.93,78.87a1.33,1.33,0,0,1,1.26-.68c1,0,1.35.69,1.35,1.64v2.74h-.73V80.09c0-.7-.06-1.27-.86-1.27s-1,.49-1,1.41v2.34h-.74V78.26h.74Z"/>
      <path class="cls-2" d="M342.05,87.49h-1.74v-.72h4.24v.72h-1.74v5.08h-.76Z"/>
      <path class="cls-2" d="M345.67,90.43a2,2,0,0,1,1.95-2.25c1.26,0,2,.92,1.92,2.46h-3.09c0,.86.48,1.43,1.16,1.43a1,1,0,0,0,1.11-.79h.76a1.78,1.78,0,0,1-1.86,1.39C346.32,92.67,345.67,91.7,345.67,90.43Zm.79-.4h2.3a1.1,1.1,0,0,0-1.14-1.24C346.93,88.79,346.49,89.2,346.46,90Z"/>
      <path class="cls-2" d="M353.66,89.44c-.1-.48-.48-.64-1-.64s-.87.17-.87.55.23.49.65.58L353,90c.74.15,1.54.43,1.54,1.29s-.78,1.36-1.72,1.36A1.61,1.61,0,0,1,351,91.28h.77a.9.9,0,0,0,1,.78c.46,0,1-.16,1-.66s-.36-.6-.9-.7l-.54-.1c-.68-.14-1.21-.47-1.21-1.22s.9-1.19,1.62-1.19a1.58,1.58,0,0,1,1.69,1.25Z"/>
      <path class="cls-2" d="M356.93,87.19h.73v1.07h1.76v.64h-1.76v2.48c0,.44,0,.55.44.55h1.32v.64h-1.48c-.79,0-1-.19-1-1.08V88.9h-1.22v-.64h1.22Z"/>
      <path class="cls-2" d="M366.35,88.26a1.69,1.69,0,0,1,1.9-1.59,1.79,1.79,0,0,1,1.92,1.63h-.75a1.09,1.09,0,0,0-1.21-.93c-.53,0-1.08.26-1.08.86s.37.76.84.87l.57.12c.94.21,1.75.62,1.75,1.72a1.75,1.75,0,0,1-2,1.73,2,2,0,0,1-2.1-1.91H367A1.28,1.28,0,0,0,368.36,92a1,1,0,0,0,1.17-1c0-.6-.46-.87-1.09-1l-.63-.15A1.64,1.64,0,0,1,366.35,88.26Z"/>
      <path class="cls-2" d="M371.51,90.43a2,2,0,0,1,1.95-2.25c1.26,0,2,.92,1.92,2.46h-3.09c0,.86.48,1.43,1.16,1.43a1,1,0,0,0,1.11-.79h.76a1.78,1.78,0,0,1-1.86,1.39C372.16,92.67,371.51,91.7,371.51,90.43Zm.79-.4h2.3a1.1,1.1,0,0,0-1.14-1.24C372.77,88.79,372.33,89.2,372.3,90Z"/>
      <path class="cls-2" d="M378.66,88.26V89a1.21,1.21,0,0,1,1.15-.77h.73v.68h-.72c-.83,0-1.15.54-1.15,1.48v1.51h1.47v.64h-3.42v-.64h1.22v-3h-1.23v-.64Z"/>
      <path class="cls-2" d="M383.81,91.56l1.1-3.3h.77l-1.55,4.31h-.71l-1.55-4.31h.83Z"/>
      <path class="cls-2" d="M387,90.43a2,2,0,0,1,2-2.25c1.25,0,2,.92,1.92,2.46h-3.1c0,.86.48,1.43,1.16,1.43a1,1,0,0,0,1.11-.79h.76A1.76,1.76,0,0,1,389,92.67C387.67,92.67,387,91.7,387,90.43Zm.78-.4h2.3A1.1,1.1,0,0,0,389,88.79C388.27,88.79,387.83,89.2,387.8,90Z"/>
      <path class="cls-2" d="M394.16,88.26V89a1.21,1.21,0,0,1,1.15-.77h.74v.68h-.73c-.82,0-1.14.54-1.14,1.48v1.51h1.47v.64h-3.42v-.64h1.21v-3h-1.22v-.64Z"/>
      <path class="cls-2" d="M400.17,89.44c-.1-.48-.47-.64-1-.64s-.87.17-.87.55.23.49.65.58l.48.09c.75.15,1.54.43,1.54,1.29s-.78,1.36-1.71,1.36a1.62,1.62,0,0,1-1.76-1.39h.77a.9.9,0,0,0,1,.78c.46,0,1-.16,1-.66s-.36-.6-.9-.7l-.54-.1c-.68-.14-1.21-.47-1.21-1.22s.9-1.19,1.62-1.19a1.59,1.59,0,0,1,1.7,1.25Z"/>
    </g>
    <g>
      <path class="cls-2" d="M146.64,80.77a2,2,0,0,1-2,1.9c-1.41,0-2.07-1.25-2.07-3s.75-3,2.13-3a2,2,0,0,1,1.94,2h-.77c-.1-.66-.46-1.24-1.19-1.24s-1.33.81-1.33,2.29.46,2.31,1.34,2.31,1.11-.51,1.21-1.2Z"/>
      <path class="cls-2" d="M149.77,78.19a2.26,2.26,0,1,1-2,2.24A2,2,0,0,1,149.77,78.19Zm0,3.86c.65,0,1.21-.47,1.21-1.62s-.56-1.62-1.21-1.62-1.22.48-1.22,1.62S149.11,82.05,149.77,82.05Z"/>
      <path class="cls-2" d="M155.9,76.77h.74v5.8h-.73V82a1.36,1.36,0,0,1-1.27.71c-1,0-1.73-.82-1.73-2.24s.74-2.24,1.73-2.24a1.37,1.37,0,0,1,1.27.72Zm-1.12,2c-.73,0-1.11.6-1.11,1.62s.38,1.63,1.11,1.63,1.16-.5,1.16-1.63S155.4,78.81,154.78,78.81Z"/>
      <path class="cls-2" d="M158.18,80.43a2,2,0,0,1,1.95-2.25c1.25,0,2,.92,1.92,2.46H159c0,.86.48,1.43,1.16,1.43a1,1,0,0,0,1.11-.79H162a1.76,1.76,0,0,1-1.85,1.39C158.83,82.67,158.18,81.7,158.18,80.43ZM159,80h2.3a1.1,1.1,0,0,0-1.13-1.24C159.43,78.79,159,79.2,159,80Z"/>
      <path class="cls-2" d="M168.66,76.77h1.71c1,0,1.9.28,1.9,1.43a1.48,1.48,0,0,1-.57,1.27,1.39,1.39,0,0,1,.79,1.38c0,1.23-.91,1.72-2,1.72h-1.88Zm.76,2.46h1.11c.6,0,1-.24,1-.92s-.4-.82-1-.82h-1.11Zm0,2.62h1.19c.73,0,1.09-.34,1.09-1s-.36-1-1.15-1h-1.13Z"/>
      <path class="cls-2" d="M176.54,82a1.36,1.36,0,0,1-1.27.66c-1,0-1.33-.69-1.33-1.64V78.26h.73v2.52c0,.69,0,1.26.84,1.26s1-.49,1-1.41V78.26h.73v4.31h-.73Z"/>
      <path class="cls-2" d="M181.22,78.26v3.67h1.22v.64h-3.18v-.64h1.22v-3h-1.22v-.64Zm0-1.49v.87h-.74v-.87Z"/>
      <path class="cls-2" d="M186.34,76.77v5.16h1.22v.64h-3.18v-.64h1.22V77.39h-1.22v-.62Z"/>
      <path class="cls-2" d="M190.1,77.19h.74v1.07h1.76v.64h-1.76v2.48c0,.44,0,.55.43.55h1.33v.64h-1.49c-.78,0-1-.19-1-1.08V78.9h-1.22v-.64h1.22Z"/>
      <path class="cls-2" d="M142.77,91.45c0-1,1.09-1.34,2.85-1.53v-.18a.85.85,0,0,0-1-1,.89.89,0,0,0-1,.85h-.75a1.66,1.66,0,0,1,1.79-1.44c1.19,0,1.7.52,1.68,1.72v1c0,.72,0,1.34.06,1.63h-.7v-.64a1.57,1.57,0,0,1-1.51.74A1.26,1.26,0,0,1,142.77,91.45Zm2.9-1c-1.31.13-2.11.32-2.11.93,0,.41.3.65.82.65s1.29-.31,1.29-1.46Z"/>
      <path class="cls-2" d="M148.83,88.87a1.36,1.36,0,0,1,1.27-.68c1,0,1.35.69,1.35,1.64v2.74h-.74V90.09c0-.7-.05-1.27-.85-1.27s-1,.49-1,1.41v2.34h-.73V88.26h.73Z"/>
      <path class="cls-2" d="M155.9,86.77h.74v5.8h-.73V92a1.36,1.36,0,0,1-1.27.71c-1,0-1.73-.82-1.73-2.24s.74-2.24,1.73-2.24a1.37,1.37,0,0,1,1.27.72Zm-1.12,2c-.73,0-1.11.6-1.11,1.62s.38,1.63,1.11,1.63,1.16-.5,1.16-1.63S155.4,88.81,154.78,88.81Z"/>
      <path class="cls-2" d="M164.89,87.49h-1.74v-.72h4.24v.72h-1.74v5.08h-.76Z"/>
      <path class="cls-2" d="M168.51,90.43a2,2,0,0,1,2-2.25c1.26,0,2,.92,1.92,2.46h-3.09c0,.86.48,1.43,1.16,1.43a1,1,0,0,0,1.11-.79h.76a1.78,1.78,0,0,1-1.86,1.39C169.16,92.67,168.51,91.7,168.51,90.43Zm.79-.4h2.3a1.1,1.1,0,0,0-1.14-1.24C169.77,88.79,169.33,89.2,169.3,90Z"/>
      <path class="cls-2" d="M176.5,89.44c-.1-.48-.48-.64-1-.64s-.87.17-.87.55.23.49.65.58l.48.09c.74.15,1.54.43,1.54,1.29s-.78,1.36-1.72,1.36a1.61,1.61,0,0,1-1.75-1.39h.77a.9.9,0,0,0,1,.78c.46,0,1-.16,1-.66s-.36-.6-.9-.7l-.54-.1c-.68-.14-1.21-.47-1.21-1.22s.9-1.19,1.62-1.19a1.58,1.58,0,0,1,1.69,1.25Z"/>
      <path class="cls-2" d="M179.77,87.19h.73v1.07h1.76v.64H180.5v2.48c0,.44,0,.55.44.55h1.32v.64h-1.48c-.79,0-1-.19-1-1.08V88.9h-1.23v-.64h1.23Z"/>
      <path class="cls-2" d="M184,90.43A2,2,0,0,1,186,88.18c1.25,0,2,.92,1.92,2.46h-3.1c0,.86.48,1.43,1.16,1.43a1,1,0,0,0,1.11-.79h.76A1.76,1.76,0,0,1,186,92.67C184.67,92.67,184,91.7,184,90.43Zm.78-.4h2.3A1.1,1.1,0,0,0,186,88.79C185.27,88.79,184.83,89.2,184.8,90Z"/>
      <path class="cls-2" d="M192.08,86.77h.74v5.8h-.73V92a1.36,1.36,0,0,1-1.27.71c-1,0-1.74-.82-1.74-2.24s.75-2.24,1.74-2.24a1.37,1.37,0,0,1,1.27.72Zm-1.12,2c-.74,0-1.11.6-1.11,1.62s.37,1.63,1.11,1.63,1.15-.5,1.15-1.63S191.58,88.81,191,88.81Z"/>
    </g>
    <g>
      <path class="cls-2" d="M537.67,80.77a2,2,0,0,1-2,1.9c-1.42,0-2.08-1.25-2.08-3s.75-3,2.13-3a2.07,2.07,0,0,1,1.95,2h-.78c-.09-.66-.46-1.24-1.19-1.24s-1.33.81-1.33,2.29.46,2.31,1.35,2.31c.73,0,1.1-.51,1.2-1.2Z"/>
      <path class="cls-2" d="M541.73,82a1.34,1.34,0,0,1-1.26.66c-1,0-1.34-.69-1.34-1.64V78.26h.74v2.52c0,.69,0,1.26.84,1.26s1-.49,1-1.41V78.26h.73v4.31h-.73Z"/>
      <path class="cls-2" d="M546.86,79.44c-.1-.48-.47-.64-1-.64s-.87.17-.87.55.23.49.65.58l.48.09c.75.15,1.54.43,1.54,1.29s-.78,1.36-1.71,1.36a1.62,1.62,0,0,1-1.76-1.39H545a.9.9,0,0,0,1,.78c.46,0,1-.16,1-.66s-.36-.6-.9-.7l-.54-.1c-.68-.14-1.21-.47-1.21-1.22s.9-1.19,1.62-1.19a1.58,1.58,0,0,1,1.69,1.25Z"/>
      <path class="cls-2" d="M550.13,77.19h.74v1.07h1.75v.64h-1.75v2.48c0,.44,0,.55.43.55h1.32v.64h-1.48c-.79,0-1-.19-1-1.08V78.9h-1.22v-.64h1.22Z"/>
      <path class="cls-2" d="M556.31,78.19a2.25,2.25,0,1,1-2,2.24A2,2,0,0,1,556.31,78.19Zm0,3.86c.65,0,1.21-.47,1.21-1.62s-.56-1.62-1.21-1.62-1.22.48-1.22,1.62S555.65,82.05,556.31,82.05Z"/>
      <path class="cls-2" d="M562.54,78.19c.45,0,.89.21.89,1.35v3h-.73V79.91c0-.62,0-1.1-.37-1.1s-.48.43-.48,1.32v2.44h-.74V79.91c0-.62,0-1.1-.36-1.1s-.48.44-.48,1.33v2.43h-.74V78.26h.7v.46a.87.87,0,0,1,.79-.53.69.69,0,0,1,.67.55A.93.93,0,0,1,562.54,78.19Z"/>
      <path class="cls-2" d="M564.71,80.43a2,2,0,0,1,2-2.25c1.25,0,2,.92,1.91,2.46h-3.09c0,.86.48,1.43,1.16,1.43a1,1,0,0,0,1.11-.79h.76a1.78,1.78,0,0,1-1.85,1.39C565.36,82.67,564.71,81.7,564.71,80.43Zm.79-.4h2.3a1.1,1.1,0,0,0-1.13-1.24C566,78.79,565.53,79.2,565.5,80Z"/>
      <path class="cls-2" d="M571.86,78.26V79a1.21,1.21,0,0,1,1.15-.77h.73v.68H573c-.83,0-1.15.54-1.15,1.48v1.51h1.47v.64h-3.42v-.64h1.22v-3h-1.23v-.64Z"/>
      <path class="cls-2" d="M579.91,76.77h.82l1.41,4.78,1.41-4.78h.82l-1.83,5.8h-.8Z"/>
      <path class="cls-2" d="M587.75,78.26v3.67H589v.64H585.8v-.64H587v-3H585.8v-.64Zm0-1.49v.87H587v-.87Z"/>
      <path class="cls-2" d="M593.37,79.44c-.1-.48-.47-.64-1-.64s-.86.17-.86.55.22.49.64.58l.48.09c.75.15,1.55.43,1.55,1.29s-.79,1.36-1.72,1.36a1.62,1.62,0,0,1-1.76-1.39h.77a.9.9,0,0,0,1,.78c.46,0,1-.16,1-.66s-.36-.6-.9-.7l-.54-.1c-.68-.14-1.21-.47-1.21-1.22s.9-1.19,1.62-1.19a1.59,1.59,0,0,1,1.7,1.25Z"/>
      <path class="cls-2" d="M598.09,78.26v3.67h1.22v.64h-3.17v-.64h1.21v-3h-1.21v-.64Zm0-1.49v.87h-.74v-.87Z"/>
      <path class="cls-2" d="M601.85,78.91a1.4,1.4,0,0,1,1.28-.72c1,0,1.73.83,1.73,2.24s-.75,2.24-1.73,2.24a1.39,1.39,0,0,1-1.28-.71v.61h-.73v-5.8h.74ZM603,82.06c.74,0,1.11-.6,1.11-1.63s-.37-1.62-1.11-1.62-1.15.49-1.15,1.62S602.36,82.06,603,82.06Z"/>
      <path class="cls-2" d="M608.38,76.77v5.16h1.22v.64h-3.17v-.64h1.21V77.39h-1.21v-.62Z"/>
      <path class="cls-2" d="M611.23,80.43a2,2,0,0,1,1.95-2.25c1.25,0,2,.92,1.92,2.46H612c0,.86.48,1.43,1.16,1.43a1,1,0,0,0,1.11-.79H615a1.77,1.77,0,0,1-1.85,1.39C611.87,82.67,611.23,81.7,611.23,80.43ZM612,80h2.3a1.1,1.1,0,0,0-1.13-1.24C612.48,78.79,612,79.2,612,80Z"/>
      <path class="cls-2" d="M560.93,90.77a2,2,0,0,1-2,1.9c-1.41,0-2.08-1.25-2.08-3s.76-3,2.14-3a2,2,0,0,1,1.94,2h-.77c-.1-.66-.46-1.24-1.19-1.24s-1.33.81-1.33,2.29S558.07,92,559,92s1.1-.51,1.21-1.2Z"/>
      <path class="cls-2" d="M565.74,89.83v2.74H565V90.09c0-.7,0-1.28-.85-1.28s-1,.5-1,1.42v2.34h-.73v-5.8h.73v2.1a1.39,1.39,0,0,1,1.27-.68C565.43,88.19,565.74,88.88,565.74,89.83Z"/>
      <path class="cls-2" d="M567.39,91.45c0-1,1.09-1.34,2.85-1.53v-.18a.85.85,0,0,0-1-1,.89.89,0,0,0-1,.85h-.75a1.65,1.65,0,0,1,1.78-1.44c1.19,0,1.7.52,1.69,1.72v1a15.29,15.29,0,0,0,.06,1.63h-.71v-.64a1.57,1.57,0,0,1-1.51.74A1.26,1.26,0,0,1,567.39,91.45Zm2.91-1c-1.31.13-2.11.32-2.11.93,0,.41.29.65.81.65s1.3-.31,1.3-1.46Z"/>
      <path class="cls-2" d="M573.46,88.87a1.33,1.33,0,0,1,1.26-.68c1,0,1.35.69,1.35,1.64v2.74h-.73V90.09c0-.7-.06-1.27-.86-1.27s-1,.49-1,1.41v2.34h-.74V88.26h.74Z"/>
      <path class="cls-2" d="M580.54,88.26h.74V92c0,.88-.11,1.24-.34,1.51a2,2,0,0,1-1.51.57,1.54,1.54,0,0,1-1.72-1.3h.77c.11.4.33.66,1,.66a1.16,1.16,0,0,0,.88-.32c.14-.17.22-.37.22-1v-.42a1.35,1.35,0,0,1-1.27.71c-1,0-1.73-.72-1.73-2.15s.74-2.15,1.73-2.15a1.37,1.37,0,0,1,1.27.72Zm-1.11.55c-.74,0-1.12.51-1.12,1.53s.38,1.55,1.12,1.55,1.15-.42,1.15-1.55S580,88.81,579.43,88.81Z"/>
      <path class="cls-2" d="M582.8,90.43a2,2,0,0,1,2-2.25c1.26,0,2,.92,1.92,2.46h-3.09c0,.86.48,1.43,1.16,1.43a1,1,0,0,0,1.11-.79h.76a1.78,1.78,0,0,1-1.86,1.39C583.45,92.67,582.8,91.7,582.8,90.43Zm.79-.4h2.3a1.11,1.11,0,0,0-1.14-1.24C584.06,88.79,583.62,89.2,583.59,90Z"/>
      <path class="cls-2" d="M590.79,89.44c-.1-.48-.48-.64-1-.64s-.87.17-.87.55.23.49.65.58l.48.09c.74.15,1.54.43,1.54,1.29s-.78,1.36-1.72,1.36a1.62,1.62,0,0,1-1.76-1.39h.78a.9.9,0,0,0,1,.78c.45,0,1-.16,1-.66s-.36-.6-.9-.7l-.54-.1c-.68-.14-1.22-.47-1.22-1.22s.91-1.19,1.63-1.19a1.58,1.58,0,0,1,1.69,1.25Z"/>
    </g>
    <g>
      <path class="cls-2" d="M315.86,267a.5.5,0,0,1-.5-.5.5.5,0,0,1,.5-.5l4,0h0a.5.5,0,0,1,0,1l-4,0Zm-4,0h0l-4,0a.5.5,0,1,1,0-1h0l4,0a.5.5,0,0,1,.5.5A.5.5,0,0,1,311.86,267Zm12-.09a.5.5,0,0,1,0-1l4-.09a.52.52,0,0,1,.51.49.5.5,0,0,1-.48.51l-4,.09Zm-20,0h0c-1.34,0-2.67-.05-4-.09a.51.51,0,0,1-.49-.52.54.54,0,0,1,.52-.48c1.33,0,2.66.07,4,.09a.52.52,0,0,1,.49.51A.5.5,0,0,1,303.85,266.92Zm28-.2a.5.5,0,0,1,0-1l4-.16a.51.51,0,0,1,.52.48.49.49,0,0,1-.48.52l-4,.16Zm-36,0h0c-1.33,0-2.67-.1-4-.16a.5.5,0,0,1-.48-.52.52.52,0,0,1,.52-.48c1.33.06,2.66.12,4,.16a.5.5,0,0,1,0,1Zm44-.32a.5.5,0,0,1,0-1l4-.21a.5.5,0,0,1,.53.47.52.52,0,0,1-.47.53l-4,.21Zm-52,0h0l-4-.22a.52.52,0,0,1-.47-.53.49.49,0,0,1,.53-.47l4,.22a.49.49,0,0,1,.47.52A.5.5,0,0,1,287.83,266.36Zm60-.44a.5.5,0,0,1-.5-.47.51.51,0,0,1,.47-.53l4-.27a.49.49,0,0,1,.53.46.49.49,0,0,1-.46.53l-4,.28Zm-68,0h0l-4-.28a.5.5,0,0,1-.46-.54.51.51,0,0,1,.54-.46c1.33.1,2.66.2,4,.28a.5.5,0,0,1,.46.54A.49.49,0,0,1,279.84,265.88Zm76-.54a.5.5,0,0,1,0-1l4-.34a.52.52,0,0,1,.55.46.51.51,0,0,1-.46.54q-2,.18-4,.33Zm-84,0h0l-4-.34a.51.51,0,0,1-.45-.55.52.52,0,0,1,.54-.45l4,.35a.5.5,0,0,1,0,1Zm92-.66a.51.51,0,0,1-.5-.45.52.52,0,0,1,.45-.55c1.33-.12,2.66-.26,4-.39a.5.5,0,1,1,.1,1l-4,.4Zm-99.94-.07h-.05c-1.33-.13-2.66-.26-4-.41a.5.5,0,0,1-.45-.55.5.5,0,0,1,.55-.44l4,.41a.5.5,0,0,1-.05,1Zm107.9-.76a.51.51,0,0,1-.5-.44.5.5,0,0,1,.44-.55l4-.46a.5.5,0,1,1,.12,1l-4,.46Zm-115.87-.1h-.06l-4-.48a.5.5,0,0,1-.44-.56.49.49,0,0,1,.56-.43l4,.47a.5.5,0,0,1,.43.56A.49.49,0,0,1,255.89,263.7Zm123.81-.85a.51.51,0,0,1-.5-.44.51.51,0,0,1,.44-.56c1.32-.16,2.64-.34,4-.52a.51.51,0,0,1,.56.43.5.5,0,0,1-.43.56l-4,.53Zm-131.77-.14h-.07l-4-.54a.5.5,0,0,1-.43-.57.51.51,0,0,1,.56-.42l4,.54a.5.5,0,0,1,.43.56A.49.49,0,0,1,247.93,262.71Zm139.69-.94a.5.5,0,0,1-.07-1l3.95-.58a.5.5,0,0,1,.57.41.49.49,0,0,1-.42.57l-4,.59ZM240,261.6h-.08l-4-.61a.5.5,0,0,1,.16-1l4,.61a.5.5,0,0,1-.07,1Zm155.54-1a.5.5,0,0,1-.08-1c1.31-.21,2.63-.42,3.94-.65a.51.51,0,0,1,.58.41.5.5,0,0,1-.41.58l-3.95.65Zm-163.47-.23H232l-4-.68a.5.5,0,0,1-.4-.58.48.48,0,0,1,.57-.4l3.95.67a.5.5,0,0,1-.08,1Zm171.35-1.09a.49.49,0,0,1-.49-.41.49.49,0,0,1,.4-.58l3.93-.71a.5.5,0,0,1,.59.4.5.5,0,0,1-.41.58l-3.93.71ZM224.16,259h-.09l-3.95-.74a.5.5,0,0,1,.19-1c1.31.26,2.63.5,3.94.75a.5.5,0,0,1-.09,1Zm187.11-1.16a.51.51,0,0,1-.49-.41.5.5,0,0,1,.4-.58l3.91-.77a.5.5,0,0,1,.2,1l-3.92.77Zm-195-.37h-.1l-3.93-.81a.51.51,0,0,1-.39-.59.52.52,0,0,1,.6-.39c1.3.28,2.61.55,3.92.81a.5.5,0,0,1,.39.59A.49.49,0,0,1,216.28,257.43Zm202.83-1.21a.49.49,0,0,1-.49-.39.5.5,0,0,1,.38-.6l3.91-.83a.5.5,0,0,1,.59.38.5.5,0,0,1-.38.6l-3.91.83Zm-210.68-.45h-.11l-3.92-.88a.5.5,0,0,1-.37-.6.5.5,0,0,1,.6-.38l3.91.89a.49.49,0,0,1,.38.59A.5.5,0,0,1,208.43,255.77Zm218.48-1.25a.51.51,0,0,1-.49-.39.5.5,0,0,1,.38-.6c1.3-.29,2.59-.59,3.89-.9a.5.5,0,0,1,.6.38.51.51,0,0,1-.37.6l-3.9.9ZM200.61,254h-.12c-1.3-.32-2.6-.63-3.9-1a.5.5,0,0,1,.24-1l3.9.95a.52.52,0,0,1,.37.61A.5.5,0,0,1,200.61,254Zm234.08-1.28a.5.5,0,0,1-.12-1l3.87-1a.49.49,0,0,1,.61.36.5.5,0,0,1-.37.61q-1.94.49-3.87,1ZM192.82,252l-.12,0-3.89-1a.48.48,0,0,1-.35-.61.5.5,0,0,1,.61-.35c1.29.35,2.58.69,3.88,1a.5.5,0,0,1,.35.61A.49.49,0,0,1,192.82,252Zm249.61-1.3a.5.5,0,0,1-.13-1l3.86-1a.5.5,0,1,1,.26,1l-3.86,1Zm-257.36-.79-.14,0-3.86-1.1a.5.5,0,0,1-.34-.62.49.49,0,0,1,.62-.34l3.85,1.1a.5.5,0,0,1-.13,1Zm265.07-1.3a.5.5,0,0,1-.14-1l3.84-1.09a.5.5,0,0,1,.62.34.51.51,0,0,1-.34.62l-3.85,1.09Zm-272.78-.94a.39.39,0,0,1-.15,0l-3.84-1.17a.51.51,0,0,1-.33-.63.51.51,0,0,1,.63-.33c1.27.4,2.55.79,3.83,1.17a.5.5,0,0,1,.34.63A.51.51,0,0,1,177.36,247.7Zm280.45-1.28a.49.49,0,0,1-.48-.36.5.5,0,0,1,.34-.62l3.81-1.16a.5.5,0,1,1,.3,1L458,246.4Zm-288.11-1.1-.15,0-3.81-1.25a.49.49,0,0,1-.31-.63.5.5,0,0,1,.63-.32l3.8,1.25a.5.5,0,0,1-.16,1Zm295.74-1.25a.51.51,0,0,1-.48-.35.5.5,0,0,1,.33-.63c1.26-.4,2.53-.81,3.79-1.23a.5.5,0,0,1,.63.32.49.49,0,0,1-.32.63c-1.26.42-2.53.83-3.8,1.23A.4.4,0,0,1,465.44,244.07ZM162.11,242.8a.45.45,0,0,1-.16,0l-3.78-1.32a.5.5,0,0,1,.33-.95c1.26.45,2.51.89,3.78,1.32a.5.5,0,0,1,.3.64A.49.49,0,0,1,162.11,242.8ZM473,241.58a.5.5,0,0,1-.16-1l3.77-1.3a.5.5,0,0,1,.33.95c-1.25.43-2.51.87-3.78,1.29A.41.41,0,0,1,473,241.58Zm-318.45-1.46-.17,0-3.75-1.4a.5.5,0,0,1-.29-.65.5.5,0,0,1,.64-.29l3.75,1.4a.49.49,0,0,1,.29.64A.5.5,0,0,1,154.57,240.12Zm326-1.16a.51.51,0,0,1-.47-.34.49.49,0,0,1,.3-.63c1.26-.45,2.51-.91,3.75-1.37a.5.5,0,0,1,.64.3.49.49,0,0,1-.29.64l-3.76,1.37A.51.51,0,0,1,480.56,239Zm-333.47-1.68a.57.57,0,0,1-.18,0c-1.24-.49-2.49-1-3.72-1.48a.5.5,0,0,1,.37-.93l3.72,1.48a.5.5,0,0,1,.28.64A.51.51,0,0,1,147.09,237.28Zm341-1.08a.51.51,0,0,1-.47-.32.52.52,0,0,1,.3-.65l3.72-1.43a.5.5,0,0,1,.64.29.49.49,0,0,1-.28.64c-1.24.49-2.48,1-3.73,1.44A.57.57,0,0,1,488.05,236.2Zm-348.38-1.91a.46.46,0,0,1-.19,0q-1.84-.76-3.69-1.56a.5.5,0,0,1,.4-.92c1.22.53,2.45,1,3.68,1.56a.51.51,0,0,1,.27.65A.51.51,0,0,1,139.67,234.29Zm355.82-1A.51.51,0,0,1,495,233a.51.51,0,0,1,.28-.65l3.7-1.5a.49.49,0,0,1,.65.27.5.5,0,0,1-.27.65c-1.23.51-2.47,1-3.71,1.5A.39.39,0,0,1,495.49,233.3Zm-363.17-2.17a.48.48,0,0,1-.2,0l-3.65-1.64a.49.49,0,0,1-.25-.66.5.5,0,0,1,.66-.25l3.64,1.64a.49.49,0,0,1,.26.66A.51.51,0,0,1,132.32,231.13Zm370.55-.87a.49.49,0,0,1-.46-.3.51.51,0,0,1,.26-.66c1.23-.51,2.45-1,3.67-1.57a.5.5,0,0,1,.65.26.49.49,0,0,1-.26.66l-3.67,1.58A.63.63,0,0,1,502.87,230.26ZM125,227.82a.54.54,0,0,1-.21,0c-1.21-.57-2.41-1.14-3.62-1.73a.49.49,0,0,1-.23-.66.5.5,0,0,1,.67-.24c1.2.58,2.4,1.16,3.6,1.72a.5.5,0,0,1-.21,1Zm385.15-.73a.49.49,0,0,1-.46-.3.5.5,0,0,1,.25-.66c1.22-.54,2.43-1.09,3.63-1.64a.52.52,0,0,1,.67.25.5.5,0,0,1-.25.66L510.39,227A.53.53,0,0,1,510.19,227.09Zm-392.35-2.76a.59.59,0,0,1-.22-.05L114,222.47a.5.5,0,0,1,.46-.89q1.77.91,3.57,1.8a.51.51,0,0,1,.22.67A.49.49,0,0,1,117.84,224.33Zm399.6-.56a.49.49,0,0,1-.45-.29.5.5,0,0,1,.24-.67l3.6-1.71a.49.49,0,0,1,.66.23.5.5,0,0,1-.23.67l-3.61,1.72A.54.54,0,0,1,517.44,223.77Zm-406.71-3.09a.53.53,0,0,1-.24-.06c-1.18-.63-2.36-1.26-3.53-1.9a.49.49,0,0,1-.2-.67.49.49,0,0,1,.68-.2c1.17.63,2.34,1.26,3.52,1.88a.51.51,0,0,1,.21.68A.5.5,0,0,1,110.73,220.68Zm413.9-.38a.49.49,0,0,1-.45-.28.5.5,0,0,1,.23-.67l3.56-1.78a.49.49,0,0,1,.67.22.5.5,0,0,1-.22.67l-3.57,1.79A.59.59,0,0,1,524.63,220.3ZM103.7,216.85a.53.53,0,0,1-.24-.06c-1.17-.66-2.33-1.32-3.48-2a.5.5,0,1,1,.5-.86l3.47,2a.51.51,0,0,1,.19.69A.5.5,0,0,1,103.7,216.85Zm428-.16a.5.5,0,0,1-.23-.95c1.18-.61,2.35-1.23,3.52-1.86a.5.5,0,0,1,.47.89L532,216.63A.49.49,0,0,1,531.74,216.69Zm7-3.76a.53.53,0,0,1-.44-.26.5.5,0,0,1,.2-.68c1.17-.64,2.33-1.29,3.48-1.94a.52.52,0,0,1,.69.19.5.5,0,0,1-.2.68c-1.15.66-2.32,1.3-3.49,1.94A.4.4,0,0,1,538.77,212.93Zm-442-.08a.47.47,0,0,1-.25-.07l-3.43-2.07a.5.5,0,1,1,.52-.86q1.71,1.05,3.42,2.07a.5.5,0,0,1,.18.68A.51.51,0,0,1,96.77,212.85Zm449-3.84a.5.5,0,0,1-.25-.93c1.15-.66,2.29-1.33,3.43-2a.51.51,0,0,1,.69.18.5.5,0,0,1-.18.68c-1.14.68-2.29,1.35-3.45,2A.5.5,0,0,1,545.73,209ZM90,208.67a.5.5,0,0,1-.26-.08c-1.13-.71-2.26-1.43-3.38-2.16a.49.49,0,0,1-.14-.69.5.5,0,0,1,.69-.15c1.11.73,2.23,1.44,3.36,2.16a.5.5,0,0,1-.27.92ZM552.59,205a.52.52,0,0,1-.43-.24.5.5,0,0,1,.17-.69c1.14-.69,2.27-1.38,3.39-2.08a.5.5,0,1,1,.53.85c-1.13.7-2.26,1.4-3.4,2.09A.48.48,0,0,1,552.59,205Zm-469.34-.64a.54.54,0,0,1-.28-.08c-1.12-.75-2.23-1.5-3.33-2.26a.5.5,0,1,1,.57-.83l3.31,2.26a.5.5,0,0,1-.27.91Zm476.11-3.58a.51.51,0,0,1-.42-.23.5.5,0,0,1,.15-.69c1.12-.71,2.24-1.43,3.35-2.16a.5.5,0,0,1,.69.14.49.49,0,0,1-.15.69c-1.11.73-2.23,1.46-3.35,2.17A.43.43,0,0,1,559.36,200.73Zm-482.72-1a.52.52,0,0,1-.29-.09c-1.09-.78-2.18-1.56-3.26-2.35a.5.5,0,0,1-.1-.7.51.51,0,0,1,.7-.11c1.07.79,2.15,1.57,3.24,2.35a.5.5,0,0,1-.29.9ZM566,196.36a.49.49,0,0,1-.41-.22.5.5,0,0,1,.13-.69c1.11-.74,2.21-1.49,3.3-2.24a.49.49,0,0,1,.69.12.51.51,0,0,1-.12.7l-3.31,2.25A.54.54,0,0,1,566,196.36ZM70.18,195a.47.47,0,0,1-.3-.1l-1.2-.91a.5.5,0,0,1,.61-.79l1.19.9a.5.5,0,0,1-.3.9Z"/>
      <path class="cls-2" d="M64.21,204.68h0a.51.51,0,0,1-.46-.54L65,189.28a.51.51,0,0,1,.54-.46L80.45,190a.5.5,0,0,1,.45.54.49.49,0,0,1-.53.46L66,189.86l-1.28,14.36A.49.49,0,0,1,64.21,204.68Z"/>
    </g>
  </g>
</svg>
