<svg xmlns="http://www.w3.org/2000/svg" viewBox="0 0 640 450">
  <defs>
    <style>
      .cls-1 {
        fill: #fff3ff;
      }

      .cls-2 {
        fill: #10162f;
      }

      .cls-3 {
        fill: #fff4ff;
      }

      .cls-4 {
        fill: #fff9e4;
      }

      .cls-5 {
        fill: #f5fcff;
      }
    </style>
  </defs>
  <g id="BG">
    <g>
      <rect class="cls-1" x="0.75" y="0.5" width="639" height="449"/>
      <path class="cls-2" d="M639.25,1V449H1.25V1h638m1-1H.25V450h640V0Z"/>
    </g>
  </g>
  <g id="all">
    <g>
      <g>
        <g>
          <path class="cls-2" d="M444,41.66H546.66a13.56,13.56,0,0,1,13.56,13.56V179.44A13.56,13.56,0,0,1,546.66,193H445a13.56,13.56,0,0,1-13.56-13.56V54.22A12.56,12.56,0,0,1,444,41.66Z"/>
          <path class="cls-2" d="M546.66,193.5H445a14.07,14.07,0,0,1-14.05-14.06V54.22A13.07,13.07,0,0,1,444,41.16H546.66a14.08,14.08,0,0,1,14.06,14.06V179.44A14.08,14.08,0,0,1,546.66,193.5ZM444,42.16a12.06,12.06,0,0,0-12.05,12.06V179.44A13.07,13.07,0,0,0,445,192.5H546.66a13.08,13.08,0,0,0,13.06-13.06V55.22a13.08,13.08,0,0,0-13.06-13.06Z"/>
        </g>
        <g>
          <path class="cls-3" d="M449.34,188.15a13.07,13.07,0,0,1-13.06-13.05V49.87a13.07,13.07,0,0,1,13.06-13H550a14.06,14.06,0,0,1,14,14V175.1a13.06,13.06,0,0,1-13,13.05Z"/>
          <path class="cls-2" d="M550,37.32a13.57,13.57,0,0,1,13.55,13.55V175.1A12.56,12.56,0,0,1,551,187.65H449.34a12.57,12.57,0,0,1-12.56-12.55V49.87a12.57,12.57,0,0,1,12.56-12.55H550m0-1H449.34a13.56,13.56,0,0,0-13.56,13.55V175.1a13.56,13.56,0,0,0,13.56,13.55H551a13.55,13.55,0,0,0,13.55-13.55V50.87A14.6,14.6,0,0,0,550,36.32Z"/>
        </g>
      </g>
      <g>
        <path class="cls-2" d="M491.43,164.44h1.88l2,6.74,2-6.74h1.87l-3.06,9.1h-1.71Z"/>
        <path class="cls-2" d="M500.43,164.44h1.9l2.14,5.68,2.15-5.68h1.9v9.1h-1.69v-5.61l-1.75,4.78h-1.22l-1.74-4.78v5.61h-1.69Z"/>
      </g>
      <g>
        <rect class="cls-4" x="458.26" y="58.5" width="85.57" height="23" rx="4.87"/>
        <path class="cls-2" d="M539,59a4.37,4.37,0,0,1,4.37,4.37V76.63A4.37,4.37,0,0,1,539,81H463.13a4.37,4.37,0,0,1-4.37-4.37V63.37A4.37,4.37,0,0,1,463.13,59H539m0-1H463.13a5.36,5.36,0,0,0-5.37,5.37V76.63A5.36,5.36,0,0,0,463.13,82H539a5.37,5.37,0,0,0,5.37-5.37V63.37A5.37,5.37,0,0,0,539,58Z"/>
      </g>
      <g>
        <path class="cls-2" d="M497.41,73.37h-.82l-.39-1.24H494l-.39,1.24h-.81l1.9-5.8h.81Zm-3.2-2H496l-.88-2.83Z"/>
        <path class="cls-2" d="M499.3,69.71a1.38,1.38,0,0,1,1.27-.72c1,0,1.73.83,1.73,2.24s-.74,2.24-1.73,2.24a1.37,1.37,0,0,1-1.27-.71v2h-.74V69.06h.74Zm1.12,3.15c.73,0,1.11-.61,1.11-1.63s-.38-1.62-1.11-1.62-1.15.49-1.15,1.62S499.8,72.86,500.42,72.86Z"/>
        <path class="cls-2" d="M504.47,69.71a1.38,1.38,0,0,1,1.27-.72c1,0,1.73.83,1.73,2.24s-.74,2.24-1.73,2.24a1.37,1.37,0,0,1-1.27-.71v2h-.74V69.06h.74Zm1.11,3.15c.74,0,1.12-.61,1.12-1.63s-.38-1.62-1.12-1.62-1.15.49-1.15,1.62S505,72.86,505.58,72.86Z"/>
      </g>
      <g>
        <rect class="cls-4" x="458.26" y="90.5" width="85.57" height="23" rx="4.87"/>
        <path class="cls-2" d="M539,91a4.37,4.37,0,0,1,4.37,4.37v13.26A4.37,4.37,0,0,1,539,113H463.13a4.37,4.37,0,0,1-4.37-4.37V95.37A4.37,4.37,0,0,1,463.13,91H539m0-1H463.13a5.36,5.36,0,0,0-5.37,5.37v13.26a5.36,5.36,0,0,0,5.37,5.37H539a5.37,5.37,0,0,0,5.37-5.37V95.37A5.37,5.37,0,0,0,539,90Z"/>
      </g>
      <g>
        <path class="cls-2" d="M474,99.57c1.65,0,3,.68,3,2.89s-1.33,2.91-3,2.91h-1v-5.8Zm0,.72h-.21v4.36H474c1.08,0,2.22-.22,2.22-2.19S475.06,100.29,474,100.29Z"/>
        <path class="cls-2" d="M478.08,103.23A2,2,0,0,1,480,101c1.26,0,2,.92,1.92,2.46h-3.09c0,.86.48,1.43,1.16,1.43a1,1,0,0,0,1.11-.79h.76a1.78,1.78,0,0,1-1.86,1.39C478.73,105.47,478.08,104.5,478.08,103.23Zm.79-.4h2.3a1.1,1.1,0,0,0-1.14-1.24C479.34,101.59,478.9,102,478.87,102.83Z"/>
        <path class="cls-2" d="M484.21,101.71a1.38,1.38,0,0,1,1.27-.72c1,0,1.74.83,1.74,2.24s-.75,2.24-1.74,2.24a1.37,1.37,0,0,1-1.27-.71v2h-.74v-5.71h.74Zm1.12,3.15c.73,0,1.11-.61,1.11-1.63s-.38-1.62-1.11-1.62-1.15.49-1.15,1.62S484.71,104.86,485.33,104.86Z"/>
        <path class="cls-2" d="M488.42,103.23a2,2,0,0,1,1.95-2.25c1.25,0,2,.92,1.92,2.46h-3.1c0,.86.48,1.43,1.16,1.43a1,1,0,0,0,1.11-.79h.76a1.76,1.76,0,0,1-1.85,1.39C489.07,105.47,488.42,104.5,488.42,103.23Zm.78-.4h2.3a1.1,1.1,0,0,0-1.13-1.24C489.67,101.59,489.23,102,489.2,102.83Z"/>
        <path class="cls-2" d="M494.58,101.67a1.33,1.33,0,0,1,1.26-.68c1,0,1.35.69,1.35,1.64v2.74h-.73v-2.48c0-.7-.06-1.27-.86-1.27s-1,.49-1,1.41v2.34h-.74v-4.31h.74Z"/>
        <path class="cls-2" d="M501.65,99.57h.73v5.8h-.72v-.61a1.37,1.37,0,0,1-1.27.71c-1,0-1.74-.82-1.74-2.24s.75-2.24,1.74-2.24a1.38,1.38,0,0,1,1.27.72Zm-1.12,2c-.74,0-1.11.6-1.11,1.62s.37,1.63,1.11,1.63,1.15-.5,1.15-1.63S501.14,101.61,500.53,101.61Z"/>
        <path class="cls-2" d="M503.92,103.23a2,2,0,0,1,1.95-2.25c1.26,0,2,.92,1.92,2.46H504.7c0,.86.48,1.43,1.16,1.43a1,1,0,0,0,1.11-.79h.76a1.78,1.78,0,0,1-1.86,1.39C504.57,105.47,503.92,104.5,503.92,103.23Zm.79-.4H507a1.11,1.11,0,0,0-1.14-1.24C505.18,101.59,504.74,102,504.71,102.83Z"/>
        <path class="cls-2" d="M510.08,101.67a1.35,1.35,0,0,1,1.26-.68c1,0,1.36.69,1.36,1.64v2.74H512v-2.48c0-.7-.06-1.27-.86-1.27s-1,.49-1,1.41v2.34h-.73v-4.31h.73Z"/>
        <path class="cls-2" d="M518,102.5h-.74a1,1,0,0,0-1-.9c-.64,0-1.16.55-1.16,1.63s.52,1.64,1.16,1.64a1.06,1.06,0,0,0,1-.89H518a1.79,1.79,0,0,1-1.85,1.49c-1.19,0-1.9-.93-1.9-2.24a2,2,0,0,1,2-2.24A1.68,1.68,0,0,1,518,102.5Z"/>
        <path class="cls-2" d="M521.79,101.06v3.67H523v.64h-3.18v-.64h1.22v-3h-1.22v-.64Zm0-1.49v.87h-.73v-.87Z"/>
        <path class="cls-2" d="M524.59,103.23a2,2,0,0,1,1.95-2.25c1.26,0,2,.92,1.92,2.46h-3.09c0,.86.48,1.43,1.16,1.43a1,1,0,0,0,1.11-.79h.76a1.78,1.78,0,0,1-1.86,1.39C525.24,105.47,524.59,104.5,524.59,103.23Zm.79-.4h2.3a1.1,1.1,0,0,0-1.14-1.24C525.85,101.59,525.41,102,525.38,102.83Z"/>
        <path class="cls-2" d="M532.58,102.24c-.1-.48-.48-.64-1-.64s-.87.17-.87.55.23.49.65.58l.48.09c.74.15,1.54.43,1.54,1.29s-.78,1.36-1.71,1.36a1.61,1.61,0,0,1-1.76-1.39h.77a.9.9,0,0,0,1,.78c.46,0,1-.16,1-.66s-.36-.6-.9-.7l-.54-.1c-.68-.14-1.21-.47-1.21-1.22s.9-1.19,1.62-1.19a1.58,1.58,0,0,1,1.69,1.25Z"/>
      </g>
      <g>
        <rect class="cls-4" x="458.26" y="122.5" width="85.57" height="23" rx="4.87"/>
        <path class="cls-2" d="M539,123a4.37,4.37,0,0,1,4.37,4.37v13.26A4.37,4.37,0,0,1,539,145H463.13a4.37,4.37,0,0,1-4.37-4.37V127.37a4.37,4.37,0,0,1,4.37-4.37H539m0-1H463.13a5.36,5.36,0,0,0-5.37,5.37v13.26a5.36,5.36,0,0,0,5.37,5.37H539a5.37,5.37,0,0,0,5.37-5.37V127.37A5.37,5.37,0,0,0,539,122Z"/>
      </g>
      <g>
        <path class="cls-2" d="M500.85,134.46c0,1.75-.72,3-2.17,3s-2.17-1.26-2.17-3,.72-3,2.17-3S500.85,132.71,500.85,134.46Zm-3.55,0c0,1.47.43,2.31,1.38,2.31s1.38-.84,1.38-2.31-.42-2.29-1.38-2.29S497.3,133,497.3,134.46Z"/>
        <path class="cls-2" d="M501.92,133.06a1.7,1.7,0,0,1,1.91-1.59,1.79,1.79,0,0,1,1.92,1.63H505a1.1,1.1,0,0,0-1.21-.93c-.53,0-1.08.26-1.08.86s.37.76.83.87l.58.12c.94.21,1.75.62,1.75,1.72a1.76,1.76,0,0,1-2,1.73,2,2,0,0,1-2.09-1.91h.75a1.28,1.28,0,0,0,1.37,1.21,1,1,0,0,0,1.16-1c0-.6-.45-.87-1.08-1l-.64-.15A1.64,1.64,0,0,1,501.92,133.06Z"/>
      </g>
    </g>
    <g>
      <g>
        <g>
          <path class="cls-2" d="M266,41.66H368.66a13.56,13.56,0,0,1,13.56,13.56V179.44A13.56,13.56,0,0,1,368.66,193H267a13.56,13.56,0,0,1-13.56-13.56V54.22A12.56,12.56,0,0,1,266,41.66Z"/>
          <path class="cls-2" d="M368.66,193.5H267a14.07,14.07,0,0,1-14.05-14.06V54.22A13.07,13.07,0,0,1,266,41.16H368.66a14.08,14.08,0,0,1,14.06,14.06V179.44A14.08,14.08,0,0,1,368.66,193.5ZM266,42.16a12.07,12.07,0,0,0-12.05,12.06V179.44A13.07,13.07,0,0,0,267,192.5H368.66a13.08,13.08,0,0,0,13.06-13.06V55.22a13.08,13.08,0,0,0-13.06-13.06Z"/>
        </g>
        <g>
          <path class="cls-3" d="M271.34,188.15a13.07,13.07,0,0,1-13.06-13.05V49.87a13.07,13.07,0,0,1,13.06-13H372a14.06,14.06,0,0,1,14.05,14V175.1A13.06,13.06,0,0,1,373,188.15Z"/>
          <path class="cls-2" d="M372,37.32a13.57,13.57,0,0,1,13.55,13.55V175.1A12.56,12.56,0,0,1,373,187.65H271.34a12.57,12.57,0,0,1-12.56-12.55V49.87a12.57,12.57,0,0,1,12.56-12.55H372m0-1H271.34a13.56,13.56,0,0,0-13.56,13.55V175.1a13.56,13.56,0,0,0,13.56,13.55H373a13.55,13.55,0,0,0,13.55-13.55V50.87A14.6,14.6,0,0,0,372,36.32Z"/>
        </g>
      </g>
      <g>
        <path class="cls-2" d="M313.43,164.44h1.88l2,6.74,2-6.74h1.87l-3.06,9.1h-1.71Z"/>
        <path class="cls-2" d="M322.43,164.44h1.9l2.14,5.68,2.15-5.68h1.9v9.1h-1.69v-5.61l-1.75,4.78h-1.22l-1.74-4.78v5.61h-1.69Z"/>
      </g>
      <g>
        <rect class="cls-4" x="280.26" y="58.5" width="85.57" height="23" rx="4.87"/>
        <path class="cls-2" d="M361,59a4.37,4.37,0,0,1,4.37,4.37V76.63A4.37,4.37,0,0,1,361,81H285.13a4.37,4.37,0,0,1-4.37-4.37V63.37A4.37,4.37,0,0,1,285.13,59H361m0-1H285.13a5.36,5.36,0,0,0-5.37,5.37V76.63A5.36,5.36,0,0,0,285.13,82H361a5.37,5.37,0,0,0,5.37-5.37V63.37A5.37,5.37,0,0,0,361,58Z"/>
      </g>
      <g>
        <path class="cls-2" d="M319.41,73.37h-.82l-.39-1.24H316l-.39,1.24h-.81l1.9-5.8h.81Zm-3.2-2H318l-.88-2.83Z"/>
        <path class="cls-2" d="M321.3,69.71a1.38,1.38,0,0,1,1.27-.72c1,0,1.73.83,1.73,2.24s-.74,2.24-1.73,2.24a1.37,1.37,0,0,1-1.27-.71v2h-.74V69.06h.74Zm1.12,3.15c.73,0,1.11-.61,1.11-1.63s-.38-1.62-1.11-1.62-1.15.49-1.15,1.62S321.8,72.86,322.42,72.86Z"/>
        <path class="cls-2" d="M326.47,69.71a1.38,1.38,0,0,1,1.27-.72c1,0,1.73.83,1.73,2.24s-.74,2.24-1.73,2.24a1.37,1.37,0,0,1-1.27-.71v2h-.74V69.06h.74Zm1.11,3.15c.74,0,1.12-.61,1.12-1.63s-.38-1.62-1.12-1.62-1.15.49-1.15,1.62S327,72.86,327.58,72.86Z"/>
      </g>
      <g>
        <rect class="cls-4" x="280.26" y="90.5" width="85.57" height="23" rx="4.87"/>
        <path class="cls-2" d="M361,91a4.37,4.37,0,0,1,4.37,4.37v13.26A4.37,4.37,0,0,1,361,113H285.13a4.37,4.37,0,0,1-4.37-4.37V95.37A4.37,4.37,0,0,1,285.13,91H361m0-1H285.13a5.36,5.36,0,0,0-5.37,5.37v13.26a5.36,5.36,0,0,0,5.37,5.37H361a5.37,5.37,0,0,0,5.37-5.37V95.37A5.37,5.37,0,0,0,361,90Z"/>
      </g>
      <g>
        <path class="cls-2" d="M296,99.57c1.65,0,3,.68,3,2.89s-1.33,2.91-3,2.91h-1v-5.8Zm0,.72h-.21v4.36H296c1.08,0,2.22-.22,2.22-2.19S297.06,100.29,296,100.29Z"/>
        <path class="cls-2" d="M300.08,103.23A2,2,0,0,1,302,101c1.26,0,2,.92,1.92,2.46h-3.09c0,.86.48,1.43,1.16,1.43a1,1,0,0,0,1.11-.79h.76a1.78,1.78,0,0,1-1.86,1.39C300.73,105.47,300.08,104.5,300.08,103.23Zm.79-.4h2.3a1.11,1.11,0,0,0-1.14-1.24C301.34,101.59,300.9,102,300.87,102.83Z"/>
        <path class="cls-2" d="M306.21,101.71a1.38,1.38,0,0,1,1.27-.72c1,0,1.74.83,1.74,2.24s-.75,2.24-1.74,2.24a1.37,1.37,0,0,1-1.27-.71v2h-.74v-5.71h.74Zm1.12,3.15c.73,0,1.11-.61,1.11-1.63s-.38-1.62-1.11-1.62-1.15.49-1.15,1.62S306.71,104.86,307.33,104.86Z"/>
        <path class="cls-2" d="M310.42,103.23a2,2,0,0,1,1.95-2.25c1.25,0,2,.92,1.92,2.46h-3.1c0,.86.48,1.43,1.16,1.43a1,1,0,0,0,1.11-.79h.76a1.76,1.76,0,0,1-1.85,1.39C311.07,105.47,310.42,104.5,310.42,103.23Zm.78-.4h2.3a1.1,1.1,0,0,0-1.13-1.24C311.67,101.59,311.23,102,311.2,102.83Z"/>
        <path class="cls-2" d="M316.58,101.67a1.33,1.33,0,0,1,1.26-.68c1,0,1.35.69,1.35,1.64v2.74h-.73v-2.48c0-.7-.06-1.27-.86-1.27s-1,.49-1,1.41v2.34h-.74v-4.31h.74Z"/>
        <path class="cls-2" d="M323.65,99.57h.73v5.8h-.72v-.61a1.37,1.37,0,0,1-1.27.71c-1,0-1.74-.82-1.74-2.24s.75-2.24,1.74-2.24a1.38,1.38,0,0,1,1.27.72Zm-1.12,2c-.74,0-1.11.6-1.11,1.62s.37,1.63,1.11,1.63,1.15-.5,1.15-1.63S323.14,101.61,322.53,101.61Z"/>
        <path class="cls-2" d="M325.92,103.23a2,2,0,0,1,1.95-2.25c1.26,0,2,.92,1.92,2.46H326.7c0,.86.48,1.43,1.16,1.43a1,1,0,0,0,1.11-.79h.76a1.78,1.78,0,0,1-1.86,1.39C326.57,105.47,325.92,104.5,325.92,103.23Zm.79-.4H329a1.11,1.11,0,0,0-1.14-1.24C327.18,101.59,326.74,102,326.71,102.83Z"/>
        <path class="cls-2" d="M332.08,101.67a1.35,1.35,0,0,1,1.26-.68c1,0,1.36.69,1.36,1.64v2.74H334v-2.48c0-.7-.06-1.27-.86-1.27s-1,.49-1,1.41v2.34h-.73v-4.31h.73Z"/>
        <path class="cls-2" d="M340,102.5h-.74a1,1,0,0,0-1-.9c-.64,0-1.16.55-1.16,1.63s.52,1.64,1.16,1.64a1.06,1.06,0,0,0,1-.89H340a1.79,1.79,0,0,1-1.85,1.49c-1.19,0-1.9-.93-1.9-2.24a2,2,0,0,1,2-2.24A1.68,1.68,0,0,1,340,102.5Z"/>
        <path class="cls-2" d="M343.79,101.06v3.67H345v.64h-3.18v-.64h1.22v-3h-1.22v-.64Zm0-1.49v.87h-.73v-.87Z"/>
        <path class="cls-2" d="M346.59,103.23a2,2,0,0,1,2-2.25c1.26,0,2,.92,1.92,2.46h-3.09c0,.86.48,1.43,1.16,1.43a1,1,0,0,0,1.11-.79h.76a1.78,1.78,0,0,1-1.86,1.39C347.24,105.47,346.59,104.5,346.59,103.23Zm.79-.4h2.3a1.1,1.1,0,0,0-1.14-1.24C347.85,101.59,347.41,102,347.38,102.83Z"/>
        <path class="cls-2" d="M354.58,102.24c-.1-.48-.48-.64-1-.64s-.87.17-.87.55.23.49.65.58l.48.09c.74.15,1.54.43,1.54,1.29s-.78,1.36-1.71,1.36a1.61,1.61,0,0,1-1.76-1.39h.77a.9.9,0,0,0,1,.78c.46,0,1-.16,1-.66s-.36-.6-.9-.7l-.54-.1c-.68-.14-1.21-.47-1.21-1.22s.9-1.19,1.62-1.19a1.58,1.58,0,0,1,1.69,1.25Z"/>
      </g>
      <g>
        <rect class="cls-4" x="280.26" y="122.5" width="85.57" height="23" rx="4.87"/>
        <path class="cls-2" d="M361,123a4.37,4.37,0,0,1,4.37,4.37v13.26A4.37,4.37,0,0,1,361,145H285.13a4.37,4.37,0,0,1-4.37-4.37V127.37a4.37,4.37,0,0,1,4.37-4.37H361m0-1H285.13a5.36,5.36,0,0,0-5.37,5.37v13.26a5.36,5.36,0,0,0,5.37,5.37H361a5.37,5.37,0,0,0,5.37-5.37V127.37A5.37,5.37,0,0,0,361,122Z"/>
      </g>
      <g>
        <path class="cls-2" d="M322.85,134.46c0,1.75-.72,3-2.17,3s-2.17-1.26-2.17-3,.72-3,2.17-3S322.85,132.71,322.85,134.46Zm-3.55,0c0,1.47.43,2.31,1.38,2.31s1.38-.84,1.38-2.31-.42-2.29-1.38-2.29S319.3,133,319.3,134.46Z"/>
        <path class="cls-2" d="M323.92,133.06a1.7,1.7,0,0,1,1.91-1.59,1.79,1.79,0,0,1,1.92,1.63H327a1.1,1.1,0,0,0-1.21-.93c-.53,0-1.08.26-1.08.86s.37.76.83.87l.58.12c.94.21,1.75.62,1.75,1.72a1.76,1.76,0,0,1-2,1.73,2,2,0,0,1-2.09-1.91h.75a1.28,1.28,0,0,0,1.37,1.21,1,1,0,0,0,1.16-1c0-.6-.45-.87-1.08-1l-.64-.15A1.64,1.64,0,0,1,323.92,133.06Z"/>
      </g>
    </g>
    <g>
      <g>
        <g>
          <path class="cls-2" d="M92,41.66H194.66a13.56,13.56,0,0,1,13.56,13.56V179.44A13.56,13.56,0,0,1,194.66,193H93a13.56,13.56,0,0,1-13.56-13.56V54.22A12.56,12.56,0,0,1,92,41.66Z"/>
          <path class="cls-2" d="M194.66,193.5H93a14.07,14.07,0,0,1-14-14.06V54.22A13.07,13.07,0,0,1,92,41.16H194.66a14.08,14.08,0,0,1,14.06,14.06V179.44A14.08,14.08,0,0,1,194.66,193.5ZM92,42.16a12.07,12.07,0,0,0-12,12.06V179.44A13.07,13.07,0,0,0,93,192.5H194.66a13.08,13.08,0,0,0,13.06-13.06V55.22a13.08,13.08,0,0,0-13.06-13.06Z"/>
        </g>
        <g>
          <path class="cls-3" d="M97.34,188.15A13.07,13.07,0,0,1,84.28,175.1V49.87a13.07,13.07,0,0,1,13.06-13H198a14.06,14.06,0,0,1,14.05,14V175.1A13.06,13.06,0,0,1,199,188.15Z"/>
          <path class="cls-2" d="M198,37.32a13.57,13.57,0,0,1,13.55,13.55V175.1A12.56,12.56,0,0,1,199,187.65H97.34A12.57,12.57,0,0,1,84.78,175.1V49.87A12.57,12.57,0,0,1,97.34,37.32H198m0-1H97.34A13.56,13.56,0,0,0,83.78,49.87V175.1a13.56,13.56,0,0,0,13.56,13.55H199a13.55,13.55,0,0,0,13.55-13.55V50.87A14.6,14.6,0,0,0,198,36.32Z"/>
        </g>
      </g>
      <g>
        <path class="cls-2" d="M139.43,164.44h1.88l2,6.74,2-6.74h1.87l-3.06,9.1h-1.71Z"/>
        <path class="cls-2" d="M148.43,164.44h1.9l2.14,5.68,2.15-5.68h1.9v9.1h-1.69v-5.61l-1.75,4.78h-1.22l-1.74-4.78v5.61h-1.69Z"/>
      </g>
      <g>
        <rect class="cls-4" x="106.26" y="58.5" width="85.57" height="23" rx="4.87"/>
        <path class="cls-2" d="M187,59a4.37,4.37,0,0,1,4.37,4.37V76.63A4.37,4.37,0,0,1,187,81H111.13a4.37,4.37,0,0,1-4.37-4.37V63.37A4.37,4.37,0,0,1,111.13,59H187m0-1H111.13a5.36,5.36,0,0,0-5.37,5.37V76.63A5.36,5.36,0,0,0,111.13,82H187a5.37,5.37,0,0,0,5.37-5.37V63.37A5.37,5.37,0,0,0,187,58Z"/>
      </g>
      <g>
        <path class="cls-2" d="M145.41,73.37h-.82l-.39-1.24H142l-.39,1.24h-.81l1.9-5.8h.81Zm-3.2-2H144l-.88-2.83Z"/>
        <path class="cls-2" d="M147.3,69.71a1.38,1.38,0,0,1,1.27-.72c1,0,1.73.83,1.73,2.24s-.74,2.24-1.73,2.24a1.37,1.37,0,0,1-1.27-.71v2h-.74V69.06h.74Zm1.12,3.15c.73,0,1.11-.61,1.11-1.63s-.38-1.62-1.11-1.62-1.15.49-1.15,1.62S147.8,72.86,148.42,72.86Z"/>
        <path class="cls-2" d="M152.47,69.71a1.38,1.38,0,0,1,1.27-.72c1,0,1.73.83,1.73,2.24s-.74,2.24-1.73,2.24a1.37,1.37,0,0,1-1.27-.71v2h-.74V69.06h.74Zm1.11,3.15c.74,0,1.12-.61,1.12-1.63s-.38-1.62-1.12-1.62-1.15.49-1.15,1.62S153,72.86,153.58,72.86Z"/>
      </g>
      <g>
        <rect class="cls-4" x="106.26" y="90.5" width="85.57" height="23" rx="4.87"/>
        <path class="cls-2" d="M187,91a4.37,4.37,0,0,1,4.37,4.37v13.26A4.37,4.37,0,0,1,187,113H111.13a4.37,4.37,0,0,1-4.37-4.37V95.37A4.37,4.37,0,0,1,111.13,91H187m0-1H111.13a5.36,5.36,0,0,0-5.37,5.37v13.26a5.36,5.36,0,0,0,5.37,5.37H187a5.37,5.37,0,0,0,5.37-5.37V95.37A5.37,5.37,0,0,0,187,90Z"/>
      </g>
      <g>
        <path class="cls-2" d="M122,99.57c1.65,0,3,.68,3,2.89s-1.33,2.91-3,2.91h-1v-5.8Zm0,.72h-.21v4.36H122c1.08,0,2.22-.22,2.22-2.19S123.06,100.29,122,100.29Z"/>
        <path class="cls-2" d="M126.08,103.23a2,2,0,0,1,2-2.25c1.26,0,2,.92,1.92,2.46h-3.09c0,.86.48,1.43,1.16,1.43a1,1,0,0,0,1.11-.79h.76a1.78,1.78,0,0,1-1.86,1.39C126.73,105.47,126.08,104.5,126.08,103.23Zm.79-.4h2.3a1.11,1.11,0,0,0-1.14-1.24C127.34,101.59,126.9,102,126.87,102.83Z"/>
        <path class="cls-2" d="M132.21,101.71a1.38,1.38,0,0,1,1.27-.72c1,0,1.74.83,1.74,2.24s-.75,2.24-1.74,2.24a1.37,1.37,0,0,1-1.27-.71v2h-.74v-5.71h.74Zm1.12,3.15c.73,0,1.11-.61,1.11-1.63s-.38-1.62-1.11-1.62-1.15.49-1.15,1.62S132.71,104.86,133.33,104.86Z"/>
        <path class="cls-2" d="M136.42,103.23a2,2,0,0,1,2-2.25c1.25,0,2,.92,1.92,2.46h-3.1c0,.86.48,1.43,1.16,1.43a1,1,0,0,0,1.11-.79h.76a1.76,1.76,0,0,1-1.85,1.39C137.07,105.47,136.42,104.5,136.42,103.23Zm.78-.4h2.3a1.1,1.1,0,0,0-1.13-1.24C137.67,101.59,137.23,102,137.2,102.83Z"/>
        <path class="cls-2" d="M142.58,101.67a1.33,1.33,0,0,1,1.26-.68c1,0,1.35.69,1.35,1.64v2.74h-.73v-2.48c0-.7-.06-1.27-.86-1.27s-1,.49-1,1.41v2.34h-.74v-4.31h.74Z"/>
        <path class="cls-2" d="M149.65,99.57h.73v5.8h-.72v-.61a1.37,1.37,0,0,1-1.27.71c-1,0-1.74-.82-1.74-2.24s.75-2.24,1.74-2.24a1.38,1.38,0,0,1,1.27.72Zm-1.12,2c-.74,0-1.11.6-1.11,1.62s.37,1.63,1.11,1.63,1.15-.5,1.15-1.63S149.14,101.61,148.53,101.61Z"/>
        <path class="cls-2" d="M151.92,103.23a2,2,0,0,1,2-2.25c1.26,0,2,.92,1.92,2.46H152.7c0,.86.48,1.43,1.16,1.43a1,1,0,0,0,1.11-.79h.76a1.78,1.78,0,0,1-1.86,1.39C152.57,105.47,151.92,104.5,151.92,103.23Zm.79-.4H155a1.11,1.11,0,0,0-1.14-1.24C153.18,101.59,152.74,102,152.71,102.83Z"/>
        <path class="cls-2" d="M158.08,101.67a1.35,1.35,0,0,1,1.26-.68c1,0,1.36.69,1.36,1.64v2.74H160v-2.48c0-.7-.06-1.27-.86-1.27s-1,.49-1,1.41v2.34h-.73v-4.31h.73Z"/>
        <path class="cls-2" d="M166,102.5h-.74a1,1,0,0,0-1-.9c-.64,0-1.16.55-1.16,1.63s.52,1.64,1.16,1.64a1.06,1.06,0,0,0,1.05-.89H166a1.79,1.79,0,0,1-1.85,1.49c-1.19,0-1.9-.93-1.9-2.24a2,2,0,0,1,2-2.24A1.68,1.68,0,0,1,166,102.5Z"/>
        <path class="cls-2" d="M169.79,101.06v3.67H171v.64h-3.18v-.64h1.22v-3h-1.22v-.64Zm0-1.49v.87h-.73v-.87Z"/>
        <path class="cls-2" d="M172.59,103.23a2,2,0,0,1,1.95-2.25c1.26,0,2,.92,1.92,2.46h-3.09c0,.86.48,1.43,1.16,1.43a1,1,0,0,0,1.11-.79h.76a1.78,1.78,0,0,1-1.86,1.39C173.24,105.47,172.59,104.5,172.59,103.23Zm.79-.4h2.3a1.1,1.1,0,0,0-1.14-1.24C173.85,101.59,173.41,102,173.38,102.83Z"/>
        <path class="cls-2" d="M180.58,102.24c-.1-.48-.48-.64-1-.64s-.87.17-.87.55.23.49.65.58l.48.09c.74.15,1.54.43,1.54,1.29s-.78,1.36-1.72,1.36a1.61,1.61,0,0,1-1.75-1.39h.77a.9.9,0,0,0,1,.78c.46,0,1-.16,1-.66s-.36-.6-.9-.7l-.54-.1c-.68-.14-1.21-.47-1.21-1.22s.9-1.19,1.62-1.19a1.58,1.58,0,0,1,1.69,1.25Z"/>
      </g>
      <g>
        <rect class="cls-4" x="106.26" y="122.5" width="85.57" height="23" rx="4.87"/>
        <path class="cls-2" d="M187,123a4.37,4.37,0,0,1,4.37,4.37v13.26A4.37,4.37,0,0,1,187,145H111.13a4.37,4.37,0,0,1-4.37-4.37V127.37a4.37,4.37,0,0,1,4.37-4.37H187m0-1H111.13a5.36,5.36,0,0,0-5.37,5.37v13.26a5.36,5.36,0,0,0,5.37,5.37H187a5.37,5.37,0,0,0,5.37-5.37V127.37A5.37,5.37,0,0,0,187,122Z"/>
      </g>
      <g>
        <path class="cls-2" d="M148.85,134.46c0,1.75-.72,3-2.17,3s-2.17-1.26-2.17-3,.72-3,2.17-3S148.85,132.71,148.85,134.46Zm-3.55,0c0,1.47.43,2.31,1.38,2.31s1.38-.84,1.38-2.31-.42-2.29-1.38-2.29S145.3,133,145.3,134.46Z"/>
        <path class="cls-2" d="M149.92,133.06a1.7,1.7,0,0,1,1.9-1.59,1.79,1.79,0,0,1,1.93,1.63H153a1.11,1.11,0,0,0-1.22-.93c-.52,0-1.07.26-1.07.86s.37.76.83.87l.58.12c.94.21,1.75.62,1.75,1.72a1.76,1.76,0,0,1-2,1.73,2,2,0,0,1-2.09-1.91h.75a1.28,1.28,0,0,0,1.37,1.21,1,1,0,0,0,1.16-1c0-.6-.45-.87-1.08-1l-.64-.15A1.64,1.64,0,0,1,149.92,133.06Z"/>
      </g>
    </g>
    <g>
      <g>
        <rect class="cls-2" x="76.39" y="237" width="484" height="50" rx="15.45"/>
        <path class="cls-2" d="M544.94,287.5H91.84a16,16,0,0,1-16-15.95v-19.1a16,16,0,0,1,16-15.95h453.1a16,16,0,0,1,15.95,15.95v19.1A16,16,0,0,1,544.94,287.5Zm-453.1-50a15,15,0,0,0-15,14.95v19.1a15,15,0,0,0,15,14.95h453.1a15,15,0,0,0,14.95-14.95v-19.1a15,15,0,0,0-14.95-14.95Z"/>
      </g>
      <g>
        <rect class="cls-5" x="80.11" y="233.5" width="483" height="49" rx="14.95"/>
        <path class="cls-2" d="M548.16,234a14.47,14.47,0,0,1,14.45,14.45v19.1A14.47,14.47,0,0,1,548.16,282H95.06a14.46,14.46,0,0,1-14.45-14.45v-19.1A14.46,14.46,0,0,1,95.06,234h453.1m0-1H95.06a15.45,15.45,0,0,0-15.45,15.45v19.1A15.45,15.45,0,0,0,95.06,283h453.1a15.45,15.45,0,0,0,15.45-15.45v-19.1A15.45,15.45,0,0,0,548.16,233Z"/>
      </g>
      <g>
        <rect class="cls-2" x="76.39" y="302" width="484" height="50" rx="15.45"/>
        <path class="cls-2" d="M544.94,352.5H91.84a16,16,0,0,1-16-15.95v-19.1a16,16,0,0,1,16-15.95h453.1a16,16,0,0,1,15.95,15.95v19.1A16,16,0,0,1,544.94,352.5Zm-453.1-50a15,15,0,0,0-15,14.95v19.1a15,15,0,0,0,15,14.95h453.1a15,15,0,0,0,14.95-14.95v-19.1a15,15,0,0,0-14.95-14.95Z"/>
      </g>
      <g>
        <rect class="cls-1" x="80.11" y="298.5" width="483" height="49" rx="14.95"/>
        <path class="cls-2" d="M548.16,299a14.47,14.47,0,0,1,14.45,14.45v19.1A14.47,14.47,0,0,1,548.16,347H95.06a14.46,14.46,0,0,1-14.45-14.45v-19.1A14.46,14.46,0,0,1,95.06,299h453.1m0-1H95.06a15.45,15.45,0,0,0-15.45,15.45v19.1A15.45,15.45,0,0,0,95.06,348h453.1a15.45,15.45,0,0,0,15.45-15.45v-19.1A15.45,15.45,0,0,0,548.16,298Z"/>
      </g>
      <g>
        <rect class="cls-2" x="76.39" y="367" width="484" height="50" rx="15.45"/>
        <path class="cls-2" d="M544.94,417.5H91.84a16,16,0,0,1-16-15.95v-19.1a16,16,0,0,1,16-15.95h453.1a16,16,0,0,1,15.95,15.95v19.1A16,16,0,0,1,544.94,417.5Zm-453.1-50a15,15,0,0,0-15,14.95v19.1a15,15,0,0,0,15,14.95h453.1a15,15,0,0,0,14.95-14.95v-19.1a15,15,0,0,0-14.95-14.95Z"/>
      </g>
      <g>
        <rect class="cls-1" x="80.11" y="363.5" width="483" height="49" rx="14.95"/>
        <path class="cls-2" d="M548.16,364a14.47,14.47,0,0,1,14.45,14.45v19.1A14.47,14.47,0,0,1,548.16,412H95.06a14.46,14.46,0,0,1-14.45-14.45v-19.1A14.46,14.46,0,0,1,95.06,364h453.1m0-1H95.06a15.45,15.45,0,0,0-15.45,15.45v19.1A15.45,15.45,0,0,0,95.06,413h453.1a15.45,15.45,0,0,0,15.45-15.45v-19.1A15.45,15.45,0,0,0,548.16,363Z"/>
      </g>
    </g>
    <g>
      <path class="cls-2" d="M288.84,254.21h1.69v3.46h3.64v-3.46h1.69v9.1h-1.69v-4.08h-3.64v4.08h-1.69Z"/>
      <path class="cls-2" d="M301.61,256.76h1.61l-3.38,9.2h-1.56l1.12-3.09L297,256.76h1.62l1.5,4Z"/>
      <path class="cls-2" d="M305.87,256.76v.67a1.41,1.41,0,0,1,.59-.53,1.93,1.93,0,0,1,1-.25,2.73,2.73,0,0,1,2.21.92,3.67,3.67,0,0,1,.78,2.46,3.71,3.71,0,0,1-.78,2.47,2.72,2.72,0,0,1-2.21.91,2.14,2.14,0,0,1-.93-.21,1.73,1.73,0,0,1-.66-.49V266h-1.61v-9.2Zm2.46,4.74a2.73,2.73,0,0,0,0-2.94,1.36,1.36,0,0,0-1.1-.53,1.33,1.33,0,0,0-1.08.53,2.3,2.3,0,0,0-.42,1.47,2.33,2.33,0,0,0,.42,1.48,1.32,1.32,0,0,0,1.08.52A1.34,1.34,0,0,0,308.33,261.5Z"/>
      <path class="cls-2" d="M317.74,260.55h-4.53a1.76,1.76,0,0,0,.52,1.11,1.47,1.47,0,0,0,1,.37,1.66,1.66,0,0,0,.92-.24,2.24,2.24,0,0,0,.67-.77l1.3.48a2.94,2.94,0,0,1-3,1.91,2.94,2.94,0,0,1-1.77-.5,3,3,0,0,1-1-1.27,4.07,4.07,0,0,1-.33-1.61,4,4,0,0,1,.33-1.6,2.89,2.89,0,0,1,2.81-1.78,2.87,2.87,0,0,1,1.72.49,2.8,2.8,0,0,1,1,1.23,3.68,3.68,0,0,1,.33,1.52Zm-1.65-1.27a1.76,1.76,0,0,0-.46-.9,1.29,1.29,0,0,0-.95-.35,1.35,1.35,0,0,0-.89.32,1.71,1.71,0,0,0-.54.93Z"/>
      <path class="cls-2" d="M320.81,256.76v1.06a2.59,2.59,0,0,1,.85-.86,2,2,0,0,1,1.08-.31,3,3,0,0,1,.8.13l-.3,1.5a1.31,1.31,0,0,0-.68-.19,1.51,1.51,0,0,0-1.26.7,3.81,3.81,0,0,0-.49,2.19v2.33h-1.62v-6.55Z"/>
      <path class="cls-2" d="M324.11,256.76h1.62l1.33,4.56,1.32-4.56H330l-2.22,6.55h-1.46Z"/>
      <path class="cls-2" d="M331.15,255.61a1,1,0,0,1-.3-.74,1.05,1.05,0,0,1,1.79-.74,1,1,0,0,1,.29.74,1,1,0,0,1-1,1A1,1,0,0,1,331.15,255.61Zm-.06,1.15h1.61v6.55h-1.61Z"/>
      <path class="cls-2" d="M334.83,262.89a2.45,2.45,0,0,1-.91-1.25l1.29-.68a1.87,1.87,0,0,0,.51.79,1.18,1.18,0,0,0,.79.28.86.86,0,0,0,.53-.16.55.55,0,0,0,.22-.47.63.63,0,0,0-.33-.52,6.37,6.37,0,0,0-1-.47,3,3,0,0,1-1.15-.76,1.8,1.8,0,0,1-.14-2.09,1.8,1.8,0,0,1,.73-.66,2.2,2.2,0,0,1,1.07-.25,2.73,2.73,0,0,1,1.21.28,2.07,2.07,0,0,1,.84.79l-1,.88a1.21,1.21,0,0,0-1.05-.57.73.73,0,0,0-.45.14.41.41,0,0,0-.19.35.55.55,0,0,0,.27.44,5.08,5.08,0,0,0,1.07.49,3,3,0,0,1,1.18.71,1.58,1.58,0,0,1,.42,1.13,2,2,0,0,1-.63,1.54,2.24,2.24,0,0,1-1.61.58A2.68,2.68,0,0,1,334.83,262.89Z"/>
      <path class="cls-2" d="M341.12,263a3,3,0,0,1-1.15-1.21,4,4,0,0,1,0-3.46,3,3,0,0,1,1.15-1.21,3.84,3.84,0,0,1,3.57,0,3,3,0,0,1,1.15,1.21,4,4,0,0,1,0,3.46,3,3,0,0,1-1.15,1.21,3.84,3.84,0,0,1-3.57,0Zm3-1.51a2.28,2.28,0,0,0,.44-1.43,2.23,2.23,0,0,0-.44-1.42,1.52,1.52,0,0,0-2.39,0,2.23,2.23,0,0,0-.44,1.42,2.28,2.28,0,0,0,.44,1.43,1.54,1.54,0,0,0,2.39,0Z"/>
      <path class="cls-2" d="M349.3,256.76v1.06a2.62,2.62,0,0,1,.86-.86,2,2,0,0,1,1.08-.31,3,3,0,0,1,.79.13l-.3,1.5a1.28,1.28,0,0,0-.67-.19,1.51,1.51,0,0,0-1.27.7,3.9,3.9,0,0,0-.49,2.19v2.33h-1.61v-6.55Z"/>
    </g>
    <g>
      <path class="cls-2" d="M270.93,326.89a3.82,3.82,0,0,1-1.55-1.56,6,6,0,0,1,0-5.14,3.78,3.78,0,0,1,1.55-1.57,4.75,4.75,0,0,1,4.32,0,3.78,3.78,0,0,1,1.55,1.57,6,6,0,0,1,0,5.14,3.82,3.82,0,0,1-1.55,1.56,4.75,4.75,0,0,1-4.32,0Zm3.45-1.37a2.29,2.29,0,0,0,.93-1,3.73,3.73,0,0,0,.35-1.73,3.77,3.77,0,0,0-.35-1.74,2.32,2.32,0,0,0-.93-1,2.62,2.62,0,0,0-2.58,0,2.32,2.32,0,0,0-.93,1,3.77,3.77,0,0,0-.35,1.74,3.73,3.73,0,0,0,.35,1.73,2.29,2.29,0,0,0,.93,1,2.69,2.69,0,0,0,2.58,0Z"/>
      <path class="cls-2" d="M280.5,320.76v.67a1.41,1.41,0,0,1,.59-.53,1.93,1.93,0,0,1,1-.25,2.73,2.73,0,0,1,2.21.92,3.67,3.67,0,0,1,.78,2.46,3.71,3.71,0,0,1-.78,2.47,2.72,2.72,0,0,1-2.21.91,2.18,2.18,0,0,1-.93-.21,1.73,1.73,0,0,1-.66-.49V330h-1.61v-9.2ZM283,325.5a2.73,2.73,0,0,0,0-2.94,1.36,1.36,0,0,0-1.09-.53,1.33,1.33,0,0,0-1.09.53,2.3,2.3,0,0,0-.42,1.47,2.33,2.33,0,0,0,.42,1.48,1.39,1.39,0,0,0,2.18,0Z"/>
      <path class="cls-2" d="M292.37,324.55h-4.52a1.81,1.81,0,0,0,.51,1.11,1.48,1.48,0,0,0,1.05.37,1.62,1.62,0,0,0,.91-.24A2.24,2.24,0,0,0,291,325l1.3.48a2.94,2.94,0,0,1-3,1.91,2.94,2.94,0,0,1-1.77-.5,3,3,0,0,1-1-1.27,4.07,4.07,0,0,1-.33-1.61,4,4,0,0,1,.33-1.6,2.89,2.89,0,0,1,2.81-1.78,2.87,2.87,0,0,1,1.72.49,2.8,2.8,0,0,1,1,1.23,3.68,3.68,0,0,1,.33,1.52Zm-1.65-1.27a1.76,1.76,0,0,0-.46-.9,1.29,1.29,0,0,0-.95-.35,1.35,1.35,0,0,0-.89.32,1.77,1.77,0,0,0-.54.93Z"/>
      <path class="cls-2" d="M295.44,320.76v1.06a2.59,2.59,0,0,1,.85-.86,2,2,0,0,1,1.08-.31,3,3,0,0,1,.8.13l-.3,1.5a1.31,1.31,0,0,0-.68-.19,1.51,1.51,0,0,0-1.26.7,3.81,3.81,0,0,0-.49,2.19v2.33h-1.61v-6.55Z"/>
      <path class="cls-2" d="M299.12,326.89a2.1,2.1,0,0,1,.18-3,3.13,3.13,0,0,1,2-.58h1.14V323a.83.83,0,0,0-.32-.72,1.35,1.35,0,0,0-.82-.24,1.1,1.1,0,0,0-1.13.75l-1.37-.31a2.14,2.14,0,0,1,.84-1.32,3.16,3.16,0,0,1,3.69.2,2.66,2.66,0,0,1,.73,2v3.92h-1.33l-.17-.83a2.48,2.48,0,0,1-2,.93A2,2,0,0,1,299.12,326.89Zm2.88-1.23a1.18,1.18,0,0,0,.44-1v-.13h-1.07a1.39,1.39,0,0,0-.83.21.72.72,0,0,0-.29.64.57.57,0,0,0,.2.46.75.75,0,0,0,.53.17A1.51,1.51,0,0,0,302,325.66Z"/>
      <path class="cls-2" d="M306.6,326.8A2.41,2.41,0,0,1,306,325v-2.86h-1v-1.37h1v-1.64l1.61-1v2.66h1.73v1.37h-1.73V325a1.24,1.24,0,0,0,.21.82.84.84,0,0,0,.65.24,1.38,1.38,0,0,0,.62-.15l.38,1.3a2.6,2.6,0,0,1-1.07.23A2.46,2.46,0,0,1,306.6,326.8Z"/>
      <path class="cls-2" d="M310.62,319.61a1,1,0,0,1-.3-.74,1,1,0,0,1,1-1,1,1,0,0,1,.74.3,1,1,0,0,1,.3.74,1,1,0,0,1-1,1A1,1,0,0,1,310.62,319.61Zm-.06,1.15h1.61v6.55h-1.61Z"/>
      <path class="cls-2" d="M315.55,320.76v1.05a2.91,2.91,0,0,1,.9-.85,2.2,2.2,0,0,1,1.13-.31,2.08,2.08,0,0,1,1.46.51,1.89,1.89,0,0,1,.55,1.47v4.68H318v-4.2a1.18,1.18,0,0,0-.25-.82A.94.94,0,0,0,317,322a1.06,1.06,0,0,0-.74.31,2.2,2.2,0,0,0-.54.92,4.35,4.35,0,0,0-.21,1.43v2.62h-1.61v-6.55Z"/>
      <path class="cls-2" d="M321.56,329.5a1.8,1.8,0,0,1-.82-1.59,1.67,1.67,0,0,1,.53-1.3,1.67,1.67,0,0,1-.13-1.82,1.67,1.67,0,0,1,.6-.58,2,2,0,0,1-.46-1.35,2.11,2.11,0,0,1,1.19-1.94,2.78,2.78,0,0,1,2.43,0l1.23-.65.64,1.06-.94.47a2.12,2.12,0,0,1-.93,3,2.86,2.86,0,0,1-1.21.26,3,3,0,0,1-.95-.15.56.56,0,0,0-.32.5.43.43,0,0,0,.16.35.7.7,0,0,0,.46.13h1.34a2.54,2.54,0,0,1,1.67.5,1.71,1.71,0,0,1,.63,1.42,1.91,1.91,0,0,1-.43,1.28,2.49,2.49,0,0,1-1.09.74,4.38,4.38,0,0,1-1.46.24A3.68,3.68,0,0,1,321.56,329.5Zm3.13-1a.65.65,0,0,0,.37-.61.55.55,0,0,0-.27-.53,1.63,1.63,0,0,0-.78-.15h-.88a5.36,5.36,0,0,1-.76-.05,1.13,1.13,0,0,0-.14.6.75.75,0,0,0,.4.69,2.58,2.58,0,0,0,2.06,0Zm-.36-5a.91.91,0,0,0-.64-1.55.89.89,0,0,0-.65.26,1,1,0,0,0,0,1.29.92.92,0,0,0,.65.25A.9.9,0,0,0,324.33,323.5Z"/>
      <path class="cls-2" d="M332.26,327.07a3,3,0,0,1-1.09-.92,3.14,3.14,0,0,1-.58-1.29L332,324a3.08,3.08,0,0,0,.66,1.33,1.46,1.46,0,0,0,1.15.51,1.3,1.3,0,0,0,.86-.27,1,1,0,0,0,.32-.81.91.91,0,0,0-.22-.6,2.07,2.07,0,0,0-.55-.45c-.22-.13-.54-.3-.94-.49l-.38-.19a3.64,3.64,0,0,1-1.25-1,2.37,2.37,0,0,1-.47-1.51,2.5,2.5,0,0,1,.32-1.25,2.31,2.31,0,0,1,.9-.88,2.74,2.74,0,0,1,1.32-.32,2.54,2.54,0,0,1,2.57,1.65l-1.36.88a1.24,1.24,0,0,0-1.21-1,1,1,0,0,0-.65.24.77.77,0,0,0-.27.6.87.87,0,0,0,.24.61,2.22,2.22,0,0,0,.58.46c.23.12.56.29,1,.49a6.18,6.18,0,0,1,1.07.61,2.38,2.38,0,0,1,1,2,2.71,2.71,0,0,1-.37,1.44,2.43,2.43,0,0,1-1,.95,3.32,3.32,0,0,1-1.51.33A3.08,3.08,0,0,1,332.26,327.07Z"/>
      <path class="cls-2" d="M341.65,320.76h1.61l-3.38,9.2h-1.56l1.12-3.09-2.36-6.11h1.62l1.5,4Z"/>
      <path class="cls-2" d="M344.61,326.89a2.38,2.38,0,0,1-.9-1.25L345,325a1.88,1.88,0,0,0,.52.79,1.15,1.15,0,0,0,.78.28.89.89,0,0,0,.54-.16.57.57,0,0,0,.22-.47.64.64,0,0,0-.34-.52,6.37,6.37,0,0,0-1-.47,3.08,3.08,0,0,1-1.15-.76,1.8,1.8,0,0,1-.14-2.09,1.83,1.83,0,0,1,.74-.66,2.16,2.16,0,0,1,1.06-.25,2.69,2.69,0,0,1,1.21.28,2.09,2.09,0,0,1,.85.79l-1,.88a1.21,1.21,0,0,0-1.05-.57.77.77,0,0,0-.45.14.43.43,0,0,0-.19.35.54.54,0,0,0,.28.44,4.7,4.7,0,0,0,1.06.49,2.92,2.92,0,0,1,1.18.71,1.58,1.58,0,0,1,.42,1.13,2,2,0,0,1-.62,1.54,2.27,2.27,0,0,1-1.61.58A2.69,2.69,0,0,1,344.61,326.89Z"/>
      <path class="cls-2" d="M350.67,326.8A2.41,2.41,0,0,1,350,325v-2.86h-1v-1.37h1v-1.64l1.61-1v2.66h1.73v1.37h-1.73V325a1.24,1.24,0,0,0,.21.82.84.84,0,0,0,.65.24,1.38,1.38,0,0,0,.62-.15l.38,1.3a2.64,2.64,0,0,1-1.07.23A2.46,2.46,0,0,1,350.67,326.8Z"/>
      <path class="cls-2" d="M360.15,324.55h-4.52a1.81,1.81,0,0,0,.51,1.11,1.48,1.48,0,0,0,1.05.37,1.62,1.62,0,0,0,.91-.24,2.24,2.24,0,0,0,.67-.77l1.3.48a2.94,2.94,0,0,1-3,1.91,2.9,2.9,0,0,1-2.82-1.77A4.07,4.07,0,0,1,354,324a4,4,0,0,1,.33-1.6,2.89,2.89,0,0,1,2.82-1.78,2.86,2.86,0,0,1,1.71.49,2.9,2.9,0,0,1,1,1.23,3.84,3.84,0,0,1,.32,1.52Zm-1.65-1.27a1.76,1.76,0,0,0-.46-.9,1.28,1.28,0,0,0-.94-.35,1.36,1.36,0,0,0-.9.32,1.7,1.7,0,0,0-.53.93Z"/>
      <path class="cls-2" d="M363.22,320.76v1.05a3.14,3.14,0,0,1,.82-.87,2,2,0,0,1,1.06-.29,1.89,1.89,0,0,1,1.13.34,1.82,1.82,0,0,1,.71,1,2.81,2.81,0,0,1,.87-1,2,2,0,0,1,1.13-.36,1.94,1.94,0,0,1,1.43.53,2.08,2.08,0,0,1,.52,1.49v4.64h-1.61v-4.37c0-.61-.27-.91-.81-.91a1.15,1.15,0,0,0-1,.7,4.26,4.26,0,0,0-.4,2v2.55h-1.61v-4.37c0-.61-.27-.91-.8-.91a1.15,1.15,0,0,0-1,.73,4.55,4.55,0,0,0-.4,2.14v2.41h-1.61v-6.55Z"/>
    </g>
    <g>
      <path class="cls-2" d="M258.09,383.21a2.87,2.87,0,0,1,2.12,4.78,2.83,2.83,0,0,1-2.12.76h-1.74v3.56h-1.69v-9.1Zm.82,3.68a1.21,1.21,0,0,0,.31-.91,1.19,1.19,0,0,0-.31-.91,1.24,1.24,0,0,0-.89-.3h-1.67v2.42H258A1.24,1.24,0,0,0,258.91,386.89Z"/>
      <path class="cls-2" d="M263.9,383.1v3.71a2.47,2.47,0,0,1,.86-.84,2.39,2.39,0,0,1,1.22-.32,2.13,2.13,0,0,1,1.49.5,1.9,1.9,0,0,1,.55,1.48v4.68h-1.61V388.2a1.34,1.34,0,0,0-.24-.88.89.89,0,0,0-.74-.29,1.21,1.21,0,0,0-.74.27,2,2,0,0,0-.57.83,3.87,3.87,0,0,0-.22,1.41v2.77h-1.61V383.1Z"/>
      <path class="cls-2" d="M273.34,385.76H275l-3.38,9.2H270l1.12-3.09-2.37-6.11h1.63l1.49,4Z"/>
      <path class="cls-2" d="M276.29,391.89a2.49,2.49,0,0,1-.9-1.25l1.29-.68a1.87,1.87,0,0,0,.51.79,1.16,1.16,0,0,0,.79.28.86.86,0,0,0,.53-.16.55.55,0,0,0,.22-.47.62.62,0,0,0-.34-.52,5.81,5.81,0,0,0-1-.47,3,3,0,0,1-1.15-.76,1.8,1.8,0,0,1-.14-2.09,1.8,1.8,0,0,1,.73-.66,2.2,2.2,0,0,1,1.07-.25,2.73,2.73,0,0,1,1.21.28,2.07,2.07,0,0,1,.84.79l-1,.88a1.21,1.21,0,0,0-1.05-.57.73.73,0,0,0-.45.14.41.41,0,0,0-.19.35.55.55,0,0,0,.27.44,4.84,4.84,0,0,0,1.07.49,3,3,0,0,1,1.18.71,1.58,1.58,0,0,1,.42,1.13,2,2,0,0,1-.63,1.54,2.24,2.24,0,0,1-1.61.58A2.73,2.73,0,0,1,276.29,391.89Z"/>
      <path class="cls-2" d="M281.67,384.61a1,1,0,0,1-.3-.74,1,1,0,0,1,1-1,1,1,0,0,1,.74.3,1,1,0,0,1,.3.74,1,1,0,0,1-1,1A1,1,0,0,1,281.67,384.61Zm-.06,1.15h1.61v6.55h-1.61Z"/>
      <path class="cls-2" d="M286.1,392a2.83,2.83,0,0,1-1.09-1.21,4,4,0,0,1-.36-1.72,4,4,0,0,1,.36-1.71,2.8,2.8,0,0,1,1.09-1.22,3.22,3.22,0,0,1,1.74-.45,3.43,3.43,0,0,1,1.86.48,2.79,2.79,0,0,1,1.12,1.39l-1.44.59a2,2,0,0,0-.63-.81,1.51,1.51,0,0,0-.91-.27,1.28,1.28,0,0,0-1.12.55,3,3,0,0,0,0,2.9,1.28,1.28,0,0,0,1.12.55,1.51,1.51,0,0,0,.91-.27,2.08,2.08,0,0,0,.63-.8l1.44.58a2.82,2.82,0,0,1-1.12,1.4,3.52,3.52,0,0,1-1.86.47A3.22,3.22,0,0,1,286.1,392Z"/>
      <path class="cls-2" d="M292.29,391.89a2.1,2.1,0,0,1,.18-3,3.15,3.15,0,0,1,2-.58h1.15V388a.83.83,0,0,0-.33-.72,1.33,1.33,0,0,0-.82-.24,1.1,1.1,0,0,0-1.13.75l-1.36-.31a2.06,2.06,0,0,1,.84-1.32,2.74,2.74,0,0,1,1.65-.5,2.79,2.79,0,0,1,2,.7,2.7,2.7,0,0,1,.72,2v3.92h-1.32l-.17-.83a2.51,2.51,0,0,1-2,.93A2,2,0,0,1,292.29,391.89Zm2.89-1.23a1.21,1.21,0,0,0,.44-1v-.13h-1.08a1.41,1.41,0,0,0-.83.21.74.74,0,0,0-.29.64.6.6,0,0,0,.2.46.77.77,0,0,0,.53.17A1.55,1.55,0,0,0,295.18,390.66Z"/>
      <path class="cls-2" d="M298.92,383.1h1.61v9.21h-1.61Z"/>
      <path class="cls-2" d="M305.71,383.21h1.69v9.1h-1.69Z"/>
      <path class="cls-2" d="M310.87,385.76v1.05a3,3,0,0,1,.89-.85,2.27,2.27,0,0,1,1.14-.31,2.08,2.08,0,0,1,1.46.51,1.89,1.89,0,0,1,.55,1.47v4.68H313.3v-4.2a1.14,1.14,0,0,0-.26-.82.9.9,0,0,0-.68-.26,1.06,1.06,0,0,0-.74.31,2.2,2.2,0,0,0-.54.92,4.35,4.35,0,0,0-.21,1.43v2.62h-1.61v-6.55Z"/>
      <path class="cls-2" d="M315.87,387.13v-1.37h.84v-.34A2.06,2.06,0,0,1,319,383.1a2.59,2.59,0,0,1,1.22.26l-.35,1.3a2.07,2.07,0,0,0-.78-.18c-.5,0-.74.27-.74.82v.46h1.37v1.37h-1.37v5.18h-1.61v-5.18Z"/>
      <path class="cls-2" d="M322.35,385.76v1.06a2.59,2.59,0,0,1,.85-.86,2,2,0,0,1,1.08-.31,3,3,0,0,1,.8.13l-.3,1.5a1.31,1.31,0,0,0-.68-.19,1.51,1.51,0,0,0-1.26.7,3.81,3.81,0,0,0-.49,2.19v2.33h-1.62v-6.55Z"/>
      <path class="cls-2" d="M326,391.89a2.1,2.1,0,0,1,.18-3,3.13,3.13,0,0,1,2-.58h1.14V388a.83.83,0,0,0-.32-.72,1.35,1.35,0,0,0-.82-.24,1.1,1.1,0,0,0-1.13.75l-1.37-.31a2.14,2.14,0,0,1,.84-1.32,3.16,3.16,0,0,1,3.69.2,2.7,2.7,0,0,1,.72,2v3.92h-1.32l-.17-.83a2.48,2.48,0,0,1-2,.93A2,2,0,0,1,326,391.89Zm2.88-1.23a1.18,1.18,0,0,0,.44-1v-.13h-1.08a1.38,1.38,0,0,0-.82.21.72.72,0,0,0-.29.64.57.57,0,0,0,.2.46.74.74,0,0,0,.52.17A1.53,1.53,0,0,0,328.91,390.66Z"/>
      <path class="cls-2" d="M333,391.89a2.49,2.49,0,0,1-.9-1.25l1.28-.68a2,2,0,0,0,.52.79,1.15,1.15,0,0,0,.78.28.89.89,0,0,0,.54-.16.55.55,0,0,0,.22-.47.62.62,0,0,0-.34-.52,6.19,6.19,0,0,0-1-.47,2.92,2.92,0,0,1-1.15-.76,1.64,1.64,0,0,1-.41-1.17,1.75,1.75,0,0,1,.26-.92,1.89,1.89,0,0,1,.74-.66,2.16,2.16,0,0,1,1.06-.25,2.66,2.66,0,0,1,1.21.28,2,2,0,0,1,.85.79l-1,.88a1.23,1.23,0,0,0-1.06-.57.77.77,0,0,0-.45.14.42.42,0,0,0-.18.35.55.55,0,0,0,.27.44,4.93,4.93,0,0,0,1.06.49,3,3,0,0,1,1.19.71,1.62,1.62,0,0,1,.41,1.13,2,2,0,0,1-.62,1.54,2.26,2.26,0,0,1-1.61.58A2.71,2.71,0,0,1,333,391.89Z"/>
      <path class="cls-2" d="M339,391.8a2.38,2.38,0,0,1-.64-1.81v-2.86h-1v-1.37h1v-1.64l1.61-1v2.66h1.73v1.37H340V390a1.24,1.24,0,0,0,.21.82.84.84,0,0,0,.65.24,1.35,1.35,0,0,0,.62-.15l.38,1.3a2.6,2.6,0,0,1-1.07.23A2.42,2.42,0,0,1,339,391.8Z"/>
      <path class="cls-2" d="M344.49,385.76v1.06a2.5,2.5,0,0,1,.85-.86,2,2,0,0,1,1.08-.31,2.89,2.89,0,0,1,.79.13l-.29,1.5a1.31,1.31,0,0,0-.68-.19,1.51,1.51,0,0,0-1.26.7,3.81,3.81,0,0,0-.49,2.19v2.33h-1.62v-6.55Z"/>
      <path class="cls-2" d="M348.74,391.9a1.89,1.89,0,0,1-.55-1.46v-4.68h1.61V390a1.11,1.11,0,0,0,.26.81.86.86,0,0,0,.68.26,1.06,1.06,0,0,0,.74-.31,2.15,2.15,0,0,0,.55-.92,4.65,4.65,0,0,0,.2-1.43v-2.61h1.62v6.55h-1.62v-1.06a3,3,0,0,1-.89.85,2.16,2.16,0,0,1-1.13.31A2.09,2.09,0,0,1,348.74,391.9Z"/>
      <path class="cls-2" d="M356.75,392a2.81,2.81,0,0,1-1.08-1.21,3.87,3.87,0,0,1-.37-1.72,3.83,3.83,0,0,1,.37-1.71,2.78,2.78,0,0,1,1.08-1.22,3.23,3.23,0,0,1,1.75-.45,3.4,3.4,0,0,1,1.85.48,2.81,2.81,0,0,1,1.13,1.39l-1.45.59a2,2,0,0,0-.63-.81,1.48,1.48,0,0,0-.9-.27,1.25,1.25,0,0,0-1.12.55,2.89,2.89,0,0,0,0,2.9,1.25,1.25,0,0,0,1.12.55,1.48,1.48,0,0,0,.9-.27,2.08,2.08,0,0,0,.63-.8l1.45.58a2.83,2.83,0,0,1-1.13,1.4,3.48,3.48,0,0,1-1.85.47A3.23,3.23,0,0,1,356.75,392Z"/>
      <path class="cls-2" d="M363.71,391.8a2.41,2.41,0,0,1-.63-1.81v-2.86h-1v-1.37h1v-1.64l1.61-1v2.66h1.73v1.37h-1.73V390a1.24,1.24,0,0,0,.21.82.82.82,0,0,0,.64.24,1.39,1.39,0,0,0,.63-.15l.38,1.3a2.64,2.64,0,0,1-1.07.23A2.46,2.46,0,0,1,363.71,391.8Z"/>
      <path class="cls-2" d="M368,391.9a1.86,1.86,0,0,1-.56-1.46v-4.68H369V390a1.11,1.11,0,0,0,.25.81.89.89,0,0,0,.68.26,1,1,0,0,0,.74-.31,2.15,2.15,0,0,0,.55-.92,4.35,4.35,0,0,0,.21-1.43v-2.61h1.61v6.55h-1.61v-1.06a2.91,2.91,0,0,1-.9.85,2.14,2.14,0,0,1-1.13.31A2.06,2.06,0,0,1,368,391.9Z"/>
      <path class="cls-2" d="M376.49,385.76v1.06a2.53,2.53,0,0,1,.86-.86,2,2,0,0,1,1.08-.31,3,3,0,0,1,.79.13l-.3,1.5a1.28,1.28,0,0,0-.67-.19,1.48,1.48,0,0,0-1.26.7,3.81,3.81,0,0,0-.5,2.19v2.33h-1.61v-6.55Z"/>
      <path class="cls-2" d="M385.84,389.55h-4.53a1.76,1.76,0,0,0,.52,1.11,1.47,1.47,0,0,0,1,.37,1.66,1.66,0,0,0,.92-.24,2.24,2.24,0,0,0,.67-.77l1.3.48a2.94,2.94,0,0,1-3,1.91,2.94,2.94,0,0,1-1.77-.5,3,3,0,0,1-1-1.27,4.07,4.07,0,0,1-.33-1.61,4,4,0,0,1,.33-1.6,2.89,2.89,0,0,1,2.81-1.78,2.87,2.87,0,0,1,1.72.49,2.8,2.8,0,0,1,1,1.23,3.68,3.68,0,0,1,.33,1.52Zm-1.65-1.27a1.76,1.76,0,0,0-.46-.9,1.29,1.29,0,0,0-1-.35,1.35,1.35,0,0,0-.89.32,1.71,1.71,0,0,0-.54.93Z"/>
    </g>
  </g>
</svg>
