<svg xmlns="http://www.w3.org/2000/svg" xmlns:xlink="http://www.w3.org/1999/xlink" viewBox="0 0 640 420">
  <defs>
    <style>
      .cls-1 {
        fill: none;
      }

      .cls-2 {
        fill: #fff4ff;
      }

      .cls-3 {
        fill: #10162f;
      }

      .cls-4 {
        fill: #fff;
      }

      .cls-5 {
        fill: #fdf6fe;
      }

      .cls-6 {
        fill: #fff5ff;
      }

      .cls-7 {
        fill: #ffd300;
      }

      .cls-8 {
        fill: #fefae7;
      }

      .cls-9 {
        fill: #221f20;
      }

      .cls-10 {
        fill: #66c4ff;
      }

      .cls-11 {
        clip-path: url(#clip-path);
      }

      .cls-12 {
        clip-path: url(#clip-path-2);
      }

      .cls-13 {
        fill: #a8775b;
      }

      .cls-14 {
        clip-path: url(#clip-path-3);
      }

      .cls-15 {
        clip-path: url(#clip-path-4);
      }

      .cls-16 {
        fill: #f966ff;
      }

      .cls-17 {
        fill: #fff9e4;
      }
    </style>
    <clipPath id="clip-path">
      <path class="cls-1" d="M498.16,304.55c-.53-.24-1.24-1-2-1.2a7.36,7.36,0,0,0-1.55-.17,11.42,11.42,0,0,0-1.93.31c-.76.16-1.1.8-1.63,1a4.6,4.6,0,0,0,3.56,2.25A3.66,3.66,0,0,0,498.16,304.55Z"/>
    </clipPath>
    <clipPath id="clip-path-2">
      <path class="cls-1" d="M509.17,304.55c-.53-.24-1.24-1-2-1.2a7.36,7.36,0,0,0-1.55-.17,11.42,11.42,0,0,0-1.93.31c-.76.16-1.1.8-1.63,1a4.6,4.6,0,0,0,3.56,2.25A3.63,3.63,0,0,0,509.17,304.55Z"/>
    </clipPath>
    <clipPath id="clip-path-3">
      <path class="cls-1" d="M550.65,301.17a11.18,11.18,0,0,1,2.12-.69,8.5,8.5,0,0,1,3.48,0,11.32,11.32,0,0,1,2.11.69,4.94,4.94,0,0,1-3.85,2.44A4,4,0,0,1,550.65,301.17Z"/>
    </clipPath>
    <clipPath id="clip-path-4">
      <path class="cls-1" d="M562.55,301.17a11.18,11.18,0,0,1,2.12-.69,8.45,8.45,0,0,1,3.47,0,11.18,11.18,0,0,1,2.12.69,4.94,4.94,0,0,1-3.85,2.44A4,4,0,0,1,562.55,301.17Z"/>
    </clipPath>
  </defs>
  <g id="BG">
    <g>
      <rect class="cls-2" x="0.5" y="0.5" width="639" height="419"/>
      <path class="cls-3" d="M639,1V419H1V1H639m1-1H0V420H640V0Z"/>
    </g>
  </g>
  <g id="cloud">
    <g>
      <path class="cls-4" d="M311.61,273.24c-17.9,0-34.82-9.24-45.24-24.71l-.18-.25-24.58,3.15a42.94,42.94,0,0,1-5.54.36c-22.38,0-41.48-17.32-44.43-40.28a46.46,46.46,0,0,1,8.79-33.9,43.47,43.47,0,0,1,29.47-17.35l6.13-.79.05-.38c3.15-25.34,22.53-45.25,47.11-48.41a53.85,53.85,0,0,1,6.82-.44c21.27,0,40.87,12.91,49.94,32.88l.27.6.51-.43a53.33,53.33,0,0,1,34.62-12.78c27.54,0,51,21.31,54.67,49.56a57.2,57.2,0,0,1-10.81,41.72,53.56,53.56,0,0,1-43.07,21.79h0a53,53,0,0,1-15.26-2.25l-.42-.12-.18.39c-8.07,17.2-23.75,28.87-41.94,31.21A54.18,54.18,0,0,1,311.61,273.24Z"/>
      <path d="M290,110.74c21.07,0,40.49,12.79,49.48,32.58l.55,1.21,1-.86A52.93,52.93,0,0,1,375.35,131c27.28,0,50.57,21.12,54.17,49.13,3.94,30.66-17,58.7-46.65,62.51a54.18,54.18,0,0,1-6.73.43A52.47,52.47,0,0,1,361,240.85l-.83-.25-.36.79c-8,17.05-23.53,28.61-41.56,30.92a51.13,51.13,0,0,1-6.66.43c-17.74,0-34.5-9.15-44.83-24.49l-.34-.51-.62.08-24.27,3.12a43.83,43.83,0,0,1-5.48.35c-22.13,0-41-17.13-43.93-39.84a46,46,0,0,1,8.69-33.54A42.93,42.93,0,0,1,230,160.76l5.75-.74.77-.1.1-.77c3.12-25.12,22.32-44.84,46.68-48a52.76,52.76,0,0,1,6.75-.44m0-1a53.45,53.45,0,0,0-6.88.45C257.75,113.45,238.69,134,235.59,159l-5.75.73c-24.64,3.17-42,26.37-38.69,51.82h0c3,23.5,22.54,40.71,44.92,40.71a44.22,44.22,0,0,0,5.6-.36L266,248.81c10.27,15.24,27.19,24.93,45.66,24.93a51.94,51.94,0,0,0,6.79-.44c19-2.44,34.5-14.78,42.33-31.49A53.52,53.52,0,0,0,383,243.64c30.26-3.89,51.53-32.37,47.51-63.63-3.7-28.86-27.69-50-55.16-50a55.44,55.44,0,0,0-6.89.44,53.69,53.69,0,0,0-28.06,12.46c-9-19.88-28.61-33.16-50.39-33.17Z"/>
    </g>
  </g>
  <g id="Layer_1" data-name="Layer 1">
    <g>
      <path class="cls-3" d="M513.19,154.12a1.69,1.69,0,0,1,1.9-1.59,1.8,1.8,0,0,1,1.93,1.63h-.75a1.11,1.11,0,0,0-1.22-.93c-.53,0-1.08.27-1.08.87s.38.76.84.86l.58.13c.93.2,1.75.61,1.75,1.72a1.75,1.75,0,0,1-2,1.72,2,2,0,0,1-2.09-1.91h.75a1.27,1.27,0,0,0,1.36,1.21c.58,0,1.17-.3,1.17-1s-.45-.87-1.09-1l-.63-.15A1.65,1.65,0,0,1,513.19,154.12Z"/>
      <path class="cls-3" d="M521.36,154.06c.44,0,.88.2.88,1.34v3h-.73v-2.65c0-.63,0-1.11-.37-1.11s-.48.43-.48,1.32v2.44h-.74v-2.65c0-.63,0-1.11-.36-1.11s-.48.44-.48,1.34v2.42h-.74v-4.3h.7v.45a.86.86,0,0,1,.79-.52.68.68,0,0,1,.67.54A.92.92,0,0,1,521.36,154.06Z"/>
      <path class="cls-3" d="M523.62,157.31c0-1,1.09-1.34,2.85-1.53v-.18a.85.85,0,0,0-1-1,.89.89,0,0,0-1,.86h-.75a1.64,1.64,0,0,1,1.78-1.45c1.19,0,1.7.53,1.69,1.72v1.05c0,.72,0,1.33,0,1.62h-.7v-.63a1.56,1.56,0,0,1-1.51.73A1.26,1.26,0,0,1,523.62,157.31Zm2.9-.94c-1.31.13-2.11.31-2.11.92,0,.41.3.65.82.65s1.29-.31,1.29-1.45Z"/>
      <path class="cls-3" d="M530.67,154.13v.77a1.21,1.21,0,0,1,1.15-.77h.74v.67h-.73c-.83,0-1.15.54-1.15,1.49v1.51h1.48v.63h-3.43v-.63H530v-3h-1.22v-.63Z"/>
      <path class="cls-3" d="M534.78,153.05h.74v1.08h1.76v.63h-1.76v2.49c0,.44,0,.55.43.55h1.33v.63h-1.49c-.79,0-1-.18-1-1.08v-2.59h-1.22v-.63h1.22Z"/>
      <path class="cls-3" d="M540,154.78a1.36,1.36,0,0,1,1.27-.72c1,0,1.74.82,1.74,2.23s-.75,2.24-1.74,2.24a1.37,1.37,0,0,1-1.27-.71v2h-.74v-5.7H540Zm1.12,3.15c.73,0,1.11-.61,1.11-1.64s-.38-1.62-1.11-1.62-1.15.49-1.15,1.62S540.49,157.93,541.11,157.93Z"/>
      <path class="cls-3" d="M547.8,155.7v2.73h-.73V156c0-.69-.05-1.28-.85-1.28s-1,.51-1,1.42v2.34h-.74v-5.8h.74v2.11a1.36,1.36,0,0,1,1.27-.68C547.5,154.06,547.8,154.74,547.8,155.7Z"/>
      <path class="cls-3" d="M551.29,154.06a2.25,2.25,0,1,1-2,2.23A2,2,0,0,1,551.29,154.06Zm0,3.86c.66,0,1.22-.48,1.22-1.63s-.56-1.62-1.22-1.62-1.21.48-1.21,1.62S550.64,157.92,551.29,157.92Z"/>
      <path class="cls-3" d="M555.52,154.74a1.36,1.36,0,0,1,1.27-.68c1,0,1.35.68,1.35,1.64v2.73h-.74V156c0-.69,0-1.27-.85-1.27s-1,.5-1,1.41v2.34h-.73v-4.3h.73Z"/>
      <path class="cls-3" d="M559.7,156.29a2,2,0,0,1,1.95-2.24c1.26,0,2,.92,1.92,2.45h-3.09c0,.87.48,1.43,1.16,1.43a1,1,0,0,0,1.11-.79h.76a1.77,1.77,0,0,1-1.86,1.39C560.35,158.53,559.7,157.57,559.7,156.29Zm.79-.39h2.3a1.1,1.1,0,0,0-1.14-1.24C561,154.66,560.52,155.06,560.49,155.9Z"/>
    </g>
    <g>
      <g>
        <rect class="cls-5" x="39.78" y="46" width="108.22" height="72.1"/>
        <path class="cls-3" d="M148.5,118.6H39.28V45.5H148.5Zm-108.22-1H147.5V46.5H40.28Z"/>
      </g>
      <g>
        <rect class="cls-5" x="85.79" y="97.2" width="16.19" height="39.66"/>
        <path class="cls-3" d="M102.48,137.36H85.29V96.7h17.19Zm-16.19-1h15.19V97.7H86.29Z"/>
      </g>
      <g>
        <path class="cls-5" d="M61.46,133.48h64.87a4.85,4.85,0,0,1,4.84,4.85v1.93H56.61v-1.93A4.85,4.85,0,0,1,61.46,133.48Z"/>
        <path class="cls-3" d="M131.67,140.76H56.11v-2.43A5.36,5.36,0,0,1,61.46,133h64.87a5.36,5.36,0,0,1,5.34,5.35Zm-74.56-1h73.56v-1.43a4.36,4.36,0,0,0-4.34-4.35H61.46a4.35,4.35,0,0,0-4.35,4.35Z"/>
      </g>
      <g>
        <circle class="cls-5" cx="93.88" cy="92.17" r="16.97"/>
        <path class="cls-3" d="M93.88,109.64a17.47,17.47,0,1,1,17.47-17.47A17.49,17.49,0,0,1,93.88,109.64Zm0-33.94a16.47,16.47,0,1,0,16.47,16.47A16.49,16.49,0,0,0,93.88,75.7Z"/>
      </g>
    </g>
    <g>
      <g>
        <g>
          <rect class="cls-6" x="509.62" y="47.5" width="58.88" height="87" rx="2.26"/>
          <path class="cls-3" d="M566.24,48A1.76,1.76,0,0,1,568,49.76v82.48a1.76,1.76,0,0,1-1.76,1.76H511.88a1.76,1.76,0,0,1-1.76-1.76V49.76A1.76,1.76,0,0,1,511.88,48h54.36m0-1H511.88a2.76,2.76,0,0,0-2.76,2.76v82.48a2.76,2.76,0,0,0,2.76,2.76h54.36a2.75,2.75,0,0,0,2.76-2.76V49.76A2.75,2.75,0,0,0,566.24,47Z"/>
        </g>
        <g>
          <path class="cls-6" d="M515.77,130.14a3,3,0,0,1-3-3V54.85a3,3,0,0,1,3-3h46.06a3.53,3.53,0,0,1,3.52,3.52v71.77a3,3,0,0,1-3,3Z"/>
          <path class="cls-3" d="M561.83,52.36a3,3,0,0,1,3,3v71.77a2.5,2.5,0,0,1-2.5,2.49H515.77a2.5,2.5,0,0,1-2.5-2.49V54.85a2.5,2.5,0,0,1,2.5-2.49h46.06m0-1H515.77a3.5,3.5,0,0,0-3.5,3.49v72.3a3.5,3.5,0,0,0,3.5,3.49h46.58a3.5,3.5,0,0,0,3.5-3.49V55.38a4,4,0,0,0-4-4Z"/>
        </g>
      </g>
      <g>
        <path class="cls-3" d="M532.63,52.5h12.86a0,0,0,0,1,0,0v2.33a.88.88,0,0,1-.88.88h-11.1a.88.88,0,0,1-.88-.88V52.5A0,0,0,0,1,532.63,52.5Z"/>
        <path class="cls-3" d="M544.61,56.21h-11.1a1.38,1.38,0,0,1-1.38-1.38V52H546v2.83A1.38,1.38,0,0,1,544.61,56.21ZM533.13,53v1.83a.38.38,0,0,0,.38.38h11.1a.38.38,0,0,0,.38-.38V53Z"/>
      </g>
    </g>
    <g>
      <g>
        <rect class="cls-6" x="36.71" y="284.5" width="85.76" height="52.71" rx="0.74"/>
        <path class="cls-3" d="M121.73,285a.24.24,0,0,1,.24.24v51.23a.24.24,0,0,1-.24.24H37.45a.24.24,0,0,1-.24-.24V285.24a.24.24,0,0,1,.24-.24h84.28m0-1H37.45a1.24,1.24,0,0,0-1.24,1.24v51.23a1.24,1.24,0,0,0,1.24,1.24h84.28a1.25,1.25,0,0,0,1.24-1.24V285.24a1.25,1.25,0,0,0-1.24-1.24Z"/>
      </g>
      <g>
        <path class="cls-3" d="M143.18,359.92h-80a8.85,8.85,0,0,1-5.75-2.13l-19.72-17.5c-.63-.54-2.07-1-1-3.1L123,338.74l21.31,18.2A1.69,1.69,0,0,1,143.18,359.92Z"/>
        <path class="cls-3" d="M143.18,360.42h-80a9.34,9.34,0,0,1-6.07-2.25l-19.73-17.5c-.09-.08-.19-.15-.3-.23-.67-.47-1.91-1.35-.85-3.47l.14-.28h.31l86.43,1.55.13.12,21.31,18.2a2.19,2.19,0,0,1-1.42,3.86ZM37,337.7c-.47,1.13,0,1.48.66,1.92a4.65,4.65,0,0,1,.38.29l19.73,17.51a8.39,8.39,0,0,0,5.42,2h80a1.2,1.2,0,0,0,.78-2.1l-21.18-18.08Z"/>
      </g>
      <g>
        <path class="cls-6" d="M64.27,357.35a8.37,8.37,0,0,1-5.43-2L37.56,337.18h85.22L144,355.26a1.19,1.19,0,0,1-.78,2.09Z"/>
        <path class="cls-3" d="M122.6,337.68l21,18a.69.69,0,0,1-.45,1.21H64.26a7.89,7.89,0,0,1-5.1-1.88L38.92,337.68H122.6m.37-1H36.21l22.3,19.05a8.88,8.88,0,0,0,5.75,2.12h78.92a1.69,1.69,0,0,0,1.1-3L123,336.68Z"/>
      </g>
      <g>
        <rect class="cls-6" x="41.43" y="288.35" width="76.32" height="45"/>
        <path class="cls-3" d="M117.25,288.85v44H41.93v-44h75.32m1-1H40.93v46h77.32v-46Z"/>
      </g>
      <g>
        <path class="cls-6" d="M56.64,345.16a7.38,7.38,0,0,1-3.09-.94l0,0-5.51-4h72.22l5.05,4.65a2.05,2.05,0,0,1-.37,0Z"/>
        <path class="cls-3" d="M120,340.65l4,3.69-67.37.32a7,7,0,0,1-2.87-.88h0l-4.24-3.12H120m.08-1H47.81c-.74,0-1,.53-.36.73l5.79,4.25a9.17,9.17,0,0,0,3.4,1l68.25-.32c1.15,0,1.69-.53.81-.8l-5.24-4.83a1.1,1.1,0,0,0-.37-.06Z"/>
      </g>
      <g>
        <path class="cls-6" d="M88.88,354.16a3.72,3.72,0,0,1-2.5-1l-3.23-3a1.46,1.46,0,0,1-.45-1.54,1.13,1.13,0,0,1,1.15-.62h21.86a1.89,1.89,0,0,1,1.28.51l3.39,3.12a1.5,1.5,0,0,1,.35,1.66,1.25,1.25,0,0,1-1.17.85Z"/>
        <path class="cls-3" d="M105.71,348.52a1.4,1.4,0,0,1,.94.38L110,352a1,1,0,0,1,.23,1.1.79.79,0,0,1-.71.54H88.88a3.19,3.19,0,0,1-2.16-.87l-3.2-3a1,1,0,0,1-.36-1c.11-.27.48-.31.69-.31h21.86m0-1H83.85c-1.8,0-2.27,1.79-1,3l3.23,3a4.18,4.18,0,0,0,2.84,1.13h20.68a2,2,0,0,0,1.16-3.38l-3.39-3.11a2.38,2.38,0,0,0-1.62-.65Z"/>
      </g>
    </g>
    <g>
      <path class="cls-7" d="M527,316.24c0-4.45,2.49-9.1,1.5-13.07-1.1-4.37-5.56-7.19-7.63-10.67-2.33-3.92-3-9.2-6.29-11.52-3.6-2.54-8.55-1.2-12.85-1.2s-9.25-1.36-12.86,1.2c-3.26,2.32-3.95,7.6-6.29,11.52-2.07,3.46-6.52,6.3-7.61,10.67-1,4,1.5,8.62,1.5,13.07,0,2.56-3.8,7.95-3.49,13.85.24,4.41,3.95,8.39,6.06,12.55,1.94,3.85,3,9.31,7.72,11.47,3.5,1.59,8.54-.42,14.1-.42s10.71,2.06,14.32.52c4.92-2.09,6.23-7.54,8.4-11.31,2.4-4.19,6.25-8,6.6-12.52C530.62,324.44,527,318.92,527,316.24Z"/>
      <path class="cls-3" d="M511.85,355.28a35.51,35.51,0,0,1-4.93-.5,41.76,41.76,0,0,0-6.11-.59,42.57,42.57,0,0,0-6,.56c-3.22.46-6,.86-8.3-.19-3.8-1.73-5.34-5.49-6.7-8.81-.42-1-.82-2-1.27-2.88-.65-1.28-1.47-2.58-2.27-3.83-1.81-2.83-3.67-5.76-3.84-8.93-.2-3.75,1.19-7.22,2.3-10a13.33,13.33,0,0,0,1.19-3.86,25.39,25.39,0,0,0-.88-5.59c-.6-2.55-1.21-5.2-.61-7.6.71-2.82,2.7-5,4.63-7.06a23.49,23.49,0,0,0,3-3.75,30.93,30.93,0,0,0,2.09-4.6c1.11-2.84,2.16-5.52,4.34-7.06,2.83-2,6.38-1.74,9.8-1.47a41.63,41.63,0,0,0,6.7,0c3.42-.26,7-.54,9.79,1.47,2.2,1.54,3.25,4.23,4.35,7.07a31.24,31.24,0,0,0,2.08,4.59,23.34,23.34,0,0,0,3.06,3.77c1.92,2.08,3.91,4.23,4.62,7,.6,2.4,0,5-.61,7.6a25.37,25.37,0,0,0-.87,5.59,14.37,14.37,0,0,0,1.12,3.95c1,2.86,2.37,6.42,2,10.23-.25,3.26-2.29,6.2-4.26,9.05-.83,1.2-1.69,2.44-2.4,3.68-.51.89-1,1.87-1.46,2.91-1.53,3.25-3.26,6.94-7.17,8.61A8.76,8.76,0,0,1,511.85,355.28Zm-11-2.09a43.14,43.14,0,0,1,6.25.6c3.11.46,5.79.85,7.88,0,3.56-1.52,5.13-4.87,6.66-8.12.49-1.05,1-2.05,1.49-3,.74-1.28,1.61-2.54,2.45-3.76,2-2.86,3.85-5.57,4.09-8.56.3-3.59-1-7-2-9.81a14.28,14.28,0,0,1-1.18-4.29,26.3,26.3,0,0,1,.9-5.82c.59-2.55,1.15-5,.61-7.13-.64-2.56-2.55-4.62-4.38-6.61a23.81,23.81,0,0,1-3.19-3.93,31.68,31.68,0,0,1-2.15-4.74c-1-2.7-2-5.24-4-6.62-2.54-1.79-5.9-1.53-9.15-1.28-1.13.08-2.3.18-3.42.18s-2.29-.1-3.43-.18c-3.25-.26-6.6-.52-9.14,1.28-1.94,1.38-2.93,3.92-4,6.62a30.77,30.77,0,0,1-2.16,4.75,24.83,24.83,0,0,1-3.17,3.91c-1.84,2-3.75,4.05-4.39,6.62-.54,2.17,0,4.58.61,7.14a25.66,25.66,0,0,1,.91,5.81,13.5,13.5,0,0,1-1.26,4.23c-1.08,2.7-2.42,6-2.23,9.59.15,2.9,1.95,5.72,3.68,8.44.81,1.27,1.65,2.59,2.32,3.91.47.93.88,1.92,1.31,3,1.35,3.3,2.75,6.71,6.18,8.28,2,.93,4.68.55,7.75.11A42.67,42.67,0,0,1,500.81,353.19Z"/>
      <g>
        <polyline class="cls-4" points="514.05 314.82 514.51 330.99 492.59 333.68 494.89 321.23"/>
        <polygon class="cls-3" points="491.98 334.26 494.4 321.13 495.38 321.31 493.2 333.1 514 330.55 513.55 314.83 514.55 314.81 515.02 331.44 491.98 334.26"/>
      </g>
      <g>
        <path class="cls-4" d="M511.72,313.52a6.56,6.56,0,0,1-.35-4.67c.49-1.56,1.56-2.9,2-4.48a9.12,9.12,0,0,0-.27-4.58,3.67,3.67,0,0,0-1-2,3.24,3.24,0,0,0-3-.37,20.79,20.79,0,0,1-3,.92,5.36,5.36,0,0,1-3.74-1.09,9.51,9.51,0,0,1-2.54-3,3.11,3.11,0,0,1-2.28,2.71,5.5,5.5,0,0,1-3.68-.36,1.29,1.29,0,0,1-.56-.39,1.39,1.39,0,0,1-.16-.57c-.18-1.53-2.63-2.22-2.95-1.57a18.91,18.91,0,0,0-1.53,3.59,28.87,28.87,0,0,0-1,8.63v.44a32,32,0,0,0,3.15,12.51c1.16,2.4,2.75,4.69,5.11,5.85a12.41,12.41,0,0,0,5.44,1c2.66,0,5.45-.27,7.65-1.75,2.69-1.8,4-5,5.2-8A6.47,6.47,0,0,1,511.72,313.52Z"/>
        <path class="cls-3" d="M500.89,326.66a13,13,0,0,1-5.17-1.07c-2.15-1.06-3.89-3-5.36-6.09a32.28,32.28,0,0,1-3.2-12.71v-.46a29.48,29.48,0,0,1,1-8.76,21.33,21.33,0,0,1,1.58-3.71c.2-.4.73-.58,1.43-.46a2.88,2.88,0,0,1,2.46,2.22.9.9,0,0,0,.1.39,1,1,0,0,0,.28.15,5,5,0,0,0,3.4.35,2.61,2.61,0,0,0,1.9-2.27l.16-1.65.78,1.46a8.91,8.91,0,0,0,2.41,2.84,4.79,4.79,0,0,0,3.39,1,20.32,20.32,0,0,0,2.86-.88,3.66,3.66,0,0,1,3.51.45,4.35,4.35,0,0,1,1.16,2.26,9.68,9.68,0,0,1,.27,4.76,12.06,12.06,0,0,1-1.08,2.54,11.82,11.82,0,0,0-.9,2,6.06,6.06,0,0,0,.32,4.31h0a5.91,5.91,0,0,0,2.29,2.63l.36.22-.16.38c-1.11,2.82-2.49,6.33-5.38,8.27-2.42,1.64-5.51,1.84-7.93,1.84Zm-10.16-32.3a.32.32,0,0,0-.17,0,19.74,19.74,0,0,0-1.46,3.46,28.67,28.67,0,0,0-.94,8.46v.46a31.16,31.16,0,0,0,3.1,12.29c1.37,2.84,3,4.68,4.88,5.63a12.12,12.12,0,0,0,5.2,1c2.3,0,5.2-.19,7.39-1.67,2.52-1.68,3.83-4.81,4.87-7.43a6.81,6.81,0,0,1-2.33-2.82,7.06,7.06,0,0,1-.38-5,14.21,14.21,0,0,1,1-2.17,10.82,10.82,0,0,0,1-2.29,8.73,8.73,0,0,0-.26-4.3,3.38,3.38,0,0,0-.88-1.77,2.72,2.72,0,0,0-2.5-.24,20.92,20.92,0,0,1-3,.93,5.84,5.84,0,0,1-4.15-1.18,10.09,10.09,0,0,1-2.07-2.16,3.62,3.62,0,0,1-2.31,2,6,6,0,0,1-4-.39,1.58,1.58,0,0,1-.73-.52,1.88,1.88,0,0,1-.28-.86,1.61,1.61,0,0,0-.93-1.08A2.09,2.09,0,0,0,490.73,294.36Z"/>
      </g>
      <g>
        <path class="cls-8" d="M488.16,312.31v-.1l0-.14Z"/>
        <polygon class="cls-3" points="487.66 312.39 487.63 312.15 488.61 311.95 488.66 312.31 487.66 312.39"/>
      </g>
      <path class="cls-9" d="M499.65,294l.12.26,0-.31h0Z"/>
      <path class="cls-3" d="M501.68,314.13a3.09,3.09,0,0,1-.94-.16,2.91,2.91,0,0,1-1.78-3.7c1-3-.41-6.36-1.77-7.36l.6-.81c1.59,1.18,3.26,4.87,2.12,8.49a1.9,1.9,0,0,0,1.16,2.43,1.77,1.77,0,0,0,.68.11h1v1h-1Z"/>
      <path class="cls-3" d="M501,319.26a6.06,6.06,0,0,1-.85-.05l.11-1a7,7,0,0,0,2.32-.14l.23,1A7.86,7.86,0,0,1,501,319.26Z"/>
      <g>
        <path class="cls-4" d="M516.69,308.91a1.85,1.85,0,0,1-.6-1.09c-.24-1.44,1-1.65.74-3.09-.18-1.05-.89-1.2-1.35-1.8.44-.38.86-.84,1.45-.84C520.35,302.11,518.75,307.8,516.69,308.91Z"/>
        <path class="cls-3" d="M516.62,309.51l-.26-.23a2.35,2.35,0,0,1-.76-1.38A2.52,2.52,0,0,1,516,306a1.55,1.55,0,0,0,.31-1.2,1.51,1.51,0,0,0-.67-1,3.47,3.47,0,0,1-.59-.57l-.28-.38.52-.46a2.43,2.43,0,0,1,1.61-.81,2.28,2.28,0,0,1,2.38,1.83c.49,2-.76,5.06-2.38,5.93Zm-.41-6.55.1.08a2.5,2.5,0,0,1,.58,3.49,1.56,1.56,0,0,0-.31,1.21,1.39,1.39,0,0,0,.2.51,5.55,5.55,0,0,0,1.56-4.59,1.31,1.31,0,0,0-1.41-1.07A1.2,1.2,0,0,0,516.21,303Z"/>
      </g>
      <g>
        <path class="cls-10" d="M517,327.64l12.4,6.6a12.78,12.78,0,0,1,4.51,4c2.57,3.72,4.47,11.93,5.67,17,.11.42-.64.15-.55.51h-.52l-67.51,2c1.2-4.56,3.13-15.44,5.91-19.48a12.78,12.78,0,0,1,4.51-4l12.4-6.6"/>
        <path class="cls-3" d="M470.3,358.28l.17-.64c.27-1,.57-2.37.92-3.92,1.21-5.28,2.85-12.52,5.06-15.72a13.3,13.3,0,0,1,4.68-4.17l12.41-6.6.47.88-12.41,6.6a12.42,12.42,0,0,0-4.33,3.85c-2.1,3.05-3.72,10.18-4.9,15.39-.29,1.25-.54,2.36-.77,3.3l67.06-2a.77.77,0,0,1,.32-.17l0-.14c-1.22-5.12-3.06-12.86-5.5-16.41a12.42,12.42,0,0,0-4.33-3.85l-12.4-6.6.46-.88,12.41,6.6a13.3,13.3,0,0,1,4.68,4.17c2.55,3.7,4.42,11.55,5.65,16.74l.1.43a.7.7,0,0,1-.08.55.69.69,0,0,1-.39.28l.08.28h-1.17Zm68.75-2.91Z"/>
      </g>
      <g>
        <path class="cls-4" d="M499.05,349.25c-1.38.05-2.9-.17-4.28-.12a6.71,6.71,0,0,0-3.6.82,6.57,6.57,0,0,0-1.73,2.08c-1.14,1.86-2.24,3.76-3.27,5.67h12.89Z"/>
        <path class="cls-3" d="M499.56,358.21H485.33l.4-.74c1-1.85,2.1-3.77,3.28-5.71a7,7,0,0,1,1.86-2.2,7.11,7.11,0,0,1,3.88-.93c.72,0,1.47,0,2.19.06s1.42.08,2.09.06l.52,0Zm-12.55-1h11.55v-7.45c-.55,0-1.12,0-1.67-.07s-1.42-.09-2.09-.06a6.3,6.3,0,0,0-3.33.73,6.09,6.09,0,0,0-1.58,1.9Q488.34,354.79,487,357.21Z"/>
      </g>
      <g>
        <path class="cls-10" d="M536.5,357.7l-39-.07V346.32h31.42c5.09,0,9.48.37,10.55,5.35l.55,2.56A3.47,3.47,0,0,1,536.5,357.7Z"/>
        <path class="cls-3" d="M536.51,358.21h0L497,358.13V345.82h31.92c5.17,0,9.9.44,11,5.74l.56,2.67a4,4,0,0,1-4,4Zm0-1h0a3,3,0,0,0,3-2.93l-.54-2.51c-1-4.59-5-4.95-10.06-4.95H498v10.31Z"/>
      </g>
      <g>
        <rect class="cls-5" x="451" y="310.13" width="54.72" height="36.46"/>
        <path class="cls-3" d="M506.22,347.09H450.5V309.63h55.72Zm-54.72-1h53.72V310.63H451.5Z"/>
      </g>
      <g>
        <rect class="cls-5" x="474.59" y="334.78" width="7.53" height="21.69"/>
        <path class="cls-3" d="M482.62,357h-8.53v-22.7h8.53Zm-7.53-1h6.53v-20.7h-6.53Z"/>
      </g>
      <g>
        <path class="cls-5" d="M463.27,354.55h30.18a2.26,2.26,0,0,1,2.26,2.26h0v.89H461v-.89a2.26,2.26,0,0,1,2.25-2.26Z"/>
        <path class="cls-3" d="M496.21,358.21h-35.7v-1.4a2.76,2.76,0,0,1,2.75-2.76h30.19a2.77,2.77,0,0,1,2.76,2.76Zm-34.7-1h33.7v-.4a1.76,1.76,0,0,0-1.76-1.76H463.26a1.76,1.76,0,0,0-1.75,1.76Z"/>
      </g>
      <g>
        <circle class="cls-5" cx="478.36" cy="332.45" r="7.9"/>
        <path class="cls-3" d="M478.36,340.84a8.4,8.4,0,1,1,8.4-8.39A8.4,8.4,0,0,1,478.36,340.84Zm0-15.79a7.4,7.4,0,1,0,7.4,7.4A7.41,7.41,0,0,0,478.36,325.05Z"/>
      </g>
      <rect class="cls-3" x="508.72" y="327.41" width="1" height="13.72"/>
      <g>
        <path class="cls-5" d="M510,321.2h-1.2l-1.57-7.65a2.19,2.19,0,0,1,.88-2.27,2.29,2.29,0,0,1,1.24-.38h0a2.18,2.18,0,0,1,2.18,2.17,2.3,2.3,0,0,1-.05.45Z"/>
        <path class="cls-3" d="M510.37,321.7h-2l-1.65-8a2.69,2.69,0,0,1,1.08-2.79,2.87,2.87,0,0,1,1.53-.47h0a2.69,2.69,0,0,1,2.68,2.67,2.74,2.74,0,0,1-.06.56Zm-1.2-1h.37l1.41-7.27a2.33,2.33,0,0,0,0-.36,1.69,1.69,0,0,0-1.68-1.67h0a1.81,1.81,0,0,0-1,.3,1.7,1.7,0,0,0-.68,1.75Z"/>
      </g>
      <g>
        <path class="cls-5" d="M510.16,321.58l-1-.6,2.48-7.39a2.16,2.16,0,0,1,2.7-1.43,2.13,2.13,0,0,1,.46.2h0a2.16,2.16,0,0,1,.82,2.94,2.27,2.27,0,0,1-.29.4Z"/>
        <path class="cls-3" d="M510.26,322.23l-1.72-1,2.6-7.78a2.67,2.67,0,0,1,3.33-1.75,2.9,2.9,0,0,1,.57.25,2.66,2.66,0,0,1,1,3.62,2.47,2.47,0,0,1-.35.48Zm-.52-1.47.31.18,4.89-5.57a1.6,1.6,0,0,0,.22-.31,1.65,1.65,0,0,0-.62-2.26,1.42,1.42,0,0,0-.36-.16,1.66,1.66,0,0,0-2.08,1.1Z"/>
      </g>
      <g>
        <path class="cls-5" d="M510.11,322l-.6-1,5.85-5.15a2.17,2.17,0,0,1,3.06.12,2.34,2.34,0,0,1,.29.41h0a2.14,2.14,0,0,1-.76,2.95,2.19,2.19,0,0,1-.44.2Z"/>
        <path class="cls-3" d="M509.88,322.61l-1-1.73,6.16-5.42a2.68,2.68,0,0,1,3.76.15,2.87,2.87,0,0,1,.36.5,2.66,2.66,0,0,1-.94,3.63,3.32,3.32,0,0,1-.54.25Zm.27-1.52.18.31,7-2.36a1.87,1.87,0,0,0,.35-.16,1.65,1.65,0,0,0,.58-2.27,1.86,1.86,0,0,0-.23-.32,1.67,1.67,0,0,0-2.35-.09Z"/>
      </g>
      <g>
        <path class="cls-5" d="M509.86,322.36v-1.2l7.65-1.52a2.15,2.15,0,0,1,2.58,1.62,2.24,2.24,0,0,1,.06.52h0a2.16,2.16,0,0,1-2.16,2.16,2.61,2.61,0,0,1-.48-.05Z"/>
        <path class="cls-3" d="M518,324.44a3,3,0,0,1-.59-.06l-8-1.61v-2l8-1.6a2.65,2.65,0,0,1,3.17,2,2.73,2.73,0,0,1,.07.64A2.66,2.66,0,0,1,518,324.44ZM510.36,322l7.25,1.45a1.69,1.69,0,0,0,.38,0,1.66,1.66,0,0,0,1.66-1.66,1.84,1.84,0,0,0,0-.41,1.66,1.66,0,0,0-2-1.25l-7.26,1.45Z"/>
      </g>
      <g>
        <path class="cls-5" d="M509.48,322.54l.6-1,7.37,2.53A2.19,2.19,0,0,1,519,326a2.11,2.11,0,0,1-.3,1.25h0a2.18,2.18,0,0,1-3.34.51Z"/>
        <path class="cls-3" d="M516.79,328.8a2.65,2.65,0,0,1-1.33-.35,2.73,2.73,0,0,1-.47-.35l-6.15-5.46,1-1.72,7.77,2.66a2.68,2.68,0,0,1,1.84,2.35,2.73,2.73,0,0,1-.36,1.54A2.66,2.66,0,0,1,516.79,328.8Zm-6.67-6.36,5.54,4.92a1.29,1.29,0,0,0,.3.22,1.66,1.66,0,0,0,2.27-.61,1.82,1.82,0,0,0,.24-1,1.73,1.73,0,0,0-1.17-1.48l-7-2.39Z"/>
      </g>
      <g>
        <path class="cls-5" d="M509.06,322.5l1-.6,5.11,5.89a2.18,2.18,0,0,1,.35,2.4,2.24,2.24,0,0,1-.89.94h0a2.16,2.16,0,0,1-2.95-.8,2.19,2.19,0,0,1-.2-.44Z"/>
        <path class="cls-3" d="M513.57,331.92a2.65,2.65,0,0,1-2.3-1.34A2,2,0,0,1,511,330l-2.57-7.76,1.72-1,5.39,6.2a2.67,2.67,0,0,1,.42,2.94,2.57,2.57,0,0,1-1.1,1.16A2.65,2.65,0,0,1,513.57,331.92Zm-3.91-9.19,2.32,7a1.6,1.6,0,0,0,.15.35,1.66,1.66,0,0,0,2.27.61,1.65,1.65,0,0,0,.42-2.57L510,322.54Z"/>
      </g>
      <g>
        <path class="cls-5" d="M508.7,322.26h1.2l1.45,7.67a2.16,2.16,0,0,1-1.65,2.58,2.07,2.07,0,0,1-.5.05h0a2.17,2.17,0,0,1-2.15-2.19,2.31,2.31,0,0,1,.05-.46Z"/>
        <path class="cls-3" d="M509.24,333.06h-.05a2.67,2.67,0,0,1-2.64-2.69,2.22,2.22,0,0,1,.07-.57l1.68-8h2l1.53,8.08a2.68,2.68,0,0,1-2,3.16A2.76,2.76,0,0,1,509.24,333.06Zm-.13-10.3L507.59,330a1.59,1.59,0,0,0,0,.36,1.68,1.68,0,0,0,1.66,1.69,1.64,1.64,0,0,0,.38,0,1.67,1.67,0,0,0,1.28-2l-1.38-7.28Z"/>
      </g>
      <g>
        <path class="cls-5" d="M508.53,321.86l1,.6L507,329.82a2.16,2.16,0,0,1-2.71,1.42,2.52,2.52,0,0,1-.47-.22h0a2.17,2.17,0,0,1-.77-3,2.66,2.66,0,0,1,.28-.38Z"/>
        <path class="cls-3" d="M504.9,331.84a2.44,2.44,0,0,1-.8-.13,2.34,2.34,0,0,1-.58-.26,2.66,2.66,0,0,1-.94-3.64,2.4,2.4,0,0,1,.35-.47l5.5-6.12,1.71,1-2.7,7.75A2.68,2.68,0,0,1,504.9,331.84Zm3.73-9.34-5,5.52a1.7,1.7,0,0,0-.23.3,1.67,1.67,0,0,0-.17,1.26,1.62,1.62,0,0,0,.76,1,1.76,1.76,0,0,0,.37.17,1.67,1.67,0,0,0,2.09-1.09l2.44-7Z"/>
      </g>
      <g>
        <path class="cls-5" d="M508.57,321.45l.57,1-5.92,5.08a2.2,2.2,0,0,1-2.4.33,2.13,2.13,0,0,1-.93-.9h0a2.16,2.16,0,0,1,.81-2.94,2.44,2.44,0,0,1,.44-.19Z"/>
        <path class="cls-3" d="M501.77,328.6a2.67,2.67,0,0,1-1.17-.27,2.63,2.63,0,0,1-1.15-1.11,2.66,2.66,0,0,1,1-3.62,3.25,3.25,0,0,1,.54-.23l7.8-2.53,1,1.74-6.23,5.35A2.68,2.68,0,0,1,501.77,328.6Zm6.56-6.55-7,2.28a1.35,1.35,0,0,0-.35.14,1.67,1.67,0,0,0-.63,2.27,1.8,1.8,0,0,0,.72.7,1.72,1.72,0,0,0,1.85-.26l5.61-4.82Z"/>
      </g>
      <g>
        <path class="cls-5" d="M508.81,321.1v1.2l-7.67,1.42a2.19,2.19,0,0,1-2.25-.93,2.27,2.27,0,0,1-.36-1.24h0a2.18,2.18,0,0,1,2.63-2.09Z"/>
        <path class="cls-3" d="M500.7,324.26a2.68,2.68,0,0,1-2.23-1.19,2.89,2.89,0,0,1-.44-1.53,2.76,2.76,0,0,1,.84-1.91,2.68,2.68,0,0,1,2.4-.66l8,1.72v2l-8.08,1.5A2.32,2.32,0,0,1,500.7,324.26Zm0-4.35a1.67,1.67,0,0,0-1.14.45,1.69,1.69,0,0,0-.53,1.2,1.73,1.73,0,0,0,.28,1,1.68,1.68,0,0,0,1.73.71l7.27-1.35v-.38L501.05,320A1.34,1.34,0,0,0,500.7,319.91Z"/>
      </g>
      <g>
        <path class="cls-5" d="M509.2,320.92l-.6,1-7.34-2.62a2.16,2.16,0,0,1-1.17-3.19h0a2.16,2.16,0,0,1,3-.75,1.78,1.78,0,0,1,.38.28Z"/>
        <path class="cls-3" d="M508.82,322.54l-7.73-2.76a2.67,2.67,0,0,1-1.81-2.38,2.59,2.59,0,0,1,.39-1.54,2.65,2.65,0,0,1,3.63-.92,3.27,3.27,0,0,1,.48.35l6.06,5.54Zm-6.87-7a1.65,1.65,0,0,0-1.43.82,1.63,1.63,0,0,0-.25,1,1.69,1.69,0,0,0,1.15,1.49l7,2.49.18-.3-5.46-5a1.91,1.91,0,0,0-.3-.22A1.66,1.66,0,0,0,502,315.56Z"/>
      </g>
      <g>
        <path class="cls-5" d="M509.62,321l-1,.56-5-5.95a2.2,2.2,0,0,1-.31-2.4,2.24,2.24,0,0,1,.9-.93h0a2.26,2.26,0,0,1,1.69-.18,2.21,2.21,0,0,1,1.44,1.47Z"/>
        <path class="cls-3" d="M508.48,322.17l-5.3-6.27a2.7,2.7,0,0,1-.38-2.94,2.67,2.67,0,0,1,5,.43l2.46,7.82Zm-3.27-9.69a1.71,1.71,0,0,0-1.52.93,1.7,1.7,0,0,0,.25,1.84l4.77,5.65.31-.17-2.22-7a1.69,1.69,0,0,0-1.11-1.14A2,2,0,0,0,505.21,312.48Z"/>
      </g>
      <g>
        <circle class="cls-5" cx="509.33" cy="321.73" r="2.19"/>
        <path class="cls-3" d="M509.33,324.42a2.69,2.69,0,1,1,2.69-2.69A2.69,2.69,0,0,1,509.33,324.42Zm0-4.37a1.69,1.69,0,1,0,1.69,1.68A1.69,1.69,0,0,0,509.33,320.05Z"/>
      </g>
      <g>
        <rect class="cls-5" x="502.1" y="339.53" width="14.47" height="18.18"/>
        <path class="cls-3" d="M517.07,358.21H501.6V339h15.47Zm-14.47-1h13.47V340H502.6Z"/>
      </g>
      <g>
        <path class="cls-7" d="M516.09,300.2c-7,2.66-28.59.72-28-8.93"/>
        <path class="cls-3" d="M508.18,301.77c-6,0-13.23-1.31-17.27-4.29-2.34-1.72-3.45-3.82-3.3-6.24l1,.06c-.13,2.06.84,3.87,2.89,5.38,6,4.42,19.26,5,24.41,3.05l.36.94A24.73,24.73,0,0,1,508.18,301.77Z"/>
      </g>
      <path class="cls-7" d="M506.93,290.87c5.22,0,9.45,2.17,9.45,4.84s.11,4.73-9.45,4.84c-5.21.06-9.44-4.95-9.44-7.62S501.72,290.87,506.93,290.87Z"/>
      <path class="cls-3" d="M497.81,304.82a4.67,4.67,0,0,0-3.88-1.07,4,4,0,0,0-2.44,1l-.87-.51a4.67,4.67,0,0,1,3.18-1.46,5.64,5.64,0,0,1,4.71,1.36Z"/>
      <g class="cls-11">
        <circle class="cls-3" cx="494.58" cy="304.85" r="1.55"/>
      </g>
      <path class="cls-3" d="M508.82,304.82a4.64,4.64,0,0,0-3.89-1.07,4.06,4.06,0,0,0-2.43,1l-.87-.51a4.69,4.69,0,0,1,3.17-1.45,5.62,5.62,0,0,1,4.72,1.35Z"/>
      <g class="cls-12">
        <circle class="cls-3" cx="505.62" cy="304.85" r="1.55"/>
      </g>
    </g>
    <g>
      <path class="cls-13" d="M570.77,290.28l.12.28a1,1,0,0,1,0-.34h0Z"/>
      <path class="cls-3" d="M571.39,292.7l-.95-1.92a2.88,2.88,0,0,1-.13-.31l-.2-.48,1.59-.59-.3,1a1,1,0,0,0,0,.19Z"/>
    </g>
    <g>
      <path class="cls-3" d="M497.12,372.63c1.64,0,3,.68,3,2.9s-1.33,2.9-3,2.9h-1v-5.8Zm0,.72h-.21v4.36h.21c1.08,0,2.22-.22,2.22-2.18S498.17,373.35,497.09,373.35Z"/>
      <path class="cls-3" d="M501.2,376.29a2,2,0,0,1,1.95-2.24c1.25,0,2,.92,1.91,2.45H502c0,.87.48,1.43,1.16,1.43a1,1,0,0,0,1.11-.79H505a1.76,1.76,0,0,1-1.85,1.39C501.84,378.53,501.2,377.57,501.2,376.29Zm.78-.39h2.3a1.1,1.1,0,0,0-1.13-1.24C502.45,374.66,502,375.06,502,375.9Z"/>
      <path class="cls-3" d="M508.32,377.42l1.11-3.29h.76l-1.55,4.3h-.7l-1.55-4.3h.82Z"/>
      <path class="cls-3" d="M511.53,376.29a2,2,0,0,1,2-2.24c1.26,0,2,.92,1.92,2.45h-3.09c0,.87.48,1.43,1.16,1.43a1,1,0,0,0,1.11-.79h.76a1.77,1.77,0,0,1-1.86,1.39C512.18,378.53,511.53,377.57,511.53,376.29Zm.78-.39h2.31a1.11,1.11,0,0,0-1.14-1.24C512.79,374.66,512.35,375.06,512.31,375.9Z"/>
      <path class="cls-3" d="M519,372.63v5.17h1.22v.63h-3.17v-.63h1.21v-4.54h-1.21v-.63Z"/>
      <path class="cls-3" d="M523.79,374.06a2.25,2.25,0,1,1-2,2.23A2,2,0,0,1,523.79,374.06Zm0,3.86c.66,0,1.22-.48,1.22-1.63s-.56-1.62-1.22-1.62-1.21.48-1.21,1.62S523.14,377.92,523.79,377.92Z"/>
      <path class="cls-3" d="M528,374.78a1.38,1.38,0,0,1,1.28-.72c1,0,1.73.82,1.73,2.23s-.74,2.24-1.73,2.24a1.39,1.39,0,0,1-1.28-.71v2h-.73v-5.7H528Zm1.12,3.15c.74,0,1.11-.61,1.11-1.64s-.37-1.62-1.11-1.62-1.15.49-1.15,1.62S528.5,377.93,529.11,377.93Z"/>
      <path class="cls-3" d="M532.2,376.29a2,2,0,0,1,1.95-2.24c1.26,0,2,.92,1.92,2.45H533c0,.87.48,1.43,1.16,1.43a1,1,0,0,0,1.11-.79H536a1.77,1.77,0,0,1-1.86,1.39C532.85,378.53,532.2,377.57,532.2,376.29Zm.79-.39h2.3a1.1,1.1,0,0,0-1.14-1.24C533.46,374.66,533,375.06,533,375.9Z"/>
      <path class="cls-3" d="M539.35,374.13v.77a1.21,1.21,0,0,1,1.15-.77h.73v.67h-.72c-.83,0-1.15.54-1.15,1.49v1.51h1.47v.63h-3.42v-.63h1.22v-3H537.4v-.63Z"/>
      <path class="cls-3" d="M545.35,375.3c-.09-.48-.47-.64-1-.64s-.86.17-.86.56.22.48.65.57l.48.1c.74.14,1.54.42,1.54,1.28s-.78,1.36-1.72,1.36a1.62,1.62,0,0,1-1.76-1.39h.78a.9.9,0,0,0,1,.79c.45,0,1-.16,1-.67s-.36-.6-.91-.69l-.53-.11c-.68-.13-1.22-.47-1.22-1.21s.91-1.19,1.63-1.19a1.58,1.58,0,0,1,1.69,1.24Z"/>
    </g>
    <g>
      <path class="cls-3" d="M77.87,153.63c1.64,0,3,.68,3,2.9s-1.33,2.9-3,2.9h-1v-5.8Zm0,.72h-.21v4.36h.21c1.08,0,2.23-.22,2.23-2.18S78.92,154.35,77.84,154.35Z"/>
      <path class="cls-3" d="M82,157.29a2,2,0,0,1,2-2.24c1.25,0,2,.92,1.92,2.45h-3.1c0,.87.48,1.43,1.16,1.43a1,1,0,0,0,1.11-.79h.76a1.75,1.75,0,0,1-1.85,1.39C82.59,159.53,82,158.57,82,157.29Zm.78-.39H85a1.1,1.1,0,0,0-1.13-1.24C83.2,155.66,82.76,156.06,82.73,156.9Z"/>
      <path class="cls-3" d="M89.93,156.3c-.1-.48-.47-.64-1-.64s-.86.17-.86.56.22.48.64.57l.48.1c.75.14,1.55.42,1.55,1.28s-.79,1.36-1.72,1.36a1.62,1.62,0,0,1-1.76-1.39h.77a.9.9,0,0,0,1,.79c.46,0,1-.16,1-.67s-.36-.6-.9-.69l-.54-.11c-.68-.13-1.21-.47-1.21-1.21s.9-1.19,1.62-1.19a1.59,1.59,0,0,1,1.7,1.24Z"/>
      <path class="cls-3" d="M93.33,153.63v3.46l1.9-2h1l-1.69,1.67,1.85,2.63h-.83L94,157.29l-.66.65v1.49h-.74v-5.8Z"/>
      <path class="cls-3" d="M98.37,154.05h.74v1.08h1.76v.63H99.11v2.49c0,.44,0,.55.43.55h1.33v.63H99.38c-.79,0-1-.18-1-1.08v-2.59H97.15v-.63h1.22Z"/>
      <path class="cls-3" d="M104.55,155.06a2.25,2.25,0,1,1-2,2.23A2,2,0,0,1,104.55,155.06Zm0,3.86c.65,0,1.21-.48,1.21-1.63s-.56-1.62-1.21-1.62-1.22.48-1.22,1.62S103.89,158.92,104.55,158.92Z"/>
      <path class="cls-3" d="M108.75,155.78a1.36,1.36,0,0,1,1.27-.72c1,0,1.73.82,1.73,2.23s-.74,2.24-1.73,2.24a1.37,1.37,0,0,1-1.27-.71v2H108v-5.7h.74Zm1.12,3.15c.73,0,1.11-.61,1.11-1.64s-.38-1.62-1.11-1.62-1.16.49-1.16,1.62S109.25,158.93,109.87,158.93Z"/>
    </g>
    <g>
      <path class="cls-3" d="M84.47,378.71h2.84v.72h-3.6v-5.8h.76Z"/>
      <path class="cls-3" d="M88.63,378.31c0-1,1.08-1.34,2.84-1.53v-.18a.85.85,0,0,0-1-1,.89.89,0,0,0-1,.86h-.75A1.65,1.65,0,0,1,90.51,375c1.2,0,1.71.53,1.69,1.72v1.05c0,.72,0,1.33.06,1.62h-.7v-.63a1.57,1.57,0,0,1-1.51.73A1.25,1.25,0,0,1,88.63,378.31Zm2.9-.94c-1.31.13-2.11.31-2.11.92,0,.41.29.65.81.65s1.3-.31,1.3-1.45Z"/>
      <path class="cls-3" d="M94.66,375.78a1.36,1.36,0,0,1,1.27-.72c1,0,1.74.82,1.74,2.23s-.75,2.24-1.74,2.24a1.37,1.37,0,0,1-1.27-.71v2h-.74v-5.7h.74Zm1.12,3.15c.73,0,1.11-.61,1.11-1.64s-.38-1.62-1.11-1.62-1.15.49-1.15,1.62S95.16,378.93,95.78,378.93Z"/>
      <path class="cls-3" d="M99.79,374.05h.73v1.08h1.76v.63h-1.76v2.49c0,.44,0,.55.43.55h1.33v.63h-1.49c-.78,0-1-.18-1-1.08v-2.59H98.56v-.63h1.23Z"/>
      <path class="cls-3" d="M106,375.06a2.25,2.25,0,1,1-2,2.23A2,2,0,0,1,106,375.06Zm0,3.86c.66,0,1.22-.48,1.22-1.63s-.56-1.62-1.22-1.62-1.21.48-1.21,1.62S105.31,378.92,106,378.92Z"/>
      <path class="cls-3" d="M110.16,375.78a1.36,1.36,0,0,1,1.27-.72c1,0,1.74.82,1.74,2.23s-.74,2.24-1.74,2.24a1.37,1.37,0,0,1-1.27-.71v2h-.73v-5.7h.73Zm1.12,3.15c.74,0,1.11-.61,1.11-1.64s-.37-1.62-1.11-1.62-1.15.49-1.15,1.62S110.67,378.93,111.28,378.93Z"/>
    </g>
    <g>
      <g>
        <path class="cls-10" d="M545.1,330.57,532.94,337a12.49,12.49,0,0,0-4.42,3.94c-2.52,3.65-4.39,13.26-5.57,18.23-.1.41,1.06.5,1.06.5l70.41-.34c-1.17-4.48-7.27-14.4-10-18.36a12.58,12.58,0,0,0-4.42-3.94l-12.17-6.47"/>
        <path class="cls-3" d="M524,360.21a2,2,0,0,1-1.43-.54.7.7,0,0,1-.11-.58c.18-.76.38-1.64.59-2.59,1.21-5.33,2.86-12.64,5-15.8a13.08,13.08,0,0,1,4.61-4.1l12.16-6.47.47.89-12.17,6.47a12,12,0,0,0-4.24,3.77c-2.08,3-3.77,10.5-4.89,15.46-.2.86-.38,1.67-.55,2.39a3.63,3.63,0,0,0,.55.1l69.71-.33c-1.48-4.59-7-13.57-9.74-17.59a12,12,0,0,0-4.25-3.77l-12.16-6.47.47-.89,12.16,6.47a13.2,13.2,0,0,1,4.6,4.09c2.94,4.26,8.91,14.07,10.08,18.53l.16.62Zm-.57-.89h0Z"/>
      </g>
      <g>
        <path class="cls-13" d="M563.07,345.21c-2.07.08-4.34-.25-6.41-.18-1.87.08-3.85.17-5.39,1.23a21.46,21.46,0,0,0-4,4.49c-1.71,2.79-2,5.63-3.53,8.51h19.32Z"/>
        <path class="cls-3" d="M563.59,359.76H542.93l.4-.74a24.54,24.54,0,0,0,1.58-3.92,20.7,20.7,0,0,1,2-4.61,21.78,21.78,0,0,1,4.08-4.62c1.72-1.18,3.92-1.27,5.68-1.34,1.07,0,2.18,0,3.26.09a30.52,30.52,0,0,0,3.15.09h.52Zm-19-1h18l0-13c-.89,0-1.82,0-2.73-.1-1.06-.06-2.15-.12-3.16-.09-1.72.07-3.67.14-5.12,1.15a16.33,16.33,0,0,0-5.7,8.73A29.68,29.68,0,0,1,544.58,358.76Z"/>
      </g>
      <g>
        <path class="cls-13" d="M562.12,316c-1.12,0-2.34-.14-3.46-.1a5.43,5.43,0,0,0-2.91.66,11.44,11.44,0,0,0-2.14,2.42c-.92,1.51-1.07,3.05-1.91,4.6h10.43Z"/>
        <path class="cls-3" d="M562.63,324.09H550.86l.4-.74a13.12,13.12,0,0,0,.84-2.08,11.66,11.66,0,0,1,1.08-2.54,12,12,0,0,1,2.26-2.55,5.93,5.93,0,0,1,3.2-.77c.58,0,1.19,0,1.78,0s1.15.07,1.68.05l.52,0Zm-10.14-1h9.14v-6.58c-.42,0-.84,0-1.26-.05a16,16,0,0,0-1.68,0A5,5,0,0,0,556,317a11.25,11.25,0,0,0-2,2.24,10.64,10.64,0,0,0-1,2.35C552.88,322.08,552.71,322.58,552.49,323.09Z"/>
      </g>
      <g>
        <path class="cls-10" d="M593.69,359.28l-31.57-.06V347.5h25.41a8.73,8.73,0,0,1,8.54,6.89l.44,2.08A2.81,2.81,0,0,1,593.69,359.28Z"/>
        <path class="cls-3" d="M593.7,359.78h0l-32.07-.07V347h25.91a9.28,9.28,0,0,1,9,7.29l.45,2.18a3.25,3.25,0,0,1-1,2.34A3.28,3.28,0,0,1,593.7,359.78Zm0-1h0a2.32,2.32,0,0,0,2.31-2.26l-.43-2a8.28,8.28,0,0,0-8.05-6.5H562.62v10.72Z"/>
      </g>
      <path class="cls-3" d="M537,300c0-3.25-1.23-6.76,0-9.61s4.62-4.56,6.84-6.76,3.81-5.61,6.76-6.84,6.34.06,9.62.06,6.77-1.24,9.61-.06,4.56,4.61,6.76,6.84,5.61,3.81,6.83,6.76,0,6.34,0,9.61c0,1.84,2.77,6,2.16,10.33-.43,3.12-3.25,5.52-6,8.16-2,2-4,5.2-8.12,6.19-2.79.65-6.36-.87-10.37-.87s-7.72,1.56-10.61.91c-4.18-1-6.35-4.21-8.52-6.09-3-2.61-6-4.9-6.63-8C534.38,306.29,537,302,537,300Z"/>
      <path class="cls-3" d="M551.94,325.41a7.18,7.18,0,0,1-1.69-.18c-3.32-.76-5.45-2.93-7.17-4.68-.55-.55-1.06-1.07-1.57-1.51l-.81-.7c-2.77-2.36-5.39-4.59-6-7.6s.41-5.93,1.13-8.09a10.61,10.61,0,0,0,.67-2.62,26.88,26.88,0,0,0-.28-3.31c-.27-2.21-.56-4.49.27-6.49s2.72-3.52,4.52-4.9a26.61,26.61,0,0,0,2.43-2,25,25,0,0,0,2.07-2.47c1.36-1.77,2.78-3.61,4.85-4.47s4.28-.54,6.48-.27a19.21,19.21,0,0,0,6.65,0c2.2-.27,4.48-.56,6.48.27s3.53,2.73,4.91,4.53a26.33,26.33,0,0,0,2,2.42,25.13,25.13,0,0,0,2.49,2.08c1.77,1.36,3.6,2.77,4.46,4.84s.54,4.28.26,6.48a29,29,0,0,0-.28,3.32,9.92,9.92,0,0,0,.75,2.6c.77,2.07,1.82,4.91,1.41,7.8-.43,3-2.9,5.35-5.51,7.81l-.68.64c-.45.43-.91.93-1.39,1.46-1.62,1.81-3.65,4.06-7,4.86a14.69,14.69,0,0,1-5.57-.3,21.88,21.88,0,0,0-9.88,0A24.4,24.4,0,0,1,551.94,325.41Zm1.56-48.6a6.94,6.94,0,0,0-2.74.48c-1.82.75-3.15,2.48-4.44,4.15a25.87,25.87,0,0,1-2.16,2.58,27,27,0,0,1-2.52,2.1c-1.69,1.3-3.44,2.64-4.21,4.49s-.47,3.81-.19,6a28.32,28.32,0,0,1,.28,3.43,10.75,10.75,0,0,1-.72,2.93c-.72,2.17-1.62,4.87-1.1,7.59s3,4.78,5.65,7l.82.7c.54.47,1.06,1,1.62,1.57,1.71,1.74,3.65,3.71,6.68,4.41a14.44,14.44,0,0,0,5.37-.33,29.17,29.17,0,0,1,5.13-.59,28.19,28.19,0,0,1,5.09.58,13.85,13.85,0,0,0,5.17.31c3-.73,4.84-2.76,6.45-4.56.49-.54,1-1.06,1.44-1.52l.68-.64c2.49-2.33,4.83-4.53,5.21-7.22s-.59-5.24-1.36-7.32a9.89,9.89,0,0,1-.81-2.94,28.33,28.33,0,0,1,.29-3.44c.28-2.17.53-4.22-.2-6s-2.47-3.14-4.14-4.42A27.37,27.37,0,0,1,576.2,284a28.46,28.46,0,0,1-2.1-2.51c-1.3-1.7-2.64-3.45-4.49-4.21s-3.8-.48-6-.2a20.73,20.73,0,0,1-6.91,0A26.44,26.44,0,0,0,553.5,276.81Z"/>
      <g>
        <polyline class="cls-13" points="546.49 312.9 545.99 330.46 569.79 333.38 567.29 319.86"/>
        <polygon class="cls-3" points="570.4 333.96 545.48 330.9 545.99 312.89 546.99 312.92 546.51 330.02 569.17 332.8 566.8 319.95 567.78 319.77 570.4 333.96"/>
      </g>
      <g>
        <path class="cls-13" d="M549.06,311.5a7.25,7.25,0,0,0,0-6.14,13.69,13.69,0,0,0-.71-1.3,11.67,11.67,0,0,1-.88-1.68,9.71,9.71,0,0,1-.07-5.21,4.61,4.61,0,0,1,1.3-2.87A3.82,3.82,0,0,1,552,294c.37.11.75.24,1.12.38a10,10,0,0,0,2.22.59,6,6,0,0,0,4.81-1.95,9.24,9.24,0,0,0,1.86-2.56,3.63,3.63,0,0,0,.16.65,3.5,3.5,0,0,0,2,2.22c1.52.65,3.25.13,4.88-.48h0a5.91,5.91,0,0,1,1.22-.37c2.07-.31,3.91,1.71,4.44,3.83a18.2,18.2,0,0,1,.44,3.29,20.89,20.89,0,0,0,.21,2.21q-.37,4.08-.74,8.17a48.94,48.94,0,0,1-2.06,5.61c-3.4,7.81-5.74,9.45-12.63,9.45-7.26,0-10-1.92-13.28-9.83-.08-.17-.18-.42-.32-.74A7.26,7.26,0,0,0,549.06,311.5Z"/>
        <path class="cls-3" d="M559.89,325.56c-7.52,0-10.47-2.18-13.75-10.14-.1-.24-.19-.46-.31-.72l-.18-.41.38-.23a6.5,6.5,0,0,0,2.58-8.48c-.21-.43-.44-.86-.68-1.25a12.79,12.79,0,0,1-.92-1.76,10,10,0,0,1-.1-5.49,5,5,0,0,1,1.48-3.17,4.25,4.25,0,0,1,3.71-.37c.39.11.78.25,1.15.39a9.93,9.93,0,0,0,2.12.57,5.46,5.46,0,0,0,4.37-1.8,8.65,8.65,0,0,0,1.78-2.44l.7-1.42.24,1.57a4,4,0,0,0,.14.57,3,3,0,0,0,1.68,1.91c1.25.54,2.71.19,4.5-.49l.14,0a6.46,6.46,0,0,1,1.21-.36c2.42-.37,4.44,1.86,5,4.2a19.57,19.57,0,0,1,.45,3.39c0,.69.09,1.42.2,2.16v.12c-.24,2.72-.49,5.44-.73,8.16l0,.1a47.54,47.54,0,0,1-2.09,5.67C569.53,323.73,567.08,325.56,559.89,325.56Zm-13-10.88.11.28c3.19,7.73,5.7,9.6,12.86,9.6,6.74,0,8.9-1.63,12.17-9.15a49.72,49.72,0,0,0,2-5.5l.72-8.07c-.11-.75-.16-1.49-.2-2.19a18.22,18.22,0,0,0-.43-3.21c-.46-1.86-2.09-3.7-3.88-3.44a5.75,5.75,0,0,0-1.1.33l-.15,0c-1.72.64-3.54,1.14-5.17.44a4,4,0,0,1-2.06-2.06,9.79,9.79,0,0,1-1.36,1.65,6.48,6.48,0,0,1-5.19,2.09,10.16,10.16,0,0,1-2.38-.63c-.34-.13-.71-.26-1.07-.36a3.39,3.39,0,0,0-2.82.2,4.24,4.24,0,0,0-1.11,2.56,9.29,9.29,0,0,0,.05,4.94,12.17,12.17,0,0,0,.83,1.6,12.54,12.54,0,0,1,.74,1.35,7.76,7.76,0,0,1,0,6.56v0A7.85,7.85,0,0,1,546.92,314.68Z"/>
      </g>
      <g>
        <path class="cls-13" d="M574.6,310.18v-.11c0-.05,0-.1,0-.15Z"/>
        <path class="cls-3" d="M575.09,310.27l-1-.09V310l.06-.21,1,.26Z"/>
      </g>
      <path class="cls-3" d="M575.41,307l-.89-.46c.84-1.61,1.62-3.28,2.33-5a4.66,4.66,0,0,0,.46-1.56,2.31,2.31,0,0,0-1.64-2.28l.29-1a3.34,3.34,0,0,1,2.35,3.32,5.79,5.79,0,0,1-.55,1.9C577.05,303.68,576.26,305.38,575.41,307Z"/>
      <path class="cls-3" d="M559.92,312.11h-1.11v-1h1a2,2,0,0,0,.78-.12,2.11,2.11,0,0,0,1.3-2.68c-1.25-3.92.55-7.91,2.27-9.18l.6.81c-1.31,1-3.07,4.47-1.93,8.05a3.1,3.1,0,0,1-1.91,3.94A3,3,0,0,1,559.92,312.11Z"/>
      <path class="cls-3" d="M551.29,301.54l-.4-.91a11.51,11.51,0,0,1,2.22-.72,8.78,8.78,0,0,1,3.68,0,10.86,10.86,0,0,1,2.22.72l-.41.91a10.59,10.59,0,0,0-2-.65,7.79,7.79,0,0,0-3.26,0A10.92,10.92,0,0,0,551.29,301.54Z"/>
      <g class="cls-14">
        <circle class="cls-3" cx="554.51" cy="301.5" r="1.68"/>
      </g>
      <path class="cls-3" d="M563.63,301.54l-.4-.91a11.42,11.42,0,0,1,2.21-.72,8.83,8.83,0,0,1,3.69,0,10.86,10.86,0,0,1,2.22.72l-.41.91a11.06,11.06,0,0,0-2-.65,7.83,7.83,0,0,0-3.27,0A11.06,11.06,0,0,0,563.63,301.54Z"/>
      <g class="cls-15">
        <circle class="cls-3" cx="566.41" cy="301.5" r="1.68"/>
      </g>
      <g>
        <path class="cls-3" d="M575.62,302.87c-.52-2.12-.28-4.37-.83-6.51s-2.38-4.21-4.56-3.9a5.88,5.88,0,0,0-1.3.38c-1.55.59-3.3,1.11-4.83.48a3.62,3.62,0,0,1-1.74-4.83,1.24,1.24,0,0,1,.1-.2l-.46,1.95a8.71,8.71,0,0,1-2,2.81,5.94,5.94,0,0,1-4.74,1.91,19.24,19.24,0,0,1-3.33-1,3.8,3.8,0,0,0-3.33.3,4.41,4.41,0,0,0-1.36,2.92,9.69,9.69,0,0,0,.08,5.21c.39,1,1.11,1.95,1.59,3a7.14,7.14,0,0,1-3.38,9.5,8.13,8.13,0,0,1-1.28.46l-4.4-3.91L541.13,292l19.14-9.57,16.6,8.13,3.29,14.29L576.87,314Z"/>
        <path class="cls-3" d="M576.62,316.24,575.13,303a18.9,18.9,0,0,1-.41-3.24,16.22,16.22,0,0,0-.42-3.23c-.5-1.95-2.13-3.79-4-3.54a5.87,5.87,0,0,0-1.18.35c-1.73.66-3.55,1.17-5.21.48a4.13,4.13,0,0,1-2.08-2.16,8.59,8.59,0,0,1-1.43,1.79,6.43,6.43,0,0,1-5.12,2,19.21,19.21,0,0,1-3.48-1,3.39,3.39,0,0,0-2.85.24,3.94,3.94,0,0,0-1.17,2.61,9.41,9.41,0,0,0,.05,4.94,12,12,0,0,0,.85,1.62c.25.42.51.85.73,1.31a7.64,7.64,0,0,1-3.62,10.16,7.63,7.63,0,0,1-1.36.49l-.26.07-4.78-4.25,1.26-20,19.62-9.81,17,8.34,3.38,14.66Zm-36.2-5,4,3.56a5.26,5.26,0,0,0,.93-.36,6.62,6.62,0,0,0,3.14-8.83,12.16,12.16,0,0,0-.67-1.21,11.23,11.23,0,0,1-.93-1.79,10.15,10.15,0,0,1-.1-5.47,4.92,4.92,0,0,1,1.55-3.23,4.29,4.29,0,0,1,3.77-.39,19,19,0,0,0,3.29,1,5.43,5.43,0,0,0,4.27-1.76,8,8,0,0,0,1.83-2.6,4.11,4.11,0,0,1,.39-1.83l.12-.23,1.75-3.16-1.25,5.34a3.13,3.13,0,0,0,1.79,2.64c1.32.54,2.91.08,4.44-.5a7.19,7.19,0,0,1,1.39-.41c2.53-.35,4.53,1.94,5.13,4.28a18.22,18.22,0,0,1,.45,3.42,17.29,17.29,0,0,0,.39,3.09v.07l1,9,2.51-7-3.2-13.91L560.27,283l-18.66,9.33Z"/>
      </g>
      <path class="cls-3" d="M560.71,317.68a8.61,8.61,0,0,1-2-.23l.23-1a7.68,7.68,0,0,0,2.53.16l.11,1A6.94,6.94,0,0,1,560.71,317.68Z"/>
      <g>
        <path class="cls-13" d="M545.57,300.46c-.77-.36-1.3-1.38-2.23-1.37-3.81,0-1.81,6.72.56,7.51"/>
        <path class="cls-3" d="M543.75,307.08c-1.92-.65-3.33-4.13-3-6.26a2.44,2.44,0,0,1,2.57-2.23h0a2.54,2.54,0,0,1,1.73.89,3.4,3.4,0,0,0,.7.53l-.42.91a3.89,3.89,0,0,1-1-.7c-.37-.34-.69-.63-1.06-.63h0a1.46,1.46,0,0,0-1.59,1.39c-.29,1.82,1,4.71,2.31,5.15Z"/>
      </g>
      <g>
        <path class="cls-3" d="M543.18,311.57c.26-1.57-1.07-1.8-.8-3.36s1.6-1.33,1.87-2.9-1.07-1.79-.8-3.36,1.61-1.34,1.87-2.9-1.06-1.79-.8-3.36l1.47.2-.43,4.26.12,5.12-.69,4.4Z"/>
        <path class="cls-3" d="M542.41,313.09l.27-1.61a1.7,1.7,0,0,0-.33-1.34,2.69,2.69,0,0,1,.64-3.76,1.71,1.71,0,0,0,.77-1.16,1.74,1.74,0,0,0-.34-1.34,2.69,2.69,0,0,1,.65-3.76,1.71,1.71,0,0,0,.42-2.49,2.71,2.71,0,0,1-.46-2l.08-.48,2.43.33-.48,4.74.12,5.05-.72,4.66Zm2.66-12.53-.36.33a1.69,1.69,0,0,0-.43,2.48,2.66,2.66,0,0,1,.46,2,2.7,2.7,0,0,1-1.11,1.76,1.69,1.69,0,0,0-.42,2.48,4.36,4.36,0,0,1,.38.78l.93-1,.67-4.25Zm-.07-4.3a2.12,2.12,0,0,0,.35.86l0,0,.08-.82Z"/>
      </g>
      <g>
        <circle class="cls-10" cx="554.88" cy="303.21" r="6.11"/>
        <path class="cls-3" d="M554.88,309.82a6.61,6.61,0,1,1,6.61-6.61A6.62,6.62,0,0,1,554.88,309.82Zm0-12.22a5.61,5.61,0,1,0,5.61,5.61A5.61,5.61,0,0,0,554.88,297.6Z"/>
      </g>
      <g>
        <circle class="cls-10" cx="569.39" cy="303.21" r="6.11"/>
        <path class="cls-3" d="M569.39,309.82a6.61,6.61,0,1,1,6.61-6.61A6.62,6.62,0,0,1,569.39,309.82Zm0-12.22a5.61,5.61,0,1,0,5.61,5.61A5.61,5.61,0,0,0,569.39,297.6Z"/>
      </g>
      <g>
        <rect class="cls-5" x="550.54" y="307.72" width="59.4" height="39.57"/>
        <path class="cls-3" d="M610.44,347.8H550V307.22h60.4Zm-59.4-1h58.4V308.22H551Z"/>
      </g>
      <g>
        <rect class="cls-5" x="576.15" y="334.49" width="8.18" height="23.55"/>
        <path class="cls-3" d="M584.83,358.54h-9.18V334h9.18Zm-8.18-1h7.18V335h-7.18Z"/>
      </g>
      <g>
        <path class="cls-5" d="M596.62,356H563.85a2.45,2.45,0,0,0-2.45,2.45h0v1h37.68v-1a2.45,2.45,0,0,0-2.45-2.45Z"/>
        <path class="cls-3" d="M599.58,359.87H560.9V358.4a3,3,0,0,1,3-2.95h32.78a3,3,0,0,1,3,2.95Zm-37.68-1h36.68v-.47a2,2,0,0,0-2-1.95H563.85a2,2,0,0,0-2,1.95Z"/>
      </g>
      <g>
        <circle class="cls-5" cx="580.24" cy="331.95" r="8.57"/>
        <path class="cls-3" d="M580.24,341a9.08,9.08,0,1,1,9.07-9.08A9.09,9.09,0,0,1,580.24,341Zm0-17.15a8.08,8.08,0,1,0,8.07,8.07A8.09,8.09,0,0,0,580.24,323.88Z"/>
      </g>
    </g>
    <g>
      <path class="cls-3" d="M298.45,301a3.91,3.91,0,0,1-1.57-1.6,5.76,5.76,0,0,1,0-5,3.94,3.94,0,0,1,1.57-1.59,4.37,4.37,0,0,1,2.15-.54,4,4,0,0,1,2.46.72,3.45,3.45,0,0,1,1.31,2l-1.52.39a2.69,2.69,0,0,0-.82-1.17,2.31,2.31,0,0,0-1.43-.41,2.51,2.51,0,0,0-1.31.34,2.43,2.43,0,0,0-.93,1,3.86,3.86,0,0,0-.35,1.71,3.8,3.8,0,0,0,.35,1.71,2.43,2.43,0,0,0,.93,1,2.52,2.52,0,0,0,1.31.35,2.25,2.25,0,0,0,1.43-.42,2.69,2.69,0,0,0,.82-1.17l1.52.39a3.42,3.42,0,0,1-1.31,2,4,4,0,0,1-2.46.73A4.37,4.37,0,0,1,298.45,301Z"/>
      <path class="cls-3" d="M305.83,292.27h1.61v9.2h-1.61Z"/>
      <path class="cls-3" d="M310.44,301.13a2.86,2.86,0,0,1-1.15-1.21,3.92,3.92,0,0,1,0-3.45,2.91,2.91,0,0,1,1.15-1.21,3.82,3.82,0,0,1,3.56,0,2.85,2.85,0,0,1,1.15,1.21,3.92,3.92,0,0,1,0,3.45,2.8,2.8,0,0,1-1.15,1.21,3.75,3.75,0,0,1-3.56,0Zm3-1.51a2.53,2.53,0,0,0,0-2.85,1.46,1.46,0,0,0-1.2-.58,1.43,1.43,0,0,0-1.19.58,2.48,2.48,0,0,0,0,2.85,1.43,1.43,0,0,0,1.19.58A1.46,1.46,0,0,0,313.42,299.62Z"/>
      <path class="cls-3" d="M317.56,301.07a1.89,1.89,0,0,1-.55-1.47v-4.68h1.61v4.2a1.15,1.15,0,0,0,.25.82.93.93,0,0,0,.68.26,1.09,1.09,0,0,0,.74-.31,2.21,2.21,0,0,0,.55-.92,4.38,4.38,0,0,0,.21-1.44v-2.61h1.61v6.55h-1.61v-1.05a2.87,2.87,0,0,1-.9.84,2.12,2.12,0,0,1-1.13.32A2.06,2.06,0,0,1,317.56,301.07Z"/>
      <path class="cls-3" d="M324.86,300.66a4.48,4.48,0,0,1,0-4.93,2.59,2.59,0,0,1,2.12-.91,2.44,2.44,0,0,1,1,.2,1.69,1.69,0,0,1,.69.5v-3.25h1.61v9.2h-1.61v-.67a1.34,1.34,0,0,1-.62.53,2.2,2.2,0,0,1-1.09.25A2.59,2.59,0,0,1,324.86,300.66Zm3.55-1a2.8,2.8,0,0,0,0-2.95,1.38,1.38,0,0,0-2.17,0,2.25,2.25,0,0,0-.43,1.48,2.28,2.28,0,0,0,.43,1.47,1.38,1.38,0,0,0,2.17,0Z"/>
    </g>
    <g>
      <g>
        <g>
          <path class="cls-16" d="M384.4,198.27c-7.12,0-13.72-.69-16.8-1.76-.74-.13-1.54-.36-1.54-.81v-7.8h36.68v7.83c0,.41-.78.64-1.43.75C398.17,197.58,391.56,198.27,384.4,198.27Z"/>
          <path class="cls-3" d="M402.24,188.4v7.26a2.53,2.53,0,0,1-1,.33l-.07,0-.08,0c-3,1.06-9.56,1.74-16.67,1.74s-13.61-.68-16.64-1.73l-.07,0-.08,0a2.4,2.4,0,0,1-1-.34V188.4h35.68m1-1H365.56v8.21a.43.43,0,0,0,0,0s0,0,0,0c0,.68.68,1.08,1.87,1.29,3.05,1,9.51,1.78,17,1.78s14-.73,17-1.79c1.18-.22,1.84-.61,1.84-1.28v-8.3Z"/>
        </g>
        <g>
          <path class="cls-16" d="M384.4,190c-11.86,0-18.34-1.75-18.34-2.66s6.48-2.65,18.34-2.65,18.34,1.75,18.34,2.65S396.27,190,384.4,190Z"/>
          <path class="cls-3" d="M384.4,185.23c10.38,0,16.31,1.32,17.65,2.15-1.34.84-7.27,2.16-17.65,2.16s-16.31-1.32-17.64-2.16c1.33-.83,7.27-2.15,17.64-2.15m0-1c-10.4,0-18.84,1.41-18.84,3.15s8.44,3.16,18.84,3.16,18.84-1.41,18.84-3.16-8.43-3.15-18.84-3.15Z"/>
        </g>
      </g>
      <g>
        <g>
          <path class="cls-16" d="M384.4,190.05c-7.12,0-13.72-.69-16.8-1.76-.74-.13-1.54-.36-1.54-.81v-7.8h36.68v7.83c0,.41-.78.64-1.43.76C398.17,189.36,391.56,190.05,384.4,190.05Z"/>
          <path class="cls-3" d="M402.24,180.18v7.26a2.53,2.53,0,0,1-1,.33l-.07,0-.08,0c-3,1.06-9.56,1.74-16.67,1.74s-13.61-.68-16.64-1.73l-.07,0-.08,0a2.4,2.4,0,0,1-1-.34v-7.26h35.68m1-1H365.56v8.21a.43.43,0,0,0,0,.05s0,0,0,0c0,.68.68,1.08,1.87,1.29,3.05,1,9.51,1.78,17,1.78s14-.73,17-1.79c1.18-.22,1.84-.61,1.84-1.28v-8.3Z"/>
        </g>
        <g>
          <path class="cls-16" d="M384.4,181.82c-11.86,0-18.34-1.75-18.34-2.66s6.48-2.65,18.34-2.65,18.34,1.75,18.34,2.65S396.27,181.82,384.4,181.82Z"/>
          <path class="cls-3" d="M384.4,177c10.38,0,16.31,1.32,17.65,2.15-1.34.84-7.27,2.16-17.65,2.16s-16.31-1.32-17.64-2.16c1.33-.83,7.27-2.15,17.64-2.15m0-1c-10.4,0-18.84,1.41-18.84,3.15s8.44,3.16,18.84,3.16,18.84-1.41,18.84-3.16S394.81,176,384.4,176Z"/>
        </g>
      </g>
      <g>
        <g>
          <path class="cls-16" d="M384.4,181.83c-7.12,0-13.72-.69-16.8-1.76-.74-.13-1.54-.36-1.54-.81a.61.61,0,0,0,0-.14l0,0-.05-7.62h36.67v7.83c0,.41-.78.64-1.43.76C398.17,181.14,391.56,181.83,384.4,181.83Z"/>
          <path class="cls-3" d="M402.24,172v7.26a2.53,2.53,0,0,1-1,.33l-.07,0-.08,0c-3,1.06-9.56,1.74-16.67,1.74s-13.61-.68-16.64-1.73l-.07,0-.08,0a2.58,2.58,0,0,1-1-.33v0l0-.1v-.16l-.05-7h35.67m1-1H365.56l.06,8-.05.29s0,0,0,0c0,.68.68,1.08,1.87,1.29,3.05,1,9.51,1.78,17,1.78s14-.73,17-1.79c1.18-.22,1.84-.6,1.84-1.28V171Z"/>
        </g>
        <g>
          <path class="cls-16" d="M384.4,173.6c-11.86,0-18.34-1.75-18.34-2.66s6.48-2.65,18.34-2.65,18.34,1.75,18.34,2.65S396.27,173.6,384.4,173.6Z"/>
          <path class="cls-3" d="M384.4,168.79c10.38,0,16.31,1.32,17.65,2.15-1.34.84-7.27,2.16-17.65,2.16s-16.31-1.32-17.64-2.16c1.33-.83,7.27-2.15,17.64-2.15m0-1c-10.4,0-18.84,1.41-18.84,3.15s8.44,3.16,18.84,3.16,18.84-1.41,18.84-3.16-8.43-3.15-18.84-3.15Z"/>
        </g>
      </g>
    </g>
    <g>
      <g>
        <rect class="cls-16" x="216.03" y="201.67" width="33.54" height="12.72" rx="2.39"/>
        <path class="cls-3" d="M247.17,214.89H218.42a2.9,2.9,0,0,1-2.89-2.89v-7.94a2.9,2.9,0,0,1,2.89-2.89h28.75a2.89,2.89,0,0,1,2.89,2.89V212A2.89,2.89,0,0,1,247.17,214.89Zm-28.75-12.72a1.89,1.89,0,0,0-1.89,1.89V212a1.89,1.89,0,0,0,1.89,1.89h28.75a1.89,1.89,0,0,0,1.89-1.89v-7.94a1.89,1.89,0,0,0-1.89-1.89Z"/>
      </g>
      <g>
        <circle class="cls-3" cx="243.2" cy="208.03" r="1.73"/>
        <path class="cls-3" d="M243.2,210.26a2.23,2.23,0,1,1,2.24-2.23A2.23,2.23,0,0,1,243.2,210.26Zm0-3.46a1.23,1.23,0,1,0,1.24,1.23A1.23,1.23,0,0,0,243.2,206.8Z"/>
      </g>
      <g>
        <circle class="cls-3" cx="236.27" cy="208.03" r="1.73"/>
        <path class="cls-3" d="M236.27,210.26A2.23,2.23,0,1,1,238.5,208,2.23,2.23,0,0,1,236.27,210.26Zm0-3.46A1.23,1.23,0,1,0,237.5,208,1.23,1.23,0,0,0,236.27,206.8Z"/>
      </g>
      <g>
        <rect class="cls-16" x="216.03" y="188.95" width="33.54" height="12.72" rx="2.39"/>
        <path class="cls-3" d="M247.17,202.17H218.42a2.9,2.9,0,0,1-2.89-2.9v-7.93a2.9,2.9,0,0,1,2.89-2.89h28.75a2.89,2.89,0,0,1,2.89,2.89v7.93A2.89,2.89,0,0,1,247.17,202.17Zm-28.75-12.72a1.89,1.89,0,0,0-1.89,1.89v7.93a1.9,1.9,0,0,0,1.89,1.9h28.75a1.9,1.9,0,0,0,1.89-1.9v-7.93a1.89,1.89,0,0,0-1.89-1.89Z"/>
      </g>
      <g>
        <circle class="cls-3" cx="243.2" cy="195.31" r="1.73"/>
        <path class="cls-3" d="M243.2,197.54a2.23,2.23,0,1,1,2.24-2.23A2.23,2.23,0,0,1,243.2,197.54Zm0-3.46a1.23,1.23,0,1,0,1.24,1.23A1.23,1.23,0,0,0,243.2,194.08Z"/>
      </g>
      <g>
        <circle class="cls-3" cx="236.27" cy="195.31" r="1.73"/>
        <path class="cls-3" d="M236.27,197.54a2.23,2.23,0,1,1,2.23-2.23A2.23,2.23,0,0,1,236.27,197.54Zm0-3.46a1.23,1.23,0,1,0,1.23,1.23A1.23,1.23,0,0,0,236.27,194.08Z"/>
      </g>
    </g>
    <g>
      <rect class="cls-17" x="304.57" y="134.94" width="20.44" height="20.44" rx="4.87"/>
      <path class="cls-3" d="M320.14,135.44a4.37,4.37,0,0,1,4.37,4.37v10.7a4.37,4.37,0,0,1-4.37,4.37H309.43a4.37,4.37,0,0,1-4.36-4.37v-10.7a4.37,4.37,0,0,1,4.36-4.37h10.71m0-1H309.43a5.36,5.36,0,0,0-5.36,5.37v10.7a5.36,5.36,0,0,0,5.36,5.37h10.71a5.36,5.36,0,0,0,5.37-5.37v-10.7a5.36,5.36,0,0,0-5.37-5.37Z"/>
    </g>
    <g>
      <rect class="cls-17" x="280.44" y="134.94" width="20.44" height="20.44" rx="4.87"/>
      <path class="cls-3" d="M296,135.44a4.37,4.37,0,0,1,4.37,4.37v10.7a4.37,4.37,0,0,1-4.37,4.37H285.31a4.37,4.37,0,0,1-4.37-4.37v-10.7a4.37,4.37,0,0,1,4.37-4.37H296m0-1H285.31a5.37,5.37,0,0,0-5.37,5.37v10.7a5.37,5.37,0,0,0,5.37,5.37H296a5.37,5.37,0,0,0,5.37-5.37v-10.7a5.37,5.37,0,0,0-5.37-5.37Z"/>
    </g>
    <g>
      <rect class="cls-17" x="256.32" y="134.94" width="20.44" height="20.44" rx="4.87"/>
      <path class="cls-3" d="M271.89,135.44a4.37,4.37,0,0,1,4.37,4.37v10.7a4.37,4.37,0,0,1-4.37,4.37h-10.7a4.37,4.37,0,0,1-4.37-4.37v-10.7a4.37,4.37,0,0,1,4.37-4.37h10.7m0-1h-10.7a5.36,5.36,0,0,0-5.37,5.37v10.7a5.36,5.36,0,0,0,5.37,5.37h10.7a5.36,5.36,0,0,0,5.37-5.37v-10.7a5.36,5.36,0,0,0-5.37-5.37Z"/>
    </g>
    <g>
      <path class="cls-3" d="M287,168.48h-.82l-.39-1.24h-2.22l-.38,1.24h-.82l1.91-5.79h.81Zm-3.2-1.95h1.76l-.87-2.83Z"/>
      <path class="cls-3" d="M288.86,164.83a1.36,1.36,0,0,1,1.27-.72c1,0,1.73.82,1.73,2.24s-.74,2.24-1.73,2.24a1.39,1.39,0,0,1-1.27-.71v2h-.74v-5.7h.74ZM290,168c.73,0,1.11-.61,1.11-1.63s-.38-1.62-1.11-1.62-1.16.48-1.16,1.62S289.36,168,290,168Z"/>
      <path class="cls-3" d="M294,164.83a1.37,1.37,0,0,1,1.27-.72c1,0,1.74.82,1.74,2.24s-.74,2.24-1.74,2.24a1.4,1.4,0,0,1-1.27-.71v2h-.73v-5.7H294Zm1.12,3.15c.74,0,1.11-.61,1.11-1.63s-.37-1.62-1.11-1.62-1.15.48-1.15,1.62S294.53,168,295.14,168Z"/>
      <path class="cls-3" d="M301.05,165.36c-.1-.48-.47-.64-1-.64s-.87.17-.87.55.23.49.65.57l.48.1c.74.14,1.54.42,1.54,1.29s-.78,1.36-1.71,1.36a1.63,1.63,0,0,1-1.76-1.39h.77a.9.9,0,0,0,1,.78c.46,0,1-.16,1-.66s-.36-.6-.9-.7l-.54-.1c-.68-.14-1.21-.48-1.21-1.22s.9-1.19,1.62-1.19a1.58,1.58,0,0,1,1.69,1.25Z"/>
    </g>
    <g>
      <g>
        <rect class="cls-3" x="288.6" y="212.35" width="41.89" height="20.44" rx="4.87"/>
        <path class="cls-3" d="M325.62,212.85a4.37,4.37,0,0,1,4.37,4.37v10.71a4.37,4.37,0,0,1-4.37,4.37H293.47a4.37,4.37,0,0,1-4.37-4.37V217.22a4.37,4.37,0,0,1,4.37-4.37h32.15m0-1H293.47a5.37,5.37,0,0,0-5.37,5.37v10.71a5.37,5.37,0,0,0,5.37,5.37h32.15a5.38,5.38,0,0,0,5.37-5.37V217.22a5.38,5.38,0,0,0-5.37-5.37Z"/>
      </g>
      <g>
        <rect class="cls-17" x="290.39" y="210.57" width="41.89" height="20.44" rx="4.87"/>
        <path class="cls-3" d="M327.41,211.07a4.37,4.37,0,0,1,4.37,4.36v10.71a4.37,4.37,0,0,1-4.37,4.37H295.26a4.37,4.37,0,0,1-4.37-4.37V215.43a4.37,4.37,0,0,1,4.37-4.36h32.15m0-1H295.26a5.36,5.36,0,0,0-5.37,5.36v10.71a5.36,5.36,0,0,0,5.37,5.37h32.15a5.37,5.37,0,0,0,5.37-5.37V215.43a5.37,5.37,0,0,0-5.37-5.36Z"/>
      </g>
    </g>
    <g>
      <g>
        <rect class="cls-3" x="288.6" y="186" width="41.89" height="20.44" rx="4.87"/>
        <path class="cls-3" d="M325.62,186.49a4.37,4.37,0,0,1,4.37,4.37v10.71a4.37,4.37,0,0,1-4.37,4.37H293.47a4.37,4.37,0,0,1-4.37-4.37V190.86a4.37,4.37,0,0,1,4.37-4.37h32.15m0-1H293.47a5.37,5.37,0,0,0-5.37,5.37v10.71a5.36,5.36,0,0,0,5.37,5.37h32.15a5.37,5.37,0,0,0,5.37-5.37V190.86a5.38,5.38,0,0,0-5.37-5.37Z"/>
      </g>
      <g>
        <rect class="cls-17" x="290.39" y="184.21" width="41.89" height="20.44" rx="4.87"/>
        <path class="cls-3" d="M327.41,184.71a4.37,4.37,0,0,1,4.37,4.37v10.7a4.37,4.37,0,0,1-4.37,4.37H295.26a4.37,4.37,0,0,1-4.37-4.37v-10.7a4.37,4.37,0,0,1,4.37-4.37h32.15m0-1H295.26a5.36,5.36,0,0,0-5.37,5.37v10.7a5.36,5.36,0,0,0,5.37,5.37h32.15a5.37,5.37,0,0,0,5.37-5.37v-10.7a5.37,5.37,0,0,0-5.37-5.37Z"/>
      </g>
    </g>
    <g>
      <path class="cls-3" d="M276.13,241H277l1.41,4.79,1.41-4.79h.82l-1.82,5.8H278Z"/>
      <path class="cls-3" d="M284,242.49v3.67h1.23v.63H282v-.63h1.22v-3H282v-.63Zm0-1.5v.88h-.73V241Z"/>
      <path class="cls-3" d="M288.75,242.49v.77a1.21,1.21,0,0,1,1.15-.77h.74v.67h-.73c-.82,0-1.14.55-1.14,1.49v1.51h1.47v.63h-3.43v-.63H288v-3h-1.22v-.63Z"/>
      <path class="cls-3" d="M292.86,241.41h.74v1.08h1.76v.63H293.6v2.49c0,.44,0,.55.43.55h1.33v.63h-1.49c-.78,0-1-.18-1-1.08v-2.59h-1.22v-.63h1.22Z"/>
      <path class="cls-3" d="M300,246.24a1.35,1.35,0,0,1-1.27.65c-1,0-1.33-.68-1.33-1.63v-2.77h.73V245c0,.7,0,1.26.84,1.26s1-.48,1-1.4v-2.37h.73v4.3H300Z"/>
      <path class="cls-3" d="M302.37,245.67c0-1,1.09-1.33,2.85-1.53V244a.85.85,0,0,0-1-1,.89.89,0,0,0-1,.86h-.75a1.65,1.65,0,0,1,1.78-1.45c1.19,0,1.7.53,1.69,1.72v1a15.07,15.07,0,0,0,.06,1.62h-.71v-.63a1.59,1.59,0,0,1-1.52.73A1.26,1.26,0,0,1,302.37,245.67Zm2.91-.94c-1.31.13-2.11.31-2.11.93,0,.4.29.64.81.64s1.3-.31,1.3-1.45Z"/>
      <path class="cls-3" d="M309.77,241v5.17H311v.63h-3.18v-.63H309v-4.54h-1.22V241Z"/>
      <path class="cls-3" d="M315,242.49v3.67h1.22v.63H313v-.63h1.22v-3H313v-.63Zm0-1.5v.88h-.73V241Z"/>
      <path class="cls-3" d="M318,246.16l2.61-3h-2.46v-.63h3.36v.63l-2.62,3h2.66v.63H318Z"/>
      <path class="cls-3" d="M323.05,245.67c0-1,1.08-1.33,2.84-1.53V244a.85.85,0,0,0-1-1,.89.89,0,0,0-1,.86h-.75a1.65,1.65,0,0,1,1.78-1.45c1.19,0,1.71.53,1.69,1.72v1a15.07,15.07,0,0,0,.06,1.62H326v-.63a1.57,1.57,0,0,1-1.51.73A1.25,1.25,0,0,1,323.05,245.67Zm2.9-.94c-1.31.13-2.11.31-2.11.93,0,.4.29.64.81.64s1.3-.31,1.3-1.45Z"/>
      <path class="cls-3" d="M329,241.41h.73v1.08h1.76v.63h-1.76v2.49c0,.44,0,.55.44.55h1.32v.63h-1.48c-.79,0-1-.18-1-1.08v-2.59h-1.23v-.63H329Z"/>
      <path class="cls-3" d="M335.65,242.49v3.67h1.23v.63H333.7v-.63h1.22v-3H333.7v-.63Zm0-1.5v.88h-.73V241Z"/>
      <path class="cls-3" d="M340.38,242.42a2.25,2.25,0,1,1-2,2.24A2,2,0,0,1,340.38,242.42Zm0,3.86c.66,0,1.22-.48,1.22-1.62S341,243,340.38,243s-1.21.48-1.21,1.63S339.73,246.28,340.38,246.28Z"/>
      <path class="cls-3" d="M344.61,243.1a1.36,1.36,0,0,1,1.27-.68c1,0,1.35.69,1.35,1.64v2.73h-.74v-2.48c0-.69-.05-1.27-.85-1.27s-1,.5-1,1.42v2.33h-.73v-4.3h.73Z"/>
    </g>
    <g>
      <path class="cls-3" d="M215.11,222.25a1.7,1.7,0,0,1,1.91-1.59,1.8,1.8,0,0,1,1.92,1.63h-.75a1.11,1.11,0,0,0-1.21-.93c-.53,0-1.08.27-1.08.87s.37.76.84.86l.57.13c.94.21,1.75.61,1.75,1.72a1.75,1.75,0,0,1-2,1.72,2,2,0,0,1-2.09-1.91h.75a1.28,1.28,0,0,0,1.37,1.21,1,1,0,0,0,1.16-1c0-.6-.45-.87-1.08-1l-.63-.15A1.65,1.65,0,0,1,215.11,222.25Z"/>
      <path class="cls-3" d="M220.28,224.43a2,2,0,0,1,1.95-2.25c1.26,0,2,.92,1.92,2.45h-3.09c0,.87.48,1.43,1.16,1.43a1,1,0,0,0,1.11-.79h.76a1.77,1.77,0,0,1-1.86,1.39C220.93,226.66,220.28,225.7,220.28,224.43Zm.78-.4h2.31a1.1,1.1,0,0,0-1.14-1.24C221.54,222.79,221.1,223.19,221.06,224Z"/>
      <path class="cls-3" d="M227.42,222.26V223a1.22,1.22,0,0,1,1.15-.77h.74v.67h-.73c-.82,0-1.14.54-1.14,1.49v1.51h1.47v.63h-3.42v-.63h1.21v-3h-1.22v-.63Z"/>
      <path class="cls-3" d="M232.58,225.55l1.1-3.29h.77l-1.55,4.3h-.71l-1.55-4.3h.82Z"/>
      <path class="cls-3" d="M235.78,224.43a2,2,0,0,1,2-2.25c1.25,0,2,.92,1.91,2.45h-3.09c0,.87.48,1.43,1.16,1.43a1,1,0,0,0,1.11-.79h.76a1.77,1.77,0,0,1-1.85,1.39C236.43,226.66,235.78,225.7,235.78,224.43Zm.79-.4h2.3a1.1,1.1,0,0,0-1.13-1.24C237,222.79,236.6,223.19,236.57,224Z"/>
      <path class="cls-3" d="M242.93,222.26V223a1.21,1.21,0,0,1,1.15-.77h.73v.67h-.72c-.83,0-1.15.54-1.15,1.49v1.51h1.47v.63H241v-.63h1.22v-3H241v-.63Z"/>
      <path class="cls-3" d="M248.94,223.43c-.1-.48-.48-.64-1-.64s-.87.17-.87.56.23.48.65.57l.48.1c.74.14,1.54.42,1.54,1.29s-.78,1.35-1.72,1.35a1.62,1.62,0,0,1-1.76-1.39h.78a.9.9,0,0,0,1,.79c.46,0,1-.16,1-.67s-.36-.6-.9-.69l-.54-.11c-.68-.13-1.22-.47-1.22-1.21s.91-1.19,1.63-1.19a1.58,1.58,0,0,1,1.69,1.24Z"/>
    </g>
    <g>
      <path class="cls-3" d="M355.17,208.25c1.65,0,3,.68,3,2.9s-1.33,2.9-3,2.9h-1v-5.8Zm0,.72h-.21v4.36h.21c1.08,0,2.22-.21,2.22-2.18S356.23,209,355.15,209Z"/>
      <path class="cls-3" d="M359.35,212.93c0-1,1.09-1.33,2.85-1.52v-.19a.85.85,0,0,0-1-1c-.67,0-1,.33-1,.86h-.76a1.66,1.66,0,0,1,1.79-1.45c1.19,0,1.7.53,1.68,1.72v1.05c0,.72,0,1.33.05,1.62h-.7v-.63a1.57,1.57,0,0,1-1.51.74A1.26,1.26,0,0,1,359.35,212.93Zm2.9-.94c-1.31.13-2.11.31-2.11.93,0,.4.3.64.82.64s1.29-.31,1.29-1.45Z"/>
      <path class="cls-3" d="M365.34,208.67h.74v1.08h1.75v.63h-1.75v2.49c0,.44,0,.55.43.55h1.32v.63h-1.48c-.79,0-1-.18-1-1.08v-2.59h-1.22v-.63h1.22Z"/>
      <path class="cls-3" d="M369.69,212.93c0-1,1.08-1.33,2.84-1.52v-.19a.85.85,0,0,0-1-1,.89.89,0,0,0-1,.86h-.75a1.65,1.65,0,0,1,1.78-1.45c1.19,0,1.71.53,1.69,1.72v1.05a15.07,15.07,0,0,0,.06,1.62h-.71v-.63a1.6,1.6,0,0,1-1.52.74A1.25,1.25,0,0,1,369.69,212.93Zm2.9-.94c-1.31.13-2.11.31-2.11.93,0,.4.29.64.81.64s1.3-.31,1.3-1.45Z"/>
      <path class="cls-3" d="M382.74,210.93c-.1-.48-.47-.64-1-.64s-.86.16-.86.55.22.49.64.57l.48.1c.75.14,1.55.42,1.55,1.29s-.79,1.36-1.72,1.36a1.63,1.63,0,0,1-1.76-1.4h.77a.9.9,0,0,0,1,.79c.46,0,1-.16,1-.67s-.36-.59-.9-.69l-.54-.11c-.68-.13-1.21-.47-1.21-1.21s.9-1.19,1.62-1.19a1.59,1.59,0,0,1,1.7,1.25Z"/>
      <path class="cls-3" d="M386,208.67h.74v1.08h1.76v.63h-1.76v2.49c0,.44,0,.55.43.55h1.33v.63H387c-.78,0-1-.18-1-1.08v-2.59h-1.22v-.63H386Z"/>
      <path class="cls-3" d="M392.19,209.68a2.26,2.26,0,1,1-2,2.24A2,2,0,0,1,392.19,209.68Zm0,3.86c.65,0,1.21-.48,1.21-1.62s-.56-1.63-1.21-1.63-1.22.48-1.22,1.63S391.53,213.54,392.19,213.54Z"/>
      <path class="cls-3" d="M397.4,209.75v.77a1.23,1.23,0,0,1,1.16-.77h.73v.67h-.73c-.82,0-1.14.55-1.14,1.49v1.51h1.47v.63h-3.42v-.63h1.21v-3h-1.22v-.63Z"/>
      <path class="cls-3" d="M400.69,212.93c0-1,1.09-1.33,2.85-1.52v-.19a.85.85,0,0,0-1-1,.89.89,0,0,0-1,.86h-.75a1.64,1.64,0,0,1,1.78-1.45c1.19,0,1.7.53,1.69,1.72v1.05a15.07,15.07,0,0,0,.06,1.62h-.71v-.63a1.57,1.57,0,0,1-1.51.74A1.26,1.26,0,0,1,400.69,212.93Zm2.91-.94c-1.32.13-2.12.31-2.12.93,0,.4.3.64.82.64s1.3-.31,1.3-1.45Z"/>
      <path class="cls-3" d="M408.68,209.75h.73v3.77c0,.88-.11,1.24-.34,1.51a2,2,0,0,1-1.51.56,1.54,1.54,0,0,1-1.72-1.29h.77a.84.84,0,0,0,1,.66,1.18,1.18,0,0,0,.88-.32c.15-.17.23-.37.23-1v-.41a1.38,1.38,0,0,1-1.28.71c-1,0-1.73-.73-1.73-2.15s.74-2.15,1.73-2.15a1.37,1.37,0,0,1,1.28.72Zm-1.12.54c-.74,0-1.12.52-1.12,1.54s.38,1.54,1.12,1.54,1.15-.41,1.15-1.54S408.17,210.29,407.56,210.29Z"/>
      <path class="cls-3" d="M410.93,211.92a2,2,0,0,1,1.95-2.25c1.26,0,2,.92,1.92,2.45h-3.09c0,.87.48,1.44,1.16,1.44a1,1,0,0,0,1.11-.8h.76a1.78,1.78,0,0,1-1.86,1.4C411.58,214.16,410.93,213.19,410.93,211.92Zm.79-.4H414a1.1,1.1,0,0,0-1.14-1.24C412.19,210.28,411.75,210.69,411.72,211.52Z"/>
    </g>
    <g>
      <path class="cls-3" d="M156.83,303.39a.53.53,0,0,1-.4-.19.5.5,0,0,1,.08-.7L202,266.2a.5.5,0,0,1,.7.08.49.49,0,0,1-.08.7l-45.45,36.3A.56.56,0,0,1,156.83,303.39Z"/>
      <path class="cls-3" d="M200.63,281.85h-.06a.51.51,0,0,1-.44-.56l1.6-14.25-14.26-1.6a.5.5,0,0,1,.11-1l14.76,1.66a.5.5,0,0,1,.44.55l-1.65,14.76A.51.51,0,0,1,200.63,281.85Z"/>
      <path class="cls-3" d="M171.32,305.25h0l-14.76-1.66a.5.5,0,0,1-.44-.55l1.65-14.76a.51.51,0,0,1,.56-.44.5.5,0,0,1,.44.55l-1.6,14.26,14.26,1.6a.5.5,0,0,1-.06,1Z"/>
    </g>
    <g>
      <path class="cls-3" d="M211.9,132.29a.49.49,0,0,1-.3-.1L164.91,97.5a.5.5,0,0,1,.6-.81l46.69,34.7a.5.5,0,0,1-.3.9Z"/>
      <path class="cls-3" d="M197.21,134.46a.5.5,0,0,1-.07-1l14.19-2.09-2.09-14.2a.5.5,0,0,1,.42-.56.49.49,0,0,1,.57.42l2.17,14.69a.5.5,0,0,1-.1.37.48.48,0,0,1-.33.2l-14.69,2.16Z"/>
      <path class="cls-3" d="M167.11,112.09a.5.5,0,0,1-.49-.43L164.45,97a.5.5,0,0,1,.1-.37.46.46,0,0,1,.32-.2l14.69-2.16a.49.49,0,0,1,.57.42.51.51,0,0,1-.42.57l-14.2,2.09,2.1,14.2a.5.5,0,0,1-.42.56Z"/>
    </g>
    <g>
      <path class="cls-3" d="M465,294.39a.53.53,0,0,1-.31-.11L419.25,258a.49.49,0,0,1-.07-.7.5.5,0,0,1,.7-.08l45.46,36.3a.5.5,0,0,1,.08.7A.53.53,0,0,1,465,294.39Z"/>
      <path class="cls-3" d="M421.22,272.85a.51.51,0,0,1-.5-.44l-1.65-14.76a.5.5,0,0,1,.44-.55l14.76-1.66a.5.5,0,0,1,.11,1L420.12,258l1.6,14.25a.51.51,0,0,1-.44.56Z"/>
      <path class="cls-3" d="M450.52,296.25a.5.5,0,0,1-.49-.45.5.5,0,0,1,.44-.55l14.26-1.6-1.6-14.26a.5.5,0,0,1,.44-.55.52.52,0,0,1,.56.44L465.78,294a.5.5,0,0,1-.44.55l-14.76,1.66Z"/>
    </g>
    <g>
      <path class="cls-3" d="M419,132.29a.48.48,0,0,1-.4-.2.5.5,0,0,1,.1-.7l46.69-34.7a.5.5,0,0,1,.59.81l-46.68,34.69A.49.49,0,0,1,419,132.29Z"/>
      <path class="cls-3" d="M433.64,134.46h-.08l-14.69-2.16a.51.51,0,0,1-.42-.57L420.62,117a.49.49,0,0,1,.57-.42.5.5,0,0,1,.42.56l-2.1,14.2,14.2,2.09a.51.51,0,0,1,.42.57A.5.5,0,0,1,433.64,134.46Z"/>
      <path class="cls-3" d="M463.74,112.09h-.08a.5.5,0,0,1-.42-.56l2.09-14.2-14.19-2.09a.51.51,0,0,1-.42-.57.5.5,0,0,1,.56-.42L466,96.4a.51.51,0,0,1,.43.57l-2.17,14.69A.5.5,0,0,1,463.74,112.09Z"/>
    </g>
  </g>
</svg>
