<svg xmlns="http://www.w3.org/2000/svg" xmlns:xlink="http://www.w3.org/1999/xlink" viewBox="0 0 640 420">
  <defs>
    <style>
      .cls-1 {
        fill: none;
      }

      .cls-2 {
        fill: #fff3ff;
      }

      .cls-3 {
        fill: #10162f;
      }

      .cls-4 {
        fill: #fff4ff;
      }

      .cls-5 {
        fill: #ffd200;
      }

      .cls-6 {
        fill: #fff;
      }

      .cls-7 {
        fill: #fdf9e6;
      }

      .cls-8 {
        fill: #221f20;
      }

      .cls-9 {
        fill: #66c3ff;
      }

      .cls-10 {
        fill: #fcf5fd;
      }

      .cls-11 {
        clip-path: url(#clip-path);
      }

      .cls-12 {
        clip-path: url(#clip-path-2);
      }

      .cls-13 {
        fill: #a7775b;
      }

      .cls-14 {
        clip-path: url(#clip-path-3);
      }

      .cls-15 {
        clip-path: url(#clip-path-4);
      }

      .cls-16 {
        fill: #f866ff;
      }

      .cls-17 {
        fill: #fff9e4;
      }

      .cls-18 {
        fill: #fdf6fe;
      }
    </style>
    <clipPath id="clip-path">
      <path class="cls-1" d="M498.42,304.15c-.53-.23-1.25-1-2-1.19a7.36,7.36,0,0,0-1.55-.17,11.53,11.53,0,0,0-1.94.31c-.75.16-1.09.8-1.62,1a4.6,4.6,0,0,0,3.56,2.25A3.69,3.69,0,0,0,498.42,304.15Z"/>
    </clipPath>
    <clipPath id="clip-path-2">
      <path class="cls-1" d="M509.43,304.15c-.53-.23-1.24-1-2-1.19a7.36,7.36,0,0,0-1.55-.17,11.3,11.3,0,0,0-1.92.31c-.77.16-1.11.8-1.63,1a4.58,4.58,0,0,0,3.55,2.25A3.65,3.65,0,0,0,509.43,304.15Z"/>
    </clipPath>
    <clipPath id="clip-path-3">
      <path class="cls-1" d="M550.9,300.78a10.6,10.6,0,0,1,2.13-.69,8.45,8.45,0,0,1,3.47,0,9.92,9.92,0,0,1,2.12.69,5,5,0,0,1-3.86,2.44A4,4,0,0,1,550.9,300.78Z"/>
    </clipPath>
    <clipPath id="clip-path-4">
      <path class="cls-1" d="M562.8,300.78a10.51,10.51,0,0,1,2.12-.69,8.5,8.5,0,0,1,3.48,0,9.92,9.92,0,0,1,2.12.69,5,5,0,0,1-3.86,2.44A4,4,0,0,1,562.8,300.78Z"/>
    </clipPath>
  </defs>
  <g id="BG">
    <g>
      <rect class="cls-2" x="0.75" y="0.11" width="639" height="419"/>
      <path class="cls-3" d="M639.25.61v418H1.25V.61h638m1-1H.25v420h640V-.39Z"/>
    </g>
  </g>
  <g id="Layer_1" data-name="Layer 1">
    <g>
      <path class="cls-3" d="M513.44,154.73a1.7,1.7,0,0,1,1.91-1.59,1.79,1.79,0,0,1,1.92,1.63h-.75a1.1,1.1,0,0,0-1.21-.93c-.53,0-1.08.26-1.08.86s.37.76.84.87l.57.13c.94.2,1.75.61,1.75,1.71a1.76,1.76,0,0,1-1.95,1.73,2,2,0,0,1-2.1-1.91h.75a1.28,1.28,0,0,0,1.37,1.21,1,1,0,0,0,1.17-1c0-.6-.46-.87-1.09-1l-.63-.15A1.64,1.64,0,0,1,513.44,154.73Z"/>
      <path class="cls-3" d="M521.61,154.66c.45,0,.89.21.89,1.35v3h-.74v-2.66c0-.62,0-1.1-.37-1.1s-.47.43-.47,1.32V159h-.74v-2.66c0-.62,0-1.1-.36-1.1s-.49.44-.49,1.33V159h-.73v-4.3h.7v.45a.85.85,0,0,1,.78-.53.67.67,0,0,1,.67.55A1,1,0,0,1,521.61,154.66Z"/>
      <path class="cls-3" d="M523.88,157.92c0-1,1.08-1.34,2.84-1.53v-.18c0-.75-.4-1-1-1a.89.89,0,0,0-1,.85H524a1.65,1.65,0,0,1,1.78-1.44c1.2,0,1.71.52,1.69,1.72v1a15.29,15.29,0,0,0,.06,1.63h-.71v-.63a1.59,1.59,0,0,1-1.51.73A1.26,1.26,0,0,1,523.88,157.92Zm2.9-.95c-1.31.13-2.11.32-2.11.93,0,.41.29.65.81.65s1.3-.31,1.3-1.46Z"/>
      <path class="cls-3" d="M530.92,154.74v.76a1.22,1.22,0,0,1,1.15-.76h.74v.67h-.73c-.82,0-1.14.54-1.14,1.48v1.52h1.47V159H529v-.63h1.21v-3H529v-.63Z"/>
      <path class="cls-3" d="M535,153.66h.73v1.08h1.76v.63h-1.76v2.48c0,.44,0,.56.43.56h1.33V159H536c-.78,0-1-.19-1-1.08v-2.59h-1.23v-.63H535Z"/>
      <path class="cls-3" d="M541.55,155.6l.64,2.32.44-3.18h.74l-.72,4.3h-.74l-.71-2.6-.7,2.6h-.74l-.72-4.3h.75l.43,3.18.64-2.32Z"/>
      <path class="cls-3" d="M544.55,157.92c0-1,1.09-1.34,2.84-1.53v-.18c0-.75-.4-1-1-1a.89.89,0,0,0-1,.85h-.75a1.65,1.65,0,0,1,1.79-1.44c1.19,0,1.7.52,1.68,1.72v1c0,.72,0,1.34.06,1.63h-.7v-.63a1.59,1.59,0,0,1-1.51.73A1.26,1.26,0,0,1,544.55,157.92Zm2.9-.95c-1.31.13-2.11.32-2.11.93,0,.41.3.65.82.65s1.29-.31,1.29-1.46Z"/>
      <path class="cls-3" d="M550.54,153.66h.74v1.08H553v.63h-1.75v2.48c0,.44,0,.56.43.56H553V159h-1.48c-.79,0-1-.19-1-1.08v-2.59h-1.22v-.63h1.22Z"/>
      <path class="cls-3" d="M558.52,156.17h-.74a1,1,0,0,0-1-.9c-.64,0-1.16.55-1.16,1.63s.52,1.64,1.16,1.64a1.06,1.06,0,0,0,1-.89h.76a1.79,1.79,0,0,1-1.85,1.49c-1.19,0-1.9-.93-1.9-2.24a2,2,0,0,1,2-2.24A1.68,1.68,0,0,1,558.52,156.17Z"/>
      <path class="cls-3" d="M563.56,156.3V159h-.73v-2.48c0-.7-.05-1.28-.85-1.28s-1,.5-1,1.42V159h-.74v-5.8H561v2.1a1.38,1.38,0,0,1,1.27-.68C563.26,154.66,563.56,155.35,563.56,156.3Z"/>
    </g>
    <g>
      <g>
        <rect class="cls-4" x="36.96" y="284.11" width="85.76" height="52.71" rx="0.74"/>
        <path class="cls-3" d="M122,284.61a.24.24,0,0,1,.24.24v51.23a.24.24,0,0,1-.24.24H37.7a.24.24,0,0,1-.24-.24V284.85a.24.24,0,0,1,.24-.24H122m0-1H37.7a1.24,1.24,0,0,0-1.24,1.24v51.23a1.25,1.25,0,0,0,1.24,1.24H122a1.24,1.24,0,0,0,1.24-1.24V284.85a1.23,1.23,0,0,0-1.24-1.24Z"/>
      </g>
      <g>
        <path class="cls-3" d="M143.44,359.52H63.49a8.88,8.88,0,0,1-5.76-2.12L38,339.9c-.62-.54-2.06-1-1-3.1l86.24,1.55,21.31,18.2A1.68,1.68,0,0,1,143.44,359.52Z"/>
        <path class="cls-3" d="M143.44,360H63.49a9.33,9.33,0,0,1-6.08-2.24L37.68,340.27c-.08-.07-.19-.14-.3-.22-.67-.47-1.91-1.35-.85-3.47l.14-.29H37l86.42,1.55.14.12,21.31,18.2a2.19,2.19,0,0,1-1.42,3.85ZM37.3,337.31c-.47,1.12,0,1.48.66,1.92a4.18,4.18,0,0,1,.38.29L58.07,357a8.37,8.37,0,0,0,5.42,2h79.95a1.16,1.16,0,0,0,1.11-.77,1.18,1.18,0,0,0-.34-1.32L123,338.85Z"/>
      </g>
      <g>
        <path class="cls-4" d="M64.52,357a8.37,8.37,0,0,1-5.43-2L37.82,336.78H123l21.17,18.09a1.19,1.19,0,0,1-.77,2.09Z"/>
        <path class="cls-3" d="M122.85,337.28l21,18a.69.69,0,0,1-.45,1.21H64.52a7.83,7.83,0,0,1-5.1-1.89L39.17,337.28h83.68m.37-1H36.46l22.31,19.06a8.89,8.89,0,0,0,5.75,2.12h78.92a1.68,1.68,0,0,0,1.09-3l-21.31-18.21Z"/>
      </g>
      <g>
        <rect class="cls-4" x="41.68" y="287.96" width="76.32" height="45"/>
        <path class="cls-3" d="M117.5,288.46v44H42.18v-44H117.5m1-1H41.18v46H118.5v-46Z"/>
      </g>
      <g>
        <path class="cls-4" d="M56.9,344.77a7.38,7.38,0,0,1-3.09-.94l-.06,0-5.51-4.05h72.23l5,4.65a2,2,0,0,1-.37,0Z"/>
        <path class="cls-3" d="M120.26,340.26l4,3.69-67.36.32a6.93,6.93,0,0,1-2.88-.89h0l-4.24-3.12h70.49m.09-1H48.06c-.74,0-1,.53-.36.73l5.79,4.25a9.17,9.17,0,0,0,3.41,1l68.24-.32c1.16,0,1.69-.53.81-.8l-5.24-4.84a1.36,1.36,0,0,0-.36-.05Z"/>
      </g>
      <g>
        <path class="cls-4" d="M89.13,353.76a3.67,3.67,0,0,1-2.49-1l-3.24-3a1.48,1.48,0,0,1-.45-1.54,1.14,1.14,0,0,1,1.15-.62H106a1.91,1.91,0,0,1,1.29.51l3.38,3.12a1.51,1.51,0,0,1,.36,1.65,1.24,1.24,0,0,1-1.17.85Z"/>
        <path class="cls-3" d="M106,348.13a1.38,1.38,0,0,1,1,.38l3.38,3.12a1,1,0,0,1,.23,1.1.77.77,0,0,1-.7.53H89.13A3.16,3.16,0,0,1,87,352.4l-3.21-2.95a1,1,0,0,1-.35-1c.11-.27.47-.31.68-.31H106m0-1H84.1c-1.79,0-2.27,1.79-1,3l3.23,3a4.2,4.2,0,0,0,2.83,1.12h20.69a1.94,1.94,0,0,0,1.15-3.37l-3.38-3.12a2.44,2.44,0,0,0-1.63-.64Z"/>
      </g>
    </g>
    <g>
      <path class="cls-5" d="M527.2,315.85c0-4.46,2.49-9.1,1.5-13.07-1.1-4.37-5.55-7.2-7.62-10.67-2.34-3.92-3-9.2-6.29-11.52-3.6-2.55-8.55-1.2-12.85-1.2s-9.26-1.36-12.86,1.2c-3.27,2.32-3.95,7.6-6.29,11.52-2.07,3.46-6.53,6.3-7.62,10.67-1,4,1.5,8.61,1.5,13.07,0,2.55-3.8,7.95-3.48,13.85.23,4.41,3.94,8.39,6.05,12.55,1.95,3.85,3,9.31,7.73,11.46,3.49,1.59,8.54-.41,14.09-.41s10.72,2.06,14.33.52c4.92-2.1,6.23-7.54,8.39-11.31,2.4-4.2,6.25-8.05,6.6-12.52C530.88,324.05,527.2,318.53,527.2,315.85Z"/>
      <path class="cls-3" d="M512.11,354.89a35.49,35.49,0,0,1-4.94-.5,32.17,32.17,0,0,0-12.11,0c-3.22.46-6,.85-8.3-.19-3.79-1.73-5.33-5.49-6.69-8.81-.43-1-.82-2-1.27-2.89-.65-1.28-1.48-2.57-2.28-3.83-1.8-2.83-3.67-5.75-3.83-8.92-.2-3.75,1.18-7.23,2.3-10a13.43,13.43,0,0,0,1.18-3.85,24.81,24.81,0,0,0-.88-5.59c-.59-2.56-1.21-5.2-.6-7.61.7-2.81,2.69-5,4.62-7a24.62,24.62,0,0,0,3.05-3.75,32,32,0,0,0,2.09-4.6c1.11-2.84,2.15-5.52,4.34-7.07,2.83-2,6.37-1.73,9.79-1.46a41.63,41.63,0,0,0,6.7,0c3.43-.27,7-.54,9.8,1.46,2.2,1.55,3.24,4.23,4.35,7.07a30.89,30.89,0,0,0,2.08,4.6,24.2,24.2,0,0,0,3,3.76c1.93,2.08,3.92,4.23,4.63,7.05.6,2.4,0,5-.61,7.6a25.39,25.39,0,0,0-.88,5.59,14.23,14.23,0,0,0,1.12,3.94c1.06,2.87,2.38,6.43,2.06,10.24-.26,3.26-2.29,6.2-4.26,9.05-.83,1.2-1.69,2.44-2.4,3.68-.51.89-1,1.87-1.46,2.9-1.53,3.26-3.27,6.95-7.18,8.62A8.74,8.74,0,0,1,512.11,354.89Zm-11.05-2.09a41.92,41.92,0,0,1,6.26.6c3.1.46,5.78.85,7.87,0,3.56-1.52,5.14-4.87,6.66-8.12.5-1.06,1-2.05,1.5-3,.73-1.28,1.6-2.54,2.44-3.75,2-2.86,3.86-5.57,4.09-8.56.3-3.59-1-7-2-9.81a14.28,14.28,0,0,1-1.18-4.29,26.21,26.21,0,0,1,.9-5.82c.6-2.55,1.16-5,.62-7.13-.65-2.56-2.55-4.62-4.39-6.61a24.15,24.15,0,0,1-3.18-3.93,31.59,31.59,0,0,1-2.15-4.74c-1-2.7-2-5.24-4-6.62-2.53-1.79-5.89-1.53-9.14-1.29-1.13.09-2.31.18-3.42.18s-2.3-.09-3.43-.18c-3.25-.25-6.61-.51-9.14,1.29-1.94,1.37-2.94,3.92-4,6.61a32.31,32.31,0,0,1-2.16,4.75,24.44,24.44,0,0,1-3.17,3.92c-1.85,2-3.75,4.05-4.39,6.62-.55,2.17,0,4.58.61,7.13a26.3,26.3,0,0,1,.9,5.82,13.19,13.19,0,0,1-1.26,4.22c-1.07,2.7-2.41,6.06-2.22,9.6.15,2.9,1.94,5.71,3.68,8.44.81,1.27,1.65,2.59,2.32,3.91.47.93.87,1.92,1.3,3,1.35,3.3,2.75,6.71,6.19,8.28,2,.92,4.68.54,7.74.11A42.81,42.81,0,0,1,501.06,352.8Z"/>
      <g>
        <polyline class="cls-6" points="514.31 314.43 514.76 330.6 492.85 333.29 495.15 320.83"/>
        <polygon class="cls-3" points="492.23 333.87 494.66 320.74 495.64 320.92 493.46 332.71 514.25 330.16 513.81 314.44 514.81 314.41 515.28 331.04 492.23 333.87"/>
      </g>
      <g>
        <path class="cls-6" d="M512,313.13a6.53,6.53,0,0,1-.35-4.68c.49-1.55,1.56-2.89,2-4.48a9.24,9.24,0,0,0-.27-4.58,3.76,3.76,0,0,0-1-2,3.24,3.24,0,0,0-3-.37,20.67,20.67,0,0,1-3,.92,5.34,5.34,0,0,1-3.74-1.09,9.29,9.29,0,0,1-2.54-3,3.11,3.11,0,0,1-2.28,2.71,5.37,5.37,0,0,1-3.68-.36,1.15,1.15,0,0,1-.56-.38,1.25,1.25,0,0,1-.16-.57c-.19-1.53-2.64-2.22-2.95-1.58a19,19,0,0,0-1.54,3.6,28.86,28.86,0,0,0-1,8.63v.43a31.78,31.78,0,0,0,3.14,12.52c1.16,2.4,2.75,4.68,5.11,5.85a12.59,12.59,0,0,0,5.45,1c2.66,0,5.44-.27,7.64-1.76,2.69-1.79,4-5,5.2-8A6.45,6.45,0,0,1,512,313.13Z"/>
        <path class="cls-3" d="M501.14,326.27A13.19,13.19,0,0,1,496,325.2c-2.14-1.06-3.89-3.05-5.36-6.09a32.27,32.27,0,0,1-3.19-12.71v-.46a29.12,29.12,0,0,1,1-8.76,19.9,19.9,0,0,1,1.58-3.71c.2-.4.72-.58,1.42-.46a2.86,2.86,0,0,1,2.46,2.22.9.9,0,0,0,.11.39.84.84,0,0,0,.28.15,5.08,5.08,0,0,0,3.4.35,2.62,2.62,0,0,0,1.9-2.27l.15-1.65.79,1.46a8.66,8.66,0,0,0,2.41,2.84,4.81,4.81,0,0,0,3.38,1,19.15,19.15,0,0,0,2.86-.89,3.68,3.68,0,0,1,3.51.46,4.21,4.21,0,0,1,1.16,2.26,9.68,9.68,0,0,1,.27,4.76,12,12,0,0,1-1.07,2.54,12.16,12.16,0,0,0-.91,2,6.06,6.06,0,0,0,.33,4.31h0a5.85,5.85,0,0,0,2.3,2.62l.35.22-.15.39c-1.11,2.82-2.49,6.33-5.39,8.27-2.41,1.63-5.5,1.84-7.92,1.84ZM491,294a.36.36,0,0,0-.18,0,20.5,20.5,0,0,0-1.45,3.46,28,28,0,0,0-.94,8.46v.45a31.16,31.16,0,0,0,3.09,12.3c1.37,2.84,3,4.68,4.88,5.62a12.05,12.05,0,0,0,5.21,1c2.3,0,5.19-.19,7.38-1.67,2.52-1.68,3.83-4.81,4.87-7.43a6.78,6.78,0,0,1-2.33-2.83,7,7,0,0,1-.37-5,13.27,13.27,0,0,1,1-2.17,10.82,10.82,0,0,0,1-2.29,8.66,8.66,0,0,0-.26-4.31,3.31,3.31,0,0,0-.88-1.77,2.76,2.76,0,0,0-2.49-.23,21.31,21.31,0,0,1-3,.93,5.87,5.87,0,0,1-4.15-1.18,9.63,9.63,0,0,1-2.07-2.16,3.64,3.64,0,0,1-2.32,2,6,6,0,0,1-4-.39,1.68,1.68,0,0,1-.73-.52,1.86,1.86,0,0,1-.27-.86c-.07-.58-.68-.95-.93-1.09A2.19,2.19,0,0,0,491,294Z"/>
      </g>
      <g>
        <path class="cls-7" d="M488.41,311.92v-.1l0-.14Z"/>
        <polygon class="cls-3" points="487.92 312 487.88 311.75 488.86 311.56 488.91 311.92 487.92 312"/>
      </g>
      <path class="cls-8" d="M499.91,293.59c0,.09.08.17.11.26a1.73,1.73,0,0,0,0-.32h0Z"/>
      <path class="cls-3" d="M501.94,313.74a2.89,2.89,0,0,1-.95-.17,2.89,2.89,0,0,1-1.77-3.69c.94-3-.42-6.37-1.77-7.36l.59-.81c1.59,1.17,3.27,4.87,2.12,8.49a1.9,1.9,0,0,0,.08,1.46,1.88,1.88,0,0,0,1.08,1,1.63,1.63,0,0,0,.69.1H503v1h-1Z"/>
      <path class="cls-3" d="M501.21,318.87a7.89,7.89,0,0,1-.84-.05l.1-1a7,7,0,0,0,2.33-.15l.23,1A8,8,0,0,1,501.21,318.87Z"/>
      <g>
        <path class="cls-6" d="M517,308.51a1.83,1.83,0,0,1-.6-1.08c-.25-1.44,1-1.65.73-3.09-.18-1-.88-1.2-1.34-1.8.44-.38.86-.84,1.45-.84C520.61,301.71,519,307.41,517,308.51Z"/>
        <path class="cls-3" d="M516.88,309.12l-.26-.23a2.37,2.37,0,0,1-.77-1.38,2.52,2.52,0,0,1,.44-1.88,1.56,1.56,0,0,0,.3-1.21,1.48,1.48,0,0,0-.67-1,4.4,4.4,0,0,1-.58-.57l-.29-.38.53-.46a2.41,2.41,0,0,1,1.61-.81,2.29,2.29,0,0,1,2.38,1.83c.49,2-.76,5.06-2.39,5.93Zm-.42-6.55a.39.39,0,0,1,.1.08,2.44,2.44,0,0,1,1,1.61,2.52,2.52,0,0,1-.43,1.88,1.55,1.55,0,0,0-.31,1.2,1.42,1.42,0,0,0,.19.51,5.49,5.49,0,0,0,1.57-4.58,1.31,1.31,0,0,0-1.42-1.07A1.22,1.22,0,0,0,516.46,302.57Z"/>
      </g>
      <g>
        <path class="cls-9" d="M517.2,327.25l12.41,6.6a12.69,12.69,0,0,1,4.51,4c2.56,3.72,4.46,11.93,5.67,17,.1.42-.64.15-.55.5h-.52l-67.51,2c1.2-4.57,3.12-15.45,5.9-19.48a12.77,12.77,0,0,1,4.51-4l12.41-6.6"/>
        <path class="cls-3" d="M470.55,357.89l.17-.64c.27-1,.58-2.37.93-3.92,1.2-5.28,2.85-12.53,5.05-15.73a13.53,13.53,0,0,1,4.69-4.17l12.4-6.59.47.88-12.4,6.6a12.24,12.24,0,0,0-4.33,3.85c-2.1,3-3.72,10.18-4.91,15.38-.28,1.26-.53,2.37-.76,3.3l67.06-2a.74.74,0,0,1,.31-.17l0-.14c-1.21-5.12-3.05-12.86-5.5-16.41a12.24,12.24,0,0,0-4.33-3.85l-12.4-6.6.47-.88,12.4,6.59a13.44,13.44,0,0,1,4.69,4.17c2.55,3.7,4.41,11.55,5.64,16.75l.11.42a.68.68,0,0,1-.09.56.67.67,0,0,1-.38.28l.07.28h-1.16ZM539.3,355Z"/>
      </g>
      <g>
        <path class="cls-6" d="M499.3,348.86c-1.38,0-2.89-.17-4.27-.12a6.58,6.58,0,0,0-3.6.82,6.39,6.39,0,0,0-1.73,2.07c-1.14,1.87-2.24,3.76-3.28,5.68h12.9Z"/>
        <path class="cls-3" d="M499.82,357.81H485.58l.4-.73c1-1.86,2.11-3.78,3.29-5.71a7,7,0,0,1,1.85-2.2,7.06,7.06,0,0,1,3.89-.93c.71,0,1.46,0,2.19.06s1.42.08,2.09.06l.51,0Zm-12.56-1h11.55v-7.45c-.55,0-1.11,0-1.66-.06a18.61,18.61,0,0,0-2.1-.06,6.3,6.3,0,0,0-3.33.73,5.92,5.92,0,0,0-1.57,1.9C489.11,353.55,488.15,355.21,487.26,356.81Z"/>
      </g>
      <g>
        <path class="cls-9" d="M536.75,357.31l-39-.08v-11.3h31.42c5.09,0,9.49.37,10.56,5.34l.55,2.57A3.47,3.47,0,0,1,536.75,357.31Z"/>
        <path class="cls-3" d="M536.76,357.81h0l-39.54-.08v-12.3h31.94c5.16,0,9.89.44,11,5.74l.56,2.67a4,4,0,0,1-4,4Zm-38.55-1.07,38.55.07h0a2.94,2.94,0,0,0,2.1-.87,3,3,0,0,0,.88-2.05l-.54-2.51c-1-4.59-5-4.95-10.05-4.95H498.21Z"/>
      </g>
      <g>
        <rect class="cls-10" x="451.25" y="309.74" width="54.72" height="36.46"/>
        <path class="cls-3" d="M506.48,346.69H450.75V309.24h55.73Zm-54.73-1h53.73V310.24H451.75Z"/>
      </g>
      <g>
        <rect class="cls-10" x="474.85" y="334.39" width="7.53" height="21.69"/>
        <path class="cls-3" d="M482.88,356.58h-8.53V333.89h8.53Zm-7.53-1h6.53V334.89h-6.53Z"/>
      </g>
      <g>
        <path class="cls-10" d="M463.52,354.16h30.19a2.25,2.25,0,0,1,2.25,2.25h0v.9h-34.7v-.9a2.26,2.26,0,0,1,2.26-2.25Z"/>
        <path class="cls-3" d="M496.46,357.81h-35.7v-1.4a2.76,2.76,0,0,1,2.76-2.75h30.19a2.75,2.75,0,0,1,2.75,2.75Zm-34.7-1h33.7v-.4a1.75,1.75,0,0,0-1.75-1.75H463.52a1.76,1.76,0,0,0-1.76,1.75Z"/>
      </g>
      <g>
        <circle class="cls-10" cx="478.61" cy="332.05" r="7.9"/>
        <path class="cls-3" d="M478.61,340.45a8.4,8.4,0,1,1,8.4-8.4A8.4,8.4,0,0,1,478.61,340.45Zm0-15.79a7.4,7.4,0,1,0,7.4,7.39A7.39,7.39,0,0,0,478.61,324.66Z"/>
      </g>
      <rect class="cls-3" x="508.97" y="327.02" width="1" height="13.72"/>
      <g>
        <path class="cls-10" d="M510.21,320.81H509l-1.57-7.65a2.16,2.16,0,0,1,2.12-2.65h0a2.18,2.18,0,0,1,2.18,2.17,1.73,1.73,0,0,1-.05.45Z"/>
        <path class="cls-3" d="M510.62,321.31h-2L507,313.26a2.67,2.67,0,0,1,2.61-3.25h0a2.68,2.68,0,0,1,2.67,2.67,2.57,2.57,0,0,1-.06.55Zm-1.2-1h.38l1.4-7.27a1.59,1.59,0,0,0,0-.36,1.67,1.67,0,0,0-1.67-1.67h0a1.67,1.67,0,0,0-1.64,2Z"/>
      </g>
      <g>
        <path class="cls-10" d="M510.41,321.19l-1-.6,2.47-7.39a2.17,2.17,0,0,1,2.71-1.43,2.07,2.07,0,0,1,.46.2h0a2.17,2.17,0,0,1,.53,3.33Z"/>
        <path class="cls-3" d="M510.51,321.83l-1.72-1L511.4,313a2.67,2.67,0,0,1,3.33-1.75,2.53,2.53,0,0,1,.56.25,2.65,2.65,0,0,1,1,3.62,2.81,2.81,0,0,1-.35.48Zm-.51-1.46.31.18,4.88-5.58a2.17,2.17,0,0,0,.23-.3,1.64,1.64,0,0,0,.15-1.26,1.62,1.62,0,0,0-.78-1,1.89,1.89,0,0,0-.36-.16,1.7,1.7,0,0,0-1.27.12,1.67,1.67,0,0,0-.81,1Z"/>
      </g>
      <g>
        <path class="cls-10" d="M510.36,321.61l-.6-1,5.86-5.15a2.15,2.15,0,0,1,3,.12,1.9,1.9,0,0,1,.3.4h0a2.17,2.17,0,0,1-.76,3,2.48,2.48,0,0,1-.44.2Z"/>
        <path class="cls-3" d="M510.14,322.22l-1-1.73,6.17-5.42a2.66,2.66,0,0,1,3.75.15,2.54,2.54,0,0,1,.36.5,2.66,2.66,0,0,1-.94,3.63,2.61,2.61,0,0,1-.54.24Zm.26-1.52.19.31,7-2.37a1.75,1.75,0,0,0,.34-.15,1.68,1.68,0,0,0,.77-1,1.66,1.66,0,0,0-.18-1.25,2.62,2.62,0,0,0-.23-.32,1.62,1.62,0,0,0-1.16-.53,1.58,1.58,0,0,0-1.19.44Z"/>
      </g>
      <g>
        <path class="cls-10" d="M510.12,322v-1.2l7.64-1.53a2.18,2.18,0,0,1,2.59,1.63,2.21,2.21,0,0,1,0,.51h0a2.16,2.16,0,0,1-2.15,2.17,2.61,2.61,0,0,1-.48-.05Z"/>
        <path class="cls-3" d="M518.25,324.05a2.32,2.32,0,0,1-.59-.07l-8-1.6v-2l8-1.61a2.65,2.65,0,0,1,3.16,2,2.26,2.26,0,0,1,.07.63A2.67,2.67,0,0,1,518.25,324.05Zm-7.63-2.49,7.25,1.44a1.63,1.63,0,0,0,2-1.62,1.75,1.75,0,0,0,0-.4,1.67,1.67,0,0,0-2-1.25l-7.25,1.45Z"/>
      </g>
      <g>
        <path class="cls-10" d="M509.73,322.15l.6-1,7.38,2.53a2.2,2.2,0,0,1,1.51,1.92,2.29,2.29,0,0,1-.3,1.25h0a2.17,2.17,0,0,1-3,.79,2.07,2.07,0,0,1-.38-.28Z"/>
        <path class="cls-3" d="M517,328.41a2.59,2.59,0,0,1-1.33-.36,2.69,2.69,0,0,1-.47-.34l-6.15-5.46,1-1.72,7.76,2.65a2.66,2.66,0,0,1,1.48,3.9A2.67,2.67,0,0,1,517,328.41Zm-6.67-6.36,5.54,4.91a2,2,0,0,0,.3.23,1.68,1.68,0,0,0,2.28-.61,1.76,1.76,0,0,0,.23-1,1.7,1.7,0,0,0-1.17-1.47l-7-2.39Z"/>
      </g>
      <g>
        <path class="cls-10" d="M509.31,322.11l1-.6,5.12,5.89a2.22,2.22,0,0,1,.35,2.4,2.18,2.18,0,0,1-.9.93h0a2.15,2.15,0,0,1-2.95-.79,2.44,2.44,0,0,1-.19-.44Z"/>
        <path class="cls-3" d="M513.83,331.52a2.8,2.8,0,0,1-.7-.09,2.63,2.63,0,0,1-1.61-1.24,2.7,2.7,0,0,1-.24-.55l-2.57-7.76,1.73-1,5.39,6.2a2.71,2.71,0,0,1,.42,2.94,2.65,2.65,0,0,1-1.11,1.16A2.62,2.62,0,0,1,513.83,331.52Zm-3.92-9.18,2.32,7a1.39,1.39,0,0,0,.16.35,1.63,1.63,0,0,0,1,.78,1.74,1.74,0,0,0,2-.89,1.7,1.7,0,0,0-.28-1.85l-4.84-5.58Z"/>
      </g>
      <g>
        <path class="cls-10" d="M509,321.86h1.2l1.45,7.68a2.18,2.18,0,0,1-1.65,2.58,2.92,2.92,0,0,1-.5.05h0A2.18,2.18,0,0,1,507.3,330a2.32,2.32,0,0,1,.06-.46Z"/>
        <path class="cls-3" d="M509.49,332.67h0a2.68,2.68,0,0,1-2.65-2.7,3.43,3.43,0,0,1,.07-.56l1.68-8.05h2l1.53,8.09a2.64,2.64,0,0,1-.36,2,2.7,2.7,0,0,1-1.68,1.17A2.62,2.62,0,0,1,509.49,332.67Zm-.12-10.31-1.52,7.26a2.23,2.23,0,0,0-.05.36,1.69,1.69,0,0,0,1.66,1.69,1.69,1.69,0,0,0,1.44-.77,1.62,1.62,0,0,0,.22-1.25l-1.38-7.29Z"/>
      </g>
      <g>
        <path class="cls-10" d="M508.78,321.47l1,.6-2.57,7.36a2.17,2.17,0,0,1-2.72,1.41,1.92,1.92,0,0,1-.46-.21h0a2.15,2.15,0,0,1-.77-3,2.07,2.07,0,0,1,.28-.38Z"/>
        <path class="cls-3" d="M505.15,331.44a2.82,2.82,0,0,1-.8-.12,2.44,2.44,0,0,1-.57-.26,2.67,2.67,0,0,1-.94-3.65,3,3,0,0,1,.34-.46l5.51-6.12,1.71,1-2.71,7.75A2.66,2.66,0,0,1,505.15,331.44Zm3.73-9.33-5,5.51a1.91,1.91,0,0,0-.22.3,1.67,1.67,0,0,0,.59,2.28,2,2,0,0,0,.36.17,1.67,1.67,0,0,0,2.09-1.09l2.45-7Z"/>
      </g>
      <g>
        <path class="cls-10" d="M508.82,321.05l.57,1-5.92,5.08a2.15,2.15,0,0,1-3.33-.57h0a2.17,2.17,0,0,1,1.26-3.13Z"/>
        <path class="cls-3" d="M502,328.21a2.68,2.68,0,0,1-2.56-3.39,2.63,2.63,0,0,1,1.25-1.61,3.25,3.25,0,0,1,.54-.23l7.81-2.53,1,1.74-6.23,5.35A2.7,2.7,0,0,1,502,328.21Zm6.56-6.55-7,2.27a1.52,1.52,0,0,0-.34.15,1.67,1.67,0,0,0-.79,1,1.63,1.63,0,0,0,.16,1.26,1.57,1.57,0,0,0,.72.7,1.68,1.68,0,0,0,1.84-.26l5.61-4.81Z"/>
      </g>
      <g>
        <path class="cls-10" d="M509.07,320.71v1.2l-7.67,1.42a2.21,2.21,0,0,1-2.26-.93,2.26,2.26,0,0,1-.35-1.24h0a2.24,2.24,0,0,1,.68-1.56,2.19,2.19,0,0,1,1.94-.53Z"/>
        <path class="cls-3" d="M501,323.87a2.69,2.69,0,0,1-2.23-1.19,2.71,2.71,0,0,1,.4-3.44,2.65,2.65,0,0,1,2.39-.66l8.05,1.72v2l-8.08,1.5A3.27,3.27,0,0,1,501,323.87Zm0-4.35a1.67,1.67,0,0,0-1.14.45,1.68,1.68,0,0,0,1.49,2.87l7.27-1.35v-.38l-7.26-1.55A1.47,1.47,0,0,0,501,319.52Z"/>
      </g>
      <g>
        <path class="cls-10" d="M509.46,320.53l-.6,1-7.35-2.62A2.17,2.17,0,0,1,500,317a2.11,2.11,0,0,1,.32-1.25h0a2.15,2.15,0,0,1,3-.76,2.55,2.55,0,0,1,.38.29Z"/>
        <path class="cls-3" d="M509.08,322.14l-7.74-2.76a2.66,2.66,0,0,1-1.81-2.37,2.59,2.59,0,0,1,.39-1.54,2.66,2.66,0,0,1,3.64-.93,2.35,2.35,0,0,1,.47.36l6.06,5.54Zm-6.87-7a1.66,1.66,0,0,0-1.43.81,1.61,1.61,0,0,0-.25,1,1.68,1.68,0,0,0,1.14,1.49l7,2.49.18-.3-5.47-5a1.63,1.63,0,0,0-1.14-.46Z"/>
      </g>
      <g>
        <path class="cls-10" d="M509.88,320.57l-1,.57-5-6a2.22,2.22,0,0,1-.31-2.4,2.24,2.24,0,0,1,.91-.92h0a2.15,2.15,0,0,1,3.12,1.28Z"/>
        <path class="cls-3" d="M508.73,321.77l-5.3-6.26a2.65,2.65,0,0,1,.74-4.09A2.66,2.66,0,0,1,508,313l2.47,7.81Zm-3.26-9.68a1.76,1.76,0,0,0-.83.21,1.65,1.65,0,0,0-.45,2.56L509,320.5l.31-.17-2.23-7a1.68,1.68,0,0,0-1.11-1.13A1.49,1.49,0,0,0,505.47,312.09Z"/>
      </g>
      <g>
        <circle class="cls-10" cx="509.59" cy="321.34" r="2.19"/>
        <path class="cls-3" d="M509.59,324a2.69,2.69,0,1,1,2.69-2.69A2.69,2.69,0,0,1,509.59,324Zm0-4.38a1.69,1.69,0,1,0,1.69,1.69A1.69,1.69,0,0,0,509.59,319.65Z"/>
      </g>
      <g>
        <rect class="cls-10" x="502.36" y="339.14" width="14.47" height="18.18"/>
        <path class="cls-3" d="M517.33,357.81H501.86V338.64h15.47Zm-14.47-1h13.47V339.64H502.86Z"/>
      </g>
      <g>
        <path class="cls-5" d="M516.35,299.81c-7,2.65-28.6.72-28-8.93"/>
        <path class="cls-3" d="M508.43,301.38c-6,0-13.23-1.31-17.27-4.29-2.34-1.72-3.45-3.82-3.29-6.24l1,.06c-.13,2.06.85,3.87,2.89,5.38,6,4.41,19.26,5,24.42,3l.35.93A24.43,24.43,0,0,1,508.43,301.38Z"/>
      </g>
      <path class="cls-5" d="M507.19,290.48c5.22,0,9.44,2.17,9.44,4.84s.12,4.73-9.44,4.84c-5.22.06-9.45-5-9.45-7.63S502,290.48,507.19,290.48Z"/>
      <path class="cls-3" d="M498.06,304.43a4.62,4.62,0,0,0-3.88-1.07,4,4,0,0,0-2.44,1l-.86-.51a4.62,4.62,0,0,1,3.17-1.46,5.66,5.66,0,0,1,4.72,1.36Z"/>
      <g class="cls-11">
        <circle class="cls-3" cx="494.84" cy="304.45" r="1.55"/>
      </g>
      <path class="cls-3" d="M509.08,304.43a4.7,4.7,0,0,0-3.9-1.07,4,4,0,0,0-2.43,1l-.86-.51a4.64,4.64,0,0,1,3.16-1.46,5.68,5.68,0,0,1,4.73,1.36Z"/>
      <g class="cls-12">
        <circle class="cls-3" cx="505.87" cy="304.45" r="1.55"/>
      </g>
    </g>
    <g>
      <path class="cls-13" d="M571,289.89a2.39,2.39,0,0,0,.13.28,1.27,1.27,0,0,1,0-.34h0Z"/>
      <path class="cls-3" d="M571.65,292.33l-.95-1.94a3.09,3.09,0,0,1-.14-.32l-.19-.47L572,289l-.29,1a1.09,1.09,0,0,0,0,.2Z"/>
    </g>
    <g>
      <path class="cls-3" d="M497.37,372.24c1.65,0,3,.68,3,2.89s-1.32,2.91-3,2.91h-1v-5.8Zm0,.72h-.21v4.36h.21c1.07,0,2.22-.22,2.22-2.19S498.42,373,497.35,373Z"/>
      <path class="cls-3" d="M501.45,375.9a2,2,0,0,1,1.95-2.24c1.26,0,2,.92,1.92,2.45h-3.09c0,.86.48,1.43,1.15,1.43a1,1,0,0,0,1.12-.79h.76a1.77,1.77,0,0,1-1.86,1.39C502.1,378.14,501.45,377.17,501.45,375.9Zm.78-.4h2.31a1.11,1.11,0,0,0-1.14-1.24C502.71,374.26,502.27,374.67,502.23,375.5Z"/>
      <path class="cls-3" d="M508.58,377l1.1-3.29h.77L508.9,378h-.71l-1.55-4.3h.82Z"/>
      <path class="cls-3" d="M511.79,375.9a2,2,0,0,1,1.95-2.24c1.25,0,2,.92,1.92,2.45h-3.1c0,.86.48,1.43,1.16,1.43a1,1,0,0,0,1.11-.79h.76a1.76,1.76,0,0,1-1.85,1.39C512.43,378.14,511.79,377.17,511.79,375.9Zm.78-.4h2.3a1.1,1.1,0,0,0-1.13-1.24C513,374.26,512.6,374.67,512.57,375.5Z"/>
      <path class="cls-3" d="M519.27,372.24v5.17h1.23V378h-3.18v-.63h1.22v-4.55h-1.22v-.62Z"/>
      <path class="cls-3" d="M524.05,373.66a2.26,2.26,0,1,1-2,2.24A2,2,0,0,1,524.05,373.66Zm0,3.87c.66,0,1.21-.48,1.21-1.63s-.55-1.62-1.21-1.62-1.22.48-1.22,1.62S523.39,377.53,524.05,377.53Z"/>
      <path class="cls-3" d="M528.25,374.38a1.38,1.38,0,0,1,1.27-.72c1,0,1.74.83,1.74,2.24s-.75,2.24-1.74,2.24a1.37,1.37,0,0,1-1.27-.71v2h-.74v-5.7h.74Zm1.12,3.15c.73,0,1.11-.6,1.11-1.63s-.38-1.62-1.11-1.62-1.15.49-1.15,1.62S528.75,377.53,529.37,377.53Z"/>
      <path class="cls-3" d="M532.46,375.9a2,2,0,0,1,1.95-2.24c1.25,0,2,.92,1.92,2.45h-3.1c0,.86.48,1.43,1.16,1.43a1,1,0,0,0,1.11-.79h.76a1.75,1.75,0,0,1-1.85,1.39C533.11,378.14,532.46,377.17,532.46,375.9Zm.78-.4h2.3a1.1,1.1,0,0,0-1.13-1.24C533.71,374.26,533.27,374.67,533.24,375.5Z"/>
      <path class="cls-3" d="M539.6,373.74v.76a1.21,1.21,0,0,1,1.15-.76h.74v.67h-.73c-.82,0-1.14.54-1.14,1.48v1.52h1.47V378h-3.42v-.63h1.21v-3h-1.22v-.63Z"/>
      <path class="cls-3" d="M545.61,374.91c-.1-.48-.47-.64-1-.64s-.86.17-.86.55.22.49.64.58l.48.09c.75.15,1.55.43,1.55,1.29s-.79,1.36-1.72,1.36a1.62,1.62,0,0,1-1.76-1.39h.77a.89.89,0,0,0,1,.78c.46,0,1-.16,1-.66s-.36-.6-.9-.7l-.54-.1c-.68-.14-1.21-.47-1.21-1.22s.9-1.19,1.62-1.19a1.59,1.59,0,0,1,1.7,1.25Z"/>
    </g>
    <g>
      <path class="cls-3" d="M84.72,378.32h2.85V379H84v-5.8h.76Z"/>
      <path class="cls-3" d="M88.88,377.92c0-1,1.09-1.34,2.85-1.53v-.18a.85.85,0,0,0-1-1,.89.89,0,0,0-1,.85H89a1.64,1.64,0,0,1,1.78-1.44c1.19,0,1.7.52,1.69,1.72v1c0,.72,0,1.34,0,1.63h-.7v-.63a1.58,1.58,0,0,1-1.51.73A1.26,1.26,0,0,1,88.88,377.92Zm2.9-.95c-1.31.13-2.11.32-2.11.93,0,.41.3.65.82.65s1.29-.31,1.29-1.46Z"/>
      <path class="cls-3" d="M94.91,375.38a1.38,1.38,0,0,1,1.27-.72c1,0,1.74.83,1.74,2.24s-.74,2.24-1.74,2.24a1.37,1.37,0,0,1-1.27-.71v2h-.73v-5.7h.73ZM96,378.53c.74,0,1.11-.6,1.11-1.63s-.37-1.62-1.11-1.62-1.15.49-1.15,1.62S95.42,378.53,96,378.53Z"/>
      <path class="cls-3" d="M100,373.66h.74v1.08h1.76v.63h-1.76v2.48c0,.44,0,.56.43.56h1.33V379h-1.49c-.78,0-1-.19-1-1.08v-2.59H98.82v-.63H100Z"/>
      <path class="cls-3" d="M106.22,374.66a2.26,2.26,0,1,1-2,2.24A2,2,0,0,1,106.22,374.66Zm0,3.87c.65,0,1.21-.48,1.21-1.63s-.56-1.62-1.21-1.62-1.22.48-1.22,1.62S105.56,378.53,106.22,378.53Z"/>
      <path class="cls-3" d="M110.42,375.38a1.38,1.38,0,0,1,1.27-.72c1,0,1.73.83,1.73,2.24s-.74,2.24-1.73,2.24a1.37,1.37,0,0,1-1.27-.71v2h-.74v-5.7h.74Zm1.12,3.15c.73,0,1.11-.6,1.11-1.63s-.38-1.62-1.11-1.62-1.15.49-1.15,1.62S110.92,378.53,111.54,378.53Z"/>
    </g>
    <g>
      <g>
        <path class="cls-9" d="M545.36,330.18l-12.17,6.47a12.58,12.58,0,0,0-4.42,3.94c-2.52,3.65-4.38,13.25-5.56,18.23-.1.41,1,.49,1,.49l70.42-.33c-1.18-4.48-7.28-14.41-10-18.36a12.49,12.49,0,0,0-4.42-3.94l-12.16-6.47"/>
        <path class="cls-3" d="M524.26,359.81a2,2,0,0,1-1.42-.53.67.67,0,0,1-.12-.58c.18-.76.38-1.64.6-2.59,1.2-5.34,2.86-12.64,5-15.81a13.1,13.1,0,0,1,4.6-4.09l12.16-6.47.47.88-12.16,6.47a12.16,12.16,0,0,0-4.25,3.78c-2.07,3-3.77,10.5-4.89,15.46-.19.86-.38,1.67-.54,2.38a2.16,2.16,0,0,0,.55.1l69.71-.33c-1.49-4.58-7-13.56-9.75-17.58a12.22,12.22,0,0,0-4.24-3.78l-12.17-6.47.47-.88,12.17,6.47a13.16,13.16,0,0,1,4.59,4.09c2.94,4.26,8.91,14.06,10.08,18.52l.16.63Zm-.57-.88Z"/>
      </g>
      <g>
        <path class="cls-13" d="M563.33,344.82c-2.07.07-4.34-.25-6.41-.18-1.87.07-3.86.17-5.39,1.23a21.18,21.18,0,0,0-4,4.49c-1.71,2.79-2,5.63-3.54,8.51h19.32Z"/>
        <path class="cls-3" d="M563.84,359.37H543.18l.4-.74a23.74,23.74,0,0,0,1.58-3.93,21.89,21.89,0,0,1,2-4.61,21.26,21.26,0,0,1,4.09-4.61c1.71-1.19,3.91-1.27,5.68-1.34,1.06,0,2.17,0,3.25.09s2.15.13,3.16.09l.52,0Zm-19-1h18v-13c-.91,0-1.83-.05-2.74-.1s-2.14-.13-3.15-.09c-1.73.07-3.68.14-5.13,1.14a21,21,0,0,0-3.81,4.31,20.5,20.5,0,0,0-1.89,4.43A30.3,30.3,0,0,1,544.84,358.37Z"/>
      </g>
      <g>
        <path class="cls-13" d="M562.37,315.61c-1.11,0-2.34-.13-3.46-.09a5.46,5.46,0,0,0-2.91.66,12,12,0,0,0-2.14,2.42c-.92,1.51-1.07,3-1.91,4.6h10.43Z"/>
        <path class="cls-3" d="M562.88,323.7H551.12l.39-.74a12.24,12.24,0,0,0,.84-2.08,9.59,9.59,0,0,1,3.34-5.09,5.88,5.88,0,0,1,3.21-.77,17.52,17.52,0,0,1,1.77.05c.57,0,1.15.06,1.69.05l.51,0Zm-10.13-1h9.13v-6.58l-1.25-.05a16.13,16.13,0,0,0-1.69-.05,5,5,0,0,0-2.64.57,11.64,11.64,0,0,0-2,2.25,11.14,11.14,0,0,0-1,2.35C553.14,321.68,553,322.19,552.75,322.7Z"/>
      </g>
      <g>
        <path class="cls-9" d="M594,358.89l-31.58-.07V347.11h25.41a8.71,8.71,0,0,1,8.54,6.89l.45,2.08A2.82,2.82,0,0,1,594,358.89Z"/>
        <path class="cls-3" d="M594,359.39h0l-32.08-.07V346.61h25.92a9.27,9.27,0,0,1,9,7.29l.46,2.18a3.33,3.33,0,0,1-3.31,3.31Zm0-1h0a2.29,2.29,0,0,0,1.63-.68,2.33,2.33,0,0,0,.68-1.58l-.44-2a8.27,8.27,0,0,0-8-6.5H562.87v10.72Z"/>
      </g>
      <path class="cls-3" d="M537.28,299.64c0-3.25-1.23-6.76,0-9.61s4.61-4.56,6.83-6.76,3.82-5.61,6.77-6.84,6.34.05,9.61.05,6.77-1.23,9.62-.05,4.55,4.61,6.75,6.84,5.62,3.81,6.84,6.76,0,6.34,0,9.61c0,1.84,2.76,6,2.16,10.33-.44,3.11-3.26,5.52-6,8.15-2,2-4,5.21-8.12,6.2-2.79.65-6.37-.87-10.37-.87s-7.73,1.56-10.61.9c-4.18-1-6.35-4.2-8.52-6.08-3-2.61-6-4.9-6.63-8C534.63,305.9,537.28,301.57,537.28,299.64Z"/>
      <path class="cls-3" d="M552.19,325a7.72,7.72,0,0,1-1.68-.17c-3.32-.76-5.46-2.93-7.18-4.68-.54-.55-1.05-1.08-1.56-1.52L541,318c-2.77-2.37-5.39-4.6-6-7.6s.41-5.93,1.13-8.09a10.61,10.61,0,0,0,.67-2.62,26.71,26.71,0,0,0-.28-3.31c-.28-2.21-.56-4.49.26-6.5s2.73-3.52,4.52-4.89a25.32,25.32,0,0,0,2.43-2,23.68,23.68,0,0,0,2.07-2.47c1.37-1.77,2.78-3.61,4.85-4.47s4.28-.54,6.48-.27a27.2,27.2,0,0,0,3.33.28,26.87,26.87,0,0,0,3.33-.28c2.2-.28,4.48-.56,6.48.27s3.52,2.73,4.9,4.53a27.81,27.81,0,0,0,2,2.42,23.88,23.88,0,0,0,2.48,2.08c1.77,1.36,3.6,2.77,4.46,4.83s.55,4.29.27,6.49a26.87,26.87,0,0,0-.28,3.32,9.4,9.4,0,0,0,.75,2.59c.76,2.08,1.81,4.91,1.4,7.81s-2.89,5.35-5.51,7.8l-.68.65c-.45.43-.9.93-1.38,1.46-1.63,1.81-3.65,4.06-7,4.86a14.54,14.54,0,0,1-5.58-.3,27.62,27.62,0,0,0-4.91-.56,28.63,28.63,0,0,0-5,.57A24.46,24.46,0,0,1,552.19,325Zm1.57-48.59a7.12,7.12,0,0,0-2.74.47c-1.83.76-3.16,2.49-4.44,4.16a19.3,19.3,0,0,1-4.69,4.68c-1.69,1.3-3.44,2.64-4.2,4.49s-.47,3.81-.2,6a28,28,0,0,1,.29,3.43,10.55,10.55,0,0,1-.73,2.93c-.72,2.17-1.61,4.87-1.09,7.59s3,4.78,5.64,7l.82.71c.54.46,1.07,1,1.63,1.57,1.71,1.74,3.65,3.71,6.68,4.41a14.6,14.6,0,0,0,5.36-.33,29.28,29.28,0,0,1,5.14-.59,28.4,28.4,0,0,1,5.09.58,13.6,13.6,0,0,0,5.17.3c3-.72,4.83-2.76,6.45-4.55.49-.55.95-1.06,1.43-1.52l.69-.65c2.48-2.33,4.83-4.53,5.2-7.21s-.58-5.24-1.35-7.32a10,10,0,0,1-.81-2.94,28.33,28.33,0,0,1,.29-3.44c.27-2.17.53-4.22-.2-6s-2.48-3.15-4.15-4.43a24.66,24.66,0,0,1-2.58-2.17,25.73,25.73,0,0,1-2.1-2.52c-1.3-1.69-2.65-3.44-4.49-4.21s-3.81-.47-6-.2a20.67,20.67,0,0,1-6.9,0A26.54,26.54,0,0,0,553.76,276.42Z"/>
      <g>
        <polyline class="cls-13" points="546.74 312.51 546.25 330.07 570.04 332.99 567.54 319.46"/>
        <polygon class="cls-3" points="570.66 333.56 545.74 330.51 546.24 312.5 547.24 312.52 546.76 329.63 569.43 332.41 567.05 319.56 568.03 319.37 570.66 333.56"/>
      </g>
      <g>
        <path class="cls-13" d="M549.32,311.11a7.32,7.32,0,0,0,0-6.14c-.22-.44-.45-.88-.71-1.3a10.85,10.85,0,0,1-.88-1.69,9.67,9.67,0,0,1-.07-5.2,4.48,4.48,0,0,1,1.3-2.87,3.8,3.8,0,0,1,3.25-.28c.38.11.76.24,1.12.37a9.6,9.6,0,0,0,2.22.6,6,6,0,0,0,4.81-2,9,9,0,0,0,1.86-2.56,4.74,4.74,0,0,0,.16.65,3.49,3.49,0,0,0,2,2.21c1.52.66,3.26.14,4.89-.48h0a6.34,6.34,0,0,1,1.22-.36c2.07-.31,3.9,1.7,4.44,3.83a18.19,18.19,0,0,1,.43,3.29c0,.73.1,1.47.21,2.21-.25,2.72-.49,5.44-.74,8.17a46.35,46.35,0,0,1-2.06,5.6c-3.39,7.82-5.73,9.46-12.63,9.46-7.25,0-10-1.92-13.28-9.83-.07-.17-.17-.42-.32-.74A7.35,7.35,0,0,0,549.32,311.11Z"/>
        <path class="cls-3" d="M560.14,325.17c-7.51,0-10.47-2.18-13.74-10.14l0-.1c-.07-.16-.16-.37-.28-.63l-.17-.4.37-.23a6.5,6.5,0,0,0,2.58-8.49,11.6,11.6,0,0,0-.68-1.25,11.16,11.16,0,0,1-.91-1.75,10,10,0,0,1-.11-5.49,5,5,0,0,1,1.49-3.17,4.22,4.22,0,0,1,3.7-.37c.39.11.78.24,1.16.38a9.18,9.18,0,0,0,2.11.58,5.45,5.45,0,0,0,4.37-1.8,8.83,8.83,0,0,0,1.79-2.44l.7-1.42.24,1.56a2.89,2.89,0,0,0,.14.58,3,3,0,0,0,1.68,1.91c1.25.53,2.7.19,4.5-.5l.13,0a7.39,7.39,0,0,1,1.22-.35c2.41-.36,4.43,1.85,5,4.19a18,18,0,0,1,.45,3.4c0,.68.1,1.42.2,2.15v.12c-.25,2.72-.49,5.45-.74,8.17l0,.1a48.13,48.13,0,0,1-2.08,5.67C569.79,323.34,567.34,325.17,560.14,325.17Zm-13-10.88.11.26,0,.1c3.15,7.65,5.67,9.52,12.82,9.52,6.74,0,8.9-1.63,12.17-9.16a46.44,46.44,0,0,0,2-5.5c.24-2.69.48-5.37.73-8.06-.11-.75-.16-1.49-.21-2.19a17.32,17.32,0,0,0-.42-3.21c-.47-1.86-2.08-3.72-3.88-3.45a5.79,5.79,0,0,0-1.1.34l-.15,0c-1.73.65-3.54,1.14-5.17.45a4,4,0,0,1-2.06-2.06,9.84,9.84,0,0,1-1.37,1.65,6.5,6.5,0,0,1-5.19,2.09,10.08,10.08,0,0,1-2.37-.63c-.35-.13-.71-.26-1.08-.37a3.41,3.41,0,0,0-2.81.21,4.1,4.1,0,0,0-1.11,2.56,9.26,9.26,0,0,0,0,4.93,11.09,11.09,0,0,0,.84,1.6c.27.44.51.89.74,1.36a7.76,7.76,0,0,1,0,6.56v0A7.84,7.84,0,0,1,547.17,314.29Z"/>
      </g>
      <g>
        <path class="cls-13" d="M574.85,309.79v-.11l0-.15Z"/>
        <path class="cls-3" d="M575.35,309.88l-1-.09,0-.22a.83.83,0,0,1,.06-.21l1,.25Z"/>
      </g>
      <path class="cls-3" d="M575.66,306.62l-.88-.47c.83-1.61,1.62-3.28,2.33-5a4.66,4.66,0,0,0,.46-1.56,2.34,2.34,0,0,0-1.65-2.29l.3-.95a3.34,3.34,0,0,1,2.34,3.32,5.66,5.66,0,0,1-.54,1.89C577.31,303.29,576.51,305,575.66,306.62Z"/>
      <path class="cls-3" d="M560.17,311.72h-1.11v-1h1a2.06,2.06,0,0,0,.78-.12,2.11,2.11,0,0,0,1.29-2.68c-1.25-3.92.56-7.91,2.28-9.18l.59.81c-1.3,1-3.06,4.47-1.92,8.05a3.1,3.1,0,0,1-1.91,3.94A3,3,0,0,1,560.17,311.72Z"/>
      <path class="cls-3" d="M551.55,301.15l-.41-.91a10.86,10.86,0,0,1,2.22-.72,8.83,8.83,0,0,1,3.69,0,10.78,10.78,0,0,1,2.21.72l-.4.91a10.37,10.37,0,0,0-2-.66,7.83,7.83,0,0,0-3.27,0A11.64,11.64,0,0,0,551.55,301.15Z"/>
      <g class="cls-14">
        <circle class="cls-3" cx="554.76" cy="301.11" r="1.68"/>
      </g>
      <path class="cls-3" d="M563.88,301.15l-.4-.91a10.86,10.86,0,0,1,2.22-.72,8.78,8.78,0,0,1,3.68,0,10.67,10.67,0,0,1,2.22.72l-.41.91a10.07,10.07,0,0,0-2-.66,7.83,7.83,0,0,0-3.27,0A11,11,0,0,0,563.88,301.15Z"/>
      <g class="cls-15">
        <circle class="cls-3" cx="566.66" cy="301.11" r="1.68"/>
      </g>
      <g>
        <path class="cls-3" d="M575.88,302.48c-.52-2.12-.28-4.38-.84-6.51s-2.37-4.21-4.55-3.91a6,6,0,0,0-1.31.39c-1.55.58-3.29,1.11-4.83.48a3.64,3.64,0,0,1-1.74-4.83c0-.07.07-.14.1-.2l-.45,2a8.74,8.74,0,0,1-2,2.81,6,6,0,0,1-4.74,1.91,18.57,18.57,0,0,1-3.32-1,3.82,3.82,0,0,0-3.34.31,4.48,4.48,0,0,0-1.36,2.92,9.85,9.85,0,0,0,.08,5.2c.4,1.05,1.12,2,1.59,3a7.12,7.12,0,0,1-3.38,9.49,7.47,7.47,0,0,1-1.27.47l-4.4-3.91,1.23-19.46L560.53,282l16.6,8.13,3.28,14.29-3.28,9.21Z"/>
        <path class="cls-3" d="M576.87,315.85l-1.49-13.28a19,19,0,0,1-.4-3.24,17.94,17.94,0,0,0-.42-3.24c-.51-1.94-2.14-3.79-4-3.53a5.68,5.68,0,0,0-1.18.35c-1.74.65-3.56,1.16-5.22.48a4.15,4.15,0,0,1-2.07-2.16,9,9,0,0,1-1.44,1.79,6.38,6.38,0,0,1-5.11,2.05,20.42,20.42,0,0,1-3.49-1,3.4,3.4,0,0,0-2.84.23,3.94,3.94,0,0,0-1.17,2.62,9.27,9.27,0,0,0,.05,4.93,10.16,10.16,0,0,0,.85,1.63c.25.42.51.85.72,1.3a7.63,7.63,0,0,1-3.61,10.16,7.49,7.49,0,0,1-1.37.5l-.26.07-4.78-4.25,1.27-20,19.61-9.81,17,8.35,3.37,14.66Zm-36.2-5,4,3.56a7.6,7.6,0,0,0,.94-.36,6.63,6.63,0,0,0,3.14-8.83,13.68,13.68,0,0,0-.68-1.22,12.47,12.47,0,0,1-.93-1.78,10.38,10.38,0,0,1-.1-5.48,5,5,0,0,1,1.55-3.22,4.31,4.31,0,0,1,3.78-.39,19.13,19.13,0,0,0,3.28,1,5.51,5.51,0,0,0,4.28-1.76,8.52,8.52,0,0,0,1.83-2.6,4,4,0,0,1,.39-1.84,2.53,2.53,0,0,1,.12-.23l1.74-3.16-1.25,5.35a3.15,3.15,0,0,0,1.8,2.64c1.31.54,2.91.08,4.44-.5a7,7,0,0,1,1.39-.41c2.53-.35,4.52,1.94,5.13,4.27a19.33,19.33,0,0,1,.45,3.42,18.25,18.25,0,0,0,.38,3.1v.06l1,9,2.51-7-3.2-13.91-16.16-7.92-18.66,9.33Z"/>
      </g>
      <path class="cls-3" d="M561,317.29a8.74,8.74,0,0,1-2-.23l.23-1a7.76,7.76,0,0,0,2.54.16l.1,1A9.08,9.08,0,0,1,561,317.29Z"/>
      <g>
        <path class="cls-13" d="M545.83,300.07c-.77-.36-1.31-1.38-2.24-1.37-3.81,0-1.8,6.72.57,7.51"/>
        <path class="cls-3" d="M544,306.68c-1.92-.64-3.33-4.12-3-6.25a2.44,2.44,0,0,1,2.57-2.23,2.52,2.52,0,0,1,1.75.88,3.22,3.22,0,0,0,.7.54l-.42.9a3.71,3.71,0,0,1-1-.7c-.38-.33-.7-.62-1.07-.62h0a1.45,1.45,0,0,0-1.59,1.39c-.3,1.82,1,4.7,2.31,5.15Z"/>
      </g>
      <g>
        <path class="cls-3" d="M543.43,311.18c.27-1.57-1.06-1.8-.79-3.36s1.6-1.34,1.86-2.91-1.06-1.79-.8-3.35,1.61-1.34,1.88-2.9-1.07-1.79-.8-3.36l1.47.2-.43,4.26.12,5.11-.69,4.41Z"/>
        <path class="cls-3" d="M542.66,312.7l.28-1.61a1.7,1.7,0,0,0-.34-1.34,2.68,2.68,0,0,1,.65-3.76,1.72,1.72,0,0,0,.76-1.16,1.7,1.7,0,0,0-.34-1.34,2.69,2.69,0,0,1,.65-3.76,1.71,1.71,0,0,0,.76-1.16,1.67,1.67,0,0,0-.33-1.33,2.73,2.73,0,0,1-.47-2l.09-.47,2.42.33-.47,4.74.12,5.05-.72,4.65Zm2.67-12.53c-.12.12-.25.22-.37.32a1.72,1.72,0,0,0-.76,1.16,1.68,1.68,0,0,0,.33,1.33,2.68,2.68,0,0,1-.64,3.77,1.7,1.7,0,0,0-.76,1.15,1.74,1.74,0,0,0,.33,1.34,3.33,3.33,0,0,1,.38.78l.94-1,.66-4.25Zm-.08-4.3a2.14,2.14,0,0,0,.36.86v0l.08-.82Z"/>
      </g>
      <g>
        <circle class="cls-9" cx="555.13" cy="302.81" r="6.11"/>
        <path class="cls-3" d="M555.13,309.43a6.62,6.62,0,1,1,6.61-6.62A6.63,6.63,0,0,1,555.13,309.43Zm0-12.23a5.62,5.62,0,1,0,5.61,5.61A5.62,5.62,0,0,0,555.13,297.2Z"/>
      </g>
      <g>
        <circle class="cls-9" cx="569.64" cy="302.81" r="6.11"/>
        <path class="cls-3" d="M569.64,309.43a6.62,6.62,0,1,1,6.61-6.62A6.63,6.63,0,0,1,569.64,309.43Zm0-12.23a5.62,5.62,0,1,0,5.61,5.61A5.62,5.62,0,0,0,569.64,297.2Z"/>
      </g>
      <g>
        <rect class="cls-10" x="550.79" y="307.33" width="59.4" height="39.57"/>
        <path class="cls-3" d="M610.7,347.4H550.29V306.83H610.7Zm-59.41-1H609.7V307.83H551.29Z"/>
      </g>
      <g>
        <rect class="cls-10" x="576.4" y="334.1" width="8.18" height="23.55"/>
        <path class="cls-3" d="M585.08,358.15H575.9V333.6h9.18Zm-8.18-1h7.18V334.6H576.9Z"/>
      </g>
      <g>
        <path class="cls-10" d="M596.87,355.56H564.11a2.44,2.44,0,0,0-2.45,2.44h0v1h37.67v-1a2.44,2.44,0,0,0-2.45-2.44Z"/>
        <path class="cls-3" d="M599.83,359.48H561.16V358a3,3,0,0,1,3-2.94h32.77a3,3,0,0,1,3,2.94Zm-37.67-1h36.67V358a1.94,1.94,0,0,0-2-1.94H564.11a1.94,1.94,0,0,0-2,1.94Z"/>
      </g>
      <g>
        <circle class="cls-10" cx="580.49" cy="331.56" r="8.57"/>
        <path class="cls-3" d="M580.49,340.63a9.07,9.07,0,1,1,9.08-9.07A9.08,9.08,0,0,1,580.49,340.63Zm0-17.14a8.07,8.07,0,1,0,8.08,8.07A8.08,8.08,0,0,0,580.49,323.49Z"/>
      </g>
    </g>
    <g>
      <path class="cls-3" d="M165.83,294.39a.53.53,0,0,1-.4-.19.5.5,0,0,1,.08-.7L211,257.2a.5.5,0,0,1,.7.08.49.49,0,0,1-.08.7l-45.45,36.3A.56.56,0,0,1,165.83,294.39Z"/>
      <path class="cls-3" d="M209.63,272.85h-.06a.51.51,0,0,1-.44-.56l1.6-14.25-14.26-1.6a.51.51,0,0,1-.44-.56.5.5,0,0,1,.55-.44l14.76,1.66a.5.5,0,0,1,.44.55l-1.65,14.76A.51.51,0,0,1,209.63,272.85Z"/>
      <path class="cls-3" d="M180.32,296.25h0l-14.76-1.66a.5.5,0,0,1-.44-.55l1.65-14.76a.5.5,0,0,1,1,.11l-1.6,14.26,14.26,1.6a.5.5,0,0,1-.06,1Z"/>
    </g>
    <g>
      <path class="cls-3" d="M211.9,132.29a.49.49,0,0,1-.3-.1L164.91,97.5a.5.5,0,0,1,.6-.81l46.69,34.7a.5.5,0,0,1-.3.9Z"/>
      <path class="cls-3" d="M197.21,134.46a.5.5,0,0,1-.07-1l14.19-2.09-2.09-14.2a.5.5,0,0,1,.42-.56.49.49,0,0,1,.57.42l2.17,14.69a.5.5,0,0,1-.1.37.48.48,0,0,1-.33.2l-14.69,2.16Z"/>
      <path class="cls-3" d="M167.11,112.09a.5.5,0,0,1-.49-.43L164.45,97a.5.5,0,0,1,.1-.37.46.46,0,0,1,.32-.2l14.69-2.16a.49.49,0,0,1,.57.42.51.51,0,0,1-.42.57l-14.2,2.09,2.1,14.2a.5.5,0,0,1-.42.56Z"/>
    </g>
    <g>
      <path class="cls-3" d="M465,294.39a.53.53,0,0,1-.31-.11L419.25,258a.49.49,0,0,1-.07-.7.5.5,0,0,1,.7-.08l45.46,36.3a.5.5,0,0,1,.08.7A.53.53,0,0,1,465,294.39Z"/>
      <path class="cls-3" d="M421.22,272.85a.51.51,0,0,1-.5-.44l-1.65-14.76a.5.5,0,0,1,.44-.55l14.76-1.66a.5.5,0,0,1,.11,1L420.12,258l1.6,14.25a.51.51,0,0,1-.44.56Z"/>
      <path class="cls-3" d="M450.52,296.25a.5.5,0,0,1-.49-.45.5.5,0,0,1,.44-.55l14.26-1.6-1.6-14.26a.5.5,0,0,1,.44-.55.52.52,0,0,1,.56.44L465.78,294a.5.5,0,0,1-.44.55l-14.76,1.66Z"/>
    </g>
    <g>
      <path class="cls-3" d="M419,132.29a.48.48,0,0,1-.4-.2.5.5,0,0,1,.1-.7l46.69-34.7a.5.5,0,0,1,.59.81l-46.68,34.69A.49.49,0,0,1,419,132.29Z"/>
      <path class="cls-3" d="M433.64,134.46h-.08l-14.69-2.16a.51.51,0,0,1-.42-.57L420.62,117a.49.49,0,0,1,.57-.42.5.5,0,0,1,.42.56l-2.1,14.2,14.2,2.09a.51.51,0,0,1,.42.57A.5.5,0,0,1,433.64,134.46Z"/>
      <path class="cls-3" d="M463.74,112.09h-.08a.5.5,0,0,1-.42-.56l2.09-14.2-14.19-2.09a.51.51,0,0,1-.42-.57.5.5,0,0,1,.56-.42L466,96.4a.51.51,0,0,1,.43.57l-2.17,14.69A.5.5,0,0,1,463.74,112.09Z"/>
    </g>
    <g>
      <path class="cls-3" d="M295.71,296h1.69v9.1h-1.69Z"/>
      <path class="cls-3" d="M300.87,298.53v1.05a2.76,2.76,0,0,1,.9-.84,2.12,2.12,0,0,1,1.13-.32,2.08,2.08,0,0,1,1.46.51,1.89,1.89,0,0,1,.55,1.47v4.68H303.3v-4.2a1.18,1.18,0,0,0-.25-.82.94.94,0,0,0-.69-.26,1.11,1.11,0,0,0-.74.31,2.2,2.2,0,0,0-.54.92,4.38,4.38,0,0,0-.21,1.44v2.61h-1.61v-6.55Z"/>
      <path class="cls-3" d="M306.67,300.26h4.84v1.4h-4.84Z"/>
      <path class="cls-3" d="M314.88,295.88v3.7a2.5,2.5,0,0,1,.87-.84,2.35,2.35,0,0,1,1.21-.32,2.17,2.17,0,0,1,1.5.5,1.93,1.93,0,0,1,.54,1.48v4.68h-1.61V301a1.34,1.34,0,0,0-.24-.88.9.9,0,0,0-.73-.29,1.23,1.23,0,0,0-.75.27,2,2,0,0,0-.57.84,4,4,0,0,0-.22,1.4v2.77h-1.61v-9.2Z"/>
      <path class="cls-3" d="M322,304.74a2.94,2.94,0,0,1-1.16-1.21,4,4,0,0,1,0-3.46,2.91,2.91,0,0,1,1.16-1.2,3.75,3.75,0,0,1,3.56,0,3,3,0,0,1,1.15,1.2,3.94,3.94,0,0,1,0,3.46,3,3,0,0,1-1.15,1.21,3.82,3.82,0,0,1-3.56,0Zm3-1.51a2.53,2.53,0,0,0,0-2.85,1.4,1.4,0,0,0-1.19-.58,1.42,1.42,0,0,0-1.2.58,2.53,2.53,0,0,0,0,2.85,1.44,1.44,0,0,0,1.2.57A1.42,1.42,0,0,0,325,303.23Z"/>
      <path class="cls-3" d="M329.12,304.68a1.89,1.89,0,0,1-.55-1.47v-4.68h1.61v4.2a1.11,1.11,0,0,0,.26.81.88.88,0,0,0,.68.26,1.06,1.06,0,0,0,.74-.31,2.21,2.21,0,0,0,.55-.91,4.72,4.72,0,0,0,.2-1.44v-2.61h1.62v6.55h-1.62V304a3.08,3.08,0,0,1-.89.84,2.16,2.16,0,0,1-1.13.31A2.13,2.13,0,0,1,329.12,304.68Z"/>
      <path class="cls-3" d="M336.42,304.66a2.43,2.43,0,0,1-.91-1.24l1.29-.69a1.87,1.87,0,0,0,.51.79,1.18,1.18,0,0,0,.79.28.84.84,0,0,0,.53-.16.54.54,0,0,0,.22-.47.63.63,0,0,0-.33-.52,6.37,6.37,0,0,0-1-.47,3.1,3.1,0,0,1-1.15-.75,1.72,1.72,0,0,1-.41-1.17,1.68,1.68,0,0,1,.27-.93,1.94,1.94,0,0,1,.73-.66,2.31,2.31,0,0,1,1.07-.25,2.73,2.73,0,0,1,1.21.28,2.07,2.07,0,0,1,.84.79l-1,.88a1.21,1.21,0,0,0-1.05-.57.75.75,0,0,0-.45.14.41.41,0,0,0-.19.35.55.55,0,0,0,.27.44,4.61,4.61,0,0,0,1.07.49,2.92,2.92,0,0,1,1.18.71,1.58,1.58,0,0,1,.42,1.13,2,2,0,0,1-.63,1.54,2.24,2.24,0,0,1-1.61.58A2.68,2.68,0,0,1,336.42,304.66Z"/>
      <path class="cls-3" d="M347.37,302.32h-4.53a1.76,1.76,0,0,0,.52,1.11,1.48,1.48,0,0,0,1.05.37,1.65,1.65,0,0,0,.91-.24,2.24,2.24,0,0,0,.67-.77l1.3.48a2.94,2.94,0,0,1-3,1.91,2.94,2.94,0,0,1-1.77-.5,3,3,0,0,1-1-1.27,4.07,4.07,0,0,1-.33-1.61,4,4,0,0,1,.33-1.6,2.89,2.89,0,0,1,2.81-1.78,2.83,2.83,0,0,1,2.73,1.72,3.68,3.68,0,0,1,.33,1.52Zm-1.65-1.27a1.84,1.84,0,0,0-.46-.9,1.29,1.29,0,0,0-.95-.35,1.35,1.35,0,0,0-.89.32,1.77,1.77,0,0,0-.54.93Z"/>
      <path class="cls-3" d="M281.56,313a1,1,0,0,1-.3-.74,1,1,0,0,1,.3-.74,1,1,0,0,1,.74-.3,1,1,0,0,1,1,1,1,1,0,0,1-.3.74,1,1,0,0,1-.74.3A1,1,0,0,1,281.56,313Zm-.07,1.15h1.61v6.55h-1.61Z"/>
      <path class="cls-3" d="M286.48,314.13v1.05a2.91,2.91,0,0,1,.9-.85,2.23,2.23,0,0,1,1.13-.31,2,2,0,0,1,1.46.51,1.9,1.9,0,0,1,.56,1.47v4.68h-1.62v-4.2a1.13,1.13,0,0,0-.25-.82.93.93,0,0,0-.68-.26,1,1,0,0,0-.74.31,2.21,2.21,0,0,0-.55.92,4.38,4.38,0,0,0-.21,1.44v2.61h-1.61v-6.55Z"/>
      <path class="cls-3" d="M291.49,315.5v-1.37h.83v-.34a2.07,2.07,0,0,1,2.26-2.32,2.57,2.57,0,0,1,1.22.26l-.35,1.31a1.85,1.85,0,0,0-.78-.19c-.49,0-.74.28-.74.82v.46h1.38v1.37h-1.38v5.18h-1.61V315.5Z"/>
      <path class="cls-3" d="M298,314.13v1.06a2.62,2.62,0,0,1,.86-.86,2,2,0,0,1,1.08-.31,3,3,0,0,1,.79.13l-.3,1.5a1.27,1.27,0,0,0-.67-.18,1.49,1.49,0,0,0-1.26.69,3.83,3.83,0,0,0-.5,2.19v2.33h-1.61v-6.55Z"/>
      <path class="cls-3" d="M301.64,320.26a2.1,2.1,0,0,1,.18-3,3.16,3.16,0,0,1,2-.58H305v-.29a.83.83,0,0,0-.33-.72,1.32,1.32,0,0,0-.81-.24,1.11,1.11,0,0,0-1.14.75l-1.36-.31a2.06,2.06,0,0,1,.84-1.32,2.75,2.75,0,0,1,1.66-.5,2.78,2.78,0,0,1,2,.7,2.71,2.71,0,0,1,.72,2v3.91h-1.32l-.17-.83a2.51,2.51,0,0,1-2,.93A2,2,0,0,1,301.64,320.26Zm2.89-1.23a1.21,1.21,0,0,0,.44-1v-.13h-1.08a1.41,1.41,0,0,0-.83.21.74.74,0,0,0-.29.64.6.6,0,0,0,.2.46.77.77,0,0,0,.53.17A1.55,1.55,0,0,0,304.53,319Z"/>
      <path class="cls-3" d="M308.58,320.26a2.41,2.41,0,0,1-.91-1.25l1.29-.68a1.87,1.87,0,0,0,.51.79,1.18,1.18,0,0,0,.79.28.84.84,0,0,0,.53-.16.54.54,0,0,0,.22-.47.63.63,0,0,0-.33-.52,6.37,6.37,0,0,0-1-.47,3.19,3.19,0,0,1-1.15-.75,1.72,1.72,0,0,1-.41-1.17,1.68,1.68,0,0,1,.27-.93,1.94,1.94,0,0,1,.73-.66,2.34,2.34,0,0,1,1.07-.25,2.73,2.73,0,0,1,1.21.28,2.07,2.07,0,0,1,.84.79l-1,.88a1.21,1.21,0,0,0-1.05-.57.77.77,0,0,0-.45.14.41.41,0,0,0-.19.35.55.55,0,0,0,.27.44,5.08,5.08,0,0,0,1.07.49,2.92,2.92,0,0,1,1.18.71,1.58,1.58,0,0,1,.42,1.13,2,2,0,0,1-.62,1.54,2.28,2.28,0,0,1-1.62.58A2.68,2.68,0,0,1,308.58,320.26Z"/>
      <path class="cls-3" d="M314.64,320.17a2.42,2.42,0,0,1-.64-1.81V315.5h-1v-1.37h1v-1.64l1.62-1v2.66h1.73v1.37h-1.73v2.84a1.24,1.24,0,0,0,.21.82.82.82,0,0,0,.64.24,1.39,1.39,0,0,0,.63-.15l.38,1.3a2.48,2.48,0,0,1-1.07.23A2.46,2.46,0,0,1,314.64,320.17Z"/>
      <path class="cls-3" d="M320.1,314.13v1.06a2.53,2.53,0,0,1,.86-.86A2,2,0,0,1,322,314a3,3,0,0,1,.79.13l-.3,1.5a1.27,1.27,0,0,0-.67-.18,1.47,1.47,0,0,0-1.26.69,3.83,3.83,0,0,0-.5,2.19v2.33h-1.61v-6.55Z"/>
      <path class="cls-3" d="M324.36,320.28a1.89,1.89,0,0,1-.55-1.47v-4.68h1.61v4.2a1.11,1.11,0,0,0,.25.81.89.89,0,0,0,.68.26,1.09,1.09,0,0,0,.75-.31,2.27,2.27,0,0,0,.54-.91,4.46,4.46,0,0,0,.21-1.44v-2.61h1.61v6.55h-1.61v-1.05a3,3,0,0,1-.9.84,2.31,2.31,0,0,1-2.59-.19Z"/>
      <path class="cls-3" d="M332.37,320.33a2.78,2.78,0,0,1-1.09-1.21,4.27,4.27,0,0,1,0-3.43,2.86,2.86,0,0,1,1.09-1.22,3.23,3.23,0,0,1,1.75-.45,3.42,3.42,0,0,1,1.85.48,2.79,2.79,0,0,1,1.12,1.39l-1.44.59a2.12,2.12,0,0,0-.63-.81,1.5,1.5,0,0,0-.9-.27A1.28,1.28,0,0,0,333,316a3,3,0,0,0,0,2.9,1.28,1.28,0,0,0,1.13.55,1.5,1.5,0,0,0,.9-.27,2.08,2.08,0,0,0,.63-.8l1.44.58a2.82,2.82,0,0,1-1.12,1.4,3.51,3.51,0,0,1-1.85.47A3.23,3.23,0,0,1,332.37,320.33Z"/>
      <path class="cls-3" d="M339.33,320.17a2.38,2.38,0,0,1-.64-1.81V315.5h-1v-1.37h1v-1.64l1.61-1v2.66H342v1.37H340.3v2.84a1.24,1.24,0,0,0,.22.82.82.82,0,0,0,.64.24,1.39,1.39,0,0,0,.63-.15l.37,1.3a2.75,2.75,0,0,1-2.83-.38Z"/>
      <path class="cls-3" d="M343.57,320.28a1.93,1.93,0,0,1-.55-1.47v-4.68h1.61v4.2a1.11,1.11,0,0,0,.26.81.86.86,0,0,0,.68.26,1.06,1.06,0,0,0,.74-.31,2.17,2.17,0,0,0,.55-.91,4.77,4.77,0,0,0,.2-1.44v-2.61h1.62v6.55h-1.62v-1.05a3.08,3.08,0,0,1-.89.84,2.16,2.16,0,0,1-1.13.31A2.13,2.13,0,0,1,343.57,320.28Z"/>
      <path class="cls-3" d="M352.11,314.13v1.06a2.59,2.59,0,0,1,.85-.86A2,2,0,0,1,354,314a3,3,0,0,1,.8.13l-.3,1.5a1.3,1.3,0,0,0-.68-.18,1.49,1.49,0,0,0-1.26.69,3.84,3.84,0,0,0-.49,2.19v2.33H350.5v-6.55Z"/>
      <path class="cls-3" d="M361.45,317.92h-4.52a1.81,1.81,0,0,0,.51,1.11,1.51,1.51,0,0,0,1.05.37,1.68,1.68,0,0,0,.92-.24,2.35,2.35,0,0,0,.67-.77l1.3.48a3.24,3.24,0,0,1-1.13,1.42,3.2,3.2,0,0,1-1.85.49,3,3,0,0,1-1.78-.5,3.05,3.05,0,0,1-1-1.27,4.07,4.07,0,0,1-.33-1.61,4,4,0,0,1,.33-1.6A2.89,2.89,0,0,1,358.4,314a3,3,0,0,1,1.72.49,3,3,0,0,1,1,1.23,3.67,3.67,0,0,1,.32,1.52Zm-1.65-1.27a1.76,1.76,0,0,0-.46-.9,1.27,1.27,0,0,0-.94-.35,1.36,1.36,0,0,0-.9.32,1.7,1.7,0,0,0-.53.93Z"/>
    </g>
    <g>
      <g>
        <g>
          <path class="cls-4" d="M533,137.79a3,3,0,0,1-3-3V88.21a3,3,0,0,1,3-3h4.18a3,3,0,0,1,3,3v46.06a3.53,3.53,0,0,1-3.52,3.52Z"/>
          <path class="cls-3" d="M537.16,85.71a2.5,2.5,0,0,1,2.5,2.5v46.06a3,3,0,0,1-3,3H533a2.5,2.5,0,0,1-2.5-2.5V88.21a2.5,2.5,0,0,1,2.5-2.5h4.18m0-1H533a3.5,3.5,0,0,0-3.5,3.5v46.58a3.5,3.5,0,0,0,3.5,3.5h3.66a4,4,0,0,0,4-4V88.21a3.5,3.5,0,0,0-3.5-3.5Z"/>
        </g>
        <g>
          <path class="cls-4" d="M533,83.79a3,3,0,0,1-3-3V50.21a3,3,0,0,1,3-3h4.18a3,3,0,0,1,3,3V80.27a3.53,3.53,0,0,1-3.52,3.52Z"/>
          <path class="cls-3" d="M537.16,47.71a2.5,2.5,0,0,1,2.5,2.5V80.27a3,3,0,0,1-3,3H533a2.5,2.5,0,0,1-2.5-2.5V50.21a2.5,2.5,0,0,1,2.5-2.5h4.18m0-1H533a3.5,3.5,0,0,0-3.5,3.5V80.79a3.5,3.5,0,0,0,3.5,3.5h3.66a4,4,0,0,0,4-4V50.21a3.5,3.5,0,0,0-3.5-3.5Z"/>
        </g>
        <g>
          <circle class="cls-3" cx="535.98" cy="86.02" r="13"/>
          <path class="cls-3" d="M536,99.52A13.5,13.5,0,1,1,549.48,86,13.52,13.52,0,0,1,536,99.52Zm0-26A12.5,12.5,0,1,0,548.48,86,12.51,12.51,0,0,0,536,73.52Z"/>
        </g>
        <g>
          <circle class="cls-3" cx="534.98" cy="111.02" r="1"/>
          <path class="cls-3" d="M535,112.52a1.5,1.5,0,1,1,1.5-1.5A1.51,1.51,0,0,1,535,112.52Zm0-2a.5.5,0,0,0-.5.5.51.51,0,0,0,.5.5.5.5,0,0,0,.5-.5A.5.5,0,0,0,535,110.52Z"/>
        </g>
        <g>
          <circle class="cls-3" cx="534.98" cy="117.02" r="1"/>
          <path class="cls-3" d="M535,118.52a1.5,1.5,0,1,1,1.5-1.5A1.51,1.51,0,0,1,535,118.52Zm0-2a.5.5,0,0,0-.5.5.51.51,0,0,0,.5.5.5.5,0,0,0,.5-.5A.5.5,0,0,0,535,116.52Z"/>
        </g>
        <g>
          <circle class="cls-3" cx="534.98" cy="123.02" r="1"/>
          <path class="cls-3" d="M535,124.52a1.5,1.5,0,1,1,1.5-1.5A1.51,1.51,0,0,1,535,124.52Zm0-2a.5.5,0,0,0-.5.5.51.51,0,0,0,.5.5.5.5,0,0,0,.5-.5A.5.5,0,0,0,535,122.52Z"/>
        </g>
        <g>
          <circle class="cls-3" cx="534.98" cy="129.02" r="1"/>
          <path class="cls-3" d="M535,130.52a1.5,1.5,0,1,1,1.5-1.5A1.51,1.51,0,0,1,535,130.52Zm0-2a.5.5,0,0,0-.5.5.51.51,0,0,0,.5.5.5.5,0,0,0,.5-.5A.5.5,0,0,0,535,128.52Z"/>
        </g>
      </g>
      <g>
        <path class="cls-6" d="M530.86,86.07a3.87,3.87,0,0,0,.45-.68,1.32,1.32,0,0,0,.12-.57.92.92,0,0,0-.24-.68.93.93,0,0,0-1.31,0,1.36,1.36,0,0,0-.32.73l-.61-.12a1.66,1.66,0,0,1,.24-.77,1.47,1.47,0,0,1,.56-.52,1.63,1.63,0,0,1,.79-.2,1.53,1.53,0,0,1,1.13.42,1.46,1.46,0,0,1,.43,1.12,1.68,1.68,0,0,1-.16.72,3.22,3.22,0,0,1-.46.73l-1.6,2.07h2.35V89h-3.4v-.26Z"/>
        <path class="cls-6" d="M533.19,86a.48.48,0,0,1-.14-.35.52.52,0,0,1,.14-.36.49.49,0,0,1,.36-.14.5.5,0,0,1,.35.14.48.48,0,0,1,.14.36.45.45,0,0,1-.14.35.48.48,0,0,1-.35.13A.48.48,0,0,1,533.19,86Zm0,2.88a.51.51,0,0,1,0-.7.49.49,0,0,1,.36-.14.5.5,0,0,1,.35.14.51.51,0,0,1,0,.7.46.46,0,0,1-.35.14A.45.45,0,0,1,533.19,88.83Z"/>
        <path class="cls-6" d="M535.45,88.24a4.56,4.56,0,0,1,0-4.19,1.78,1.78,0,0,1,2.93,0,4.66,4.66,0,0,1,0,4.2,1.65,1.65,0,0,1-1.46.76A1.63,1.63,0,0,1,535.45,88.24Zm2.43-.44a4.17,4.17,0,0,0,0-3.3,1.07,1.07,0,0,0-1-.62,1,1,0,0,0-1,.62,4.17,4.17,0,0,0,0,3.3,1,1,0,0,0,1,.6A1.06,1.06,0,0,0,537.88,87.8Z"/>
        <path class="cls-6" d="M541.58,86.07a3.87,3.87,0,0,0,.45-.68,1.32,1.32,0,0,0,.12-.57.92.92,0,0,0-.24-.68.93.93,0,0,0-1.31,0,1.36,1.36,0,0,0-.32.73l-.61-.12a1.66,1.66,0,0,1,.24-.77,1.47,1.47,0,0,1,.56-.52,1.63,1.63,0,0,1,.79-.2,1.53,1.53,0,0,1,1.13.42,1.46,1.46,0,0,1,.43,1.12,1.68,1.68,0,0,1-.16.72,3.22,3.22,0,0,1-.46.73l-1.6,2.07H543V89h-3.4v-.26Z"/>
      </g>
    </g>
    <g>
      <g>
        <polygon class="cls-6" points="298.18 160.76 404.18 145.72 404.18 260.38 298.18 275.42 298.18 160.76"/>
        <path d="M403.68,146.3V260l-105,14.9V161.2l105-14.9m1-1.15-107,15.18V276l107-15.18V145.15Z"/>
      </g>
      <g>
        <path class="cls-2" d="M231.67,240.28l.71-115.52a.27.27,0,0,1,.27-.27.2.2,0,0,1,.13,0l65.12,36.09V275.17Z"/>
        <path class="cls-3" d="M232.88,125.15l64.52,35.77V274.34L232.17,240l.71-114.82m-.23-1.16a.78.78,0,0,0-.77.77l-.71,115.72a.15.15,0,0,0,.09.14l66.9,35.25a.12.12,0,0,0,.08,0,.16.16,0,0,0,.16-.16V160.42a.17.17,0,0,0-.08-.14L233,124.09a.75.75,0,0,0-.38-.1Z"/>
      </g>
      <g>
        <polygon class="cls-3" points="232.6 124.42 338.79 109.52 403.14 145.58 297.77 160.53 232.6 124.42"/>
        <path class="cls-3" d="M338.69,110,401.6,145.3,297.87,160l-63.61-35.25L338.69,110m.2-1L232.52,124a.46.46,0,0,0-.17.85l65.33,36.2,107-15.18L338.89,109Z"/>
      </g>
      <g>
        <g>
          <g>
            <path class="cls-16" d="M331.34,190c-6.07,0-11.68-.58-14.3-1.49-.52-.1-1.26-.28-1.26-.62v-6.58h31.11v6.61c0,.3-.72.49-1.16.56C343.05,189.38,337.43,190,331.34,190Z"/>
            <path class="cls-3" d="M346.39,181.78v6a2.5,2.5,0,0,1-.74.22l-.08,0-.08,0c-2.56.9-8.11,1.47-14.15,1.47s-11.57-.57-14.13-1.46l-.08,0h-.08a2.31,2.31,0,0,1-.77-.23h0v-6h30.11m1-1H315.28v7s0,0,0,0,0,0,0,0c0,.58.58.91,1.6,1.09,2.6.9,8.09,1.52,14.46,1.52s11.9-.62,14.48-1.52c1-.19,1.57-.52,1.57-1.09v-7.08Z"/>
          </g>
          <g>
            <path class="cls-16" d="M331.34,183c-9.85,0-15.36-1.43-15.56-2.2.2-.75,5.71-2.18,15.56-2.18s15.36,1.43,15.55,2.2C346.7,181.53,341.19,183,331.34,183Z"/>
            <path class="cls-3" d="M331.34,179.08c8.25,0,13.24,1,14.72,1.69-1.48.69-6.47,1.69-14.72,1.69s-13.25-1-14.72-1.69c1.47-.69,6.47-1.69,14.72-1.69m0-1c-8.87,0-16.06,1.2-16.06,2.69s7.19,2.69,16.06,2.69,16.05-1.2,16.05-2.69-7.18-2.69-16.05-2.69Z"/>
          </g>
        </g>
        <g>
          <g>
            <path class="cls-16" d="M331.34,183c-6.07,0-11.68-.59-14.3-1.49-.52-.1-1.26-.28-1.26-.62v-6.58h31.11v6.6c0,.31-.72.49-1.16.57C343.05,182.38,337.43,183,331.34,183Z"/>
            <path class="cls-3" d="M346.39,174.78v5.95a2.12,2.12,0,0,1-.74.23h-.08l-.08,0c-2.56.89-8.11,1.47-14.15,1.47s-11.57-.58-14.13-1.47l-.08,0-.08,0a2.73,2.73,0,0,1-.77-.22h0v-6h30.11m1-1H315.28v7s0,0,0,0c0,.58.58.91,1.6,1.09,2.6.9,8.09,1.52,14.46,1.52s11.9-.63,14.48-1.53c1-.18,1.57-.51,1.57-1.08v-7.08Z"/>
          </g>
          <g>
            <path class="cls-16" d="M331.34,176c-9.85,0-15.36-1.44-15.56-2.2.2-.75,5.71-2.18,15.56-2.18s15.36,1.43,15.55,2.19C346.7,174.52,341.19,176,331.34,176Z"/>
            <path class="cls-3" d="M331.34,172.08c8.25,0,13.24,1,14.72,1.69-1.48.69-6.47,1.68-14.72,1.68s-13.25-1-14.72-1.68c1.47-.7,6.47-1.69,14.72-1.69m0-1c-8.87,0-16.06,1.2-16.06,2.69s7.19,2.68,16.06,2.68,16.05-1.2,16.05-2.68-7.18-2.69-16.05-2.69Z"/>
          </g>
        </g>
        <g>
          <g>
            <path class="cls-16" d="M331.34,176c-6.07,0-11.68-.58-14.3-1.49-.52-.1-1.26-.28-1.26-.62a1.29,1.29,0,0,0,0-.19l0-.07,0,0,0-6.29h31.1v6.61c0,.31-.72.49-1.16.56C343.05,175.38,337.43,176,331.34,176Z"/>
            <path class="cls-3" d="M346.39,167.78v5.95a2.5,2.5,0,0,1-.74.22l-.08,0-.08,0c-2.56.9-8.11,1.47-14.15,1.47s-11.57-.57-14.13-1.46l-.08,0h-.08a2.53,2.53,0,0,1-.73-.21v-.19l0-5.78h30.1m1-1H315.28l.05,6.79,0,.24s0,0,0,0c0,.58.58.91,1.6,1.09,2.6.9,8.09,1.52,14.46,1.52s11.9-.62,14.48-1.52c1-.19,1.57-.52,1.57-1.09v-7.07Z"/>
          </g>
          <g>
            <path class="cls-16" d="M331.34,169c-9.85,0-15.36-1.43-15.56-2.2.2-.75,5.71-2.18,15.56-2.18s15.36,1.43,15.55,2.2C346.7,167.52,341.19,169,331.34,169Z"/>
            <path class="cls-3" d="M331.34,165.07c8.25,0,13.24,1,14.72,1.69-1.48.69-6.47,1.69-14.72,1.69s-13.25-1-14.72-1.69c1.47-.69,6.47-1.69,14.72-1.69m0-1c-8.87,0-16.06,1.21-16.06,2.69s7.19,2.69,16.06,2.69,16.05-1.2,16.05-2.69-7.18-2.69-16.05-2.69Z"/>
          </g>
        </g>
      </g>
      <g>
        <g>
          <g>
            <path class="cls-17" d="M371.43,188.88c-6.07,0-11.68-.59-14.3-1.49-.51-.1-1.25-.28-1.25-.62v-6.58H387v6.62c0,.29-.73.47-1.16.55C383.14,188.29,377.52,188.88,371.43,188.88Z"/>
            <path class="cls-3" d="M386.48,180.69v6a2.74,2.74,0,0,1-.75.22h-.08l-.08,0c-2.56.89-8.11,1.47-14.15,1.47s-11.56-.58-14.13-1.47l-.08,0-.08,0a2.61,2.61,0,0,1-.76-.22h0v-6h30.1m1-1h-32.1v7.08c0,.58.57.91,1.59,1.09,2.6.9,8.1,1.52,14.46,1.52s11.9-.62,14.48-1.53c1-.18,1.57-.51,1.57-1.08v-7.08Z"/>
          </g>
          <g>
            <path class="cls-17" d="M371.43,181.87c-9.85,0-15.36-1.43-15.55-2.2.19-.75,5.7-2.18,15.55-2.18s15.36,1.43,15.56,2.19C386.79,180.44,381.28,181.87,371.43,181.87Z"/>
            <path class="cls-3" d="M371.43,178c8.25,0,13.25,1,14.72,1.69-1.47.69-6.47,1.69-14.72,1.69s-13.25-1-14.72-1.69c1.47-.69,6.47-1.69,14.72-1.69m0-1c-8.87,0-16.05,1.2-16.05,2.69s7.18,2.69,16.05,2.69,16.05-1.21,16.05-2.69S380.3,177,371.43,177Z"/>
          </g>
        </g>
        <g>
          <g>
            <path class="cls-17" d="M371.43,181.88c-6.07,0-11.68-.59-14.3-1.5-.51-.09-1.25-.28-1.25-.62v-6.57H387v6.61c0,.3-.73.48-1.16.55C383.14,181.29,377.52,181.88,371.43,181.88Z"/>
            <path class="cls-3" d="M386.48,173.69v5.95a2.74,2.74,0,0,1-.75.22l-.08,0-.08,0c-2.56.9-8.11,1.48-14.15,1.48s-11.56-.58-14.13-1.47l-.08,0h-.08a2.61,2.61,0,0,1-.76-.22h0v-6h30.1m1-1h-32.1v7.07c0,.58.57.92,1.59,1.1,2.6.89,8.1,1.52,14.46,1.52s11.9-.63,14.48-1.53c1-.18,1.57-.52,1.57-1.09v-7.07Z"/>
          </g>
          <g>
            <path class="cls-17" d="M371.43,174.86c-9.85,0-15.36-1.43-15.55-2.19.19-.76,5.7-2.19,15.55-2.19s15.36,1.43,15.56,2.2C386.79,173.43,381.28,174.86,371.43,174.86Z"/>
            <path class="cls-3" d="M371.43,171c8.25,0,13.25,1,14.72,1.69-1.47.69-6.47,1.69-14.72,1.69s-13.25-1-14.72-1.69c1.47-.69,6.47-1.69,14.72-1.69m0-1c-8.87,0-16.05,1.21-16.05,2.69s7.18,2.69,16.05,2.69,16.05-1.2,16.05-2.69S380.3,170,371.43,170Z"/>
          </g>
        </g>
        <g>
          <g>
            <path class="cls-17" d="M371.43,174.87c-6.07,0-11.68-.59-14.3-1.49-.51-.1-1.25-.28-1.25-.62a.78.78,0,0,0,0-.09l0,0,0-6.44H387v6.62c0,.29-.73.47-1.16.55C383.14,174.28,377.52,174.87,371.43,174.87Z"/>
            <path class="cls-3" d="M386.48,166.68v6a2.74,2.74,0,0,1-.75.22h-.08l-.08,0c-2.56.89-8.11,1.47-14.15,1.47s-11.56-.57-14.13-1.46l-.08,0h-.08a3.46,3.46,0,0,1-.73-.21v-.19l0-5.79h30.1m1-1h-32.1l0,6.79,0,.25v0c0,.58.57.91,1.59,1.09,2.6.9,8.1,1.52,14.46,1.52s11.9-.62,14.48-1.53c1-.18,1.57-.51,1.57-1.08v-7.08Z"/>
          </g>
          <g>
            <path class="cls-17" d="M371.43,167.86c-9.85,0-15.36-1.43-15.55-2.2.19-.75,5.7-2.18,15.55-2.18s15.36,1.43,15.56,2.19C386.79,166.43,381.28,167.86,371.43,167.86Z"/>
            <path class="cls-3" d="M371.43,164c8.25,0,13.25,1,14.72,1.69-1.47.69-6.47,1.69-14.72,1.69s-13.25-1-14.72-1.69c1.47-.69,6.47-1.69,14.72-1.69m0-1c-8.87,0-16.05,1.2-16.05,2.69s7.18,2.69,16.05,2.69,16.05-1.21,16.05-2.69S380.3,163,371.43,163Z"/>
          </g>
        </g>
      </g>
      <g>
        <g>
          <path class="cls-17" d="M314.6,231.58h29.85a1.9,1.9,0,0,1,1.9,1.9v8.35a1.89,1.89,0,0,1-1.89,1.89H314.6a1.9,1.9,0,0,1-1.9-1.9v-8.35A1.9,1.9,0,0,1,314.6,231.58Z"/>
          <path class="cls-3" d="M344.45,232.08a1.4,1.4,0,0,1,1.39,1.4v8.35a1.39,1.39,0,0,1-1.39,1.39H314.6a1.4,1.4,0,0,1-1.4-1.39v-8.35a1.4,1.4,0,0,1,1.4-1.4h29.85m0-1H314.6a2.41,2.41,0,0,0-2.4,2.4v8.35a2.4,2.4,0,0,0,2.4,2.39h29.85a2.39,2.39,0,0,0,2.39-2.39v-8.35a2.4,2.4,0,0,0-2.39-2.4Z"/>
        </g>
        <g>
          <path class="cls-17" d="M340.28,238.94a1.29,1.29,0,1,1,1.29-1.29A1.29,1.29,0,0,1,340.28,238.94Z"/>
          <path class="cls-3" d="M340.28,236.86a.79.79,0,1,1-.8.79.8.8,0,0,1,.8-.79m0-1a1.79,1.79,0,1,0,1.79,1.79,1.8,1.8,0,0,0-1.79-1.79Z"/>
        </g>
        <g>
          <path class="cls-17" d="M333.11,238.94a1.29,1.29,0,1,1,1.29-1.29A1.29,1.29,0,0,1,333.11,238.94Z"/>
          <path class="cls-3" d="M333.11,236.86a.79.79,0,0,1,0,1.58.79.79,0,0,1,0-1.58m0-1a1.79,1.79,0,1,0,1.79,1.79,1.79,1.79,0,0,0-1.79-1.79Z"/>
        </g>
        <g>
          <path class="cls-17" d="M314.6,218.44h29.85a1.9,1.9,0,0,1,1.9,1.9v8.35a1.89,1.89,0,0,1-1.89,1.89H314.6a1.89,1.89,0,0,1-1.89-1.89v-8.35A1.9,1.9,0,0,1,314.6,218.44Z"/>
          <path class="cls-3" d="M344.45,218.94a1.4,1.4,0,0,1,1.39,1.4v8.35a1.39,1.39,0,0,1-1.39,1.39H314.6a1.4,1.4,0,0,1-1.4-1.39v-8.35a1.4,1.4,0,0,1,1.4-1.4h29.85m0-1H314.6a2.41,2.41,0,0,0-2.4,2.4v8.35a2.4,2.4,0,0,0,2.4,2.39h29.85a2.39,2.39,0,0,0,2.39-2.39v-8.35a2.4,2.4,0,0,0-2.39-2.4Z"/>
        </g>
        <g>
          <path class="cls-17" d="M340.28,225.81a1.3,1.3,0,1,1,1.29-1.3A1.3,1.3,0,0,1,340.28,225.81Z"/>
          <path class="cls-3" d="M340.28,223.72a.8.8,0,1,1-.8.79.8.8,0,0,1,.8-.79m0-1a1.8,1.8,0,1,0,1.79,1.79,1.8,1.8,0,0,0-1.79-1.79Z"/>
        </g>
        <g>
          <circle class="cls-17" cx="333.11" cy="224.51" r="1.29"/>
          <path class="cls-3" d="M333.11,223.72a.8.8,0,1,1-.79.79.8.8,0,0,1,.79-.79m0-1a1.8,1.8,0,1,0,1.79,1.79,1.79,1.79,0,0,0-1.79-1.79Z"/>
        </g>
      </g>
      <g>
        <g>
          <rect class="cls-16" x="355.24" y="231.08" width="34.64" height="13.14" rx="2.39"/>
          <path class="cls-3" d="M387.48,244.72H357.63a2.89,2.89,0,0,1-2.89-2.89v-8.35a2.89,2.89,0,0,1,2.89-2.9h29.85a2.9,2.9,0,0,1,2.9,2.9v8.35A2.9,2.9,0,0,1,387.48,244.72Zm-29.85-13.14a1.9,1.9,0,0,0-1.89,1.9v8.35a1.89,1.89,0,0,0,1.89,1.89h29.85a1.9,1.9,0,0,0,1.9-1.89v-8.35a1.9,1.9,0,0,0-1.9-1.9Z"/>
        </g>
        <g>
          <circle class="cls-3" cx="383.31" cy="237.65" r="1.79"/>
          <path class="cls-3" d="M383.31,239.94a2.29,2.29,0,1,1,2.29-2.29A2.29,2.29,0,0,1,383.31,239.94Zm0-3.58a1.29,1.29,0,1,0,1.29,1.29A1.3,1.3,0,0,0,383.31,236.36Z"/>
        </g>
        <g>
          <circle class="cls-3" cx="376.14" cy="237.65" r="1.79"/>
          <path class="cls-3" d="M376.14,239.94a2.29,2.29,0,1,1,2.29-2.29A2.29,2.29,0,0,1,376.14,239.94Zm0-3.58a1.29,1.29,0,1,0,1.29,1.29A1.29,1.29,0,0,0,376.14,236.36Z"/>
        </g>
        <g>
          <rect class="cls-16" x="355.24" y="217.94" width="34.64" height="13.14" rx="2.39"/>
          <path class="cls-3" d="M387.48,231.58H357.63a2.89,2.89,0,0,1-2.89-2.89v-8.35a2.89,2.89,0,0,1,2.89-2.9h29.85a2.9,2.9,0,0,1,2.9,2.9v8.35A2.9,2.9,0,0,1,387.48,231.58Zm-29.85-13.14a1.9,1.9,0,0,0-1.89,1.9v8.35a1.89,1.89,0,0,0,1.89,1.89h29.85a1.9,1.9,0,0,0,1.9-1.89v-8.35a1.9,1.9,0,0,0-1.9-1.9Z"/>
        </g>
        <g>
          <circle class="cls-3" cx="383.31" cy="224.51" r="1.79"/>
          <path class="cls-3" d="M383.31,226.81a2.3,2.3,0,1,1,2.29-2.3A2.3,2.3,0,0,1,383.31,226.81Zm0-3.59a1.3,1.3,0,1,0,1.29,1.29A1.3,1.3,0,0,0,383.31,223.22Z"/>
        </g>
        <g>
          <circle class="cls-3" cx="376.14" cy="224.51" r="1.79"/>
          <path class="cls-3" d="M376.14,226.81a2.3,2.3,0,1,1,2.29-2.3A2.3,2.3,0,0,1,376.14,226.81Zm0-3.59a1.3,1.3,0,1,0,1.29,1.29A1.29,1.29,0,0,0,376.14,223.22Z"/>
        </g>
      </g>
    </g>
    <g>
      <g>
        <rect class="cls-18" x="39.78" y="46" width="108.22" height="72.1"/>
        <path class="cls-3" d="M148.5,118.6H39.28V45.5H148.5Zm-108.22-1H147.5V46.5H40.28Z"/>
      </g>
      <g>
        <rect class="cls-18" x="85.79" y="97.2" width="16.19" height="39.66"/>
        <path class="cls-3" d="M102.48,137.36H85.29V96.7h17.19Zm-16.19-1h15.19V97.7H86.29Z"/>
      </g>
      <g>
        <path class="cls-18" d="M61.46,133.48h64.87a4.85,4.85,0,0,1,4.84,4.85v1.93H56.61v-1.93A4.85,4.85,0,0,1,61.46,133.48Z"/>
        <path class="cls-3" d="M131.67,140.76H56.11v-2.43A5.36,5.36,0,0,1,61.46,133h64.87a5.36,5.36,0,0,1,5.34,5.35Zm-74.56-1h73.56v-1.43a4.36,4.36,0,0,0-4.34-4.35H61.46a4.35,4.35,0,0,0-4.35,4.35Z"/>
      </g>
      <g>
        <circle class="cls-18" cx="93.88" cy="92.17" r="16.97"/>
        <path class="cls-3" d="M93.88,109.64a17.47,17.47,0,1,1,17.47-17.47A17.49,17.49,0,0,1,93.88,109.64Zm0-33.94a16.47,16.47,0,1,0,16.47,16.47A16.49,16.49,0,0,0,93.88,75.7Z"/>
      </g>
    </g>
    <g>
      <path class="cls-3" d="M77.87,153.63c1.64,0,3,.68,3,2.9s-1.33,2.9-3,2.9h-1v-5.8Zm0,.72h-.21v4.36h.21c1.08,0,2.23-.22,2.23-2.18S78.92,154.35,77.84,154.35Z"/>
      <path class="cls-3" d="M82,157.29a2,2,0,0,1,2-2.24c1.25,0,2,.92,1.92,2.45h-3.1c0,.87.48,1.43,1.16,1.43a1,1,0,0,0,1.11-.79h.76a1.75,1.75,0,0,1-1.85,1.39C82.59,159.53,82,158.57,82,157.29Zm.78-.39H85a1.1,1.1,0,0,0-1.13-1.24C83.2,155.66,82.76,156.06,82.73,156.9Z"/>
      <path class="cls-3" d="M89.93,156.3c-.1-.48-.47-.64-1-.64s-.86.17-.86.56.22.48.64.57l.48.1c.75.14,1.55.42,1.55,1.28s-.79,1.36-1.72,1.36a1.62,1.62,0,0,1-1.76-1.39h.77a.9.9,0,0,0,1,.79c.46,0,1-.16,1-.67s-.36-.6-.9-.69l-.54-.11c-.68-.13-1.21-.47-1.21-1.21s.9-1.19,1.62-1.19a1.59,1.59,0,0,1,1.7,1.24Z"/>
      <path class="cls-3" d="M93.33,153.63v3.46l1.9-2h1l-1.69,1.67,1.85,2.63h-.83L94,157.29l-.66.65v1.49h-.74v-5.8Z"/>
      <path class="cls-3" d="M98.37,154.05h.74v1.08h1.76v.63H99.11v2.49c0,.44,0,.55.43.55h1.33v.63H99.38c-.79,0-1-.18-1-1.08v-2.59H97.15v-.63h1.22Z"/>
      <path class="cls-3" d="M104.55,155.06a2.25,2.25,0,1,1-2,2.23A2,2,0,0,1,104.55,155.06Zm0,3.86c.65,0,1.21-.48,1.21-1.63s-.56-1.62-1.21-1.62-1.22.48-1.22,1.62S103.89,158.92,104.55,158.92Z"/>
      <path class="cls-3" d="M108.75,155.78a1.36,1.36,0,0,1,1.27-.72c1,0,1.73.82,1.73,2.23s-.74,2.24-1.73,2.24a1.37,1.37,0,0,1-1.27-.71v2H108v-5.7h.74Zm1.12,3.15c.73,0,1.11-.61,1.11-1.64s-.38-1.62-1.11-1.62-1.16.49-1.16,1.62S109.25,158.93,109.87,158.93Z"/>
    </g>
    <g>
      <path class="cls-3" d="M332.56,253.05a1.69,1.69,0,0,1,1.9-1.59,1.81,1.81,0,0,1,1.93,1.63h-.76a1.09,1.09,0,0,0-1.21-.93c-.53,0-1.08.26-1.08.86s.38.76.84.87l.57.12c.94.21,1.76.62,1.76,1.72a1.76,1.76,0,0,1-2,1.73,2,2,0,0,1-2.1-1.91h.75a1.28,1.28,0,0,0,1.37,1.21,1,1,0,0,0,1.17-1c0-.6-.46-.87-1.09-1l-.63-.15A1.64,1.64,0,0,1,332.56,253.05Z"/>
      <path class="cls-3" d="M337.72,255.22a2,2,0,0,1,1.95-2.25c1.26,0,2,.92,1.92,2.46H338.5c0,.86.48,1.43,1.16,1.43a1,1,0,0,0,1.11-.79h.76a1.78,1.78,0,0,1-1.86,1.39C338.37,257.46,337.72,256.49,337.72,255.22Zm.79-.4h2.3a1.1,1.1,0,0,0-1.14-1.24C339,253.58,338.54,254,338.51,254.82Z"/>
      <path class="cls-3" d="M344.87,253.05v.77a1.21,1.21,0,0,1,1.15-.77h.73v.68H346c-.83,0-1.15.54-1.15,1.48v1.51h1.47v.64h-3.42v-.64h1.22v-3h-1.23v-.64Z"/>
      <path class="cls-3" d="M350,256.35l1.1-3.3h.77l-1.55,4.31h-.71l-1.55-4.31h.83Z"/>
      <path class="cls-3" d="M353.23,255.22a2,2,0,0,1,1.95-2.25c1.25,0,2,.92,1.92,2.46H354c0,.86.48,1.43,1.16,1.43a1,1,0,0,0,1.11-.79H357a1.76,1.76,0,0,1-1.85,1.39C353.88,257.46,353.23,256.49,353.23,255.22Zm.78-.4h2.3a1.1,1.1,0,0,0-1.13-1.24C354.48,253.58,354,254,354,254.82Z"/>
      <path class="cls-3" d="M360.37,253.05v.77a1.21,1.21,0,0,1,1.15-.77h.74v.68h-.73c-.82,0-1.14.54-1.14,1.48v1.51h1.47v.64h-3.42v-.64h1.21v-3h-1.22v-.64Z"/>
      <path class="cls-3" d="M366.38,254.23c-.1-.48-.47-.64-1-.64s-.86.17-.86.55.22.49.64.58l.48.09c.75.15,1.55.43,1.55,1.29s-.79,1.36-1.72,1.36a1.62,1.62,0,0,1-1.76-1.39h.77a.9.9,0,0,0,1,.78c.46,0,1-.16,1-.66s-.36-.6-.9-.7l-.54-.1c-.68-.14-1.21-.47-1.21-1.22s.9-1.19,1.62-1.19a1.59,1.59,0,0,1,1.7,1.25Z"/>
    </g>
    <g>
      <path class="cls-3" d="M321.69,196.84c1.64,0,3,.68,3,2.89s-1.33,2.9-3,2.9h-1v-5.79Zm0,.72h-.21v4.35h.21c1.08,0,2.22-.21,2.22-2.18S322.74,197.56,321.66,197.56Z"/>
      <path class="cls-3" d="M325.86,201.51c0-1,1.09-1.33,2.85-1.52v-.19a.85.85,0,0,0-1-1,.89.89,0,0,0-1,.86H326a1.64,1.64,0,0,1,1.78-1.45c1.19,0,1.7.53,1.69,1.72v1a15.07,15.07,0,0,0,.06,1.62h-.71V202a1.57,1.57,0,0,1-1.51.74A1.26,1.26,0,0,1,325.86,201.51Zm2.91-.94c-1.32.13-2.12.31-2.12.93,0,.4.3.64.82.64s1.3-.31,1.3-1.45Z"/>
      <path class="cls-3" d="M331.85,197.25h.74v1.08h1.76V199h-1.76v2.49c0,.44,0,.55.43.55h1.33v.63h-1.49c-.78,0-1-.18-1-1.08V199h-1.22v-.63h1.22Z"/>
      <path class="cls-3" d="M336.2,201.51c0-1,1.09-1.33,2.84-1.52v-.19a.85.85,0,0,0-1-1,.89.89,0,0,0-1,.86h-.75a1.66,1.66,0,0,1,1.79-1.45c1.19,0,1.7.53,1.68,1.72v1c0,.72,0,1.33.06,1.62h-.7V202a1.57,1.57,0,0,1-1.51.74A1.26,1.26,0,0,1,336.2,201.51Zm2.9-.94c-1.31.13-2.11.31-2.11.93,0,.4.3.64.82.64s1.29-.31,1.29-1.45Z"/>
      <path class="cls-3" d="M349.25,199.51c-.09-.48-.47-.64-1-.64s-.86.16-.86.55.22.49.65.57l.48.1c.74.14,1.54.42,1.54,1.29s-.78,1.36-1.72,1.36a1.63,1.63,0,0,1-1.76-1.39h.78a.9.9,0,0,0,1,.78c.45,0,1-.16,1-.67s-.36-.59-.91-.69l-.53-.1c-.68-.14-1.22-.48-1.22-1.22s.91-1.19,1.63-1.19a1.58,1.58,0,0,1,1.69,1.25Z"/>
      <path class="cls-3" d="M352.53,197.25h.73v1.08H355V199h-1.76v2.49c0,.44,0,.55.43.55H355v.63h-1.49c-.78,0-1-.18-1-1.08V199H351.3v-.63h1.23Z"/>
      <path class="cls-3" d="M358.7,198.26a2.26,2.26,0,1,1-2,2.24A2,2,0,0,1,358.7,198.26Zm0,3.86c.66,0,1.22-.48,1.22-1.62s-.56-1.63-1.22-1.63-1.21.48-1.21,1.63S358.05,202.12,358.7,202.12Z"/>
      <path class="cls-3" d="M363.92,198.33v.77a1.21,1.21,0,0,1,1.15-.77h.73V199h-.72c-.83,0-1.15.55-1.15,1.49V202h1.48v.63H362V202h1.22v-3H362v-.63Z"/>
      <path class="cls-3" d="M367.21,201.51c0-1,1.08-1.33,2.84-1.52v-.19a.85.85,0,0,0-1-1,.89.89,0,0,0-1,.86h-.75a1.65,1.65,0,0,1,1.78-1.45c1.2,0,1.71.53,1.69,1.72v1a15.07,15.07,0,0,0,.06,1.62h-.71V202a1.58,1.58,0,0,1-1.51.74A1.26,1.26,0,0,1,367.21,201.51Zm2.9-.94c-1.31.13-2.11.31-2.11.93,0,.4.29.64.81.64s1.3-.31,1.3-1.45Z"/>
      <path class="cls-3" d="M375.19,198.33h.73v3.77c0,.88-.11,1.24-.34,1.51a2,2,0,0,1-1.5.57,1.56,1.56,0,0,1-1.73-1.3h.78c.1.39.32.66,1,.66a1.17,1.17,0,0,0,.87-.32c.15-.17.23-.37.23-1v-.41a1.36,1.36,0,0,1-1.27.71c-1,0-1.74-.73-1.74-2.15s.75-2.15,1.74-2.15a1.35,1.35,0,0,1,1.27.72Zm-1.12.54c-.74,0-1.11.52-1.11,1.54s.37,1.54,1.11,1.54,1.15-.41,1.15-1.54S374.69,198.87,374.07,198.87Z"/>
      <path class="cls-3" d="M377.45,200.5a2,2,0,0,1,1.95-2.25c1.25,0,2,.92,1.92,2.46h-3.1c0,.86.48,1.43,1.16,1.43a1,1,0,0,0,1.11-.79h.76a1.76,1.76,0,0,1-1.85,1.39C378.09,202.74,377.45,201.77,377.45,200.5Zm.78-.4h2.3a1.1,1.1,0,0,0-1.13-1.24C378.7,198.86,378.26,199.27,378.23,200.1Z"/>
    </g>
  </g>
</svg>
