<svg xmlns="http://www.w3.org/2000/svg" viewBox="0 0 640 420">
  <defs>
    <style>
      .cls-1 {
        fill: #fff3ff;
      }

      .cls-2 {
        fill: #10162f;
      }

      .cls-3 {
        fill: #f5ffe3;
      }

      .cls-4 {
        fill: #fff4ff;
      }

      .cls-5 {
        fill: #fff9e4;
      }
    </style>
  </defs>
  <g id="BG">
    <g>
      <rect class="cls-1" x="0.75" y="0.42" width="639" height="419"/>
      <path class="cls-2" d="M639.25.92v418H1.25V.92h638m1-1H.25v420h640V-.08Z"/>
    </g>
  </g>
  <g id="all">
    <g>
      <g>
        <rect class="cls-2" x="76.39" y="207" width="484" height="50" rx="15.45"/>
        <path class="cls-2" d="M544.94,257.5H91.84a16,16,0,0,1-16-15.95v-19.1a16,16,0,0,1,16-15.95h453.1a16,16,0,0,1,15.95,15.95v19.1A16,16,0,0,1,544.94,257.5Zm-453.1-50a15,15,0,0,0-15,14.95v19.1a15,15,0,0,0,15,14.95h453.1a15,15,0,0,0,14.95-14.95v-19.1a15,15,0,0,0-14.95-14.95Z"/>
      </g>
      <g>
        <rect class="cls-3" x="80.11" y="203.5" width="483" height="49" rx="14.95"/>
        <path class="cls-2" d="M548.16,204a14.47,14.47,0,0,1,14.45,14.45v19.1A14.47,14.47,0,0,1,548.16,252H95.06a14.46,14.46,0,0,1-14.45-14.45v-19.1A14.46,14.46,0,0,1,95.06,204h453.1m0-1H95.06a15.45,15.45,0,0,0-15.45,15.45v19.1A15.45,15.45,0,0,0,95.06,253h453.1a15.45,15.45,0,0,0,15.45-15.45v-19.1A15.45,15.45,0,0,0,548.16,203Z"/>
      </g>
      <g>
        <rect class="cls-2" x="76.39" y="272" width="484" height="50" rx="15.45"/>
        <path class="cls-2" d="M544.94,322.5H91.84a16,16,0,0,1-16-15.95v-19.1a16,16,0,0,1,16-15.95h453.1a16,16,0,0,1,15.95,15.95v19.1A16,16,0,0,1,544.94,322.5Zm-453.1-50a15,15,0,0,0-15,14.95v19.1a15,15,0,0,0,15,14.95h453.1a15,15,0,0,0,14.95-14.95v-19.1a15,15,0,0,0-14.95-14.95Z"/>
      </g>
      <g>
        <rect class="cls-1" x="80.11" y="268.5" width="483" height="49" rx="14.95"/>
        <path class="cls-2" d="M548.16,269a14.47,14.47,0,0,1,14.45,14.45v19.1A14.47,14.47,0,0,1,548.16,317H95.06a14.46,14.46,0,0,1-14.45-14.45v-19.1A14.46,14.46,0,0,1,95.06,269h453.1m0-1H95.06a15.45,15.45,0,0,0-15.45,15.45v19.1A15.45,15.45,0,0,0,95.06,318h453.1a15.45,15.45,0,0,0,15.45-15.45v-19.1A15.45,15.45,0,0,0,548.16,268Z"/>
      </g>
      <g>
        <rect class="cls-2" x="76.39" y="337" width="484" height="50" rx="15.45"/>
        <path class="cls-2" d="M544.94,387.5H91.84a16,16,0,0,1-16-15.95v-19.1a16,16,0,0,1,16-15.95h453.1a16,16,0,0,1,15.95,15.95v19.1A16,16,0,0,1,544.94,387.5Zm-453.1-50a15,15,0,0,0-15,14.95v19.1a15,15,0,0,0,15,14.95h453.1a15,15,0,0,0,14.95-14.95v-19.1a15,15,0,0,0-14.95-14.95Z"/>
      </g>
      <g>
        <rect class="cls-1" x="80.11" y="333.5" width="483" height="49" rx="14.95"/>
        <path class="cls-2" d="M548.16,334a14.47,14.47,0,0,1,14.45,14.45v19.1A14.47,14.47,0,0,1,548.16,382H95.06a14.46,14.46,0,0,1-14.45-14.45v-19.1A14.46,14.46,0,0,1,95.06,334h453.1m0-1H95.06a15.45,15.45,0,0,0-15.45,15.45v19.1A15.45,15.45,0,0,0,95.06,383h453.1a15.45,15.45,0,0,0,15.45-15.45v-19.1A15.45,15.45,0,0,0,548.16,333Z"/>
      </g>
    </g>
    <g>
      <path class="cls-2" d="M271.74,232.87a3.94,3.94,0,0,1-1.57-1.59,5.76,5.76,0,0,1,0-5,3.91,3.91,0,0,1,1.57-1.6,4.37,4.37,0,0,1,2.15-.54,4,4,0,0,1,2.46.73,3.42,3.42,0,0,1,1.31,2l-1.52.39a2.69,2.69,0,0,0-.82-1.17,2.25,2.25,0,0,0-1.43-.42,2.52,2.52,0,0,0-1.31.35,2.37,2.37,0,0,0-.93,1,3.8,3.8,0,0,0-.35,1.71,3.86,3.86,0,0,0,.35,1.71,2.43,2.43,0,0,0,.93,1,2.51,2.51,0,0,0,1.31.34,2.31,2.31,0,0,0,1.43-.41,2.69,2.69,0,0,0,.82-1.17l1.52.39a3.45,3.45,0,0,1-1.31,2,4,4,0,0,1-2.46.72A4.37,4.37,0,0,1,271.74,232.87Z"/>
      <path class="cls-2" d="M280.3,233a2.91,2.91,0,0,1-1.15-1.21,3.94,3.94,0,0,1,0-3.46,2.91,2.91,0,0,1,1.15-1.21,3.82,3.82,0,0,1,3.56,0A3,3,0,0,1,285,228.3a3.94,3.94,0,0,1,0,3.46,3,3,0,0,1-1.15,1.21,3.82,3.82,0,0,1-3.56,0Zm3-1.51a2.34,2.34,0,0,0,.44-1.43,2.29,2.29,0,0,0-.44-1.42,1.53,1.53,0,0,0-2.4,0,2.29,2.29,0,0,0-.44,1.42,2.34,2.34,0,0,0,.44,1.43,1.55,1.55,0,0,0,2.4,0Z"/>
      <path class="cls-2" d="M288.47,226.76v1.05a3.14,3.14,0,0,1,.9-.85,2.26,2.26,0,0,1,1.13-.31,2.09,2.09,0,0,1,1.47.51,1.93,1.93,0,0,1,.55,1.47v4.68h-1.61v-4.2a1.14,1.14,0,0,0-.26-.82A.91.91,0,0,0,290,228a1.06,1.06,0,0,0-.74.31,2.21,2.21,0,0,0-.55.92,4.35,4.35,0,0,0-.21,1.43v2.62h-1.61v-6.55Z"/>
      <path class="cls-2" d="M295.08,232.8a2.38,2.38,0,0,1-.64-1.81v-2.86h-1v-1.37h1v-1.64l1.61-1v2.66h1.73v1.37h-1.73V231a1.24,1.24,0,0,0,.22.82.82.82,0,0,0,.64.24,1.39,1.39,0,0,0,.63-.15l.37,1.3a2.56,2.56,0,0,1-1.06.23A2.43,2.43,0,0,1,295.08,232.8Z"/>
      <path class="cls-2" d="M299.13,232.89a1.91,1.91,0,0,1-.55-1.47,1.87,1.87,0,0,1,.74-1.56,3.13,3.13,0,0,1,2-.58h1.14V229a.83.83,0,0,0-.32-.72,1.35,1.35,0,0,0-.82-.24,1.1,1.1,0,0,0-1.13.75l-1.37-.31a2.14,2.14,0,0,1,.84-1.32,3.16,3.16,0,0,1,3.69.2,2.7,2.7,0,0,1,.73,2v3.92h-1.33l-.17-.83a2.48,2.48,0,0,1-2,.93A2,2,0,0,1,299.13,232.89Zm2.89-1.23a1.18,1.18,0,0,0,.44-1v-.13h-1.08a1.38,1.38,0,0,0-.82.21.72.72,0,0,0-.29.64.57.57,0,0,0,.2.46.74.74,0,0,0,.52.17A1.53,1.53,0,0,0,302,231.66Z"/>
      <path class="cls-2" d="M305.83,225.61a1,1,0,0,1-.3-.74,1,1,0,0,1,1-1,1,1,0,0,1,.74.3,1,1,0,0,1,.3.74,1,1,0,0,1-1,1A1,1,0,0,1,305.83,225.61Zm-.06,1.15h1.61v6.55h-1.61Z"/>
      <path class="cls-2" d="M310.76,226.76v1.05a3,3,0,0,1,.89-.85,2.27,2.27,0,0,1,1.14-.31,2.08,2.08,0,0,1,1.46.51,1.89,1.89,0,0,1,.55,1.47v4.68h-1.61v-4.2a1.18,1.18,0,0,0-.25-.82.94.94,0,0,0-.69-.26,1.06,1.06,0,0,0-.74.31,2.32,2.32,0,0,0-.55.92,4.65,4.65,0,0,0-.2,1.43v2.62h-1.61v-6.55Z"/>
      <path class="cls-2" d="M322.46,230.55h-4.53a1.76,1.76,0,0,0,.52,1.11,1.47,1.47,0,0,0,1,.37,1.66,1.66,0,0,0,.92-.24,2.24,2.24,0,0,0,.67-.77l1.3.48a3,3,0,0,1-3,1.91,2.94,2.94,0,0,1-1.77-.5,2.91,2.91,0,0,1-1-1.27,4.07,4.07,0,0,1-.33-1.61,4,4,0,0,1,.33-1.6,2.93,2.93,0,0,1,1-1.28,3,3,0,0,1,1.77-.5,2.87,2.87,0,0,1,1.72.49,2.8,2.8,0,0,1,1,1.23,3.68,3.68,0,0,1,.33,1.52Zm-1.65-1.27a1.77,1.77,0,0,0-.47-.9,1.25,1.25,0,0,0-.94-.35,1.38,1.38,0,0,0-.9.32,1.76,1.76,0,0,0-.53.93Z"/>
      <path class="cls-2" d="M325.53,226.76v1.06a2.5,2.5,0,0,1,.85-.86,2,2,0,0,1,1.08-.31,2.89,2.89,0,0,1,.79.13l-.29,1.5a1.31,1.31,0,0,0-.68-.19,1.51,1.51,0,0,0-1.26.7,3.81,3.81,0,0,0-.49,2.19v2.33h-1.62v-6.55Z"/>
      <path class="cls-2" d="M338.39,230.55h-4.52a1.81,1.81,0,0,0,.51,1.11,1.51,1.51,0,0,0,1.05.37,1.68,1.68,0,0,0,.92-.24A2.35,2.35,0,0,0,337,231l1.3.48a3.24,3.24,0,0,1-1.13,1.42,3.2,3.2,0,0,1-1.85.49,2.94,2.94,0,0,1-1.77-.5,2.91,2.91,0,0,1-1-1.27,3.91,3.91,0,0,1-.34-1.61,3.87,3.87,0,0,1,.34-1.6,2.93,2.93,0,0,1,1-1.28,3,3,0,0,1,1.77-.5,2.83,2.83,0,0,1,2.73,1.72,3.67,3.67,0,0,1,.32,1.52Zm-1.65-1.27a1.69,1.69,0,0,0-.46-.9,1.27,1.27,0,0,0-.94-.35,1.36,1.36,0,0,0-.9.32,1.7,1.7,0,0,0-.53.93Z"/>
      <path class="cls-2" d="M341.46,226.76v1.05a2.91,2.91,0,0,1,.9-.85,2.23,2.23,0,0,1,1.13-.31,2.06,2.06,0,0,1,1.46.51,1.9,1.9,0,0,1,.56,1.47v4.68h-1.62v-4.2a1.13,1.13,0,0,0-.25-.82A.93.93,0,0,0,343,228a1,1,0,0,0-.74.31,2.21,2.21,0,0,0-.55.92,4.35,4.35,0,0,0-.21,1.43v2.62h-1.61v-6.55Z"/>
      <path class="cls-2" d="M347.47,235.5a1.8,1.8,0,0,1-.82-1.59,1.7,1.7,0,0,1,.53-1.3,1.57,1.57,0,0,1-.34-1,1.52,1.52,0,0,1,.22-.8,1.64,1.64,0,0,1,.59-.58,2.07,2.07,0,0,1-.45-1.35,2.12,2.12,0,0,1,.31-1.16,2.26,2.26,0,0,1,.87-.78,2.76,2.76,0,0,1,1.22-.27,2.66,2.66,0,0,1,1.21.29l1.23-.65.64,1.06-.93.47a2.08,2.08,0,0,1,.26,1,2.18,2.18,0,0,1-.32,1.17,2.21,2.21,0,0,1-.87.76,2.9,2.9,0,0,1-1.22.26,3,3,0,0,1-1-.15.55.55,0,0,0-.31.5.41.41,0,0,0,.16.35.65.65,0,0,0,.45.13h1.34a2.59,2.59,0,0,1,1.68.5,1.73,1.73,0,0,1,.62,1.42,2,2,0,0,1-.42,1.28,2.53,2.53,0,0,1-1.1.74,4.34,4.34,0,0,1-1.46.24A3.72,3.72,0,0,1,347.47,235.5Zm3.14-1a.65.65,0,0,0,.37-.61.55.55,0,0,0-.27-.53,1.69,1.69,0,0,0-.78-.15H349a5.32,5.32,0,0,1-.75,0,1,1,0,0,0-.15.6.76.76,0,0,0,.41.69,2.05,2.05,0,0,0,1.06.24A2.17,2.17,0,0,0,350.61,234.52Zm-.37-5a.93.93,0,0,0,0-1.29.85.85,0,0,0-.64-.26.91.91,0,0,0-.64,1.55.9.9,0,0,0,.64.25A.88.88,0,0,0,350.24,229.5Z"/>
      <path class="cls-2" d="M353.84,225.61a1,1,0,0,1-.3-.74,1,1,0,0,1,1-1,1,1,0,0,1,.74.3,1,1,0,0,1,.3.74,1,1,0,0,1-1,1A1,1,0,0,1,353.84,225.61Zm-.07,1.15h1.62v6.55h-1.62Z"/>
      <path class="cls-2" d="M358.77,226.76v1.05a3,3,0,0,1,.89-.85,2.26,2.26,0,0,1,1.13-.31,2.09,2.09,0,0,1,1.47.51,1.93,1.93,0,0,1,.55,1.47v4.68H361.2v-4.2a1.14,1.14,0,0,0-.26-.82.91.91,0,0,0-.68-.26,1.06,1.06,0,0,0-.74.31,2.21,2.21,0,0,0-.55.92,4.37,4.37,0,0,0-.2,1.43v2.62h-1.62v-6.55Z"/>
      <path class="cls-2" d="M370.47,230.55h-4.53a1.76,1.76,0,0,0,.52,1.11,1.47,1.47,0,0,0,1,.37,1.66,1.66,0,0,0,.92-.24,2.24,2.24,0,0,0,.67-.77l1.3.48a3.24,3.24,0,0,1-1.13,1.42,3.2,3.2,0,0,1-1.85.49,2.94,2.94,0,0,1-1.77-.5,2.91,2.91,0,0,1-1-1.27,4.08,4.08,0,0,1-.34-1.61,4,4,0,0,1,.34-1.6,2.93,2.93,0,0,1,1-1.28,3,3,0,0,1,1.77-.5,2.83,2.83,0,0,1,2.73,1.72,3.68,3.68,0,0,1,.33,1.52Zm-1.66-1.27a1.69,1.69,0,0,0-.46-.9,1.27,1.27,0,0,0-.94-.35,1.38,1.38,0,0,0-.9.32,1.7,1.7,0,0,0-.53.93Z"/>
    </g>
    <g>
      <path class="cls-2" d="M270.93,297.89a3.82,3.82,0,0,1-1.55-1.56,6,6,0,0,1,0-5.14,3.78,3.78,0,0,1,1.55-1.57,4.75,4.75,0,0,1,4.32,0,3.78,3.78,0,0,1,1.55,1.57,6,6,0,0,1,0,5.14,3.82,3.82,0,0,1-1.55,1.56,4.75,4.75,0,0,1-4.32,0Zm3.45-1.37a2.29,2.29,0,0,0,.93-1,3.73,3.73,0,0,0,.35-1.73,3.77,3.77,0,0,0-.35-1.74,2.32,2.32,0,0,0-.93-1,2.62,2.62,0,0,0-2.58,0,2.32,2.32,0,0,0-.93,1,3.77,3.77,0,0,0-.35,1.74,3.73,3.73,0,0,0,.35,1.73,2.29,2.29,0,0,0,.93,1,2.69,2.69,0,0,0,2.58,0Z"/>
      <path class="cls-2" d="M280.5,291.76v.67a1.41,1.41,0,0,1,.59-.53,1.93,1.93,0,0,1,1-.25,2.73,2.73,0,0,1,2.21.92,3.67,3.67,0,0,1,.78,2.46,3.71,3.71,0,0,1-.78,2.47,2.72,2.72,0,0,1-2.21.91,2.18,2.18,0,0,1-.93-.21,1.73,1.73,0,0,1-.66-.49V301h-1.61v-9.2ZM283,296.5a2.73,2.73,0,0,0,0-2.94,1.36,1.36,0,0,0-1.09-.53,1.33,1.33,0,0,0-1.09.53,2.3,2.3,0,0,0-.42,1.47,2.33,2.33,0,0,0,.42,1.48,1.39,1.39,0,0,0,2.18,0Z"/>
      <path class="cls-2" d="M292.37,295.55h-4.52a1.81,1.81,0,0,0,.51,1.11,1.48,1.48,0,0,0,1.05.37,1.62,1.62,0,0,0,.91-.24A2.24,2.24,0,0,0,291,296l1.3.48a2.94,2.94,0,0,1-3,1.91,2.94,2.94,0,0,1-1.77-.5,3,3,0,0,1-1-1.27,4.07,4.07,0,0,1-.33-1.61,4,4,0,0,1,.33-1.6,2.89,2.89,0,0,1,2.81-1.78,2.87,2.87,0,0,1,1.72.49,2.8,2.8,0,0,1,1,1.23,3.68,3.68,0,0,1,.33,1.52Zm-1.65-1.27a1.76,1.76,0,0,0-.46-.9,1.29,1.29,0,0,0-.95-.35,1.35,1.35,0,0,0-.89.32,1.77,1.77,0,0,0-.54.93Z"/>
      <path class="cls-2" d="M295.44,291.76v1.06a2.59,2.59,0,0,1,.85-.86,2,2,0,0,1,1.08-.31,3,3,0,0,1,.8.13l-.3,1.5a1.31,1.31,0,0,0-.68-.19,1.51,1.51,0,0,0-1.26.7,3.81,3.81,0,0,0-.49,2.19v2.33h-1.61v-6.55Z"/>
      <path class="cls-2" d="M299.12,297.89a2.1,2.1,0,0,1,.18-3,3.13,3.13,0,0,1,2-.58h1.14V294a.83.83,0,0,0-.32-.72,1.35,1.35,0,0,0-.82-.24,1.1,1.1,0,0,0-1.13.75l-1.37-.31a2.14,2.14,0,0,1,.84-1.32,3.16,3.16,0,0,1,3.69.2,2.66,2.66,0,0,1,.73,2v3.92h-1.33l-.17-.83a2.48,2.48,0,0,1-2,.93A2,2,0,0,1,299.12,297.89Zm2.88-1.23a1.18,1.18,0,0,0,.44-1v-.13h-1.07a1.39,1.39,0,0,0-.83.21.72.72,0,0,0-.29.64.57.57,0,0,0,.2.46.75.75,0,0,0,.53.17A1.51,1.51,0,0,0,302,296.66Z"/>
      <path class="cls-2" d="M306.6,297.8A2.41,2.41,0,0,1,306,296v-2.86h-1v-1.37h1v-1.64l1.61-1v2.66h1.73v1.37h-1.73V296a1.24,1.24,0,0,0,.21.82.84.84,0,0,0,.65.24,1.38,1.38,0,0,0,.62-.15l.38,1.3a2.6,2.6,0,0,1-1.07.23A2.46,2.46,0,0,1,306.6,297.8Z"/>
      <path class="cls-2" d="M310.62,290.61a1,1,0,0,1-.3-.74,1,1,0,0,1,1-1,1,1,0,0,1,.74.3,1,1,0,0,1,.3.74,1,1,0,0,1-1,1A1,1,0,0,1,310.62,290.61Zm-.06,1.15h1.61v6.55h-1.61Z"/>
      <path class="cls-2" d="M315.55,291.76v1.05a2.91,2.91,0,0,1,.9-.85,2.2,2.2,0,0,1,1.13-.31,2.08,2.08,0,0,1,1.46.51,1.89,1.89,0,0,1,.55,1.47v4.68H318v-4.2a1.18,1.18,0,0,0-.25-.82A.94.94,0,0,0,317,293a1.06,1.06,0,0,0-.74.31,2.2,2.2,0,0,0-.54.92,4.35,4.35,0,0,0-.21,1.43v2.62h-1.61v-6.55Z"/>
      <path class="cls-2" d="M321.56,300.5a1.8,1.8,0,0,1-.82-1.59,1.67,1.67,0,0,1,.53-1.3,1.67,1.67,0,0,1-.13-1.82,1.67,1.67,0,0,1,.6-.58,2,2,0,0,1-.46-1.35,2.11,2.11,0,0,1,1.19-1.94,2.78,2.78,0,0,1,2.43,0l1.23-.65.64,1.06-.94.47a2.12,2.12,0,0,1-.93,3,2.86,2.86,0,0,1-1.21.26,3,3,0,0,1-.95-.15.56.56,0,0,0-.32.5.43.43,0,0,0,.16.35.7.7,0,0,0,.46.13h1.34a2.54,2.54,0,0,1,1.67.5,1.71,1.71,0,0,1,.63,1.42,1.91,1.91,0,0,1-.43,1.28,2.49,2.49,0,0,1-1.09.74,4.38,4.38,0,0,1-1.46.24A3.68,3.68,0,0,1,321.56,300.5Zm3.13-1a.65.65,0,0,0,.37-.61.55.55,0,0,0-.27-.53,1.63,1.63,0,0,0-.78-.15h-.88a5.36,5.36,0,0,1-.76-.05,1.13,1.13,0,0,0-.14.6.75.75,0,0,0,.4.69,2.58,2.58,0,0,0,2.06,0Zm-.36-5a.91.91,0,0,0-.64-1.55.89.89,0,0,0-.65.26,1,1,0,0,0,0,1.29.92.92,0,0,0,.65.25A.9.9,0,0,0,324.33,294.5Z"/>
      <path class="cls-2" d="M332.26,298.07a3,3,0,0,1-1.09-.92,3.14,3.14,0,0,1-.58-1.29L332,295a3.08,3.08,0,0,0,.66,1.33,1.46,1.46,0,0,0,1.15.51,1.3,1.3,0,0,0,.86-.27,1,1,0,0,0,.32-.81.91.91,0,0,0-.22-.6,2.07,2.07,0,0,0-.55-.45c-.22-.13-.54-.3-.94-.49l-.38-.19a3.64,3.64,0,0,1-1.25-1,2.37,2.37,0,0,1-.47-1.51,2.5,2.5,0,0,1,.32-1.25,2.31,2.31,0,0,1,.9-.88,2.74,2.74,0,0,1,1.32-.32,2.54,2.54,0,0,1,2.57,1.65l-1.36.88a1.24,1.24,0,0,0-1.21-1,1,1,0,0,0-.65.24.77.77,0,0,0-.27.6.87.87,0,0,0,.24.61,2.22,2.22,0,0,0,.58.46c.23.12.56.29,1,.49a6.18,6.18,0,0,1,1.07.61,2.38,2.38,0,0,1,1,2,2.71,2.71,0,0,1-.37,1.44,2.43,2.43,0,0,1-1,.95,3.32,3.32,0,0,1-1.51.33A3.08,3.08,0,0,1,332.26,298.07Z"/>
      <path class="cls-2" d="M341.65,291.76h1.61l-3.38,9.2h-1.56l1.12-3.09-2.36-6.11h1.62l1.5,4Z"/>
      <path class="cls-2" d="M344.61,297.89a2.38,2.38,0,0,1-.9-1.25L345,296a1.88,1.88,0,0,0,.52.79,1.15,1.15,0,0,0,.78.28.89.89,0,0,0,.54-.16.57.57,0,0,0,.22-.47.64.64,0,0,0-.34-.52,6.37,6.37,0,0,0-1-.47,3.08,3.08,0,0,1-1.15-.76,1.8,1.8,0,0,1-.14-2.09,1.83,1.83,0,0,1,.74-.66,2.16,2.16,0,0,1,1.06-.25,2.69,2.69,0,0,1,1.21.28,2.09,2.09,0,0,1,.85.79l-1,.88a1.21,1.21,0,0,0-1.05-.57.77.77,0,0,0-.45.14.43.43,0,0,0-.19.35.54.54,0,0,0,.28.44,4.7,4.7,0,0,0,1.06.49,2.92,2.92,0,0,1,1.18.71,1.58,1.58,0,0,1,.42,1.13,2,2,0,0,1-.62,1.54,2.27,2.27,0,0,1-1.61.58A2.69,2.69,0,0,1,344.61,297.89Z"/>
      <path class="cls-2" d="M350.67,297.8A2.41,2.41,0,0,1,350,296v-2.86h-1v-1.37h1v-1.64l1.61-1v2.66h1.73v1.37h-1.73V296a1.24,1.24,0,0,0,.21.82.84.84,0,0,0,.65.24,1.38,1.38,0,0,0,.62-.15l.38,1.3a2.64,2.64,0,0,1-1.07.23A2.46,2.46,0,0,1,350.67,297.8Z"/>
      <path class="cls-2" d="M360.15,295.55h-4.52a1.81,1.81,0,0,0,.51,1.11,1.48,1.48,0,0,0,1.05.37,1.62,1.62,0,0,0,.91-.24,2.24,2.24,0,0,0,.67-.77l1.3.48a2.94,2.94,0,0,1-3,1.91,2.9,2.9,0,0,1-2.82-1.77A4.07,4.07,0,0,1,354,295a4,4,0,0,1,.33-1.6,2.89,2.89,0,0,1,2.82-1.78,2.86,2.86,0,0,1,1.71.49,2.9,2.9,0,0,1,1,1.23,3.84,3.84,0,0,1,.32,1.52Zm-1.65-1.27a1.76,1.76,0,0,0-.46-.9,1.28,1.28,0,0,0-.94-.35,1.36,1.36,0,0,0-.9.32,1.7,1.7,0,0,0-.53.93Z"/>
      <path class="cls-2" d="M363.22,291.76v1.05a3.14,3.14,0,0,1,.82-.87,2,2,0,0,1,1.06-.29,1.89,1.89,0,0,1,1.13.34,1.82,1.82,0,0,1,.71,1,2.81,2.81,0,0,1,.87-1,2,2,0,0,1,1.13-.36,1.94,1.94,0,0,1,1.43.53,2.08,2.08,0,0,1,.52,1.49v4.64h-1.61v-4.37c0-.61-.27-.91-.81-.91a1.15,1.15,0,0,0-1,.7,4.26,4.26,0,0,0-.4,2v2.55h-1.61v-4.37c0-.61-.27-.91-.8-.91a1.15,1.15,0,0,0-1,.73,4.55,4.55,0,0,0-.4,2.14v2.41h-1.61v-6.55Z"/>
    </g>
    <g>
      <path class="cls-2" d="M258.09,354.21a2.87,2.87,0,0,1,2.12,4.78,2.83,2.83,0,0,1-2.12.76h-1.74v3.56h-1.69v-9.1Zm.82,3.68a1.21,1.21,0,0,0,.31-.91,1.19,1.19,0,0,0-.31-.91,1.24,1.24,0,0,0-.89-.3h-1.67v2.42H258A1.24,1.24,0,0,0,258.91,357.89Z"/>
      <path class="cls-2" d="M263.9,354.1v3.71a2.47,2.47,0,0,1,.86-.84,2.39,2.39,0,0,1,1.22-.32,2.13,2.13,0,0,1,1.49.5,1.9,1.9,0,0,1,.55,1.48v4.68h-1.61V359.2a1.34,1.34,0,0,0-.24-.88.89.89,0,0,0-.74-.29,1.21,1.21,0,0,0-.74.27,2,2,0,0,0-.57.83,3.87,3.87,0,0,0-.22,1.41v2.77h-1.61V354.1Z"/>
      <path class="cls-2" d="M273.34,356.76H275l-3.38,9.2H270l1.12-3.09-2.37-6.11h1.63l1.49,4Z"/>
      <path class="cls-2" d="M276.29,362.89a2.49,2.49,0,0,1-.9-1.25l1.29-.68a1.87,1.87,0,0,0,.51.79,1.16,1.16,0,0,0,.79.28.86.86,0,0,0,.53-.16.55.55,0,0,0,.22-.47.62.62,0,0,0-.34-.52,5.81,5.81,0,0,0-1-.47,3,3,0,0,1-1.15-.76,1.8,1.8,0,0,1-.14-2.09,1.8,1.8,0,0,1,.73-.66,2.2,2.2,0,0,1,1.07-.25,2.73,2.73,0,0,1,1.21.28,2.07,2.07,0,0,1,.84.79l-1,.88a1.21,1.21,0,0,0-1.05-.57.73.73,0,0,0-.45.14.41.41,0,0,0-.19.35.55.55,0,0,0,.27.44,4.84,4.84,0,0,0,1.07.49,3,3,0,0,1,1.18.71,1.58,1.58,0,0,1,.42,1.13,2,2,0,0,1-.63,1.54,2.24,2.24,0,0,1-1.61.58A2.73,2.73,0,0,1,276.29,362.89Z"/>
      <path class="cls-2" d="M281.67,355.61a1,1,0,0,1-.3-.74,1,1,0,0,1,1-1,1,1,0,0,1,.74.3,1,1,0,0,1,.3.74,1,1,0,0,1-1,1A1,1,0,0,1,281.67,355.61Zm-.06,1.15h1.61v6.55h-1.61Z"/>
      <path class="cls-2" d="M286.1,363a2.83,2.83,0,0,1-1.09-1.21,4,4,0,0,1-.36-1.72,4,4,0,0,1,.36-1.71,2.8,2.8,0,0,1,1.09-1.22,3.22,3.22,0,0,1,1.74-.45,3.43,3.43,0,0,1,1.86.48,2.79,2.79,0,0,1,1.12,1.39l-1.44.59a2,2,0,0,0-.63-.81,1.51,1.51,0,0,0-.91-.27,1.28,1.28,0,0,0-1.12.55,3,3,0,0,0,0,2.9,1.28,1.28,0,0,0,1.12.55,1.51,1.51,0,0,0,.91-.27,2.08,2.08,0,0,0,.63-.8l1.44.58a2.82,2.82,0,0,1-1.12,1.4,3.52,3.52,0,0,1-1.86.47A3.22,3.22,0,0,1,286.1,363Z"/>
      <path class="cls-2" d="M292.29,362.89a2.1,2.1,0,0,1,.18-3,3.15,3.15,0,0,1,2-.58h1.15V359a.83.83,0,0,0-.33-.72,1.33,1.33,0,0,0-.82-.24,1.1,1.1,0,0,0-1.13.75l-1.36-.31a2.06,2.06,0,0,1,.84-1.32,2.74,2.74,0,0,1,1.65-.5,2.79,2.79,0,0,1,2,.7,2.7,2.7,0,0,1,.72,2v3.92h-1.32l-.17-.83a2.51,2.51,0,0,1-2,.93A2,2,0,0,1,292.29,362.89Zm2.89-1.23a1.21,1.21,0,0,0,.44-1v-.13h-1.08a1.41,1.41,0,0,0-.83.21.74.74,0,0,0-.29.64.6.6,0,0,0,.2.46.77.77,0,0,0,.53.17A1.55,1.55,0,0,0,295.18,361.66Z"/>
      <path class="cls-2" d="M298.92,354.1h1.61v9.21h-1.61Z"/>
      <path class="cls-2" d="M305.71,354.21h1.69v9.1h-1.69Z"/>
      <path class="cls-2" d="M310.87,356.76v1.05a3,3,0,0,1,.89-.85,2.27,2.27,0,0,1,1.14-.31,2.08,2.08,0,0,1,1.46.51,1.89,1.89,0,0,1,.55,1.47v4.68H313.3v-4.2a1.14,1.14,0,0,0-.26-.82.9.9,0,0,0-.68-.26,1.06,1.06,0,0,0-.74.31,2.2,2.2,0,0,0-.54.92,4.35,4.35,0,0,0-.21,1.43v2.62h-1.61v-6.55Z"/>
      <path class="cls-2" d="M315.87,358.13v-1.37h.84v-.34A2.06,2.06,0,0,1,319,354.1a2.59,2.59,0,0,1,1.22.26l-.35,1.3a2.07,2.07,0,0,0-.78-.18c-.5,0-.74.27-.74.82v.46h1.37v1.37h-1.37v5.18h-1.61v-5.18Z"/>
      <path class="cls-2" d="M322.35,356.76v1.06a2.59,2.59,0,0,1,.85-.86,2,2,0,0,1,1.08-.31,3,3,0,0,1,.8.13l-.3,1.5a1.31,1.31,0,0,0-.68-.19,1.51,1.51,0,0,0-1.26.7,3.81,3.81,0,0,0-.49,2.19v2.33h-1.62v-6.55Z"/>
      <path class="cls-2" d="M326,362.89a2.1,2.1,0,0,1,.18-3,3.13,3.13,0,0,1,2-.58h1.14V359a.83.83,0,0,0-.32-.72,1.35,1.35,0,0,0-.82-.24,1.1,1.1,0,0,0-1.13.75l-1.37-.31a2.14,2.14,0,0,1,.84-1.32,3.16,3.16,0,0,1,3.69.2,2.7,2.7,0,0,1,.72,2v3.92h-1.32l-.17-.83a2.48,2.48,0,0,1-2,.93A2,2,0,0,1,326,362.89Zm2.88-1.23a1.18,1.18,0,0,0,.44-1v-.13h-1.08a1.38,1.38,0,0,0-.82.21.72.72,0,0,0-.29.64.57.57,0,0,0,.2.46.74.74,0,0,0,.52.17A1.53,1.53,0,0,0,328.91,361.66Z"/>
      <path class="cls-2" d="M333,362.89a2.49,2.49,0,0,1-.9-1.25l1.28-.68a2,2,0,0,0,.52.79,1.15,1.15,0,0,0,.78.28.89.89,0,0,0,.54-.16.55.55,0,0,0,.22-.47.62.62,0,0,0-.34-.52,6.19,6.19,0,0,0-1-.47,2.92,2.92,0,0,1-1.15-.76,1.64,1.64,0,0,1-.41-1.17,1.75,1.75,0,0,1,.26-.92,1.89,1.89,0,0,1,.74-.66,2.16,2.16,0,0,1,1.06-.25,2.66,2.66,0,0,1,1.21.28,2,2,0,0,1,.85.79l-1,.88a1.23,1.23,0,0,0-1.06-.57.77.77,0,0,0-.45.14.42.42,0,0,0-.18.35.55.55,0,0,0,.27.44,4.93,4.93,0,0,0,1.06.49,3,3,0,0,1,1.19.71,1.62,1.62,0,0,1,.41,1.13,2,2,0,0,1-.62,1.54,2.26,2.26,0,0,1-1.61.58A2.71,2.71,0,0,1,333,362.89Z"/>
      <path class="cls-2" d="M339,362.8a2.38,2.38,0,0,1-.64-1.81v-2.86h-1v-1.37h1v-1.64l1.61-1v2.66h1.73v1.37H340V361a1.24,1.24,0,0,0,.21.82.84.84,0,0,0,.65.24,1.35,1.35,0,0,0,.62-.15l.38,1.3a2.6,2.6,0,0,1-1.07.23A2.42,2.42,0,0,1,339,362.8Z"/>
      <path class="cls-2" d="M344.49,356.76v1.06a2.5,2.5,0,0,1,.85-.86,2,2,0,0,1,1.08-.31,2.89,2.89,0,0,1,.79.13l-.29,1.5a1.31,1.31,0,0,0-.68-.19,1.51,1.51,0,0,0-1.26.7,3.81,3.81,0,0,0-.49,2.19v2.33h-1.62v-6.55Z"/>
      <path class="cls-2" d="M348.74,362.9a1.89,1.89,0,0,1-.55-1.46v-4.68h1.61V361a1.11,1.11,0,0,0,.26.81.86.86,0,0,0,.68.26,1.06,1.06,0,0,0,.74-.31,2.15,2.15,0,0,0,.55-.92,4.65,4.65,0,0,0,.2-1.43v-2.61h1.62v6.55h-1.62v-1.06a3,3,0,0,1-.89.85,2.16,2.16,0,0,1-1.13.31A2.09,2.09,0,0,1,348.74,362.9Z"/>
      <path class="cls-2" d="M356.75,363a2.81,2.81,0,0,1-1.08-1.21,3.87,3.87,0,0,1-.37-1.72,3.83,3.83,0,0,1,.37-1.71,2.78,2.78,0,0,1,1.08-1.22,3.23,3.23,0,0,1,1.75-.45,3.4,3.4,0,0,1,1.85.48,2.81,2.81,0,0,1,1.13,1.39l-1.45.59a2,2,0,0,0-.63-.81,1.48,1.48,0,0,0-.9-.27,1.25,1.25,0,0,0-1.12.55,2.89,2.89,0,0,0,0,2.9,1.25,1.25,0,0,0,1.12.55,1.48,1.48,0,0,0,.9-.27,2.08,2.08,0,0,0,.63-.8l1.45.58a2.83,2.83,0,0,1-1.13,1.4,3.48,3.48,0,0,1-1.85.47A3.23,3.23,0,0,1,356.75,363Z"/>
      <path class="cls-2" d="M363.71,362.8a2.41,2.41,0,0,1-.63-1.81v-2.86h-1v-1.37h1v-1.64l1.61-1v2.66h1.73v1.37h-1.73V361a1.24,1.24,0,0,0,.21.82.82.82,0,0,0,.64.24,1.39,1.39,0,0,0,.63-.15l.38,1.3a2.64,2.64,0,0,1-1.07.23A2.46,2.46,0,0,1,363.71,362.8Z"/>
      <path class="cls-2" d="M368,362.9a1.86,1.86,0,0,1-.56-1.46v-4.68H369V361a1.11,1.11,0,0,0,.25.81.89.89,0,0,0,.68.26,1,1,0,0,0,.74-.31,2.15,2.15,0,0,0,.55-.92,4.35,4.35,0,0,0,.21-1.43v-2.61h1.61v6.55h-1.61v-1.06a2.91,2.91,0,0,1-.9.85,2.14,2.14,0,0,1-1.13.31A2.06,2.06,0,0,1,368,362.9Z"/>
      <path class="cls-2" d="M376.49,356.76v1.06a2.53,2.53,0,0,1,.86-.86,2,2,0,0,1,1.08-.31,3,3,0,0,1,.79.13l-.3,1.5a1.28,1.28,0,0,0-.67-.19,1.48,1.48,0,0,0-1.26.7,3.81,3.81,0,0,0-.5,2.19v2.33h-1.61v-6.55Z"/>
      <path class="cls-2" d="M385.84,360.55h-4.53a1.76,1.76,0,0,0,.52,1.11,1.47,1.47,0,0,0,1,.37,1.66,1.66,0,0,0,.92-.24,2.24,2.24,0,0,0,.67-.77l1.3.48a2.94,2.94,0,0,1-3,1.91,2.94,2.94,0,0,1-1.77-.5,3,3,0,0,1-1-1.27,4.07,4.07,0,0,1-.33-1.61,4,4,0,0,1,.33-1.6,2.89,2.89,0,0,1,2.81-1.78,2.87,2.87,0,0,1,1.72.49,2.8,2.8,0,0,1,1,1.23,3.68,3.68,0,0,1,.33,1.52Zm-1.65-1.27a1.76,1.76,0,0,0-.46-.9,1.29,1.29,0,0,0-1-.35,1.35,1.35,0,0,0-.89.32,1.71,1.71,0,0,0-.54.93Z"/>
    </g>
    <g>
      <g>
        <g>
          <path class="cls-2" d="M89,40.66H191.66a13.56,13.56,0,0,1,13.56,13.56v96.22A13.56,13.56,0,0,1,191.66,164H90a13.56,13.56,0,0,1-13.56-13.56V53.22A12.56,12.56,0,0,1,89,40.66Z"/>
          <path class="cls-2" d="M191.66,164.5H90a14.07,14.07,0,0,1-14-14.06V53.22A13.07,13.07,0,0,1,89,40.16H191.66a14.08,14.08,0,0,1,14.06,14.06v96.22A14.08,14.08,0,0,1,191.66,164.5ZM89,41.16a12.06,12.06,0,0,0-12,12.06v97.22A13.07,13.07,0,0,0,90,163.5H191.66a13.08,13.08,0,0,0,13.06-13.06V54.22a13.08,13.08,0,0,0-13.06-13.06Z"/>
        </g>
        <g>
          <path class="cls-4" d="M94.34,159.15A13.07,13.07,0,0,1,81.28,146.1V48.87a13.07,13.07,0,0,1,13.06-13H195a14.06,14.06,0,0,1,14.05,14V146.1A13.06,13.06,0,0,1,196,159.15Z"/>
          <path class="cls-2" d="M195,36.32a13.57,13.57,0,0,1,13.55,13.55V146.1A12.56,12.56,0,0,1,196,158.65H94.34A12.57,12.57,0,0,1,81.78,146.1V48.87A12.57,12.57,0,0,1,94.34,36.32H195m0-1H94.34A13.56,13.56,0,0,0,80.78,48.87V146.1a13.56,13.56,0,0,0,13.56,13.55H196a13.55,13.55,0,0,0,13.55-13.55V49.87A14.6,14.6,0,0,0,195,35.32Z"/>
        </g>
      </g>
      <g>
        <path class="cls-2" d="M118.5,146.11a4,4,0,0,1-1.56-1.6,5.68,5.68,0,0,1,0-5,4,4,0,0,1,1.56-1.59,4.43,4.43,0,0,1,2.15-.54,4.08,4.08,0,0,1,2.47.72,3.44,3.44,0,0,1,1.3,2l-1.52.39a2.61,2.61,0,0,0-.82-1.17,2.29,2.29,0,0,0-1.43-.41,2.54,2.54,0,0,0-1.31.34,2.43,2.43,0,0,0-.93,1,3.86,3.86,0,0,0-.34,1.71,3.8,3.8,0,0,0,.34,1.71,2.43,2.43,0,0,0,.93,1,2.54,2.54,0,0,0,1.31.35,2.23,2.23,0,0,0,1.43-.42,2.61,2.61,0,0,0,.82-1.17l1.52.39a3.41,3.41,0,0,1-1.3,2,4.09,4.09,0,0,1-2.47.73A4.43,4.43,0,0,1,118.5,146.11Z"/>
        <path class="cls-2" d="M127.06,146.2a2.92,2.92,0,0,1-1.15-1.21,4,4,0,0,1,0-3.45,2.92,2.92,0,0,1,1.15-1.21,3.43,3.43,0,0,1,1.78-.44,3.38,3.38,0,0,1,1.78.44,2.88,2.88,0,0,1,1.16,1.21,4,4,0,0,1,0,3.45,2.88,2.88,0,0,1-1.16,1.21,3.39,3.39,0,0,1-1.78.45A3.44,3.44,0,0,1,127.06,146.2Zm3-1.51a2.53,2.53,0,0,0,0-2.85,1.52,1.52,0,0,0-2.39,0,2.53,2.53,0,0,0,0,2.85,1.52,1.52,0,0,0,2.39,0Z"/>
        <path class="cls-2" d="M135.24,140v1a3,3,0,0,1,.9-.84,2.11,2.11,0,0,1,1.13-.31,2.06,2.06,0,0,1,1.46.5,1.89,1.89,0,0,1,.55,1.47v4.68h-1.61v-4.2a1.15,1.15,0,0,0-.25-.82.93.93,0,0,0-.68-.26,1.1,1.1,0,0,0-.75.32,2.2,2.2,0,0,0-.54.91,4.42,4.42,0,0,0-.21,1.44v2.61h-1.61V140Z"/>
        <path class="cls-2" d="M141.84,146a2.39,2.39,0,0,1-.63-1.8v-2.86h-1V140h1v-1.64l1.61-1V140h1.73v1.38h-1.73v2.83a1.27,1.27,0,0,0,.21.83.84.84,0,0,0,.65.24,1.27,1.27,0,0,0,.62-.16l.38,1.3a2.71,2.71,0,0,1-2.84-.38Z"/>
        <path class="cls-2" d="M145.9,146.13a1.93,1.93,0,0,1-.56-1.47,1.9,1.9,0,0,1,.74-1.56,3.15,3.15,0,0,1,2-.59h1.15v-.28a.84.84,0,0,0-.33-.73,1.33,1.33,0,0,0-.82-.24A1.11,1.11,0,0,0,147,142l-1.36-.31a2,2,0,0,1,.84-1.32,2.65,2.65,0,0,1,1.65-.5,2.83,2.83,0,0,1,2,.69,2.72,2.72,0,0,1,.72,2v3.91h-1.33l-.16-.83a2.52,2.52,0,0,1-2,.94A2,2,0,0,1,145.9,146.13Zm2.89-1.23a1.24,1.24,0,0,0,.44-1v-.13h-1.08a1.42,1.42,0,0,0-.83.2.74.74,0,0,0-.29.64.58.58,0,0,0,.2.46.77.77,0,0,0,.53.18A1.61,1.61,0,0,0,148.79,144.9Z"/>
        <path class="cls-2" d="M152.6,138.85a1.08,1.08,0,0,1,0-1.49,1,1,0,0,1,.74-.3,1,1,0,1,1,0,2.08A1,1,0,0,1,152.6,138.85Zm-.07,1.14h1.61v6.55h-1.61Z"/>
        <path class="cls-2" d="M157.52,140v1a3,3,0,0,1,.9-.84,2.14,2.14,0,0,1,1.13-.31,2.06,2.06,0,0,1,1.46.5,1.9,1.9,0,0,1,.56,1.47v4.68H160v-4.2a1.15,1.15,0,0,0-.25-.82.93.93,0,0,0-.68-.26,1.06,1.06,0,0,0-.74.32,2.11,2.11,0,0,0-.55.91,4.42,4.42,0,0,0-.21,1.44v2.61h-1.61V140Z"/>
        <path class="cls-2" d="M169.22,143.79H164.7a1.8,1.8,0,0,0,.51,1.1,1.49,1.49,0,0,0,1,.38,1.55,1.55,0,0,0,.91-.25,2.15,2.15,0,0,0,.67-.77l1.3.48a3.16,3.16,0,0,1-1.12,1.42,3.21,3.21,0,0,1-1.85.5,3.06,3.06,0,0,1-1.78-.5,3,3,0,0,1-1-1.28,4,4,0,0,1-.33-1.6,4.07,4.07,0,0,1,.33-1.61,2.92,2.92,0,0,1,1-1.27,3,3,0,0,1,1.78-.5,2.92,2.92,0,0,1,1.71.48,3,3,0,0,1,1,1.23,3.88,3.88,0,0,1,.32,1.52Zm-1.65-1.28a1.84,1.84,0,0,0-.46-.9,1.27,1.27,0,0,0-.94-.35,1.36,1.36,0,0,0-.9.32,1.7,1.7,0,0,0-.53.93Z"/>
        <path class="cls-2" d="M172.29,140v1.07a2.56,2.56,0,0,1,.86-.87,2.1,2.1,0,0,1,1.08-.3,2.65,2.65,0,0,1,.79.13l-.3,1.49a1.28,1.28,0,0,0-.68-.18,1.49,1.49,0,0,0-1.26.69,3.94,3.94,0,0,0-.49,2.19v2.33h-1.61V140Z"/>
      </g>
      <g>
        <rect class="cls-5" x="103.26" y="57.5" width="85.57" height="23" rx="4.87"/>
        <path class="cls-2" d="M184,58a4.37,4.37,0,0,1,4.37,4.37V75.63A4.37,4.37,0,0,1,184,80H108.13a4.37,4.37,0,0,1-4.37-4.37V62.37A4.37,4.37,0,0,1,108.13,58H184m0-1H108.13a5.36,5.36,0,0,0-5.37,5.37V75.63A5.36,5.36,0,0,0,108.13,81H184a5.37,5.37,0,0,0,5.37-5.37V62.37A5.37,5.37,0,0,0,184,57Z"/>
      </g>
      <g>
        <path class="cls-2" d="M142.41,72.37h-.82l-.39-1.24H139l-.39,1.24h-.81l1.9-5.8h.81Zm-3.2-2H141l-.88-2.83Z"/>
        <path class="cls-2" d="M144.3,68.71a1.38,1.38,0,0,1,1.27-.72c1,0,1.73.83,1.73,2.24s-.74,2.24-1.73,2.24a1.37,1.37,0,0,1-1.27-.71v2h-.74V68.06h.74Zm1.12,3.15c.73,0,1.11-.61,1.11-1.63s-.38-1.62-1.11-1.62-1.15.49-1.15,1.62S144.8,71.86,145.42,71.86Z"/>
        <path class="cls-2" d="M149.47,68.71a1.38,1.38,0,0,1,1.27-.72c1,0,1.73.83,1.73,2.24s-.74,2.24-1.73,2.24a1.37,1.37,0,0,1-1.27-.71v2h-.74V68.06h.74Zm1.11,3.15c.74,0,1.12-.61,1.12-1.63s-.38-1.62-1.12-1.62-1.15.49-1.15,1.62S150,71.86,150.58,71.86Z"/>
      </g>
      <g>
        <rect class="cls-5" x="103.26" y="89.5" width="85.57" height="23" rx="4.87"/>
        <path class="cls-2" d="M184,90a4.37,4.37,0,0,1,4.37,4.37v13.26A4.37,4.37,0,0,1,184,112H108.13a4.37,4.37,0,0,1-4.37-4.37V94.37A4.37,4.37,0,0,1,108.13,90H184m0-1H108.13a5.36,5.36,0,0,0-5.37,5.37v13.26a5.36,5.36,0,0,0,5.37,5.37H184a5.37,5.37,0,0,0,5.37-5.37V94.37A5.37,5.37,0,0,0,184,89Z"/>
      </g>
      <g>
        <path class="cls-2" d="M117,98.57c1.65,0,3,.68,3,2.89s-1.33,2.91-3,2.91h-1v-5.8Zm0,.72h-.21v4.36H117c1.08,0,2.22-.22,2.22-2.19S118.06,99.29,117,99.29Z"/>
        <path class="cls-2" d="M121.08,102.23a2,2,0,0,1,2-2.25c1.26,0,2,.92,1.92,2.46h-3.09c0,.86.48,1.43,1.16,1.43a1,1,0,0,0,1.11-.79h.76a1.78,1.78,0,0,1-1.86,1.39C121.73,104.47,121.08,103.5,121.08,102.23Zm.79-.4h2.3a1.1,1.1,0,0,0-1.14-1.24C122.34,100.59,121.9,101,121.87,101.83Z"/>
        <path class="cls-2" d="M127.21,100.71a1.38,1.38,0,0,1,1.27-.72c1,0,1.74.83,1.74,2.24s-.75,2.24-1.74,2.24a1.37,1.37,0,0,1-1.27-.71v2h-.74v-5.71h.74Zm1.12,3.15c.73,0,1.11-.61,1.11-1.63s-.38-1.62-1.11-1.62-1.15.49-1.15,1.62S127.71,103.86,128.33,103.86Z"/>
        <path class="cls-2" d="M131.42,102.23a2,2,0,0,1,2-2.25c1.25,0,2,.92,1.92,2.46h-3.1c0,.86.48,1.43,1.16,1.43a1,1,0,0,0,1.11-.79h.76a1.76,1.76,0,0,1-1.85,1.39C132.07,104.47,131.42,103.5,131.42,102.23Zm.78-.4h2.3a1.1,1.1,0,0,0-1.13-1.24C132.67,100.59,132.23,101,132.2,101.83Z"/>
        <path class="cls-2" d="M137.58,100.67a1.33,1.33,0,0,1,1.26-.68c1,0,1.35.69,1.35,1.64v2.74h-.73v-2.48c0-.7-.06-1.27-.86-1.27s-1,.49-1,1.41v2.34h-.74v-4.31h.74Z"/>
        <path class="cls-2" d="M144.65,98.57h.73v5.8h-.72v-.61a1.37,1.37,0,0,1-1.27.71c-1,0-1.74-.82-1.74-2.24s.75-2.24,1.74-2.24a1.38,1.38,0,0,1,1.27.72Zm-1.12,2c-.74,0-1.11.6-1.11,1.62s.37,1.63,1.11,1.63,1.15-.5,1.15-1.63S144.14,100.61,143.53,100.61Z"/>
        <path class="cls-2" d="M146.92,102.23a2,2,0,0,1,2-2.25c1.26,0,2,.92,1.92,2.46H147.7c0,.86.48,1.43,1.16,1.43a1,1,0,0,0,1.11-.79h.76a1.78,1.78,0,0,1-1.86,1.39C147.57,104.47,146.92,103.5,146.92,102.23Zm.79-.4H150a1.11,1.11,0,0,0-1.14-1.24C148.18,100.59,147.74,101,147.71,101.83Z"/>
        <path class="cls-2" d="M153.08,100.67a1.35,1.35,0,0,1,1.26-.68c1,0,1.36.69,1.36,1.64v2.74H155v-2.48c0-.7-.06-1.27-.86-1.27s-1,.49-1,1.41v2.34h-.73v-4.31h.73Z"/>
        <path class="cls-2" d="M161,101.5h-.74a1,1,0,0,0-1-.9c-.64,0-1.16.55-1.16,1.63s.52,1.64,1.16,1.64a1.06,1.06,0,0,0,1.05-.89H161a1.79,1.79,0,0,1-1.85,1.49c-1.19,0-1.9-.93-1.9-2.24a2,2,0,0,1,2-2.24A1.68,1.68,0,0,1,161,101.5Z"/>
        <path class="cls-2" d="M164.79,100.06v3.67H166v.64h-3.18v-.64h1.22v-3h-1.22v-.64Zm0-1.49v.87h-.73v-.87Z"/>
        <path class="cls-2" d="M167.59,102.23a2,2,0,0,1,1.95-2.25c1.26,0,2,.92,1.92,2.46h-3.09c0,.86.48,1.43,1.16,1.43a1,1,0,0,0,1.11-.79h.76a1.78,1.78,0,0,1-1.86,1.39C168.24,104.47,167.59,103.5,167.59,102.23Zm.79-.4h2.3a1.1,1.1,0,0,0-1.14-1.24C168.85,100.59,168.41,101,168.38,101.83Z"/>
        <path class="cls-2" d="M175.58,101.24c-.1-.48-.48-.64-1-.64s-.87.17-.87.55.23.49.65.58l.48.09c.74.15,1.54.43,1.54,1.29s-.78,1.36-1.71,1.36a1.61,1.61,0,0,1-1.76-1.39h.77a.9.9,0,0,0,1,.78c.46,0,1-.16,1-.66s-.36-.6-.9-.7l-.54-.1c-.68-.14-1.21-.47-1.21-1.22s.9-1.19,1.62-1.19a1.58,1.58,0,0,1,1.69,1.25Z"/>
      </g>
    </g>
    <g>
      <g>
        <g>
          <path class="cls-2" d="M266,40.66H368.66a13.56,13.56,0,0,1,13.56,13.56v96.22A13.56,13.56,0,0,1,368.66,164H267a13.56,13.56,0,0,1-13.56-13.56V53.22A12.56,12.56,0,0,1,266,40.66Z"/>
          <path class="cls-2" d="M368.66,164.5H267a14.07,14.07,0,0,1-14.05-14.06V53.22A13.07,13.07,0,0,1,266,40.16H368.66a14.08,14.08,0,0,1,14.06,14.06v96.22A14.08,14.08,0,0,1,368.66,164.5ZM266,41.16a12.06,12.06,0,0,0-12.05,12.06v97.22A13.07,13.07,0,0,0,267,163.5H368.66a13.08,13.08,0,0,0,13.06-13.06V54.22a13.08,13.08,0,0,0-13.06-13.06Z"/>
        </g>
        <g>
          <path class="cls-4" d="M271.34,159.15a13.07,13.07,0,0,1-13.06-13.05V48.87a13.07,13.07,0,0,1,13.06-13H372a14.06,14.06,0,0,1,14.05,14V146.1A13.06,13.06,0,0,1,373,159.15Z"/>
          <path class="cls-2" d="M372,36.32a13.57,13.57,0,0,1,13.55,13.55V146.1A12.56,12.56,0,0,1,373,158.65H271.34a12.57,12.57,0,0,1-12.56-12.55V48.87a12.57,12.57,0,0,1,12.56-12.55H372m0-1H271.34a13.56,13.56,0,0,0-13.56,13.55V146.1a13.56,13.56,0,0,0,13.56,13.55H373a13.55,13.55,0,0,0,13.55-13.55V49.87A14.6,14.6,0,0,0,372,35.32Z"/>
        </g>
      </g>
      <g>
        <path class="cls-2" d="M295.5,146.11a4,4,0,0,1-1.56-1.6,5.68,5.68,0,0,1,0-5,4,4,0,0,1,1.56-1.59,4.43,4.43,0,0,1,2.15-.54,4.08,4.08,0,0,1,2.47.72,3.44,3.44,0,0,1,1.3,2l-1.52.39a2.61,2.61,0,0,0-.82-1.17,2.29,2.29,0,0,0-1.43-.41,2.54,2.54,0,0,0-1.31.34,2.43,2.43,0,0,0-.93,1,3.86,3.86,0,0,0-.34,1.71,3.8,3.8,0,0,0,.34,1.71,2.43,2.43,0,0,0,.93,1,2.54,2.54,0,0,0,1.31.35,2.23,2.23,0,0,0,1.43-.42,2.61,2.61,0,0,0,.82-1.17l1.52.39a3.41,3.41,0,0,1-1.3,2,4.09,4.09,0,0,1-2.47.73A4.43,4.43,0,0,1,295.5,146.11Z"/>
        <path class="cls-2" d="M304.06,146.2a2.92,2.92,0,0,1-1.15-1.21,4,4,0,0,1,0-3.45,2.92,2.92,0,0,1,1.15-1.21,3.43,3.43,0,0,1,1.78-.44,3.38,3.38,0,0,1,1.78.44,2.88,2.88,0,0,1,1.16,1.21,4,4,0,0,1,0,3.45,2.88,2.88,0,0,1-1.16,1.21,3.39,3.39,0,0,1-1.78.45A3.44,3.44,0,0,1,304.06,146.2Zm3-1.51a2.53,2.53,0,0,0,0-2.85,1.52,1.52,0,0,0-2.39,0,2.53,2.53,0,0,0,0,2.85,1.52,1.52,0,0,0,2.39,0Z"/>
        <path class="cls-2" d="M312.24,140v1a3,3,0,0,1,.9-.84,2.11,2.11,0,0,1,1.13-.31,2.06,2.06,0,0,1,1.46.5,1.89,1.89,0,0,1,.55,1.47v4.68h-1.61v-4.2a1.15,1.15,0,0,0-.25-.82.93.93,0,0,0-.68-.26,1.1,1.1,0,0,0-.75.32,2.2,2.2,0,0,0-.54.91,4.42,4.42,0,0,0-.21,1.44v2.61h-1.61V140Z"/>
        <path class="cls-2" d="M318.84,146a2.39,2.39,0,0,1-.63-1.8v-2.86h-1V140h1v-1.64l1.61-1V140h1.73v1.38h-1.73v2.83a1.27,1.27,0,0,0,.21.83.84.84,0,0,0,.65.24,1.27,1.27,0,0,0,.62-.16l.38,1.3a2.71,2.71,0,0,1-2.84-.38Z"/>
        <path class="cls-2" d="M322.9,146.13a1.93,1.93,0,0,1-.56-1.47,1.9,1.9,0,0,1,.74-1.56,3.15,3.15,0,0,1,2-.59h1.15v-.28a.84.84,0,0,0-.33-.73,1.33,1.33,0,0,0-.82-.24A1.11,1.11,0,0,0,324,142l-1.36-.31a2,2,0,0,1,.84-1.32,2.65,2.65,0,0,1,1.65-.5,2.83,2.83,0,0,1,2,.69,2.72,2.72,0,0,1,.72,2v3.91h-1.33l-.16-.83a2.52,2.52,0,0,1-2,.94A2,2,0,0,1,322.9,146.13Zm2.89-1.23a1.24,1.24,0,0,0,.44-1v-.13h-1.08a1.42,1.42,0,0,0-.83.2.74.74,0,0,0-.29.64.58.58,0,0,0,.2.46.77.77,0,0,0,.53.18A1.61,1.61,0,0,0,325.79,144.9Z"/>
        <path class="cls-2" d="M329.6,138.85a1.08,1.08,0,0,1,0-1.49,1,1,0,0,1,.74-.3,1,1,0,1,1,0,2.08A1,1,0,0,1,329.6,138.85Zm-.07,1.14h1.61v6.55h-1.61Z"/>
        <path class="cls-2" d="M334.52,140v1a3,3,0,0,1,.9-.84,2.14,2.14,0,0,1,1.13-.31,2.06,2.06,0,0,1,1.46.5,1.9,1.9,0,0,1,.56,1.47v4.68H337v-4.2a1.15,1.15,0,0,0-.25-.82.93.93,0,0,0-.68-.26,1.06,1.06,0,0,0-.74.32,2.11,2.11,0,0,0-.55.91,4.42,4.42,0,0,0-.21,1.44v2.61h-1.61V140Z"/>
        <path class="cls-2" d="M346.22,143.79H341.7a1.8,1.8,0,0,0,.51,1.1,1.49,1.49,0,0,0,1.05.38,1.55,1.55,0,0,0,.91-.25,2.15,2.15,0,0,0,.67-.77l1.3.48a3.16,3.16,0,0,1-1.12,1.42,3.21,3.21,0,0,1-1.85.5,3.06,3.06,0,0,1-1.78-.5,3,3,0,0,1-1-1.28,4,4,0,0,1-.33-1.6,4.07,4.07,0,0,1,.33-1.61,2.92,2.92,0,0,1,1-1.27,3,3,0,0,1,1.78-.5,2.92,2.92,0,0,1,1.71.48,3,3,0,0,1,1,1.23,3.88,3.88,0,0,1,.32,1.52Zm-1.65-1.28a1.84,1.84,0,0,0-.46-.9,1.27,1.27,0,0,0-.94-.35,1.36,1.36,0,0,0-.9.32,1.7,1.7,0,0,0-.53.93Z"/>
        <path class="cls-2" d="M349.29,140v1.07a2.56,2.56,0,0,1,.86-.87,2.1,2.1,0,0,1,1.08-.3,2.65,2.65,0,0,1,.79.13l-.3,1.49a1.28,1.28,0,0,0-.68-.18,1.49,1.49,0,0,0-1.26.69,3.94,3.94,0,0,0-.49,2.19v2.33h-1.61V140Z"/>
      </g>
      <g>
        <rect class="cls-5" x="280.26" y="57.5" width="85.57" height="23" rx="4.87"/>
        <path class="cls-2" d="M361,58a4.37,4.37,0,0,1,4.37,4.37V75.63A4.37,4.37,0,0,1,361,80H285.13a4.37,4.37,0,0,1-4.37-4.37V62.37A4.37,4.37,0,0,1,285.13,58H361m0-1H285.13a5.36,5.36,0,0,0-5.37,5.37V75.63A5.36,5.36,0,0,0,285.13,81H361a5.37,5.37,0,0,0,5.37-5.37V62.37A5.37,5.37,0,0,0,361,57Z"/>
      </g>
      <g>
        <path class="cls-2" d="M319.41,72.37h-.82l-.39-1.24H316l-.39,1.24h-.81l1.9-5.8h.81Zm-3.2-2H318l-.88-2.83Z"/>
        <path class="cls-2" d="M321.3,68.71a1.38,1.38,0,0,1,1.27-.72c1,0,1.73.83,1.73,2.24s-.74,2.24-1.73,2.24a1.37,1.37,0,0,1-1.27-.71v2h-.74V68.06h.74Zm1.12,3.15c.73,0,1.11-.61,1.11-1.63s-.38-1.62-1.11-1.62-1.15.49-1.15,1.62S321.8,71.86,322.42,71.86Z"/>
        <path class="cls-2" d="M326.47,68.71a1.38,1.38,0,0,1,1.27-.72c1,0,1.73.83,1.73,2.24s-.74,2.24-1.73,2.24a1.37,1.37,0,0,1-1.27-.71v2h-.74V68.06h.74Zm1.11,3.15c.74,0,1.12-.61,1.12-1.63s-.38-1.62-1.12-1.62-1.15.49-1.15,1.62S327,71.86,327.58,71.86Z"/>
      </g>
      <g>
        <rect class="cls-5" x="280.26" y="89.5" width="85.57" height="23" rx="4.87"/>
        <path class="cls-2" d="M361,90a4.37,4.37,0,0,1,4.37,4.37v13.26A4.37,4.37,0,0,1,361,112H285.13a4.37,4.37,0,0,1-4.37-4.37V94.37A4.37,4.37,0,0,1,285.13,90H361m0-1H285.13a5.36,5.36,0,0,0-5.37,5.37v13.26a5.36,5.36,0,0,0,5.37,5.37H361a5.37,5.37,0,0,0,5.37-5.37V94.37A5.37,5.37,0,0,0,361,89Z"/>
      </g>
      <g>
        <path class="cls-2" d="M294,98.57c1.65,0,3,.68,3,2.89s-1.33,2.91-3,2.91h-1v-5.8Zm0,.72h-.21v4.36H294c1.08,0,2.22-.22,2.22-2.19S295.06,99.29,294,99.29Z"/>
        <path class="cls-2" d="M298.08,102.23A2,2,0,0,1,300,100c1.26,0,2,.92,1.92,2.46h-3.09c0,.86.48,1.43,1.16,1.43a1,1,0,0,0,1.11-.79h.76a1.78,1.78,0,0,1-1.86,1.39C298.73,104.47,298.08,103.5,298.08,102.23Zm.79-.4h2.3a1.1,1.1,0,0,0-1.14-1.24C299.34,100.59,298.9,101,298.87,101.83Z"/>
        <path class="cls-2" d="M304.21,100.71a1.38,1.38,0,0,1,1.27-.72c1,0,1.74.83,1.74,2.24s-.75,2.24-1.74,2.24a1.37,1.37,0,0,1-1.27-.71v2h-.74v-5.71h.74Zm1.12,3.15c.73,0,1.11-.61,1.11-1.63s-.38-1.62-1.11-1.62-1.15.49-1.15,1.62S304.71,103.86,305.33,103.86Z"/>
        <path class="cls-2" d="M308.42,102.23a2,2,0,0,1,1.95-2.25c1.25,0,2,.92,1.92,2.46h-3.1c0,.86.48,1.43,1.16,1.43a1,1,0,0,0,1.11-.79h.76a1.76,1.76,0,0,1-1.85,1.39C309.07,104.47,308.42,103.5,308.42,102.23Zm.78-.4h2.3a1.1,1.1,0,0,0-1.13-1.24C309.67,100.59,309.23,101,309.2,101.83Z"/>
        <path class="cls-2" d="M314.58,100.67a1.33,1.33,0,0,1,1.26-.68c1,0,1.35.69,1.35,1.64v2.74h-.73v-2.48c0-.7-.06-1.27-.86-1.27s-1,.49-1,1.41v2.34h-.74v-4.31h.74Z"/>
        <path class="cls-2" d="M321.65,98.57h.73v5.8h-.72v-.61a1.37,1.37,0,0,1-1.27.71c-1,0-1.74-.82-1.74-2.24s.75-2.24,1.74-2.24a1.38,1.38,0,0,1,1.27.72Zm-1.12,2c-.74,0-1.11.6-1.11,1.62s.37,1.63,1.11,1.63,1.15-.5,1.15-1.63S321.14,100.61,320.53,100.61Z"/>
        <path class="cls-2" d="M323.92,102.23a2,2,0,0,1,1.95-2.25c1.26,0,2,.92,1.92,2.46H324.7c0,.86.48,1.43,1.16,1.43a1,1,0,0,0,1.11-.79h.76a1.78,1.78,0,0,1-1.86,1.39C324.57,104.47,323.92,103.5,323.92,102.23Zm.79-.4H327a1.11,1.11,0,0,0-1.14-1.24C325.18,100.59,324.74,101,324.71,101.83Z"/>
        <path class="cls-2" d="M330.08,100.67a1.35,1.35,0,0,1,1.26-.68c1,0,1.36.69,1.36,1.64v2.74H332v-2.48c0-.7-.06-1.27-.86-1.27s-1,.49-1,1.41v2.34h-.73v-4.31h.73Z"/>
        <path class="cls-2" d="M338,101.5h-.74a1,1,0,0,0-1-.9c-.64,0-1.16.55-1.16,1.63s.52,1.64,1.16,1.64a1.06,1.06,0,0,0,1-.89H338a1.79,1.79,0,0,1-1.85,1.49c-1.19,0-1.9-.93-1.9-2.24a2,2,0,0,1,2-2.24A1.68,1.68,0,0,1,338,101.5Z"/>
        <path class="cls-2" d="M341.79,100.06v3.67H343v.64h-3.18v-.64h1.22v-3h-1.22v-.64Zm0-1.49v.87h-.73v-.87Z"/>
        <path class="cls-2" d="M344.59,102.23a2,2,0,0,1,2-2.25c1.26,0,2,.92,1.92,2.46h-3.09c0,.86.48,1.43,1.16,1.43a1,1,0,0,0,1.11-.79h.76a1.78,1.78,0,0,1-1.86,1.39C345.24,104.47,344.59,103.5,344.59,102.23Zm.79-.4h2.3a1.1,1.1,0,0,0-1.14-1.24C345.85,100.59,345.41,101,345.38,101.83Z"/>
        <path class="cls-2" d="M352.58,101.24c-.1-.48-.48-.64-1-.64s-.87.17-.87.55.23.49.65.58l.48.09c.74.15,1.54.43,1.54,1.29s-.78,1.36-1.71,1.36a1.61,1.61,0,0,1-1.76-1.39h.77a.9.9,0,0,0,1,.78c.46,0,1-.16,1-.66s-.36-.6-.9-.7l-.54-.1c-.68-.14-1.21-.47-1.21-1.22s.9-1.19,1.62-1.19a1.58,1.58,0,0,1,1.69,1.25Z"/>
      </g>
    </g>
    <g>
      <g>
        <g>
          <path class="cls-2" d="M443,40.66H545.66a13.56,13.56,0,0,1,13.56,13.56v96.22A13.56,13.56,0,0,1,545.66,164H444a13.56,13.56,0,0,1-13.56-13.56V53.22A12.56,12.56,0,0,1,443,40.66Z"/>
          <path class="cls-2" d="M545.66,164.5H444a14.07,14.07,0,0,1-14.05-14.06V53.22A13.07,13.07,0,0,1,443,40.16H545.66a14.08,14.08,0,0,1,14.06,14.06v96.22A14.08,14.08,0,0,1,545.66,164.5ZM443,41.16a12.06,12.06,0,0,0-12.05,12.06v97.22A13.07,13.07,0,0,0,444,163.5H545.66a13.08,13.08,0,0,0,13.06-13.06V54.22a13.08,13.08,0,0,0-13.06-13.06Z"/>
        </g>
        <g>
          <path class="cls-4" d="M448.34,159.15a13.07,13.07,0,0,1-13.06-13.05V48.87a13.07,13.07,0,0,1,13.06-13H549a14.06,14.06,0,0,1,14,14V146.1a13.06,13.06,0,0,1-13,13.05Z"/>
          <path class="cls-2" d="M549,36.32a13.57,13.57,0,0,1,13.55,13.55V146.1A12.56,12.56,0,0,1,550,158.65H448.34a12.57,12.57,0,0,1-12.56-12.55V48.87a12.57,12.57,0,0,1,12.56-12.55H549m0-1H448.34a13.56,13.56,0,0,0-13.56,13.55V146.1a13.56,13.56,0,0,0,13.56,13.55H550a13.55,13.55,0,0,0,13.55-13.55V49.87A14.6,14.6,0,0,0,549,35.32Z"/>
        </g>
      </g>
      <g>
        <path class="cls-2" d="M472.5,146.11a4,4,0,0,1-1.56-1.6,5.68,5.68,0,0,1,0-5,4,4,0,0,1,1.56-1.59,4.43,4.43,0,0,1,2.15-.54,4.08,4.08,0,0,1,2.47.72,3.44,3.44,0,0,1,1.3,2l-1.52.39a2.61,2.61,0,0,0-.82-1.17,2.29,2.29,0,0,0-1.43-.41,2.54,2.54,0,0,0-1.31.34,2.43,2.43,0,0,0-.93,1,3.86,3.86,0,0,0-.34,1.71,3.8,3.8,0,0,0,.34,1.71,2.43,2.43,0,0,0,.93,1,2.54,2.54,0,0,0,1.31.35,2.23,2.23,0,0,0,1.43-.42,2.61,2.61,0,0,0,.82-1.17l1.52.39a3.41,3.41,0,0,1-1.3,2,4.09,4.09,0,0,1-2.47.73A4.43,4.43,0,0,1,472.5,146.11Z"/>
        <path class="cls-2" d="M481.06,146.2a2.92,2.92,0,0,1-1.15-1.21,4,4,0,0,1,0-3.45,2.92,2.92,0,0,1,1.15-1.21,3.43,3.43,0,0,1,1.78-.44,3.38,3.38,0,0,1,1.78.44,2.88,2.88,0,0,1,1.16,1.21,4,4,0,0,1,0,3.45,2.88,2.88,0,0,1-1.16,1.21,3.39,3.39,0,0,1-1.78.45A3.44,3.44,0,0,1,481.06,146.2Zm3-1.51a2.53,2.53,0,0,0,0-2.85,1.52,1.52,0,0,0-2.39,0,2.53,2.53,0,0,0,0,2.85,1.52,1.52,0,0,0,2.39,0Z"/>
        <path class="cls-2" d="M489.24,140v1a3,3,0,0,1,.9-.84,2.11,2.11,0,0,1,1.13-.31,2.06,2.06,0,0,1,1.46.5,1.89,1.89,0,0,1,.55,1.47v4.68h-1.61v-4.2a1.15,1.15,0,0,0-.25-.82.93.93,0,0,0-.68-.26,1.1,1.1,0,0,0-.75.32,2.2,2.2,0,0,0-.54.91,4.42,4.42,0,0,0-.21,1.44v2.61h-1.61V140Z"/>
        <path class="cls-2" d="M495.84,146a2.39,2.39,0,0,1-.63-1.8v-2.86h-1V140h1v-1.64l1.61-1V140h1.73v1.38h-1.73v2.83a1.27,1.27,0,0,0,.21.83.84.84,0,0,0,.65.24,1.27,1.27,0,0,0,.62-.16l.38,1.3a2.71,2.71,0,0,1-2.84-.38Z"/>
        <path class="cls-2" d="M499.9,146.13a1.93,1.93,0,0,1-.56-1.47,1.9,1.9,0,0,1,.74-1.56,3.15,3.15,0,0,1,2-.59h1.15v-.28a.84.84,0,0,0-.33-.73,1.33,1.33,0,0,0-.82-.24A1.11,1.11,0,0,0,501,142l-1.36-.31a2,2,0,0,1,.84-1.32,2.65,2.65,0,0,1,1.65-.5,2.83,2.83,0,0,1,2,.69,2.72,2.72,0,0,1,.72,2v3.91h-1.33l-.16-.83a2.52,2.52,0,0,1-2,.94A2,2,0,0,1,499.9,146.13Zm2.89-1.23a1.24,1.24,0,0,0,.44-1v-.13h-1.08a1.42,1.42,0,0,0-.83.2.74.74,0,0,0-.29.64.58.58,0,0,0,.2.46.77.77,0,0,0,.53.18A1.61,1.61,0,0,0,502.79,144.9Z"/>
        <path class="cls-2" d="M506.6,138.85a1.08,1.08,0,0,1,0-1.49,1,1,0,0,1,.74-.3,1,1,0,1,1,0,2.08A1,1,0,0,1,506.6,138.85Zm-.07,1.14h1.61v6.55h-1.61Z"/>
        <path class="cls-2" d="M511.52,140v1a3,3,0,0,1,.9-.84,2.14,2.14,0,0,1,1.13-.31,2.06,2.06,0,0,1,1.46.5,1.9,1.9,0,0,1,.56,1.47v4.68H514v-4.2a1.15,1.15,0,0,0-.25-.82.93.93,0,0,0-.68-.26,1.06,1.06,0,0,0-.74.32,2.11,2.11,0,0,0-.55.91,4.42,4.42,0,0,0-.21,1.44v2.61h-1.61V140Z"/>
        <path class="cls-2" d="M523.22,143.79H518.7a1.8,1.8,0,0,0,.51,1.1,1.49,1.49,0,0,0,1,.38,1.55,1.55,0,0,0,.91-.25,2.15,2.15,0,0,0,.67-.77l1.3.48a3.16,3.16,0,0,1-1.12,1.42,3.21,3.21,0,0,1-1.85.5,3.06,3.06,0,0,1-1.78-.5,3,3,0,0,1-1-1.28,4,4,0,0,1-.33-1.6,4.07,4.07,0,0,1,.33-1.61,2.92,2.92,0,0,1,1-1.27,3,3,0,0,1,1.78-.5,2.92,2.92,0,0,1,1.71.48,3,3,0,0,1,1,1.23,3.88,3.88,0,0,1,.32,1.52Zm-1.65-1.28a1.84,1.84,0,0,0-.46-.9,1.27,1.27,0,0,0-.94-.35,1.36,1.36,0,0,0-.9.32,1.7,1.7,0,0,0-.53.93Z"/>
        <path class="cls-2" d="M526.29,140v1.07a2.56,2.56,0,0,1,.86-.87,2.1,2.1,0,0,1,1.08-.3,2.65,2.65,0,0,1,.79.13l-.3,1.49a1.28,1.28,0,0,0-.68-.18,1.49,1.49,0,0,0-1.26.69,3.94,3.94,0,0,0-.49,2.19v2.33h-1.61V140Z"/>
      </g>
      <g>
        <rect class="cls-5" x="457.26" y="57.5" width="85.57" height="23" rx="4.87"/>
        <path class="cls-2" d="M538,58a4.37,4.37,0,0,1,4.37,4.37V75.63A4.37,4.37,0,0,1,538,80H462.13a4.37,4.37,0,0,1-4.37-4.37V62.37A4.37,4.37,0,0,1,462.13,58H538m0-1H462.13a5.36,5.36,0,0,0-5.37,5.37V75.63A5.36,5.36,0,0,0,462.13,81H538a5.37,5.37,0,0,0,5.37-5.37V62.37A5.37,5.37,0,0,0,538,57Z"/>
      </g>
      <g>
        <path class="cls-2" d="M496.41,72.37h-.82l-.39-1.24H493l-.39,1.24h-.81l1.9-5.8h.81Zm-3.2-2H495l-.88-2.83Z"/>
        <path class="cls-2" d="M498.3,68.71a1.38,1.38,0,0,1,1.27-.72c1,0,1.73.83,1.73,2.24s-.74,2.24-1.73,2.24a1.37,1.37,0,0,1-1.27-.71v2h-.74V68.06h.74Zm1.12,3.15c.73,0,1.11-.61,1.11-1.63s-.38-1.62-1.11-1.62-1.15.49-1.15,1.62S498.8,71.86,499.42,71.86Z"/>
        <path class="cls-2" d="M503.47,68.71a1.38,1.38,0,0,1,1.27-.72c1,0,1.73.83,1.73,2.24s-.74,2.24-1.73,2.24a1.37,1.37,0,0,1-1.27-.71v2h-.74V68.06h.74Zm1.11,3.15c.74,0,1.12-.61,1.12-1.63s-.38-1.62-1.12-1.62-1.15.49-1.15,1.62S504,71.86,504.58,71.86Z"/>
      </g>
      <g>
        <rect class="cls-5" x="457.26" y="89.5" width="85.57" height="23" rx="4.87"/>
        <path class="cls-2" d="M538,90a4.37,4.37,0,0,1,4.37,4.37v13.26A4.37,4.37,0,0,1,538,112H462.13a4.37,4.37,0,0,1-4.37-4.37V94.37A4.37,4.37,0,0,1,462.13,90H538m0-1H462.13a5.36,5.36,0,0,0-5.37,5.37v13.26a5.36,5.36,0,0,0,5.37,5.37H538a5.37,5.37,0,0,0,5.37-5.37V94.37A5.37,5.37,0,0,0,538,89Z"/>
      </g>
      <g>
        <path class="cls-2" d="M471,98.57c1.65,0,3,.68,3,2.89s-1.33,2.91-3,2.91h-1v-5.8Zm0,.72h-.21v4.36H471c1.08,0,2.22-.22,2.22-2.19S472.06,99.29,471,99.29Z"/>
        <path class="cls-2" d="M475.08,102.23A2,2,0,0,1,477,100c1.26,0,2,.92,1.92,2.46h-3.09c0,.86.48,1.43,1.16,1.43a1,1,0,0,0,1.11-.79h.76a1.78,1.78,0,0,1-1.86,1.39C475.73,104.47,475.08,103.5,475.08,102.23Zm.79-.4h2.3a1.1,1.1,0,0,0-1.14-1.24C476.34,100.59,475.9,101,475.87,101.83Z"/>
        <path class="cls-2" d="M481.21,100.71a1.38,1.38,0,0,1,1.27-.72c1,0,1.74.83,1.74,2.24s-.75,2.24-1.74,2.24a1.37,1.37,0,0,1-1.27-.71v2h-.74v-5.71h.74Zm1.12,3.15c.73,0,1.11-.61,1.11-1.63s-.38-1.62-1.11-1.62-1.15.49-1.15,1.62S481.71,103.86,482.33,103.86Z"/>
        <path class="cls-2" d="M485.42,102.23a2,2,0,0,1,1.95-2.25c1.25,0,2,.92,1.92,2.46h-3.1c0,.86.48,1.43,1.16,1.43a1,1,0,0,0,1.11-.79h.76a1.76,1.76,0,0,1-1.85,1.39C486.07,104.47,485.42,103.5,485.42,102.23Zm.78-.4h2.3a1.1,1.1,0,0,0-1.13-1.24C486.67,100.59,486.23,101,486.2,101.83Z"/>
        <path class="cls-2" d="M491.58,100.67a1.33,1.33,0,0,1,1.26-.68c1,0,1.35.69,1.35,1.64v2.74h-.73v-2.48c0-.7-.06-1.27-.86-1.27s-1,.49-1,1.41v2.34h-.74v-4.31h.74Z"/>
        <path class="cls-2" d="M498.65,98.57h.73v5.8h-.72v-.61a1.37,1.37,0,0,1-1.27.71c-1,0-1.74-.82-1.74-2.24s.75-2.24,1.74-2.24a1.38,1.38,0,0,1,1.27.72Zm-1.12,2c-.74,0-1.11.6-1.11,1.62s.37,1.63,1.11,1.63,1.15-.5,1.15-1.63S498.14,100.61,497.53,100.61Z"/>
        <path class="cls-2" d="M500.92,102.23a2,2,0,0,1,1.95-2.25c1.26,0,2,.92,1.92,2.46H501.7c0,.86.48,1.43,1.16,1.43a1,1,0,0,0,1.11-.79h.76a1.78,1.78,0,0,1-1.86,1.39C501.57,104.47,500.92,103.5,500.92,102.23Zm.79-.4H504a1.11,1.11,0,0,0-1.14-1.24C502.18,100.59,501.74,101,501.71,101.83Z"/>
        <path class="cls-2" d="M507.08,100.67a1.35,1.35,0,0,1,1.26-.68c1,0,1.36.69,1.36,1.64v2.74H509v-2.48c0-.7-.06-1.27-.86-1.27s-1,.49-1,1.41v2.34h-.73v-4.31h.73Z"/>
        <path class="cls-2" d="M515,101.5h-.74a1,1,0,0,0-1-.9c-.64,0-1.16.55-1.16,1.63s.52,1.64,1.16,1.64a1.06,1.06,0,0,0,1-.89H515a1.79,1.79,0,0,1-1.85,1.49c-1.19,0-1.9-.93-1.9-2.24a2,2,0,0,1,2-2.24A1.68,1.68,0,0,1,515,101.5Z"/>
        <path class="cls-2" d="M518.79,100.06v3.67H520v.64h-3.18v-.64h1.22v-3h-1.22v-.64Zm0-1.49v.87h-.73v-.87Z"/>
        <path class="cls-2" d="M521.59,102.23a2,2,0,0,1,1.95-2.25c1.26,0,2,.92,1.92,2.46h-3.09c0,.86.48,1.43,1.16,1.43a1,1,0,0,0,1.11-.79h.76a1.78,1.78,0,0,1-1.86,1.39C522.24,104.47,521.59,103.5,521.59,102.23Zm.79-.4h2.3a1.1,1.1,0,0,0-1.14-1.24C522.85,100.59,522.41,101,522.38,101.83Z"/>
        <path class="cls-2" d="M529.58,101.24c-.1-.48-.48-.64-1-.64s-.87.17-.87.55.23.49.65.58l.48.09c.74.15,1.54.43,1.54,1.29s-.78,1.36-1.71,1.36a1.61,1.61,0,0,1-1.76-1.39h.77a.9.9,0,0,0,1,.78c.46,0,1-.16,1-.66s-.36-.6-.9-.7l-.54-.1c-.68-.14-1.21-.47-1.21-1.22s.9-1.19,1.62-1.19a1.58,1.58,0,0,1,1.69,1.25Z"/>
      </g>
    </g>
  </g>
</svg>
